G04 #@! TF.FileFunction,Copper,L1,Top,Signal*
%FSLAX46Y46*%
G04 Gerber Fmt 4.6, Leading zero omitted, Abs format (unit mm)*
G04 Created by KiCad (PCBNEW 4.0.7) date 11/09/20 07:26:58*
%MOMM*%
%LPD*%
G01*
G04 APERTURE LIST*
%ADD10C,0.100000*%
%ADD11R,2.500000X4.500000*%
%ADD12O,2.500000X4.500000*%
%ADD13C,2.400000*%
%ADD14R,3.000000X3.000000*%
%ADD15C,3.000000*%
%ADD16C,5.100000*%
%ADD17C,10.000000*%
%ADD18O,2.400000X2.400000*%
%ADD19C,4.064000*%
%ADD20R,2.200000X2.200000*%
%ADD21O,2.200000X2.200000*%
%ADD22R,2.600000X2.600000*%
%ADD23O,2.600000X2.600000*%
%ADD24C,2.000000*%
%ADD25C,3.000000*%
%ADD26C,6.000000*%
%ADD27C,5.000000*%
%ADD28C,1.000000*%
%ADD29C,4.000000*%
%ADD30C,2.500000*%
G04 APERTURE END LIST*
D10*
D11*
X113792000Y-116332000D03*
D12*
X108342000Y-116332000D03*
X102892000Y-116332000D03*
D13*
X114808000Y-93472000D03*
X114808000Y-83472000D03*
X105988000Y-88718000D03*
X83488000Y-88718000D03*
X74422000Y-93726000D03*
X74422000Y-83726000D03*
X83312000Y-103632000D03*
X105812000Y-103632000D03*
X73914000Y-98552000D03*
X73914000Y-108552000D03*
X115062000Y-98806000D03*
X115062000Y-108806000D03*
D14*
X134620000Y-78740000D03*
D15*
X129540000Y-78740000D03*
D14*
X55626000Y-78740000D03*
D15*
X60706000Y-78740000D03*
D16*
X94742000Y-54102000D03*
D14*
X54356000Y-113030000D03*
D15*
X59436000Y-113030000D03*
D14*
X133350000Y-112522000D03*
D15*
X128270000Y-112522000D03*
D16*
X94742000Y-135191500D03*
D17*
X133350000Y-96774000D03*
X54864000Y-96266000D03*
D11*
X102108000Y-75946000D03*
D12*
X107558000Y-75946000D03*
X113008000Y-75946000D03*
D11*
X73660000Y-76200000D03*
D12*
X79110000Y-76200000D03*
X84560000Y-76200000D03*
D11*
X87630000Y-116078000D03*
D12*
X82180000Y-116078000D03*
X76730000Y-116078000D03*
D13*
X121920000Y-93472000D03*
D18*
X121920000Y-78232000D03*
D13*
X67056000Y-93726000D03*
D18*
X67056000Y-78486000D03*
D13*
X67056000Y-98806000D03*
D18*
X67056000Y-114046000D03*
D13*
X121920000Y-99060000D03*
D18*
X121920000Y-114300000D03*
D19*
X50000000Y-50000000D03*
X140000000Y-50000000D03*
X50000000Y-140000000D03*
X140000000Y-140000000D03*
D20*
X52070000Y-62230000D03*
D21*
X52070000Y-72390000D03*
D20*
X135890000Y-129032000D03*
D21*
X135890000Y-118872000D03*
D20*
X52324000Y-129794000D03*
D21*
X52324000Y-119634000D03*
D20*
X136652000Y-61722000D03*
D21*
X136652000Y-71882000D03*
D20*
X128778000Y-68326000D03*
D21*
X118618000Y-68326000D03*
D20*
X58420000Y-67564000D03*
D21*
X68580000Y-67564000D03*
D20*
X129032000Y-124206000D03*
D21*
X118872000Y-124206000D03*
D13*
X118872000Y-72390000D03*
D18*
X131572000Y-72390000D03*
D13*
X68834000Y-72136000D03*
D18*
X56134000Y-72136000D03*
D13*
X118872000Y-119634000D03*
D18*
X131572000Y-119634000D03*
D20*
X59182000Y-123952000D03*
D21*
X69342000Y-123952000D03*
D13*
X69342000Y-120142000D03*
D18*
X56642000Y-120142000D03*
D22*
X131572000Y-61976000D03*
D23*
X118872000Y-61976000D03*
D22*
X69342000Y-61722000D03*
D23*
X56642000Y-61722000D03*
D22*
X57658000Y-131064000D03*
D23*
X70358000Y-131064000D03*
D22*
X118618000Y-130302000D03*
D23*
X131318000Y-130302000D03*
D24*
X114808000Y-93472000D02*
X121674000Y-93718000D01*
X121674000Y-93718000D02*
X121920000Y-93472000D01*
X118872000Y-61976000D02*
X114300000Y-61976000D01*
X114300000Y-61976000D02*
X113008000Y-63268000D01*
D25*
X79110000Y-76200000D02*
X79110000Y-56018000D01*
X79110000Y-56018000D02*
X81280000Y-53848000D01*
X81280000Y-53848000D02*
X93980000Y-54864000D01*
X93980000Y-54864000D02*
X94742000Y-54102000D01*
D26*
X113008000Y-67796000D02*
X113008000Y-63268000D01*
X113008000Y-63268000D02*
X113008000Y-60474000D01*
X113008000Y-60474000D02*
X113008000Y-60176000D01*
X113008000Y-75946000D02*
X113008000Y-67796000D01*
X113008000Y-60176000D02*
X105918000Y-53086000D01*
X105918000Y-53086000D02*
X94742000Y-54102000D01*
D24*
X67056000Y-78486000D02*
X69342000Y-78486000D01*
X69342000Y-78486000D02*
X71374000Y-80518000D01*
X71374000Y-80518000D02*
X78994000Y-80518000D01*
X78994000Y-80518000D02*
X79110000Y-78370000D01*
X79110000Y-78370000D02*
X79110000Y-76200000D01*
X57658000Y-131064000D02*
X61722000Y-130302000D01*
X67056000Y-115570000D02*
X67056000Y-114046000D01*
X63754000Y-118872000D02*
X67056000Y-115570000D01*
X63754000Y-128270000D02*
X63754000Y-118872000D01*
X61722000Y-130302000D02*
X63754000Y-128270000D01*
X131572000Y-61976000D02*
X126238000Y-61976000D01*
X122936000Y-77216000D02*
X121920000Y-78232000D01*
X122936000Y-65278000D02*
X122936000Y-77216000D01*
X126238000Y-61976000D02*
X122936000Y-65278000D01*
X122682000Y-77470000D02*
X121920000Y-78232000D01*
D27*
X133540500Y-96774000D02*
X137795000Y-101028500D01*
X133350000Y-96774000D02*
X133540500Y-96774000D01*
X133540500Y-96774000D02*
X137604500Y-92710000D01*
X132905500Y-96774000D02*
X129286000Y-93154500D01*
X133350000Y-96774000D02*
X132905500Y-96774000D01*
D24*
X74422000Y-83726000D02*
X65684000Y-83718000D01*
X65684000Y-83718000D02*
X60706000Y-78740000D01*
X128270000Y-112522000D02*
X128270000Y-113284000D01*
X128270000Y-113284000D02*
X131064000Y-116078000D01*
X132842000Y-116078000D02*
X135890000Y-118872000D01*
X131064000Y-116078000D02*
X132842000Y-116078000D01*
X128270000Y-112522000D02*
X128270000Y-107442000D01*
X128270000Y-107442000D02*
X125222000Y-104394000D01*
D26*
X102892000Y-116332000D02*
X102892000Y-106404000D01*
X102892000Y-106404000D02*
X105664000Y-103632000D01*
X105664000Y-103632000D02*
X105812000Y-103632000D01*
D28*
X115062000Y-108806000D02*
X104808000Y-109060000D01*
X104808000Y-109060000D02*
X101368000Y-112500000D01*
X101368000Y-112500000D02*
X102892000Y-116332000D01*
D24*
X74422000Y-83726000D02*
X78488000Y-83718000D01*
X78488000Y-83718000D02*
X83488000Y-88718000D01*
D26*
X83488000Y-88718000D02*
X83488000Y-87708000D01*
X83488000Y-87708000D02*
X88878000Y-82318000D01*
X88878000Y-82318000D02*
X84560000Y-76200000D01*
X105664000Y-103632000D02*
X105812000Y-103632000D01*
X105812000Y-103632000D02*
X101600000Y-103632000D01*
X86686000Y-88718000D02*
X83488000Y-88718000D01*
X101600000Y-103632000D02*
X86686000Y-88718000D01*
D27*
X105812000Y-103632000D02*
X108458000Y-103632000D01*
X108458000Y-103632000D02*
X109220000Y-104394000D01*
X109220000Y-104394000D02*
X125222000Y-104394000D01*
X125222000Y-104394000D02*
X126492000Y-104394000D01*
X126492000Y-104394000D02*
X133350000Y-96774000D01*
D29*
X105410000Y-103632000D02*
X105812000Y-103632000D01*
D24*
X74642000Y-83506000D02*
X74422000Y-83726000D01*
D28*
X74422000Y-83066000D02*
X74422000Y-83726000D01*
D24*
X115316000Y-109060000D02*
X115062000Y-108806000D01*
X74422000Y-93726000D02*
X67064000Y-93718000D01*
X67064000Y-93718000D02*
X67056000Y-93726000D01*
X67064000Y-93718000D02*
X67056000Y-93726000D01*
X67056000Y-98806000D02*
X73660000Y-98806000D01*
X73660000Y-98806000D02*
X73914000Y-98552000D01*
X70358000Y-131064000D02*
X75692000Y-131064000D01*
X75692000Y-131064000D02*
X76730000Y-130026000D01*
D25*
X94996000Y-135445500D02*
X94742000Y-135191500D01*
X102362000Y-137668000D02*
X94996000Y-135445500D01*
X108342000Y-131688000D02*
X102362000Y-137668000D01*
X108342000Y-116332000D02*
X108342000Y-131688000D01*
D26*
X84118000Y-137414000D02*
X94742000Y-135191500D01*
X76730000Y-130026000D02*
X84118000Y-137414000D01*
X76730000Y-116078000D02*
X76730000Y-130026000D01*
D28*
X121920000Y-114300000D02*
X121920000Y-114554000D01*
D24*
X121920000Y-99060000D02*
X115062000Y-98806000D01*
X128778000Y-68326000D02*
X128778000Y-69596000D01*
X128778000Y-69596000D02*
X131572000Y-72390000D01*
X131572000Y-72390000D02*
X131572000Y-73406000D01*
X131572000Y-73406000D02*
X134620000Y-76454000D01*
X134620000Y-76454000D02*
X134620000Y-78740000D01*
X118618000Y-68326000D02*
X118618000Y-72136000D01*
X118618000Y-72136000D02*
X118872000Y-72390000D01*
X118872000Y-72390000D02*
X118872000Y-71628000D01*
X118872000Y-72390000D02*
X118872000Y-77216000D01*
X102108000Y-80010000D02*
X102108000Y-75946000D01*
X102616000Y-80518000D02*
X102108000Y-80010000D01*
X115570000Y-80518000D02*
X102616000Y-80518000D01*
X118872000Y-77216000D02*
X115570000Y-80518000D01*
D28*
X101600000Y-76454000D02*
X102108000Y-75946000D01*
X102362000Y-75692000D02*
X102108000Y-75946000D01*
D24*
X56134000Y-72136000D02*
X56134000Y-78232000D01*
X56134000Y-78232000D02*
X55626000Y-78740000D01*
X58420000Y-67564000D02*
X58420000Y-69850000D01*
X58420000Y-69850000D02*
X56134000Y-72136000D01*
X68580000Y-67564000D02*
X68580000Y-67310000D01*
X68580000Y-67310000D02*
X66040000Y-64770000D01*
X55118000Y-64770000D02*
X52070000Y-62230000D01*
X66040000Y-64770000D02*
X55118000Y-64770000D01*
X68580000Y-67564000D02*
X68580000Y-71882000D01*
X68580000Y-71882000D02*
X68834000Y-72136000D01*
X68834000Y-72136000D02*
X69596000Y-72136000D01*
X69596000Y-72136000D02*
X73660000Y-76200000D01*
D28*
X72898000Y-76454000D02*
X73660000Y-76200000D01*
D24*
X56642000Y-120142000D02*
X56642000Y-121412000D01*
X56642000Y-121412000D02*
X59182000Y-123952000D01*
X54356000Y-113030000D02*
X54356000Y-113792000D01*
X54356000Y-113792000D02*
X56642000Y-116586000D01*
X56642000Y-116586000D02*
X56642000Y-120142000D01*
X54356000Y-113030000D02*
X54356000Y-113284000D01*
X69342000Y-120142000D02*
X69342000Y-119126000D01*
X69342000Y-119126000D02*
X71882000Y-116586000D01*
X71882000Y-116586000D02*
X71882000Y-113792000D01*
X69342000Y-120142000D02*
X69342000Y-123952000D01*
X87630000Y-112522000D02*
X87630000Y-116078000D01*
X86868000Y-111760000D02*
X87630000Y-112522000D01*
X86360000Y-111760000D02*
X86868000Y-111760000D01*
X86106000Y-111506000D02*
X86360000Y-111760000D01*
X72390000Y-111506000D02*
X86106000Y-111506000D01*
X71882000Y-112014000D02*
X72390000Y-111506000D01*
X71882000Y-113792000D02*
X71882000Y-112014000D01*
D28*
X87376000Y-115824000D02*
X87630000Y-116078000D01*
X87376000Y-115824000D02*
X87630000Y-116078000D01*
X87122000Y-115570000D02*
X87630000Y-116078000D01*
D24*
X135890000Y-129032000D02*
X135636000Y-127508000D01*
X121920000Y-127254000D02*
X118872000Y-124206000D01*
X135382000Y-127254000D02*
X121920000Y-127254000D01*
X135636000Y-127508000D02*
X135382000Y-127254000D01*
X118872000Y-119634000D02*
X117094000Y-119634000D01*
X117094000Y-119634000D02*
X113792000Y-116332000D01*
X118872000Y-124206000D02*
X118872000Y-119634000D01*
D28*
X113792000Y-115316000D02*
X113792000Y-116332000D01*
G36*
X98309023Y-76198598D02*
X98309023Y-78196000D01*
X98483345Y-79122444D01*
X98608000Y-79316163D01*
X98608000Y-80010000D01*
X98874422Y-81349392D01*
X99633126Y-82484874D01*
X100141124Y-82992871D01*
X100141126Y-82992874D01*
X100915061Y-83510000D01*
X101276608Y-83751578D01*
X102616000Y-84018000D01*
X111107522Y-84018000D01*
X111107359Y-84204747D01*
X111669464Y-85565143D01*
X112709382Y-86606878D01*
X114068796Y-87171356D01*
X115540747Y-87172641D01*
X116901143Y-86610536D01*
X117942878Y-85570618D01*
X118507356Y-84211204D01*
X118508641Y-82739253D01*
X118447198Y-82590550D01*
X119791219Y-81246529D01*
X120504071Y-81722841D01*
X121920000Y-82004487D01*
X123198000Y-81750277D01*
X123198000Y-85090000D01*
X123237393Y-85284528D01*
X123344447Y-85443553D01*
X123852447Y-85951553D01*
X124017854Y-86061250D01*
X124206000Y-86098000D01*
X133650894Y-86098000D01*
X136552447Y-88999553D01*
X136717854Y-89109250D01*
X136906000Y-89146000D01*
X140216000Y-89146000D01*
X140216000Y-104402000D01*
X124460000Y-104402000D01*
X124265472Y-104441393D01*
X124101596Y-104553365D01*
X123994195Y-104720271D01*
X123960000Y-104902000D01*
X123960000Y-111226150D01*
X123335929Y-110809159D01*
X121920000Y-110527513D01*
X120504071Y-110809159D01*
X119303705Y-111611218D01*
X118501646Y-112811584D01*
X118220000Y-114227513D01*
X118220000Y-114372487D01*
X118373827Y-115145829D01*
X117590977Y-115122938D01*
X117590977Y-114082000D01*
X117416655Y-113155556D01*
X116869127Y-112304673D01*
X116033695Y-111733846D01*
X115042000Y-111533023D01*
X112542000Y-111533023D01*
X111615556Y-111707345D01*
X110764673Y-112254873D01*
X110680506Y-112378056D01*
X109777063Y-111774394D01*
X108342000Y-111488942D01*
X106906937Y-111774394D01*
X105690350Y-112587292D01*
X104877452Y-113803879D01*
X104809777Y-114144102D01*
X104219219Y-113505240D01*
X103848733Y-113286706D01*
X103517000Y-113425849D01*
X103517000Y-114711419D01*
X102267000Y-114674869D01*
X102267000Y-113425849D01*
X101935267Y-113286706D01*
X101564781Y-113505240D01*
X100966739Y-114152198D01*
X100789850Y-114631677D01*
X91428977Y-114357968D01*
X91428977Y-113828000D01*
X91254655Y-112901556D01*
X91130000Y-112707837D01*
X91130000Y-112522005D01*
X91130001Y-112522000D01*
X90863578Y-111182608D01*
X90460119Y-110578787D01*
X114137741Y-110578787D01*
X114272017Y-110914100D01*
X115138886Y-111055944D01*
X115851983Y-110914100D01*
X115986259Y-110578787D01*
X115062000Y-109654528D01*
X114137741Y-110578787D01*
X90460119Y-110578787D01*
X90104874Y-110047126D01*
X89342874Y-109285126D01*
X88740879Y-108882886D01*
X112812056Y-108882886D01*
X112953900Y-109595983D01*
X113289213Y-109730259D01*
X114213472Y-108806000D01*
X115910528Y-108806000D01*
X116834787Y-109730259D01*
X117170100Y-109595983D01*
X117311944Y-108729114D01*
X117170100Y-108016017D01*
X116834787Y-107881741D01*
X115910528Y-108806000D01*
X114213472Y-108806000D01*
X113289213Y-107881741D01*
X112953900Y-108016017D01*
X112812056Y-108882886D01*
X88740879Y-108882886D01*
X88207392Y-108526422D01*
X87663666Y-108418268D01*
X87445392Y-108272422D01*
X86106000Y-108006000D01*
X81526000Y-108006000D01*
X81526000Y-106896688D01*
X82572796Y-107331356D01*
X84044747Y-107332641D01*
X84769417Y-107033213D01*
X114137741Y-107033213D01*
X115062000Y-107957472D01*
X115986259Y-107033213D01*
X115851983Y-106697900D01*
X114985114Y-106556056D01*
X114272017Y-106697900D01*
X114137741Y-107033213D01*
X84769417Y-107033213D01*
X85405143Y-106770536D01*
X86446878Y-105730618D01*
X86582174Y-105404787D01*
X104887741Y-105404787D01*
X105022017Y-105740100D01*
X105888886Y-105881944D01*
X106601983Y-105740100D01*
X106736259Y-105404787D01*
X105812000Y-104480528D01*
X104887741Y-105404787D01*
X86582174Y-105404787D01*
X87011356Y-104371204D01*
X87011934Y-103708886D01*
X103562056Y-103708886D01*
X103703900Y-104421983D01*
X104039213Y-104556259D01*
X104963472Y-103632000D01*
X106660528Y-103632000D01*
X107584787Y-104556259D01*
X107920100Y-104421983D01*
X108061944Y-103555114D01*
X107920100Y-102842017D01*
X107584787Y-102707741D01*
X106660528Y-103632000D01*
X104963472Y-103632000D01*
X104039213Y-102707741D01*
X103703900Y-102842017D01*
X103562056Y-103708886D01*
X87011934Y-103708886D01*
X87012641Y-102899253D01*
X86582905Y-101859213D01*
X104887741Y-101859213D01*
X105812000Y-102783472D01*
X106736259Y-101859213D01*
X106601983Y-101523900D01*
X105735114Y-101382056D01*
X105022017Y-101523900D01*
X104887741Y-101859213D01*
X86582905Y-101859213D01*
X86450536Y-101538857D01*
X85410618Y-100497122D01*
X84051204Y-99932644D01*
X82579253Y-99931359D01*
X81526000Y-100366555D01*
X81526000Y-94204747D01*
X111107359Y-94204747D01*
X111669464Y-95565143D01*
X112369187Y-96266088D01*
X111927122Y-96707382D01*
X111362644Y-98066796D01*
X111361359Y-99538747D01*
X111923464Y-100899143D01*
X112963382Y-101940878D01*
X114322796Y-102505356D01*
X115794747Y-102506641D01*
X116174781Y-102349614D01*
X120587632Y-102513053D01*
X121180796Y-102759356D01*
X122652747Y-102760641D01*
X124013143Y-102198536D01*
X124638962Y-101573808D01*
X129964406Y-101573808D01*
X130606719Y-102251104D01*
X132911536Y-102883992D01*
X135283105Y-102586690D01*
X136093281Y-102251104D01*
X136735594Y-101573808D01*
X133350000Y-98188214D01*
X129964406Y-101573808D01*
X124638962Y-101573808D01*
X125054878Y-101158618D01*
X125619356Y-99799204D01*
X125620641Y-98327253D01*
X125058536Y-96966857D01*
X124428317Y-96335536D01*
X127240008Y-96335536D01*
X127537310Y-98707105D01*
X127872896Y-99517281D01*
X128550192Y-100159594D01*
X131935786Y-96774000D01*
X134764214Y-96774000D01*
X138149808Y-100159594D01*
X138827104Y-99517281D01*
X139459992Y-97212464D01*
X139162690Y-94840895D01*
X138827104Y-94030719D01*
X138149808Y-93388406D01*
X134764214Y-96774000D01*
X131935786Y-96774000D01*
X128550192Y-93388406D01*
X127872896Y-94030719D01*
X127240008Y-96335536D01*
X124428317Y-96335536D01*
X124358592Y-96265690D01*
X125054878Y-95570618D01*
X125619356Y-94211204D01*
X125620641Y-92739253D01*
X125304524Y-91974192D01*
X129964406Y-91974192D01*
X133350000Y-95359786D01*
X136735594Y-91974192D01*
X136093281Y-91296896D01*
X133788464Y-90664008D01*
X131416895Y-90961310D01*
X130606719Y-91296896D01*
X129964406Y-91974192D01*
X125304524Y-91974192D01*
X125058536Y-91378857D01*
X124018618Y-90337122D01*
X122659204Y-89772644D01*
X121187253Y-89771359D01*
X120236394Y-90164246D01*
X116136530Y-90017353D01*
X115547204Y-89772644D01*
X114075253Y-89771359D01*
X112714857Y-90333464D01*
X111673122Y-91373382D01*
X111108644Y-92732796D01*
X111107359Y-94204747D01*
X81526000Y-94204747D01*
X81526000Y-90490787D01*
X82563741Y-90490787D01*
X82698017Y-90826100D01*
X83564886Y-90967944D01*
X84277983Y-90826100D01*
X84412259Y-90490787D01*
X83488000Y-89566528D01*
X82563741Y-90490787D01*
X81526000Y-90490787D01*
X81526000Y-89566489D01*
X81715213Y-89642259D01*
X82639472Y-88718000D01*
X84336528Y-88718000D01*
X85260787Y-89642259D01*
X85596100Y-89507983D01*
X85605465Y-89450747D01*
X102287359Y-89450747D01*
X102849464Y-90811143D01*
X103889382Y-91852878D01*
X105248796Y-92417356D01*
X106720747Y-92418641D01*
X108081143Y-91856536D01*
X109122878Y-90816618D01*
X109687356Y-89457204D01*
X109688641Y-87985253D01*
X109126536Y-86624857D01*
X108086618Y-85583122D01*
X106727204Y-85018644D01*
X105255253Y-85017359D01*
X103894857Y-85579464D01*
X102853122Y-86619382D01*
X102288644Y-87978796D01*
X102287359Y-89450747D01*
X85605465Y-89450747D01*
X85737944Y-88641114D01*
X85596100Y-87928017D01*
X85260787Y-87793741D01*
X84336528Y-88718000D01*
X82639472Y-88718000D01*
X81715213Y-87793741D01*
X81526000Y-87869511D01*
X81526000Y-86945213D01*
X82563741Y-86945213D01*
X83488000Y-87869472D01*
X84412259Y-86945213D01*
X84277983Y-86609900D01*
X83411114Y-86468056D01*
X82698017Y-86609900D01*
X82563741Y-86945213D01*
X81526000Y-86945213D01*
X81526000Y-82907379D01*
X81796770Y-82502142D01*
X82150646Y-82029814D01*
X82174368Y-81937026D01*
X82227578Y-81857392D01*
X82342720Y-81278534D01*
X82488907Y-80706738D01*
X82603665Y-78581741D01*
X82642223Y-78387898D01*
X83232781Y-79026760D01*
X83603267Y-79245294D01*
X83935000Y-79106151D01*
X83935000Y-77200000D01*
X85185000Y-77200000D01*
X85185000Y-79106151D01*
X85516733Y-79245294D01*
X85887219Y-79026760D01*
X86485261Y-78379802D01*
X86790200Y-77553229D01*
X86566000Y-77200000D01*
X85185000Y-77200000D01*
X83935000Y-77200000D01*
X83540000Y-77200000D01*
X83540000Y-75759044D01*
X98309023Y-76198598D01*
X98309023Y-76198598D01*
G37*
X98309023Y-76198598D02*
X98309023Y-78196000D01*
X98483345Y-79122444D01*
X98608000Y-79316163D01*
X98608000Y-80010000D01*
X98874422Y-81349392D01*
X99633126Y-82484874D01*
X100141124Y-82992871D01*
X100141126Y-82992874D01*
X100915061Y-83510000D01*
X101276608Y-83751578D01*
X102616000Y-84018000D01*
X111107522Y-84018000D01*
X111107359Y-84204747D01*
X111669464Y-85565143D01*
X112709382Y-86606878D01*
X114068796Y-87171356D01*
X115540747Y-87172641D01*
X116901143Y-86610536D01*
X117942878Y-85570618D01*
X118507356Y-84211204D01*
X118508641Y-82739253D01*
X118447198Y-82590550D01*
X119791219Y-81246529D01*
X120504071Y-81722841D01*
X121920000Y-82004487D01*
X123198000Y-81750277D01*
X123198000Y-85090000D01*
X123237393Y-85284528D01*
X123344447Y-85443553D01*
X123852447Y-85951553D01*
X124017854Y-86061250D01*
X124206000Y-86098000D01*
X133650894Y-86098000D01*
X136552447Y-88999553D01*
X136717854Y-89109250D01*
X136906000Y-89146000D01*
X140216000Y-89146000D01*
X140216000Y-104402000D01*
X124460000Y-104402000D01*
X124265472Y-104441393D01*
X124101596Y-104553365D01*
X123994195Y-104720271D01*
X123960000Y-104902000D01*
X123960000Y-111226150D01*
X123335929Y-110809159D01*
X121920000Y-110527513D01*
X120504071Y-110809159D01*
X119303705Y-111611218D01*
X118501646Y-112811584D01*
X118220000Y-114227513D01*
X118220000Y-114372487D01*
X118373827Y-115145829D01*
X117590977Y-115122938D01*
X117590977Y-114082000D01*
X117416655Y-113155556D01*
X116869127Y-112304673D01*
X116033695Y-111733846D01*
X115042000Y-111533023D01*
X112542000Y-111533023D01*
X111615556Y-111707345D01*
X110764673Y-112254873D01*
X110680506Y-112378056D01*
X109777063Y-111774394D01*
X108342000Y-111488942D01*
X106906937Y-111774394D01*
X105690350Y-112587292D01*
X104877452Y-113803879D01*
X104809777Y-114144102D01*
X104219219Y-113505240D01*
X103848733Y-113286706D01*
X103517000Y-113425849D01*
X103517000Y-114711419D01*
X102267000Y-114674869D01*
X102267000Y-113425849D01*
X101935267Y-113286706D01*
X101564781Y-113505240D01*
X100966739Y-114152198D01*
X100789850Y-114631677D01*
X91428977Y-114357968D01*
X91428977Y-113828000D01*
X91254655Y-112901556D01*
X91130000Y-112707837D01*
X91130000Y-112522005D01*
X91130001Y-112522000D01*
X90863578Y-111182608D01*
X90460119Y-110578787D01*
X114137741Y-110578787D01*
X114272017Y-110914100D01*
X115138886Y-111055944D01*
X115851983Y-110914100D01*
X115986259Y-110578787D01*
X115062000Y-109654528D01*
X114137741Y-110578787D01*
X90460119Y-110578787D01*
X90104874Y-110047126D01*
X89342874Y-109285126D01*
X88740879Y-108882886D01*
X112812056Y-108882886D01*
X112953900Y-109595983D01*
X113289213Y-109730259D01*
X114213472Y-108806000D01*
X115910528Y-108806000D01*
X116834787Y-109730259D01*
X117170100Y-109595983D01*
X117311944Y-108729114D01*
X117170100Y-108016017D01*
X116834787Y-107881741D01*
X115910528Y-108806000D01*
X114213472Y-108806000D01*
X113289213Y-107881741D01*
X112953900Y-108016017D01*
X112812056Y-108882886D01*
X88740879Y-108882886D01*
X88207392Y-108526422D01*
X87663666Y-108418268D01*
X87445392Y-108272422D01*
X86106000Y-108006000D01*
X81526000Y-108006000D01*
X81526000Y-106896688D01*
X82572796Y-107331356D01*
X84044747Y-107332641D01*
X84769417Y-107033213D01*
X114137741Y-107033213D01*
X115062000Y-107957472D01*
X115986259Y-107033213D01*
X115851983Y-106697900D01*
X114985114Y-106556056D01*
X114272017Y-106697900D01*
X114137741Y-107033213D01*
X84769417Y-107033213D01*
X85405143Y-106770536D01*
X86446878Y-105730618D01*
X86582174Y-105404787D01*
X104887741Y-105404787D01*
X105022017Y-105740100D01*
X105888886Y-105881944D01*
X106601983Y-105740100D01*
X106736259Y-105404787D01*
X105812000Y-104480528D01*
X104887741Y-105404787D01*
X86582174Y-105404787D01*
X87011356Y-104371204D01*
X87011934Y-103708886D01*
X103562056Y-103708886D01*
X103703900Y-104421983D01*
X104039213Y-104556259D01*
X104963472Y-103632000D01*
X106660528Y-103632000D01*
X107584787Y-104556259D01*
X107920100Y-104421983D01*
X108061944Y-103555114D01*
X107920100Y-102842017D01*
X107584787Y-102707741D01*
X106660528Y-103632000D01*
X104963472Y-103632000D01*
X104039213Y-102707741D01*
X103703900Y-102842017D01*
X103562056Y-103708886D01*
X87011934Y-103708886D01*
X87012641Y-102899253D01*
X86582905Y-101859213D01*
X104887741Y-101859213D01*
X105812000Y-102783472D01*
X106736259Y-101859213D01*
X106601983Y-101523900D01*
X105735114Y-101382056D01*
X105022017Y-101523900D01*
X104887741Y-101859213D01*
X86582905Y-101859213D01*
X86450536Y-101538857D01*
X85410618Y-100497122D01*
X84051204Y-99932644D01*
X82579253Y-99931359D01*
X81526000Y-100366555D01*
X81526000Y-94204747D01*
X111107359Y-94204747D01*
X111669464Y-95565143D01*
X112369187Y-96266088D01*
X111927122Y-96707382D01*
X111362644Y-98066796D01*
X111361359Y-99538747D01*
X111923464Y-100899143D01*
X112963382Y-101940878D01*
X114322796Y-102505356D01*
X115794747Y-102506641D01*
X116174781Y-102349614D01*
X120587632Y-102513053D01*
X121180796Y-102759356D01*
X122652747Y-102760641D01*
X124013143Y-102198536D01*
X124638962Y-101573808D01*
X129964406Y-101573808D01*
X130606719Y-102251104D01*
X132911536Y-102883992D01*
X135283105Y-102586690D01*
X136093281Y-102251104D01*
X136735594Y-101573808D01*
X133350000Y-98188214D01*
X129964406Y-101573808D01*
X124638962Y-101573808D01*
X125054878Y-101158618D01*
X125619356Y-99799204D01*
X125620641Y-98327253D01*
X125058536Y-96966857D01*
X124428317Y-96335536D01*
X127240008Y-96335536D01*
X127537310Y-98707105D01*
X127872896Y-99517281D01*
X128550192Y-100159594D01*
X131935786Y-96774000D01*
X134764214Y-96774000D01*
X138149808Y-100159594D01*
X138827104Y-99517281D01*
X139459992Y-97212464D01*
X139162690Y-94840895D01*
X138827104Y-94030719D01*
X138149808Y-93388406D01*
X134764214Y-96774000D01*
X131935786Y-96774000D01*
X128550192Y-93388406D01*
X127872896Y-94030719D01*
X127240008Y-96335536D01*
X124428317Y-96335536D01*
X124358592Y-96265690D01*
X125054878Y-95570618D01*
X125619356Y-94211204D01*
X125620641Y-92739253D01*
X125304524Y-91974192D01*
X129964406Y-91974192D01*
X133350000Y-95359786D01*
X136735594Y-91974192D01*
X136093281Y-91296896D01*
X133788464Y-90664008D01*
X131416895Y-90961310D01*
X130606719Y-91296896D01*
X129964406Y-91974192D01*
X125304524Y-91974192D01*
X125058536Y-91378857D01*
X124018618Y-90337122D01*
X122659204Y-89772644D01*
X121187253Y-89771359D01*
X120236394Y-90164246D01*
X116136530Y-90017353D01*
X115547204Y-89772644D01*
X114075253Y-89771359D01*
X112714857Y-90333464D01*
X111673122Y-91373382D01*
X111108644Y-92732796D01*
X111107359Y-94204747D01*
X81526000Y-94204747D01*
X81526000Y-90490787D01*
X82563741Y-90490787D01*
X82698017Y-90826100D01*
X83564886Y-90967944D01*
X84277983Y-90826100D01*
X84412259Y-90490787D01*
X83488000Y-89566528D01*
X82563741Y-90490787D01*
X81526000Y-90490787D01*
X81526000Y-89566489D01*
X81715213Y-89642259D01*
X82639472Y-88718000D01*
X84336528Y-88718000D01*
X85260787Y-89642259D01*
X85596100Y-89507983D01*
X85605465Y-89450747D01*
X102287359Y-89450747D01*
X102849464Y-90811143D01*
X103889382Y-91852878D01*
X105248796Y-92417356D01*
X106720747Y-92418641D01*
X108081143Y-91856536D01*
X109122878Y-90816618D01*
X109687356Y-89457204D01*
X109688641Y-87985253D01*
X109126536Y-86624857D01*
X108086618Y-85583122D01*
X106727204Y-85018644D01*
X105255253Y-85017359D01*
X103894857Y-85579464D01*
X102853122Y-86619382D01*
X102288644Y-87978796D01*
X102287359Y-89450747D01*
X85605465Y-89450747D01*
X85737944Y-88641114D01*
X85596100Y-87928017D01*
X85260787Y-87793741D01*
X84336528Y-88718000D01*
X82639472Y-88718000D01*
X81715213Y-87793741D01*
X81526000Y-87869511D01*
X81526000Y-86945213D01*
X82563741Y-86945213D01*
X83488000Y-87869472D01*
X84412259Y-86945213D01*
X84277983Y-86609900D01*
X83411114Y-86468056D01*
X82698017Y-86609900D01*
X82563741Y-86945213D01*
X81526000Y-86945213D01*
X81526000Y-82907379D01*
X81796770Y-82502142D01*
X82150646Y-82029814D01*
X82174368Y-81937026D01*
X82227578Y-81857392D01*
X82342720Y-81278534D01*
X82488907Y-80706738D01*
X82603665Y-78581741D01*
X82642223Y-78387898D01*
X83232781Y-79026760D01*
X83603267Y-79245294D01*
X83935000Y-79106151D01*
X83935000Y-77200000D01*
X85185000Y-77200000D01*
X85185000Y-79106151D01*
X85516733Y-79245294D01*
X85887219Y-79026760D01*
X86485261Y-78379802D01*
X86790200Y-77553229D01*
X86566000Y-77200000D01*
X85185000Y-77200000D01*
X83935000Y-77200000D01*
X83540000Y-77200000D01*
X83540000Y-75759044D01*
X98309023Y-76198598D01*
D30*
G36*
X80266583Y-121814945D02*
X82180000Y-122195547D01*
X84093417Y-121814945D01*
X84471289Y-121562459D01*
X84892458Y-121850231D01*
X86380000Y-122151466D01*
X88880000Y-122151466D01*
X90269667Y-121889982D01*
X91545991Y-121068690D01*
X91672184Y-120884000D01*
X97971381Y-120884000D01*
X98119029Y-121104971D01*
X100308887Y-122568187D01*
X102892000Y-123082000D01*
X105475113Y-122568187D01*
X107664971Y-121104971D01*
X107812619Y-120884000D01*
X109567088Y-120884000D01*
X109801310Y-121247991D01*
X110487531Y-121716866D01*
X110291594Y-139939000D01*
X75707739Y-139939000D01*
X75726891Y-138157802D01*
X92129251Y-138157802D01*
X92366652Y-138886211D01*
X93961370Y-139513974D01*
X95674931Y-139483680D01*
X97117348Y-138886211D01*
X97354749Y-138157802D01*
X94742000Y-135545053D01*
X92129251Y-138157802D01*
X75726891Y-138157802D01*
X75767181Y-134410870D01*
X90419526Y-134410870D01*
X90449820Y-136124431D01*
X91047289Y-137566848D01*
X91775698Y-137804249D01*
X94388447Y-135191500D01*
X95095553Y-135191500D01*
X97708302Y-137804249D01*
X98436711Y-137566848D01*
X99064474Y-135972130D01*
X99034180Y-134258569D01*
X98436711Y-132816152D01*
X97708302Y-132578751D01*
X95095553Y-135191500D01*
X94388447Y-135191500D01*
X91775698Y-132578751D01*
X91047289Y-132816152D01*
X90419526Y-134410870D01*
X75767181Y-134410870D01*
X75790682Y-132225198D01*
X92129251Y-132225198D01*
X94742000Y-134837947D01*
X97354749Y-132225198D01*
X97117348Y-131496789D01*
X95522630Y-130869026D01*
X93809069Y-130899320D01*
X92366652Y-131496789D01*
X92129251Y-132225198D01*
X75790682Y-132225198D01*
X75912632Y-120884000D01*
X78873325Y-120884000D01*
X80266583Y-121814945D01*
X80266583Y-121814945D01*
G37*
X80266583Y-121814945D02*
X82180000Y-122195547D01*
X84093417Y-121814945D01*
X84471289Y-121562459D01*
X84892458Y-121850231D01*
X86380000Y-122151466D01*
X88880000Y-122151466D01*
X90269667Y-121889982D01*
X91545991Y-121068690D01*
X91672184Y-120884000D01*
X97971381Y-120884000D01*
X98119029Y-121104971D01*
X100308887Y-122568187D01*
X102892000Y-123082000D01*
X105475113Y-122568187D01*
X107664971Y-121104971D01*
X107812619Y-120884000D01*
X109567088Y-120884000D01*
X109801310Y-121247991D01*
X110487531Y-121716866D01*
X110291594Y-139939000D01*
X75707739Y-139939000D01*
X75726891Y-138157802D01*
X92129251Y-138157802D01*
X92366652Y-138886211D01*
X93961370Y-139513974D01*
X95674931Y-139483680D01*
X97117348Y-138886211D01*
X97354749Y-138157802D01*
X94742000Y-135545053D01*
X92129251Y-138157802D01*
X75726891Y-138157802D01*
X75767181Y-134410870D01*
X90419526Y-134410870D01*
X90449820Y-136124431D01*
X91047289Y-137566848D01*
X91775698Y-137804249D01*
X94388447Y-135191500D01*
X95095553Y-135191500D01*
X97708302Y-137804249D01*
X98436711Y-137566848D01*
X99064474Y-135972130D01*
X99034180Y-134258569D01*
X98436711Y-132816152D01*
X97708302Y-132578751D01*
X95095553Y-135191500D01*
X94388447Y-135191500D01*
X91775698Y-132578751D01*
X91047289Y-132816152D01*
X90419526Y-134410870D01*
X75767181Y-134410870D01*
X75790682Y-132225198D01*
X92129251Y-132225198D01*
X94742000Y-134837947D01*
X97354749Y-132225198D01*
X97117348Y-131496789D01*
X95522630Y-130869026D01*
X93809069Y-130899320D01*
X92366652Y-131496789D01*
X92129251Y-132225198D01*
X75790682Y-132225198D01*
X75912632Y-120884000D01*
X78873325Y-120884000D01*
X80266583Y-121814945D01*
G36*
X112962799Y-71149321D02*
X110900211Y-71163745D01*
X109471417Y-70209055D01*
X107558000Y-69828453D01*
X105644583Y-70209055D01*
X105266711Y-70461541D01*
X104845542Y-70173769D01*
X103358000Y-69872534D01*
X100858000Y-69872534D01*
X99468333Y-70134018D01*
X98192009Y-70955310D01*
X97987895Y-71254041D01*
X89031729Y-71316671D01*
X88165493Y-70493607D01*
X85707299Y-69548218D01*
X83074439Y-69615502D01*
X80667742Y-70685217D01*
X80007798Y-71379776D01*
X79228000Y-71385229D01*
X79228000Y-57068302D01*
X92129251Y-57068302D01*
X92366652Y-57796711D01*
X93961370Y-58424474D01*
X95674931Y-58394180D01*
X97117348Y-57796711D01*
X97354749Y-57068302D01*
X94742000Y-54455553D01*
X92129251Y-57068302D01*
X79228000Y-57068302D01*
X79228000Y-55187909D01*
X80264965Y-53321370D01*
X90419526Y-53321370D01*
X90449820Y-55034931D01*
X91047289Y-56477348D01*
X91775698Y-56714749D01*
X94388447Y-54102000D01*
X95095553Y-54102000D01*
X97708302Y-56714749D01*
X98436711Y-56477348D01*
X99064474Y-54882630D01*
X99034180Y-53169069D01*
X98436711Y-51726652D01*
X97708302Y-51489251D01*
X95095553Y-54102000D01*
X94388447Y-54102000D01*
X91775698Y-51489251D01*
X91047289Y-51726652D01*
X90419526Y-53321370D01*
X80264965Y-53321370D01*
X80340697Y-53185054D01*
X80498000Y-52578000D01*
X80498000Y-51135698D01*
X92129251Y-51135698D01*
X94742000Y-53748447D01*
X97354749Y-51135698D01*
X97117348Y-50407289D01*
X95522630Y-49779526D01*
X93809069Y-49809820D01*
X92366652Y-50407289D01*
X92129251Y-51135698D01*
X80498000Y-51135698D01*
X80498000Y-49545000D01*
X111494544Y-49545000D01*
X112962799Y-71149321D01*
X112962799Y-71149321D01*
G37*
X112962799Y-71149321D02*
X110900211Y-71163745D01*
X109471417Y-70209055D01*
X107558000Y-69828453D01*
X105644583Y-70209055D01*
X105266711Y-70461541D01*
X104845542Y-70173769D01*
X103358000Y-69872534D01*
X100858000Y-69872534D01*
X99468333Y-70134018D01*
X98192009Y-70955310D01*
X97987895Y-71254041D01*
X89031729Y-71316671D01*
X88165493Y-70493607D01*
X85707299Y-69548218D01*
X83074439Y-69615502D01*
X80667742Y-70685217D01*
X80007798Y-71379776D01*
X79228000Y-71385229D01*
X79228000Y-57068302D01*
X92129251Y-57068302D01*
X92366652Y-57796711D01*
X93961370Y-58424474D01*
X95674931Y-58394180D01*
X97117348Y-57796711D01*
X97354749Y-57068302D01*
X94742000Y-54455553D01*
X92129251Y-57068302D01*
X79228000Y-57068302D01*
X79228000Y-55187909D01*
X80264965Y-53321370D01*
X90419526Y-53321370D01*
X90449820Y-55034931D01*
X91047289Y-56477348D01*
X91775698Y-56714749D01*
X94388447Y-54102000D01*
X95095553Y-54102000D01*
X97708302Y-56714749D01*
X98436711Y-56477348D01*
X99064474Y-54882630D01*
X99034180Y-53169069D01*
X98436711Y-51726652D01*
X97708302Y-51489251D01*
X95095553Y-54102000D01*
X94388447Y-54102000D01*
X91775698Y-51489251D01*
X91047289Y-51726652D01*
X90419526Y-53321370D01*
X80264965Y-53321370D01*
X80340697Y-53185054D01*
X80498000Y-52578000D01*
X80498000Y-51135698D01*
X92129251Y-51135698D01*
X94742000Y-53748447D01*
X97354749Y-51135698D01*
X97117348Y-50407289D01*
X95522630Y-49779526D01*
X93809069Y-49809820D01*
X92366652Y-50407289D01*
X92129251Y-51135698D01*
X80498000Y-51135698D01*
X80498000Y-49545000D01*
X111494544Y-49545000D01*
X112962799Y-71149321D01*
M02*
