G04 #@! TF.FileFunction,Soldermask,Bot*
%FSLAX46Y46*%
G04 Gerber Fmt 4.6, Leading zero omitted, Abs format (unit mm)*
G04 Created by KiCad (PCBNEW 4.0.7) date 11/09/20 07:26:58*
%MOMM*%
%LPD*%
G01*
G04 APERTURE LIST*
%ADD10C,0.100000*%
%ADD11R,2.900000X4.900000*%
%ADD12O,2.900000X4.900000*%
%ADD13C,2.800000*%
%ADD14R,3.400000X3.400000*%
%ADD15C,3.400000*%
%ADD16C,11.100000*%
%ADD17C,16.000000*%
%ADD18O,2.800000X2.800000*%
%ADD19C,4.464000*%
%ADD20R,2.600000X2.600000*%
%ADD21O,2.600000X2.600000*%
%ADD22R,3.000000X3.000000*%
%ADD23O,3.000000X3.000000*%
%ADD24C,2.500000*%
G04 APERTURE END LIST*
D10*
D11*
X113792000Y-116332000D03*
D12*
X108342000Y-116332000D03*
X102892000Y-116332000D03*
D13*
X114808000Y-93472000D03*
X114808000Y-83472000D03*
X105988000Y-88718000D03*
X83488000Y-88718000D03*
X74422000Y-93726000D03*
X74422000Y-83726000D03*
X83312000Y-103632000D03*
X105812000Y-103632000D03*
X73914000Y-98552000D03*
X73914000Y-108552000D03*
X115062000Y-98806000D03*
X115062000Y-108806000D03*
D14*
X134620000Y-78740000D03*
D15*
X129540000Y-78740000D03*
D14*
X55626000Y-78740000D03*
D15*
X60706000Y-78740000D03*
D16*
X94742000Y-54102000D03*
D14*
X54356000Y-113030000D03*
D15*
X59436000Y-113030000D03*
D14*
X133350000Y-112522000D03*
D15*
X128270000Y-112522000D03*
D16*
X94742000Y-135191500D03*
D17*
X133350000Y-96774000D03*
X54864000Y-96266000D03*
D11*
X102108000Y-75946000D03*
D12*
X107558000Y-75946000D03*
X113008000Y-75946000D03*
D11*
X73660000Y-76200000D03*
D12*
X79110000Y-76200000D03*
X84560000Y-76200000D03*
D11*
X87630000Y-116078000D03*
D12*
X82180000Y-116078000D03*
X76730000Y-116078000D03*
D13*
X121920000Y-93472000D03*
D18*
X121920000Y-78232000D03*
D13*
X67056000Y-93726000D03*
D18*
X67056000Y-78486000D03*
D13*
X67056000Y-98806000D03*
D18*
X67056000Y-114046000D03*
D13*
X121920000Y-99060000D03*
D18*
X121920000Y-114300000D03*
D19*
X50000000Y-50000000D03*
X140000000Y-50000000D03*
X50000000Y-140000000D03*
X140000000Y-140000000D03*
D20*
X52070000Y-62230000D03*
D21*
X52070000Y-72390000D03*
D20*
X135890000Y-129032000D03*
D21*
X135890000Y-118872000D03*
D20*
X52324000Y-129794000D03*
D21*
X52324000Y-119634000D03*
D20*
X136652000Y-61722000D03*
D21*
X136652000Y-71882000D03*
D20*
X128778000Y-68326000D03*
D21*
X118618000Y-68326000D03*
D20*
X58420000Y-67564000D03*
D21*
X68580000Y-67564000D03*
D20*
X129032000Y-124206000D03*
D21*
X118872000Y-124206000D03*
D13*
X118872000Y-72390000D03*
D18*
X131572000Y-72390000D03*
D13*
X68834000Y-72136000D03*
D18*
X56134000Y-72136000D03*
D13*
X118872000Y-119634000D03*
D18*
X131572000Y-119634000D03*
D20*
X59182000Y-123952000D03*
D21*
X69342000Y-123952000D03*
D13*
X69342000Y-120142000D03*
D18*
X56642000Y-120142000D03*
D22*
X131572000Y-61976000D03*
D23*
X118872000Y-61976000D03*
D22*
X69342000Y-61722000D03*
D23*
X56642000Y-61722000D03*
D22*
X57658000Y-131064000D03*
D23*
X70358000Y-131064000D03*
D22*
X118618000Y-130302000D03*
D23*
X131318000Y-130302000D03*
D24*
G36*
X60218000Y-101366000D02*
X50272000Y-101366000D01*
X50272000Y-91674000D01*
X60218000Y-91674000D01*
X60218000Y-101366000D01*
X60218000Y-101366000D01*
G37*
X60218000Y-101366000D02*
X50272000Y-101366000D01*
X50272000Y-91674000D01*
X60218000Y-91674000D01*
X60218000Y-101366000D01*
G36*
X99842000Y-58948000D02*
X88880000Y-58948000D01*
X88880000Y-47478000D01*
X99842000Y-47478000D01*
X99842000Y-58948000D01*
X99842000Y-58948000D01*
G37*
X99842000Y-58948000D02*
X88880000Y-58948000D01*
X88880000Y-47478000D01*
X99842000Y-47478000D01*
X99842000Y-58948000D01*
G36*
X101366000Y-142006000D02*
X89155737Y-142006000D01*
X89353496Y-130536000D01*
X101366000Y-130536000D01*
X101366000Y-142006000D01*
X101366000Y-142006000D01*
G37*
X101366000Y-142006000D02*
X89155737Y-142006000D01*
X89353496Y-130536000D01*
X101366000Y-130536000D01*
X101366000Y-142006000D01*
M02*
