M48
;DRILL file {KiCad 4.0.7} date 07/12/19 11:42:17
;FORMAT={-:-/ absolute / metric / decimal}
FMAT,2
METRIC,TZ
T1C1.000
T2C1.100
T3C1.200
T4C1.300
T5C1.500
T6C1.520
T7C3.048
T8C5.000
%
G90
G05
M71
T1
X73.914Y-108.552
T2
X52.07Y-62.23
X52.07Y-72.39
X52.324Y-119.634
X52.324Y-129.794
X58.42Y-67.564
X59.182Y-123.952
X68.58Y-67.564
X69.342Y-123.952
X118.618Y-68.326
X118.872Y-124.206
X128.778Y-68.326
X129.032Y-124.206
X135.89Y-118.872
X135.89Y-129.032
X136.652Y-61.722
X136.652Y-71.882
T3
X56.134Y-72.136
X56.642Y-120.142
X67.056Y-78.486
X67.056Y-93.726
X67.056Y-98.806
X67.056Y-114.046
X68.834Y-72.136
X69.342Y-120.142
X73.914Y-98.552
X74.422Y-83.726
X74.422Y-93.726
X83.312Y-103.632
X83.488Y-88.718
X105.812Y-103.632
X105.988Y-88.718
X114.808Y-83.472
X114.808Y-93.472
X115.062Y-98.806
X115.062Y-108.806
X118.872Y-72.39
X118.872Y-119.634
X121.92Y-78.232
X121.92Y-93.472
X121.92Y-99.06
X121.92Y-114.3
X131.572Y-72.39
X131.572Y-119.634
T4
X56.642Y-61.722
X57.658Y-131.064
X69.342Y-61.722
X70.358Y-131.064
X118.618Y-130.302
X118.872Y-61.976
X131.318Y-130.302
X131.572Y-61.976
T5
X73.66Y-76.2
X76.73Y-116.078
X79.11Y-76.2
X82.18Y-116.078
X84.56Y-76.2
X87.63Y-116.078
X102.108Y-75.946
X102.892Y-116.332
X107.558Y-75.946
X108.342Y-116.332
X113.008Y-75.946
X113.792Y-116.332
T6
X54.356Y-113.03
X55.626Y-78.74
X59.436Y-113.03
X60.706Y-78.74
X128.27Y-112.522
X129.54Y-78.74
X133.35Y-112.522
X134.62Y-78.74
T7
X50.Y-50.
X50.Y-140.
X140.Y-50.
X140.Y-140.
T8
X54.864Y-96.266
X94.742Y-54.102
X94.742Y-135.191
X133.35Y-96.774
T0
M30
