G04 #@! TF.FileFunction,Legend,Top*
%FSLAX46Y46*%
G04 Gerber Fmt 4.6, Leading zero omitted, Abs format (unit mm)*
G04 Created by KiCad (PCBNEW 4.0.7) date 07/12/19 11:42:16*
%MOMM*%
%LPD*%
G01*
G04 APERTURE LIST*
%ADD10C,0.100000*%
%ADD11C,0.300000*%
%ADD12C,0.120000*%
%ADD13C,0.150000*%
G04 APERTURE END LIST*
D10*
D11*
X128968572Y-84689143D02*
X130111429Y-84689143D01*
X54800572Y-83927143D02*
X55943429Y-83927143D01*
X55372000Y-84498571D02*
X55372000Y-83355714D01*
X60134572Y-83673143D02*
X61277429Y-83673143D01*
X53276572Y-107803143D02*
X54419429Y-107803143D01*
X53848000Y-108374571D02*
X53848000Y-107231714D01*
X58864572Y-108057143D02*
X60007429Y-108057143D01*
X133286572Y-107295143D02*
X134429429Y-107295143D01*
X133858000Y-107866571D02*
X133858000Y-106723714D01*
X127444572Y-107549143D02*
X128587429Y-107549143D01*
X134302572Y-84435143D02*
X135445429Y-84435143D01*
X134874000Y-85006571D02*
X134874000Y-83863714D01*
X98472572Y-75354571D02*
X97615429Y-75354571D01*
X98044001Y-75354571D02*
X98044001Y-73854571D01*
X97901144Y-74068857D01*
X97758286Y-74211714D01*
X97615429Y-74283143D01*
X70786572Y-76878571D02*
X69929429Y-76878571D01*
X70358001Y-76878571D02*
X70358001Y-75378571D01*
X70215144Y-75592857D01*
X70072286Y-75735714D01*
X69929429Y-75807143D01*
X118284572Y-116502571D02*
X117427429Y-116502571D01*
X117856001Y-116502571D02*
X117856001Y-115002571D01*
X117713144Y-115216857D01*
X117570286Y-115359714D01*
X117427429Y-115431143D01*
X92122572Y-117010571D02*
X91265429Y-117010571D01*
X91694001Y-117010571D02*
X91694001Y-115510571D01*
X91551144Y-115724857D01*
X91408286Y-115867714D01*
X91265429Y-115939143D01*
X84812286Y-122090571D02*
X84812286Y-120590571D01*
X84812286Y-121304857D02*
X85669429Y-121304857D01*
X85669429Y-122090571D02*
X85669429Y-120590571D01*
X86383715Y-122090571D02*
X86383715Y-120590571D01*
X113724572Y-121582571D02*
X113010286Y-121582571D01*
X113010286Y-120082571D01*
X114510286Y-120082571D02*
X114796000Y-120082571D01*
X114938858Y-120154000D01*
X115081715Y-120296857D01*
X115153143Y-120582571D01*
X115153143Y-121082571D01*
X115081715Y-121368286D01*
X114938858Y-121511143D01*
X114796000Y-121582571D01*
X114510286Y-121582571D01*
X114367429Y-121511143D01*
X114224572Y-121368286D01*
X114153143Y-121082571D01*
X114153143Y-120582571D01*
X114224572Y-120296857D01*
X114367429Y-120154000D01*
X114510286Y-120082571D01*
X101576286Y-71544571D02*
X101576286Y-70044571D01*
X101576286Y-70758857D02*
X102433429Y-70758857D01*
X102433429Y-71544571D02*
X102433429Y-70044571D01*
X103147715Y-71544571D02*
X103147715Y-70044571D01*
X73592572Y-71544571D02*
X72878286Y-71544571D01*
X72878286Y-70044571D01*
X74378286Y-70044571D02*
X74664000Y-70044571D01*
X74806858Y-70116000D01*
X74949715Y-70258857D01*
X75021143Y-70544571D01*
X75021143Y-71044571D01*
X74949715Y-71330286D01*
X74806858Y-71473143D01*
X74664000Y-71544571D01*
X74378286Y-71544571D01*
X74235429Y-71473143D01*
X74092572Y-71330286D01*
X74021143Y-71044571D01*
X74021143Y-70544571D01*
X74092572Y-70258857D01*
X74235429Y-70116000D01*
X74378286Y-70044571D01*
X89079430Y-123336857D02*
X88579430Y-123336857D01*
X88579430Y-124122571D02*
X88579430Y-122622571D01*
X89293716Y-122622571D01*
X90508001Y-123122571D02*
X90508001Y-124122571D01*
X89865144Y-123122571D02*
X89865144Y-123908286D01*
X89936572Y-124051143D01*
X90079430Y-124122571D01*
X90293715Y-124122571D01*
X90436572Y-124051143D01*
X90508001Y-123979714D01*
X91436573Y-124122571D02*
X91293715Y-124051143D01*
X91222287Y-123908286D01*
X91222287Y-122622571D01*
X92222287Y-124122571D02*
X92079429Y-124051143D01*
X92008001Y-123908286D01*
X92008001Y-122622571D01*
X94436572Y-123336857D02*
X94650858Y-123408286D01*
X94722286Y-123479714D01*
X94793715Y-123622571D01*
X94793715Y-123836857D01*
X94722286Y-123979714D01*
X94650858Y-124051143D01*
X94508000Y-124122571D01*
X93936572Y-124122571D01*
X93936572Y-122622571D01*
X94436572Y-122622571D01*
X94579429Y-122694000D01*
X94650858Y-122765429D01*
X94722286Y-122908286D01*
X94722286Y-123051143D01*
X94650858Y-123194000D01*
X94579429Y-123265429D01*
X94436572Y-123336857D01*
X93936572Y-123336857D01*
X95436572Y-124122571D02*
X95436572Y-123122571D01*
X95436572Y-123408286D02*
X95508000Y-123265429D01*
X95579429Y-123194000D01*
X95722286Y-123122571D01*
X95865143Y-123122571D01*
X96365143Y-124122571D02*
X96365143Y-123122571D01*
X96365143Y-122622571D02*
X96293714Y-122694000D01*
X96365143Y-122765429D01*
X96436571Y-122694000D01*
X96365143Y-122622571D01*
X96365143Y-122765429D01*
X97722286Y-124122571D02*
X97722286Y-122622571D01*
X97722286Y-124051143D02*
X97579429Y-124122571D01*
X97293715Y-124122571D01*
X97150857Y-124051143D01*
X97079429Y-123979714D01*
X97008000Y-123836857D01*
X97008000Y-123408286D01*
X97079429Y-123265429D01*
X97150857Y-123194000D01*
X97293715Y-123122571D01*
X97579429Y-123122571D01*
X97722286Y-123194000D01*
X99079429Y-123122571D02*
X99079429Y-124336857D01*
X99008000Y-124479714D01*
X98936572Y-124551143D01*
X98793715Y-124622571D01*
X98579429Y-124622571D01*
X98436572Y-124551143D01*
X99079429Y-124051143D02*
X98936572Y-124122571D01*
X98650858Y-124122571D01*
X98508000Y-124051143D01*
X98436572Y-123979714D01*
X98365143Y-123836857D01*
X98365143Y-123408286D01*
X98436572Y-123265429D01*
X98508000Y-123194000D01*
X98650858Y-123122571D01*
X98936572Y-123122571D01*
X99079429Y-123194000D01*
X100365143Y-124051143D02*
X100222286Y-124122571D01*
X99936572Y-124122571D01*
X99793715Y-124051143D01*
X99722286Y-123908286D01*
X99722286Y-123336857D01*
X99793715Y-123194000D01*
X99936572Y-123122571D01*
X100222286Y-123122571D01*
X100365143Y-123194000D01*
X100436572Y-123336857D01*
X100436572Y-123479714D01*
X99722286Y-123622571D01*
X102150857Y-122765429D02*
X102222286Y-122694000D01*
X102365143Y-122622571D01*
X102722286Y-122622571D01*
X102865143Y-122694000D01*
X102936572Y-122765429D01*
X103008000Y-122908286D01*
X103008000Y-123051143D01*
X102936572Y-123265429D01*
X102079429Y-124122571D01*
X103008000Y-124122571D01*
X88571430Y-66948857D02*
X88071430Y-66948857D01*
X88071430Y-67734571D02*
X88071430Y-66234571D01*
X88785716Y-66234571D01*
X90000001Y-66734571D02*
X90000001Y-67734571D01*
X89357144Y-66734571D02*
X89357144Y-67520286D01*
X89428572Y-67663143D01*
X89571430Y-67734571D01*
X89785715Y-67734571D01*
X89928572Y-67663143D01*
X90000001Y-67591714D01*
X90928573Y-67734571D02*
X90785715Y-67663143D01*
X90714287Y-67520286D01*
X90714287Y-66234571D01*
X91714287Y-67734571D02*
X91571429Y-67663143D01*
X91500001Y-67520286D01*
X91500001Y-66234571D01*
X93928572Y-66948857D02*
X94142858Y-67020286D01*
X94214286Y-67091714D01*
X94285715Y-67234571D01*
X94285715Y-67448857D01*
X94214286Y-67591714D01*
X94142858Y-67663143D01*
X94000000Y-67734571D01*
X93428572Y-67734571D01*
X93428572Y-66234571D01*
X93928572Y-66234571D01*
X94071429Y-66306000D01*
X94142858Y-66377429D01*
X94214286Y-66520286D01*
X94214286Y-66663143D01*
X94142858Y-66806000D01*
X94071429Y-66877429D01*
X93928572Y-66948857D01*
X93428572Y-66948857D01*
X94928572Y-67734571D02*
X94928572Y-66734571D01*
X94928572Y-67020286D02*
X95000000Y-66877429D01*
X95071429Y-66806000D01*
X95214286Y-66734571D01*
X95357143Y-66734571D01*
X95857143Y-67734571D02*
X95857143Y-66734571D01*
X95857143Y-66234571D02*
X95785714Y-66306000D01*
X95857143Y-66377429D01*
X95928571Y-66306000D01*
X95857143Y-66234571D01*
X95857143Y-66377429D01*
X97214286Y-67734571D02*
X97214286Y-66234571D01*
X97214286Y-67663143D02*
X97071429Y-67734571D01*
X96785715Y-67734571D01*
X96642857Y-67663143D01*
X96571429Y-67591714D01*
X96500000Y-67448857D01*
X96500000Y-67020286D01*
X96571429Y-66877429D01*
X96642857Y-66806000D01*
X96785715Y-66734571D01*
X97071429Y-66734571D01*
X97214286Y-66806000D01*
X98571429Y-66734571D02*
X98571429Y-67948857D01*
X98500000Y-68091714D01*
X98428572Y-68163143D01*
X98285715Y-68234571D01*
X98071429Y-68234571D01*
X97928572Y-68163143D01*
X98571429Y-67663143D02*
X98428572Y-67734571D01*
X98142858Y-67734571D01*
X98000000Y-67663143D01*
X97928572Y-67591714D01*
X97857143Y-67448857D01*
X97857143Y-67020286D01*
X97928572Y-66877429D01*
X98000000Y-66806000D01*
X98142858Y-66734571D01*
X98428572Y-66734571D01*
X98571429Y-66806000D01*
X99857143Y-67663143D02*
X99714286Y-67734571D01*
X99428572Y-67734571D01*
X99285715Y-67663143D01*
X99214286Y-67520286D01*
X99214286Y-66948857D01*
X99285715Y-66806000D01*
X99428572Y-66734571D01*
X99714286Y-66734571D01*
X99857143Y-66806000D01*
X99928572Y-66948857D01*
X99928572Y-67091714D01*
X99214286Y-67234571D01*
X102500000Y-67734571D02*
X101642857Y-67734571D01*
X102071429Y-67734571D02*
X102071429Y-66234571D01*
X101928572Y-66448857D01*
X101785714Y-66591714D01*
X101642857Y-66663143D01*
X126314286Y-87033571D02*
X126314286Y-85533571D01*
X127171429Y-87033571D01*
X127171429Y-85533571D01*
X128457143Y-86962143D02*
X128314286Y-87033571D01*
X128028572Y-87033571D01*
X127885715Y-86962143D01*
X127814286Y-86819286D01*
X127814286Y-86247857D01*
X127885715Y-86105000D01*
X128028572Y-86033571D01*
X128314286Y-86033571D01*
X128457143Y-86105000D01*
X128528572Y-86247857D01*
X128528572Y-86390714D01*
X127814286Y-86533571D01*
X129814286Y-86033571D02*
X129814286Y-87247857D01*
X129742857Y-87390714D01*
X129671429Y-87462143D01*
X129528572Y-87533571D01*
X129314286Y-87533571D01*
X129171429Y-87462143D01*
X129814286Y-86962143D02*
X129671429Y-87033571D01*
X129385715Y-87033571D01*
X129242857Y-86962143D01*
X129171429Y-86890714D01*
X129100000Y-86747857D01*
X129100000Y-86319286D01*
X129171429Y-86176429D01*
X129242857Y-86105000D01*
X129385715Y-86033571D01*
X129671429Y-86033571D01*
X129814286Y-86105000D01*
X131171429Y-87033571D02*
X131171429Y-86247857D01*
X131100000Y-86105000D01*
X130957143Y-86033571D01*
X130671429Y-86033571D01*
X130528572Y-86105000D01*
X131171429Y-86962143D02*
X131028572Y-87033571D01*
X130671429Y-87033571D01*
X130528572Y-86962143D01*
X130457143Y-86819286D01*
X130457143Y-86676429D01*
X130528572Y-86533571D01*
X130671429Y-86462143D01*
X131028572Y-86462143D01*
X131171429Y-86390714D01*
X131671429Y-86033571D02*
X132242858Y-86033571D01*
X131885715Y-85533571D02*
X131885715Y-86819286D01*
X131957143Y-86962143D01*
X132100001Y-87033571D01*
X132242858Y-87033571D01*
X132742858Y-87033571D02*
X132742858Y-86033571D01*
X132742858Y-85533571D02*
X132671429Y-85605000D01*
X132742858Y-85676429D01*
X132814286Y-85605000D01*
X132742858Y-85533571D01*
X132742858Y-85676429D01*
X133314287Y-86033571D02*
X133671430Y-87033571D01*
X134028572Y-86033571D01*
X135171429Y-86962143D02*
X135028572Y-87033571D01*
X134742858Y-87033571D01*
X134600001Y-86962143D01*
X134528572Y-86819286D01*
X134528572Y-86247857D01*
X134600001Y-86105000D01*
X134742858Y-86033571D01*
X135028572Y-86033571D01*
X135171429Y-86105000D01*
X135242858Y-86247857D01*
X135242858Y-86390714D01*
X134528572Y-86533571D01*
X137528572Y-86247857D02*
X137742858Y-86319286D01*
X137814286Y-86390714D01*
X137885715Y-86533571D01*
X137885715Y-86747857D01*
X137814286Y-86890714D01*
X137742858Y-86962143D01*
X137600000Y-87033571D01*
X137028572Y-87033571D01*
X137028572Y-85533571D01*
X137528572Y-85533571D01*
X137671429Y-85605000D01*
X137742858Y-85676429D01*
X137814286Y-85819286D01*
X137814286Y-85962143D01*
X137742858Y-86105000D01*
X137671429Y-86176429D01*
X137528572Y-86247857D01*
X137028572Y-86247857D01*
X139171429Y-86033571D02*
X139171429Y-87033571D01*
X138528572Y-86033571D02*
X138528572Y-86819286D01*
X138600000Y-86962143D01*
X138742858Y-87033571D01*
X138957143Y-87033571D01*
X139100000Y-86962143D01*
X139171429Y-86890714D01*
X139814286Y-86962143D02*
X139957143Y-87033571D01*
X140242858Y-87033571D01*
X140385715Y-86962143D01*
X140457143Y-86819286D01*
X140457143Y-86747857D01*
X140385715Y-86605000D01*
X140242858Y-86533571D01*
X140028572Y-86533571D01*
X139885715Y-86462143D01*
X139814286Y-86319286D01*
X139814286Y-86247857D01*
X139885715Y-86105000D01*
X140028572Y-86033571D01*
X140242858Y-86033571D01*
X140385715Y-86105000D01*
X129350000Y-88083571D02*
X129850000Y-89583571D01*
X130350000Y-88083571D01*
X131064286Y-89583571D02*
X130921428Y-89512143D01*
X130850000Y-89440714D01*
X130778571Y-89297857D01*
X130778571Y-88869286D01*
X130850000Y-88726429D01*
X130921428Y-88655000D01*
X131064286Y-88583571D01*
X131278571Y-88583571D01*
X131421428Y-88655000D01*
X131492857Y-88726429D01*
X131564286Y-88869286D01*
X131564286Y-89297857D01*
X131492857Y-89440714D01*
X131421428Y-89512143D01*
X131278571Y-89583571D01*
X131064286Y-89583571D01*
X132421429Y-89583571D02*
X132278571Y-89512143D01*
X132207143Y-89369286D01*
X132207143Y-88083571D01*
X132778571Y-88583571D02*
X133350000Y-88583571D01*
X132992857Y-88083571D02*
X132992857Y-89369286D01*
X133064285Y-89512143D01*
X133207143Y-89583571D01*
X133350000Y-89583571D01*
X134492857Y-89583571D02*
X134492857Y-88797857D01*
X134421428Y-88655000D01*
X134278571Y-88583571D01*
X133992857Y-88583571D01*
X133850000Y-88655000D01*
X134492857Y-89512143D02*
X134350000Y-89583571D01*
X133992857Y-89583571D01*
X133850000Y-89512143D01*
X133778571Y-89369286D01*
X133778571Y-89226429D01*
X133850000Y-89083571D01*
X133992857Y-89012143D01*
X134350000Y-89012143D01*
X134492857Y-88940714D01*
X135850000Y-88583571D02*
X135850000Y-89797857D01*
X135778571Y-89940714D01*
X135707143Y-90012143D01*
X135564286Y-90083571D01*
X135350000Y-90083571D01*
X135207143Y-90012143D01*
X135850000Y-89512143D02*
X135707143Y-89583571D01*
X135421429Y-89583571D01*
X135278571Y-89512143D01*
X135207143Y-89440714D01*
X135135714Y-89297857D01*
X135135714Y-88869286D01*
X135207143Y-88726429D01*
X135278571Y-88655000D01*
X135421429Y-88583571D01*
X135707143Y-88583571D01*
X135850000Y-88655000D01*
X137135714Y-89512143D02*
X136992857Y-89583571D01*
X136707143Y-89583571D01*
X136564286Y-89512143D01*
X136492857Y-89369286D01*
X136492857Y-88797857D01*
X136564286Y-88655000D01*
X136707143Y-88583571D01*
X136992857Y-88583571D01*
X137135714Y-88655000D01*
X137207143Y-88797857D01*
X137207143Y-88940714D01*
X136492857Y-89083571D01*
X48475143Y-86525571D02*
X48475143Y-85025571D01*
X49046571Y-85025571D01*
X49189429Y-85097000D01*
X49260857Y-85168429D01*
X49332286Y-85311286D01*
X49332286Y-85525571D01*
X49260857Y-85668429D01*
X49189429Y-85739857D01*
X49046571Y-85811286D01*
X48475143Y-85811286D01*
X50189429Y-86525571D02*
X50046571Y-86454143D01*
X49975143Y-86382714D01*
X49903714Y-86239857D01*
X49903714Y-85811286D01*
X49975143Y-85668429D01*
X50046571Y-85597000D01*
X50189429Y-85525571D01*
X50403714Y-85525571D01*
X50546571Y-85597000D01*
X50618000Y-85668429D01*
X50689429Y-85811286D01*
X50689429Y-86239857D01*
X50618000Y-86382714D01*
X50546571Y-86454143D01*
X50403714Y-86525571D01*
X50189429Y-86525571D01*
X51260857Y-86454143D02*
X51403714Y-86525571D01*
X51689429Y-86525571D01*
X51832286Y-86454143D01*
X51903714Y-86311286D01*
X51903714Y-86239857D01*
X51832286Y-86097000D01*
X51689429Y-86025571D01*
X51475143Y-86025571D01*
X51332286Y-85954143D01*
X51260857Y-85811286D01*
X51260857Y-85739857D01*
X51332286Y-85597000D01*
X51475143Y-85525571D01*
X51689429Y-85525571D01*
X51832286Y-85597000D01*
X52546572Y-86525571D02*
X52546572Y-85525571D01*
X52546572Y-85025571D02*
X52475143Y-85097000D01*
X52546572Y-85168429D01*
X52618000Y-85097000D01*
X52546572Y-85025571D01*
X52546572Y-85168429D01*
X53046572Y-85525571D02*
X53618001Y-85525571D01*
X53260858Y-85025571D02*
X53260858Y-86311286D01*
X53332286Y-86454143D01*
X53475144Y-86525571D01*
X53618001Y-86525571D01*
X54118001Y-86525571D02*
X54118001Y-85525571D01*
X54118001Y-85025571D02*
X54046572Y-85097000D01*
X54118001Y-85168429D01*
X54189429Y-85097000D01*
X54118001Y-85025571D01*
X54118001Y-85168429D01*
X54689430Y-85525571D02*
X55046573Y-86525571D01*
X55403715Y-85525571D01*
X56546572Y-86454143D02*
X56403715Y-86525571D01*
X56118001Y-86525571D01*
X55975144Y-86454143D01*
X55903715Y-86311286D01*
X55903715Y-85739857D01*
X55975144Y-85597000D01*
X56118001Y-85525571D01*
X56403715Y-85525571D01*
X56546572Y-85597000D01*
X56618001Y-85739857D01*
X56618001Y-85882714D01*
X55903715Y-86025571D01*
X58903715Y-85739857D02*
X59118001Y-85811286D01*
X59189429Y-85882714D01*
X59260858Y-86025571D01*
X59260858Y-86239857D01*
X59189429Y-86382714D01*
X59118001Y-86454143D01*
X58975143Y-86525571D01*
X58403715Y-86525571D01*
X58403715Y-85025571D01*
X58903715Y-85025571D01*
X59046572Y-85097000D01*
X59118001Y-85168429D01*
X59189429Y-85311286D01*
X59189429Y-85454143D01*
X59118001Y-85597000D01*
X59046572Y-85668429D01*
X58903715Y-85739857D01*
X58403715Y-85739857D01*
X60546572Y-85525571D02*
X60546572Y-86525571D01*
X59903715Y-85525571D02*
X59903715Y-86311286D01*
X59975143Y-86454143D01*
X60118001Y-86525571D01*
X60332286Y-86525571D01*
X60475143Y-86454143D01*
X60546572Y-86382714D01*
X61189429Y-86454143D02*
X61332286Y-86525571D01*
X61618001Y-86525571D01*
X61760858Y-86454143D01*
X61832286Y-86311286D01*
X61832286Y-86239857D01*
X61760858Y-86097000D01*
X61618001Y-86025571D01*
X61403715Y-86025571D01*
X61260858Y-85954143D01*
X61189429Y-85811286D01*
X61189429Y-85739857D01*
X61260858Y-85597000D01*
X61403715Y-85525571D01*
X61618001Y-85525571D01*
X61760858Y-85597000D01*
X51118000Y-87575571D02*
X51618000Y-89075571D01*
X52118000Y-87575571D01*
X52832286Y-89075571D02*
X52689428Y-89004143D01*
X52618000Y-88932714D01*
X52546571Y-88789857D01*
X52546571Y-88361286D01*
X52618000Y-88218429D01*
X52689428Y-88147000D01*
X52832286Y-88075571D01*
X53046571Y-88075571D01*
X53189428Y-88147000D01*
X53260857Y-88218429D01*
X53332286Y-88361286D01*
X53332286Y-88789857D01*
X53260857Y-88932714D01*
X53189428Y-89004143D01*
X53046571Y-89075571D01*
X52832286Y-89075571D01*
X54189429Y-89075571D02*
X54046571Y-89004143D01*
X53975143Y-88861286D01*
X53975143Y-87575571D01*
X54546571Y-88075571D02*
X55118000Y-88075571D01*
X54760857Y-87575571D02*
X54760857Y-88861286D01*
X54832285Y-89004143D01*
X54975143Y-89075571D01*
X55118000Y-89075571D01*
X56260857Y-89075571D02*
X56260857Y-88289857D01*
X56189428Y-88147000D01*
X56046571Y-88075571D01*
X55760857Y-88075571D01*
X55618000Y-88147000D01*
X56260857Y-89004143D02*
X56118000Y-89075571D01*
X55760857Y-89075571D01*
X55618000Y-89004143D01*
X55546571Y-88861286D01*
X55546571Y-88718429D01*
X55618000Y-88575571D01*
X55760857Y-88504143D01*
X56118000Y-88504143D01*
X56260857Y-88432714D01*
X57618000Y-88075571D02*
X57618000Y-89289857D01*
X57546571Y-89432714D01*
X57475143Y-89504143D01*
X57332286Y-89575571D01*
X57118000Y-89575571D01*
X56975143Y-89504143D01*
X57618000Y-89004143D02*
X57475143Y-89075571D01*
X57189429Y-89075571D01*
X57046571Y-89004143D01*
X56975143Y-88932714D01*
X56903714Y-88789857D01*
X56903714Y-88361286D01*
X56975143Y-88218429D01*
X57046571Y-88147000D01*
X57189429Y-88075571D01*
X57475143Y-88075571D01*
X57618000Y-88147000D01*
X58903714Y-89004143D02*
X58760857Y-89075571D01*
X58475143Y-89075571D01*
X58332286Y-89004143D01*
X58260857Y-88861286D01*
X58260857Y-88289857D01*
X58332286Y-88147000D01*
X58475143Y-88075571D01*
X58760857Y-88075571D01*
X58903714Y-88147000D01*
X58975143Y-88289857D01*
X58975143Y-88432714D01*
X58260857Y-88575571D01*
D12*
X116412000Y-118783000D02*
X100272000Y-118783000D01*
X116412000Y-113512000D02*
X100272000Y-113512000D01*
X116412000Y-118783000D02*
X116412000Y-113512000D01*
X100272000Y-118783000D02*
X100272000Y-113512000D01*
X110146000Y-118783000D02*
X110146000Y-113512000D01*
X106537000Y-118783000D02*
X106537000Y-113512000D01*
X111298000Y-94282000D02*
X111298000Y-82662000D01*
X118318000Y-94282000D02*
X118318000Y-82662000D01*
X111298000Y-94282000D02*
X114058000Y-94282000D01*
X115558000Y-94282000D02*
X118318000Y-94282000D01*
X111298000Y-82662000D02*
X114058000Y-82662000D01*
X115558000Y-82662000D02*
X118318000Y-82662000D01*
X106798000Y-94878000D02*
X82678000Y-94878000D01*
X106798000Y-82558000D02*
X82678000Y-82558000D01*
X106798000Y-94878000D02*
X106798000Y-90113000D01*
X106798000Y-87323000D02*
X106798000Y-82558000D01*
X82678000Y-94878000D02*
X82678000Y-90113000D01*
X82678000Y-87323000D02*
X82678000Y-82558000D01*
X70912000Y-94536000D02*
X70912000Y-82916000D01*
X77932000Y-94536000D02*
X77932000Y-82916000D01*
X70912000Y-94536000D02*
X73672000Y-94536000D01*
X75172000Y-94536000D02*
X77932000Y-94536000D01*
X70912000Y-82916000D02*
X73672000Y-82916000D01*
X75172000Y-82916000D02*
X77932000Y-82916000D01*
X82502000Y-97472000D02*
X106622000Y-97472000D01*
X82502000Y-109792000D02*
X106622000Y-109792000D01*
X82502000Y-97472000D02*
X82502000Y-102237000D01*
X82502000Y-105027000D02*
X82502000Y-109792000D01*
X106622000Y-97472000D02*
X106622000Y-102237000D01*
X106622000Y-105027000D02*
X106622000Y-109792000D01*
X77424000Y-97742000D02*
X77424000Y-109362000D01*
X70404000Y-97742000D02*
X70404000Y-109362000D01*
X77424000Y-97742000D02*
X74664000Y-97742000D01*
X73164000Y-97742000D02*
X70404000Y-97742000D01*
X77424000Y-109362000D02*
X74664000Y-109362000D01*
X73164000Y-109362000D02*
X70404000Y-109362000D01*
X118572000Y-97996000D02*
X118572000Y-109616000D01*
X111552000Y-97996000D02*
X111552000Y-109616000D01*
X118572000Y-97996000D02*
X115812000Y-97996000D01*
X114312000Y-97996000D02*
X111552000Y-97996000D01*
X118572000Y-109616000D02*
X115812000Y-109616000D01*
X114312000Y-109616000D02*
X111552000Y-109616000D01*
X127000000Y-76200000D02*
X137160000Y-76200000D01*
X127000000Y-74930000D02*
X127000000Y-82550000D01*
X127000000Y-82550000D02*
X137160000Y-82550000D01*
X137160000Y-82550000D02*
X137160000Y-74930000D01*
X137160000Y-74930000D02*
X127000000Y-74930000D01*
X63246000Y-81280000D02*
X53086000Y-81280000D01*
X63246000Y-82550000D02*
X63246000Y-74930000D01*
X63246000Y-74930000D02*
X53086000Y-74930000D01*
X53086000Y-74930000D02*
X53086000Y-82550000D01*
X53086000Y-82550000D02*
X63246000Y-82550000D01*
X97028000Y-54102000D02*
G75*
G03X97028000Y-54102000I-2286000J0D01*
G01*
X61976000Y-115570000D02*
X51816000Y-115570000D01*
X61976000Y-116840000D02*
X61976000Y-109220000D01*
X61976000Y-109220000D02*
X51816000Y-109220000D01*
X51816000Y-109220000D02*
X51816000Y-116840000D01*
X51816000Y-116840000D02*
X61976000Y-116840000D01*
X125730000Y-109982000D02*
X135890000Y-109982000D01*
X125730000Y-108712000D02*
X125730000Y-116332000D01*
X125730000Y-116332000D02*
X135890000Y-116332000D01*
X135890000Y-116332000D02*
X135890000Y-108712000D01*
X135890000Y-108712000D02*
X125730000Y-108712000D01*
X97028000Y-135191500D02*
G75*
G03X97028000Y-135191500I-2286000J0D01*
G01*
X135636000Y-96774000D02*
G75*
G03X135636000Y-96774000I-2286000J0D01*
G01*
X57150000Y-96266000D02*
G75*
G03X57150000Y-96266000I-2286000J0D01*
G01*
X99488000Y-73495000D02*
X115628000Y-73495000D01*
X99488000Y-78766000D02*
X115628000Y-78766000D01*
X99488000Y-73495000D02*
X99488000Y-78766000D01*
X115628000Y-73495000D02*
X115628000Y-78766000D01*
X105754000Y-73495000D02*
X105754000Y-78766000D01*
X109363000Y-73495000D02*
X109363000Y-78766000D01*
X71040000Y-73749000D02*
X87180000Y-73749000D01*
X71040000Y-79020000D02*
X87180000Y-79020000D01*
X71040000Y-73749000D02*
X71040000Y-79020000D01*
X87180000Y-73749000D02*
X87180000Y-79020000D01*
X77306000Y-73749000D02*
X77306000Y-79020000D01*
X80915000Y-73749000D02*
X80915000Y-79020000D01*
X90250000Y-118529000D02*
X74110000Y-118529000D01*
X90250000Y-113258000D02*
X74110000Y-113258000D01*
X90250000Y-118529000D02*
X90250000Y-113258000D01*
X74110000Y-118529000D02*
X74110000Y-113258000D01*
X83984000Y-118529000D02*
X83984000Y-113258000D01*
X80375000Y-118529000D02*
X80375000Y-113258000D01*
X119610000Y-91862000D02*
X124230000Y-91862000D01*
X124230000Y-91862000D02*
X124230000Y-79842000D01*
X124230000Y-79842000D02*
X119610000Y-79842000D01*
X119610000Y-79842000D02*
X119610000Y-91862000D01*
X121920000Y-92092000D02*
X121920000Y-91862000D01*
X121920000Y-79612000D02*
X121920000Y-79842000D01*
X64746000Y-92116000D02*
X69366000Y-92116000D01*
X69366000Y-92116000D02*
X69366000Y-80096000D01*
X69366000Y-80096000D02*
X64746000Y-80096000D01*
X64746000Y-80096000D02*
X64746000Y-92116000D01*
X67056000Y-92346000D02*
X67056000Y-92116000D01*
X67056000Y-79866000D02*
X67056000Y-80096000D01*
X69366000Y-100416000D02*
X64746000Y-100416000D01*
X64746000Y-100416000D02*
X64746000Y-112436000D01*
X64746000Y-112436000D02*
X69366000Y-112436000D01*
X69366000Y-112436000D02*
X69366000Y-100416000D01*
X67056000Y-100186000D02*
X67056000Y-100416000D01*
X67056000Y-112666000D02*
X67056000Y-112436000D01*
X124230000Y-100670000D02*
X119610000Y-100670000D01*
X119610000Y-100670000D02*
X119610000Y-112690000D01*
X119610000Y-112690000D02*
X124230000Y-112690000D01*
X124230000Y-112690000D02*
X124230000Y-100670000D01*
X121920000Y-100440000D02*
X121920000Y-100670000D01*
X121920000Y-112920000D02*
X121920000Y-112690000D01*
X52286000Y-50000000D02*
G75*
G03X52286000Y-50000000I-2286000J0D01*
G01*
X142286000Y-50000000D02*
G75*
G03X142286000Y-50000000I-2286000J0D01*
G01*
X52286000Y-140000000D02*
G75*
G03X52286000Y-140000000I-2286000J0D01*
G01*
X142286000Y-140000000D02*
G75*
G03X142286000Y-140000000I-2286000J0D01*
G01*
X53480000Y-64650000D02*
X50660000Y-64650000D01*
X50660000Y-64650000D02*
X50660000Y-69970000D01*
X50660000Y-69970000D02*
X53480000Y-69970000D01*
X53480000Y-69970000D02*
X53480000Y-64650000D01*
X52070000Y-63510000D02*
X52070000Y-64650000D01*
X52070000Y-71110000D02*
X52070000Y-69970000D01*
X53480000Y-65490000D02*
X50660000Y-65490000D01*
X134480000Y-126612000D02*
X137300000Y-126612000D01*
X137300000Y-126612000D02*
X137300000Y-121292000D01*
X137300000Y-121292000D02*
X134480000Y-121292000D01*
X134480000Y-121292000D02*
X134480000Y-126612000D01*
X135890000Y-127752000D02*
X135890000Y-126612000D01*
X135890000Y-120152000D02*
X135890000Y-121292000D01*
X134480000Y-125772000D02*
X137300000Y-125772000D01*
X50914000Y-127374000D02*
X53734000Y-127374000D01*
X53734000Y-127374000D02*
X53734000Y-122054000D01*
X53734000Y-122054000D02*
X50914000Y-122054000D01*
X50914000Y-122054000D02*
X50914000Y-127374000D01*
X52324000Y-128514000D02*
X52324000Y-127374000D01*
X52324000Y-120914000D02*
X52324000Y-122054000D01*
X50914000Y-126534000D02*
X53734000Y-126534000D01*
X138062000Y-64142000D02*
X135242000Y-64142000D01*
X135242000Y-64142000D02*
X135242000Y-69462000D01*
X135242000Y-69462000D02*
X138062000Y-69462000D01*
X138062000Y-69462000D02*
X138062000Y-64142000D01*
X136652000Y-63002000D02*
X136652000Y-64142000D01*
X136652000Y-70602000D02*
X136652000Y-69462000D01*
X138062000Y-64982000D02*
X135242000Y-64982000D01*
X126358000Y-69736000D02*
X126358000Y-66916000D01*
X126358000Y-66916000D02*
X121038000Y-66916000D01*
X121038000Y-66916000D02*
X121038000Y-69736000D01*
X121038000Y-69736000D02*
X126358000Y-69736000D01*
X127498000Y-68326000D02*
X126358000Y-68326000D01*
X119898000Y-68326000D02*
X121038000Y-68326000D01*
X125518000Y-69736000D02*
X125518000Y-66916000D01*
X60840000Y-66154000D02*
X60840000Y-68974000D01*
X60840000Y-68974000D02*
X66160000Y-68974000D01*
X66160000Y-68974000D02*
X66160000Y-66154000D01*
X66160000Y-66154000D02*
X60840000Y-66154000D01*
X59700000Y-67564000D02*
X60840000Y-67564000D01*
X67300000Y-67564000D02*
X66160000Y-67564000D01*
X61680000Y-66154000D02*
X61680000Y-68974000D01*
X126612000Y-125616000D02*
X126612000Y-122796000D01*
X126612000Y-122796000D02*
X121292000Y-122796000D01*
X121292000Y-122796000D02*
X121292000Y-125616000D01*
X121292000Y-125616000D02*
X126612000Y-125616000D01*
X127752000Y-124206000D02*
X126612000Y-124206000D01*
X120152000Y-124206000D02*
X121292000Y-124206000D01*
X125772000Y-125616000D02*
X125772000Y-122796000D01*
X120212000Y-71010000D02*
X120212000Y-70530000D01*
X120212000Y-70530000D02*
X130232000Y-70530000D01*
X130232000Y-70530000D02*
X130232000Y-71010000D01*
X120212000Y-73770000D02*
X120212000Y-74250000D01*
X120212000Y-74250000D02*
X130232000Y-74250000D01*
X130232000Y-74250000D02*
X130232000Y-73770000D01*
X67494000Y-73516000D02*
X67494000Y-73996000D01*
X67494000Y-73996000D02*
X57474000Y-73996000D01*
X57474000Y-73996000D02*
X57474000Y-73516000D01*
X67494000Y-70756000D02*
X67494000Y-70276000D01*
X67494000Y-70276000D02*
X57474000Y-70276000D01*
X57474000Y-70276000D02*
X57474000Y-70756000D01*
X120212000Y-118254000D02*
X120212000Y-117774000D01*
X120212000Y-117774000D02*
X130232000Y-117774000D01*
X130232000Y-117774000D02*
X130232000Y-118254000D01*
X120212000Y-121014000D02*
X120212000Y-121494000D01*
X120212000Y-121494000D02*
X130232000Y-121494000D01*
X130232000Y-121494000D02*
X130232000Y-121014000D01*
X61602000Y-122542000D02*
X61602000Y-125362000D01*
X61602000Y-125362000D02*
X66922000Y-125362000D01*
X66922000Y-125362000D02*
X66922000Y-122542000D01*
X66922000Y-122542000D02*
X61602000Y-122542000D01*
X60462000Y-123952000D02*
X61602000Y-123952000D01*
X68062000Y-123952000D02*
X66922000Y-123952000D01*
X62442000Y-122542000D02*
X62442000Y-125362000D01*
X68002000Y-121522000D02*
X68002000Y-122002000D01*
X68002000Y-122002000D02*
X57982000Y-122002000D01*
X57982000Y-122002000D02*
X57982000Y-121522000D01*
X68002000Y-118762000D02*
X68002000Y-118282000D01*
X68002000Y-118282000D02*
X57982000Y-118282000D01*
X57982000Y-118282000D02*
X57982000Y-118762000D01*
X130047000Y-64641000D02*
X130047000Y-59311000D01*
X130047000Y-59311000D02*
X120397000Y-59311000D01*
X120397000Y-59311000D02*
X120397000Y-64641000D01*
X120397000Y-64641000D02*
X130047000Y-64641000D01*
X130092000Y-61976000D02*
X130047000Y-61976000D01*
X120352000Y-61976000D02*
X120397000Y-61976000D01*
X128557500Y-64641000D02*
X128557500Y-59311000D01*
X67817000Y-64387000D02*
X67817000Y-59057000D01*
X67817000Y-59057000D02*
X58167000Y-59057000D01*
X58167000Y-59057000D02*
X58167000Y-64387000D01*
X58167000Y-64387000D02*
X67817000Y-64387000D01*
X67862000Y-61722000D02*
X67817000Y-61722000D01*
X58122000Y-61722000D02*
X58167000Y-61722000D01*
X66327500Y-64387000D02*
X66327500Y-59057000D01*
X59183000Y-128399000D02*
X59183000Y-133729000D01*
X59183000Y-133729000D02*
X68833000Y-133729000D01*
X68833000Y-133729000D02*
X68833000Y-128399000D01*
X68833000Y-128399000D02*
X59183000Y-128399000D01*
X59138000Y-131064000D02*
X59183000Y-131064000D01*
X68878000Y-131064000D02*
X68833000Y-131064000D01*
X60672500Y-128399000D02*
X60672500Y-133729000D01*
X120143000Y-127637000D02*
X120143000Y-132967000D01*
X120143000Y-132967000D02*
X129793000Y-132967000D01*
X129793000Y-132967000D02*
X129793000Y-127637000D01*
X129793000Y-127637000D02*
X120143000Y-127637000D01*
X120098000Y-130302000D02*
X120143000Y-130302000D01*
X129838000Y-130302000D02*
X129793000Y-130302000D01*
X121632500Y-127637000D02*
X121632500Y-132967000D01*
D13*
X108246762Y-120329619D02*
X108151524Y-120282000D01*
X108056286Y-120186762D01*
X107913429Y-120043905D01*
X107818190Y-119996286D01*
X107722952Y-119996286D01*
X107770571Y-120234381D02*
X107675333Y-120186762D01*
X107580095Y-120091524D01*
X107532476Y-119901048D01*
X107532476Y-119567714D01*
X107580095Y-119377238D01*
X107675333Y-119282000D01*
X107770571Y-119234381D01*
X107961048Y-119234381D01*
X108056286Y-119282000D01*
X108151524Y-119377238D01*
X108199143Y-119567714D01*
X108199143Y-119901048D01*
X108151524Y-120091524D01*
X108056286Y-120186762D01*
X107961048Y-120234381D01*
X107770571Y-120234381D01*
X109056286Y-119567714D02*
X109056286Y-120234381D01*
X108818190Y-119186762D02*
X108580095Y-119901048D01*
X109199143Y-119901048D01*
X114974643Y-88749166D02*
X115022262Y-88796785D01*
X115069881Y-88939642D01*
X115069881Y-89034880D01*
X115022262Y-89177738D01*
X114927024Y-89272976D01*
X114831786Y-89320595D01*
X114641310Y-89368214D01*
X114498452Y-89368214D01*
X114307976Y-89320595D01*
X114212738Y-89272976D01*
X114117500Y-89177738D01*
X114069881Y-89034880D01*
X114069881Y-88939642D01*
X114117500Y-88796785D01*
X114165119Y-88749166D01*
X115069881Y-87796785D02*
X115069881Y-88368214D01*
X115069881Y-88082500D02*
X114069881Y-88082500D01*
X114212738Y-88177738D01*
X114307976Y-88272976D01*
X114355595Y-88368214D01*
X94638834Y-89130143D02*
X94591215Y-89177762D01*
X94448358Y-89225381D01*
X94353120Y-89225381D01*
X94210262Y-89177762D01*
X94115024Y-89082524D01*
X94067405Y-88987286D01*
X94019786Y-88796810D01*
X94019786Y-88653952D01*
X94067405Y-88463476D01*
X94115024Y-88368238D01*
X94210262Y-88273000D01*
X94353120Y-88225381D01*
X94448358Y-88225381D01*
X94591215Y-88273000D01*
X94638834Y-88320619D01*
X95019786Y-88320619D02*
X95067405Y-88273000D01*
X95162643Y-88225381D01*
X95400739Y-88225381D01*
X95495977Y-88273000D01*
X95543596Y-88320619D01*
X95591215Y-88415857D01*
X95591215Y-88511095D01*
X95543596Y-88653952D01*
X94972167Y-89225381D01*
X95591215Y-89225381D01*
X74652143Y-88749166D02*
X74699762Y-88796785D01*
X74747381Y-88939642D01*
X74747381Y-89034880D01*
X74699762Y-89177738D01*
X74604524Y-89272976D01*
X74509286Y-89320595D01*
X74318810Y-89368214D01*
X74175952Y-89368214D01*
X73985476Y-89320595D01*
X73890238Y-89272976D01*
X73795000Y-89177738D01*
X73747381Y-89034880D01*
X73747381Y-88939642D01*
X73795000Y-88796785D01*
X73842619Y-88749166D01*
X73747381Y-88415833D02*
X73747381Y-87796785D01*
X74128333Y-88130119D01*
X74128333Y-87987261D01*
X74175952Y-87892023D01*
X74223571Y-87844404D01*
X74318810Y-87796785D01*
X74556905Y-87796785D01*
X74652143Y-87844404D01*
X74699762Y-87892023D01*
X74747381Y-87987261D01*
X74747381Y-88272976D01*
X74699762Y-88368214D01*
X74652143Y-88415833D01*
X94511834Y-103925643D02*
X94464215Y-103973262D01*
X94321358Y-104020881D01*
X94226120Y-104020881D01*
X94083262Y-103973262D01*
X93988024Y-103878024D01*
X93940405Y-103782786D01*
X93892786Y-103592310D01*
X93892786Y-103449452D01*
X93940405Y-103258976D01*
X93988024Y-103163738D01*
X94083262Y-103068500D01*
X94226120Y-103020881D01*
X94321358Y-103020881D01*
X94464215Y-103068500D01*
X94511834Y-103116119D01*
X95368977Y-103354214D02*
X95368977Y-104020881D01*
X95130881Y-102973262D02*
X94892786Y-103687548D01*
X95511834Y-103687548D01*
X74207643Y-103735166D02*
X74255262Y-103782785D01*
X74302881Y-103925642D01*
X74302881Y-104020880D01*
X74255262Y-104163738D01*
X74160024Y-104258976D01*
X74064786Y-104306595D01*
X73874310Y-104354214D01*
X73731452Y-104354214D01*
X73540976Y-104306595D01*
X73445738Y-104258976D01*
X73350500Y-104163738D01*
X73302881Y-104020880D01*
X73302881Y-103925642D01*
X73350500Y-103782785D01*
X73398119Y-103735166D01*
X73302881Y-102830404D02*
X73302881Y-103306595D01*
X73779071Y-103354214D01*
X73731452Y-103306595D01*
X73683833Y-103211357D01*
X73683833Y-102973261D01*
X73731452Y-102878023D01*
X73779071Y-102830404D01*
X73874310Y-102782785D01*
X74112405Y-102782785D01*
X74207643Y-102830404D01*
X74255262Y-102878023D01*
X74302881Y-102973261D01*
X74302881Y-103211357D01*
X74255262Y-103306595D01*
X74207643Y-103354214D01*
X115482643Y-103925666D02*
X115530262Y-103973285D01*
X115577881Y-104116142D01*
X115577881Y-104211380D01*
X115530262Y-104354238D01*
X115435024Y-104449476D01*
X115339786Y-104497095D01*
X115149310Y-104544714D01*
X115006452Y-104544714D01*
X114815976Y-104497095D01*
X114720738Y-104449476D01*
X114625500Y-104354238D01*
X114577881Y-104211380D01*
X114577881Y-104116142D01*
X114625500Y-103973285D01*
X114673119Y-103925666D01*
X114577881Y-103068523D02*
X114577881Y-103259000D01*
X114625500Y-103354238D01*
X114673119Y-103401857D01*
X114815976Y-103497095D01*
X115006452Y-103544714D01*
X115387405Y-103544714D01*
X115482643Y-103497095D01*
X115530262Y-103449476D01*
X115577881Y-103354238D01*
X115577881Y-103163761D01*
X115530262Y-103068523D01*
X115482643Y-103020904D01*
X115387405Y-102973285D01*
X115149310Y-102973285D01*
X115054071Y-103020904D01*
X115006452Y-103068523D01*
X114958833Y-103163761D01*
X114958833Y-103354238D01*
X115006452Y-103449476D01*
X115054071Y-103497095D01*
X115149310Y-103544714D01*
X137882381Y-79073333D02*
X138596667Y-79073333D01*
X138739524Y-79120953D01*
X138834762Y-79216191D01*
X138882381Y-79359048D01*
X138882381Y-79454286D01*
X138882381Y-78073333D02*
X138882381Y-78644762D01*
X138882381Y-78359048D02*
X137882381Y-78359048D01*
X138025238Y-78454286D01*
X138120476Y-78549524D01*
X138168095Y-78644762D01*
X51482667Y-78446381D02*
X51482667Y-79160667D01*
X51435047Y-79303524D01*
X51339809Y-79398762D01*
X51196952Y-79446381D01*
X51101714Y-79446381D01*
X51911238Y-78541619D02*
X51958857Y-78494000D01*
X52054095Y-78446381D01*
X52292191Y-78446381D01*
X52387429Y-78494000D01*
X52435048Y-78541619D01*
X52482667Y-78636857D01*
X52482667Y-78732095D01*
X52435048Y-78874952D01*
X51863619Y-79446381D01*
X52482667Y-79446381D01*
X91146381Y-54435333D02*
X91860667Y-54435333D01*
X92003524Y-54482953D01*
X92098762Y-54578191D01*
X92146381Y-54721048D01*
X92146381Y-54816286D01*
X91146381Y-54054381D02*
X91146381Y-53435333D01*
X91527333Y-53768667D01*
X91527333Y-53625809D01*
X91574952Y-53530571D01*
X91622571Y-53482952D01*
X91717810Y-53435333D01*
X91955905Y-53435333D01*
X92051143Y-53482952D01*
X92098762Y-53530571D01*
X92146381Y-53625809D01*
X92146381Y-53911524D01*
X92098762Y-54006762D01*
X92051143Y-54054381D01*
X56562667Y-107402381D02*
X56562667Y-108116667D01*
X56515047Y-108259524D01*
X56419809Y-108354762D01*
X56276952Y-108402381D01*
X56181714Y-108402381D01*
X57467429Y-107735714D02*
X57467429Y-108402381D01*
X57229333Y-107354762D02*
X56991238Y-108069048D01*
X57610286Y-108069048D01*
X136612381Y-112982333D02*
X137326667Y-112982333D01*
X137469524Y-113029953D01*
X137564762Y-113125191D01*
X137612381Y-113268048D01*
X137612381Y-113363286D01*
X136612381Y-112029952D02*
X136612381Y-112506143D01*
X137088571Y-112553762D01*
X137040952Y-112506143D01*
X136993333Y-112410905D01*
X136993333Y-112172809D01*
X137040952Y-112077571D01*
X137088571Y-112029952D01*
X137183810Y-111982333D01*
X137421905Y-111982333D01*
X137517143Y-112029952D01*
X137564762Y-112077571D01*
X137612381Y-112172809D01*
X137612381Y-112410905D01*
X137564762Y-112506143D01*
X137517143Y-112553762D01*
X94408667Y-131595881D02*
X94408667Y-132310167D01*
X94361047Y-132453024D01*
X94265809Y-132548262D01*
X94122952Y-132595881D01*
X94027714Y-132595881D01*
X95313429Y-131595881D02*
X95122952Y-131595881D01*
X95027714Y-131643500D01*
X94980095Y-131691119D01*
X94884857Y-131833976D01*
X94837238Y-132024452D01*
X94837238Y-132405405D01*
X94884857Y-132500643D01*
X94932476Y-132548262D01*
X95027714Y-132595881D01*
X95218191Y-132595881D01*
X95313429Y-132548262D01*
X95361048Y-132500643D01*
X95408667Y-132405405D01*
X95408667Y-132167310D01*
X95361048Y-132072071D01*
X95313429Y-132024452D01*
X95218191Y-131976833D01*
X95027714Y-131976833D01*
X94932476Y-132024452D01*
X94884857Y-132072071D01*
X94837238Y-132167310D01*
X133016667Y-93178381D02*
X133016667Y-93892667D01*
X132969047Y-94035524D01*
X132873809Y-94130762D01*
X132730952Y-94178381D01*
X132635714Y-94178381D01*
X133397619Y-93178381D02*
X134064286Y-93178381D01*
X133635714Y-94178381D01*
X54530667Y-92670381D02*
X54530667Y-93384667D01*
X54483047Y-93527524D01*
X54387809Y-93622762D01*
X54244952Y-93670381D01*
X54149714Y-93670381D01*
X55149714Y-93098952D02*
X55054476Y-93051333D01*
X55006857Y-93003714D01*
X54959238Y-92908476D01*
X54959238Y-92860857D01*
X55006857Y-92765619D01*
X55054476Y-92718000D01*
X55149714Y-92670381D01*
X55340191Y-92670381D01*
X55435429Y-92718000D01*
X55483048Y-92765619D01*
X55530667Y-92860857D01*
X55530667Y-92908476D01*
X55483048Y-93003714D01*
X55435429Y-93051333D01*
X55340191Y-93098952D01*
X55149714Y-93098952D01*
X55054476Y-93146571D01*
X55006857Y-93194190D01*
X54959238Y-93289429D01*
X54959238Y-93479905D01*
X55006857Y-93575143D01*
X55054476Y-93622762D01*
X55149714Y-93670381D01*
X55340191Y-93670381D01*
X55435429Y-93622762D01*
X55483048Y-93575143D01*
X55530667Y-93479905D01*
X55530667Y-93289429D01*
X55483048Y-93194190D01*
X55435429Y-93146571D01*
X55340191Y-93098952D01*
X107462762Y-73043619D02*
X107367524Y-72996000D01*
X107272286Y-72900762D01*
X107129429Y-72757905D01*
X107034190Y-72710286D01*
X106938952Y-72710286D01*
X106986571Y-72948381D02*
X106891333Y-72900762D01*
X106796095Y-72805524D01*
X106748476Y-72615048D01*
X106748476Y-72281714D01*
X106796095Y-72091238D01*
X106891333Y-71996000D01*
X106986571Y-71948381D01*
X107177048Y-71948381D01*
X107272286Y-71996000D01*
X107367524Y-72091238D01*
X107415143Y-72281714D01*
X107415143Y-72615048D01*
X107367524Y-72805524D01*
X107272286Y-72900762D01*
X107177048Y-72948381D01*
X106986571Y-72948381D01*
X108367524Y-72948381D02*
X107796095Y-72948381D01*
X108081809Y-72948381D02*
X108081809Y-71948381D01*
X107986571Y-72091238D01*
X107891333Y-72186476D01*
X107796095Y-72234095D01*
X79014762Y-73297619D02*
X78919524Y-73250000D01*
X78824286Y-73154762D01*
X78681429Y-73011905D01*
X78586190Y-72964286D01*
X78490952Y-72964286D01*
X78538571Y-73202381D02*
X78443333Y-73154762D01*
X78348095Y-73059524D01*
X78300476Y-72869048D01*
X78300476Y-72535714D01*
X78348095Y-72345238D01*
X78443333Y-72250000D01*
X78538571Y-72202381D01*
X78729048Y-72202381D01*
X78824286Y-72250000D01*
X78919524Y-72345238D01*
X78967143Y-72535714D01*
X78967143Y-72869048D01*
X78919524Y-73059524D01*
X78824286Y-73154762D01*
X78729048Y-73202381D01*
X78538571Y-73202381D01*
X79348095Y-72297619D02*
X79395714Y-72250000D01*
X79490952Y-72202381D01*
X79729048Y-72202381D01*
X79824286Y-72250000D01*
X79871905Y-72297619D01*
X79919524Y-72392857D01*
X79919524Y-72488095D01*
X79871905Y-72630952D01*
X79300476Y-73202381D01*
X79919524Y-73202381D01*
X82084762Y-120075619D02*
X81989524Y-120028000D01*
X81894286Y-119932762D01*
X81751429Y-119789905D01*
X81656190Y-119742286D01*
X81560952Y-119742286D01*
X81608571Y-119980381D02*
X81513333Y-119932762D01*
X81418095Y-119837524D01*
X81370476Y-119647048D01*
X81370476Y-119313714D01*
X81418095Y-119123238D01*
X81513333Y-119028000D01*
X81608571Y-118980381D01*
X81799048Y-118980381D01*
X81894286Y-119028000D01*
X81989524Y-119123238D01*
X82037143Y-119313714D01*
X82037143Y-119647048D01*
X81989524Y-119837524D01*
X81894286Y-119932762D01*
X81799048Y-119980381D01*
X81608571Y-119980381D01*
X82370476Y-118980381D02*
X82989524Y-118980381D01*
X82656190Y-119361333D01*
X82799048Y-119361333D01*
X82894286Y-119408952D01*
X82941905Y-119456571D01*
X82989524Y-119551810D01*
X82989524Y-119789905D01*
X82941905Y-119885143D01*
X82894286Y-119932762D01*
X82799048Y-119980381D01*
X82513333Y-119980381D01*
X82418095Y-119932762D01*
X82370476Y-119885143D01*
X122308881Y-86844166D02*
X121832690Y-87177500D01*
X122308881Y-87415595D02*
X121308881Y-87415595D01*
X121308881Y-87034642D01*
X121356500Y-86939404D01*
X121404119Y-86891785D01*
X121499357Y-86844166D01*
X121642214Y-86844166D01*
X121737452Y-86891785D01*
X121785071Y-86939404D01*
X121832690Y-87034642D01*
X121832690Y-87415595D01*
X121404119Y-86463214D02*
X121356500Y-86415595D01*
X121308881Y-86320357D01*
X121308881Y-86082261D01*
X121356500Y-85987023D01*
X121404119Y-85939404D01*
X121499357Y-85891785D01*
X121594595Y-85891785D01*
X121737452Y-85939404D01*
X122308881Y-86510833D01*
X122308881Y-85891785D01*
X67254381Y-86717166D02*
X66778190Y-87050500D01*
X67254381Y-87288595D02*
X66254381Y-87288595D01*
X66254381Y-86907642D01*
X66302000Y-86812404D01*
X66349619Y-86764785D01*
X66444857Y-86717166D01*
X66587714Y-86717166D01*
X66682952Y-86764785D01*
X66730571Y-86812404D01*
X66778190Y-86907642D01*
X66778190Y-87288595D01*
X66587714Y-85860023D02*
X67254381Y-85860023D01*
X66206762Y-86098119D02*
X66921048Y-86336214D01*
X66921048Y-85717166D01*
X67508381Y-106211666D02*
X67032190Y-106545000D01*
X67508381Y-106783095D02*
X66508381Y-106783095D01*
X66508381Y-106402142D01*
X66556000Y-106306904D01*
X66603619Y-106259285D01*
X66698857Y-106211666D01*
X66841714Y-106211666D01*
X66936952Y-106259285D01*
X66984571Y-106306904D01*
X67032190Y-106402142D01*
X67032190Y-106783095D01*
X66508381Y-105878333D02*
X66508381Y-105211666D01*
X67508381Y-105640238D01*
X122562881Y-105576666D02*
X122086690Y-105910000D01*
X122562881Y-106148095D02*
X121562881Y-106148095D01*
X121562881Y-105767142D01*
X121610500Y-105671904D01*
X121658119Y-105624285D01*
X121753357Y-105576666D01*
X121896214Y-105576666D01*
X121991452Y-105624285D01*
X122039071Y-105671904D01*
X122086690Y-105767142D01*
X122086690Y-106148095D01*
X121991452Y-105005238D02*
X121943833Y-105100476D01*
X121896214Y-105148095D01*
X121800976Y-105195714D01*
X121753357Y-105195714D01*
X121658119Y-105148095D01*
X121610500Y-105100476D01*
X121562881Y-105005238D01*
X121562881Y-104814761D01*
X121610500Y-104719523D01*
X121658119Y-104671904D01*
X121753357Y-104624285D01*
X121800976Y-104624285D01*
X121896214Y-104671904D01*
X121943833Y-104719523D01*
X121991452Y-104814761D01*
X121991452Y-105005238D01*
X122039071Y-105100476D01*
X122086690Y-105148095D01*
X122181929Y-105195714D01*
X122372405Y-105195714D01*
X122467643Y-105148095D01*
X122515262Y-105100476D01*
X122562881Y-105005238D01*
X122562881Y-104814761D01*
X122515262Y-104719523D01*
X122467643Y-104671904D01*
X122372405Y-104624285D01*
X122181929Y-104624285D01*
X122086690Y-104671904D01*
X122039071Y-104719523D01*
X121991452Y-104814761D01*
X49666667Y-46404381D02*
X49666667Y-47118667D01*
X49619047Y-47261524D01*
X49523809Y-47356762D01*
X49380952Y-47404381D01*
X49285714Y-47404381D01*
X50190476Y-47404381D02*
X50380952Y-47404381D01*
X50476191Y-47356762D01*
X50523810Y-47309143D01*
X50619048Y-47166286D01*
X50666667Y-46975810D01*
X50666667Y-46594857D01*
X50619048Y-46499619D01*
X50571429Y-46452000D01*
X50476191Y-46404381D01*
X50285714Y-46404381D01*
X50190476Y-46452000D01*
X50142857Y-46499619D01*
X50095238Y-46594857D01*
X50095238Y-46832952D01*
X50142857Y-46928190D01*
X50190476Y-46975810D01*
X50285714Y-47023429D01*
X50476191Y-47023429D01*
X50571429Y-46975810D01*
X50619048Y-46928190D01*
X50666667Y-46832952D01*
X139190477Y-46404381D02*
X139190477Y-47118667D01*
X139142857Y-47261524D01*
X139047619Y-47356762D01*
X138904762Y-47404381D01*
X138809524Y-47404381D01*
X140190477Y-47404381D02*
X139619048Y-47404381D01*
X139904762Y-47404381D02*
X139904762Y-46404381D01*
X139809524Y-46547238D01*
X139714286Y-46642476D01*
X139619048Y-46690095D01*
X140809524Y-46404381D02*
X140904763Y-46404381D01*
X141000001Y-46452000D01*
X141047620Y-46499619D01*
X141095239Y-46594857D01*
X141142858Y-46785333D01*
X141142858Y-47023429D01*
X141095239Y-47213905D01*
X141047620Y-47309143D01*
X141000001Y-47356762D01*
X140904763Y-47404381D01*
X140809524Y-47404381D01*
X140714286Y-47356762D01*
X140666667Y-47309143D01*
X140619048Y-47213905D01*
X140571429Y-47023429D01*
X140571429Y-46785333D01*
X140619048Y-46594857D01*
X140666667Y-46499619D01*
X140714286Y-46452000D01*
X140809524Y-46404381D01*
X49190477Y-136404381D02*
X49190477Y-137118667D01*
X49142857Y-137261524D01*
X49047619Y-137356762D01*
X48904762Y-137404381D01*
X48809524Y-137404381D01*
X50190477Y-137404381D02*
X49619048Y-137404381D01*
X49904762Y-137404381D02*
X49904762Y-136404381D01*
X49809524Y-136547238D01*
X49714286Y-136642476D01*
X49619048Y-136690095D01*
X51142858Y-137404381D02*
X50571429Y-137404381D01*
X50857143Y-137404381D02*
X50857143Y-136404381D01*
X50761905Y-136547238D01*
X50666667Y-136642476D01*
X50571429Y-136690095D01*
X139190477Y-136404381D02*
X139190477Y-137118667D01*
X139142857Y-137261524D01*
X139047619Y-137356762D01*
X138904762Y-137404381D01*
X138809524Y-137404381D01*
X140190477Y-137404381D02*
X139619048Y-137404381D01*
X139904762Y-137404381D02*
X139904762Y-136404381D01*
X139809524Y-136547238D01*
X139714286Y-136642476D01*
X139619048Y-136690095D01*
X140571429Y-136499619D02*
X140619048Y-136452000D01*
X140714286Y-136404381D01*
X140952382Y-136404381D01*
X141047620Y-136452000D01*
X141095239Y-136499619D01*
X141142858Y-136594857D01*
X141142858Y-136690095D01*
X141095239Y-136832952D01*
X140523810Y-137404381D01*
X141142858Y-137404381D01*
X52522381Y-68048095D02*
X51522381Y-68048095D01*
X51522381Y-67810000D01*
X51570000Y-67667142D01*
X51665238Y-67571904D01*
X51760476Y-67524285D01*
X51950952Y-67476666D01*
X52093810Y-67476666D01*
X52284286Y-67524285D01*
X52379524Y-67571904D01*
X52474762Y-67667142D01*
X52522381Y-67810000D01*
X52522381Y-68048095D01*
X51522381Y-66619523D02*
X51522381Y-66810000D01*
X51570000Y-66905238D01*
X51617619Y-66952857D01*
X51760476Y-67048095D01*
X51950952Y-67095714D01*
X52331905Y-67095714D01*
X52427143Y-67048095D01*
X52474762Y-67000476D01*
X52522381Y-66905238D01*
X52522381Y-66714761D01*
X52474762Y-66619523D01*
X52427143Y-66571904D01*
X52331905Y-66524285D01*
X52093810Y-66524285D01*
X51998571Y-66571904D01*
X51950952Y-66619523D01*
X51903333Y-66714761D01*
X51903333Y-66905238D01*
X51950952Y-67000476D01*
X51998571Y-67048095D01*
X52093810Y-67095714D01*
X136278881Y-124690095D02*
X135278881Y-124690095D01*
X135278881Y-124452000D01*
X135326500Y-124309142D01*
X135421738Y-124213904D01*
X135516976Y-124166285D01*
X135707452Y-124118666D01*
X135850310Y-124118666D01*
X136040786Y-124166285D01*
X136136024Y-124213904D01*
X136231262Y-124309142D01*
X136278881Y-124452000D01*
X136278881Y-124690095D01*
X135707452Y-123547238D02*
X135659833Y-123642476D01*
X135612214Y-123690095D01*
X135516976Y-123737714D01*
X135469357Y-123737714D01*
X135374119Y-123690095D01*
X135326500Y-123642476D01*
X135278881Y-123547238D01*
X135278881Y-123356761D01*
X135326500Y-123261523D01*
X135374119Y-123213904D01*
X135469357Y-123166285D01*
X135516976Y-123166285D01*
X135612214Y-123213904D01*
X135659833Y-123261523D01*
X135707452Y-123356761D01*
X135707452Y-123547238D01*
X135755071Y-123642476D01*
X135802690Y-123690095D01*
X135897929Y-123737714D01*
X136088405Y-123737714D01*
X136183643Y-123690095D01*
X136231262Y-123642476D01*
X136278881Y-123547238D01*
X136278881Y-123356761D01*
X136231262Y-123261523D01*
X136183643Y-123213904D01*
X136088405Y-123166285D01*
X135897929Y-123166285D01*
X135802690Y-123213904D01*
X135755071Y-123261523D01*
X135707452Y-123356761D01*
X52776381Y-125325095D02*
X51776381Y-125325095D01*
X51776381Y-125087000D01*
X51824000Y-124944142D01*
X51919238Y-124848904D01*
X52014476Y-124801285D01*
X52204952Y-124753666D01*
X52347810Y-124753666D01*
X52538286Y-124801285D01*
X52633524Y-124848904D01*
X52728762Y-124944142D01*
X52776381Y-125087000D01*
X52776381Y-125325095D01*
X51776381Y-124420333D02*
X51776381Y-123753666D01*
X52776381Y-124182238D01*
X137167881Y-67540095D02*
X136167881Y-67540095D01*
X136167881Y-67302000D01*
X136215500Y-67159142D01*
X136310738Y-67063904D01*
X136405976Y-67016285D01*
X136596452Y-66968666D01*
X136739310Y-66968666D01*
X136929786Y-67016285D01*
X137025024Y-67063904D01*
X137120262Y-67159142D01*
X137167881Y-67302000D01*
X137167881Y-67540095D01*
X136167881Y-66063904D02*
X136167881Y-66540095D01*
X136644071Y-66587714D01*
X136596452Y-66540095D01*
X136548833Y-66444857D01*
X136548833Y-66206761D01*
X136596452Y-66111523D01*
X136644071Y-66063904D01*
X136739310Y-66016285D01*
X136977405Y-66016285D01*
X137072643Y-66063904D01*
X137120262Y-66111523D01*
X137167881Y-66206761D01*
X137167881Y-66444857D01*
X137120262Y-66540095D01*
X137072643Y-66587714D01*
X122896405Y-68714881D02*
X122896405Y-67714881D01*
X123134500Y-67714881D01*
X123277358Y-67762500D01*
X123372596Y-67857738D01*
X123420215Y-67952976D01*
X123467834Y-68143452D01*
X123467834Y-68286310D01*
X123420215Y-68476786D01*
X123372596Y-68572024D01*
X123277358Y-68667262D01*
X123134500Y-68714881D01*
X122896405Y-68714881D01*
X124420215Y-68714881D02*
X123848786Y-68714881D01*
X124134500Y-68714881D02*
X124134500Y-67714881D01*
X124039262Y-67857738D01*
X123944024Y-67952976D01*
X123848786Y-68000595D01*
X62761905Y-67952881D02*
X62761905Y-66952881D01*
X63000000Y-66952881D01*
X63142858Y-67000500D01*
X63238096Y-67095738D01*
X63285715Y-67190976D01*
X63333334Y-67381452D01*
X63333334Y-67524310D01*
X63285715Y-67714786D01*
X63238096Y-67810024D01*
X63142858Y-67905262D01*
X63000000Y-67952881D01*
X62761905Y-67952881D01*
X63714286Y-67048119D02*
X63761905Y-67000500D01*
X63857143Y-66952881D01*
X64095239Y-66952881D01*
X64190477Y-67000500D01*
X64238096Y-67048119D01*
X64285715Y-67143357D01*
X64285715Y-67238595D01*
X64238096Y-67381452D01*
X63666667Y-67952881D01*
X64285715Y-67952881D01*
X123150405Y-124658381D02*
X123150405Y-123658381D01*
X123388500Y-123658381D01*
X123531358Y-123706000D01*
X123626596Y-123801238D01*
X123674215Y-123896476D01*
X123721834Y-124086952D01*
X123721834Y-124229810D01*
X123674215Y-124420286D01*
X123626596Y-124515524D01*
X123531358Y-124610762D01*
X123388500Y-124658381D01*
X123150405Y-124658381D01*
X124578977Y-123991714D02*
X124578977Y-124658381D01*
X124340881Y-123610762D02*
X124102786Y-124325048D01*
X124721834Y-124325048D01*
X125309334Y-72778881D02*
X124976000Y-72302690D01*
X124737905Y-72778881D02*
X124737905Y-71778881D01*
X125118858Y-71778881D01*
X125214096Y-71826500D01*
X125261715Y-71874119D01*
X125309334Y-71969357D01*
X125309334Y-72112214D01*
X125261715Y-72207452D01*
X125214096Y-72255071D01*
X125118858Y-72302690D01*
X124737905Y-72302690D01*
X126261715Y-72778881D02*
X125690286Y-72778881D01*
X125976000Y-72778881D02*
X125976000Y-71778881D01*
X125880762Y-71921738D01*
X125785524Y-72016976D01*
X125690286Y-72064595D01*
X62190334Y-72651881D02*
X61857000Y-72175690D01*
X61618905Y-72651881D02*
X61618905Y-71651881D01*
X61999858Y-71651881D01*
X62095096Y-71699500D01*
X62142715Y-71747119D01*
X62190334Y-71842357D01*
X62190334Y-71985214D01*
X62142715Y-72080452D01*
X62095096Y-72128071D01*
X61999858Y-72175690D01*
X61618905Y-72175690D01*
X62523667Y-71651881D02*
X63142715Y-71651881D01*
X62809381Y-72032833D01*
X62952239Y-72032833D01*
X63047477Y-72080452D01*
X63095096Y-72128071D01*
X63142715Y-72223310D01*
X63142715Y-72461405D01*
X63095096Y-72556643D01*
X63047477Y-72604262D01*
X62952239Y-72651881D01*
X62666524Y-72651881D01*
X62571286Y-72604262D01*
X62523667Y-72556643D01*
X124610834Y-119959381D02*
X124277500Y-119483190D01*
X124039405Y-119959381D02*
X124039405Y-118959381D01*
X124420358Y-118959381D01*
X124515596Y-119007000D01*
X124563215Y-119054619D01*
X124610834Y-119149857D01*
X124610834Y-119292714D01*
X124563215Y-119387952D01*
X124515596Y-119435571D01*
X124420358Y-119483190D01*
X124039405Y-119483190D01*
X125467977Y-118959381D02*
X125277500Y-118959381D01*
X125182262Y-119007000D01*
X125134643Y-119054619D01*
X125039405Y-119197476D01*
X124991786Y-119387952D01*
X124991786Y-119768905D01*
X125039405Y-119864143D01*
X125087024Y-119911762D01*
X125182262Y-119959381D01*
X125372739Y-119959381D01*
X125467977Y-119911762D01*
X125515596Y-119864143D01*
X125563215Y-119768905D01*
X125563215Y-119530810D01*
X125515596Y-119435571D01*
X125467977Y-119387952D01*
X125372739Y-119340333D01*
X125182262Y-119340333D01*
X125087024Y-119387952D01*
X125039405Y-119435571D01*
X124991786Y-119530810D01*
X63460405Y-124404381D02*
X63460405Y-123404381D01*
X63698500Y-123404381D01*
X63841358Y-123452000D01*
X63936596Y-123547238D01*
X63984215Y-123642476D01*
X64031834Y-123832952D01*
X64031834Y-123975810D01*
X63984215Y-124166286D01*
X63936596Y-124261524D01*
X63841358Y-124356762D01*
X63698500Y-124404381D01*
X63460405Y-124404381D01*
X64365167Y-123404381D02*
X64984215Y-123404381D01*
X64650881Y-123785333D01*
X64793739Y-123785333D01*
X64888977Y-123832952D01*
X64936596Y-123880571D01*
X64984215Y-123975810D01*
X64984215Y-124213905D01*
X64936596Y-124309143D01*
X64888977Y-124356762D01*
X64793739Y-124404381D01*
X64508024Y-124404381D01*
X64412786Y-124356762D01*
X64365167Y-124309143D01*
X62698334Y-120594381D02*
X62365000Y-120118190D01*
X62126905Y-120594381D02*
X62126905Y-119594381D01*
X62507858Y-119594381D01*
X62603096Y-119642000D01*
X62650715Y-119689619D01*
X62698334Y-119784857D01*
X62698334Y-119927714D01*
X62650715Y-120022952D01*
X62603096Y-120070571D01*
X62507858Y-120118190D01*
X62126905Y-120118190D01*
X63603096Y-119594381D02*
X63126905Y-119594381D01*
X63079286Y-120070571D01*
X63126905Y-120022952D01*
X63222143Y-119975333D01*
X63460239Y-119975333D01*
X63555477Y-120022952D01*
X63603096Y-120070571D01*
X63650715Y-120165810D01*
X63650715Y-120403905D01*
X63603096Y-120499143D01*
X63555477Y-120546762D01*
X63460239Y-120594381D01*
X63222143Y-120594381D01*
X63126905Y-120546762D01*
X63079286Y-120499143D01*
X124547405Y-62428381D02*
X124547405Y-61428381D01*
X124785500Y-61428381D01*
X124928358Y-61476000D01*
X125023596Y-61571238D01*
X125071215Y-61666476D01*
X125118834Y-61856952D01*
X125118834Y-61999810D01*
X125071215Y-62190286D01*
X125023596Y-62285524D01*
X124928358Y-62380762D01*
X124785500Y-62428381D01*
X124547405Y-62428381D01*
X125595024Y-62428381D02*
X125785500Y-62428381D01*
X125880739Y-62380762D01*
X125928358Y-62333143D01*
X126023596Y-62190286D01*
X126071215Y-61999810D01*
X126071215Y-61618857D01*
X126023596Y-61523619D01*
X125975977Y-61476000D01*
X125880739Y-61428381D01*
X125690262Y-61428381D01*
X125595024Y-61476000D01*
X125547405Y-61523619D01*
X125499786Y-61618857D01*
X125499786Y-61856952D01*
X125547405Y-61952190D01*
X125595024Y-61999810D01*
X125690262Y-62047429D01*
X125880739Y-62047429D01*
X125975977Y-61999810D01*
X126023596Y-61952190D01*
X126071215Y-61856952D01*
X61841214Y-62174381D02*
X61841214Y-61174381D01*
X62079309Y-61174381D01*
X62222167Y-61222000D01*
X62317405Y-61317238D01*
X62365024Y-61412476D01*
X62412643Y-61602952D01*
X62412643Y-61745810D01*
X62365024Y-61936286D01*
X62317405Y-62031524D01*
X62222167Y-62126762D01*
X62079309Y-62174381D01*
X61841214Y-62174381D01*
X63365024Y-62174381D02*
X62793595Y-62174381D01*
X63079309Y-62174381D02*
X63079309Y-61174381D01*
X62984071Y-61317238D01*
X62888833Y-61412476D01*
X62793595Y-61460095D01*
X63984071Y-61174381D02*
X64079310Y-61174381D01*
X64174548Y-61222000D01*
X64222167Y-61269619D01*
X64269786Y-61364857D01*
X64317405Y-61555333D01*
X64317405Y-61793429D01*
X64269786Y-61983905D01*
X64222167Y-62079143D01*
X64174548Y-62126762D01*
X64079310Y-62174381D01*
X63984071Y-62174381D01*
X63888833Y-62126762D01*
X63841214Y-62079143D01*
X63793595Y-61983905D01*
X63745976Y-61793429D01*
X63745976Y-61555333D01*
X63793595Y-61364857D01*
X63841214Y-61269619D01*
X63888833Y-61222000D01*
X63984071Y-61174381D01*
X62793714Y-131389381D02*
X62793714Y-130389381D01*
X63031809Y-130389381D01*
X63174667Y-130437000D01*
X63269905Y-130532238D01*
X63317524Y-130627476D01*
X63365143Y-130817952D01*
X63365143Y-130960810D01*
X63317524Y-131151286D01*
X63269905Y-131246524D01*
X63174667Y-131341762D01*
X63031809Y-131389381D01*
X62793714Y-131389381D01*
X64317524Y-131389381D02*
X63746095Y-131389381D01*
X64031809Y-131389381D02*
X64031809Y-130389381D01*
X63936571Y-130532238D01*
X63841333Y-130627476D01*
X63746095Y-130675095D01*
X65269905Y-131389381D02*
X64698476Y-131389381D01*
X64984190Y-131389381D02*
X64984190Y-130389381D01*
X64888952Y-130532238D01*
X64793714Y-130627476D01*
X64698476Y-130675095D01*
X123753714Y-130754381D02*
X123753714Y-129754381D01*
X123991809Y-129754381D01*
X124134667Y-129802000D01*
X124229905Y-129897238D01*
X124277524Y-129992476D01*
X124325143Y-130182952D01*
X124325143Y-130325810D01*
X124277524Y-130516286D01*
X124229905Y-130611524D01*
X124134667Y-130706762D01*
X123991809Y-130754381D01*
X123753714Y-130754381D01*
X125277524Y-130754381D02*
X124706095Y-130754381D01*
X124991809Y-130754381D02*
X124991809Y-129754381D01*
X124896571Y-129897238D01*
X124801333Y-129992476D01*
X124706095Y-130040095D01*
X125658476Y-129849619D02*
X125706095Y-129802000D01*
X125801333Y-129754381D01*
X126039429Y-129754381D01*
X126134667Y-129802000D01*
X126182286Y-129849619D01*
X126229905Y-129944857D01*
X126229905Y-130040095D01*
X126182286Y-130182952D01*
X125610857Y-130754381D01*
X126229905Y-130754381D01*
M02*
