G04 #@! TF.FileFunction,Legend,Top*
%FSLAX46Y46*%
G04 Gerber Fmt 4.6, Leading zero omitted, Abs format (unit mm)*
G04 Created by KiCad (PCBNEW 4.0.7) date 03/03/18 10:21:41*
%MOMM*%
%LPD*%
G01*
G04 APERTURE LIST*
%ADD10C,0.100000*%
%ADD11C,0.300000*%
%ADD12C,0.120000*%
%ADD13C,0.150000*%
G04 APERTURE END LIST*
D10*
D11*
X128968572Y-84689143D02*
X130111429Y-84689143D01*
X54800572Y-83927143D02*
X55943429Y-83927143D01*
X55372000Y-84498571D02*
X55372000Y-83355714D01*
X60134572Y-83673143D02*
X61277429Y-83673143D01*
X53276572Y-107803143D02*
X54419429Y-107803143D01*
X53848000Y-108374571D02*
X53848000Y-107231714D01*
X58864572Y-108057143D02*
X60007429Y-108057143D01*
X133286572Y-107295143D02*
X134429429Y-107295143D01*
X133858000Y-107866571D02*
X133858000Y-106723714D01*
X127444572Y-107549143D02*
X128587429Y-107549143D01*
X134302572Y-84435143D02*
X135445429Y-84435143D01*
X134874000Y-85006571D02*
X134874000Y-83863714D01*
X98472572Y-75354571D02*
X97615429Y-75354571D01*
X98044001Y-75354571D02*
X98044001Y-73854571D01*
X97901144Y-74068857D01*
X97758286Y-74211714D01*
X97615429Y-74283143D01*
X70786572Y-76878571D02*
X69929429Y-76878571D01*
X70358001Y-76878571D02*
X70358001Y-75378571D01*
X70215144Y-75592857D01*
X70072286Y-75735714D01*
X69929429Y-75807143D01*
X118284572Y-116502571D02*
X117427429Y-116502571D01*
X117856001Y-116502571D02*
X117856001Y-115002571D01*
X117713144Y-115216857D01*
X117570286Y-115359714D01*
X117427429Y-115431143D01*
X92122572Y-117010571D02*
X91265429Y-117010571D01*
X91694001Y-117010571D02*
X91694001Y-115510571D01*
X91551144Y-115724857D01*
X91408286Y-115867714D01*
X91265429Y-115939143D01*
X84812286Y-122090571D02*
X84812286Y-120590571D01*
X84812286Y-121304857D02*
X85669429Y-121304857D01*
X85669429Y-122090571D02*
X85669429Y-120590571D01*
X86383715Y-122090571D02*
X86383715Y-120590571D01*
X113724572Y-121582571D02*
X113010286Y-121582571D01*
X113010286Y-120082571D01*
X114510286Y-120082571D02*
X114796000Y-120082571D01*
X114938858Y-120154000D01*
X115081715Y-120296857D01*
X115153143Y-120582571D01*
X115153143Y-121082571D01*
X115081715Y-121368286D01*
X114938858Y-121511143D01*
X114796000Y-121582571D01*
X114510286Y-121582571D01*
X114367429Y-121511143D01*
X114224572Y-121368286D01*
X114153143Y-121082571D01*
X114153143Y-120582571D01*
X114224572Y-120296857D01*
X114367429Y-120154000D01*
X114510286Y-120082571D01*
X101576286Y-71544571D02*
X101576286Y-70044571D01*
X101576286Y-70758857D02*
X102433429Y-70758857D01*
X102433429Y-71544571D02*
X102433429Y-70044571D01*
X103147715Y-71544571D02*
X103147715Y-70044571D01*
X73592572Y-71544571D02*
X72878286Y-71544571D01*
X72878286Y-70044571D01*
X74378286Y-70044571D02*
X74664000Y-70044571D01*
X74806858Y-70116000D01*
X74949715Y-70258857D01*
X75021143Y-70544571D01*
X75021143Y-71044571D01*
X74949715Y-71330286D01*
X74806858Y-71473143D01*
X74664000Y-71544571D01*
X74378286Y-71544571D01*
X74235429Y-71473143D01*
X74092572Y-71330286D01*
X74021143Y-71044571D01*
X74021143Y-70544571D01*
X74092572Y-70258857D01*
X74235429Y-70116000D01*
X74378286Y-70044571D01*
X89079430Y-123336857D02*
X88579430Y-123336857D01*
X88579430Y-124122571D02*
X88579430Y-122622571D01*
X89293716Y-122622571D01*
X90508001Y-123122571D02*
X90508001Y-124122571D01*
X89865144Y-123122571D02*
X89865144Y-123908286D01*
X89936572Y-124051143D01*
X90079430Y-124122571D01*
X90293715Y-124122571D01*
X90436572Y-124051143D01*
X90508001Y-123979714D01*
X91436573Y-124122571D02*
X91293715Y-124051143D01*
X91222287Y-123908286D01*
X91222287Y-122622571D01*
X92222287Y-124122571D02*
X92079429Y-124051143D01*
X92008001Y-123908286D01*
X92008001Y-122622571D01*
X94436572Y-123336857D02*
X94650858Y-123408286D01*
X94722286Y-123479714D01*
X94793715Y-123622571D01*
X94793715Y-123836857D01*
X94722286Y-123979714D01*
X94650858Y-124051143D01*
X94508000Y-124122571D01*
X93936572Y-124122571D01*
X93936572Y-122622571D01*
X94436572Y-122622571D01*
X94579429Y-122694000D01*
X94650858Y-122765429D01*
X94722286Y-122908286D01*
X94722286Y-123051143D01*
X94650858Y-123194000D01*
X94579429Y-123265429D01*
X94436572Y-123336857D01*
X93936572Y-123336857D01*
X95436572Y-124122571D02*
X95436572Y-123122571D01*
X95436572Y-123408286D02*
X95508000Y-123265429D01*
X95579429Y-123194000D01*
X95722286Y-123122571D01*
X95865143Y-123122571D01*
X96365143Y-124122571D02*
X96365143Y-123122571D01*
X96365143Y-122622571D02*
X96293714Y-122694000D01*
X96365143Y-122765429D01*
X96436571Y-122694000D01*
X96365143Y-122622571D01*
X96365143Y-122765429D01*
X97722286Y-124122571D02*
X97722286Y-122622571D01*
X97722286Y-124051143D02*
X97579429Y-124122571D01*
X97293715Y-124122571D01*
X97150857Y-124051143D01*
X97079429Y-123979714D01*
X97008000Y-123836857D01*
X97008000Y-123408286D01*
X97079429Y-123265429D01*
X97150857Y-123194000D01*
X97293715Y-123122571D01*
X97579429Y-123122571D01*
X97722286Y-123194000D01*
X99079429Y-123122571D02*
X99079429Y-124336857D01*
X99008000Y-124479714D01*
X98936572Y-124551143D01*
X98793715Y-124622571D01*
X98579429Y-124622571D01*
X98436572Y-124551143D01*
X99079429Y-124051143D02*
X98936572Y-124122571D01*
X98650858Y-124122571D01*
X98508000Y-124051143D01*
X98436572Y-123979714D01*
X98365143Y-123836857D01*
X98365143Y-123408286D01*
X98436572Y-123265429D01*
X98508000Y-123194000D01*
X98650858Y-123122571D01*
X98936572Y-123122571D01*
X99079429Y-123194000D01*
X100365143Y-124051143D02*
X100222286Y-124122571D01*
X99936572Y-124122571D01*
X99793715Y-124051143D01*
X99722286Y-123908286D01*
X99722286Y-123336857D01*
X99793715Y-123194000D01*
X99936572Y-123122571D01*
X100222286Y-123122571D01*
X100365143Y-123194000D01*
X100436572Y-123336857D01*
X100436572Y-123479714D01*
X99722286Y-123622571D01*
X102150857Y-122765429D02*
X102222286Y-122694000D01*
X102365143Y-122622571D01*
X102722286Y-122622571D01*
X102865143Y-122694000D01*
X102936572Y-122765429D01*
X103008000Y-122908286D01*
X103008000Y-123051143D01*
X102936572Y-123265429D01*
X102079429Y-124122571D01*
X103008000Y-124122571D01*
X88571430Y-66948857D02*
X88071430Y-66948857D01*
X88071430Y-67734571D02*
X88071430Y-66234571D01*
X88785716Y-66234571D01*
X90000001Y-66734571D02*
X90000001Y-67734571D01*
X89357144Y-66734571D02*
X89357144Y-67520286D01*
X89428572Y-67663143D01*
X89571430Y-67734571D01*
X89785715Y-67734571D01*
X89928572Y-67663143D01*
X90000001Y-67591714D01*
X90928573Y-67734571D02*
X90785715Y-67663143D01*
X90714287Y-67520286D01*
X90714287Y-66234571D01*
X91714287Y-67734571D02*
X91571429Y-67663143D01*
X91500001Y-67520286D01*
X91500001Y-66234571D01*
X93928572Y-66948857D02*
X94142858Y-67020286D01*
X94214286Y-67091714D01*
X94285715Y-67234571D01*
X94285715Y-67448857D01*
X94214286Y-67591714D01*
X94142858Y-67663143D01*
X94000000Y-67734571D01*
X93428572Y-67734571D01*
X93428572Y-66234571D01*
X93928572Y-66234571D01*
X94071429Y-66306000D01*
X94142858Y-66377429D01*
X94214286Y-66520286D01*
X94214286Y-66663143D01*
X94142858Y-66806000D01*
X94071429Y-66877429D01*
X93928572Y-66948857D01*
X93428572Y-66948857D01*
X94928572Y-67734571D02*
X94928572Y-66734571D01*
X94928572Y-67020286D02*
X95000000Y-66877429D01*
X95071429Y-66806000D01*
X95214286Y-66734571D01*
X95357143Y-66734571D01*
X95857143Y-67734571D02*
X95857143Y-66734571D01*
X95857143Y-66234571D02*
X95785714Y-66306000D01*
X95857143Y-66377429D01*
X95928571Y-66306000D01*
X95857143Y-66234571D01*
X95857143Y-66377429D01*
X97214286Y-67734571D02*
X97214286Y-66234571D01*
X97214286Y-67663143D02*
X97071429Y-67734571D01*
X96785715Y-67734571D01*
X96642857Y-67663143D01*
X96571429Y-67591714D01*
X96500000Y-67448857D01*
X96500000Y-67020286D01*
X96571429Y-66877429D01*
X96642857Y-66806000D01*
X96785715Y-66734571D01*
X97071429Y-66734571D01*
X97214286Y-66806000D01*
X98571429Y-66734571D02*
X98571429Y-67948857D01*
X98500000Y-68091714D01*
X98428572Y-68163143D01*
X98285715Y-68234571D01*
X98071429Y-68234571D01*
X97928572Y-68163143D01*
X98571429Y-67663143D02*
X98428572Y-67734571D01*
X98142858Y-67734571D01*
X98000000Y-67663143D01*
X97928572Y-67591714D01*
X97857143Y-67448857D01*
X97857143Y-67020286D01*
X97928572Y-66877429D01*
X98000000Y-66806000D01*
X98142858Y-66734571D01*
X98428572Y-66734571D01*
X98571429Y-66806000D01*
X99857143Y-67663143D02*
X99714286Y-67734571D01*
X99428572Y-67734571D01*
X99285715Y-67663143D01*
X99214286Y-67520286D01*
X99214286Y-66948857D01*
X99285715Y-66806000D01*
X99428572Y-66734571D01*
X99714286Y-66734571D01*
X99857143Y-66806000D01*
X99928572Y-66948857D01*
X99928572Y-67091714D01*
X99214286Y-67234571D01*
X102500000Y-67734571D02*
X101642857Y-67734571D01*
X102071429Y-67734571D02*
X102071429Y-66234571D01*
X101928572Y-66448857D01*
X101785714Y-66591714D01*
X101642857Y-66663143D01*
X126314286Y-87033571D02*
X126314286Y-85533571D01*
X127171429Y-87033571D01*
X127171429Y-85533571D01*
X128457143Y-86962143D02*
X128314286Y-87033571D01*
X128028572Y-87033571D01*
X127885715Y-86962143D01*
X127814286Y-86819286D01*
X127814286Y-86247857D01*
X127885715Y-86105000D01*
X128028572Y-86033571D01*
X128314286Y-86033571D01*
X128457143Y-86105000D01*
X128528572Y-86247857D01*
X128528572Y-86390714D01*
X127814286Y-86533571D01*
X129814286Y-86033571D02*
X129814286Y-87247857D01*
X129742857Y-87390714D01*
X129671429Y-87462143D01*
X129528572Y-87533571D01*
X129314286Y-87533571D01*
X129171429Y-87462143D01*
X129814286Y-86962143D02*
X129671429Y-87033571D01*
X129385715Y-87033571D01*
X129242857Y-86962143D01*
X129171429Y-86890714D01*
X129100000Y-86747857D01*
X129100000Y-86319286D01*
X129171429Y-86176429D01*
X129242857Y-86105000D01*
X129385715Y-86033571D01*
X129671429Y-86033571D01*
X129814286Y-86105000D01*
X131171429Y-87033571D02*
X131171429Y-86247857D01*
X131100000Y-86105000D01*
X130957143Y-86033571D01*
X130671429Y-86033571D01*
X130528572Y-86105000D01*
X131171429Y-86962143D02*
X131028572Y-87033571D01*
X130671429Y-87033571D01*
X130528572Y-86962143D01*
X130457143Y-86819286D01*
X130457143Y-86676429D01*
X130528572Y-86533571D01*
X130671429Y-86462143D01*
X131028572Y-86462143D01*
X131171429Y-86390714D01*
X131671429Y-86033571D02*
X132242858Y-86033571D01*
X131885715Y-85533571D02*
X131885715Y-86819286D01*
X131957143Y-86962143D01*
X132100001Y-87033571D01*
X132242858Y-87033571D01*
X132742858Y-87033571D02*
X132742858Y-86033571D01*
X132742858Y-85533571D02*
X132671429Y-85605000D01*
X132742858Y-85676429D01*
X132814286Y-85605000D01*
X132742858Y-85533571D01*
X132742858Y-85676429D01*
X133314287Y-86033571D02*
X133671430Y-87033571D01*
X134028572Y-86033571D01*
X135171429Y-86962143D02*
X135028572Y-87033571D01*
X134742858Y-87033571D01*
X134600001Y-86962143D01*
X134528572Y-86819286D01*
X134528572Y-86247857D01*
X134600001Y-86105000D01*
X134742858Y-86033571D01*
X135028572Y-86033571D01*
X135171429Y-86105000D01*
X135242858Y-86247857D01*
X135242858Y-86390714D01*
X134528572Y-86533571D01*
X137528572Y-86247857D02*
X137742858Y-86319286D01*
X137814286Y-86390714D01*
X137885715Y-86533571D01*
X137885715Y-86747857D01*
X137814286Y-86890714D01*
X137742858Y-86962143D01*
X137600000Y-87033571D01*
X137028572Y-87033571D01*
X137028572Y-85533571D01*
X137528572Y-85533571D01*
X137671429Y-85605000D01*
X137742858Y-85676429D01*
X137814286Y-85819286D01*
X137814286Y-85962143D01*
X137742858Y-86105000D01*
X137671429Y-86176429D01*
X137528572Y-86247857D01*
X137028572Y-86247857D01*
X139171429Y-86033571D02*
X139171429Y-87033571D01*
X138528572Y-86033571D02*
X138528572Y-86819286D01*
X138600000Y-86962143D01*
X138742858Y-87033571D01*
X138957143Y-87033571D01*
X139100000Y-86962143D01*
X139171429Y-86890714D01*
X139814286Y-86962143D02*
X139957143Y-87033571D01*
X140242858Y-87033571D01*
X140385715Y-86962143D01*
X140457143Y-86819286D01*
X140457143Y-86747857D01*
X140385715Y-86605000D01*
X140242858Y-86533571D01*
X140028572Y-86533571D01*
X139885715Y-86462143D01*
X139814286Y-86319286D01*
X139814286Y-86247857D01*
X139885715Y-86105000D01*
X140028572Y-86033571D01*
X140242858Y-86033571D01*
X140385715Y-86105000D01*
X129350000Y-88083571D02*
X129850000Y-89583571D01*
X130350000Y-88083571D01*
X131064286Y-89583571D02*
X130921428Y-89512143D01*
X130850000Y-89440714D01*
X130778571Y-89297857D01*
X130778571Y-88869286D01*
X130850000Y-88726429D01*
X130921428Y-88655000D01*
X131064286Y-88583571D01*
X131278571Y-88583571D01*
X131421428Y-88655000D01*
X131492857Y-88726429D01*
X131564286Y-88869286D01*
X131564286Y-89297857D01*
X131492857Y-89440714D01*
X131421428Y-89512143D01*
X131278571Y-89583571D01*
X131064286Y-89583571D01*
X132421429Y-89583571D02*
X132278571Y-89512143D01*
X132207143Y-89369286D01*
X132207143Y-88083571D01*
X132778571Y-88583571D02*
X133350000Y-88583571D01*
X132992857Y-88083571D02*
X132992857Y-89369286D01*
X133064285Y-89512143D01*
X133207143Y-89583571D01*
X133350000Y-89583571D01*
X134492857Y-89583571D02*
X134492857Y-88797857D01*
X134421428Y-88655000D01*
X134278571Y-88583571D01*
X133992857Y-88583571D01*
X133850000Y-88655000D01*
X134492857Y-89512143D02*
X134350000Y-89583571D01*
X133992857Y-89583571D01*
X133850000Y-89512143D01*
X133778571Y-89369286D01*
X133778571Y-89226429D01*
X133850000Y-89083571D01*
X133992857Y-89012143D01*
X134350000Y-89012143D01*
X134492857Y-88940714D01*
X135850000Y-88583571D02*
X135850000Y-89797857D01*
X135778571Y-89940714D01*
X135707143Y-90012143D01*
X135564286Y-90083571D01*
X135350000Y-90083571D01*
X135207143Y-90012143D01*
X135850000Y-89512143D02*
X135707143Y-89583571D01*
X135421429Y-89583571D01*
X135278571Y-89512143D01*
X135207143Y-89440714D01*
X135135714Y-89297857D01*
X135135714Y-88869286D01*
X135207143Y-88726429D01*
X135278571Y-88655000D01*
X135421429Y-88583571D01*
X135707143Y-88583571D01*
X135850000Y-88655000D01*
X137135714Y-89512143D02*
X136992857Y-89583571D01*
X136707143Y-89583571D01*
X136564286Y-89512143D01*
X136492857Y-89369286D01*
X136492857Y-88797857D01*
X136564286Y-88655000D01*
X136707143Y-88583571D01*
X136992857Y-88583571D01*
X137135714Y-88655000D01*
X137207143Y-88797857D01*
X137207143Y-88940714D01*
X136492857Y-89083571D01*
X48475143Y-86525571D02*
X48475143Y-85025571D01*
X49046571Y-85025571D01*
X49189429Y-85097000D01*
X49260857Y-85168429D01*
X49332286Y-85311286D01*
X49332286Y-85525571D01*
X49260857Y-85668429D01*
X49189429Y-85739857D01*
X49046571Y-85811286D01*
X48475143Y-85811286D01*
X50189429Y-86525571D02*
X50046571Y-86454143D01*
X49975143Y-86382714D01*
X49903714Y-86239857D01*
X49903714Y-85811286D01*
X49975143Y-85668429D01*
X50046571Y-85597000D01*
X50189429Y-85525571D01*
X50403714Y-85525571D01*
X50546571Y-85597000D01*
X50618000Y-85668429D01*
X50689429Y-85811286D01*
X50689429Y-86239857D01*
X50618000Y-86382714D01*
X50546571Y-86454143D01*
X50403714Y-86525571D01*
X50189429Y-86525571D01*
X51260857Y-86454143D02*
X51403714Y-86525571D01*
X51689429Y-86525571D01*
X51832286Y-86454143D01*
X51903714Y-86311286D01*
X51903714Y-86239857D01*
X51832286Y-86097000D01*
X51689429Y-86025571D01*
X51475143Y-86025571D01*
X51332286Y-85954143D01*
X51260857Y-85811286D01*
X51260857Y-85739857D01*
X51332286Y-85597000D01*
X51475143Y-85525571D01*
X51689429Y-85525571D01*
X51832286Y-85597000D01*
X52546572Y-86525571D02*
X52546572Y-85525571D01*
X52546572Y-85025571D02*
X52475143Y-85097000D01*
X52546572Y-85168429D01*
X52618000Y-85097000D01*
X52546572Y-85025571D01*
X52546572Y-85168429D01*
X53046572Y-85525571D02*
X53618001Y-85525571D01*
X53260858Y-85025571D02*
X53260858Y-86311286D01*
X53332286Y-86454143D01*
X53475144Y-86525571D01*
X53618001Y-86525571D01*
X54118001Y-86525571D02*
X54118001Y-85525571D01*
X54118001Y-85025571D02*
X54046572Y-85097000D01*
X54118001Y-85168429D01*
X54189429Y-85097000D01*
X54118001Y-85025571D01*
X54118001Y-85168429D01*
X54689430Y-85525571D02*
X55046573Y-86525571D01*
X55403715Y-85525571D01*
X56546572Y-86454143D02*
X56403715Y-86525571D01*
X56118001Y-86525571D01*
X55975144Y-86454143D01*
X55903715Y-86311286D01*
X55903715Y-85739857D01*
X55975144Y-85597000D01*
X56118001Y-85525571D01*
X56403715Y-85525571D01*
X56546572Y-85597000D01*
X56618001Y-85739857D01*
X56618001Y-85882714D01*
X55903715Y-86025571D01*
X58903715Y-85739857D02*
X59118001Y-85811286D01*
X59189429Y-85882714D01*
X59260858Y-86025571D01*
X59260858Y-86239857D01*
X59189429Y-86382714D01*
X59118001Y-86454143D01*
X58975143Y-86525571D01*
X58403715Y-86525571D01*
X58403715Y-85025571D01*
X58903715Y-85025571D01*
X59046572Y-85097000D01*
X59118001Y-85168429D01*
X59189429Y-85311286D01*
X59189429Y-85454143D01*
X59118001Y-85597000D01*
X59046572Y-85668429D01*
X58903715Y-85739857D01*
X58403715Y-85739857D01*
X60546572Y-85525571D02*
X60546572Y-86525571D01*
X59903715Y-85525571D02*
X59903715Y-86311286D01*
X59975143Y-86454143D01*
X60118001Y-86525571D01*
X60332286Y-86525571D01*
X60475143Y-86454143D01*
X60546572Y-86382714D01*
X61189429Y-86454143D02*
X61332286Y-86525571D01*
X61618001Y-86525571D01*
X61760858Y-86454143D01*
X61832286Y-86311286D01*
X61832286Y-86239857D01*
X61760858Y-86097000D01*
X61618001Y-86025571D01*
X61403715Y-86025571D01*
X61260858Y-85954143D01*
X61189429Y-85811286D01*
X61189429Y-85739857D01*
X61260858Y-85597000D01*
X61403715Y-85525571D01*
X61618001Y-85525571D01*
X61760858Y-85597000D01*
X51118000Y-87575571D02*
X51618000Y-89075571D01*
X52118000Y-87575571D01*
X52832286Y-89075571D02*
X52689428Y-89004143D01*
X52618000Y-88932714D01*
X52546571Y-88789857D01*
X52546571Y-88361286D01*
X52618000Y-88218429D01*
X52689428Y-88147000D01*
X52832286Y-88075571D01*
X53046571Y-88075571D01*
X53189428Y-88147000D01*
X53260857Y-88218429D01*
X53332286Y-88361286D01*
X53332286Y-88789857D01*
X53260857Y-88932714D01*
X53189428Y-89004143D01*
X53046571Y-89075571D01*
X52832286Y-89075571D01*
X54189429Y-89075571D02*
X54046571Y-89004143D01*
X53975143Y-88861286D01*
X53975143Y-87575571D01*
X54546571Y-88075571D02*
X55118000Y-88075571D01*
X54760857Y-87575571D02*
X54760857Y-88861286D01*
X54832285Y-89004143D01*
X54975143Y-89075571D01*
X55118000Y-89075571D01*
X56260857Y-89075571D02*
X56260857Y-88289857D01*
X56189428Y-88147000D01*
X56046571Y-88075571D01*
X55760857Y-88075571D01*
X55618000Y-88147000D01*
X56260857Y-89004143D02*
X56118000Y-89075571D01*
X55760857Y-89075571D01*
X55618000Y-89004143D01*
X55546571Y-88861286D01*
X55546571Y-88718429D01*
X55618000Y-88575571D01*
X55760857Y-88504143D01*
X56118000Y-88504143D01*
X56260857Y-88432714D01*
X57618000Y-88075571D02*
X57618000Y-89289857D01*
X57546571Y-89432714D01*
X57475143Y-89504143D01*
X57332286Y-89575571D01*
X57118000Y-89575571D01*
X56975143Y-89504143D01*
X57618000Y-89004143D02*
X57475143Y-89075571D01*
X57189429Y-89075571D01*
X57046571Y-89004143D01*
X56975143Y-88932714D01*
X56903714Y-88789857D01*
X56903714Y-88361286D01*
X56975143Y-88218429D01*
X57046571Y-88147000D01*
X57189429Y-88075571D01*
X57475143Y-88075571D01*
X57618000Y-88147000D01*
X58903714Y-89004143D02*
X58760857Y-89075571D01*
X58475143Y-89075571D01*
X58332286Y-89004143D01*
X58260857Y-88861286D01*
X58260857Y-88289857D01*
X58332286Y-88147000D01*
X58475143Y-88075571D01*
X58760857Y-88075571D01*
X58903714Y-88147000D01*
X58975143Y-88289857D01*
X58975143Y-88432714D01*
X58260857Y-88575571D01*
D12*
X116412000Y-118783000D02*
X100272000Y-118783000D01*
X116412000Y-113512000D02*
X100272000Y-113512000D01*
X116412000Y-118783000D02*
X116412000Y-113512000D01*
X100272000Y-118783000D02*
X100272000Y-113512000D01*
X110146000Y-118783000D02*
X110146000Y-113512000D01*
X106537000Y-118783000D02*
X106537000Y-113512000D01*
X111298000Y-94282000D02*
X111298000Y-82662000D01*
X118318000Y-94282000D02*
X118318000Y-82662000D01*
X111298000Y-94282000D02*
X114058000Y-94282000D01*
X115558000Y-94282000D02*
X118318000Y-94282000D01*
X111298000Y-82662000D02*
X114058000Y-82662000D01*
X115558000Y-82662000D02*
X118318000Y-82662000D01*
X106798000Y-94878000D02*
X82678000Y-94878000D01*
X106798000Y-82558000D02*
X82678000Y-82558000D01*
X106798000Y-94878000D02*
X106798000Y-90113000D01*
X106798000Y-87323000D02*
X106798000Y-82558000D01*
X82678000Y-94878000D02*
X82678000Y-90113000D01*
X82678000Y-87323000D02*
X82678000Y-82558000D01*
X70912000Y-94536000D02*
X70912000Y-82916000D01*
X77932000Y-94536000D02*
X77932000Y-82916000D01*
X70912000Y-94536000D02*
X73672000Y-94536000D01*
X75172000Y-94536000D02*
X77932000Y-94536000D01*
X70912000Y-82916000D02*
X73672000Y-82916000D01*
X75172000Y-82916000D02*
X77932000Y-82916000D01*
X82502000Y-97472000D02*
X106622000Y-97472000D01*
X82502000Y-109792000D02*
X106622000Y-109792000D01*
X82502000Y-97472000D02*
X82502000Y-102237000D01*
X82502000Y-105027000D02*
X82502000Y-109792000D01*
X106622000Y-97472000D02*
X106622000Y-102237000D01*
X106622000Y-105027000D02*
X106622000Y-109792000D01*
X77424000Y-97742000D02*
X77424000Y-109362000D01*
X70404000Y-97742000D02*
X70404000Y-109362000D01*
X77424000Y-97742000D02*
X74664000Y-97742000D01*
X73164000Y-97742000D02*
X70404000Y-97742000D01*
X77424000Y-109362000D02*
X74664000Y-109362000D01*
X73164000Y-109362000D02*
X70404000Y-109362000D01*
X118572000Y-97996000D02*
X118572000Y-109616000D01*
X111552000Y-97996000D02*
X111552000Y-109616000D01*
X118572000Y-97996000D02*
X115812000Y-97996000D01*
X114312000Y-97996000D02*
X111552000Y-97996000D01*
X118572000Y-109616000D02*
X115812000Y-109616000D01*
X114312000Y-109616000D02*
X111552000Y-109616000D01*
X127000000Y-76200000D02*
X137160000Y-76200000D01*
X127000000Y-74930000D02*
X127000000Y-82550000D01*
X127000000Y-82550000D02*
X137160000Y-82550000D01*
X137160000Y-82550000D02*
X137160000Y-74930000D01*
X137160000Y-74930000D02*
X127000000Y-74930000D01*
X63246000Y-81280000D02*
X53086000Y-81280000D01*
X63246000Y-82550000D02*
X63246000Y-74930000D01*
X63246000Y-74930000D02*
X53086000Y-74930000D01*
X53086000Y-74930000D02*
X53086000Y-82550000D01*
X53086000Y-82550000D02*
X63246000Y-82550000D01*
X97028000Y-54102000D02*
G75*
G03X97028000Y-54102000I-2286000J0D01*
G01*
X61976000Y-115570000D02*
X51816000Y-115570000D01*
X61976000Y-116840000D02*
X61976000Y-109220000D01*
X61976000Y-109220000D02*
X51816000Y-109220000D01*
X51816000Y-109220000D02*
X51816000Y-116840000D01*
X51816000Y-116840000D02*
X61976000Y-116840000D01*
X125730000Y-109982000D02*
X135890000Y-109982000D01*
X125730000Y-108712000D02*
X125730000Y-116332000D01*
X125730000Y-116332000D02*
X135890000Y-116332000D01*
X135890000Y-116332000D02*
X135890000Y-108712000D01*
X135890000Y-108712000D02*
X125730000Y-108712000D01*
X97282000Y-135890000D02*
G75*
G03X97282000Y-135890000I-2286000J0D01*
G01*
X135636000Y-96774000D02*
G75*
G03X135636000Y-96774000I-2286000J0D01*
G01*
X57150000Y-96266000D02*
G75*
G03X57150000Y-96266000I-2286000J0D01*
G01*
X99488000Y-73495000D02*
X115628000Y-73495000D01*
X99488000Y-78766000D02*
X115628000Y-78766000D01*
X99488000Y-73495000D02*
X99488000Y-78766000D01*
X115628000Y-73495000D02*
X115628000Y-78766000D01*
X105754000Y-73495000D02*
X105754000Y-78766000D01*
X109363000Y-73495000D02*
X109363000Y-78766000D01*
X71040000Y-73749000D02*
X87180000Y-73749000D01*
X71040000Y-79020000D02*
X87180000Y-79020000D01*
X71040000Y-73749000D02*
X71040000Y-79020000D01*
X87180000Y-73749000D02*
X87180000Y-79020000D01*
X77306000Y-73749000D02*
X77306000Y-79020000D01*
X80915000Y-73749000D02*
X80915000Y-79020000D01*
X90250000Y-118529000D02*
X74110000Y-118529000D01*
X90250000Y-113258000D02*
X74110000Y-113258000D01*
X90250000Y-118529000D02*
X90250000Y-113258000D01*
X74110000Y-118529000D02*
X74110000Y-113258000D01*
X83984000Y-118529000D02*
X83984000Y-113258000D01*
X80375000Y-118529000D02*
X80375000Y-113258000D01*
X119610000Y-91862000D02*
X124230000Y-91862000D01*
X124230000Y-91862000D02*
X124230000Y-79842000D01*
X124230000Y-79842000D02*
X119610000Y-79842000D01*
X119610000Y-79842000D02*
X119610000Y-91862000D01*
X121920000Y-92092000D02*
X121920000Y-91862000D01*
X121920000Y-79612000D02*
X121920000Y-79842000D01*
X64746000Y-92116000D02*
X69366000Y-92116000D01*
X69366000Y-92116000D02*
X69366000Y-80096000D01*
X69366000Y-80096000D02*
X64746000Y-80096000D01*
X64746000Y-80096000D02*
X64746000Y-92116000D01*
X67056000Y-92346000D02*
X67056000Y-92116000D01*
X67056000Y-79866000D02*
X67056000Y-80096000D01*
X69366000Y-100416000D02*
X64746000Y-100416000D01*
X64746000Y-100416000D02*
X64746000Y-112436000D01*
X64746000Y-112436000D02*
X69366000Y-112436000D01*
X69366000Y-112436000D02*
X69366000Y-100416000D01*
X67056000Y-100186000D02*
X67056000Y-100416000D01*
X67056000Y-112666000D02*
X67056000Y-112436000D01*
X124230000Y-100670000D02*
X119610000Y-100670000D01*
X119610000Y-100670000D02*
X119610000Y-112690000D01*
X119610000Y-112690000D02*
X124230000Y-112690000D01*
X124230000Y-112690000D02*
X124230000Y-100670000D01*
X121920000Y-100440000D02*
X121920000Y-100670000D01*
X121920000Y-112920000D02*
X121920000Y-112690000D01*
X52286000Y-50000000D02*
G75*
G03X52286000Y-50000000I-2286000J0D01*
G01*
X142286000Y-50000000D02*
G75*
G03X142286000Y-50000000I-2286000J0D01*
G01*
X52286000Y-140000000D02*
G75*
G03X52286000Y-140000000I-2286000J0D01*
G01*
X142286000Y-140000000D02*
G75*
G03X142286000Y-140000000I-2286000J0D01*
G01*
X53480000Y-64650000D02*
X50660000Y-64650000D01*
X50660000Y-64650000D02*
X50660000Y-69970000D01*
X50660000Y-69970000D02*
X53480000Y-69970000D01*
X53480000Y-69970000D02*
X53480000Y-64650000D01*
X52070000Y-63510000D02*
X52070000Y-64650000D01*
X52070000Y-71110000D02*
X52070000Y-69970000D01*
X53480000Y-65490000D02*
X50660000Y-65490000D01*
X134480000Y-126612000D02*
X137300000Y-126612000D01*
X137300000Y-126612000D02*
X137300000Y-121292000D01*
X137300000Y-121292000D02*
X134480000Y-121292000D01*
X134480000Y-121292000D02*
X134480000Y-126612000D01*
X135890000Y-127752000D02*
X135890000Y-126612000D01*
X135890000Y-120152000D02*
X135890000Y-121292000D01*
X134480000Y-125772000D02*
X137300000Y-125772000D01*
X50914000Y-127374000D02*
X53734000Y-127374000D01*
X53734000Y-127374000D02*
X53734000Y-122054000D01*
X53734000Y-122054000D02*
X50914000Y-122054000D01*
X50914000Y-122054000D02*
X50914000Y-127374000D01*
X52324000Y-128514000D02*
X52324000Y-127374000D01*
X52324000Y-120914000D02*
X52324000Y-122054000D01*
X50914000Y-126534000D02*
X53734000Y-126534000D01*
X138062000Y-64142000D02*
X135242000Y-64142000D01*
X135242000Y-64142000D02*
X135242000Y-69462000D01*
X135242000Y-69462000D02*
X138062000Y-69462000D01*
X138062000Y-69462000D02*
X138062000Y-64142000D01*
X136652000Y-63002000D02*
X136652000Y-64142000D01*
X136652000Y-70602000D02*
X136652000Y-69462000D01*
X138062000Y-64982000D02*
X135242000Y-64982000D01*
X126358000Y-69736000D02*
X126358000Y-66916000D01*
X126358000Y-66916000D02*
X121038000Y-66916000D01*
X121038000Y-66916000D02*
X121038000Y-69736000D01*
X121038000Y-69736000D02*
X126358000Y-69736000D01*
X127498000Y-68326000D02*
X126358000Y-68326000D01*
X119898000Y-68326000D02*
X121038000Y-68326000D01*
X125518000Y-69736000D02*
X125518000Y-66916000D01*
X60840000Y-66154000D02*
X60840000Y-68974000D01*
X60840000Y-68974000D02*
X66160000Y-68974000D01*
X66160000Y-68974000D02*
X66160000Y-66154000D01*
X66160000Y-66154000D02*
X60840000Y-66154000D01*
X59700000Y-67564000D02*
X60840000Y-67564000D01*
X67300000Y-67564000D02*
X66160000Y-67564000D01*
X61680000Y-66154000D02*
X61680000Y-68974000D01*
X126612000Y-125616000D02*
X126612000Y-122796000D01*
X126612000Y-122796000D02*
X121292000Y-122796000D01*
X121292000Y-122796000D02*
X121292000Y-125616000D01*
X121292000Y-125616000D02*
X126612000Y-125616000D01*
X127752000Y-124206000D02*
X126612000Y-124206000D01*
X120152000Y-124206000D02*
X121292000Y-124206000D01*
X125772000Y-125616000D02*
X125772000Y-122796000D01*
X120212000Y-71010000D02*
X120212000Y-70530000D01*
X120212000Y-70530000D02*
X130232000Y-70530000D01*
X130232000Y-70530000D02*
X130232000Y-71010000D01*
X120212000Y-73770000D02*
X120212000Y-74250000D01*
X120212000Y-74250000D02*
X130232000Y-74250000D01*
X130232000Y-74250000D02*
X130232000Y-73770000D01*
X67494000Y-73516000D02*
X67494000Y-73996000D01*
X67494000Y-73996000D02*
X57474000Y-73996000D01*
X57474000Y-73996000D02*
X57474000Y-73516000D01*
X67494000Y-70756000D02*
X67494000Y-70276000D01*
X67494000Y-70276000D02*
X57474000Y-70276000D01*
X57474000Y-70276000D02*
X57474000Y-70756000D01*
X120212000Y-118254000D02*
X120212000Y-117774000D01*
X120212000Y-117774000D02*
X130232000Y-117774000D01*
X130232000Y-117774000D02*
X130232000Y-118254000D01*
X120212000Y-121014000D02*
X120212000Y-121494000D01*
X120212000Y-121494000D02*
X130232000Y-121494000D01*
X130232000Y-121494000D02*
X130232000Y-121014000D01*
X61602000Y-122542000D02*
X61602000Y-125362000D01*
X61602000Y-125362000D02*
X66922000Y-125362000D01*
X66922000Y-125362000D02*
X66922000Y-122542000D01*
X66922000Y-122542000D02*
X61602000Y-122542000D01*
X60462000Y-123952000D02*
X61602000Y-123952000D01*
X68062000Y-123952000D02*
X66922000Y-123952000D01*
X62442000Y-122542000D02*
X62442000Y-125362000D01*
X68002000Y-121522000D02*
X68002000Y-122002000D01*
X68002000Y-122002000D02*
X57982000Y-122002000D01*
X57982000Y-122002000D02*
X57982000Y-121522000D01*
X68002000Y-118762000D02*
X68002000Y-118282000D01*
X68002000Y-118282000D02*
X57982000Y-118282000D01*
X57982000Y-118282000D02*
X57982000Y-118762000D01*
X130047000Y-64641000D02*
X130047000Y-59311000D01*
X130047000Y-59311000D02*
X120397000Y-59311000D01*
X120397000Y-59311000D02*
X120397000Y-64641000D01*
X120397000Y-64641000D02*
X130047000Y-64641000D01*
X130092000Y-61976000D02*
X130047000Y-61976000D01*
X120352000Y-61976000D02*
X120397000Y-61976000D01*
X128557500Y-64641000D02*
X128557500Y-59311000D01*
X67817000Y-64387000D02*
X67817000Y-59057000D01*
X67817000Y-59057000D02*
X58167000Y-59057000D01*
X58167000Y-59057000D02*
X58167000Y-64387000D01*
X58167000Y-64387000D02*
X67817000Y-64387000D01*
X67862000Y-61722000D02*
X67817000Y-61722000D01*
X58122000Y-61722000D02*
X58167000Y-61722000D01*
X66327500Y-64387000D02*
X66327500Y-59057000D01*
X59183000Y-128399000D02*
X59183000Y-133729000D01*
X59183000Y-133729000D02*
X68833000Y-133729000D01*
X68833000Y-133729000D02*
X68833000Y-128399000D01*
X68833000Y-128399000D02*
X59183000Y-128399000D01*
X59138000Y-131064000D02*
X59183000Y-131064000D01*
X68878000Y-131064000D02*
X68833000Y-131064000D01*
X60672500Y-128399000D02*
X60672500Y-133729000D01*
X120143000Y-127637000D02*
X120143000Y-132967000D01*
X120143000Y-132967000D02*
X129793000Y-132967000D01*
X129793000Y-132967000D02*
X129793000Y-127637000D01*
X129793000Y-127637000D02*
X120143000Y-127637000D01*
X120098000Y-130302000D02*
X120143000Y-130302000D01*
X129838000Y-130302000D02*
X129793000Y-130302000D01*
X121632500Y-127637000D02*
X121632500Y-132967000D01*
D13*
X108246762Y-120329619D02*
X108151524Y-120282000D01*
X108056286Y-120186762D01*
X107913429Y-120043905D01*
X107818190Y-119996286D01*
X107722952Y-119996286D01*
X107770571Y-120234381D02*
X107675333Y-120186762D01*
X107580095Y-120091524D01*
X107532476Y-119901048D01*
X107532476Y-119567714D01*
X107580095Y-119377238D01*
X107675333Y-119282000D01*
X107770571Y-119234381D01*
X107961048Y-119234381D01*
X108056286Y-119282000D01*
X108151524Y-119377238D01*
X108199143Y-119567714D01*
X108199143Y-119901048D01*
X108151524Y-120091524D01*
X108056286Y-120186762D01*
X107961048Y-120234381D01*
X107770571Y-120234381D01*
X109056286Y-119567714D02*
X109056286Y-120234381D01*
X108818190Y-119186762D02*
X108580095Y-119901048D01*
X109199143Y-119901048D01*
X110405143Y-88638666D02*
X110452762Y-88686285D01*
X110500381Y-88829142D01*
X110500381Y-88924380D01*
X110452762Y-89067238D01*
X110357524Y-89162476D01*
X110262286Y-89210095D01*
X110071810Y-89257714D01*
X109928952Y-89257714D01*
X109738476Y-89210095D01*
X109643238Y-89162476D01*
X109548000Y-89067238D01*
X109500381Y-88924380D01*
X109500381Y-88829142D01*
X109548000Y-88686285D01*
X109595619Y-88638666D01*
X110500381Y-87686285D02*
X110500381Y-88257714D01*
X110500381Y-87972000D02*
X109500381Y-87972000D01*
X109643238Y-88067238D01*
X109738476Y-88162476D01*
X109786095Y-88257714D01*
X90765334Y-81637143D02*
X90717715Y-81684762D01*
X90574858Y-81732381D01*
X90479620Y-81732381D01*
X90336762Y-81684762D01*
X90241524Y-81589524D01*
X90193905Y-81494286D01*
X90146286Y-81303810D01*
X90146286Y-81160952D01*
X90193905Y-80970476D01*
X90241524Y-80875238D01*
X90336762Y-80780000D01*
X90479620Y-80732381D01*
X90574858Y-80732381D01*
X90717715Y-80780000D01*
X90765334Y-80827619D01*
X91146286Y-80827619D02*
X91193905Y-80780000D01*
X91289143Y-80732381D01*
X91527239Y-80732381D01*
X91622477Y-80780000D01*
X91670096Y-80827619D01*
X91717715Y-80922857D01*
X91717715Y-81018095D01*
X91670096Y-81160952D01*
X91098667Y-81732381D01*
X91717715Y-81732381D01*
X70019143Y-88892666D02*
X70066762Y-88940285D01*
X70114381Y-89083142D01*
X70114381Y-89178380D01*
X70066762Y-89321238D01*
X69971524Y-89416476D01*
X69876286Y-89464095D01*
X69685810Y-89511714D01*
X69542952Y-89511714D01*
X69352476Y-89464095D01*
X69257238Y-89416476D01*
X69162000Y-89321238D01*
X69114381Y-89178380D01*
X69114381Y-89083142D01*
X69162000Y-88940285D01*
X69209619Y-88892666D01*
X69114381Y-88559333D02*
X69114381Y-87940285D01*
X69495333Y-88273619D01*
X69495333Y-88130761D01*
X69542952Y-88035523D01*
X69590571Y-87987904D01*
X69685810Y-87940285D01*
X69923905Y-87940285D01*
X70019143Y-87987904D01*
X70066762Y-88035523D01*
X70114381Y-88130761D01*
X70114381Y-88416476D01*
X70066762Y-88511714D01*
X70019143Y-88559333D01*
X90511334Y-96623143D02*
X90463715Y-96670762D01*
X90320858Y-96718381D01*
X90225620Y-96718381D01*
X90082762Y-96670762D01*
X89987524Y-96575524D01*
X89939905Y-96480286D01*
X89892286Y-96289810D01*
X89892286Y-96146952D01*
X89939905Y-95956476D01*
X89987524Y-95861238D01*
X90082762Y-95766000D01*
X90225620Y-95718381D01*
X90320858Y-95718381D01*
X90463715Y-95766000D01*
X90511334Y-95813619D01*
X91368477Y-96051714D02*
X91368477Y-96718381D01*
X91130381Y-95670762D02*
X90892286Y-96385048D01*
X91511334Y-96385048D01*
X79031143Y-103718666D02*
X79078762Y-103766285D01*
X79126381Y-103909142D01*
X79126381Y-104004380D01*
X79078762Y-104147238D01*
X78983524Y-104242476D01*
X78888286Y-104290095D01*
X78697810Y-104337714D01*
X78554952Y-104337714D01*
X78364476Y-104290095D01*
X78269238Y-104242476D01*
X78174000Y-104147238D01*
X78126381Y-104004380D01*
X78126381Y-103909142D01*
X78174000Y-103766285D01*
X78221619Y-103718666D01*
X78126381Y-102813904D02*
X78126381Y-103290095D01*
X78602571Y-103337714D01*
X78554952Y-103290095D01*
X78507333Y-103194857D01*
X78507333Y-102956761D01*
X78554952Y-102861523D01*
X78602571Y-102813904D01*
X78697810Y-102766285D01*
X78935905Y-102766285D01*
X79031143Y-102813904D01*
X79078762Y-102861523D01*
X79126381Y-102956761D01*
X79126381Y-103194857D01*
X79078762Y-103290095D01*
X79031143Y-103337714D01*
X120179143Y-103972666D02*
X120226762Y-104020285D01*
X120274381Y-104163142D01*
X120274381Y-104258380D01*
X120226762Y-104401238D01*
X120131524Y-104496476D01*
X120036286Y-104544095D01*
X119845810Y-104591714D01*
X119702952Y-104591714D01*
X119512476Y-104544095D01*
X119417238Y-104496476D01*
X119322000Y-104401238D01*
X119274381Y-104258380D01*
X119274381Y-104163142D01*
X119322000Y-104020285D01*
X119369619Y-103972666D01*
X119274381Y-103115523D02*
X119274381Y-103306000D01*
X119322000Y-103401238D01*
X119369619Y-103448857D01*
X119512476Y-103544095D01*
X119702952Y-103591714D01*
X120083905Y-103591714D01*
X120179143Y-103544095D01*
X120226762Y-103496476D01*
X120274381Y-103401238D01*
X120274381Y-103210761D01*
X120226762Y-103115523D01*
X120179143Y-103067904D01*
X120083905Y-103020285D01*
X119845810Y-103020285D01*
X119750571Y-103067904D01*
X119702952Y-103115523D01*
X119655333Y-103210761D01*
X119655333Y-103401238D01*
X119702952Y-103496476D01*
X119750571Y-103544095D01*
X119845810Y-103591714D01*
X131746667Y-83272381D02*
X131746667Y-83986667D01*
X131699047Y-84129524D01*
X131603809Y-84224762D01*
X131460952Y-84272381D01*
X131365714Y-84272381D01*
X132746667Y-84272381D02*
X132175238Y-84272381D01*
X132460952Y-84272381D02*
X132460952Y-83272381D01*
X132365714Y-83415238D01*
X132270476Y-83510476D01*
X132175238Y-83558095D01*
X51482667Y-78446381D02*
X51482667Y-79160667D01*
X51435047Y-79303524D01*
X51339809Y-79398762D01*
X51196952Y-79446381D01*
X51101714Y-79446381D01*
X51911238Y-78541619D02*
X51958857Y-78494000D01*
X52054095Y-78446381D01*
X52292191Y-78446381D01*
X52387429Y-78494000D01*
X52435048Y-78541619D01*
X52482667Y-78636857D01*
X52482667Y-78732095D01*
X52435048Y-78874952D01*
X51863619Y-79446381D01*
X52482667Y-79446381D01*
X94408667Y-50506381D02*
X94408667Y-51220667D01*
X94361047Y-51363524D01*
X94265809Y-51458762D01*
X94122952Y-51506381D01*
X94027714Y-51506381D01*
X94789619Y-50506381D02*
X95408667Y-50506381D01*
X95075333Y-50887333D01*
X95218191Y-50887333D01*
X95313429Y-50934952D01*
X95361048Y-50982571D01*
X95408667Y-51077810D01*
X95408667Y-51315905D01*
X95361048Y-51411143D01*
X95313429Y-51458762D01*
X95218191Y-51506381D01*
X94932476Y-51506381D01*
X94837238Y-51458762D01*
X94789619Y-51411143D01*
X56562667Y-107402381D02*
X56562667Y-108116667D01*
X56515047Y-108259524D01*
X56419809Y-108354762D01*
X56276952Y-108402381D01*
X56181714Y-108402381D01*
X57467429Y-107735714D02*
X57467429Y-108402381D01*
X57229333Y-107354762D02*
X56991238Y-108069048D01*
X57610286Y-108069048D01*
X130476667Y-117054381D02*
X130476667Y-117768667D01*
X130429047Y-117911524D01*
X130333809Y-118006762D01*
X130190952Y-118054381D01*
X130095714Y-118054381D01*
X131429048Y-117054381D02*
X130952857Y-117054381D01*
X130905238Y-117530571D01*
X130952857Y-117482952D01*
X131048095Y-117435333D01*
X131286191Y-117435333D01*
X131381429Y-117482952D01*
X131429048Y-117530571D01*
X131476667Y-117625810D01*
X131476667Y-117863905D01*
X131429048Y-117959143D01*
X131381429Y-118006762D01*
X131286191Y-118054381D01*
X131048095Y-118054381D01*
X130952857Y-118006762D01*
X130905238Y-117959143D01*
X94662667Y-132294381D02*
X94662667Y-133008667D01*
X94615047Y-133151524D01*
X94519809Y-133246762D01*
X94376952Y-133294381D01*
X94281714Y-133294381D01*
X95567429Y-132294381D02*
X95376952Y-132294381D01*
X95281714Y-132342000D01*
X95234095Y-132389619D01*
X95138857Y-132532476D01*
X95091238Y-132722952D01*
X95091238Y-133103905D01*
X95138857Y-133199143D01*
X95186476Y-133246762D01*
X95281714Y-133294381D01*
X95472191Y-133294381D01*
X95567429Y-133246762D01*
X95615048Y-133199143D01*
X95662667Y-133103905D01*
X95662667Y-132865810D01*
X95615048Y-132770571D01*
X95567429Y-132722952D01*
X95472191Y-132675333D01*
X95281714Y-132675333D01*
X95186476Y-132722952D01*
X95138857Y-132770571D01*
X95091238Y-132865810D01*
X133016667Y-93178381D02*
X133016667Y-93892667D01*
X132969047Y-94035524D01*
X132873809Y-94130762D01*
X132730952Y-94178381D01*
X132635714Y-94178381D01*
X133397619Y-93178381D02*
X134064286Y-93178381D01*
X133635714Y-94178381D01*
X54530667Y-92670381D02*
X54530667Y-93384667D01*
X54483047Y-93527524D01*
X54387809Y-93622762D01*
X54244952Y-93670381D01*
X54149714Y-93670381D01*
X55149714Y-93098952D02*
X55054476Y-93051333D01*
X55006857Y-93003714D01*
X54959238Y-92908476D01*
X54959238Y-92860857D01*
X55006857Y-92765619D01*
X55054476Y-92718000D01*
X55149714Y-92670381D01*
X55340191Y-92670381D01*
X55435429Y-92718000D01*
X55483048Y-92765619D01*
X55530667Y-92860857D01*
X55530667Y-92908476D01*
X55483048Y-93003714D01*
X55435429Y-93051333D01*
X55340191Y-93098952D01*
X55149714Y-93098952D01*
X55054476Y-93146571D01*
X55006857Y-93194190D01*
X54959238Y-93289429D01*
X54959238Y-93479905D01*
X55006857Y-93575143D01*
X55054476Y-93622762D01*
X55149714Y-93670381D01*
X55340191Y-93670381D01*
X55435429Y-93622762D01*
X55483048Y-93575143D01*
X55530667Y-93479905D01*
X55530667Y-93289429D01*
X55483048Y-93194190D01*
X55435429Y-93146571D01*
X55340191Y-93098952D01*
X107462762Y-73043619D02*
X107367524Y-72996000D01*
X107272286Y-72900762D01*
X107129429Y-72757905D01*
X107034190Y-72710286D01*
X106938952Y-72710286D01*
X106986571Y-72948381D02*
X106891333Y-72900762D01*
X106796095Y-72805524D01*
X106748476Y-72615048D01*
X106748476Y-72281714D01*
X106796095Y-72091238D01*
X106891333Y-71996000D01*
X106986571Y-71948381D01*
X107177048Y-71948381D01*
X107272286Y-71996000D01*
X107367524Y-72091238D01*
X107415143Y-72281714D01*
X107415143Y-72615048D01*
X107367524Y-72805524D01*
X107272286Y-72900762D01*
X107177048Y-72948381D01*
X106986571Y-72948381D01*
X108367524Y-72948381D02*
X107796095Y-72948381D01*
X108081809Y-72948381D02*
X108081809Y-71948381D01*
X107986571Y-72091238D01*
X107891333Y-72186476D01*
X107796095Y-72234095D01*
X79014762Y-73297619D02*
X78919524Y-73250000D01*
X78824286Y-73154762D01*
X78681429Y-73011905D01*
X78586190Y-72964286D01*
X78490952Y-72964286D01*
X78538571Y-73202381D02*
X78443333Y-73154762D01*
X78348095Y-73059524D01*
X78300476Y-72869048D01*
X78300476Y-72535714D01*
X78348095Y-72345238D01*
X78443333Y-72250000D01*
X78538571Y-72202381D01*
X78729048Y-72202381D01*
X78824286Y-72250000D01*
X78919524Y-72345238D01*
X78967143Y-72535714D01*
X78967143Y-72869048D01*
X78919524Y-73059524D01*
X78824286Y-73154762D01*
X78729048Y-73202381D01*
X78538571Y-73202381D01*
X79348095Y-72297619D02*
X79395714Y-72250000D01*
X79490952Y-72202381D01*
X79729048Y-72202381D01*
X79824286Y-72250000D01*
X79871905Y-72297619D01*
X79919524Y-72392857D01*
X79919524Y-72488095D01*
X79871905Y-72630952D01*
X79300476Y-73202381D01*
X79919524Y-73202381D01*
X82084762Y-120075619D02*
X81989524Y-120028000D01*
X81894286Y-119932762D01*
X81751429Y-119789905D01*
X81656190Y-119742286D01*
X81560952Y-119742286D01*
X81608571Y-119980381D02*
X81513333Y-119932762D01*
X81418095Y-119837524D01*
X81370476Y-119647048D01*
X81370476Y-119313714D01*
X81418095Y-119123238D01*
X81513333Y-119028000D01*
X81608571Y-118980381D01*
X81799048Y-118980381D01*
X81894286Y-119028000D01*
X81989524Y-119123238D01*
X82037143Y-119313714D01*
X82037143Y-119647048D01*
X81989524Y-119837524D01*
X81894286Y-119932762D01*
X81799048Y-119980381D01*
X81608571Y-119980381D01*
X82370476Y-118980381D02*
X82989524Y-118980381D01*
X82656190Y-119361333D01*
X82799048Y-119361333D01*
X82894286Y-119408952D01*
X82941905Y-119456571D01*
X82989524Y-119551810D01*
X82989524Y-119789905D01*
X82941905Y-119885143D01*
X82894286Y-119932762D01*
X82799048Y-119980381D01*
X82513333Y-119980381D01*
X82418095Y-119932762D01*
X82370476Y-119885143D01*
X119062381Y-86018666D02*
X118586190Y-86352000D01*
X119062381Y-86590095D02*
X118062381Y-86590095D01*
X118062381Y-86209142D01*
X118110000Y-86113904D01*
X118157619Y-86066285D01*
X118252857Y-86018666D01*
X118395714Y-86018666D01*
X118490952Y-86066285D01*
X118538571Y-86113904D01*
X118586190Y-86209142D01*
X118586190Y-86590095D01*
X118157619Y-85637714D02*
X118110000Y-85590095D01*
X118062381Y-85494857D01*
X118062381Y-85256761D01*
X118110000Y-85161523D01*
X118157619Y-85113904D01*
X118252857Y-85066285D01*
X118348095Y-85066285D01*
X118490952Y-85113904D01*
X119062381Y-85685333D01*
X119062381Y-85066285D01*
X64198381Y-86272666D02*
X63722190Y-86606000D01*
X64198381Y-86844095D02*
X63198381Y-86844095D01*
X63198381Y-86463142D01*
X63246000Y-86367904D01*
X63293619Y-86320285D01*
X63388857Y-86272666D01*
X63531714Y-86272666D01*
X63626952Y-86320285D01*
X63674571Y-86367904D01*
X63722190Y-86463142D01*
X63722190Y-86844095D01*
X63531714Y-85415523D02*
X64198381Y-85415523D01*
X63150762Y-85653619D02*
X63865048Y-85891714D01*
X63865048Y-85272666D01*
X70818381Y-106592666D02*
X70342190Y-106926000D01*
X70818381Y-107164095D02*
X69818381Y-107164095D01*
X69818381Y-106783142D01*
X69866000Y-106687904D01*
X69913619Y-106640285D01*
X70008857Y-106592666D01*
X70151714Y-106592666D01*
X70246952Y-106640285D01*
X70294571Y-106687904D01*
X70342190Y-106783142D01*
X70342190Y-107164095D01*
X69818381Y-106259333D02*
X69818381Y-105592666D01*
X70818381Y-106021238D01*
X125682381Y-106846666D02*
X125206190Y-107180000D01*
X125682381Y-107418095D02*
X124682381Y-107418095D01*
X124682381Y-107037142D01*
X124730000Y-106941904D01*
X124777619Y-106894285D01*
X124872857Y-106846666D01*
X125015714Y-106846666D01*
X125110952Y-106894285D01*
X125158571Y-106941904D01*
X125206190Y-107037142D01*
X125206190Y-107418095D01*
X125110952Y-106275238D02*
X125063333Y-106370476D01*
X125015714Y-106418095D01*
X124920476Y-106465714D01*
X124872857Y-106465714D01*
X124777619Y-106418095D01*
X124730000Y-106370476D01*
X124682381Y-106275238D01*
X124682381Y-106084761D01*
X124730000Y-105989523D01*
X124777619Y-105941904D01*
X124872857Y-105894285D01*
X124920476Y-105894285D01*
X125015714Y-105941904D01*
X125063333Y-105989523D01*
X125110952Y-106084761D01*
X125110952Y-106275238D01*
X125158571Y-106370476D01*
X125206190Y-106418095D01*
X125301429Y-106465714D01*
X125491905Y-106465714D01*
X125587143Y-106418095D01*
X125634762Y-106370476D01*
X125682381Y-106275238D01*
X125682381Y-106084761D01*
X125634762Y-105989523D01*
X125587143Y-105941904D01*
X125491905Y-105894285D01*
X125301429Y-105894285D01*
X125206190Y-105941904D01*
X125158571Y-105989523D01*
X125110952Y-106084761D01*
X49666667Y-46404381D02*
X49666667Y-47118667D01*
X49619047Y-47261524D01*
X49523809Y-47356762D01*
X49380952Y-47404381D01*
X49285714Y-47404381D01*
X50190476Y-47404381D02*
X50380952Y-47404381D01*
X50476191Y-47356762D01*
X50523810Y-47309143D01*
X50619048Y-47166286D01*
X50666667Y-46975810D01*
X50666667Y-46594857D01*
X50619048Y-46499619D01*
X50571429Y-46452000D01*
X50476191Y-46404381D01*
X50285714Y-46404381D01*
X50190476Y-46452000D01*
X50142857Y-46499619D01*
X50095238Y-46594857D01*
X50095238Y-46832952D01*
X50142857Y-46928190D01*
X50190476Y-46975810D01*
X50285714Y-47023429D01*
X50476191Y-47023429D01*
X50571429Y-46975810D01*
X50619048Y-46928190D01*
X50666667Y-46832952D01*
X139190477Y-46404381D02*
X139190477Y-47118667D01*
X139142857Y-47261524D01*
X139047619Y-47356762D01*
X138904762Y-47404381D01*
X138809524Y-47404381D01*
X140190477Y-47404381D02*
X139619048Y-47404381D01*
X139904762Y-47404381D02*
X139904762Y-46404381D01*
X139809524Y-46547238D01*
X139714286Y-46642476D01*
X139619048Y-46690095D01*
X140809524Y-46404381D02*
X140904763Y-46404381D01*
X141000001Y-46452000D01*
X141047620Y-46499619D01*
X141095239Y-46594857D01*
X141142858Y-46785333D01*
X141142858Y-47023429D01*
X141095239Y-47213905D01*
X141047620Y-47309143D01*
X141000001Y-47356762D01*
X140904763Y-47404381D01*
X140809524Y-47404381D01*
X140714286Y-47356762D01*
X140666667Y-47309143D01*
X140619048Y-47213905D01*
X140571429Y-47023429D01*
X140571429Y-46785333D01*
X140619048Y-46594857D01*
X140666667Y-46499619D01*
X140714286Y-46452000D01*
X140809524Y-46404381D01*
X49190477Y-136404381D02*
X49190477Y-137118667D01*
X49142857Y-137261524D01*
X49047619Y-137356762D01*
X48904762Y-137404381D01*
X48809524Y-137404381D01*
X50190477Y-137404381D02*
X49619048Y-137404381D01*
X49904762Y-137404381D02*
X49904762Y-136404381D01*
X49809524Y-136547238D01*
X49714286Y-136642476D01*
X49619048Y-136690095D01*
X51142858Y-137404381D02*
X50571429Y-137404381D01*
X50857143Y-137404381D02*
X50857143Y-136404381D01*
X50761905Y-136547238D01*
X50666667Y-136642476D01*
X50571429Y-136690095D01*
X139190477Y-136404381D02*
X139190477Y-137118667D01*
X139142857Y-137261524D01*
X139047619Y-137356762D01*
X138904762Y-137404381D01*
X138809524Y-137404381D01*
X140190477Y-137404381D02*
X139619048Y-137404381D01*
X139904762Y-137404381D02*
X139904762Y-136404381D01*
X139809524Y-136547238D01*
X139714286Y-136642476D01*
X139619048Y-136690095D01*
X140571429Y-136499619D02*
X140619048Y-136452000D01*
X140714286Y-136404381D01*
X140952382Y-136404381D01*
X141047620Y-136452000D01*
X141095239Y-136499619D01*
X141142858Y-136594857D01*
X141142858Y-136690095D01*
X141095239Y-136832952D01*
X140523810Y-137404381D01*
X141142858Y-137404381D01*
X54932381Y-68048095D02*
X53932381Y-68048095D01*
X53932381Y-67810000D01*
X53980000Y-67667142D01*
X54075238Y-67571904D01*
X54170476Y-67524285D01*
X54360952Y-67476666D01*
X54503810Y-67476666D01*
X54694286Y-67524285D01*
X54789524Y-67571904D01*
X54884762Y-67667142D01*
X54932381Y-67810000D01*
X54932381Y-68048095D01*
X53932381Y-66619523D02*
X53932381Y-66810000D01*
X53980000Y-66905238D01*
X54027619Y-66952857D01*
X54170476Y-67048095D01*
X54360952Y-67095714D01*
X54741905Y-67095714D01*
X54837143Y-67048095D01*
X54884762Y-67000476D01*
X54932381Y-66905238D01*
X54932381Y-66714761D01*
X54884762Y-66619523D01*
X54837143Y-66571904D01*
X54741905Y-66524285D01*
X54503810Y-66524285D01*
X54408571Y-66571904D01*
X54360952Y-66619523D01*
X54313333Y-66714761D01*
X54313333Y-66905238D01*
X54360952Y-67000476D01*
X54408571Y-67048095D01*
X54503810Y-67095714D01*
X133932381Y-124690095D02*
X132932381Y-124690095D01*
X132932381Y-124452000D01*
X132980000Y-124309142D01*
X133075238Y-124213904D01*
X133170476Y-124166285D01*
X133360952Y-124118666D01*
X133503810Y-124118666D01*
X133694286Y-124166285D01*
X133789524Y-124213904D01*
X133884762Y-124309142D01*
X133932381Y-124452000D01*
X133932381Y-124690095D01*
X133360952Y-123547238D02*
X133313333Y-123642476D01*
X133265714Y-123690095D01*
X133170476Y-123737714D01*
X133122857Y-123737714D01*
X133027619Y-123690095D01*
X132980000Y-123642476D01*
X132932381Y-123547238D01*
X132932381Y-123356761D01*
X132980000Y-123261523D01*
X133027619Y-123213904D01*
X133122857Y-123166285D01*
X133170476Y-123166285D01*
X133265714Y-123213904D01*
X133313333Y-123261523D01*
X133360952Y-123356761D01*
X133360952Y-123547238D01*
X133408571Y-123642476D01*
X133456190Y-123690095D01*
X133551429Y-123737714D01*
X133741905Y-123737714D01*
X133837143Y-123690095D01*
X133884762Y-123642476D01*
X133932381Y-123547238D01*
X133932381Y-123356761D01*
X133884762Y-123261523D01*
X133837143Y-123213904D01*
X133741905Y-123166285D01*
X133551429Y-123166285D01*
X133456190Y-123213904D01*
X133408571Y-123261523D01*
X133360952Y-123356761D01*
X50366381Y-125452095D02*
X49366381Y-125452095D01*
X49366381Y-125214000D01*
X49414000Y-125071142D01*
X49509238Y-124975904D01*
X49604476Y-124928285D01*
X49794952Y-124880666D01*
X49937810Y-124880666D01*
X50128286Y-124928285D01*
X50223524Y-124975904D01*
X50318762Y-125071142D01*
X50366381Y-125214000D01*
X50366381Y-125452095D01*
X49366381Y-124547333D02*
X49366381Y-123880666D01*
X50366381Y-124309238D01*
X139514381Y-67540095D02*
X138514381Y-67540095D01*
X138514381Y-67302000D01*
X138562000Y-67159142D01*
X138657238Y-67063904D01*
X138752476Y-67016285D01*
X138942952Y-66968666D01*
X139085810Y-66968666D01*
X139276286Y-67016285D01*
X139371524Y-67063904D01*
X139466762Y-67159142D01*
X139514381Y-67302000D01*
X139514381Y-67540095D01*
X138514381Y-66063904D02*
X138514381Y-66540095D01*
X138990571Y-66587714D01*
X138942952Y-66540095D01*
X138895333Y-66444857D01*
X138895333Y-66206761D01*
X138942952Y-66111523D01*
X138990571Y-66063904D01*
X139085810Y-66016285D01*
X139323905Y-66016285D01*
X139419143Y-66063904D01*
X139466762Y-66111523D01*
X139514381Y-66206761D01*
X139514381Y-66444857D01*
X139466762Y-66540095D01*
X139419143Y-66587714D01*
X123467905Y-66238381D02*
X123467905Y-65238381D01*
X123706000Y-65238381D01*
X123848858Y-65286000D01*
X123944096Y-65381238D01*
X123991715Y-65476476D01*
X124039334Y-65666952D01*
X124039334Y-65809810D01*
X123991715Y-66000286D01*
X123944096Y-66095524D01*
X123848858Y-66190762D01*
X123706000Y-66238381D01*
X123467905Y-66238381D01*
X124991715Y-66238381D02*
X124420286Y-66238381D01*
X124706000Y-66238381D02*
X124706000Y-65238381D01*
X124610762Y-65381238D01*
X124515524Y-65476476D01*
X124420286Y-65524095D01*
X62761905Y-65606381D02*
X62761905Y-64606381D01*
X63000000Y-64606381D01*
X63142858Y-64654000D01*
X63238096Y-64749238D01*
X63285715Y-64844476D01*
X63333334Y-65034952D01*
X63333334Y-65177810D01*
X63285715Y-65368286D01*
X63238096Y-65463524D01*
X63142858Y-65558762D01*
X63000000Y-65606381D01*
X62761905Y-65606381D01*
X63714286Y-64701619D02*
X63761905Y-64654000D01*
X63857143Y-64606381D01*
X64095239Y-64606381D01*
X64190477Y-64654000D01*
X64238096Y-64701619D01*
X64285715Y-64796857D01*
X64285715Y-64892095D01*
X64238096Y-65034952D01*
X63666667Y-65606381D01*
X64285715Y-65606381D01*
X123213905Y-127068381D02*
X123213905Y-126068381D01*
X123452000Y-126068381D01*
X123594858Y-126116000D01*
X123690096Y-126211238D01*
X123737715Y-126306476D01*
X123785334Y-126496952D01*
X123785334Y-126639810D01*
X123737715Y-126830286D01*
X123690096Y-126925524D01*
X123594858Y-127020762D01*
X123452000Y-127068381D01*
X123213905Y-127068381D01*
X124642477Y-126401714D02*
X124642477Y-127068381D01*
X124404381Y-126020762D02*
X124166286Y-126735048D01*
X124785334Y-126735048D01*
X125055334Y-76398381D02*
X124722000Y-75922190D01*
X124483905Y-76398381D02*
X124483905Y-75398381D01*
X124864858Y-75398381D01*
X124960096Y-75446000D01*
X125007715Y-75493619D01*
X125055334Y-75588857D01*
X125055334Y-75731714D01*
X125007715Y-75826952D01*
X124960096Y-75874571D01*
X124864858Y-75922190D01*
X124483905Y-75922190D01*
X126007715Y-76398381D02*
X125436286Y-76398381D01*
X125722000Y-76398381D02*
X125722000Y-75398381D01*
X125626762Y-75541238D01*
X125531524Y-75636476D01*
X125436286Y-75684095D01*
X62317334Y-75448381D02*
X61984000Y-74972190D01*
X61745905Y-75448381D02*
X61745905Y-74448381D01*
X62126858Y-74448381D01*
X62222096Y-74496000D01*
X62269715Y-74543619D01*
X62317334Y-74638857D01*
X62317334Y-74781714D01*
X62269715Y-74876952D01*
X62222096Y-74924571D01*
X62126858Y-74972190D01*
X61745905Y-74972190D01*
X62650667Y-74448381D02*
X63269715Y-74448381D01*
X62936381Y-74829333D01*
X63079239Y-74829333D01*
X63174477Y-74876952D01*
X63222096Y-74924571D01*
X63269715Y-75019810D01*
X63269715Y-75257905D01*
X63222096Y-75353143D01*
X63174477Y-75400762D01*
X63079239Y-75448381D01*
X62793524Y-75448381D01*
X62698286Y-75400762D01*
X62650667Y-75353143D01*
X125055334Y-117226381D02*
X124722000Y-116750190D01*
X124483905Y-117226381D02*
X124483905Y-116226381D01*
X124864858Y-116226381D01*
X124960096Y-116274000D01*
X125007715Y-116321619D01*
X125055334Y-116416857D01*
X125055334Y-116559714D01*
X125007715Y-116654952D01*
X124960096Y-116702571D01*
X124864858Y-116750190D01*
X124483905Y-116750190D01*
X125912477Y-116226381D02*
X125722000Y-116226381D01*
X125626762Y-116274000D01*
X125579143Y-116321619D01*
X125483905Y-116464476D01*
X125436286Y-116654952D01*
X125436286Y-117035905D01*
X125483905Y-117131143D01*
X125531524Y-117178762D01*
X125626762Y-117226381D01*
X125817239Y-117226381D01*
X125912477Y-117178762D01*
X125960096Y-117131143D01*
X126007715Y-117035905D01*
X126007715Y-116797810D01*
X125960096Y-116702571D01*
X125912477Y-116654952D01*
X125817239Y-116607333D01*
X125626762Y-116607333D01*
X125531524Y-116654952D01*
X125483905Y-116702571D01*
X125436286Y-116797810D01*
X63269905Y-127198381D02*
X63269905Y-126198381D01*
X63508000Y-126198381D01*
X63650858Y-126246000D01*
X63746096Y-126341238D01*
X63793715Y-126436476D01*
X63841334Y-126626952D01*
X63841334Y-126769810D01*
X63793715Y-126960286D01*
X63746096Y-127055524D01*
X63650858Y-127150762D01*
X63508000Y-127198381D01*
X63269905Y-127198381D01*
X64174667Y-126198381D02*
X64793715Y-126198381D01*
X64460381Y-126579333D01*
X64603239Y-126579333D01*
X64698477Y-126626952D01*
X64746096Y-126674571D01*
X64793715Y-126769810D01*
X64793715Y-127007905D01*
X64746096Y-127103143D01*
X64698477Y-127150762D01*
X64603239Y-127198381D01*
X64317524Y-127198381D01*
X64222286Y-127150762D01*
X64174667Y-127103143D01*
X63079334Y-117546381D02*
X62746000Y-117070190D01*
X62507905Y-117546381D02*
X62507905Y-116546381D01*
X62888858Y-116546381D01*
X62984096Y-116594000D01*
X63031715Y-116641619D01*
X63079334Y-116736857D01*
X63079334Y-116879714D01*
X63031715Y-116974952D01*
X62984096Y-117022571D01*
X62888858Y-117070190D01*
X62507905Y-117070190D01*
X63984096Y-116546381D02*
X63507905Y-116546381D01*
X63460286Y-117022571D01*
X63507905Y-116974952D01*
X63603143Y-116927333D01*
X63841239Y-116927333D01*
X63936477Y-116974952D01*
X63984096Y-117022571D01*
X64031715Y-117117810D01*
X64031715Y-117355905D01*
X63984096Y-117451143D01*
X63936477Y-117498762D01*
X63841239Y-117546381D01*
X63603143Y-117546381D01*
X63507905Y-117498762D01*
X63460286Y-117451143D01*
X124229905Y-58110381D02*
X124229905Y-57110381D01*
X124468000Y-57110381D01*
X124610858Y-57158000D01*
X124706096Y-57253238D01*
X124753715Y-57348476D01*
X124801334Y-57538952D01*
X124801334Y-57681810D01*
X124753715Y-57872286D01*
X124706096Y-57967524D01*
X124610858Y-58062762D01*
X124468000Y-58110381D01*
X124229905Y-58110381D01*
X125277524Y-58110381D02*
X125468000Y-58110381D01*
X125563239Y-58062762D01*
X125610858Y-58015143D01*
X125706096Y-57872286D01*
X125753715Y-57681810D01*
X125753715Y-57300857D01*
X125706096Y-57205619D01*
X125658477Y-57158000D01*
X125563239Y-57110381D01*
X125372762Y-57110381D01*
X125277524Y-57158000D01*
X125229905Y-57205619D01*
X125182286Y-57300857D01*
X125182286Y-57538952D01*
X125229905Y-57634190D01*
X125277524Y-57681810D01*
X125372762Y-57729429D01*
X125563239Y-57729429D01*
X125658477Y-57681810D01*
X125706096Y-57634190D01*
X125753715Y-57538952D01*
X61523714Y-57348381D02*
X61523714Y-56348381D01*
X61761809Y-56348381D01*
X61904667Y-56396000D01*
X61999905Y-56491238D01*
X62047524Y-56586476D01*
X62095143Y-56776952D01*
X62095143Y-56919810D01*
X62047524Y-57110286D01*
X61999905Y-57205524D01*
X61904667Y-57300762D01*
X61761809Y-57348381D01*
X61523714Y-57348381D01*
X63047524Y-57348381D02*
X62476095Y-57348381D01*
X62761809Y-57348381D02*
X62761809Y-56348381D01*
X62666571Y-56491238D01*
X62571333Y-56586476D01*
X62476095Y-56634095D01*
X63666571Y-56348381D02*
X63761810Y-56348381D01*
X63857048Y-56396000D01*
X63904667Y-56443619D01*
X63952286Y-56538857D01*
X63999905Y-56729333D01*
X63999905Y-56967429D01*
X63952286Y-57157905D01*
X63904667Y-57253143D01*
X63857048Y-57300762D01*
X63761810Y-57348381D01*
X63666571Y-57348381D01*
X63571333Y-57300762D01*
X63523714Y-57253143D01*
X63476095Y-57157905D01*
X63428476Y-56967429D01*
X63428476Y-56729333D01*
X63476095Y-56538857D01*
X63523714Y-56443619D01*
X63571333Y-56396000D01*
X63666571Y-56348381D01*
X62793714Y-135326381D02*
X62793714Y-134326381D01*
X63031809Y-134326381D01*
X63174667Y-134374000D01*
X63269905Y-134469238D01*
X63317524Y-134564476D01*
X63365143Y-134754952D01*
X63365143Y-134897810D01*
X63317524Y-135088286D01*
X63269905Y-135183524D01*
X63174667Y-135278762D01*
X63031809Y-135326381D01*
X62793714Y-135326381D01*
X64317524Y-135326381D02*
X63746095Y-135326381D01*
X64031809Y-135326381D02*
X64031809Y-134326381D01*
X63936571Y-134469238D01*
X63841333Y-134564476D01*
X63746095Y-134612095D01*
X65269905Y-135326381D02*
X64698476Y-135326381D01*
X64984190Y-135326381D02*
X64984190Y-134326381D01*
X64888952Y-134469238D01*
X64793714Y-134564476D01*
X64698476Y-134612095D01*
X123753714Y-134818381D02*
X123753714Y-133818381D01*
X123991809Y-133818381D01*
X124134667Y-133866000D01*
X124229905Y-133961238D01*
X124277524Y-134056476D01*
X124325143Y-134246952D01*
X124325143Y-134389810D01*
X124277524Y-134580286D01*
X124229905Y-134675524D01*
X124134667Y-134770762D01*
X123991809Y-134818381D01*
X123753714Y-134818381D01*
X125277524Y-134818381D02*
X124706095Y-134818381D01*
X124991809Y-134818381D02*
X124991809Y-133818381D01*
X124896571Y-133961238D01*
X124801333Y-134056476D01*
X124706095Y-134104095D01*
X125658476Y-133913619D02*
X125706095Y-133866000D01*
X125801333Y-133818381D01*
X126039429Y-133818381D01*
X126134667Y-133866000D01*
X126182286Y-133913619D01*
X126229905Y-134008857D01*
X126229905Y-134104095D01*
X126182286Y-134246952D01*
X125610857Y-134818381D01*
X126229905Y-134818381D01*
M02*
