M48
;DRILL file {KiCad 4.0.7} date 05/25/18 16:16:19
;FORMAT={-:-/ absolute / metric / decimal}
FMAT,2
METRIC,TZ
T1C0.400
T2C0.600
T3C0.762
T4C0.800
T5C0.900
T6C1.000
T7C1.100
T8C1.200
T9C1.520
T10C3.048
%
G90
G05
M71
T1
X52.324Y-105.41
X56.134Y-84.328
X59.944Y-79.502
X62.23Y-123.444
X62.484Y-105.664
X64.262Y-121.412
X67.564Y-85.598
X69.596Y-88.646
X69.85Y-81.788
X71.374Y-100.33
X72.39Y-97.282
X72.644Y-57.404
X77.978Y-53.086
X79.756Y-52.07
X86.36Y-101.092
X87.376Y-123.444
X90.424Y-102.616
X91.948Y-131.064
X96.774Y-101.092
X97.79Y-104.902
X102.87Y-64.516
X104.14Y-121.666
X106.426Y-121.666
X113.284Y-47.498
T2
X58.166Y-60.452
X59.436Y-59.182
X59.436Y-61.722
X96.266Y-125.476
X97.536Y-126.746
X98.806Y-125.476
X101.854Y-125.476
X103.124Y-126.746
X104.394Y-125.476
X107.696Y-125.476
X108.966Y-126.746
X110.236Y-125.476
T3
X76.454Y-55.88
X76.454Y-58.42
X76.454Y-60.96
X76.454Y-63.5
X76.454Y-66.04
X76.454Y-68.58
X76.454Y-71.12
X76.454Y-73.66
X76.454Y-76.2
X76.454Y-78.74
X76.454Y-81.28
X76.454Y-83.82
X76.454Y-86.36
X76.454Y-88.9
X76.454Y-91.44
X76.454Y-93.98
X76.454Y-96.52
X76.454Y-99.06
X76.454Y-101.6
X76.454Y-104.14
X76.454Y-106.68
X76.454Y-109.22
X76.454Y-111.76
X76.454Y-114.3
X76.454Y-116.84
X76.454Y-119.38
X84.125Y-55.982
X84.125Y-58.522
X84.125Y-61.062
X84.125Y-63.602
X84.125Y-66.142
X84.125Y-68.682
X84.125Y-71.222
X84.125Y-73.762
X84.125Y-76.302
X84.125Y-78.842
X84.125Y-81.382
X84.125Y-83.922
X84.125Y-86.462
X84.125Y-89.002
X84.125Y-91.542
X84.125Y-94.082
X84.125Y-96.622
X84.125Y-99.162
X84.125Y-101.702
X84.125Y-104.242
X84.125Y-106.782
X84.125Y-109.322
X84.125Y-111.862
X84.125Y-114.402
X84.125Y-116.942
X84.125Y-119.482
X89.205Y-56.302
X91.745Y-56.302
X94.285Y-56.302
X96.825Y-56.302
X99.365Y-56.302
X104.445Y-55.982
X104.445Y-58.522
X104.445Y-61.062
X104.445Y-63.602
X104.445Y-66.142
X104.445Y-68.682
X104.445Y-71.222
X104.445Y-73.762
X104.445Y-76.302
X104.445Y-78.842
X104.445Y-81.382
X104.445Y-83.922
X104.445Y-86.462
X104.445Y-89.002
X104.445Y-91.542
X104.445Y-94.082
X104.445Y-96.622
X104.445Y-99.162
X104.445Y-101.702
X104.445Y-104.242
X104.445Y-106.782
X104.445Y-109.322
X104.445Y-111.862
X104.445Y-114.402
X104.445Y-116.942
X104.445Y-119.482
X111.506Y-55.88
X111.506Y-58.42
X111.506Y-60.96
X111.506Y-63.5
X111.506Y-66.04
X111.506Y-68.58
X111.506Y-71.12
X111.506Y-73.66
X111.506Y-76.2
X111.506Y-78.74
X111.506Y-81.28
X111.506Y-83.82
X111.506Y-86.36
X111.506Y-88.9
X111.506Y-91.44
X111.506Y-93.98
X111.506Y-96.52
X111.506Y-99.06
X111.506Y-101.6
X111.506Y-104.14
X111.506Y-106.68
X111.506Y-109.22
X111.506Y-111.76
X111.506Y-114.3
X111.506Y-116.84
X111.506Y-119.38
T4
X49.276Y-122.682
X49.276Y-127.682
X50.546Y-129.794
X50.546Y-134.794
X51.054Y-83.058
X51.562Y-55.372
X51.562Y-62.992
X54.864Y-55.372
X54.864Y-62.992
X54.864Y-85.598
X54.864Y-90.598
X54.864Y-92.71
X54.864Y-97.71
X55.372Y-107.442
X55.88Y-103.124
X56.134Y-124.206
X56.134Y-126.706
X56.134Y-131.358
X56.134Y-133.858
X56.896Y-75.264
X56.896Y-80.264
X57.404Y-94.742
X57.404Y-98.806
X57.738Y-55.88
X57.738Y-64.77
X58.42Y-86.186
X58.42Y-91.186
X58.674Y-83.058
X58.928Y-68.152
X58.928Y-73.152
X58.928Y-111.546
X58.928Y-114.046
X58.928Y-117.348
X58.928Y-119.848
X59.77Y-75.946
X60.88Y-103.124
X61.04Y-90.678
X61.468Y-125.222
X61.468Y-132.842
X61.722Y-79.502
X61.722Y-87.122
X61.976Y-68.152
X61.976Y-73.152
X62.738Y-55.88
X62.738Y-64.77
X64.77Y-75.946
X64.85Y-102.616
X65.024Y-79.248
X65.024Y-81.788
X65.024Y-84.328
X65.024Y-86.868
X65.024Y-110.998
X65.024Y-113.538
X65.024Y-116.078
X65.024Y-118.618
X65.278Y-68.152
X65.278Y-73.152
X65.532Y-55.626
X65.532Y-63.246
X66.04Y-90.678
X67.136Y-75.946
X68.072Y-107.442
X68.326Y-90.678
X68.58Y-68.152
X68.58Y-73.152
X68.834Y-55.626
X68.834Y-63.246
X69.85Y-102.616
X70.104Y-94.742
X70.104Y-98.806
X71.882Y-68.152
X71.882Y-73.152
X72.136Y-55.626
X72.136Y-60.626
X72.136Y-75.946
X72.644Y-79.248
X72.644Y-81.788
X72.644Y-84.328
X72.644Y-86.868
X72.644Y-110.998
X72.644Y-113.538
X72.644Y-116.078
X72.644Y-118.618
X72.898Y-94.314
X72.898Y-99.314
X72.898Y-102.616
X72.898Y-107.616
X73.326Y-90.678
X76.962Y-48.514
X76.962Y-51.562
X84.582Y-48.514
X84.582Y-51.562
X88.646Y-75.946
X88.646Y-79.248
X88.646Y-82.55
X88.646Y-86.106
X88.646Y-89.408
X88.646Y-92.456
X88.646Y-95.758
X88.646Y-99.314
X88.646Y-103.124
X89.154Y-65.278
X89.154Y-72.898
X92.202Y-61.976
X92.202Y-65.278
X92.202Y-68.834
X92.202Y-72.39
X96.266Y-75.946
X96.266Y-79.248
X96.266Y-82.55
X96.266Y-86.106
X96.266Y-89.408
X96.266Y-92.456
X96.266Y-95.758
X96.266Y-99.314
X96.266Y-103.124
X96.774Y-129.54
X96.774Y-137.16
X99.314Y-75.438
X99.314Y-83.058
X99.314Y-85.598
X99.314Y-93.218
X99.314Y-95.758
X99.314Y-103.378
X99.822Y-61.976
X99.822Y-65.278
X99.822Y-68.834
X99.822Y-72.39
X99.822Y-129.54
X99.822Y-137.16
X103.124Y-129.54
X103.124Y-137.16
X106.426Y-129.54
X106.426Y-137.16
X113.03Y-129.54
X115.062Y-66.802
X115.062Y-71.802
X115.062Y-98.298
X115.062Y-101.854
X115.062Y-108.712
X115.062Y-111.252
X115.062Y-113.792
X115.062Y-116.332
X115.316Y-55.118
X115.316Y-62.738
X115.57Y-75.692
X115.57Y-78.232
X115.57Y-80.772
X115.57Y-83.312
X116.158Y-105.41
X120.65Y-129.54
X121.158Y-105.41
X122.682Y-98.298
X122.682Y-101.854
X122.682Y-108.712
X122.682Y-111.252
X122.682Y-113.792
X122.682Y-116.332
X123.19Y-75.692
X123.19Y-78.232
X123.19Y-80.772
X123.19Y-83.312
X123.698Y-56.134
X123.812Y-128.549
X123.812Y-133.549
X126.572Y-97.79
X126.924Y-85.966
X126.924Y-90.966
X127.508Y-104.394
X127.508Y-112.014
X127.762Y-74.676
X127.762Y-82.296
X128.698Y-56.134
X131.572Y-97.79
X133.481Y-93.078
X138.481Y-93.078
T5
X55.88Y-138.43
X58.42Y-138.43
X97.282Y-140.716
X99.822Y-140.716
X102.108Y-140.716
X104.648Y-140.716
X106.934Y-140.716
X109.474Y-140.716
T6
X62.992Y-138.176
X65.532Y-138.176
X66.04Y-127.762
X68.072Y-138.176
X71.04Y-127.762
X75.692Y-138.176
X76.534Y-127.762
X78.232Y-138.176
X80.772Y-138.176
X81.534Y-127.762
X87.122Y-127.508
X89.154Y-49.784
X91.694Y-49.784
X92.122Y-127.508
X94.234Y-49.784
X96.774Y-49.784
X99.314Y-49.784
X111.252Y-50.8
X113.792Y-50.8
X114.046Y-137.922
X114.38Y-125.476
X116.332Y-50.8
X116.586Y-137.922
X119.126Y-137.922
X119.38Y-125.476
X120.142Y-88.218
X120.142Y-93.218
X122.428Y-60.452
X122.428Y-65.452
X123.702Y-125.082
X124.714Y-50.8
X125.984Y-60.706
X125.984Y-65.706
X126.826Y-116.078
X127.254Y-50.8
X127.254Y-137.922
X128.524Y-128.638
X128.524Y-133.638
X128.702Y-125.082
X129.794Y-50.8
X129.794Y-60.532
X129.794Y-65.532
X129.794Y-137.922
X130.48Y-89.078
X130.48Y-94.078
X131.826Y-116.078
X132.334Y-137.922
X136.525Y-99.035
X136.525Y-101.575
X136.525Y-104.115
X136.614Y-112.192
X136.614Y-114.732
X136.614Y-117.272
X136.906Y-81.788
X136.906Y-84.328
X136.906Y-86.868
X137.058Y-69.253
X137.058Y-71.793
X137.058Y-74.333
T7
X88.646Y-109.982
X88.646Y-120.142
X88.9Y-106.68
X92.202Y-109.982
X92.202Y-120.142
X95.758Y-109.982
X95.758Y-120.142
X99.06Y-106.68
X99.314Y-109.982
X99.314Y-120.142
X110.236Y-133.35
X118.872Y-55.372
X118.872Y-65.532
X120.396Y-133.35
X131.724Y-101.067
X131.724Y-111.227
X131.826Y-74.93
X131.826Y-85.09
T8
X49.53Y-71.882
X49.53Y-74.422
X49.53Y-76.962
X49.53Y-79.502
X50.038Y-87.63
X50.038Y-90.17
X50.038Y-92.71
X50.038Y-95.25
X50.292Y-101.346
X50.292Y-103.886
X50.292Y-106.426
X50.292Y-108.966
X57.15Y-50.8
X59.69Y-50.8
X62.23Y-50.8
X64.77Y-50.8
X67.31Y-50.8
X69.85Y-50.8
X72.39Y-50.8
X116.84Y-120.65
X117.856Y-70.104
X132.08Y-120.65
X133.096Y-70.104
T9
X51.562Y-113.792
X51.562Y-118.872
X87.122Y-136.906
X92.202Y-136.906
X135.814Y-57.239
X135.814Y-62.319
X135.89Y-126.492
X135.89Y-131.572
T10
X50.Y-50.
X50.Y-140.
X140.Y-50.
X140.Y-140.
T0
M30
