G04 #@! TF.FileFunction,Legend,Bot*
%FSLAX46Y46*%
G04 Gerber Fmt 4.6, Leading zero omitted, Abs format (unit mm)*
G04 Created by KiCad (PCBNEW 4.0.7) date 05/25/18 16:16:18*
%MOMM*%
%LPD*%
G01*
G04 APERTURE LIST*
%ADD10C,0.100000*%
%ADD11C,0.150000*%
G04 APERTURE END LIST*
D10*
D11*
X51806619Y-66960000D02*
X52806619Y-66960000D01*
X52806619Y-66721905D01*
X52759000Y-66579047D01*
X52663762Y-66483809D01*
X52568524Y-66436190D01*
X52378048Y-66388571D01*
X52235190Y-66388571D01*
X52044714Y-66436190D01*
X51949476Y-66483809D01*
X51854238Y-66579047D01*
X51806619Y-66721905D01*
X51806619Y-66960000D01*
X51806619Y-65388571D02*
X52282810Y-65721905D01*
X51806619Y-65960000D02*
X52806619Y-65960000D01*
X52806619Y-65579047D01*
X52759000Y-65483809D01*
X52711381Y-65436190D01*
X52616143Y-65388571D01*
X52473286Y-65388571D01*
X52378048Y-65436190D01*
X52330429Y-65483809D01*
X52282810Y-65579047D01*
X52282810Y-65960000D01*
X51854238Y-65007619D02*
X51806619Y-64864762D01*
X51806619Y-64626666D01*
X51854238Y-64531428D01*
X51901857Y-64483809D01*
X51997095Y-64436190D01*
X52092333Y-64436190D01*
X52187571Y-64483809D01*
X52235190Y-64531428D01*
X52282810Y-64626666D01*
X52330429Y-64817143D01*
X52378048Y-64912381D01*
X52425667Y-64960000D01*
X52520905Y-65007619D01*
X52616143Y-65007619D01*
X52711381Y-64960000D01*
X52759000Y-64912381D01*
X52806619Y-64817143D01*
X52806619Y-64579047D01*
X52759000Y-64436190D01*
X51854238Y-64055238D02*
X51806619Y-63912381D01*
X51806619Y-63674285D01*
X51854238Y-63579047D01*
X51901857Y-63531428D01*
X51997095Y-63483809D01*
X52092333Y-63483809D01*
X52187571Y-63531428D01*
X52235190Y-63579047D01*
X52282810Y-63674285D01*
X52330429Y-63864762D01*
X52378048Y-63960000D01*
X52425667Y-64007619D01*
X52520905Y-64055238D01*
X52616143Y-64055238D01*
X52711381Y-64007619D01*
X52759000Y-63960000D01*
X52806619Y-63864762D01*
X52806619Y-63626666D01*
X52759000Y-63483809D01*
X52806619Y-63198095D02*
X52806619Y-62626666D01*
X51806619Y-62912381D02*
X52806619Y-62912381D01*
X51901857Y-61721904D02*
X51854238Y-61769523D01*
X51806619Y-61912380D01*
X51806619Y-62007618D01*
X51854238Y-62150476D01*
X51949476Y-62245714D01*
X52044714Y-62293333D01*
X52235190Y-62340952D01*
X52378048Y-62340952D01*
X52568524Y-62293333D01*
X52663762Y-62245714D01*
X52759000Y-62150476D01*
X52806619Y-62007618D01*
X52806619Y-61912380D01*
X52759000Y-61769523D01*
X52711381Y-61721904D01*
X52806619Y-60531428D02*
X51997095Y-60531428D01*
X51901857Y-60483809D01*
X51854238Y-60436190D01*
X51806619Y-60340952D01*
X51806619Y-60150475D01*
X51854238Y-60055237D01*
X51901857Y-60007618D01*
X51997095Y-59959999D01*
X52806619Y-59959999D01*
X51806619Y-59483809D02*
X52806619Y-59483809D01*
X52806619Y-59245714D01*
X52759000Y-59102856D01*
X52663762Y-59007618D01*
X52568524Y-58959999D01*
X52378048Y-58912380D01*
X52235190Y-58912380D01*
X52044714Y-58959999D01*
X51949476Y-59007618D01*
X51854238Y-59102856D01*
X51806619Y-59245714D01*
X51806619Y-59483809D01*
X52806619Y-57864761D02*
X51806619Y-57531428D01*
X52806619Y-57198094D01*
X52806619Y-56959999D02*
X52806619Y-56340951D01*
X52425667Y-56674285D01*
X52425667Y-56531427D01*
X52378048Y-56436189D01*
X52330429Y-56388570D01*
X52235190Y-56340951D01*
X51997095Y-56340951D01*
X51901857Y-56388570D01*
X51854238Y-56436189D01*
X51806619Y-56531427D01*
X51806619Y-56817142D01*
X51854238Y-56912380D01*
X51901857Y-56959999D01*
X51901857Y-55912380D02*
X51854238Y-55864761D01*
X51806619Y-55912380D01*
X51854238Y-55959999D01*
X51901857Y-55912380D01*
X51806619Y-55912380D01*
X51806619Y-54912380D02*
X51806619Y-55483809D01*
X51806619Y-55198095D02*
X52806619Y-55198095D01*
X52663762Y-55293333D01*
X52568524Y-55388571D01*
X52520905Y-55483809D01*
X51156619Y-65317143D02*
X51156619Y-64745714D01*
X50156619Y-65031429D02*
X51156619Y-65031429D01*
X50156619Y-64412381D02*
X51156619Y-64412381D01*
X50680429Y-64412381D02*
X50680429Y-63840952D01*
X50156619Y-63840952D02*
X51156619Y-63840952D01*
X50156619Y-62793333D02*
X50632810Y-63126667D01*
X50156619Y-63364762D02*
X51156619Y-63364762D01*
X51156619Y-62983809D01*
X51109000Y-62888571D01*
X51061381Y-62840952D01*
X50966143Y-62793333D01*
X50823286Y-62793333D01*
X50728048Y-62840952D01*
X50680429Y-62888571D01*
X50632810Y-62983809D01*
X50632810Y-63364762D01*
X51156619Y-62364762D02*
X50347095Y-62364762D01*
X50251857Y-62317143D01*
X50204238Y-62269524D01*
X50156619Y-62174286D01*
X50156619Y-61983809D01*
X50204238Y-61888571D01*
X50251857Y-61840952D01*
X50347095Y-61793333D01*
X51156619Y-61793333D01*
X50537571Y-61317143D02*
X50537571Y-60555238D01*
X50156619Y-60079048D02*
X51156619Y-60079048D01*
X50680429Y-60079048D02*
X50680429Y-59507619D01*
X50156619Y-59507619D02*
X51156619Y-59507619D01*
X51156619Y-58840953D02*
X51156619Y-58650476D01*
X51109000Y-58555238D01*
X51013762Y-58460000D01*
X50823286Y-58412381D01*
X50489952Y-58412381D01*
X50299476Y-58460000D01*
X50204238Y-58555238D01*
X50156619Y-58650476D01*
X50156619Y-58840953D01*
X50204238Y-58936191D01*
X50299476Y-59031429D01*
X50489952Y-59079048D01*
X50823286Y-59079048D01*
X51013762Y-59031429D01*
X51109000Y-58936191D01*
X51156619Y-58840953D01*
X50156619Y-57507619D02*
X50156619Y-57983810D01*
X51156619Y-57983810D01*
X50680429Y-57174286D02*
X50680429Y-56840952D01*
X50156619Y-56698095D02*
X50156619Y-57174286D01*
X51156619Y-57174286D01*
X51156619Y-56698095D01*
X49030429Y-67650476D02*
X48982810Y-67507619D01*
X48935190Y-67460000D01*
X48839952Y-67412381D01*
X48697095Y-67412381D01*
X48601857Y-67460000D01*
X48554238Y-67507619D01*
X48506619Y-67602857D01*
X48506619Y-67983810D01*
X49506619Y-67983810D01*
X49506619Y-67650476D01*
X49459000Y-67555238D01*
X49411381Y-67507619D01*
X49316143Y-67460000D01*
X49220905Y-67460000D01*
X49125667Y-67507619D01*
X49078048Y-67555238D01*
X49030429Y-67650476D01*
X49030429Y-67983810D01*
X48792333Y-67031429D02*
X48792333Y-66555238D01*
X48506619Y-67126667D02*
X49506619Y-66793334D01*
X48506619Y-66460000D01*
X48554238Y-66174286D02*
X48506619Y-66031429D01*
X48506619Y-65793333D01*
X48554238Y-65698095D01*
X48601857Y-65650476D01*
X48697095Y-65602857D01*
X48792333Y-65602857D01*
X48887571Y-65650476D01*
X48935190Y-65698095D01*
X48982810Y-65793333D01*
X49030429Y-65983810D01*
X49078048Y-66079048D01*
X49125667Y-66126667D01*
X49220905Y-66174286D01*
X49316143Y-66174286D01*
X49411381Y-66126667D01*
X49459000Y-66079048D01*
X49506619Y-65983810D01*
X49506619Y-65745714D01*
X49459000Y-65602857D01*
X49030429Y-65174286D02*
X49030429Y-64840952D01*
X48506619Y-64698095D02*
X48506619Y-65174286D01*
X49506619Y-65174286D01*
X49506619Y-64698095D01*
X48506619Y-64269524D02*
X49506619Y-64269524D01*
X49506619Y-64031429D01*
X49459000Y-63888571D01*
X49363762Y-63793333D01*
X49268524Y-63745714D01*
X49078048Y-63698095D01*
X48935190Y-63698095D01*
X48744714Y-63745714D01*
X48649476Y-63793333D01*
X48554238Y-63888571D01*
X48506619Y-64031429D01*
X48506619Y-64269524D01*
X49506619Y-62317143D02*
X49506619Y-62126666D01*
X49459000Y-62031428D01*
X49363762Y-61936190D01*
X49173286Y-61888571D01*
X48839952Y-61888571D01*
X48649476Y-61936190D01*
X48554238Y-62031428D01*
X48506619Y-62126666D01*
X48506619Y-62317143D01*
X48554238Y-62412381D01*
X48649476Y-62507619D01*
X48839952Y-62555238D01*
X49173286Y-62555238D01*
X49363762Y-62507619D01*
X49459000Y-62412381D01*
X49506619Y-62317143D01*
X48506619Y-61460000D02*
X49506619Y-61460000D01*
X48506619Y-60888571D01*
X49506619Y-60888571D01*
X48554238Y-59698095D02*
X48506619Y-59555238D01*
X48506619Y-59317142D01*
X48554238Y-59221904D01*
X48601857Y-59174285D01*
X48697095Y-59126666D01*
X48792333Y-59126666D01*
X48887571Y-59174285D01*
X48935190Y-59221904D01*
X48982810Y-59317142D01*
X49030429Y-59507619D01*
X49078048Y-59602857D01*
X49125667Y-59650476D01*
X49220905Y-59698095D01*
X49316143Y-59698095D01*
X49411381Y-59650476D01*
X49459000Y-59602857D01*
X49506619Y-59507619D01*
X49506619Y-59269523D01*
X49459000Y-59126666D01*
X49506619Y-58031428D02*
X48506619Y-57793333D01*
X49220905Y-57602856D01*
X48506619Y-57412380D01*
X49506619Y-57174285D01*
X48792333Y-56840952D02*
X48792333Y-56364761D01*
X48506619Y-56936190D02*
X49506619Y-56602857D01*
X48506619Y-56269523D01*
X48506619Y-55364761D02*
X48982810Y-55698095D01*
X48506619Y-55936190D02*
X49506619Y-55936190D01*
X49506619Y-55555237D01*
X49459000Y-55459999D01*
X49411381Y-55412380D01*
X49316143Y-55364761D01*
X49173286Y-55364761D01*
X49078048Y-55412380D01*
X49030429Y-55459999D01*
X48982810Y-55555237D01*
X48982810Y-55936190D01*
X48506619Y-54936190D02*
X49506619Y-54936190D01*
X49506619Y-54698095D01*
X49459000Y-54555237D01*
X49363762Y-54459999D01*
X49268524Y-54412380D01*
X49078048Y-54364761D01*
X48935190Y-54364761D01*
X48744714Y-54412380D01*
X48649476Y-54459999D01*
X48554238Y-54555237D01*
X48506619Y-54698095D01*
X48506619Y-54936190D01*
X48554238Y-53888571D02*
X48506619Y-53888571D01*
X48411381Y-53936190D01*
X48363762Y-53983809D01*
X47856619Y-69340952D02*
X47142333Y-69340952D01*
X46999476Y-69388572D01*
X46904238Y-69483810D01*
X46856619Y-69626667D01*
X46856619Y-69721905D01*
X46856619Y-68102857D02*
X47856619Y-68102857D01*
X46856619Y-67531428D02*
X47428048Y-67960000D01*
X47856619Y-67531428D02*
X47285190Y-68102857D01*
X47380429Y-67102857D02*
X47380429Y-66769523D01*
X46856619Y-66626666D02*
X46856619Y-67102857D01*
X47856619Y-67102857D01*
X47856619Y-66626666D01*
X46856619Y-65626666D02*
X47332810Y-65960000D01*
X46856619Y-66198095D02*
X47856619Y-66198095D01*
X47856619Y-65817142D01*
X47809000Y-65721904D01*
X47761381Y-65674285D01*
X47666143Y-65626666D01*
X47523286Y-65626666D01*
X47428048Y-65674285D01*
X47380429Y-65721904D01*
X47332810Y-65817142D01*
X47332810Y-66198095D01*
X46856619Y-64626666D02*
X47332810Y-64960000D01*
X46856619Y-65198095D02*
X47856619Y-65198095D01*
X47856619Y-64817142D01*
X47809000Y-64721904D01*
X47761381Y-64674285D01*
X47666143Y-64626666D01*
X47523286Y-64626666D01*
X47428048Y-64674285D01*
X47380429Y-64721904D01*
X47332810Y-64817142D01*
X47332810Y-65198095D01*
X46856619Y-64198095D02*
X47856619Y-64198095D01*
X46856619Y-63721905D02*
X47856619Y-63721905D01*
X46856619Y-63150476D01*
X47856619Y-63150476D01*
X46856619Y-62674286D02*
X47856619Y-62674286D01*
X46856619Y-62102857D01*
X47856619Y-62102857D01*
X47380429Y-61626667D02*
X47380429Y-61293333D01*
X46856619Y-61150476D02*
X46856619Y-61626667D01*
X47856619Y-61626667D01*
X47856619Y-61150476D01*
X46904238Y-60769524D02*
X46856619Y-60626667D01*
X46856619Y-60388571D01*
X46904238Y-60293333D01*
X46951857Y-60245714D01*
X47047095Y-60198095D01*
X47142333Y-60198095D01*
X47237571Y-60245714D01*
X47285190Y-60293333D01*
X47332810Y-60388571D01*
X47380429Y-60579048D01*
X47428048Y-60674286D01*
X47475667Y-60721905D01*
X47570905Y-60769524D01*
X47666143Y-60769524D01*
X47761381Y-60721905D01*
X47809000Y-60674286D01*
X47856619Y-60579048D01*
X47856619Y-60340952D01*
X47809000Y-60198095D01*
X46904238Y-59721905D02*
X46856619Y-59721905D01*
X46761381Y-59769524D01*
X46713762Y-59817143D01*
X46856619Y-58531429D02*
X47856619Y-58531429D01*
X47856619Y-58293334D01*
X47809000Y-58150476D01*
X47713762Y-58055238D01*
X47618524Y-58007619D01*
X47428048Y-57960000D01*
X47285190Y-57960000D01*
X47094714Y-58007619D01*
X46999476Y-58055238D01*
X46904238Y-58150476D01*
X46856619Y-58293334D01*
X46856619Y-58531429D01*
X46856619Y-56769524D02*
X47856619Y-56769524D01*
X47142333Y-56436190D01*
X47856619Y-56102857D01*
X46856619Y-56102857D01*
X47142333Y-55674286D02*
X47142333Y-55198095D01*
X46856619Y-55769524D02*
X47856619Y-55436191D01*
X46856619Y-55102857D01*
X46856619Y-54198095D02*
X47332810Y-54531429D01*
X46856619Y-54769524D02*
X47856619Y-54769524D01*
X47856619Y-54388571D01*
X47809000Y-54293333D01*
X47761381Y-54245714D01*
X47666143Y-54198095D01*
X47523286Y-54198095D01*
X47428048Y-54245714D01*
X47380429Y-54293333D01*
X47332810Y-54388571D01*
X47332810Y-54769524D01*
X46856619Y-53769524D02*
X47856619Y-53769524D01*
X46856619Y-53198095D02*
X47428048Y-53626667D01*
X47856619Y-53198095D02*
X47285190Y-53769524D01*
X46904238Y-52817143D02*
X46856619Y-52674286D01*
X46856619Y-52436190D01*
X46904238Y-52340952D01*
X46951857Y-52293333D01*
X47047095Y-52245714D01*
X47142333Y-52245714D01*
X47237571Y-52293333D01*
X47285190Y-52340952D01*
X47332810Y-52436190D01*
X47380429Y-52626667D01*
X47428048Y-52721905D01*
X47475667Y-52769524D01*
X47570905Y-52817143D01*
X47666143Y-52817143D01*
X47761381Y-52769524D01*
X47809000Y-52721905D01*
X47856619Y-52626667D01*
X47856619Y-52388571D01*
X47809000Y-52245714D01*
M02*
