M48
;DRILL file {KiCad 4.0.7} date 04/22/18 09:32:24
;FORMAT={-:-/ absolute / metric / decimal}
FMAT,2
METRIC,TZ
T1C0.400
T2C0.600
T3C0.762
T4C0.800
T5C0.900
T6C1.000
T7C1.100
T8C1.200
T9C1.300
T10C1.400
T11C1.520
T12C1.800
T13C3.048
T14C4.000
%
G90
G05
M71
T1
X94.234Y-94.234
X94.742Y-116.332
X98.552Y-126.746
X101.854Y-92.456
X104.14Y-104.14
X104.648Y-110.236
X104.902Y-88.646
X105.664Y-97.282
X106.172Y-89.408
X107.188Y-103.378
X107.442Y-94.996
X107.95Y-108.204
X108.458Y-110.236
X111.252Y-97.536
X113.284Y-125.222
T2
X114.808Y-128.778
X116.078Y-127.508
X116.078Y-130.048
X119.634Y-115.062
X120.904Y-113.792
X120.904Y-116.332
T3
X60.96Y-135.382
X60.96Y-137.922
X63.5Y-135.382
X63.5Y-137.922
X66.04Y-135.382
X66.04Y-137.922
X68.58Y-135.382
X68.58Y-137.922
X77.856Y-139.192
X79.756Y-139.192
X81.656Y-139.192
T4
X58.674Y-117.602
X58.674Y-125.222
X61.294Y-76.708
X61.468Y-119.126
X65.278Y-80.518
X65.278Y-88.138
X65.532Y-90.678
X65.532Y-95.678
X66.294Y-76.708
X66.468Y-119.126
X68.834Y-94.742
X68.834Y-118.618
X69.342Y-83.82
X69.342Y-91.44
X70.358Y-121.92
X72.898Y-83.82
X72.898Y-91.44
X73.834Y-94.742
X75.358Y-121.92
X76.2Y-94.488
X76.454Y-118.618
X77.042Y-125.984
X77.47Y-98.806
X80.01Y-98.806
X80.518Y-114.046
X82.042Y-125.984
X82.296Y-73.66
X82.296Y-81.28
X82.55Y-83.82
X82.55Y-91.44
X82.55Y-98.806
X83.566Y-117.428
X83.566Y-122.428
X83.82Y-94.488
X85.852Y-73.66
X85.852Y-81.28
X86.868Y-84.074
X86.868Y-86.614
X86.868Y-89.154
X86.868Y-91.694
X87.376Y-94.996
X87.376Y-99.996
X87.376Y-117.348
X87.376Y-124.968
X87.884Y-140.97
X88.138Y-114.046
X88.392Y-130.302
X88.392Y-137.922
X89.408Y-73.66
X89.408Y-81.28
X89.916Y-121.666
X90.504Y-114.3
X90.932Y-103.124
X90.932Y-105.664
X90.932Y-108.204
X90.932Y-110.744
X91.694Y-94.996
X91.694Y-99.996
X91.948Y-52.07
X91.948Y-59.69
X92.202Y-125.73
X92.202Y-133.35
X92.456Y-75.438
X92.536Y-80.01
X92.71Y-137.16
X94.488Y-84.074
X94.488Y-86.614
X94.488Y-89.154
X94.488Y-91.694
X94.742Y-125.73
X94.742Y-133.35
X95.504Y-114.3
X95.504Y-140.97
X97.282Y-125.73
X97.282Y-133.35
X97.456Y-75.438
X97.536Y-80.01
X97.536Y-121.666
X97.79Y-92.456
X97.79Y-100.076
X98.044Y-114.554
X98.552Y-103.124
X98.552Y-105.664
X98.552Y-108.204
X98.552Y-110.744
X98.806Y-83.566
X98.806Y-88.566
X99.822Y-125.73
X99.822Y-133.35
X100.33Y-137.16
X102.362Y-125.73
X102.362Y-133.35
X102.616Y-73.406
X102.616Y-75.946
X102.616Y-78.486
X102.616Y-81.026
X102.616Y-83.566
X102.616Y-86.106
X102.616Y-88.646
X102.616Y-96.266
X102.616Y-98.806
X102.616Y-101.346
X102.616Y-103.886
X102.616Y-106.426
X102.616Y-108.966
X102.616Y-111.506
X103.712Y-92.456
X104.648Y-118.11
X104.648Y-121.92
X104.902Y-125.73
X104.902Y-133.35
X105.664Y-114.554
X106.934Y-136.906
X107.442Y-125.73
X107.442Y-133.35
X107.95Y-140.716
X108.712Y-92.456
X110.236Y-73.406
X110.236Y-75.946
X110.236Y-78.486
X110.236Y-81.026
X110.236Y-83.566
X110.236Y-86.106
X110.236Y-88.646
X110.236Y-96.266
X110.236Y-98.806
X110.236Y-101.346
X110.236Y-103.886
X110.236Y-106.426
X110.236Y-108.966
X110.236Y-111.506
X110.744Y-133.604
X111.252Y-125.81
X111.252Y-130.81
X112.268Y-118.11
X112.268Y-121.92
X113.792Y-86.868
X113.792Y-89.408
X113.792Y-91.948
X113.792Y-94.488
X114.554Y-136.906
X115.57Y-140.716
X115.824Y-116.078
X115.824Y-123.698
X116.84Y-61.976
X118.364Y-133.604
X119.126Y-119.888
X119.888Y-104.394
X119.888Y-106.934
X119.888Y-109.474
X119.888Y-122.936
X119.888Y-130.556
X121.412Y-86.868
X121.412Y-89.408
X121.412Y-91.948
X121.412Y-94.488
X121.84Y-61.976
X122.682Y-127.
X122.682Y-130.302
X123.19Y-69.342
X123.19Y-74.342
X126.238Y-65.532
X126.238Y-97.536
X126.238Y-105.156
X126.238Y-109.474
X126.238Y-117.094
X126.746Y-119.888
X130.048Y-115.57
X130.048Y-120.57
X130.302Y-80.264
X130.302Y-127.
X130.302Y-130.302
X130.556Y-54.61
X130.556Y-62.23
X130.556Y-108.458
X130.556Y-113.458
X131.238Y-65.532
X135.302Y-80.264
T5
X52.07Y-128.524
X54.61Y-128.524
X118.618Y-139.192
X121.158Y-139.192
T6
X65.024Y-99.314
X66.668Y-67.31
X67.564Y-99.314
X70.358Y-52.578
X70.358Y-60.078
X72.39Y-113.792
X74.168Y-67.31
X74.93Y-113.792
X77.47Y-113.792
X77.724Y-83.94
X77.724Y-91.44
X77.844Y-65.786
X79.502Y-118.618
X79.502Y-121.158
X80.772Y-57.15
X83.312Y-57.15
X85.344Y-65.786
X85.852Y-57.15
X90.17Y-62.858
X90.17Y-70.358
X95.37Y-65.024
X98.806Y-140.97
X99.314Y-56.642
X101.346Y-140.97
X101.854Y-56.642
X102.87Y-65.024
X103.886Y-140.97
X104.394Y-56.642
X109.982Y-61.468
X109.982Y-68.968
X113.792Y-99.06
X114.046Y-75.692
X114.046Y-78.232
X114.046Y-80.772
X114.3Y-103.886
X114.3Y-106.426
X114.554Y-110.49
X114.554Y-113.03
X114.808Y-57.404
X116.586Y-75.692
X116.586Y-78.232
X116.586Y-80.772
X117.348Y-57.404
X119.888Y-57.404
X121.292Y-99.06
X126.238Y-123.698
X128.778Y-69.088
X128.778Y-76.588
X128.778Y-123.698
X133.47Y-120.904
X135.128Y-97.282
X135.128Y-99.822
X135.128Y-102.362
X135.128Y-109.22
X135.128Y-111.76
X135.128Y-114.3
X135.382Y-56.642
X135.382Y-59.182
X135.382Y-61.722
X135.382Y-68.58
X135.382Y-71.12
X135.382Y-73.66
X137.16Y-125.73
X137.16Y-133.23
X140.97Y-120.904
T7
X58.42Y-103.886
X58.42Y-107.442
X58.42Y-110.998
X58.42Y-114.808
X65.532Y-48.768
X68.58Y-103.886
X68.58Y-107.442
X68.58Y-110.998
X68.58Y-114.808
X68.834Y-75.692
X68.834Y-79.502
X75.692Y-48.768
X77.47Y-52.324
X78.994Y-75.692
X78.994Y-79.502
X87.63Y-52.324
X90.424Y-118.11
X96.266Y-52.324
X100.584Y-118.11
X106.426Y-52.324
X109.728Y-52.832
X119.888Y-52.832
X126.492Y-51.816
X126.492Y-61.976
X130.556Y-95.504
X130.556Y-105.664
T8
X59.944Y-80.01
X59.944Y-100.33
X72.136Y-104.14
X72.136Y-109.728
X87.376Y-104.14
X87.376Y-109.728
X125.984Y-79.502
X125.984Y-94.742
T9
X61.976Y-55.312
X61.976Y-60.412
X61.976Y-65.512
X61.976Y-70.612
T10
X49.606Y-104.14
X49.606Y-108.636
X54.102Y-104.14
X54.102Y-106.388
X54.102Y-108.636
T11
X52.578Y-60.706
X52.578Y-65.786
X52.578Y-71.374
X52.578Y-76.454
X52.578Y-82.296
X52.578Y-87.376
X52.578Y-93.218
X52.578Y-98.298
X52.578Y-115.316
X52.578Y-120.396
X125.984Y-139.192
X131.064Y-139.192
X133.35Y-85.852
X133.35Y-90.932
T13
X50.Y-50.
X50.Y-140.
X140.Y-50.
X140.Y-140.
T4
X52.704Y-102.77G85X51.004Y-102.77
G05
X52.704Y-110.01G85X51.004Y-110.01
G05
T12
X77.566Y-141.732G85X76.866Y-141.732
G05
X82.646Y-141.732G85X81.946Y-141.732
G05
T14
X79.756Y-134.112G85X79.756Y-134.112
G05
T0
M30
