G04 #@! TF.FileFunction,Legend,Bot*
%FSLAX46Y46*%
G04 Gerber Fmt 4.6, Leading zero omitted, Abs format (unit mm)*
G04 Created by KiCad (PCBNEW 4.0.7) date 04/22/18 09:32:22*
%MOMM*%
%LPD*%
G01*
G04 APERTURE LIST*
%ADD10C,0.100000*%
%ADD11C,0.150000*%
G04 APERTURE END LIST*
D10*
D11*
X140834619Y-105931620D02*
X141834619Y-105931620D01*
X141834619Y-105693525D01*
X141787000Y-105550667D01*
X141691762Y-105455429D01*
X141596524Y-105407810D01*
X141406048Y-105360191D01*
X141263190Y-105360191D01*
X141072714Y-105407810D01*
X140977476Y-105455429D01*
X140882238Y-105550667D01*
X140834619Y-105693525D01*
X140834619Y-105931620D01*
X140834619Y-104360191D02*
X141310810Y-104693525D01*
X140834619Y-104931620D02*
X141834619Y-104931620D01*
X141834619Y-104550667D01*
X141787000Y-104455429D01*
X141739381Y-104407810D01*
X141644143Y-104360191D01*
X141501286Y-104360191D01*
X141406048Y-104407810D01*
X141358429Y-104455429D01*
X141310810Y-104550667D01*
X141310810Y-104931620D01*
X140882238Y-103979239D02*
X140834619Y-103836382D01*
X140834619Y-103598286D01*
X140882238Y-103503048D01*
X140929857Y-103455429D01*
X141025095Y-103407810D01*
X141120333Y-103407810D01*
X141215571Y-103455429D01*
X141263190Y-103503048D01*
X141310810Y-103598286D01*
X141358429Y-103788763D01*
X141406048Y-103884001D01*
X141453667Y-103931620D01*
X141548905Y-103979239D01*
X141644143Y-103979239D01*
X141739381Y-103931620D01*
X141787000Y-103884001D01*
X141834619Y-103788763D01*
X141834619Y-103550667D01*
X141787000Y-103407810D01*
X140882238Y-103026858D02*
X140834619Y-102884001D01*
X140834619Y-102645905D01*
X140882238Y-102550667D01*
X140929857Y-102503048D01*
X141025095Y-102455429D01*
X141120333Y-102455429D01*
X141215571Y-102503048D01*
X141263190Y-102550667D01*
X141310810Y-102645905D01*
X141358429Y-102836382D01*
X141406048Y-102931620D01*
X141453667Y-102979239D01*
X141548905Y-103026858D01*
X141644143Y-103026858D01*
X141739381Y-102979239D01*
X141787000Y-102931620D01*
X141834619Y-102836382D01*
X141834619Y-102598286D01*
X141787000Y-102455429D01*
X141834619Y-102169715D02*
X141834619Y-101598286D01*
X140834619Y-101884001D02*
X141834619Y-101884001D01*
X140929857Y-100693524D02*
X140882238Y-100741143D01*
X140834619Y-100884000D01*
X140834619Y-100979238D01*
X140882238Y-101122096D01*
X140977476Y-101217334D01*
X141072714Y-101264953D01*
X141263190Y-101312572D01*
X141406048Y-101312572D01*
X141596524Y-101264953D01*
X141691762Y-101217334D01*
X141787000Y-101122096D01*
X141834619Y-100979238D01*
X141834619Y-100884000D01*
X141787000Y-100741143D01*
X141739381Y-100693524D01*
X141834619Y-99503048D02*
X141025095Y-99503048D01*
X140929857Y-99455429D01*
X140882238Y-99407810D01*
X140834619Y-99312572D01*
X140834619Y-99122095D01*
X140882238Y-99026857D01*
X140929857Y-98979238D01*
X141025095Y-98931619D01*
X141834619Y-98931619D01*
X140834619Y-98455429D02*
X141834619Y-98455429D01*
X141834619Y-98217334D01*
X141787000Y-98074476D01*
X141691762Y-97979238D01*
X141596524Y-97931619D01*
X141406048Y-97884000D01*
X141263190Y-97884000D01*
X141072714Y-97931619D01*
X140977476Y-97979238D01*
X140882238Y-98074476D01*
X140834619Y-98217334D01*
X140834619Y-98455429D01*
X141739381Y-97503048D02*
X141787000Y-97455429D01*
X141834619Y-97360191D01*
X141834619Y-97122095D01*
X141787000Y-97026857D01*
X141739381Y-96979238D01*
X141644143Y-96931619D01*
X141548905Y-96931619D01*
X141406048Y-96979238D01*
X140834619Y-97550667D01*
X140834619Y-96931619D01*
X140929857Y-96503048D02*
X140882238Y-96455429D01*
X140834619Y-96503048D01*
X140882238Y-96550667D01*
X140929857Y-96503048D01*
X140834619Y-96503048D01*
X140834619Y-95979239D02*
X140834619Y-95788763D01*
X140882238Y-95693524D01*
X140929857Y-95645905D01*
X141072714Y-95550667D01*
X141263190Y-95503048D01*
X141644143Y-95503048D01*
X141739381Y-95550667D01*
X141787000Y-95598286D01*
X141834619Y-95693524D01*
X141834619Y-95884001D01*
X141787000Y-95979239D01*
X141739381Y-96026858D01*
X141644143Y-96074477D01*
X141406048Y-96074477D01*
X141310810Y-96026858D01*
X141263190Y-95979239D01*
X141215571Y-95884001D01*
X141215571Y-95693524D01*
X141263190Y-95598286D01*
X141310810Y-95550667D01*
X141406048Y-95503048D01*
X140882238Y-94360191D02*
X140834619Y-94217334D01*
X140834619Y-93979238D01*
X140882238Y-93884000D01*
X140929857Y-93836381D01*
X141025095Y-93788762D01*
X141120333Y-93788762D01*
X141215571Y-93836381D01*
X141263190Y-93884000D01*
X141310810Y-93979238D01*
X141358429Y-94169715D01*
X141406048Y-94264953D01*
X141453667Y-94312572D01*
X141548905Y-94360191D01*
X141644143Y-94360191D01*
X141739381Y-94312572D01*
X141787000Y-94264953D01*
X141834619Y-94169715D01*
X141834619Y-93931619D01*
X141787000Y-93788762D01*
X140834619Y-93360191D02*
X141834619Y-93360191D01*
X140834619Y-92788762D02*
X141406048Y-93217334D01*
X141834619Y-92788762D02*
X141263190Y-93360191D01*
X140834619Y-92360191D02*
X141834619Y-92360191D01*
X140834619Y-91884001D02*
X141834619Y-91884001D01*
X141834619Y-91503048D01*
X141787000Y-91407810D01*
X141739381Y-91360191D01*
X141644143Y-91312572D01*
X141501286Y-91312572D01*
X141406048Y-91360191D01*
X141358429Y-91407810D01*
X141310810Y-91503048D01*
X141310810Y-91884001D01*
X140834619Y-90122096D02*
X141834619Y-90122096D01*
X141834619Y-89741143D01*
X141787000Y-89645905D01*
X141739381Y-89598286D01*
X141644143Y-89550667D01*
X141501286Y-89550667D01*
X141406048Y-89598286D01*
X141358429Y-89645905D01*
X141310810Y-89741143D01*
X141310810Y-90122096D01*
X141834619Y-89122096D02*
X141025095Y-89122096D01*
X140929857Y-89074477D01*
X140882238Y-89026858D01*
X140834619Y-88931620D01*
X140834619Y-88741143D01*
X140882238Y-88645905D01*
X140929857Y-88598286D01*
X141025095Y-88550667D01*
X141834619Y-88550667D01*
X140834619Y-87598286D02*
X140834619Y-88074477D01*
X141834619Y-88074477D01*
X140882238Y-87312572D02*
X140834619Y-87169715D01*
X140834619Y-86931619D01*
X140882238Y-86836381D01*
X140929857Y-86788762D01*
X141025095Y-86741143D01*
X141120333Y-86741143D01*
X141215571Y-86788762D01*
X141263190Y-86836381D01*
X141310810Y-86931619D01*
X141358429Y-87122096D01*
X141406048Y-87217334D01*
X141453667Y-87264953D01*
X141548905Y-87312572D01*
X141644143Y-87312572D01*
X141739381Y-87264953D01*
X141787000Y-87217334D01*
X141834619Y-87122096D01*
X141834619Y-86884000D01*
X141787000Y-86741143D01*
X141358429Y-86312572D02*
X141358429Y-85979238D01*
X140834619Y-85836381D02*
X140834619Y-86312572D01*
X141834619Y-86312572D01*
X141834619Y-85836381D01*
X141358429Y-84312571D02*
X141310810Y-84169714D01*
X141263190Y-84122095D01*
X141167952Y-84074476D01*
X141025095Y-84074476D01*
X140929857Y-84122095D01*
X140882238Y-84169714D01*
X140834619Y-84264952D01*
X140834619Y-84645905D01*
X141834619Y-84645905D01*
X141834619Y-84312571D01*
X141787000Y-84217333D01*
X141739381Y-84169714D01*
X141644143Y-84122095D01*
X141548905Y-84122095D01*
X141453667Y-84169714D01*
X141406048Y-84217333D01*
X141358429Y-84312571D01*
X141358429Y-84645905D01*
X141120333Y-83693524D02*
X141120333Y-83217333D01*
X140834619Y-83788762D02*
X141834619Y-83455429D01*
X140834619Y-83122095D01*
X140882238Y-82836381D02*
X140834619Y-82693524D01*
X140834619Y-82455428D01*
X140882238Y-82360190D01*
X140929857Y-82312571D01*
X141025095Y-82264952D01*
X141120333Y-82264952D01*
X141215571Y-82312571D01*
X141263190Y-82360190D01*
X141310810Y-82455428D01*
X141358429Y-82645905D01*
X141406048Y-82741143D01*
X141453667Y-82788762D01*
X141548905Y-82836381D01*
X141644143Y-82836381D01*
X141739381Y-82788762D01*
X141787000Y-82741143D01*
X141834619Y-82645905D01*
X141834619Y-82407809D01*
X141787000Y-82264952D01*
X141358429Y-81836381D02*
X141358429Y-81503047D01*
X140834619Y-81360190D02*
X140834619Y-81836381D01*
X141834619Y-81836381D01*
X141834619Y-81360190D01*
X140834619Y-80931619D02*
X141834619Y-80931619D01*
X141834619Y-80693524D01*
X141787000Y-80550666D01*
X141691762Y-80455428D01*
X141596524Y-80407809D01*
X141406048Y-80360190D01*
X141263190Y-80360190D01*
X141072714Y-80407809D01*
X140977476Y-80455428D01*
X140882238Y-80550666D01*
X140834619Y-80693524D01*
X140834619Y-80931619D01*
X141834619Y-78979238D02*
X141834619Y-78788761D01*
X141787000Y-78693523D01*
X141691762Y-78598285D01*
X141501286Y-78550666D01*
X141167952Y-78550666D01*
X140977476Y-78598285D01*
X140882238Y-78693523D01*
X140834619Y-78788761D01*
X140834619Y-78979238D01*
X140882238Y-79074476D01*
X140977476Y-79169714D01*
X141167952Y-79217333D01*
X141501286Y-79217333D01*
X141691762Y-79169714D01*
X141787000Y-79074476D01*
X141834619Y-78979238D01*
X140834619Y-78122095D02*
X141834619Y-78122095D01*
X140834619Y-77550666D01*
X141834619Y-77550666D01*
X140882238Y-76360190D02*
X140834619Y-76217333D01*
X140834619Y-75979237D01*
X140882238Y-75883999D01*
X140929857Y-75836380D01*
X141025095Y-75788761D01*
X141120333Y-75788761D01*
X141215571Y-75836380D01*
X141263190Y-75883999D01*
X141310810Y-75979237D01*
X141358429Y-76169714D01*
X141406048Y-76264952D01*
X141453667Y-76312571D01*
X141548905Y-76360190D01*
X141644143Y-76360190D01*
X141739381Y-76312571D01*
X141787000Y-76264952D01*
X141834619Y-76169714D01*
X141834619Y-75931618D01*
X141787000Y-75788761D01*
X141834619Y-74693523D02*
X140834619Y-74455428D01*
X141548905Y-74264951D01*
X140834619Y-74074475D01*
X141834619Y-73836380D01*
X141120333Y-73503047D02*
X141120333Y-73026856D01*
X140834619Y-73598285D02*
X141834619Y-73264952D01*
X140834619Y-72931618D01*
X140834619Y-72026856D02*
X141310810Y-72360190D01*
X140834619Y-72598285D02*
X141834619Y-72598285D01*
X141834619Y-72217332D01*
X141787000Y-72122094D01*
X141739381Y-72074475D01*
X141644143Y-72026856D01*
X141501286Y-72026856D01*
X141406048Y-72074475D01*
X141358429Y-72122094D01*
X141310810Y-72217332D01*
X141310810Y-72598285D01*
X140834619Y-71598285D02*
X141834619Y-71598285D01*
X141834619Y-71360190D01*
X141787000Y-71217332D01*
X141691762Y-71122094D01*
X141596524Y-71074475D01*
X141406048Y-71026856D01*
X141263190Y-71026856D01*
X141072714Y-71074475D01*
X140977476Y-71122094D01*
X140882238Y-71217332D01*
X140834619Y-71360190D01*
X140834619Y-71598285D01*
X140882238Y-70550666D02*
X140834619Y-70550666D01*
X140739381Y-70598285D01*
X140691762Y-70645904D01*
X139708429Y-102026857D02*
X139708429Y-101693523D01*
X139184619Y-101550666D02*
X139184619Y-102026857D01*
X140184619Y-102026857D01*
X140184619Y-101550666D01*
X140137000Y-99836380D02*
X140184619Y-99931618D01*
X140184619Y-100074475D01*
X140137000Y-100217333D01*
X140041762Y-100312571D01*
X139946524Y-100360190D01*
X139756048Y-100407809D01*
X139613190Y-100407809D01*
X139422714Y-100360190D01*
X139327476Y-100312571D01*
X139232238Y-100217333D01*
X139184619Y-100074475D01*
X139184619Y-99979237D01*
X139232238Y-99836380D01*
X139279857Y-99788761D01*
X139613190Y-99788761D01*
X139613190Y-99979237D01*
X140184619Y-99169714D02*
X140184619Y-98979237D01*
X140137000Y-98883999D01*
X140041762Y-98788761D01*
X139851286Y-98741142D01*
X139517952Y-98741142D01*
X139327476Y-98788761D01*
X139232238Y-98883999D01*
X139184619Y-98979237D01*
X139184619Y-99169714D01*
X139232238Y-99264952D01*
X139327476Y-99360190D01*
X139517952Y-99407809D01*
X139851286Y-99407809D01*
X140041762Y-99360190D01*
X140137000Y-99264952D01*
X140184619Y-99169714D01*
X140184619Y-98122095D02*
X140184619Y-97931618D01*
X140137000Y-97836380D01*
X140041762Y-97741142D01*
X139851286Y-97693523D01*
X139517952Y-97693523D01*
X139327476Y-97741142D01*
X139232238Y-97836380D01*
X139184619Y-97931618D01*
X139184619Y-98122095D01*
X139232238Y-98217333D01*
X139327476Y-98312571D01*
X139517952Y-98360190D01*
X139851286Y-98360190D01*
X140041762Y-98312571D01*
X140137000Y-98217333D01*
X140184619Y-98122095D01*
X139184619Y-97264952D02*
X140184619Y-97264952D01*
X140184619Y-97026857D01*
X140137000Y-96883999D01*
X140041762Y-96788761D01*
X139946524Y-96741142D01*
X139756048Y-96693523D01*
X139613190Y-96693523D01*
X139422714Y-96741142D01*
X139327476Y-96788761D01*
X139232238Y-96883999D01*
X139184619Y-97026857D01*
X139184619Y-97264952D01*
X139279857Y-95693523D02*
X139232238Y-95741142D01*
X139184619Y-95883999D01*
X139184619Y-95979237D01*
X139232238Y-96122095D01*
X139327476Y-96217333D01*
X139422714Y-96264952D01*
X139613190Y-96312571D01*
X139756048Y-96312571D01*
X139946524Y-96264952D01*
X140041762Y-96217333D01*
X140137000Y-96122095D01*
X140184619Y-95979237D01*
X140184619Y-95883999D01*
X140137000Y-95741142D01*
X140089381Y-95693523D01*
X139184619Y-95264952D02*
X140184619Y-95264952D01*
X139708429Y-95264952D02*
X139708429Y-94693523D01*
X139184619Y-94693523D02*
X140184619Y-94693523D01*
X139184619Y-94217333D02*
X140184619Y-94217333D01*
X139184619Y-93264952D02*
X139184619Y-93741143D01*
X140184619Y-93741143D01*
X139184619Y-92931619D02*
X140184619Y-92931619D01*
X140184619Y-92693524D01*
X140137000Y-92550666D01*
X140041762Y-92455428D01*
X139946524Y-92407809D01*
X139756048Y-92360190D01*
X139613190Y-92360190D01*
X139422714Y-92407809D01*
X139327476Y-92455428D01*
X139232238Y-92550666D01*
X139184619Y-92693524D01*
X139184619Y-92931619D01*
X139232238Y-91884000D02*
X139184619Y-91884000D01*
X139089381Y-91931619D01*
X139041762Y-91979238D01*
X140137000Y-90169714D02*
X140184619Y-90264952D01*
X140184619Y-90407809D01*
X140137000Y-90550667D01*
X140041762Y-90645905D01*
X139946524Y-90693524D01*
X139756048Y-90741143D01*
X139613190Y-90741143D01*
X139422714Y-90693524D01*
X139327476Y-90645905D01*
X139232238Y-90550667D01*
X139184619Y-90407809D01*
X139184619Y-90312571D01*
X139232238Y-90169714D01*
X139279857Y-90122095D01*
X139613190Y-90122095D01*
X139613190Y-90312571D01*
X140137000Y-88407809D02*
X140184619Y-88503047D01*
X140184619Y-88645904D01*
X140137000Y-88788762D01*
X140041762Y-88884000D01*
X139946524Y-88931619D01*
X139756048Y-88979238D01*
X139613190Y-88979238D01*
X139422714Y-88931619D01*
X139327476Y-88884000D01*
X139232238Y-88788762D01*
X139184619Y-88645904D01*
X139184619Y-88550666D01*
X139232238Y-88407809D01*
X139279857Y-88360190D01*
X139613190Y-88360190D01*
X139613190Y-88550666D01*
X140184619Y-87931619D02*
X139375095Y-87931619D01*
X139279857Y-87884000D01*
X139232238Y-87836381D01*
X139184619Y-87741143D01*
X139184619Y-87550666D01*
X139232238Y-87455428D01*
X139279857Y-87407809D01*
X139375095Y-87360190D01*
X140184619Y-87360190D01*
X139470333Y-86931619D02*
X139470333Y-86455428D01*
X139184619Y-87026857D02*
X140184619Y-86693524D01*
X139184619Y-86360190D01*
X139184619Y-86026857D02*
X140184619Y-86026857D01*
X139184619Y-85455428D01*
X140184619Y-85455428D01*
X140137000Y-84455428D02*
X140184619Y-84550666D01*
X140184619Y-84693523D01*
X140137000Y-84836381D01*
X140041762Y-84931619D01*
X139946524Y-84979238D01*
X139756048Y-85026857D01*
X139613190Y-85026857D01*
X139422714Y-84979238D01*
X139327476Y-84931619D01*
X139232238Y-84836381D01*
X139184619Y-84693523D01*
X139184619Y-84598285D01*
X139232238Y-84455428D01*
X139279857Y-84407809D01*
X139613190Y-84407809D01*
X139613190Y-84598285D01*
X139660810Y-83788762D02*
X139184619Y-83788762D01*
X140184619Y-84122095D02*
X139660810Y-83788762D01*
X140184619Y-83455428D01*
X139470333Y-83169714D02*
X139470333Y-82693523D01*
X139184619Y-83264952D02*
X140184619Y-82931619D01*
X139184619Y-82598285D01*
X139184619Y-82264952D02*
X140184619Y-82264952D01*
X139184619Y-81693523D01*
X140184619Y-81693523D01*
X139232238Y-81169714D02*
X139184619Y-81169714D01*
X139089381Y-81217333D01*
X139041762Y-81264952D01*
X139184619Y-79979238D02*
X140184619Y-79979238D01*
X140184619Y-79741143D01*
X140137000Y-79598285D01*
X140041762Y-79503047D01*
X139946524Y-79455428D01*
X139756048Y-79407809D01*
X139613190Y-79407809D01*
X139422714Y-79455428D01*
X139327476Y-79503047D01*
X139232238Y-79598285D01*
X139184619Y-79741143D01*
X139184619Y-79979238D01*
X139184619Y-78217333D02*
X140184619Y-78217333D01*
X139470333Y-77883999D01*
X140184619Y-77550666D01*
X139184619Y-77550666D01*
X139470333Y-77122095D02*
X139470333Y-76645904D01*
X139184619Y-77217333D02*
X140184619Y-76884000D01*
X139184619Y-76550666D01*
X139184619Y-75645904D02*
X139660810Y-75979238D01*
X139184619Y-76217333D02*
X140184619Y-76217333D01*
X140184619Y-75836380D01*
X140137000Y-75741142D01*
X140089381Y-75693523D01*
X139994143Y-75645904D01*
X139851286Y-75645904D01*
X139756048Y-75693523D01*
X139708429Y-75741142D01*
X139660810Y-75836380D01*
X139660810Y-76217333D01*
X139184619Y-75217333D02*
X140184619Y-75217333D01*
X139184619Y-74645904D02*
X139756048Y-75074476D01*
X140184619Y-74645904D02*
X139613190Y-75217333D01*
X139232238Y-74264952D02*
X139184619Y-74122095D01*
X139184619Y-73883999D01*
X139232238Y-73788761D01*
X139279857Y-73741142D01*
X139375095Y-73693523D01*
X139470333Y-73693523D01*
X139565571Y-73741142D01*
X139613190Y-73788761D01*
X139660810Y-73883999D01*
X139708429Y-74074476D01*
X139756048Y-74169714D01*
X139803667Y-74217333D01*
X139898905Y-74264952D01*
X139994143Y-74264952D01*
X140089381Y-74217333D01*
X140137000Y-74169714D01*
X140184619Y-74074476D01*
X140184619Y-73836380D01*
X140137000Y-73693523D01*
M02*
