G04 #@! TF.FileFunction,Copper,L2,Bot,Signal*
%FSLAX46Y46*%
G04 Gerber Fmt 4.6, Leading zero omitted, Abs format (unit mm)*
G04 Created by KiCad (PCBNEW 4.0.7) date 05/25/18 19:59:14*
%MOMM*%
%LPD*%
G01*
G04 APERTURE LIST*
%ADD10C,0.100000*%
%ADD11R,1.700000X1.700000*%
%ADD12O,1.700000X1.700000*%
%ADD13O,2.500000X3.500000*%
%ADD14C,1.524000*%
%ADD15O,5.000000X5.000000*%
%ADD16R,1.800000X1.800000*%
%ADD17C,1.800000*%
%ADD18C,1.600000*%
%ADD19O,1.600000X1.600000*%
%ADD20C,2.500000*%
%ADD21R,3.500000X3.500000*%
%ADD22C,2.000000*%
%ADD23R,1.600000X1.600000*%
%ADD24C,4.064000*%
%ADD25R,3.000000X3.000000*%
%ADD26C,3.000000*%
%ADD27R,2.200000X2.200000*%
%ADD28O,2.200000X2.200000*%
%ADD29O,1.800000X1.800000*%
%ADD30C,1.520000*%
%ADD31C,2.700000*%
%ADD32C,0.600000*%
%ADD33C,0.500000*%
%ADD34C,0.350000*%
G04 APERTURE END LIST*
D10*
D11*
X78486000Y-55880000D03*
D12*
X78486000Y-53340000D03*
X81026000Y-55880000D03*
X81026000Y-53340000D03*
X83566000Y-55880000D03*
X83566000Y-53340000D03*
D13*
X24384000Y-83058000D03*
D14*
X26924000Y-79248000D03*
X26924000Y-81788000D03*
D13*
X24384000Y-77978000D03*
D15*
X32004000Y-80518000D03*
D16*
X91694000Y-67056000D03*
D17*
X91694000Y-64516000D03*
D18*
X53086000Y-120142000D03*
X53086000Y-125142000D03*
X64262000Y-133604000D03*
D19*
X51562000Y-133604000D03*
D20*
X88138000Y-134286000D03*
X88138000Y-139286000D03*
X88138000Y-129286000D03*
D21*
X37592000Y-134366000D03*
X31592000Y-134366000D03*
X34592000Y-139066000D03*
D22*
X43434000Y-138176000D03*
X43434000Y-132080000D03*
D18*
X83566000Y-95758000D03*
D19*
X83566000Y-108458000D03*
D18*
X78486000Y-129794000D03*
D19*
X78486000Y-142494000D03*
D18*
X79248000Y-107188000D03*
D19*
X79248000Y-94488000D03*
D18*
X79248000Y-78232000D03*
D19*
X79248000Y-90932000D03*
D18*
X75184000Y-86106000D03*
D19*
X75184000Y-73406000D03*
D18*
X38354000Y-103124000D03*
D19*
X38354000Y-90424000D03*
D20*
X87630000Y-116760000D03*
X87630000Y-121760000D03*
X87630000Y-111760000D03*
X87884000Y-98218000D03*
X87884000Y-103218000D03*
X87884000Y-93218000D03*
X88138000Y-78914000D03*
X88138000Y-83914000D03*
X88138000Y-73914000D03*
D23*
X59182000Y-100584000D03*
D19*
X66802000Y-92964000D03*
X61722000Y-100584000D03*
X64262000Y-92964000D03*
X64262000Y-100584000D03*
X61722000Y-92964000D03*
X66802000Y-100584000D03*
X59182000Y-92964000D03*
D23*
X63500000Y-78994000D03*
D19*
X71120000Y-71374000D03*
X66040000Y-78994000D03*
X68580000Y-71374000D03*
X68580000Y-78994000D03*
X66040000Y-71374000D03*
X71120000Y-78994000D03*
X63500000Y-71374000D03*
D24*
X27432000Y-147828000D03*
X27432000Y-55372000D03*
X90932000Y-147828000D03*
X90932000Y-55372000D03*
D25*
X27940000Y-109728000D03*
D26*
X27940000Y-114808000D03*
D22*
X76962000Y-111760000D03*
X76962000Y-117856000D03*
X76962000Y-123698000D03*
D18*
X54356000Y-96012000D03*
D19*
X41656000Y-96012000D03*
D18*
X51562000Y-129540000D03*
D19*
X64262000Y-129540000D03*
D18*
X38354000Y-115570000D03*
D19*
X38354000Y-128270000D03*
D18*
X41656000Y-100584000D03*
D19*
X54356000Y-100584000D03*
D25*
X27940000Y-125984000D03*
D26*
X27940000Y-120904000D03*
D23*
X52070000Y-116840000D03*
D19*
X67310000Y-109220000D03*
X54610000Y-116840000D03*
X64770000Y-109220000D03*
X57150000Y-116840000D03*
X62230000Y-109220000D03*
X59690000Y-116840000D03*
X59690000Y-109220000D03*
X62230000Y-116840000D03*
X57150000Y-109220000D03*
X64770000Y-116840000D03*
X54610000Y-109220000D03*
X67310000Y-116840000D03*
X52070000Y-109220000D03*
D18*
X34544000Y-112014000D03*
D19*
X34544000Y-99314000D03*
D25*
X28448000Y-91694000D03*
D26*
X28448000Y-96774000D03*
X28448000Y-101854000D03*
D18*
X73406000Y-93218000D03*
X73406000Y-98218000D03*
X66040000Y-105156000D03*
X61040000Y-105156000D03*
X69596000Y-105410000D03*
X74596000Y-105410000D03*
X60452000Y-68072000D03*
X60452000Y-63072000D03*
X78740000Y-74422000D03*
X83740000Y-74422000D03*
X48260000Y-82042000D03*
X53260000Y-82042000D03*
X68326000Y-129286000D03*
X68326000Y-134286000D03*
X41910000Y-125984000D03*
X46910000Y-125984000D03*
X34290000Y-115570000D03*
D19*
X34290000Y-128270000D03*
D18*
X71120000Y-114554000D03*
X71120000Y-109554000D03*
X84074000Y-113538000D03*
D19*
X84074000Y-126238000D03*
D18*
X58928000Y-89154000D03*
X58928000Y-84154000D03*
X83312000Y-93218000D03*
D19*
X83312000Y-80518000D03*
D18*
X58420000Y-124968000D03*
X58420000Y-119968000D03*
X42672000Y-116586000D03*
D19*
X42672000Y-103886000D03*
D18*
X46736000Y-116586000D03*
D19*
X46736000Y-103886000D03*
D27*
X75692000Y-88900000D03*
D28*
X68072000Y-88900000D03*
D27*
X50292000Y-104394000D03*
D28*
X57912000Y-104394000D03*
D27*
X70866000Y-120650000D03*
D28*
X63246000Y-120650000D03*
D27*
X70612000Y-124714000D03*
D28*
X62992000Y-124714000D03*
D27*
X50038000Y-147574000D03*
D28*
X50038000Y-137414000D03*
D27*
X53848000Y-147574000D03*
D28*
X53848000Y-137414000D03*
D27*
X45720000Y-144526000D03*
D28*
X35560000Y-144526000D03*
D27*
X45720000Y-148590000D03*
D28*
X35560000Y-148590000D03*
D27*
X57404000Y-147574000D03*
D28*
X57404000Y-137414000D03*
D27*
X61214000Y-147574000D03*
D28*
X61214000Y-137414000D03*
D18*
X74168000Y-142494000D03*
D19*
X74168000Y-129794000D03*
D18*
X83058000Y-129794000D03*
D19*
X83058000Y-142494000D03*
D16*
X72136000Y-147574000D03*
D29*
X69596000Y-147574000D03*
X67056000Y-147574000D03*
D18*
X48260000Y-76454000D03*
X53260000Y-76454000D03*
D11*
X56642000Y-79756000D03*
D12*
X56642000Y-77216000D03*
X56642000Y-74676000D03*
D18*
X66548000Y-84074000D03*
X71548000Y-84074000D03*
D11*
X63246000Y-83820000D03*
D12*
X63246000Y-86360000D03*
X63246000Y-88900000D03*
D27*
X34544000Y-88900000D03*
D28*
X34544000Y-96520000D03*
D27*
X42164000Y-90932000D03*
D28*
X49784000Y-90932000D03*
D30*
X39116000Y-64516000D03*
X39116000Y-67056000D03*
X37116000Y-67056000D03*
X37116000Y-64516000D03*
D31*
X34416000Y-59786000D03*
X34416000Y-71786000D03*
D22*
X61214000Y-57912000D03*
X66294000Y-57912000D03*
X71120000Y-57912000D03*
D18*
X43942000Y-71374000D03*
D19*
X43942000Y-84074000D03*
D18*
X51816000Y-59182000D03*
D19*
X51816000Y-71882000D03*
D18*
X56134000Y-58928000D03*
D19*
X56134000Y-71628000D03*
D18*
X39878000Y-87376000D03*
D19*
X52578000Y-87376000D03*
D27*
X43942000Y-58674000D03*
D28*
X43942000Y-68834000D03*
D27*
X48006000Y-71628000D03*
D28*
X48006000Y-61468000D03*
D23*
X75946000Y-69088000D03*
D19*
X83566000Y-61468000D03*
X78486000Y-69088000D03*
X81026000Y-61468000D03*
X81026000Y-69088000D03*
X78486000Y-61468000D03*
X83566000Y-69088000D03*
X75946000Y-61468000D03*
D23*
X67564000Y-141986000D03*
D18*
X67564000Y-139486000D03*
D23*
X78740000Y-147320000D03*
D18*
X81240000Y-147320000D03*
D23*
X68834000Y-66802000D03*
D18*
X68834000Y-64302000D03*
D32*
X69088000Y-128016000D03*
X55880000Y-110744000D03*
X59944000Y-122936000D03*
X71374000Y-101092000D03*
X49530000Y-119888000D03*
X58928000Y-112014000D03*
X51054000Y-111760000D03*
X56896000Y-113538000D03*
X65024000Y-113030000D03*
X69342000Y-117348000D03*
X56896000Y-107188000D03*
X64008000Y-62738000D03*
X75184000Y-83058000D03*
X54356000Y-93218000D03*
D33*
X83566000Y-95758000D02*
X83820000Y-95758000D01*
X83820000Y-95758000D02*
X85344000Y-94234000D01*
X85344000Y-91440000D02*
X91694000Y-85090000D01*
X85344000Y-94234000D02*
X85344000Y-91440000D01*
X91694000Y-85090000D02*
X91694000Y-67056000D01*
X88138000Y-77724000D02*
X88138000Y-78914000D01*
X71120000Y-114554000D02*
X71374000Y-114554000D01*
X71374000Y-114554000D02*
X73406000Y-116586000D01*
X73406000Y-121920000D02*
X70612000Y-124714000D01*
X73406000Y-116586000D02*
X73406000Y-121920000D01*
D34*
X66040000Y-105156000D02*
X66040000Y-114554000D01*
D33*
X71120000Y-114554000D02*
X66040000Y-114554000D01*
X66040000Y-114554000D02*
X58166000Y-114554000D01*
X58166000Y-114554000D02*
X57150000Y-115570000D01*
X57150000Y-115570000D02*
X57150000Y-116840000D01*
X71120000Y-114554000D02*
X71120000Y-115062000D01*
X59182000Y-93218000D02*
X59182000Y-92964000D01*
X56896000Y-117094000D02*
X57150000Y-116840000D01*
X66040000Y-105156000D02*
X66040000Y-104394000D01*
X66040000Y-104394000D02*
X66802000Y-103632000D01*
X66802000Y-103632000D02*
X66802000Y-100584000D01*
X75184000Y-86106000D02*
X75692000Y-86106000D01*
X79248000Y-127000000D02*
X80184000Y-127000000D01*
X80184000Y-127000000D02*
X87630000Y-116760000D01*
X73152000Y-128016000D02*
X69088000Y-128016000D01*
X74168000Y-127000000D02*
X73152000Y-128016000D01*
X79248000Y-127000000D02*
X74168000Y-127000000D01*
X53086000Y-120142000D02*
X53848000Y-120142000D01*
X53848000Y-120142000D02*
X55118000Y-121412000D01*
X55118000Y-121412000D02*
X59182000Y-121412000D01*
X59182000Y-121412000D02*
X61468000Y-119126000D01*
X61468000Y-119126000D02*
X62484000Y-119126000D01*
X62484000Y-119126000D02*
X64770000Y-116840000D01*
X68072000Y-88900000D02*
X68326000Y-88900000D01*
X68326000Y-88900000D02*
X70358000Y-90932000D01*
X66040000Y-78994000D02*
X66040000Y-79248000D01*
X66040000Y-79248000D02*
X68580000Y-81788000D01*
X73406000Y-82804000D02*
X73406000Y-90932000D01*
X72390000Y-81788000D02*
X73406000Y-82804000D01*
X68580000Y-81788000D02*
X72390000Y-81788000D01*
X66040000Y-78994000D02*
X66040000Y-79756000D01*
X79248000Y-90932000D02*
X73406000Y-90932000D01*
X73406000Y-90932000D02*
X70358000Y-90932000D01*
X70358000Y-90932000D02*
X69596000Y-91694000D01*
X69596000Y-91694000D02*
X69596000Y-105410000D01*
X78994000Y-91186000D02*
X79248000Y-90932000D01*
X74596000Y-105410000D02*
X74596000Y-106600000D01*
X80264000Y-114554000D02*
X76962000Y-117856000D01*
X80264000Y-109728000D02*
X80264000Y-114554000D01*
X79502000Y-108966000D02*
X80264000Y-109728000D01*
X76962000Y-108966000D02*
X79502000Y-108966000D01*
X74596000Y-106600000D02*
X76962000Y-108966000D01*
X56642000Y-79756000D02*
X55546000Y-79756000D01*
X55546000Y-79756000D02*
X53260000Y-82042000D01*
X54356000Y-96012000D02*
X54356000Y-100584000D01*
D34*
X54356000Y-100584000D02*
X54356000Y-105918000D01*
X55880000Y-107442000D02*
X55880000Y-110744000D01*
X54356000Y-105918000D02*
X55880000Y-107442000D01*
D33*
X50292000Y-104394000D02*
X52324000Y-104394000D01*
X54356000Y-102362000D02*
X54356000Y-100584000D01*
X52324000Y-104394000D02*
X54356000Y-102362000D01*
X59944000Y-122936000D02*
X62230000Y-120650000D01*
X62230000Y-120650000D02*
X63246000Y-120650000D01*
X62230000Y-116840000D02*
X62484000Y-116840000D01*
X62230000Y-116840000D02*
X62230000Y-117094000D01*
X41402000Y-96266000D02*
X41656000Y-96012000D01*
X28194000Y-115062000D02*
X27940000Y-114808000D01*
X83566000Y-102616000D02*
X83566000Y-102536000D01*
X83566000Y-102536000D02*
X87884000Y-98218000D01*
X73152000Y-102616000D02*
X83566000Y-102616000D01*
X73152000Y-102536000D02*
X73152000Y-102616000D01*
X73152000Y-102616000D02*
X73152000Y-108458000D01*
X73152000Y-108458000D02*
X76454000Y-111760000D01*
X76454000Y-111760000D02*
X76962000Y-111760000D01*
X71374000Y-101092000D02*
X72818000Y-102536000D01*
X72818000Y-102536000D02*
X73152000Y-102536000D01*
X76962000Y-123698000D02*
X75692000Y-123698000D01*
X49530000Y-125222000D02*
X49530000Y-119888000D01*
X51308000Y-127000000D02*
X49530000Y-125222000D01*
X72390000Y-127000000D02*
X51308000Y-127000000D01*
X75692000Y-123698000D02*
X72390000Y-127000000D01*
X28448000Y-91694000D02*
X28448000Y-91948000D01*
X28448000Y-91948000D02*
X26416000Y-93980000D01*
X34544000Y-104902000D02*
X34544000Y-112014000D01*
X29210000Y-99568000D02*
X34544000Y-104902000D01*
X27432000Y-99568000D02*
X29210000Y-99568000D01*
X26416000Y-98552000D02*
X27432000Y-99568000D01*
X26416000Y-93980000D02*
X26416000Y-98552000D01*
X34290000Y-115570000D02*
X34290000Y-118364000D01*
X34290000Y-118364000D02*
X41910000Y-125984000D01*
X41656000Y-125984000D02*
X41402000Y-125984000D01*
X51308000Y-112014000D02*
X58928000Y-112014000D01*
X51054000Y-111760000D02*
X51308000Y-112014000D01*
D34*
X61976000Y-113030000D02*
X61976000Y-109474000D01*
X61468000Y-113538000D02*
X61976000Y-113030000D01*
X56896000Y-113538000D02*
X61468000Y-113538000D01*
X61976000Y-109474000D02*
X62230000Y-109220000D01*
D33*
X53848000Y-137414000D02*
X50038000Y-137414000D01*
X45720000Y-144526000D02*
X45720000Y-141732000D01*
X45720000Y-141732000D02*
X50038000Y-137414000D01*
X43434000Y-138176000D02*
X45466000Y-132842000D01*
X45466000Y-132842000D02*
X50038000Y-137414000D01*
X62992000Y-124714000D02*
X62992000Y-123698000D01*
X62992000Y-123698000D02*
X69342000Y-117348000D01*
X64770000Y-112776000D02*
X64770000Y-109220000D01*
X65024000Y-113030000D02*
X64770000Y-112776000D01*
X62992000Y-124714000D02*
X58674000Y-124714000D01*
X58674000Y-124714000D02*
X58420000Y-124968000D01*
X62992000Y-124714000D02*
X64008000Y-124714000D01*
X64262000Y-107950000D02*
X64262000Y-108712000D01*
X56896000Y-107188000D02*
X63500000Y-107188000D01*
X63500000Y-107188000D02*
X64262000Y-107950000D01*
X64262000Y-108712000D02*
X64770000Y-109220000D01*
X54610000Y-116840000D02*
X54610000Y-118110000D01*
X54610000Y-118110000D02*
X56134000Y-119634000D01*
X56134000Y-119634000D02*
X58086000Y-119634000D01*
X58086000Y-119634000D02*
X58420000Y-119968000D01*
X45593000Y-118491000D02*
X54229000Y-118491000D01*
X54229000Y-118491000D02*
X54610000Y-118110000D01*
X42672000Y-103886000D02*
X42672000Y-104648000D01*
X42672000Y-104648000D02*
X44450000Y-106426000D01*
X44450000Y-106426000D02*
X44450000Y-117348000D01*
X44450000Y-117348000D02*
X45593000Y-118491000D01*
X54610000Y-116840000D02*
X54610000Y-117348000D01*
X67564000Y-141986000D02*
X58928000Y-143002000D01*
X57658000Y-144272000D02*
X57658000Y-147320000D01*
X58928000Y-143002000D02*
X57658000Y-144272000D01*
X57658000Y-147320000D02*
X57404000Y-147574000D01*
X70358000Y-149606000D02*
X70358000Y-149352000D01*
X70358000Y-149352000D02*
X72136000Y-147574000D01*
X72136000Y-147574000D02*
X72136000Y-147828000D01*
X70358000Y-149606000D02*
X55626000Y-149606000D01*
X57404000Y-147574000D02*
X57404000Y-147828000D01*
X57404000Y-147828000D02*
X55626000Y-149606000D01*
X55626000Y-149606000D02*
X52070000Y-149606000D01*
X52070000Y-149606000D02*
X50038000Y-147574000D01*
X72136000Y-147574000D02*
X71882000Y-147574000D01*
X50038000Y-147574000D02*
X50038000Y-148082000D01*
X74168000Y-142494000D02*
X71628000Y-142494000D01*
X61214000Y-145288000D02*
X61214000Y-147574000D01*
X62230000Y-144272000D02*
X61214000Y-145288000D01*
X69850000Y-144272000D02*
X62230000Y-144272000D01*
X71628000Y-142494000D02*
X69850000Y-144272000D01*
X53848000Y-147574000D02*
X53848000Y-147320000D01*
X31592000Y-134366000D02*
X31592000Y-141128000D01*
X41910000Y-148590000D02*
X45720000Y-148590000D01*
X41910000Y-144780000D02*
X41910000Y-148590000D01*
X39370000Y-142240000D02*
X41910000Y-144780000D01*
X32704000Y-142240000D02*
X39370000Y-142240000D01*
X31592000Y-141128000D02*
X32704000Y-142240000D01*
X27940000Y-125984000D02*
X27940000Y-130714000D01*
X27940000Y-130714000D02*
X31592000Y-134366000D01*
X32258000Y-135890000D02*
X32004000Y-135890000D01*
X55372000Y-139192000D02*
X55626000Y-139192000D01*
X55626000Y-139192000D02*
X57404000Y-137414000D01*
X45720000Y-148590000D02*
X45720000Y-147828000D01*
X45720000Y-147828000D02*
X48260000Y-145288000D01*
X51562000Y-139192000D02*
X55372000Y-139192000D01*
X48260000Y-142494000D02*
X51562000Y-139192000D01*
X48260000Y-145288000D02*
X48260000Y-142494000D01*
X61214000Y-137414000D02*
X57404000Y-137414000D01*
X78486000Y-129794000D02*
X74168000Y-129794000D01*
X83058000Y-129794000D02*
X78486000Y-129794000D01*
X67310000Y-116840000D02*
X67310000Y-117094000D01*
X75184000Y-73406000D02*
X75184000Y-76962000D01*
X73406000Y-78740000D02*
X71374000Y-78740000D01*
X75184000Y-76962000D02*
X73406000Y-78740000D01*
X71374000Y-78740000D02*
X71120000Y-78994000D01*
X52832000Y-92202000D02*
X53340000Y-92202000D01*
X54356000Y-91186000D02*
X54356000Y-84582000D01*
X53340000Y-92202000D02*
X54356000Y-91186000D01*
X52832000Y-92202000D02*
X52832000Y-97536000D01*
X52832000Y-97536000D02*
X48514000Y-101854000D01*
X48514000Y-111760000D02*
X48514000Y-101854000D01*
X52070000Y-116840000D02*
X52070000Y-115316000D01*
X52070000Y-115316000D02*
X48514000Y-111760000D01*
X59436000Y-77216000D02*
X59436000Y-79502000D01*
X59436000Y-77216000D02*
X60960000Y-75692000D01*
X60960000Y-75692000D02*
X67818000Y-75692000D01*
X67818000Y-75692000D02*
X71120000Y-78994000D01*
X59436000Y-79502000D02*
X54356000Y-84582000D01*
X56642000Y-74676000D02*
X55038000Y-74676000D01*
X55038000Y-74676000D02*
X53260000Y-76454000D01*
X56642000Y-77216000D02*
X57658000Y-77216000D01*
X63246000Y-74168000D02*
X66040000Y-71374000D01*
X60706000Y-74168000D02*
X63246000Y-74168000D01*
X57658000Y-77216000D02*
X60706000Y-74168000D01*
X66040000Y-70612000D02*
X66040000Y-71374000D01*
X62992000Y-66040000D02*
X67310000Y-66040000D01*
X67310000Y-66040000D02*
X68834000Y-66802000D01*
X40132000Y-66040000D02*
X39116000Y-67056000D01*
X62992000Y-66040000D02*
X40132000Y-66040000D01*
X71120000Y-57912000D02*
X75946000Y-57912000D01*
X75946000Y-61468000D02*
X75946000Y-57912000D01*
X75946000Y-57912000D02*
X75946000Y-56642000D01*
X75946000Y-56642000D02*
X77978000Y-53340000D01*
X77978000Y-53340000D02*
X78486000Y-53340000D01*
X68834000Y-66802000D02*
X69342000Y-66802000D01*
X69342000Y-66802000D02*
X75946000Y-61468000D01*
X39116000Y-67056000D02*
X39116000Y-79248000D01*
X39116000Y-79248000D02*
X43942000Y-84074000D01*
X34544000Y-88900000D02*
X34544000Y-89408000D01*
X34544000Y-89408000D02*
X32512000Y-91440000D01*
X32512000Y-97282000D02*
X34544000Y-99314000D01*
X32512000Y-91440000D02*
X32512000Y-97282000D01*
X34544000Y-99314000D02*
X30988000Y-99314000D01*
X30988000Y-99314000D02*
X28448000Y-96774000D01*
X26924000Y-81788000D02*
X27432000Y-81788000D01*
X27432000Y-81788000D02*
X34544000Y-88900000D01*
X34544000Y-96520000D02*
X36322000Y-96520000D01*
X38354000Y-98552000D02*
X38354000Y-103124000D01*
X36322000Y-96520000D02*
X38354000Y-98552000D01*
X37592000Y-134366000D02*
X41148000Y-134366000D01*
X41148000Y-134366000D02*
X43434000Y-132080000D01*
X27940000Y-120904000D02*
X29210000Y-120904000D01*
X29210000Y-120904000D02*
X31750000Y-123444000D01*
X31750000Y-123444000D02*
X31750000Y-128778000D01*
X31750000Y-128778000D02*
X33020000Y-130048000D01*
X33020000Y-130048000D02*
X41402000Y-130048000D01*
X41402000Y-130048000D02*
X43434000Y-132080000D01*
X39116000Y-64516000D02*
X39370000Y-64516000D01*
X43942000Y-58674000D02*
X40132000Y-58674000D01*
X37116000Y-61690000D02*
X37116000Y-64516000D01*
X40132000Y-58674000D02*
X37116000Y-61690000D01*
X66294000Y-57912000D02*
X66294000Y-60452000D01*
X66294000Y-60452000D02*
X64008000Y-62738000D01*
X78486000Y-61468000D02*
X78486000Y-59690000D01*
X78486000Y-59690000D02*
X81026000Y-55880000D01*
D34*
X83566000Y-61468000D02*
X83566000Y-60960000D01*
X83566000Y-60960000D02*
X82296000Y-59690000D01*
X82296000Y-59690000D02*
X82296000Y-54610000D01*
X82296000Y-54610000D02*
X81026000Y-53340000D01*
X81026000Y-53340000D02*
X81280000Y-53340000D01*
D33*
X81026000Y-53340000D02*
X81280000Y-53340000D01*
X56642000Y-58420000D02*
X56134000Y-58928000D01*
D34*
X75946000Y-69088000D02*
X75946000Y-68580000D01*
X75946000Y-68580000D02*
X77724000Y-66802000D01*
X87122000Y-59436000D02*
X83566000Y-55880000D01*
X87122000Y-65786000D02*
X87122000Y-59436000D01*
X86106000Y-66802000D02*
X87122000Y-65786000D01*
X77724000Y-66802000D02*
X86106000Y-66802000D01*
D33*
X75946000Y-69088000D02*
X75946000Y-68834000D01*
X81026000Y-69088000D02*
X81026000Y-82296000D01*
X80264000Y-83058000D02*
X75184000Y-83058000D01*
X81026000Y-82296000D02*
X80264000Y-83058000D01*
X55372000Y-89154000D02*
X55372000Y-92202000D01*
X55372000Y-92202000D02*
X54356000Y-93218000D01*
X55372000Y-86868000D02*
X55372000Y-89154000D01*
X55372000Y-86868000D02*
X55372000Y-86106000D01*
X55372000Y-86106000D02*
X55626000Y-85090000D01*
X60706000Y-80010000D02*
X60706000Y-77724000D01*
X55626000Y-85090000D02*
X60706000Y-80010000D01*
X68580000Y-78994000D02*
X66548000Y-76962000D01*
X66548000Y-76962000D02*
X61468000Y-76962000D01*
X61468000Y-76962000D02*
X60706000Y-77724000D01*
X68580000Y-78740000D02*
X68580000Y-78994000D01*
G36*
X77007793Y-52696361D02*
X76916037Y-53157647D01*
X75094342Y-56117903D01*
X75066534Y-56192847D01*
X75022120Y-56259317D01*
X74999299Y-56374046D01*
X74958607Y-56483712D01*
X74961595Y-56563596D01*
X74946000Y-56642000D01*
X74946000Y-56912000D01*
X72594461Y-56912000D01*
X72112590Y-56429287D01*
X71469624Y-56162304D01*
X70773431Y-56161696D01*
X70129999Y-56427557D01*
X69637287Y-56919410D01*
X69370304Y-57562376D01*
X69369696Y-58258569D01*
X69635557Y-58902001D01*
X70127410Y-59394713D01*
X70770376Y-59661696D01*
X71466569Y-59662304D01*
X72110001Y-59396443D01*
X72595290Y-58912000D01*
X74946000Y-58912000D01*
X74946000Y-60277462D01*
X74849984Y-60341618D01*
X74513987Y-60844475D01*
X74396748Y-61433875D01*
X70344062Y-64707198D01*
X70383730Y-64611667D01*
X70384268Y-63995039D01*
X70148792Y-63425143D01*
X69713151Y-62988740D01*
X69143667Y-62752270D01*
X68527039Y-62751732D01*
X67957143Y-62987208D01*
X67520740Y-63422849D01*
X67284270Y-63992333D01*
X67283732Y-64608961D01*
X67473333Y-65067832D01*
X67380890Y-65042516D01*
X67345241Y-65047010D01*
X67310000Y-65040000D01*
X40533421Y-65040000D01*
X40625738Y-64817675D01*
X40626262Y-64216960D01*
X40396862Y-63661771D01*
X40114546Y-63378961D01*
X58901732Y-63378961D01*
X59137208Y-63948857D01*
X59572849Y-64385260D01*
X60142333Y-64621730D01*
X60758961Y-64622268D01*
X61328857Y-64386792D01*
X61765260Y-63951151D01*
X62001730Y-63381667D01*
X62002110Y-62945942D01*
X62957818Y-62945942D01*
X63117334Y-63332000D01*
X63412446Y-63627628D01*
X63798226Y-63787818D01*
X64215942Y-63788182D01*
X64602000Y-63628666D01*
X64897628Y-63333554D01*
X64948022Y-63212192D01*
X67001107Y-61159107D01*
X67217879Y-60834684D01*
X67217880Y-60834683D01*
X67294000Y-60452000D01*
X67294000Y-59386461D01*
X67776713Y-58904590D01*
X68043696Y-58261624D01*
X68044304Y-57565431D01*
X67778443Y-56921999D01*
X67286590Y-56429287D01*
X66643624Y-56162304D01*
X65947431Y-56161696D01*
X65303999Y-56427557D01*
X64811287Y-56919410D01*
X64544304Y-57562376D01*
X64543696Y-58258569D01*
X64809557Y-58902001D01*
X65294000Y-59387290D01*
X65294000Y-60037786D01*
X63534060Y-61797726D01*
X63414000Y-61847334D01*
X63118372Y-62142446D01*
X62958182Y-62528226D01*
X62957818Y-62945942D01*
X62002110Y-62945942D01*
X62002268Y-62765039D01*
X61766792Y-62195143D01*
X61331151Y-61758740D01*
X60761667Y-61522270D01*
X60145039Y-61521732D01*
X59575143Y-61757208D01*
X59138740Y-62192849D01*
X58902270Y-62762333D01*
X58901732Y-63378961D01*
X40114546Y-63378961D01*
X39972463Y-63236630D01*
X39417675Y-63006262D01*
X38816960Y-63005738D01*
X38261771Y-63235138D01*
X38116118Y-63380536D01*
X38116000Y-63380418D01*
X38116000Y-62104214D01*
X38788458Y-61431756D01*
X46156000Y-61431756D01*
X46156000Y-61504244D01*
X46296823Y-62212208D01*
X46697852Y-62812392D01*
X47298036Y-63213421D01*
X48006000Y-63354244D01*
X48713964Y-63213421D01*
X49314148Y-62812392D01*
X49715177Y-62212208D01*
X49856000Y-61504244D01*
X49856000Y-61431756D01*
X49715177Y-60723792D01*
X49314148Y-60123608D01*
X48713964Y-59722579D01*
X48006000Y-59581756D01*
X47298036Y-59722579D01*
X46697852Y-60123608D01*
X46296823Y-60723792D01*
X46156000Y-61431756D01*
X38788458Y-61431756D01*
X40546214Y-59674000D01*
X42077307Y-59674000D01*
X42077307Y-59774000D01*
X42129604Y-60051933D01*
X42293862Y-60307198D01*
X42544492Y-60478446D01*
X42842000Y-60538693D01*
X45042000Y-60538693D01*
X45319933Y-60486396D01*
X45575198Y-60322138D01*
X45746446Y-60071508D01*
X45806693Y-59774000D01*
X45806693Y-59488961D01*
X50265732Y-59488961D01*
X50501208Y-60058857D01*
X50936849Y-60495260D01*
X51506333Y-60731730D01*
X52122961Y-60732268D01*
X52692857Y-60496792D01*
X53129260Y-60061151D01*
X53365730Y-59491667D01*
X53365953Y-59234961D01*
X54583732Y-59234961D01*
X54819208Y-59804857D01*
X55254849Y-60241260D01*
X55824333Y-60477730D01*
X56440961Y-60478268D01*
X57010857Y-60242792D01*
X57447260Y-59807151D01*
X57683730Y-59237667D01*
X57684268Y-58621039D01*
X57628742Y-58486655D01*
X57642000Y-58420000D01*
X57609890Y-58258569D01*
X59463696Y-58258569D01*
X59729557Y-58902001D01*
X60221410Y-59394713D01*
X60864376Y-59661696D01*
X61560569Y-59662304D01*
X62204001Y-59396443D01*
X62696713Y-58904590D01*
X62963696Y-58261624D01*
X62964304Y-57565431D01*
X62698443Y-56921999D01*
X62206590Y-56429287D01*
X61563624Y-56162304D01*
X60867431Y-56161696D01*
X60223999Y-56427557D01*
X59731287Y-56919410D01*
X59464304Y-57562376D01*
X59463696Y-58258569D01*
X57609890Y-58258569D01*
X57565879Y-58037316D01*
X57349106Y-57712894D01*
X57024684Y-57496121D01*
X56642000Y-57420000D01*
X56575852Y-57433158D01*
X56443667Y-57378270D01*
X55827039Y-57377732D01*
X55257143Y-57613208D01*
X54820740Y-58048849D01*
X54584270Y-58618333D01*
X54583732Y-59234961D01*
X53365953Y-59234961D01*
X53366268Y-58875039D01*
X53130792Y-58305143D01*
X52695151Y-57868740D01*
X52125667Y-57632270D01*
X51509039Y-57631732D01*
X50939143Y-57867208D01*
X50502740Y-58302849D01*
X50266270Y-58872333D01*
X50265732Y-59488961D01*
X45806693Y-59488961D01*
X45806693Y-57574000D01*
X45754396Y-57296067D01*
X45590138Y-57040802D01*
X45339508Y-56869554D01*
X45042000Y-56809307D01*
X42842000Y-56809307D01*
X42564067Y-56861604D01*
X42308802Y-57025862D01*
X42137554Y-57276492D01*
X42077307Y-57574000D01*
X42077307Y-57674000D01*
X40132000Y-57674000D01*
X39749317Y-57750120D01*
X39525730Y-57899516D01*
X39424893Y-57966893D01*
X36408893Y-60982893D01*
X36192120Y-61307316D01*
X36192120Y-61307317D01*
X36116000Y-61690000D01*
X36116000Y-63380655D01*
X35836630Y-63659537D01*
X35606262Y-64214325D01*
X35605738Y-64815040D01*
X35835138Y-65370229D01*
X36250536Y-65786353D01*
X35836630Y-66199537D01*
X35606262Y-66754325D01*
X35605738Y-67355040D01*
X35835138Y-67910229D01*
X36259537Y-68335370D01*
X36814325Y-68565738D01*
X37415040Y-68566262D01*
X37970229Y-68336862D01*
X38115882Y-68191464D01*
X38116000Y-68191582D01*
X38116000Y-79248000D01*
X38192120Y-79630684D01*
X38408893Y-79955107D01*
X42409490Y-83955704D01*
X42392000Y-84043634D01*
X42392000Y-84104366D01*
X42509987Y-84697525D01*
X42845984Y-85200382D01*
X43348841Y-85536379D01*
X43942000Y-85654366D01*
X44535159Y-85536379D01*
X45038016Y-85200382D01*
X45374013Y-84697525D01*
X45492000Y-84104366D01*
X45492000Y-84043634D01*
X45374013Y-83450475D01*
X45038016Y-82947618D01*
X44535159Y-82611621D01*
X43942000Y-82493634D01*
X43803414Y-82521200D01*
X43631175Y-82348961D01*
X46709732Y-82348961D01*
X46945208Y-82918857D01*
X47380849Y-83355260D01*
X47950333Y-83591730D01*
X48566961Y-83592268D01*
X49136857Y-83356792D01*
X49573260Y-82921151D01*
X49809730Y-82351667D01*
X49810268Y-81735039D01*
X49574792Y-81165143D01*
X49139151Y-80728740D01*
X48569667Y-80492270D01*
X47953039Y-80491732D01*
X47383143Y-80727208D01*
X46946740Y-81162849D01*
X46710270Y-81732333D01*
X46709732Y-82348961D01*
X43631175Y-82348961D01*
X40116000Y-78833786D01*
X40116000Y-76760961D01*
X46709732Y-76760961D01*
X46945208Y-77330857D01*
X47380849Y-77767260D01*
X47950333Y-78003730D01*
X48566961Y-78004268D01*
X49136857Y-77768792D01*
X49573260Y-77333151D01*
X49809730Y-76763667D01*
X49810268Y-76147039D01*
X49574792Y-75577143D01*
X49139151Y-75140740D01*
X48569667Y-74904270D01*
X47953039Y-74903732D01*
X47383143Y-75139208D01*
X46946740Y-75574849D01*
X46710270Y-76144333D01*
X46709732Y-76760961D01*
X40116000Y-76760961D01*
X40116000Y-68191345D01*
X40395370Y-67912463D01*
X40625738Y-67357675D01*
X40626015Y-67040000D01*
X43478259Y-67040000D01*
X43234036Y-67088579D01*
X42633852Y-67489608D01*
X42232823Y-68089792D01*
X42092000Y-68797756D01*
X42092000Y-68870244D01*
X42232823Y-69578208D01*
X42633852Y-70178392D01*
X42820691Y-70303233D01*
X42628740Y-70494849D01*
X42392270Y-71064333D01*
X42391732Y-71680961D01*
X42627208Y-72250857D01*
X43062849Y-72687260D01*
X43632333Y-72923730D01*
X44248961Y-72924268D01*
X44818857Y-72688792D01*
X45255260Y-72253151D01*
X45491730Y-71683667D01*
X45492268Y-71067039D01*
X45269542Y-70528000D01*
X46141307Y-70528000D01*
X46141307Y-72728000D01*
X46193604Y-73005933D01*
X46357862Y-73261198D01*
X46608492Y-73432446D01*
X46906000Y-73492693D01*
X49106000Y-73492693D01*
X49383933Y-73440396D01*
X49639198Y-73276138D01*
X49810446Y-73025508D01*
X49870693Y-72728000D01*
X49870693Y-71851634D01*
X50266000Y-71851634D01*
X50266000Y-71912366D01*
X50383987Y-72505525D01*
X50719984Y-73008382D01*
X51222841Y-73344379D01*
X51816000Y-73462366D01*
X52409159Y-73344379D01*
X52912016Y-73008382D01*
X53248013Y-72505525D01*
X53366000Y-71912366D01*
X53366000Y-71851634D01*
X53248013Y-71258475D01*
X52912016Y-70755618D01*
X52409159Y-70419621D01*
X51816000Y-70301634D01*
X51222841Y-70419621D01*
X50719984Y-70755618D01*
X50383987Y-71258475D01*
X50266000Y-71851634D01*
X49870693Y-71851634D01*
X49870693Y-70528000D01*
X49818396Y-70250067D01*
X49654138Y-69994802D01*
X49403508Y-69823554D01*
X49106000Y-69763307D01*
X46906000Y-69763307D01*
X46628067Y-69815604D01*
X46372802Y-69979862D01*
X46201554Y-70230492D01*
X46141307Y-70528000D01*
X45269542Y-70528000D01*
X45256792Y-70497143D01*
X45063256Y-70303269D01*
X45250148Y-70178392D01*
X45651177Y-69578208D01*
X45705958Y-69302805D01*
X59786881Y-69302805D01*
X59871983Y-69550846D01*
X60482064Y-69660239D01*
X61032017Y-69550846D01*
X61117119Y-69302805D01*
X60452000Y-68637685D01*
X59786881Y-69302805D01*
X45705958Y-69302805D01*
X45792000Y-68870244D01*
X45792000Y-68797756D01*
X45651177Y-68089792D01*
X45250148Y-67489608D01*
X44649964Y-67088579D01*
X44405741Y-67040000D01*
X59244416Y-67040000D01*
X58448323Y-67836093D01*
X58900874Y-68288643D01*
X58973154Y-68652017D01*
X59221195Y-68737119D01*
X59886315Y-68072000D01*
X59603472Y-67789157D01*
X60169157Y-67223472D01*
X60452000Y-67506315D01*
X60734843Y-67223472D01*
X61300528Y-67789157D01*
X61017685Y-68072000D01*
X61682805Y-68737119D01*
X61930846Y-68652017D01*
X61994446Y-68297323D01*
X62455677Y-67836093D01*
X61659584Y-67040000D01*
X67073932Y-67040000D01*
X67269307Y-67137687D01*
X67269307Y-67602000D01*
X67321604Y-67879933D01*
X67485862Y-68135198D01*
X67736492Y-68306446D01*
X68034000Y-68366693D01*
X69634000Y-68366693D01*
X69911933Y-68314396D01*
X70167198Y-68150138D01*
X70338446Y-67899508D01*
X70398693Y-67602000D01*
X70398693Y-67233961D01*
X75653013Y-62990087D01*
X75946000Y-63048366D01*
X76539159Y-62930379D01*
X77042016Y-62594382D01*
X77216000Y-62333996D01*
X77389984Y-62594382D01*
X77892841Y-62930379D01*
X78486000Y-63048366D01*
X79079159Y-62930379D01*
X79582016Y-62594382D01*
X79756000Y-62333996D01*
X79929984Y-62594382D01*
X80432841Y-62930379D01*
X81026000Y-63048366D01*
X81619159Y-62930379D01*
X82122016Y-62594382D01*
X82296000Y-62333996D01*
X82469984Y-62594382D01*
X82972841Y-62930379D01*
X83566000Y-63048366D01*
X84159159Y-62930379D01*
X84662016Y-62594382D01*
X84998013Y-62091525D01*
X85116000Y-61498366D01*
X85116000Y-61437634D01*
X84998013Y-60844475D01*
X84662016Y-60341618D01*
X84159159Y-60005621D01*
X83860328Y-59946180D01*
X83221000Y-59306852D01*
X83221000Y-57442721D01*
X83566000Y-57511346D01*
X83835576Y-57457724D01*
X86197000Y-59819147D01*
X86197000Y-65402852D01*
X85722852Y-65877000D01*
X77724005Y-65877000D01*
X77724000Y-65876999D01*
X77370018Y-65947411D01*
X77069926Y-66147926D01*
X75694545Y-67523307D01*
X75146000Y-67523307D01*
X74868067Y-67575604D01*
X74612802Y-67739862D01*
X74441554Y-67990492D01*
X74381307Y-68288000D01*
X74381307Y-69888000D01*
X74433604Y-70165933D01*
X74597862Y-70421198D01*
X74848492Y-70592446D01*
X75146000Y-70652693D01*
X76746000Y-70652693D01*
X77023933Y-70600396D01*
X77279198Y-70436138D01*
X77417950Y-70233068D01*
X77892841Y-70550379D01*
X78486000Y-70668366D01*
X79079159Y-70550379D01*
X79582016Y-70214382D01*
X79756000Y-69953996D01*
X79929984Y-70214382D01*
X80026000Y-70278538D01*
X80026000Y-73516301D01*
X79619151Y-73108740D01*
X79049667Y-72872270D01*
X78433039Y-72871732D01*
X77863143Y-73107208D01*
X77426740Y-73542849D01*
X77190270Y-74112333D01*
X77189732Y-74728961D01*
X77425208Y-75298857D01*
X77860849Y-75735260D01*
X78430333Y-75971730D01*
X79046961Y-75972268D01*
X79616857Y-75736792D01*
X80026000Y-75328363D01*
X80026000Y-76770416D01*
X79483907Y-76228323D01*
X79031357Y-76680874D01*
X78667983Y-76753154D01*
X78582881Y-77001195D01*
X79248000Y-77666315D01*
X79530843Y-77383472D01*
X80026000Y-77878629D01*
X80026000Y-78019685D01*
X79813685Y-78232000D01*
X80026000Y-78444315D01*
X80026000Y-78585371D01*
X79530843Y-79080528D01*
X79248000Y-78797685D01*
X78582881Y-79462805D01*
X78667983Y-79710846D01*
X79022677Y-79774446D01*
X79483907Y-80235677D01*
X80026000Y-79693584D01*
X80026000Y-81881786D01*
X79849786Y-82058000D01*
X75513749Y-82058000D01*
X75393774Y-82008182D01*
X74976058Y-82007818D01*
X74590000Y-82167334D01*
X74330823Y-82426058D01*
X74329880Y-82421316D01*
X74113107Y-82096893D01*
X73097107Y-81080893D01*
X72772684Y-80864120D01*
X72390000Y-80788000D01*
X68994213Y-80788000D01*
X68747301Y-80541088D01*
X69173159Y-80456379D01*
X69676016Y-80120382D01*
X69850000Y-79859996D01*
X70023984Y-80120382D01*
X70526841Y-80456379D01*
X71120000Y-80574366D01*
X71713159Y-80456379D01*
X72216016Y-80120382D01*
X72470178Y-79740000D01*
X73406000Y-79740000D01*
X73788684Y-79663880D01*
X74113107Y-79447107D01*
X75298150Y-78262064D01*
X77659761Y-78262064D01*
X77769154Y-78812017D01*
X78017195Y-78897119D01*
X78682315Y-78232000D01*
X78017195Y-77566881D01*
X77769154Y-77651983D01*
X77659761Y-78262064D01*
X75298150Y-78262064D01*
X75891107Y-77669107D01*
X76107880Y-77344684D01*
X76184001Y-76962000D01*
X76184000Y-76961995D01*
X76184000Y-74596538D01*
X76280016Y-74532382D01*
X76616013Y-74029525D01*
X76734000Y-73436366D01*
X76734000Y-73375634D01*
X76616013Y-72782475D01*
X76280016Y-72279618D01*
X75777159Y-71943621D01*
X75184000Y-71825634D01*
X74590841Y-71943621D01*
X74087984Y-72279618D01*
X73751987Y-72782475D01*
X73634000Y-73375634D01*
X73634000Y-73436366D01*
X73751987Y-74029525D01*
X74087984Y-74532382D01*
X74184000Y-74596538D01*
X74184000Y-76547786D01*
X72991786Y-77740000D01*
X72025021Y-77740000D01*
X71713159Y-77531621D01*
X71120000Y-77413634D01*
X70981414Y-77441200D01*
X68525107Y-74984893D01*
X68200684Y-74768120D01*
X67818000Y-74692000D01*
X64136214Y-74692000D01*
X65901414Y-72926800D01*
X66040000Y-72954366D01*
X66633159Y-72836379D01*
X67136016Y-72500382D01*
X67310000Y-72239996D01*
X67483984Y-72500382D01*
X67986841Y-72836379D01*
X68580000Y-72954366D01*
X69173159Y-72836379D01*
X69676016Y-72500382D01*
X69850000Y-72239996D01*
X70023984Y-72500382D01*
X70526841Y-72836379D01*
X71120000Y-72954366D01*
X71713159Y-72836379D01*
X72216016Y-72500382D01*
X72552013Y-71997525D01*
X72670000Y-71404366D01*
X72670000Y-71343634D01*
X72552013Y-70750475D01*
X72216016Y-70247618D01*
X71713159Y-69911621D01*
X71120000Y-69793634D01*
X70526841Y-69911621D01*
X70023984Y-70247618D01*
X69850000Y-70508004D01*
X69676016Y-70247618D01*
X69173159Y-69911621D01*
X68580000Y-69793634D01*
X67986841Y-69911621D01*
X67483984Y-70247618D01*
X67310000Y-70508004D01*
X67136016Y-70247618D01*
X66847134Y-70054594D01*
X66747107Y-69904893D01*
X66422683Y-69688120D01*
X66040000Y-69612000D01*
X65657317Y-69688120D01*
X65332893Y-69904893D01*
X65232866Y-70054594D01*
X65058000Y-70171435D01*
X65058000Y-70123998D01*
X64392061Y-70123998D01*
X64130631Y-69949335D01*
X63900000Y-70065263D01*
X63900000Y-70974000D01*
X64300000Y-70974000D01*
X64300000Y-71699786D01*
X64225786Y-71774000D01*
X63900000Y-71774000D01*
X63900000Y-72099786D01*
X63825786Y-72174000D01*
X63100000Y-72174000D01*
X63100000Y-71774000D01*
X62183693Y-71774000D01*
X62075306Y-72004635D01*
X62249998Y-72252954D01*
X62249998Y-72932000D01*
X63067786Y-72932000D01*
X62831786Y-73168000D01*
X60706000Y-73168000D01*
X60323316Y-73244120D01*
X59998893Y-73460893D01*
X58111401Y-75348385D01*
X58151553Y-75288293D01*
X58273346Y-74676000D01*
X58151553Y-74063707D01*
X57804717Y-73544629D01*
X57285639Y-73197793D01*
X56731397Y-73087547D01*
X57230016Y-72754382D01*
X57566013Y-72251525D01*
X57684000Y-71658366D01*
X57684000Y-71597634D01*
X57566013Y-71004475D01*
X57391546Y-70743365D01*
X62075306Y-70743365D01*
X62183693Y-70974000D01*
X63100000Y-70974000D01*
X63100000Y-70065263D01*
X62869369Y-69949335D01*
X62425088Y-70246162D01*
X62075306Y-70743365D01*
X57391546Y-70743365D01*
X57230016Y-70501618D01*
X56727159Y-70165621D01*
X56134000Y-70047634D01*
X55540841Y-70165621D01*
X55037984Y-70501618D01*
X54701987Y-71004475D01*
X54584000Y-71597634D01*
X54584000Y-71658366D01*
X54701987Y-72251525D01*
X55037984Y-72754382D01*
X55540841Y-73090379D01*
X56039604Y-73189589D01*
X55998361Y-73197793D01*
X55479283Y-73544629D01*
X55391504Y-73676000D01*
X55038005Y-73676000D01*
X55038000Y-73675999D01*
X54655316Y-73752120D01*
X54330893Y-73968893D01*
X53395668Y-74904118D01*
X52953039Y-74903732D01*
X52383143Y-75139208D01*
X51946740Y-75574849D01*
X51710270Y-76144333D01*
X51709732Y-76760961D01*
X51945208Y-77330857D01*
X52380849Y-77767260D01*
X52950333Y-78003730D01*
X53566961Y-78004268D01*
X54136857Y-77768792D01*
X54573260Y-77333151D01*
X54809730Y-76763667D01*
X54810119Y-76318095D01*
X55415821Y-75712393D01*
X55479283Y-75807371D01*
X55686756Y-75946000D01*
X55479283Y-76084629D01*
X55132447Y-76603707D01*
X55010654Y-77216000D01*
X55132447Y-77828293D01*
X55417891Y-78255491D01*
X55258802Y-78357862D01*
X55087554Y-78608492D01*
X55027307Y-78906000D01*
X55027307Y-78922999D01*
X54838893Y-79048893D01*
X53395668Y-80492118D01*
X52953039Y-80491732D01*
X52383143Y-80727208D01*
X51946740Y-81162849D01*
X51710270Y-81732333D01*
X51709732Y-82348961D01*
X51945208Y-82918857D01*
X52380849Y-83355260D01*
X52950333Y-83591730D01*
X53566961Y-83592268D01*
X54136857Y-83356792D01*
X54573260Y-82921151D01*
X54809730Y-82351667D01*
X54810119Y-81906095D01*
X55441783Y-81274431D01*
X55494492Y-81310446D01*
X55792000Y-81370693D01*
X56153093Y-81370693D01*
X53648893Y-83874893D01*
X53432120Y-84199316D01*
X53410088Y-84310079D01*
X53356000Y-84582000D01*
X53356000Y-86047203D01*
X53201525Y-85943987D01*
X52608366Y-85826000D01*
X52547634Y-85826000D01*
X51954475Y-85943987D01*
X51451618Y-86279984D01*
X51115621Y-86782841D01*
X50997634Y-87376000D01*
X51115621Y-87969159D01*
X51451618Y-88472016D01*
X51954475Y-88808013D01*
X52547634Y-88926000D01*
X52608366Y-88926000D01*
X53201525Y-88808013D01*
X53356000Y-88704797D01*
X53356000Y-90771786D01*
X52925786Y-91202000D01*
X52832000Y-91202000D01*
X52449317Y-91278120D01*
X52124893Y-91494893D01*
X51908120Y-91819317D01*
X51832000Y-92202000D01*
X51832000Y-97121786D01*
X47806893Y-101146893D01*
X47590120Y-101471316D01*
X47590120Y-101471317D01*
X47514000Y-101854000D01*
X47514000Y-102547127D01*
X47329159Y-102423621D01*
X46736000Y-102305634D01*
X46142841Y-102423621D01*
X45639984Y-102759618D01*
X45303987Y-103262475D01*
X45186000Y-103855634D01*
X45186000Y-103916366D01*
X45303987Y-104509525D01*
X45639984Y-105012382D01*
X46142841Y-105348379D01*
X46736000Y-105466366D01*
X47329159Y-105348379D01*
X47514000Y-105224873D01*
X47514000Y-111760000D01*
X47590120Y-112142684D01*
X47806893Y-112467107D01*
X50794513Y-115454726D01*
X50736802Y-115491862D01*
X50565554Y-115742492D01*
X50505307Y-116040000D01*
X50505307Y-117491000D01*
X48070584Y-117491000D01*
X48739677Y-116821907D01*
X48287126Y-116369357D01*
X48214846Y-116005983D01*
X47966805Y-115920881D01*
X47301685Y-116586000D01*
X47584528Y-116868843D01*
X47018843Y-117434528D01*
X46736000Y-117151685D01*
X46453157Y-117434528D01*
X45887472Y-116868843D01*
X46170315Y-116586000D01*
X45505195Y-115920881D01*
X45450000Y-115939818D01*
X45450000Y-115355195D01*
X46070881Y-115355195D01*
X46736000Y-116020315D01*
X47401119Y-115355195D01*
X47316017Y-115107154D01*
X46705936Y-114997761D01*
X46155983Y-115107154D01*
X46070881Y-115355195D01*
X45450000Y-115355195D01*
X45450000Y-106426005D01*
X45450001Y-106426000D01*
X45373880Y-106043316D01*
X45157107Y-105718893D01*
X44041419Y-104603205D01*
X44104013Y-104509525D01*
X44222000Y-103916366D01*
X44222000Y-103855634D01*
X44104013Y-103262475D01*
X43768016Y-102759618D01*
X43265159Y-102423621D01*
X42672000Y-102305634D01*
X42078841Y-102423621D01*
X41575984Y-102759618D01*
X41239987Y-103262475D01*
X41122000Y-103855634D01*
X41122000Y-103916366D01*
X41239987Y-104509525D01*
X41575984Y-105012382D01*
X41864866Y-105205406D01*
X41964893Y-105355107D01*
X43450000Y-106840214D01*
X43450000Y-115124416D01*
X42907907Y-114582323D01*
X42455357Y-115034874D01*
X42091983Y-115107154D01*
X42006881Y-115355195D01*
X42672000Y-116020315D01*
X42954843Y-115737472D01*
X43450000Y-116232629D01*
X43450000Y-116373685D01*
X43237685Y-116586000D01*
X43450000Y-116798315D01*
X43450000Y-116939371D01*
X42954843Y-117434528D01*
X42672000Y-117151685D01*
X42006881Y-117816805D01*
X42091983Y-118064846D01*
X42446677Y-118128446D01*
X42907907Y-118589677D01*
X43622563Y-117875021D01*
X43742893Y-118055107D01*
X44885893Y-119198107D01*
X45210317Y-119414880D01*
X45593000Y-119491000D01*
X48557925Y-119491000D01*
X48480182Y-119678226D01*
X48479818Y-120095942D01*
X48530000Y-120217392D01*
X48530000Y-125222000D01*
X48606120Y-125604684D01*
X48822893Y-125929107D01*
X50600893Y-127707107D01*
X50925316Y-127923880D01*
X51256380Y-127989733D01*
X51255039Y-127989732D01*
X50685143Y-128225208D01*
X50248740Y-128660849D01*
X50012270Y-129230333D01*
X50011732Y-129846961D01*
X50247208Y-130416857D01*
X50682849Y-130853260D01*
X51252333Y-131089730D01*
X51868961Y-131090268D01*
X52438857Y-130854792D01*
X52875260Y-130419151D01*
X53111730Y-129849667D01*
X53112268Y-129233039D01*
X52876792Y-128663143D01*
X52441151Y-128226740D01*
X51895099Y-128000000D01*
X64181361Y-128000000D01*
X63638475Y-128107987D01*
X63135618Y-128443984D01*
X62799621Y-128946841D01*
X62681634Y-129540000D01*
X62799621Y-130133159D01*
X63135618Y-130636016D01*
X63638475Y-130972013D01*
X64231634Y-131090000D01*
X64292366Y-131090000D01*
X64885525Y-130972013D01*
X65388382Y-130636016D01*
X65724379Y-130133159D01*
X65842366Y-129540000D01*
X65724379Y-128946841D01*
X65388382Y-128443984D01*
X64885525Y-128107987D01*
X64342639Y-128000000D01*
X67420301Y-128000000D01*
X67012740Y-128406849D01*
X66776270Y-128976333D01*
X66775732Y-129592961D01*
X67011208Y-130162857D01*
X67446849Y-130599260D01*
X68016333Y-130835730D01*
X68632961Y-130836268D01*
X69202857Y-130600792D01*
X69639260Y-130165151D01*
X69875730Y-129595667D01*
X69876236Y-129016000D01*
X72839203Y-129016000D01*
X72735987Y-129170475D01*
X72618000Y-129763634D01*
X72618000Y-129824366D01*
X72735987Y-130417525D01*
X73071984Y-130920382D01*
X73574841Y-131256379D01*
X74168000Y-131374366D01*
X74761159Y-131256379D01*
X75264016Y-130920382D01*
X75348461Y-130794000D01*
X77294136Y-130794000D01*
X77606849Y-131107260D01*
X78176333Y-131343730D01*
X78792961Y-131344268D01*
X79362857Y-131108792D01*
X79678200Y-130794000D01*
X81866136Y-130794000D01*
X82178849Y-131107260D01*
X82748333Y-131343730D01*
X83364961Y-131344268D01*
X83934857Y-131108792D01*
X84371260Y-130673151D01*
X84607730Y-130103667D01*
X84608097Y-129682079D01*
X86137654Y-129682079D01*
X86441494Y-130417429D01*
X87003612Y-130980529D01*
X87738430Y-131285652D01*
X88534079Y-131286346D01*
X89269429Y-130982506D01*
X89832529Y-130420388D01*
X90137652Y-129685570D01*
X90138346Y-128889921D01*
X89834506Y-128154571D01*
X89272388Y-127591471D01*
X88537570Y-127286348D01*
X87741921Y-127285654D01*
X87006571Y-127589494D01*
X86443471Y-128151612D01*
X86138348Y-128886430D01*
X86137654Y-129682079D01*
X84608097Y-129682079D01*
X84608268Y-129487039D01*
X84372792Y-128917143D01*
X83937151Y-128480740D01*
X83367667Y-128244270D01*
X82751039Y-128243732D01*
X82181143Y-128479208D01*
X81865800Y-128794000D01*
X79677864Y-128794000D01*
X79365151Y-128480740D01*
X78795667Y-128244270D01*
X78179039Y-128243732D01*
X77609143Y-128479208D01*
X77293800Y-128794000D01*
X75348461Y-128794000D01*
X75264016Y-128667618D01*
X74761159Y-128331621D01*
X74335302Y-128246912D01*
X74582214Y-128000000D01*
X80184000Y-128000000D01*
X80261293Y-127984625D01*
X80340043Y-127987751D01*
X80450858Y-127946919D01*
X80566683Y-127923880D01*
X80632212Y-127880095D01*
X80706161Y-127852847D01*
X80792913Y-127772718D01*
X80891107Y-127707107D01*
X80934892Y-127641579D01*
X80992784Y-127588106D01*
X81996592Y-126207634D01*
X82524000Y-126207634D01*
X82524000Y-126268366D01*
X82641987Y-126861525D01*
X82977984Y-127364382D01*
X83480841Y-127700379D01*
X84074000Y-127818366D01*
X84667159Y-127700379D01*
X85170016Y-127364382D01*
X85506013Y-126861525D01*
X85624000Y-126268366D01*
X85624000Y-126207634D01*
X85506013Y-125614475D01*
X85170016Y-125111618D01*
X84667159Y-124775621D01*
X84074000Y-124657634D01*
X83480841Y-124775621D01*
X82977984Y-125111618D01*
X82641987Y-125614475D01*
X82524000Y-126207634D01*
X81996592Y-126207634D01*
X85775614Y-121010591D01*
X85630348Y-121360430D01*
X85629654Y-122156079D01*
X85933494Y-122891429D01*
X86495612Y-123454529D01*
X87230430Y-123759652D01*
X88026079Y-123760346D01*
X88761429Y-123456506D01*
X89324529Y-122894388D01*
X89629652Y-122159570D01*
X89630346Y-121363921D01*
X89326506Y-120628571D01*
X88764388Y-120065471D01*
X88029570Y-119760348D01*
X87233921Y-119759654D01*
X86498571Y-120063494D01*
X86373527Y-120188320D01*
X87412265Y-118759811D01*
X88026079Y-118760346D01*
X88761429Y-118456506D01*
X89324529Y-117894388D01*
X89629652Y-117159570D01*
X89630346Y-116363921D01*
X89326506Y-115628571D01*
X88764388Y-115065471D01*
X88029570Y-114760348D01*
X87233921Y-114759654D01*
X86498571Y-115063494D01*
X85935471Y-115625612D01*
X85630348Y-116360430D01*
X85629654Y-117156079D01*
X85802097Y-117573423D01*
X79674724Y-126000000D01*
X74804214Y-126000000D01*
X75796606Y-125007608D01*
X75969410Y-125180713D01*
X76612376Y-125447696D01*
X77308569Y-125448304D01*
X77952001Y-125182443D01*
X78444713Y-124690590D01*
X78711696Y-124047624D01*
X78712304Y-123351431D01*
X78446443Y-122707999D01*
X77954590Y-122215287D01*
X77311624Y-121948304D01*
X76615431Y-121947696D01*
X75971999Y-122213557D01*
X75479287Y-122705410D01*
X75463490Y-122743453D01*
X75309317Y-122774120D01*
X75251774Y-122812569D01*
X74984893Y-122990893D01*
X72470000Y-125505786D01*
X72470000Y-125453500D01*
X72280500Y-125264000D01*
X71162000Y-125264000D01*
X71162000Y-125814000D01*
X70062000Y-125814000D01*
X70062000Y-125264000D01*
X68943500Y-125264000D01*
X68754000Y-125453500D01*
X68754000Y-125964775D01*
X68768591Y-126000000D01*
X64351191Y-126000000D01*
X64737421Y-125421964D01*
X64747122Y-125373193D01*
X64931880Y-125096683D01*
X65008000Y-124714000D01*
X64931880Y-124331317D01*
X64747122Y-124054807D01*
X64737421Y-124006036D01*
X64481377Y-123622837D01*
X64640989Y-123463225D01*
X68754000Y-123463225D01*
X68754000Y-123974500D01*
X68943500Y-124164000D01*
X70062000Y-124164000D01*
X70062000Y-123045500D01*
X71162000Y-123045500D01*
X71162000Y-124164000D01*
X72280500Y-124164000D01*
X72470000Y-123974500D01*
X72470000Y-123463225D01*
X72354602Y-123184628D01*
X72141373Y-122971399D01*
X71862776Y-122856000D01*
X71351500Y-122856000D01*
X71162000Y-123045500D01*
X70062000Y-123045500D01*
X69872500Y-122856000D01*
X69361224Y-122856000D01*
X69082627Y-122971399D01*
X68869398Y-123184628D01*
X68754000Y-123463225D01*
X64640989Y-123463225D01*
X68554214Y-119550000D01*
X69001307Y-119550000D01*
X69001307Y-121750000D01*
X69053604Y-122027933D01*
X69217862Y-122283198D01*
X69468492Y-122454446D01*
X69766000Y-122514693D01*
X71966000Y-122514693D01*
X72243933Y-122462396D01*
X72499198Y-122298138D01*
X72670446Y-122047508D01*
X72730693Y-121750000D01*
X72730693Y-119550000D01*
X72678396Y-119272067D01*
X72514138Y-119016802D01*
X72263508Y-118845554D01*
X71966000Y-118785307D01*
X69766000Y-118785307D01*
X69488067Y-118837604D01*
X69232802Y-119001862D01*
X69061554Y-119252492D01*
X69001307Y-119550000D01*
X68554214Y-119550000D01*
X69815940Y-118288274D01*
X69936000Y-118238666D01*
X70231628Y-117943554D01*
X70391818Y-117557774D01*
X70392182Y-117140058D01*
X70232666Y-116754000D01*
X69937554Y-116458372D01*
X69551774Y-116298182D01*
X69134058Y-116297818D01*
X68786739Y-116441327D01*
X68742013Y-116216475D01*
X68453582Y-115784805D01*
X70454881Y-115784805D01*
X70539983Y-116032846D01*
X71150064Y-116142239D01*
X71700017Y-116032846D01*
X71785119Y-115784805D01*
X71120000Y-115119685D01*
X70454881Y-115784805D01*
X68453582Y-115784805D01*
X68406016Y-115713618D01*
X67903159Y-115377621D01*
X67310000Y-115259634D01*
X66716841Y-115377621D01*
X66213984Y-115713618D01*
X66040000Y-115974004D01*
X65866016Y-115713618D01*
X65363159Y-115377621D01*
X64770000Y-115259634D01*
X64176841Y-115377621D01*
X63673984Y-115713618D01*
X63500000Y-115974004D01*
X63326016Y-115713618D01*
X62823159Y-115377621D01*
X62230000Y-115259634D01*
X61636841Y-115377621D01*
X61133984Y-115713618D01*
X60960000Y-115974004D01*
X60786016Y-115713618D01*
X60283159Y-115377621D01*
X59690000Y-115259634D01*
X59096841Y-115377621D01*
X58708000Y-115637435D01*
X58708000Y-115589998D01*
X58042061Y-115589998D01*
X57780631Y-115415335D01*
X57550000Y-115531263D01*
X57550000Y-116440000D01*
X57950000Y-116440000D01*
X57950000Y-117240000D01*
X57550000Y-117240000D01*
X57550000Y-118148737D01*
X57780631Y-118264665D01*
X58042061Y-118090002D01*
X58708000Y-118090002D01*
X58708000Y-118042565D01*
X59096841Y-118302379D01*
X59690000Y-118420366D01*
X60283159Y-118302379D01*
X60786016Y-117966382D01*
X60960000Y-117705996D01*
X61133984Y-117966382D01*
X61394693Y-118140582D01*
X61085317Y-118202120D01*
X61030622Y-118238666D01*
X60760893Y-118418893D01*
X59838252Y-119341534D01*
X59734792Y-119091143D01*
X59299151Y-118654740D01*
X58729667Y-118418270D01*
X58113039Y-118417732D01*
X57589630Y-118634000D01*
X56548213Y-118634000D01*
X56004216Y-118090002D01*
X56257939Y-118090002D01*
X56519369Y-118264665D01*
X56750000Y-118148737D01*
X56750000Y-117240000D01*
X56350000Y-117240000D01*
X56350000Y-116440000D01*
X56750000Y-116440000D01*
X56750000Y-115531263D01*
X56519369Y-115415335D01*
X56257939Y-115589998D01*
X55592000Y-115589998D01*
X55592000Y-115637435D01*
X55203159Y-115377621D01*
X54610000Y-115259634D01*
X54016841Y-115377621D01*
X53540024Y-115696219D01*
X53418138Y-115506802D01*
X53167508Y-115335554D01*
X53069960Y-115315800D01*
X52993880Y-114933317D01*
X52777107Y-114608893D01*
X52777104Y-114608891D01*
X51150980Y-112982767D01*
X51308000Y-113014000D01*
X55976660Y-113014000D01*
X55846182Y-113328226D01*
X55845818Y-113745942D01*
X56005334Y-114132000D01*
X56300446Y-114427628D01*
X56686226Y-114587818D01*
X57103942Y-114588182D01*
X57113908Y-114584064D01*
X69531761Y-114584064D01*
X69641154Y-115134017D01*
X69889195Y-115219119D01*
X70554315Y-114554000D01*
X71685685Y-114554000D01*
X72350805Y-115219119D01*
X72598846Y-115134017D01*
X72708239Y-114523936D01*
X72598846Y-113973983D01*
X72350805Y-113888881D01*
X71685685Y-114554000D01*
X70554315Y-114554000D01*
X69889195Y-113888881D01*
X69641154Y-113973983D01*
X69531761Y-114584064D01*
X57113908Y-114584064D01*
X57406905Y-114463000D01*
X61468000Y-114463000D01*
X61821983Y-114392589D01*
X62122074Y-114192074D01*
X62630071Y-113684076D01*
X62630074Y-113684074D01*
X62830589Y-113383982D01*
X62901000Y-113030000D01*
X62901000Y-110630368D01*
X63326016Y-110346382D01*
X63500000Y-110085996D01*
X63673984Y-110346382D01*
X63770000Y-110410538D01*
X63770000Y-112776000D01*
X63846120Y-113158684D01*
X64062893Y-113483107D01*
X64083726Y-113503940D01*
X64133334Y-113624000D01*
X64428446Y-113919628D01*
X64814226Y-114079818D01*
X65231942Y-114080182D01*
X65618000Y-113920666D01*
X65913628Y-113625554D01*
X66039178Y-113323195D01*
X70454881Y-113323195D01*
X71120000Y-113988315D01*
X71785119Y-113323195D01*
X71700017Y-113075154D01*
X71089936Y-112965761D01*
X70539983Y-113075154D01*
X70454881Y-113323195D01*
X66039178Y-113323195D01*
X66073818Y-113239774D01*
X66074182Y-112822058D01*
X65914666Y-112436000D01*
X65770000Y-112291081D01*
X65770000Y-110410538D01*
X65866016Y-110346382D01*
X66040000Y-110085996D01*
X66213984Y-110346382D01*
X66716841Y-110682379D01*
X67310000Y-110800366D01*
X67903159Y-110682379D01*
X68406016Y-110346382D01*
X68742013Y-109843525D01*
X68860000Y-109250366D01*
X68860000Y-109189634D01*
X68742013Y-108596475D01*
X68406016Y-108093618D01*
X67903159Y-107757621D01*
X67310000Y-107639634D01*
X66716841Y-107757621D01*
X66213984Y-108093618D01*
X66040000Y-108354004D01*
X65866016Y-108093618D01*
X65363159Y-107757621D01*
X65217990Y-107728745D01*
X65211238Y-107694802D01*
X65185880Y-107567316D01*
X64969107Y-107242893D01*
X64207107Y-106480893D01*
X64066295Y-106386805D01*
X65374881Y-106386805D01*
X65459983Y-106634846D01*
X66070064Y-106744239D01*
X66620017Y-106634846D01*
X66705119Y-106386805D01*
X66040000Y-105721685D01*
X65374881Y-106386805D01*
X64066295Y-106386805D01*
X63882684Y-106264120D01*
X63500000Y-106188000D01*
X62200144Y-106188000D01*
X62353260Y-106035151D01*
X62589730Y-105465667D01*
X62589973Y-105186064D01*
X64451761Y-105186064D01*
X64561154Y-105736017D01*
X64809195Y-105821119D01*
X65474315Y-105156000D01*
X66605685Y-105156000D01*
X67270805Y-105821119D01*
X67518846Y-105736017D01*
X67628239Y-105125936D01*
X67518846Y-104575983D01*
X67270805Y-104490881D01*
X66605685Y-105156000D01*
X65474315Y-105156000D01*
X64809195Y-104490881D01*
X64561154Y-104575983D01*
X64451761Y-105186064D01*
X62589973Y-105186064D01*
X62590268Y-104849039D01*
X62354792Y-104279143D01*
X62001463Y-103925195D01*
X65374881Y-103925195D01*
X66040000Y-104590315D01*
X66705119Y-103925195D01*
X66620017Y-103677154D01*
X66009936Y-103567761D01*
X65459983Y-103677154D01*
X65374881Y-103925195D01*
X62001463Y-103925195D01*
X61919151Y-103842740D01*
X61349667Y-103606270D01*
X60733039Y-103605732D01*
X60163143Y-103841208D01*
X59766956Y-104236703D01*
X59657421Y-103686036D01*
X59256392Y-103085852D01*
X58656208Y-102684823D01*
X57948244Y-102544000D01*
X57875756Y-102544000D01*
X57167792Y-102684823D01*
X56567608Y-103085852D01*
X56166579Y-103686036D01*
X56025756Y-104394000D01*
X56166579Y-105101964D01*
X56567608Y-105702148D01*
X57167792Y-106103177D01*
X57594225Y-106188000D01*
X57225749Y-106188000D01*
X57105774Y-106138182D01*
X56688058Y-106137818D01*
X56302000Y-106297334D01*
X56172628Y-106426480D01*
X55281000Y-105534852D01*
X55281000Y-102739053D01*
X55356000Y-102362000D01*
X55356000Y-101764461D01*
X55482382Y-101680016D01*
X55818379Y-101177159D01*
X55936366Y-100584000D01*
X55818379Y-99990841D01*
X55680173Y-99784000D01*
X57617307Y-99784000D01*
X57617307Y-101384000D01*
X57669604Y-101661933D01*
X57833862Y-101917198D01*
X58084492Y-102088446D01*
X58382000Y-102148693D01*
X59982000Y-102148693D01*
X60259933Y-102096396D01*
X60515198Y-101932138D01*
X60653950Y-101729068D01*
X61128841Y-102046379D01*
X61722000Y-102164366D01*
X62315159Y-102046379D01*
X62818016Y-101710382D01*
X62992000Y-101449996D01*
X63165984Y-101710382D01*
X63668841Y-102046379D01*
X64262000Y-102164366D01*
X64855159Y-102046379D01*
X65244000Y-101786565D01*
X65244000Y-101834002D01*
X65909939Y-101834002D01*
X66171369Y-102008665D01*
X66402000Y-101892737D01*
X66402000Y-100984000D01*
X67202000Y-100984000D01*
X67202000Y-101892737D01*
X67432631Y-102008665D01*
X67876912Y-101711838D01*
X68226694Y-101214635D01*
X68118307Y-100984000D01*
X67202000Y-100984000D01*
X66402000Y-100984000D01*
X66002000Y-100984000D01*
X66002000Y-100184000D01*
X66402000Y-100184000D01*
X66402000Y-99275263D01*
X67202000Y-99275263D01*
X67202000Y-100184000D01*
X68118307Y-100184000D01*
X68226694Y-99953365D01*
X67876912Y-99456162D01*
X67432631Y-99159335D01*
X67202000Y-99275263D01*
X66402000Y-99275263D01*
X66171369Y-99159335D01*
X65909939Y-99333998D01*
X65244000Y-99333998D01*
X65244000Y-99381435D01*
X64855159Y-99121621D01*
X64262000Y-99003634D01*
X63668841Y-99121621D01*
X63165984Y-99457618D01*
X62992000Y-99718004D01*
X62818016Y-99457618D01*
X62315159Y-99121621D01*
X61722000Y-99003634D01*
X61128841Y-99121621D01*
X60652024Y-99440219D01*
X60530138Y-99250802D01*
X60279508Y-99079554D01*
X59982000Y-99019307D01*
X58382000Y-99019307D01*
X58104067Y-99071604D01*
X57848802Y-99235862D01*
X57677554Y-99486492D01*
X57617307Y-99784000D01*
X55680173Y-99784000D01*
X55482382Y-99487984D01*
X55356000Y-99403539D01*
X55356000Y-97203864D01*
X55669260Y-96891151D01*
X55905730Y-96321667D01*
X55906268Y-95705039D01*
X55670792Y-95135143D01*
X55235151Y-94698740D01*
X54665667Y-94462270D01*
X54049039Y-94461732D01*
X53832000Y-94551411D01*
X53832000Y-94137340D01*
X54146226Y-94267818D01*
X54563942Y-94268182D01*
X54950000Y-94108666D01*
X55245628Y-93813554D01*
X55296022Y-93692192D01*
X55393579Y-93594635D01*
X57757306Y-93594635D01*
X58107088Y-94091838D01*
X58551369Y-94388665D01*
X58782000Y-94272737D01*
X58782000Y-93364000D01*
X57865693Y-93364000D01*
X57757306Y-93594635D01*
X55393579Y-93594635D01*
X56079107Y-92909107D01*
X56295880Y-92584684D01*
X56345870Y-92333365D01*
X57757306Y-92333365D01*
X57865693Y-92564000D01*
X58782000Y-92564000D01*
X58782000Y-91655263D01*
X59582000Y-91655263D01*
X59582000Y-92564000D01*
X59982000Y-92564000D01*
X59982000Y-93364000D01*
X59582000Y-93364000D01*
X59582000Y-94272737D01*
X59812631Y-94388665D01*
X60074061Y-94214002D01*
X60740000Y-94214002D01*
X60740000Y-94166565D01*
X61128841Y-94426379D01*
X61722000Y-94544366D01*
X62315159Y-94426379D01*
X62818016Y-94090382D01*
X62992000Y-93829996D01*
X63165984Y-94090382D01*
X63668841Y-94426379D01*
X64262000Y-94544366D01*
X64855159Y-94426379D01*
X65358016Y-94090382D01*
X65532000Y-93829996D01*
X65705984Y-94090382D01*
X66208841Y-94426379D01*
X66802000Y-94544366D01*
X67395159Y-94426379D01*
X67898016Y-94090382D01*
X68234013Y-93587525D01*
X68352000Y-92994366D01*
X68352000Y-92933634D01*
X68234013Y-92340475D01*
X67898016Y-91837618D01*
X67395159Y-91501621D01*
X66802000Y-91383634D01*
X66208841Y-91501621D01*
X65705984Y-91837618D01*
X65532000Y-92098004D01*
X65358016Y-91837618D01*
X64855159Y-91501621D01*
X64262000Y-91383634D01*
X63668841Y-91501621D01*
X63165984Y-91837618D01*
X62992000Y-92098004D01*
X62818016Y-91837618D01*
X62315159Y-91501621D01*
X61722000Y-91383634D01*
X61128841Y-91501621D01*
X60740000Y-91761435D01*
X60740000Y-91713998D01*
X60074061Y-91713998D01*
X59812631Y-91539335D01*
X59582000Y-91655263D01*
X58782000Y-91655263D01*
X58551369Y-91539335D01*
X58107088Y-91836162D01*
X57757306Y-92333365D01*
X56345870Y-92333365D01*
X56372000Y-92202000D01*
X56372000Y-89460961D01*
X57377732Y-89460961D01*
X57613208Y-90030857D01*
X58048849Y-90467260D01*
X58618333Y-90703730D01*
X59234961Y-90704268D01*
X59804857Y-90468792D01*
X60241260Y-90033151D01*
X60477730Y-89463667D01*
X60478268Y-88847039D01*
X60242792Y-88277143D01*
X59807151Y-87840740D01*
X59237667Y-87604270D01*
X58621039Y-87603732D01*
X58051143Y-87839208D01*
X57614740Y-88274849D01*
X57378270Y-88844333D01*
X57377732Y-89460961D01*
X56372000Y-89460961D01*
X56372000Y-86360000D01*
X61614654Y-86360000D01*
X61736447Y-86972293D01*
X62083283Y-87491371D01*
X62290756Y-87630000D01*
X62083283Y-87768629D01*
X61736447Y-88287707D01*
X61614654Y-88900000D01*
X61736447Y-89512293D01*
X62083283Y-90031371D01*
X62602361Y-90378207D01*
X63214654Y-90500000D01*
X63277346Y-90500000D01*
X63889639Y-90378207D01*
X64408717Y-90031371D01*
X64755553Y-89512293D01*
X64877346Y-88900000D01*
X64755553Y-88287707D01*
X64408717Y-87768629D01*
X64201244Y-87630000D01*
X64408717Y-87491371D01*
X64755553Y-86972293D01*
X64877346Y-86360000D01*
X64755553Y-85747707D01*
X64470109Y-85320509D01*
X64629198Y-85218138D01*
X64800446Y-84967508D01*
X64860693Y-84670000D01*
X64860693Y-84380961D01*
X64997732Y-84380961D01*
X65233208Y-84950857D01*
X65668849Y-85387260D01*
X66238333Y-85623730D01*
X66854961Y-85624268D01*
X67424857Y-85388792D01*
X67861260Y-84953151D01*
X68097730Y-84383667D01*
X68098268Y-83767039D01*
X67862792Y-83197143D01*
X67427151Y-82760740D01*
X66857667Y-82524270D01*
X66241039Y-82523732D01*
X65671143Y-82759208D01*
X65234740Y-83194849D01*
X64998270Y-83764333D01*
X64997732Y-84380961D01*
X64860693Y-84380961D01*
X64860693Y-82970000D01*
X64808396Y-82692067D01*
X64644138Y-82436802D01*
X64393508Y-82265554D01*
X64096000Y-82205307D01*
X62396000Y-82205307D01*
X62118067Y-82257604D01*
X61862802Y-82421862D01*
X61691554Y-82672492D01*
X61631307Y-82970000D01*
X61631307Y-84670000D01*
X61683604Y-84947933D01*
X61847862Y-85203198D01*
X62021158Y-85321606D01*
X61736447Y-85747707D01*
X61614654Y-86360000D01*
X56372000Y-86360000D01*
X56372000Y-86229108D01*
X56528964Y-85601250D01*
X57462967Y-84667247D01*
X57613208Y-85030857D01*
X58048849Y-85467260D01*
X58618333Y-85703730D01*
X59234961Y-85704268D01*
X59804857Y-85468792D01*
X60241260Y-85033151D01*
X60477730Y-84463667D01*
X60478268Y-83847039D01*
X60242792Y-83277143D01*
X59807151Y-82840740D01*
X59441362Y-82688852D01*
X61413107Y-80717107D01*
X61629880Y-80392684D01*
X61706000Y-80010000D01*
X61706000Y-78138214D01*
X61882214Y-77962000D01*
X61982288Y-77962000D01*
X61935307Y-78194000D01*
X61935307Y-79794000D01*
X61987604Y-80071933D01*
X62151862Y-80327198D01*
X62402492Y-80498446D01*
X62700000Y-80558693D01*
X64300000Y-80558693D01*
X64577933Y-80506396D01*
X64833198Y-80342138D01*
X64971950Y-80139068D01*
X65232866Y-80313406D01*
X65332893Y-80463107D01*
X65657317Y-80679880D01*
X66040000Y-80756000D01*
X66118226Y-80740440D01*
X67872891Y-82495104D01*
X67872893Y-82495107D01*
X68197317Y-82711880D01*
X68580000Y-82788000D01*
X70642301Y-82788000D01*
X70234740Y-83194849D01*
X69998270Y-83764333D01*
X69997732Y-84380961D01*
X70233208Y-84950857D01*
X70668849Y-85387260D01*
X71238333Y-85623730D01*
X71854961Y-85624268D01*
X72406000Y-85396584D01*
X72406000Y-89932000D01*
X70772214Y-89932000D01*
X69922070Y-89081856D01*
X69958244Y-88900000D01*
X69817421Y-88192036D01*
X69416392Y-87591852D01*
X68816208Y-87190823D01*
X68108244Y-87050000D01*
X68035756Y-87050000D01*
X67327792Y-87190823D01*
X66727608Y-87591852D01*
X66326579Y-88192036D01*
X66185756Y-88900000D01*
X66326579Y-89607964D01*
X66727608Y-90208148D01*
X67327792Y-90609177D01*
X68035756Y-90750000D01*
X68108244Y-90750000D01*
X68653356Y-90641570D01*
X68943786Y-90932000D01*
X68888893Y-90986893D01*
X68672120Y-91311316D01*
X68672120Y-91311317D01*
X68596000Y-91694000D01*
X68596000Y-104218136D01*
X68282740Y-104530849D01*
X68046270Y-105100333D01*
X68045732Y-105716961D01*
X68281208Y-106286857D01*
X68716849Y-106723260D01*
X69286333Y-106959730D01*
X69902961Y-106960268D01*
X70472857Y-106724792D01*
X70909260Y-106289151D01*
X71145730Y-105719667D01*
X71146268Y-105103039D01*
X70910792Y-104533143D01*
X70596000Y-104217800D01*
X70596000Y-101798863D01*
X70778446Y-101981628D01*
X70899808Y-102032022D01*
X72110893Y-103243107D01*
X72152000Y-103270574D01*
X72152000Y-108393856D01*
X71999151Y-108240740D01*
X71429667Y-108004270D01*
X70813039Y-108003732D01*
X70243143Y-108239208D01*
X69806740Y-108674849D01*
X69570270Y-109244333D01*
X69569732Y-109860961D01*
X69805208Y-110430857D01*
X70240849Y-110867260D01*
X70810333Y-111103730D01*
X71426961Y-111104268D01*
X71996857Y-110868792D01*
X72433260Y-110433151D01*
X72669730Y-109863667D01*
X72670143Y-109390357D01*
X75211848Y-111932062D01*
X75211696Y-112106569D01*
X75477557Y-112750001D01*
X75969410Y-113242713D01*
X76612376Y-113509696D01*
X77308569Y-113510304D01*
X77952001Y-113244443D01*
X78444713Y-112752590D01*
X78711696Y-112109624D01*
X78712304Y-111413431D01*
X78446443Y-110769999D01*
X77954590Y-110277287D01*
X77311624Y-110010304D01*
X76615431Y-110009696D01*
X76263376Y-110155162D01*
X74152000Y-108043786D01*
X74152000Y-107570214D01*
X76254893Y-109673107D01*
X76579317Y-109889880D01*
X76962000Y-109966000D01*
X79087786Y-109966000D01*
X79264000Y-110142214D01*
X79264000Y-114139786D01*
X77297494Y-116106292D01*
X76615431Y-116105696D01*
X75971999Y-116371557D01*
X75479287Y-116863410D01*
X75212304Y-117506376D01*
X75211696Y-118202569D01*
X75477557Y-118846001D01*
X75969410Y-119338713D01*
X76612376Y-119605696D01*
X77308569Y-119606304D01*
X77952001Y-119340443D01*
X78444713Y-118848590D01*
X78711696Y-118205624D01*
X78712295Y-117519919D01*
X80971107Y-115261107D01*
X81086954Y-115087730D01*
X81187880Y-114936683D01*
X81264000Y-114554000D01*
X81264000Y-113844961D01*
X82523732Y-113844961D01*
X82759208Y-114414857D01*
X83194849Y-114851260D01*
X83764333Y-115087730D01*
X84380961Y-115088268D01*
X84950857Y-114852792D01*
X85387260Y-114417151D01*
X85623730Y-113847667D01*
X85624086Y-113439063D01*
X86834820Y-113439063D01*
X86989684Y-113704632D01*
X87782604Y-113801644D01*
X88270316Y-113704632D01*
X88425180Y-113439063D01*
X87630000Y-112643883D01*
X86834820Y-113439063D01*
X85624086Y-113439063D01*
X85624268Y-113231039D01*
X85388792Y-112661143D01*
X84953151Y-112224740D01*
X84383667Y-111988270D01*
X83767039Y-111987732D01*
X83197143Y-112223208D01*
X82760740Y-112658849D01*
X82524270Y-113228333D01*
X82523732Y-113844961D01*
X81264000Y-113844961D01*
X81264000Y-111912604D01*
X85588356Y-111912604D01*
X85685368Y-112400316D01*
X85950937Y-112555180D01*
X86746117Y-111760000D01*
X88513883Y-111760000D01*
X89309063Y-112555180D01*
X89574632Y-112400316D01*
X89671644Y-111607396D01*
X89574632Y-111119684D01*
X89309063Y-110964820D01*
X88513883Y-111760000D01*
X86746117Y-111760000D01*
X85950937Y-110964820D01*
X85685368Y-111119684D01*
X85588356Y-111912604D01*
X81264000Y-111912604D01*
X81264000Y-110080937D01*
X86834820Y-110080937D01*
X87630000Y-110876117D01*
X88425180Y-110080937D01*
X88270316Y-109815368D01*
X87477396Y-109718356D01*
X86989684Y-109815368D01*
X86834820Y-110080937D01*
X81264000Y-110080937D01*
X81264000Y-109728000D01*
X81187880Y-109345317D01*
X81187880Y-109345316D01*
X80971107Y-109020893D01*
X80377848Y-108427634D01*
X82016000Y-108427634D01*
X82016000Y-108488366D01*
X82133987Y-109081525D01*
X82469984Y-109584382D01*
X82972841Y-109920379D01*
X83566000Y-110038366D01*
X84159159Y-109920379D01*
X84662016Y-109584382D01*
X84998013Y-109081525D01*
X85116000Y-108488366D01*
X85116000Y-108427634D01*
X84998013Y-107834475D01*
X84662016Y-107331618D01*
X84159159Y-106995621D01*
X83566000Y-106877634D01*
X82972841Y-106995621D01*
X82469984Y-107331618D01*
X82133987Y-107834475D01*
X82016000Y-108427634D01*
X80377848Y-108427634D01*
X80289075Y-108338861D01*
X80561260Y-108067151D01*
X80797730Y-107497667D01*
X80798268Y-106881039D01*
X80562792Y-106311143D01*
X80127151Y-105874740D01*
X79557667Y-105638270D01*
X78941039Y-105637732D01*
X78371143Y-105873208D01*
X77934740Y-106308849D01*
X77698270Y-106878333D01*
X77697732Y-107494961D01*
X77892361Y-107966000D01*
X77376214Y-107966000D01*
X75804221Y-106394007D01*
X75909260Y-106289151D01*
X76145730Y-105719667D01*
X76146268Y-105103039D01*
X75910792Y-104533143D01*
X75475151Y-104096740D01*
X74905667Y-103860270D01*
X74289039Y-103859732D01*
X74152000Y-103916355D01*
X74152000Y-103616000D01*
X83566000Y-103616000D01*
X83575657Y-103614079D01*
X85883654Y-103614079D01*
X86187494Y-104349429D01*
X86749612Y-104912529D01*
X87484430Y-105217652D01*
X88280079Y-105218346D01*
X89015429Y-104914506D01*
X89578529Y-104352388D01*
X89883652Y-103617570D01*
X89884346Y-102821921D01*
X89580506Y-102086571D01*
X89018388Y-101523471D01*
X88283570Y-101218348D01*
X87487921Y-101217654D01*
X86752571Y-101521494D01*
X86189471Y-102083612D01*
X85884348Y-102818430D01*
X85883654Y-103614079D01*
X83575657Y-103614079D01*
X83948683Y-103539880D01*
X84273107Y-103323107D01*
X84434200Y-103082014D01*
X87353096Y-100163118D01*
X87484430Y-100217652D01*
X88280079Y-100218346D01*
X89015429Y-99914506D01*
X89578529Y-99352388D01*
X89883652Y-98617570D01*
X89884346Y-97821921D01*
X89580506Y-97086571D01*
X89018388Y-96523471D01*
X88283570Y-96218348D01*
X87487921Y-96217654D01*
X86752571Y-96521494D01*
X86189471Y-97083612D01*
X85884348Y-97818430D01*
X85883654Y-98614079D01*
X85939222Y-98748564D01*
X83071786Y-101616000D01*
X73540490Y-101616000D01*
X73534683Y-101612120D01*
X73252131Y-101555917D01*
X72314274Y-100618060D01*
X72264666Y-100498000D01*
X71969554Y-100202372D01*
X71583774Y-100042182D01*
X71166058Y-100041818D01*
X70780000Y-100201334D01*
X70596000Y-100385013D01*
X70596000Y-98524961D01*
X71855732Y-98524961D01*
X72091208Y-99094857D01*
X72526849Y-99531260D01*
X73096333Y-99767730D01*
X73712961Y-99768268D01*
X74282857Y-99532792D01*
X74719260Y-99097151D01*
X74955730Y-98527667D01*
X74956268Y-97911039D01*
X74720792Y-97341143D01*
X74285151Y-96904740D01*
X73715667Y-96668270D01*
X73099039Y-96667732D01*
X72529143Y-96903208D01*
X72092740Y-97338849D01*
X71856270Y-97908333D01*
X71855732Y-98524961D01*
X70596000Y-98524961D01*
X70596000Y-92108214D01*
X70772214Y-91932000D01*
X72500301Y-91932000D01*
X72092740Y-92338849D01*
X71856270Y-92908333D01*
X71855732Y-93524961D01*
X72091208Y-94094857D01*
X72526849Y-94531260D01*
X73096333Y-94767730D01*
X73712961Y-94768268D01*
X74282857Y-94532792D01*
X74358146Y-94457634D01*
X77698000Y-94457634D01*
X77698000Y-94518366D01*
X77815987Y-95111525D01*
X78151984Y-95614382D01*
X78654841Y-95950379D01*
X79248000Y-96068366D01*
X79841159Y-95950379D01*
X80344016Y-95614382D01*
X80680013Y-95111525D01*
X80798000Y-94518366D01*
X80798000Y-94457634D01*
X80680013Y-93864475D01*
X80453158Y-93524961D01*
X81761732Y-93524961D01*
X81997208Y-94094857D01*
X82432849Y-94531260D01*
X82551558Y-94580552D01*
X82252740Y-94878849D01*
X82016270Y-95448333D01*
X82015732Y-96064961D01*
X82251208Y-96634857D01*
X82686849Y-97071260D01*
X83256333Y-97307730D01*
X83872961Y-97308268D01*
X84442857Y-97072792D01*
X84879260Y-96637151D01*
X85115730Y-96067667D01*
X85115897Y-95876317D01*
X86051104Y-94941109D01*
X86051107Y-94941107D01*
X86267880Y-94616683D01*
X86298851Y-94460981D01*
X86749612Y-94912529D01*
X87484430Y-95217652D01*
X88280079Y-95218346D01*
X89015429Y-94914506D01*
X89578529Y-94352388D01*
X89883652Y-93617570D01*
X89884346Y-92821921D01*
X89580506Y-92086571D01*
X89018388Y-91523471D01*
X88283570Y-91218348D01*
X87487921Y-91217654D01*
X86752571Y-91521494D01*
X86344000Y-91929352D01*
X86344000Y-91854214D01*
X92401107Y-85797107D01*
X92525790Y-85610506D01*
X92617880Y-85472683D01*
X92694000Y-85090000D01*
X92694000Y-68701877D01*
X92871933Y-68668396D01*
X93127198Y-68504138D01*
X93298446Y-68253508D01*
X93358693Y-67956000D01*
X93358693Y-66156000D01*
X93306396Y-65878067D01*
X93142138Y-65622802D01*
X93040453Y-65553323D01*
X93769773Y-64824003D01*
X93378280Y-64432510D01*
X93276786Y-63922269D01*
X93024731Y-63821665D01*
X92330396Y-64516000D01*
X92648594Y-64834198D01*
X92091485Y-65391307D01*
X91932911Y-65391307D01*
X91694000Y-65152396D01*
X91455089Y-65391307D01*
X91296515Y-65391307D01*
X90739406Y-64834198D01*
X91057604Y-64516000D01*
X90363269Y-63821665D01*
X90111214Y-63922269D01*
X90031046Y-64411184D01*
X89618227Y-64824003D01*
X90346768Y-65552544D01*
X90260802Y-65607862D01*
X90089554Y-65858492D01*
X90029307Y-66156000D01*
X90029307Y-67956000D01*
X90081604Y-68233933D01*
X90245862Y-68489198D01*
X90496492Y-68660446D01*
X90694000Y-68700442D01*
X90694000Y-84675786D01*
X84636893Y-90732893D01*
X84420120Y-91057316D01*
X84368927Y-91314683D01*
X84344000Y-91440000D01*
X84344000Y-92057856D01*
X84191151Y-91904740D01*
X83621667Y-91668270D01*
X83005039Y-91667732D01*
X82435143Y-91903208D01*
X81998740Y-92338849D01*
X81762270Y-92908333D01*
X81761732Y-93524961D01*
X80453158Y-93524961D01*
X80344016Y-93361618D01*
X79841159Y-93025621D01*
X79248000Y-92907634D01*
X78654841Y-93025621D01*
X78151984Y-93361618D01*
X77815987Y-93864475D01*
X77698000Y-94457634D01*
X74358146Y-94457634D01*
X74719260Y-94097151D01*
X74955730Y-93527667D01*
X74956268Y-92911039D01*
X74720792Y-92341143D01*
X74312363Y-91932000D01*
X78067539Y-91932000D01*
X78151984Y-92058382D01*
X78654841Y-92394379D01*
X79248000Y-92512366D01*
X79841159Y-92394379D01*
X80344016Y-92058382D01*
X80680013Y-91555525D01*
X80798000Y-90962366D01*
X80798000Y-90901634D01*
X80680013Y-90308475D01*
X80344016Y-89805618D01*
X79841159Y-89469621D01*
X79248000Y-89351634D01*
X78654841Y-89469621D01*
X78151984Y-89805618D01*
X78067539Y-89932000D01*
X77550000Y-89932000D01*
X77550000Y-89639500D01*
X77360500Y-89450000D01*
X76242000Y-89450000D01*
X76242000Y-89932000D01*
X75142000Y-89932000D01*
X75142000Y-89450000D01*
X74592000Y-89450000D01*
X74592000Y-88350000D01*
X75142000Y-88350000D01*
X75142000Y-87915770D01*
X75184000Y-87873770D01*
X75419907Y-88109677D01*
X76242000Y-87287584D01*
X76242000Y-88350000D01*
X77360500Y-88350000D01*
X77550000Y-88160500D01*
X77550000Y-87649225D01*
X77434602Y-87370628D01*
X77221373Y-87157399D01*
X76942776Y-87042000D01*
X76487584Y-87042000D01*
X77187677Y-86341907D01*
X76735126Y-85889357D01*
X76662846Y-85525983D01*
X76414805Y-85440881D01*
X75749685Y-86106000D01*
X76032528Y-86388843D01*
X75466843Y-86954528D01*
X75184000Y-86671685D01*
X74901157Y-86954528D01*
X74406000Y-86459371D01*
X74406000Y-86318315D01*
X74618315Y-86106000D01*
X74406000Y-85893685D01*
X74406000Y-85752629D01*
X74901157Y-85257472D01*
X75184000Y-85540315D01*
X75849119Y-84875195D01*
X75764017Y-84627154D01*
X75409323Y-84563554D01*
X75155849Y-84310079D01*
X86137654Y-84310079D01*
X86441494Y-85045429D01*
X87003612Y-85608529D01*
X87738430Y-85913652D01*
X88534079Y-85914346D01*
X89269429Y-85610506D01*
X89832529Y-85048388D01*
X90137652Y-84313570D01*
X90138346Y-83517921D01*
X89834506Y-82782571D01*
X89272388Y-82219471D01*
X88537570Y-81914348D01*
X87741921Y-81913654D01*
X87006571Y-82217494D01*
X86443471Y-82779612D01*
X86138348Y-83514430D01*
X86137654Y-84310079D01*
X75155849Y-84310079D01*
X74948093Y-84102323D01*
X74406000Y-84644416D01*
X74406000Y-83764863D01*
X74588446Y-83947628D01*
X74974226Y-84107818D01*
X75391942Y-84108182D01*
X75513392Y-84058000D01*
X80264000Y-84058000D01*
X80646684Y-83981880D01*
X80971107Y-83765107D01*
X81733107Y-83003107D01*
X81949880Y-82678684D01*
X82026000Y-82296000D01*
X82026000Y-81360050D01*
X82215984Y-81644382D01*
X82718841Y-81980379D01*
X83312000Y-82098366D01*
X83905159Y-81980379D01*
X84408016Y-81644382D01*
X84744013Y-81141525D01*
X84853109Y-80593063D01*
X87342820Y-80593063D01*
X87497684Y-80858632D01*
X88290604Y-80955644D01*
X88778316Y-80858632D01*
X88933180Y-80593063D01*
X88138000Y-79797883D01*
X87342820Y-80593063D01*
X84853109Y-80593063D01*
X84862000Y-80548366D01*
X84862000Y-80487634D01*
X84744013Y-79894475D01*
X84408016Y-79391618D01*
X83921597Y-79066604D01*
X86096356Y-79066604D01*
X86193368Y-79554316D01*
X86458937Y-79709180D01*
X87254117Y-78914000D01*
X89021883Y-78914000D01*
X89817063Y-79709180D01*
X90082632Y-79554316D01*
X90179644Y-78761396D01*
X90082632Y-78273684D01*
X89817063Y-78118820D01*
X89021883Y-78914000D01*
X87254117Y-78914000D01*
X86458937Y-78118820D01*
X86193368Y-78273684D01*
X86096356Y-79066604D01*
X83921597Y-79066604D01*
X83905159Y-79055621D01*
X83312000Y-78937634D01*
X82718841Y-79055621D01*
X82215984Y-79391618D01*
X82026000Y-79675950D01*
X82026000Y-77234937D01*
X87342820Y-77234937D01*
X88138000Y-78030117D01*
X88933180Y-77234937D01*
X88778316Y-76969368D01*
X87985396Y-76872356D01*
X87497684Y-76969368D01*
X87342820Y-77234937D01*
X82026000Y-77234937D01*
X82026000Y-74728961D01*
X82189732Y-74728961D01*
X82425208Y-75298857D01*
X82860849Y-75735260D01*
X83430333Y-75971730D01*
X84046961Y-75972268D01*
X84616857Y-75736792D01*
X85053260Y-75301151D01*
X85289730Y-74731667D01*
X85290097Y-74310079D01*
X86137654Y-74310079D01*
X86441494Y-75045429D01*
X87003612Y-75608529D01*
X87738430Y-75913652D01*
X88534079Y-75914346D01*
X89269429Y-75610506D01*
X89832529Y-75048388D01*
X90137652Y-74313570D01*
X90138346Y-73517921D01*
X89834506Y-72782571D01*
X89272388Y-72219471D01*
X88537570Y-71914348D01*
X87741921Y-71913654D01*
X87006571Y-72217494D01*
X86443471Y-72779612D01*
X86138348Y-73514430D01*
X86137654Y-74310079D01*
X85290097Y-74310079D01*
X85290268Y-74115039D01*
X85054792Y-73545143D01*
X84619151Y-73108740D01*
X84049667Y-72872270D01*
X83433039Y-72871732D01*
X82863143Y-73107208D01*
X82426740Y-73542849D01*
X82190270Y-74112333D01*
X82189732Y-74728961D01*
X82026000Y-74728961D01*
X82026000Y-70278538D01*
X82122016Y-70214382D01*
X82296000Y-69953996D01*
X82469984Y-70214382D01*
X82972841Y-70550379D01*
X83566000Y-70668366D01*
X84159159Y-70550379D01*
X84662016Y-70214382D01*
X84998013Y-69711525D01*
X85116000Y-69118366D01*
X85116000Y-69057634D01*
X84998013Y-68464475D01*
X84662016Y-67961618D01*
X84310884Y-67727000D01*
X86106000Y-67727000D01*
X86459983Y-67656589D01*
X86760074Y-67456074D01*
X87776074Y-66440074D01*
X87976589Y-66139983D01*
X88047000Y-65786000D01*
X88047000Y-63185269D01*
X90999665Y-63185269D01*
X91694000Y-63879604D01*
X92388335Y-63185269D01*
X92287731Y-62933214D01*
X91636830Y-62826485D01*
X91100269Y-62933214D01*
X90999665Y-63185269D01*
X88047000Y-63185269D01*
X88047000Y-59436000D01*
X87991374Y-59156348D01*
X93984000Y-63625425D01*
X93984000Y-143630204D01*
X92621758Y-144538365D01*
X91651054Y-144537518D01*
X90628182Y-144960160D01*
X89844910Y-145742066D01*
X89473108Y-146637465D01*
X85776306Y-149102000D01*
X73445089Y-149102000D01*
X73569198Y-149022138D01*
X73740446Y-148771508D01*
X73800693Y-148474000D01*
X73800693Y-147909500D01*
X77182000Y-147909500D01*
X77182000Y-148270775D01*
X77297398Y-148549372D01*
X77510627Y-148762601D01*
X77789224Y-148878000D01*
X78150500Y-148878000D01*
X78340000Y-148688500D01*
X78340000Y-147720000D01*
X77371500Y-147720000D01*
X77182000Y-147909500D01*
X73800693Y-147909500D01*
X73800693Y-146674000D01*
X73748396Y-146396067D01*
X73731124Y-146369225D01*
X77182000Y-146369225D01*
X77182000Y-146730500D01*
X77371500Y-146920000D01*
X78340000Y-146920000D01*
X78340000Y-145951500D01*
X79140000Y-145951500D01*
X79140000Y-146920000D01*
X79540000Y-146920000D01*
X79540000Y-147720000D01*
X79140000Y-147720000D01*
X79140000Y-148688500D01*
X79329500Y-148878000D01*
X79690776Y-148878000D01*
X79969373Y-148762601D01*
X80161972Y-148570002D01*
X80297701Y-148570002D01*
X80360849Y-148633260D01*
X80930333Y-148869730D01*
X81546961Y-148870268D01*
X82116857Y-148634792D01*
X82553260Y-148199151D01*
X82789730Y-147629667D01*
X82790268Y-147013039D01*
X82554792Y-146443143D01*
X82119151Y-146006740D01*
X81549667Y-145770270D01*
X80933039Y-145769732D01*
X80363143Y-146005208D01*
X80298000Y-146070237D01*
X80298000Y-146069998D01*
X80161972Y-146069998D01*
X79969373Y-145877399D01*
X79690776Y-145762000D01*
X79329500Y-145762000D01*
X79140000Y-145951500D01*
X78340000Y-145951500D01*
X78150500Y-145762000D01*
X77789224Y-145762000D01*
X77510627Y-145877399D01*
X77297398Y-146090628D01*
X77182000Y-146369225D01*
X73731124Y-146369225D01*
X73584138Y-146140802D01*
X73333508Y-145969554D01*
X73036000Y-145909307D01*
X71236000Y-145909307D01*
X70958067Y-145961604D01*
X70702802Y-146125862D01*
X70599706Y-146276748D01*
X70259753Y-146049599D01*
X69628325Y-145924000D01*
X69563675Y-145924000D01*
X68932247Y-146049599D01*
X68521580Y-146323998D01*
X68102136Y-146323998D01*
X67750097Y-146068246D01*
X67506000Y-146167704D01*
X67506000Y-147124000D01*
X67956000Y-147124000D01*
X67956000Y-147361219D01*
X67913675Y-147574000D01*
X67956000Y-147786781D01*
X67956000Y-148024000D01*
X67506000Y-148024000D01*
X67506000Y-148474000D01*
X66606000Y-148474000D01*
X66606000Y-148024000D01*
X65658147Y-148024000D01*
X65550278Y-148268092D01*
X65776033Y-148606000D01*
X63078693Y-148606000D01*
X63078693Y-146879908D01*
X65550278Y-146879908D01*
X65658147Y-147124000D01*
X66606000Y-147124000D01*
X66606000Y-146167704D01*
X66361903Y-146068246D01*
X65838511Y-146448484D01*
X65550278Y-146879908D01*
X63078693Y-146879908D01*
X63078693Y-146474000D01*
X63026396Y-146196067D01*
X62862138Y-145940802D01*
X62611508Y-145769554D01*
X62314000Y-145709307D01*
X62214000Y-145709307D01*
X62214000Y-145702214D01*
X62644214Y-145272000D01*
X69850000Y-145272000D01*
X70232684Y-145195880D01*
X70557107Y-144979107D01*
X72042214Y-143494000D01*
X72976136Y-143494000D01*
X73288849Y-143807260D01*
X73858333Y-144043730D01*
X74474961Y-144044268D01*
X75044857Y-143808792D01*
X75481260Y-143373151D01*
X75717730Y-142803667D01*
X75718026Y-142463634D01*
X76936000Y-142463634D01*
X76936000Y-142524366D01*
X77053987Y-143117525D01*
X77389984Y-143620382D01*
X77892841Y-143956379D01*
X78486000Y-144074366D01*
X79079159Y-143956379D01*
X79582016Y-143620382D01*
X79913262Y-143124635D01*
X81633306Y-143124635D01*
X81983088Y-143621838D01*
X82427369Y-143918665D01*
X82658000Y-143802737D01*
X82658000Y-142894000D01*
X83458000Y-142894000D01*
X83458000Y-143802737D01*
X83688631Y-143918665D01*
X84132912Y-143621838D01*
X84482694Y-143124635D01*
X84374307Y-142894000D01*
X83458000Y-142894000D01*
X82658000Y-142894000D01*
X81741693Y-142894000D01*
X81633306Y-143124635D01*
X79913262Y-143124635D01*
X79918013Y-143117525D01*
X80036000Y-142524366D01*
X80036000Y-142463634D01*
X79918013Y-141870475D01*
X79913263Y-141863365D01*
X81633306Y-141863365D01*
X81741693Y-142094000D01*
X82658000Y-142094000D01*
X82658000Y-141185263D01*
X83458000Y-141185263D01*
X83458000Y-142094000D01*
X84374307Y-142094000D01*
X84482694Y-141863365D01*
X84132912Y-141366162D01*
X83688631Y-141069335D01*
X83458000Y-141185263D01*
X82658000Y-141185263D01*
X82427369Y-141069335D01*
X81983088Y-141366162D01*
X81633306Y-141863365D01*
X79913263Y-141863365D01*
X79582016Y-141367618D01*
X79079159Y-141031621D01*
X78486000Y-140913634D01*
X77892841Y-141031621D01*
X77389984Y-141367618D01*
X77053987Y-141870475D01*
X76936000Y-142463634D01*
X75718026Y-142463634D01*
X75718268Y-142187039D01*
X75482792Y-141617143D01*
X75047151Y-141180740D01*
X74477667Y-140944270D01*
X73861039Y-140943732D01*
X73291143Y-141179208D01*
X72975800Y-141494000D01*
X71628005Y-141494000D01*
X71628000Y-141493999D01*
X71245316Y-141570120D01*
X70920893Y-141786893D01*
X69435786Y-143272000D01*
X68939655Y-143272000D01*
X69068446Y-143083508D01*
X69128693Y-142786000D01*
X69128693Y-141186000D01*
X69076396Y-140908067D01*
X68912138Y-140652802D01*
X68720367Y-140521770D01*
X68877260Y-140365151D01*
X69113730Y-139795667D01*
X69113829Y-139682079D01*
X86137654Y-139682079D01*
X86441494Y-140417429D01*
X87003612Y-140980529D01*
X87738430Y-141285652D01*
X88534079Y-141286346D01*
X89269429Y-140982506D01*
X89832529Y-140420388D01*
X90137652Y-139685570D01*
X90138346Y-138889921D01*
X89834506Y-138154571D01*
X89272388Y-137591471D01*
X88537570Y-137286348D01*
X87741921Y-137285654D01*
X87006571Y-137589494D01*
X86443471Y-138151612D01*
X86138348Y-138886430D01*
X86137654Y-139682079D01*
X69113829Y-139682079D01*
X69114268Y-139179039D01*
X68878792Y-138609143D01*
X68443151Y-138172740D01*
X67873667Y-137936270D01*
X67257039Y-137935732D01*
X66687143Y-138171208D01*
X66250740Y-138606849D01*
X66014270Y-139176333D01*
X66013732Y-139792961D01*
X66249208Y-140362857D01*
X66409162Y-140523091D01*
X66230802Y-140637862D01*
X66059554Y-140888492D01*
X66004040Y-141162628D01*
X58811159Y-142008849D01*
X58680263Y-142051278D01*
X58545316Y-142078121D01*
X58496194Y-142110943D01*
X58439991Y-142129161D01*
X58335300Y-142218449D01*
X58220893Y-142294893D01*
X56950893Y-143564893D01*
X56734120Y-143889316D01*
X56719212Y-143964265D01*
X56658000Y-144272000D01*
X56658000Y-145709307D01*
X56304000Y-145709307D01*
X56026067Y-145761604D01*
X55770802Y-145925862D01*
X55624400Y-146140128D01*
X55496138Y-145940802D01*
X55245508Y-145769554D01*
X54948000Y-145709307D01*
X52748000Y-145709307D01*
X52470067Y-145761604D01*
X52214802Y-145925862D01*
X52043554Y-146176492D01*
X51983307Y-146474000D01*
X51983307Y-148105093D01*
X51902693Y-148024479D01*
X51902693Y-146474000D01*
X51850396Y-146196067D01*
X51686138Y-145940802D01*
X51435508Y-145769554D01*
X51138000Y-145709307D01*
X49158072Y-145709307D01*
X49183880Y-145670683D01*
X49260000Y-145288000D01*
X49260000Y-142908214D01*
X51976214Y-140192000D01*
X55626000Y-140192000D01*
X56008684Y-140115880D01*
X56333107Y-139899107D01*
X57010285Y-139221929D01*
X57404000Y-139300244D01*
X58111964Y-139159421D01*
X58712148Y-138758392D01*
X58942263Y-138414000D01*
X59675737Y-138414000D01*
X59905852Y-138758392D01*
X60506036Y-139159421D01*
X61214000Y-139300244D01*
X61921964Y-139159421D01*
X62522148Y-138758392D01*
X62923177Y-138158208D01*
X63064000Y-137450244D01*
X63064000Y-137377756D01*
X62923177Y-136669792D01*
X62522148Y-136069608D01*
X62365685Y-135965063D01*
X87342820Y-135965063D01*
X87497684Y-136230632D01*
X88290604Y-136327644D01*
X88778316Y-136230632D01*
X88933180Y-135965063D01*
X88138000Y-135169883D01*
X87342820Y-135965063D01*
X62365685Y-135965063D01*
X61921964Y-135668579D01*
X61214000Y-135527756D01*
X60506036Y-135668579D01*
X59905852Y-136069608D01*
X59675737Y-136414000D01*
X58942263Y-136414000D01*
X58712148Y-136069608D01*
X58111964Y-135668579D01*
X57404000Y-135527756D01*
X56696036Y-135668579D01*
X56095852Y-136069608D01*
X55694823Y-136669792D01*
X55626000Y-137015788D01*
X55557177Y-136669792D01*
X55156148Y-136069608D01*
X54555964Y-135668579D01*
X53848000Y-135527756D01*
X53140036Y-135668579D01*
X52539852Y-136069608D01*
X52309737Y-136414000D01*
X51576263Y-136414000D01*
X51346148Y-136069608D01*
X50745964Y-135668579D01*
X50038000Y-135527756D01*
X49644284Y-135606071D01*
X47642214Y-133604000D01*
X49981634Y-133604000D01*
X50099621Y-134197159D01*
X50435618Y-134700016D01*
X50938475Y-135036013D01*
X51531634Y-135154000D01*
X51592366Y-135154000D01*
X52185525Y-135036013D01*
X52486655Y-134834805D01*
X63596881Y-134834805D01*
X63681983Y-135082846D01*
X64292064Y-135192239D01*
X64842017Y-135082846D01*
X64927119Y-134834805D01*
X64685276Y-134592961D01*
X66775732Y-134592961D01*
X67011208Y-135162857D01*
X67446849Y-135599260D01*
X68016333Y-135835730D01*
X68632961Y-135836268D01*
X69202857Y-135600792D01*
X69639260Y-135165151D01*
X69875730Y-134595667D01*
X69875867Y-134438604D01*
X86096356Y-134438604D01*
X86193368Y-134926316D01*
X86458937Y-135081180D01*
X87254117Y-134286000D01*
X89021883Y-134286000D01*
X89817063Y-135081180D01*
X90082632Y-134926316D01*
X90179644Y-134133396D01*
X90082632Y-133645684D01*
X89817063Y-133490820D01*
X89021883Y-134286000D01*
X87254117Y-134286000D01*
X86458937Y-133490820D01*
X86193368Y-133645684D01*
X86096356Y-134438604D01*
X69875867Y-134438604D01*
X69876268Y-133979039D01*
X69640792Y-133409143D01*
X69205151Y-132972740D01*
X68635667Y-132736270D01*
X68019039Y-132735732D01*
X67449143Y-132971208D01*
X67012740Y-133406849D01*
X66776270Y-133976333D01*
X66775732Y-134592961D01*
X64685276Y-134592961D01*
X64262000Y-134169685D01*
X63596881Y-134834805D01*
X52486655Y-134834805D01*
X52688382Y-134700016D01*
X53024379Y-134197159D01*
X53136385Y-133634064D01*
X62673761Y-133634064D01*
X62783154Y-134184017D01*
X63031195Y-134269119D01*
X63696315Y-133604000D01*
X64827685Y-133604000D01*
X65492805Y-134269119D01*
X65740846Y-134184017D01*
X65850239Y-133573936D01*
X65740846Y-133023983D01*
X65492805Y-132938881D01*
X64827685Y-133604000D01*
X63696315Y-133604000D01*
X63031195Y-132938881D01*
X62783154Y-133023983D01*
X62673761Y-133634064D01*
X53136385Y-133634064D01*
X53142366Y-133604000D01*
X53024379Y-133010841D01*
X52688382Y-132507984D01*
X52486656Y-132373195D01*
X63596881Y-132373195D01*
X64262000Y-133038315D01*
X64693377Y-132606937D01*
X87342820Y-132606937D01*
X88138000Y-133402117D01*
X88933180Y-132606937D01*
X88778316Y-132341368D01*
X87985396Y-132244356D01*
X87497684Y-132341368D01*
X87342820Y-132606937D01*
X64693377Y-132606937D01*
X64927119Y-132373195D01*
X64842017Y-132125154D01*
X64231936Y-132015761D01*
X63681983Y-132125154D01*
X63596881Y-132373195D01*
X52486656Y-132373195D01*
X52185525Y-132171987D01*
X51592366Y-132054000D01*
X51531634Y-132054000D01*
X50938475Y-132171987D01*
X50435618Y-132507984D01*
X50099621Y-133010841D01*
X49981634Y-133604000D01*
X47642214Y-133604000D01*
X46173107Y-132134893D01*
X46160967Y-132126781D01*
X46152510Y-132114879D01*
X45999191Y-132018686D01*
X45848684Y-131918120D01*
X45834362Y-131915271D01*
X45821995Y-131907512D01*
X45643526Y-131877312D01*
X45466000Y-131842000D01*
X45451681Y-131844848D01*
X45437284Y-131842412D01*
X45260837Y-131882809D01*
X45184160Y-131898061D01*
X45184304Y-131733431D01*
X44918443Y-131089999D01*
X44426590Y-130597287D01*
X43783624Y-130330304D01*
X43097919Y-130329705D01*
X42109107Y-129340893D01*
X41784684Y-129124120D01*
X41402000Y-129048000D01*
X39682797Y-129048000D01*
X39786013Y-128893525D01*
X39904000Y-128300366D01*
X39904000Y-128239634D01*
X39786013Y-127646475D01*
X39450016Y-127143618D01*
X38947159Y-126807621D01*
X38354000Y-126689634D01*
X37760841Y-126807621D01*
X37257984Y-127143618D01*
X36921987Y-127646475D01*
X36804000Y-128239634D01*
X36804000Y-128300366D01*
X36921987Y-128893525D01*
X37025203Y-129048000D01*
X35618797Y-129048000D01*
X35722013Y-128893525D01*
X35840000Y-128300366D01*
X35840000Y-128239634D01*
X35722013Y-127646475D01*
X35386016Y-127143618D01*
X34883159Y-126807621D01*
X34290000Y-126689634D01*
X33696841Y-126807621D01*
X33193984Y-127143618D01*
X32857987Y-127646475D01*
X32750000Y-128189361D01*
X32750000Y-123444000D01*
X32673880Y-123061317D01*
X32457107Y-122736893D01*
X32457104Y-122736891D01*
X30190380Y-120470166D01*
X30190390Y-120458411D01*
X29848569Y-119631142D01*
X29216187Y-118997655D01*
X28389516Y-118654392D01*
X27494411Y-118653610D01*
X26667142Y-118995431D01*
X26033655Y-119627813D01*
X25690392Y-120454484D01*
X25689610Y-121349589D01*
X26031431Y-122176858D01*
X26663813Y-122810345D01*
X27490484Y-123153608D01*
X28385589Y-123154390D01*
X29212858Y-122812569D01*
X29458821Y-122567035D01*
X30750000Y-123858213D01*
X30750000Y-128778000D01*
X30826120Y-129160684D01*
X31042893Y-129485107D01*
X32312893Y-130755107D01*
X32637317Y-130971880D01*
X33020000Y-131048000D01*
X40987786Y-131048000D01*
X41684292Y-131744506D01*
X41683705Y-132416081D01*
X40733786Y-133366000D01*
X40106693Y-133366000D01*
X40106693Y-132616000D01*
X40054396Y-132338067D01*
X39890138Y-132082802D01*
X39639508Y-131911554D01*
X39342000Y-131851307D01*
X35842000Y-131851307D01*
X35564067Y-131903604D01*
X35308802Y-132067862D01*
X35137554Y-132318492D01*
X35077307Y-132616000D01*
X35077307Y-136116000D01*
X35129604Y-136393933D01*
X35230871Y-136551307D01*
X33952292Y-136551307D01*
X34046446Y-136413508D01*
X34106693Y-136116000D01*
X34106693Y-132616000D01*
X34054396Y-132338067D01*
X33890138Y-132082802D01*
X33639508Y-131911554D01*
X33342000Y-131851307D01*
X30491521Y-131851307D01*
X28940000Y-130299786D01*
X28940000Y-128248693D01*
X29440000Y-128248693D01*
X29717933Y-128196396D01*
X29973198Y-128032138D01*
X30144446Y-127781508D01*
X30204693Y-127484000D01*
X30204693Y-124484000D01*
X30152396Y-124206067D01*
X29988138Y-123950802D01*
X29737508Y-123779554D01*
X29440000Y-123719307D01*
X26440000Y-123719307D01*
X26162067Y-123771604D01*
X25906802Y-123935862D01*
X25735554Y-124186492D01*
X25675307Y-124484000D01*
X25675307Y-127484000D01*
X25727604Y-127761933D01*
X25891862Y-128017198D01*
X26142492Y-128188446D01*
X26440000Y-128248693D01*
X26940000Y-128248693D01*
X26940000Y-130714000D01*
X27016120Y-131096684D01*
X27232893Y-131421107D01*
X29077307Y-133265521D01*
X29077307Y-136116000D01*
X29129604Y-136393933D01*
X29293862Y-136649198D01*
X29544492Y-136820446D01*
X29842000Y-136880693D01*
X30592000Y-136880693D01*
X30592000Y-141128000D01*
X30668120Y-141510684D01*
X30884893Y-141835107D01*
X31996891Y-142947104D01*
X31996893Y-142947107D01*
X32321317Y-143163880D01*
X32704000Y-143240000D01*
X34200809Y-143240000D01*
X33814579Y-143818036D01*
X33673756Y-144526000D01*
X33814579Y-145233964D01*
X34215608Y-145834148D01*
X34815792Y-146235177D01*
X35523756Y-146376000D01*
X35596244Y-146376000D01*
X36304208Y-146235177D01*
X36904392Y-145834148D01*
X37305421Y-145233964D01*
X37446244Y-144526000D01*
X37305421Y-143818036D01*
X36919191Y-143240000D01*
X38955786Y-143240000D01*
X40910000Y-145194213D01*
X40910000Y-148590000D01*
X40986120Y-148972683D01*
X41072527Y-149102000D01*
X37344401Y-149102000D01*
X37446244Y-148590000D01*
X37305421Y-147882036D01*
X36904392Y-147281852D01*
X36304208Y-146880823D01*
X35596244Y-146740000D01*
X35523756Y-146740000D01*
X34815792Y-146880823D01*
X34215608Y-147281852D01*
X33814579Y-147882036D01*
X33673756Y-148590000D01*
X33748297Y-148964743D01*
X25650000Y-140866446D01*
X25650000Y-115253589D01*
X25689610Y-115253589D01*
X26031431Y-116080858D01*
X26663813Y-116714345D01*
X27490484Y-117057608D01*
X28385589Y-117058390D01*
X29212858Y-116716569D01*
X29846345Y-116084187D01*
X29932392Y-115876961D01*
X32739732Y-115876961D01*
X32975208Y-116446857D01*
X33290000Y-116762200D01*
X33290000Y-118364000D01*
X33366120Y-118746684D01*
X33582893Y-119071107D01*
X40360118Y-125848332D01*
X40359732Y-126290961D01*
X40595208Y-126860857D01*
X41030849Y-127297260D01*
X41600333Y-127533730D01*
X42216961Y-127534268D01*
X42786857Y-127298792D01*
X43223260Y-126863151D01*
X43459730Y-126293667D01*
X43459732Y-126290961D01*
X45359732Y-126290961D01*
X45595208Y-126860857D01*
X46030849Y-127297260D01*
X46600333Y-127533730D01*
X47216961Y-127534268D01*
X47786857Y-127298792D01*
X48223260Y-126863151D01*
X48459730Y-126293667D01*
X48460268Y-125677039D01*
X48224792Y-125107143D01*
X47789151Y-124670740D01*
X47219667Y-124434270D01*
X46603039Y-124433732D01*
X46033143Y-124669208D01*
X45596740Y-125104849D01*
X45360270Y-125674333D01*
X45359732Y-126290961D01*
X43459732Y-126290961D01*
X43460268Y-125677039D01*
X43224792Y-125107143D01*
X42789151Y-124670740D01*
X42219667Y-124434270D01*
X41774095Y-124433881D01*
X35290000Y-117949786D01*
X35290000Y-116800805D01*
X37688881Y-116800805D01*
X37773983Y-117048846D01*
X38384064Y-117158239D01*
X38934017Y-117048846D01*
X39019119Y-116800805D01*
X38834379Y-116616064D01*
X41083761Y-116616064D01*
X41193154Y-117166017D01*
X41441195Y-117251119D01*
X42106315Y-116586000D01*
X41441195Y-115920881D01*
X41193154Y-116005983D01*
X41083761Y-116616064D01*
X38834379Y-116616064D01*
X38354000Y-116135685D01*
X37688881Y-116800805D01*
X35290000Y-116800805D01*
X35290000Y-116761864D01*
X35603260Y-116449151D01*
X35839730Y-115879667D01*
X35839973Y-115600064D01*
X36765761Y-115600064D01*
X36875154Y-116150017D01*
X37123195Y-116235119D01*
X37788315Y-115570000D01*
X38919685Y-115570000D01*
X39584805Y-116235119D01*
X39832846Y-116150017D01*
X39942239Y-115539936D01*
X39832846Y-114989983D01*
X39584805Y-114904881D01*
X38919685Y-115570000D01*
X37788315Y-115570000D01*
X37123195Y-114904881D01*
X36875154Y-114989983D01*
X36765761Y-115600064D01*
X35839973Y-115600064D01*
X35840268Y-115263039D01*
X35604792Y-114693143D01*
X35251463Y-114339195D01*
X37688881Y-114339195D01*
X38354000Y-115004315D01*
X39019119Y-114339195D01*
X38934017Y-114091154D01*
X38323936Y-113981761D01*
X37773983Y-114091154D01*
X37688881Y-114339195D01*
X35251463Y-114339195D01*
X35169151Y-114256740D01*
X34599667Y-114020270D01*
X33983039Y-114019732D01*
X33413143Y-114255208D01*
X32976740Y-114690849D01*
X32740270Y-115260333D01*
X32739732Y-115876961D01*
X29932392Y-115876961D01*
X30189608Y-115257516D01*
X30190390Y-114362411D01*
X29848569Y-113535142D01*
X29216187Y-112901655D01*
X28389516Y-112558392D01*
X27494411Y-112557610D01*
X26667142Y-112899431D01*
X26033655Y-113531813D01*
X25690392Y-114358484D01*
X25689610Y-115253589D01*
X25650000Y-115253589D01*
X25650000Y-108228000D01*
X25675307Y-108228000D01*
X25675307Y-111228000D01*
X25727604Y-111505933D01*
X25891862Y-111761198D01*
X26142492Y-111932446D01*
X26440000Y-111992693D01*
X29440000Y-111992693D01*
X29717933Y-111940396D01*
X29973198Y-111776138D01*
X30144446Y-111525508D01*
X30204693Y-111228000D01*
X30204693Y-108228000D01*
X30152396Y-107950067D01*
X29988138Y-107694802D01*
X29737508Y-107523554D01*
X29440000Y-107463307D01*
X26440000Y-107463307D01*
X26162067Y-107515604D01*
X25906802Y-107679862D01*
X25735554Y-107930492D01*
X25675307Y-108228000D01*
X25650000Y-108228000D01*
X25650000Y-99170968D01*
X25708893Y-99259107D01*
X26724893Y-100275107D01*
X26796776Y-100323137D01*
X26541655Y-100577813D01*
X26198392Y-101404484D01*
X26197610Y-102299589D01*
X26539431Y-103126858D01*
X27171813Y-103760345D01*
X27998484Y-104103608D01*
X28893589Y-104104390D01*
X29720858Y-103762569D01*
X30354345Y-103130187D01*
X30648813Y-102421027D01*
X33544000Y-105316214D01*
X33544000Y-110822136D01*
X33230740Y-111134849D01*
X32994270Y-111704333D01*
X32993732Y-112320961D01*
X33229208Y-112890857D01*
X33664849Y-113327260D01*
X34234333Y-113563730D01*
X34850961Y-113564268D01*
X35420857Y-113328792D01*
X35857260Y-112893151D01*
X36093730Y-112323667D01*
X36094268Y-111707039D01*
X35858792Y-111137143D01*
X35544000Y-110821800D01*
X35544000Y-104902000D01*
X35467880Y-104519317D01*
X35251107Y-104194893D01*
X31370214Y-100314000D01*
X33363539Y-100314000D01*
X33447984Y-100440382D01*
X33950841Y-100776379D01*
X34544000Y-100894366D01*
X35137159Y-100776379D01*
X35640016Y-100440382D01*
X35976013Y-99937525D01*
X36094000Y-99344366D01*
X36094000Y-99283634D01*
X35976013Y-98690475D01*
X35640016Y-98187618D01*
X35504210Y-98096876D01*
X35852148Y-97864392D01*
X36012377Y-97624591D01*
X37354000Y-98966214D01*
X37354000Y-101932136D01*
X37040740Y-102244849D01*
X36804270Y-102814333D01*
X36803732Y-103430961D01*
X37039208Y-104000857D01*
X37474849Y-104437260D01*
X38044333Y-104673730D01*
X38660961Y-104674268D01*
X39230857Y-104438792D01*
X39667260Y-104003151D01*
X39903730Y-103433667D01*
X39904268Y-102817039D01*
X39668792Y-102247143D01*
X39354000Y-101931800D01*
X39354000Y-100890961D01*
X40105732Y-100890961D01*
X40341208Y-101460857D01*
X40776849Y-101897260D01*
X41346333Y-102133730D01*
X41962961Y-102134268D01*
X42532857Y-101898792D01*
X42969260Y-101463151D01*
X43205730Y-100893667D01*
X43206268Y-100277039D01*
X42970792Y-99707143D01*
X42535151Y-99270740D01*
X41965667Y-99034270D01*
X41349039Y-99033732D01*
X40779143Y-99269208D01*
X40342740Y-99704849D01*
X40106270Y-100274333D01*
X40105732Y-100890961D01*
X39354000Y-100890961D01*
X39354000Y-98552000D01*
X39335676Y-98459880D01*
X39277880Y-98169316D01*
X39061107Y-97844893D01*
X37228214Y-96012000D01*
X40075634Y-96012000D01*
X40193621Y-96605159D01*
X40529618Y-97108016D01*
X41032475Y-97444013D01*
X41625634Y-97562000D01*
X41686366Y-97562000D01*
X42279525Y-97444013D01*
X42782382Y-97108016D01*
X43118379Y-96605159D01*
X43236366Y-96012000D01*
X43118379Y-95418841D01*
X42782382Y-94915984D01*
X42279525Y-94579987D01*
X41686366Y-94462000D01*
X41625634Y-94462000D01*
X41032475Y-94579987D01*
X40529618Y-94915984D01*
X40193621Y-95418841D01*
X40075634Y-96012000D01*
X37228214Y-96012000D01*
X37029107Y-95812893D01*
X36704684Y-95596120D01*
X36322000Y-95520000D01*
X36082263Y-95520000D01*
X35852148Y-95175608D01*
X35251964Y-94774579D01*
X34544000Y-94633756D01*
X33836036Y-94774579D01*
X33512000Y-94991092D01*
X33512000Y-91854214D01*
X34601521Y-90764693D01*
X35644000Y-90764693D01*
X35921933Y-90712396D01*
X36177198Y-90548138D01*
X36282765Y-90393634D01*
X36804000Y-90393634D01*
X36804000Y-90454366D01*
X36921987Y-91047525D01*
X37257984Y-91550382D01*
X37760841Y-91886379D01*
X38354000Y-92004366D01*
X38947159Y-91886379D01*
X39450016Y-91550382D01*
X39786013Y-91047525D01*
X39904000Y-90454366D01*
X39904000Y-90393634D01*
X39792284Y-89832000D01*
X40299307Y-89832000D01*
X40299307Y-92032000D01*
X40351604Y-92309933D01*
X40515862Y-92565198D01*
X40766492Y-92736446D01*
X41064000Y-92796693D01*
X43264000Y-92796693D01*
X43541933Y-92744396D01*
X43797198Y-92580138D01*
X43968446Y-92329508D01*
X44028693Y-92032000D01*
X44028693Y-90932000D01*
X47897756Y-90932000D01*
X48038579Y-91639964D01*
X48439608Y-92240148D01*
X49039792Y-92641177D01*
X49747756Y-92782000D01*
X49820244Y-92782000D01*
X50528208Y-92641177D01*
X51128392Y-92240148D01*
X51529421Y-91639964D01*
X51670244Y-90932000D01*
X51529421Y-90224036D01*
X51128392Y-89623852D01*
X50528208Y-89222823D01*
X49820244Y-89082000D01*
X49747756Y-89082000D01*
X49039792Y-89222823D01*
X48439608Y-89623852D01*
X48038579Y-90224036D01*
X47897756Y-90932000D01*
X44028693Y-90932000D01*
X44028693Y-89832000D01*
X43976396Y-89554067D01*
X43812138Y-89298802D01*
X43561508Y-89127554D01*
X43264000Y-89067307D01*
X41064000Y-89067307D01*
X40786067Y-89119604D01*
X40530802Y-89283862D01*
X40359554Y-89534492D01*
X40299307Y-89832000D01*
X39792284Y-89832000D01*
X39786013Y-89800475D01*
X39450016Y-89297618D01*
X38947159Y-88961621D01*
X38354000Y-88843634D01*
X37760841Y-88961621D01*
X37257984Y-89297618D01*
X36921987Y-89800475D01*
X36804000Y-90393634D01*
X36282765Y-90393634D01*
X36348446Y-90297508D01*
X36408693Y-90000000D01*
X36408693Y-87800000D01*
X36386671Y-87682961D01*
X38327732Y-87682961D01*
X38563208Y-88252857D01*
X38998849Y-88689260D01*
X39568333Y-88925730D01*
X40184961Y-88926268D01*
X40754857Y-88690792D01*
X41191260Y-88255151D01*
X41427730Y-87685667D01*
X41428268Y-87069039D01*
X41192792Y-86499143D01*
X40757151Y-86062740D01*
X40187667Y-85826270D01*
X39571039Y-85825732D01*
X39001143Y-86061208D01*
X38564740Y-86496849D01*
X38328270Y-87066333D01*
X38327732Y-87682961D01*
X36386671Y-87682961D01*
X36356396Y-87522067D01*
X36192138Y-87266802D01*
X35941508Y-87095554D01*
X35644000Y-87035307D01*
X34093521Y-87035307D01*
X30341640Y-83283426D01*
X30696608Y-83520608D01*
X31940329Y-83768000D01*
X32067671Y-83768000D01*
X33311392Y-83520608D01*
X34365768Y-82816097D01*
X35070279Y-81761721D01*
X35317671Y-80518000D01*
X35070279Y-79274279D01*
X34365768Y-78219903D01*
X33311392Y-77515392D01*
X32067671Y-77268000D01*
X31940329Y-77268000D01*
X30696608Y-77515392D01*
X29642232Y-78219903D01*
X28937721Y-79274279D01*
X28690329Y-80518000D01*
X28937721Y-81761721D01*
X29174903Y-82116689D01*
X28358444Y-81300230D01*
X28206559Y-80932640D01*
X27792292Y-80517649D01*
X28205064Y-80105598D01*
X28435737Y-79550075D01*
X28436262Y-78948564D01*
X28206559Y-78392640D01*
X27781598Y-77966936D01*
X27226075Y-77736263D01*
X26624564Y-77735738D01*
X26384000Y-77835137D01*
X26384000Y-77429022D01*
X26231759Y-76663655D01*
X25798214Y-76014808D01*
X25650000Y-75915775D01*
X25650000Y-72201883D01*
X32315637Y-72201883D01*
X32634669Y-72974000D01*
X33224893Y-73565255D01*
X33996452Y-73885634D01*
X34831883Y-73886363D01*
X35604000Y-73567331D01*
X36195255Y-72977107D01*
X36515634Y-72205548D01*
X36516363Y-71370117D01*
X36197331Y-70598000D01*
X35607107Y-70006745D01*
X34835548Y-69686366D01*
X34000117Y-69685637D01*
X33228000Y-70004669D01*
X32636745Y-70594893D01*
X32316366Y-71366452D01*
X32315637Y-72201883D01*
X25650000Y-72201883D01*
X25650000Y-62230000D01*
X25630304Y-62132736D01*
X25574318Y-62050798D01*
X25490864Y-61997097D01*
X25400000Y-61980000D01*
X24987554Y-61980000D01*
X26765671Y-60201883D01*
X32315637Y-60201883D01*
X32634669Y-60974000D01*
X33224893Y-61565255D01*
X33996452Y-61885634D01*
X34831883Y-61886363D01*
X35604000Y-61567331D01*
X36195255Y-60977107D01*
X36515634Y-60205548D01*
X36516363Y-59370117D01*
X36197331Y-58598000D01*
X35607107Y-58006745D01*
X34835548Y-57686366D01*
X34000117Y-57685637D01*
X33228000Y-58004669D01*
X32636745Y-58594893D01*
X32316366Y-59366452D01*
X32315637Y-60201883D01*
X26765671Y-60201883D01*
X29067234Y-57900320D01*
X29252946Y-57900482D01*
X30275818Y-57477840D01*
X31059090Y-56695934D01*
X31483516Y-55673802D01*
X31483682Y-55483872D01*
X34326554Y-52641000D01*
X77044784Y-52641000D01*
X77007793Y-52696361D01*
X77007793Y-52696361D01*
G37*
X77007793Y-52696361D02*
X76916037Y-53157647D01*
X75094342Y-56117903D01*
X75066534Y-56192847D01*
X75022120Y-56259317D01*
X74999299Y-56374046D01*
X74958607Y-56483712D01*
X74961595Y-56563596D01*
X74946000Y-56642000D01*
X74946000Y-56912000D01*
X72594461Y-56912000D01*
X72112590Y-56429287D01*
X71469624Y-56162304D01*
X70773431Y-56161696D01*
X70129999Y-56427557D01*
X69637287Y-56919410D01*
X69370304Y-57562376D01*
X69369696Y-58258569D01*
X69635557Y-58902001D01*
X70127410Y-59394713D01*
X70770376Y-59661696D01*
X71466569Y-59662304D01*
X72110001Y-59396443D01*
X72595290Y-58912000D01*
X74946000Y-58912000D01*
X74946000Y-60277462D01*
X74849984Y-60341618D01*
X74513987Y-60844475D01*
X74396748Y-61433875D01*
X70344062Y-64707198D01*
X70383730Y-64611667D01*
X70384268Y-63995039D01*
X70148792Y-63425143D01*
X69713151Y-62988740D01*
X69143667Y-62752270D01*
X68527039Y-62751732D01*
X67957143Y-62987208D01*
X67520740Y-63422849D01*
X67284270Y-63992333D01*
X67283732Y-64608961D01*
X67473333Y-65067832D01*
X67380890Y-65042516D01*
X67345241Y-65047010D01*
X67310000Y-65040000D01*
X40533421Y-65040000D01*
X40625738Y-64817675D01*
X40626262Y-64216960D01*
X40396862Y-63661771D01*
X40114546Y-63378961D01*
X58901732Y-63378961D01*
X59137208Y-63948857D01*
X59572849Y-64385260D01*
X60142333Y-64621730D01*
X60758961Y-64622268D01*
X61328857Y-64386792D01*
X61765260Y-63951151D01*
X62001730Y-63381667D01*
X62002110Y-62945942D01*
X62957818Y-62945942D01*
X63117334Y-63332000D01*
X63412446Y-63627628D01*
X63798226Y-63787818D01*
X64215942Y-63788182D01*
X64602000Y-63628666D01*
X64897628Y-63333554D01*
X64948022Y-63212192D01*
X67001107Y-61159107D01*
X67217879Y-60834684D01*
X67217880Y-60834683D01*
X67294000Y-60452000D01*
X67294000Y-59386461D01*
X67776713Y-58904590D01*
X68043696Y-58261624D01*
X68044304Y-57565431D01*
X67778443Y-56921999D01*
X67286590Y-56429287D01*
X66643624Y-56162304D01*
X65947431Y-56161696D01*
X65303999Y-56427557D01*
X64811287Y-56919410D01*
X64544304Y-57562376D01*
X64543696Y-58258569D01*
X64809557Y-58902001D01*
X65294000Y-59387290D01*
X65294000Y-60037786D01*
X63534060Y-61797726D01*
X63414000Y-61847334D01*
X63118372Y-62142446D01*
X62958182Y-62528226D01*
X62957818Y-62945942D01*
X62002110Y-62945942D01*
X62002268Y-62765039D01*
X61766792Y-62195143D01*
X61331151Y-61758740D01*
X60761667Y-61522270D01*
X60145039Y-61521732D01*
X59575143Y-61757208D01*
X59138740Y-62192849D01*
X58902270Y-62762333D01*
X58901732Y-63378961D01*
X40114546Y-63378961D01*
X39972463Y-63236630D01*
X39417675Y-63006262D01*
X38816960Y-63005738D01*
X38261771Y-63235138D01*
X38116118Y-63380536D01*
X38116000Y-63380418D01*
X38116000Y-62104214D01*
X38788458Y-61431756D01*
X46156000Y-61431756D01*
X46156000Y-61504244D01*
X46296823Y-62212208D01*
X46697852Y-62812392D01*
X47298036Y-63213421D01*
X48006000Y-63354244D01*
X48713964Y-63213421D01*
X49314148Y-62812392D01*
X49715177Y-62212208D01*
X49856000Y-61504244D01*
X49856000Y-61431756D01*
X49715177Y-60723792D01*
X49314148Y-60123608D01*
X48713964Y-59722579D01*
X48006000Y-59581756D01*
X47298036Y-59722579D01*
X46697852Y-60123608D01*
X46296823Y-60723792D01*
X46156000Y-61431756D01*
X38788458Y-61431756D01*
X40546214Y-59674000D01*
X42077307Y-59674000D01*
X42077307Y-59774000D01*
X42129604Y-60051933D01*
X42293862Y-60307198D01*
X42544492Y-60478446D01*
X42842000Y-60538693D01*
X45042000Y-60538693D01*
X45319933Y-60486396D01*
X45575198Y-60322138D01*
X45746446Y-60071508D01*
X45806693Y-59774000D01*
X45806693Y-59488961D01*
X50265732Y-59488961D01*
X50501208Y-60058857D01*
X50936849Y-60495260D01*
X51506333Y-60731730D01*
X52122961Y-60732268D01*
X52692857Y-60496792D01*
X53129260Y-60061151D01*
X53365730Y-59491667D01*
X53365953Y-59234961D01*
X54583732Y-59234961D01*
X54819208Y-59804857D01*
X55254849Y-60241260D01*
X55824333Y-60477730D01*
X56440961Y-60478268D01*
X57010857Y-60242792D01*
X57447260Y-59807151D01*
X57683730Y-59237667D01*
X57684268Y-58621039D01*
X57628742Y-58486655D01*
X57642000Y-58420000D01*
X57609890Y-58258569D01*
X59463696Y-58258569D01*
X59729557Y-58902001D01*
X60221410Y-59394713D01*
X60864376Y-59661696D01*
X61560569Y-59662304D01*
X62204001Y-59396443D01*
X62696713Y-58904590D01*
X62963696Y-58261624D01*
X62964304Y-57565431D01*
X62698443Y-56921999D01*
X62206590Y-56429287D01*
X61563624Y-56162304D01*
X60867431Y-56161696D01*
X60223999Y-56427557D01*
X59731287Y-56919410D01*
X59464304Y-57562376D01*
X59463696Y-58258569D01*
X57609890Y-58258569D01*
X57565879Y-58037316D01*
X57349106Y-57712894D01*
X57024684Y-57496121D01*
X56642000Y-57420000D01*
X56575852Y-57433158D01*
X56443667Y-57378270D01*
X55827039Y-57377732D01*
X55257143Y-57613208D01*
X54820740Y-58048849D01*
X54584270Y-58618333D01*
X54583732Y-59234961D01*
X53365953Y-59234961D01*
X53366268Y-58875039D01*
X53130792Y-58305143D01*
X52695151Y-57868740D01*
X52125667Y-57632270D01*
X51509039Y-57631732D01*
X50939143Y-57867208D01*
X50502740Y-58302849D01*
X50266270Y-58872333D01*
X50265732Y-59488961D01*
X45806693Y-59488961D01*
X45806693Y-57574000D01*
X45754396Y-57296067D01*
X45590138Y-57040802D01*
X45339508Y-56869554D01*
X45042000Y-56809307D01*
X42842000Y-56809307D01*
X42564067Y-56861604D01*
X42308802Y-57025862D01*
X42137554Y-57276492D01*
X42077307Y-57574000D01*
X42077307Y-57674000D01*
X40132000Y-57674000D01*
X39749317Y-57750120D01*
X39525730Y-57899516D01*
X39424893Y-57966893D01*
X36408893Y-60982893D01*
X36192120Y-61307316D01*
X36192120Y-61307317D01*
X36116000Y-61690000D01*
X36116000Y-63380655D01*
X35836630Y-63659537D01*
X35606262Y-64214325D01*
X35605738Y-64815040D01*
X35835138Y-65370229D01*
X36250536Y-65786353D01*
X35836630Y-66199537D01*
X35606262Y-66754325D01*
X35605738Y-67355040D01*
X35835138Y-67910229D01*
X36259537Y-68335370D01*
X36814325Y-68565738D01*
X37415040Y-68566262D01*
X37970229Y-68336862D01*
X38115882Y-68191464D01*
X38116000Y-68191582D01*
X38116000Y-79248000D01*
X38192120Y-79630684D01*
X38408893Y-79955107D01*
X42409490Y-83955704D01*
X42392000Y-84043634D01*
X42392000Y-84104366D01*
X42509987Y-84697525D01*
X42845984Y-85200382D01*
X43348841Y-85536379D01*
X43942000Y-85654366D01*
X44535159Y-85536379D01*
X45038016Y-85200382D01*
X45374013Y-84697525D01*
X45492000Y-84104366D01*
X45492000Y-84043634D01*
X45374013Y-83450475D01*
X45038016Y-82947618D01*
X44535159Y-82611621D01*
X43942000Y-82493634D01*
X43803414Y-82521200D01*
X43631175Y-82348961D01*
X46709732Y-82348961D01*
X46945208Y-82918857D01*
X47380849Y-83355260D01*
X47950333Y-83591730D01*
X48566961Y-83592268D01*
X49136857Y-83356792D01*
X49573260Y-82921151D01*
X49809730Y-82351667D01*
X49810268Y-81735039D01*
X49574792Y-81165143D01*
X49139151Y-80728740D01*
X48569667Y-80492270D01*
X47953039Y-80491732D01*
X47383143Y-80727208D01*
X46946740Y-81162849D01*
X46710270Y-81732333D01*
X46709732Y-82348961D01*
X43631175Y-82348961D01*
X40116000Y-78833786D01*
X40116000Y-76760961D01*
X46709732Y-76760961D01*
X46945208Y-77330857D01*
X47380849Y-77767260D01*
X47950333Y-78003730D01*
X48566961Y-78004268D01*
X49136857Y-77768792D01*
X49573260Y-77333151D01*
X49809730Y-76763667D01*
X49810268Y-76147039D01*
X49574792Y-75577143D01*
X49139151Y-75140740D01*
X48569667Y-74904270D01*
X47953039Y-74903732D01*
X47383143Y-75139208D01*
X46946740Y-75574849D01*
X46710270Y-76144333D01*
X46709732Y-76760961D01*
X40116000Y-76760961D01*
X40116000Y-68191345D01*
X40395370Y-67912463D01*
X40625738Y-67357675D01*
X40626015Y-67040000D01*
X43478259Y-67040000D01*
X43234036Y-67088579D01*
X42633852Y-67489608D01*
X42232823Y-68089792D01*
X42092000Y-68797756D01*
X42092000Y-68870244D01*
X42232823Y-69578208D01*
X42633852Y-70178392D01*
X42820691Y-70303233D01*
X42628740Y-70494849D01*
X42392270Y-71064333D01*
X42391732Y-71680961D01*
X42627208Y-72250857D01*
X43062849Y-72687260D01*
X43632333Y-72923730D01*
X44248961Y-72924268D01*
X44818857Y-72688792D01*
X45255260Y-72253151D01*
X45491730Y-71683667D01*
X45492268Y-71067039D01*
X45269542Y-70528000D01*
X46141307Y-70528000D01*
X46141307Y-72728000D01*
X46193604Y-73005933D01*
X46357862Y-73261198D01*
X46608492Y-73432446D01*
X46906000Y-73492693D01*
X49106000Y-73492693D01*
X49383933Y-73440396D01*
X49639198Y-73276138D01*
X49810446Y-73025508D01*
X49870693Y-72728000D01*
X49870693Y-71851634D01*
X50266000Y-71851634D01*
X50266000Y-71912366D01*
X50383987Y-72505525D01*
X50719984Y-73008382D01*
X51222841Y-73344379D01*
X51816000Y-73462366D01*
X52409159Y-73344379D01*
X52912016Y-73008382D01*
X53248013Y-72505525D01*
X53366000Y-71912366D01*
X53366000Y-71851634D01*
X53248013Y-71258475D01*
X52912016Y-70755618D01*
X52409159Y-70419621D01*
X51816000Y-70301634D01*
X51222841Y-70419621D01*
X50719984Y-70755618D01*
X50383987Y-71258475D01*
X50266000Y-71851634D01*
X49870693Y-71851634D01*
X49870693Y-70528000D01*
X49818396Y-70250067D01*
X49654138Y-69994802D01*
X49403508Y-69823554D01*
X49106000Y-69763307D01*
X46906000Y-69763307D01*
X46628067Y-69815604D01*
X46372802Y-69979862D01*
X46201554Y-70230492D01*
X46141307Y-70528000D01*
X45269542Y-70528000D01*
X45256792Y-70497143D01*
X45063256Y-70303269D01*
X45250148Y-70178392D01*
X45651177Y-69578208D01*
X45705958Y-69302805D01*
X59786881Y-69302805D01*
X59871983Y-69550846D01*
X60482064Y-69660239D01*
X61032017Y-69550846D01*
X61117119Y-69302805D01*
X60452000Y-68637685D01*
X59786881Y-69302805D01*
X45705958Y-69302805D01*
X45792000Y-68870244D01*
X45792000Y-68797756D01*
X45651177Y-68089792D01*
X45250148Y-67489608D01*
X44649964Y-67088579D01*
X44405741Y-67040000D01*
X59244416Y-67040000D01*
X58448323Y-67836093D01*
X58900874Y-68288643D01*
X58973154Y-68652017D01*
X59221195Y-68737119D01*
X59886315Y-68072000D01*
X59603472Y-67789157D01*
X60169157Y-67223472D01*
X60452000Y-67506315D01*
X60734843Y-67223472D01*
X61300528Y-67789157D01*
X61017685Y-68072000D01*
X61682805Y-68737119D01*
X61930846Y-68652017D01*
X61994446Y-68297323D01*
X62455677Y-67836093D01*
X61659584Y-67040000D01*
X67073932Y-67040000D01*
X67269307Y-67137687D01*
X67269307Y-67602000D01*
X67321604Y-67879933D01*
X67485862Y-68135198D01*
X67736492Y-68306446D01*
X68034000Y-68366693D01*
X69634000Y-68366693D01*
X69911933Y-68314396D01*
X70167198Y-68150138D01*
X70338446Y-67899508D01*
X70398693Y-67602000D01*
X70398693Y-67233961D01*
X75653013Y-62990087D01*
X75946000Y-63048366D01*
X76539159Y-62930379D01*
X77042016Y-62594382D01*
X77216000Y-62333996D01*
X77389984Y-62594382D01*
X77892841Y-62930379D01*
X78486000Y-63048366D01*
X79079159Y-62930379D01*
X79582016Y-62594382D01*
X79756000Y-62333996D01*
X79929984Y-62594382D01*
X80432841Y-62930379D01*
X81026000Y-63048366D01*
X81619159Y-62930379D01*
X82122016Y-62594382D01*
X82296000Y-62333996D01*
X82469984Y-62594382D01*
X82972841Y-62930379D01*
X83566000Y-63048366D01*
X84159159Y-62930379D01*
X84662016Y-62594382D01*
X84998013Y-62091525D01*
X85116000Y-61498366D01*
X85116000Y-61437634D01*
X84998013Y-60844475D01*
X84662016Y-60341618D01*
X84159159Y-60005621D01*
X83860328Y-59946180D01*
X83221000Y-59306852D01*
X83221000Y-57442721D01*
X83566000Y-57511346D01*
X83835576Y-57457724D01*
X86197000Y-59819147D01*
X86197000Y-65402852D01*
X85722852Y-65877000D01*
X77724005Y-65877000D01*
X77724000Y-65876999D01*
X77370018Y-65947411D01*
X77069926Y-66147926D01*
X75694545Y-67523307D01*
X75146000Y-67523307D01*
X74868067Y-67575604D01*
X74612802Y-67739862D01*
X74441554Y-67990492D01*
X74381307Y-68288000D01*
X74381307Y-69888000D01*
X74433604Y-70165933D01*
X74597862Y-70421198D01*
X74848492Y-70592446D01*
X75146000Y-70652693D01*
X76746000Y-70652693D01*
X77023933Y-70600396D01*
X77279198Y-70436138D01*
X77417950Y-70233068D01*
X77892841Y-70550379D01*
X78486000Y-70668366D01*
X79079159Y-70550379D01*
X79582016Y-70214382D01*
X79756000Y-69953996D01*
X79929984Y-70214382D01*
X80026000Y-70278538D01*
X80026000Y-73516301D01*
X79619151Y-73108740D01*
X79049667Y-72872270D01*
X78433039Y-72871732D01*
X77863143Y-73107208D01*
X77426740Y-73542849D01*
X77190270Y-74112333D01*
X77189732Y-74728961D01*
X77425208Y-75298857D01*
X77860849Y-75735260D01*
X78430333Y-75971730D01*
X79046961Y-75972268D01*
X79616857Y-75736792D01*
X80026000Y-75328363D01*
X80026000Y-76770416D01*
X79483907Y-76228323D01*
X79031357Y-76680874D01*
X78667983Y-76753154D01*
X78582881Y-77001195D01*
X79248000Y-77666315D01*
X79530843Y-77383472D01*
X80026000Y-77878629D01*
X80026000Y-78019685D01*
X79813685Y-78232000D01*
X80026000Y-78444315D01*
X80026000Y-78585371D01*
X79530843Y-79080528D01*
X79248000Y-78797685D01*
X78582881Y-79462805D01*
X78667983Y-79710846D01*
X79022677Y-79774446D01*
X79483907Y-80235677D01*
X80026000Y-79693584D01*
X80026000Y-81881786D01*
X79849786Y-82058000D01*
X75513749Y-82058000D01*
X75393774Y-82008182D01*
X74976058Y-82007818D01*
X74590000Y-82167334D01*
X74330823Y-82426058D01*
X74329880Y-82421316D01*
X74113107Y-82096893D01*
X73097107Y-81080893D01*
X72772684Y-80864120D01*
X72390000Y-80788000D01*
X68994213Y-80788000D01*
X68747301Y-80541088D01*
X69173159Y-80456379D01*
X69676016Y-80120382D01*
X69850000Y-79859996D01*
X70023984Y-80120382D01*
X70526841Y-80456379D01*
X71120000Y-80574366D01*
X71713159Y-80456379D01*
X72216016Y-80120382D01*
X72470178Y-79740000D01*
X73406000Y-79740000D01*
X73788684Y-79663880D01*
X74113107Y-79447107D01*
X75298150Y-78262064D01*
X77659761Y-78262064D01*
X77769154Y-78812017D01*
X78017195Y-78897119D01*
X78682315Y-78232000D01*
X78017195Y-77566881D01*
X77769154Y-77651983D01*
X77659761Y-78262064D01*
X75298150Y-78262064D01*
X75891107Y-77669107D01*
X76107880Y-77344684D01*
X76184001Y-76962000D01*
X76184000Y-76961995D01*
X76184000Y-74596538D01*
X76280016Y-74532382D01*
X76616013Y-74029525D01*
X76734000Y-73436366D01*
X76734000Y-73375634D01*
X76616013Y-72782475D01*
X76280016Y-72279618D01*
X75777159Y-71943621D01*
X75184000Y-71825634D01*
X74590841Y-71943621D01*
X74087984Y-72279618D01*
X73751987Y-72782475D01*
X73634000Y-73375634D01*
X73634000Y-73436366D01*
X73751987Y-74029525D01*
X74087984Y-74532382D01*
X74184000Y-74596538D01*
X74184000Y-76547786D01*
X72991786Y-77740000D01*
X72025021Y-77740000D01*
X71713159Y-77531621D01*
X71120000Y-77413634D01*
X70981414Y-77441200D01*
X68525107Y-74984893D01*
X68200684Y-74768120D01*
X67818000Y-74692000D01*
X64136214Y-74692000D01*
X65901414Y-72926800D01*
X66040000Y-72954366D01*
X66633159Y-72836379D01*
X67136016Y-72500382D01*
X67310000Y-72239996D01*
X67483984Y-72500382D01*
X67986841Y-72836379D01*
X68580000Y-72954366D01*
X69173159Y-72836379D01*
X69676016Y-72500382D01*
X69850000Y-72239996D01*
X70023984Y-72500382D01*
X70526841Y-72836379D01*
X71120000Y-72954366D01*
X71713159Y-72836379D01*
X72216016Y-72500382D01*
X72552013Y-71997525D01*
X72670000Y-71404366D01*
X72670000Y-71343634D01*
X72552013Y-70750475D01*
X72216016Y-70247618D01*
X71713159Y-69911621D01*
X71120000Y-69793634D01*
X70526841Y-69911621D01*
X70023984Y-70247618D01*
X69850000Y-70508004D01*
X69676016Y-70247618D01*
X69173159Y-69911621D01*
X68580000Y-69793634D01*
X67986841Y-69911621D01*
X67483984Y-70247618D01*
X67310000Y-70508004D01*
X67136016Y-70247618D01*
X66847134Y-70054594D01*
X66747107Y-69904893D01*
X66422683Y-69688120D01*
X66040000Y-69612000D01*
X65657317Y-69688120D01*
X65332893Y-69904893D01*
X65232866Y-70054594D01*
X65058000Y-70171435D01*
X65058000Y-70123998D01*
X64392061Y-70123998D01*
X64130631Y-69949335D01*
X63900000Y-70065263D01*
X63900000Y-70974000D01*
X64300000Y-70974000D01*
X64300000Y-71699786D01*
X64225786Y-71774000D01*
X63900000Y-71774000D01*
X63900000Y-72099786D01*
X63825786Y-72174000D01*
X63100000Y-72174000D01*
X63100000Y-71774000D01*
X62183693Y-71774000D01*
X62075306Y-72004635D01*
X62249998Y-72252954D01*
X62249998Y-72932000D01*
X63067786Y-72932000D01*
X62831786Y-73168000D01*
X60706000Y-73168000D01*
X60323316Y-73244120D01*
X59998893Y-73460893D01*
X58111401Y-75348385D01*
X58151553Y-75288293D01*
X58273346Y-74676000D01*
X58151553Y-74063707D01*
X57804717Y-73544629D01*
X57285639Y-73197793D01*
X56731397Y-73087547D01*
X57230016Y-72754382D01*
X57566013Y-72251525D01*
X57684000Y-71658366D01*
X57684000Y-71597634D01*
X57566013Y-71004475D01*
X57391546Y-70743365D01*
X62075306Y-70743365D01*
X62183693Y-70974000D01*
X63100000Y-70974000D01*
X63100000Y-70065263D01*
X62869369Y-69949335D01*
X62425088Y-70246162D01*
X62075306Y-70743365D01*
X57391546Y-70743365D01*
X57230016Y-70501618D01*
X56727159Y-70165621D01*
X56134000Y-70047634D01*
X55540841Y-70165621D01*
X55037984Y-70501618D01*
X54701987Y-71004475D01*
X54584000Y-71597634D01*
X54584000Y-71658366D01*
X54701987Y-72251525D01*
X55037984Y-72754382D01*
X55540841Y-73090379D01*
X56039604Y-73189589D01*
X55998361Y-73197793D01*
X55479283Y-73544629D01*
X55391504Y-73676000D01*
X55038005Y-73676000D01*
X55038000Y-73675999D01*
X54655316Y-73752120D01*
X54330893Y-73968893D01*
X53395668Y-74904118D01*
X52953039Y-74903732D01*
X52383143Y-75139208D01*
X51946740Y-75574849D01*
X51710270Y-76144333D01*
X51709732Y-76760961D01*
X51945208Y-77330857D01*
X52380849Y-77767260D01*
X52950333Y-78003730D01*
X53566961Y-78004268D01*
X54136857Y-77768792D01*
X54573260Y-77333151D01*
X54809730Y-76763667D01*
X54810119Y-76318095D01*
X55415821Y-75712393D01*
X55479283Y-75807371D01*
X55686756Y-75946000D01*
X55479283Y-76084629D01*
X55132447Y-76603707D01*
X55010654Y-77216000D01*
X55132447Y-77828293D01*
X55417891Y-78255491D01*
X55258802Y-78357862D01*
X55087554Y-78608492D01*
X55027307Y-78906000D01*
X55027307Y-78922999D01*
X54838893Y-79048893D01*
X53395668Y-80492118D01*
X52953039Y-80491732D01*
X52383143Y-80727208D01*
X51946740Y-81162849D01*
X51710270Y-81732333D01*
X51709732Y-82348961D01*
X51945208Y-82918857D01*
X52380849Y-83355260D01*
X52950333Y-83591730D01*
X53566961Y-83592268D01*
X54136857Y-83356792D01*
X54573260Y-82921151D01*
X54809730Y-82351667D01*
X54810119Y-81906095D01*
X55441783Y-81274431D01*
X55494492Y-81310446D01*
X55792000Y-81370693D01*
X56153093Y-81370693D01*
X53648893Y-83874893D01*
X53432120Y-84199316D01*
X53410088Y-84310079D01*
X53356000Y-84582000D01*
X53356000Y-86047203D01*
X53201525Y-85943987D01*
X52608366Y-85826000D01*
X52547634Y-85826000D01*
X51954475Y-85943987D01*
X51451618Y-86279984D01*
X51115621Y-86782841D01*
X50997634Y-87376000D01*
X51115621Y-87969159D01*
X51451618Y-88472016D01*
X51954475Y-88808013D01*
X52547634Y-88926000D01*
X52608366Y-88926000D01*
X53201525Y-88808013D01*
X53356000Y-88704797D01*
X53356000Y-90771786D01*
X52925786Y-91202000D01*
X52832000Y-91202000D01*
X52449317Y-91278120D01*
X52124893Y-91494893D01*
X51908120Y-91819317D01*
X51832000Y-92202000D01*
X51832000Y-97121786D01*
X47806893Y-101146893D01*
X47590120Y-101471316D01*
X47590120Y-101471317D01*
X47514000Y-101854000D01*
X47514000Y-102547127D01*
X47329159Y-102423621D01*
X46736000Y-102305634D01*
X46142841Y-102423621D01*
X45639984Y-102759618D01*
X45303987Y-103262475D01*
X45186000Y-103855634D01*
X45186000Y-103916366D01*
X45303987Y-104509525D01*
X45639984Y-105012382D01*
X46142841Y-105348379D01*
X46736000Y-105466366D01*
X47329159Y-105348379D01*
X47514000Y-105224873D01*
X47514000Y-111760000D01*
X47590120Y-112142684D01*
X47806893Y-112467107D01*
X50794513Y-115454726D01*
X50736802Y-115491862D01*
X50565554Y-115742492D01*
X50505307Y-116040000D01*
X50505307Y-117491000D01*
X48070584Y-117491000D01*
X48739677Y-116821907D01*
X48287126Y-116369357D01*
X48214846Y-116005983D01*
X47966805Y-115920881D01*
X47301685Y-116586000D01*
X47584528Y-116868843D01*
X47018843Y-117434528D01*
X46736000Y-117151685D01*
X46453157Y-117434528D01*
X45887472Y-116868843D01*
X46170315Y-116586000D01*
X45505195Y-115920881D01*
X45450000Y-115939818D01*
X45450000Y-115355195D01*
X46070881Y-115355195D01*
X46736000Y-116020315D01*
X47401119Y-115355195D01*
X47316017Y-115107154D01*
X46705936Y-114997761D01*
X46155983Y-115107154D01*
X46070881Y-115355195D01*
X45450000Y-115355195D01*
X45450000Y-106426005D01*
X45450001Y-106426000D01*
X45373880Y-106043316D01*
X45157107Y-105718893D01*
X44041419Y-104603205D01*
X44104013Y-104509525D01*
X44222000Y-103916366D01*
X44222000Y-103855634D01*
X44104013Y-103262475D01*
X43768016Y-102759618D01*
X43265159Y-102423621D01*
X42672000Y-102305634D01*
X42078841Y-102423621D01*
X41575984Y-102759618D01*
X41239987Y-103262475D01*
X41122000Y-103855634D01*
X41122000Y-103916366D01*
X41239987Y-104509525D01*
X41575984Y-105012382D01*
X41864866Y-105205406D01*
X41964893Y-105355107D01*
X43450000Y-106840214D01*
X43450000Y-115124416D01*
X42907907Y-114582323D01*
X42455357Y-115034874D01*
X42091983Y-115107154D01*
X42006881Y-115355195D01*
X42672000Y-116020315D01*
X42954843Y-115737472D01*
X43450000Y-116232629D01*
X43450000Y-116373685D01*
X43237685Y-116586000D01*
X43450000Y-116798315D01*
X43450000Y-116939371D01*
X42954843Y-117434528D01*
X42672000Y-117151685D01*
X42006881Y-117816805D01*
X42091983Y-118064846D01*
X42446677Y-118128446D01*
X42907907Y-118589677D01*
X43622563Y-117875021D01*
X43742893Y-118055107D01*
X44885893Y-119198107D01*
X45210317Y-119414880D01*
X45593000Y-119491000D01*
X48557925Y-119491000D01*
X48480182Y-119678226D01*
X48479818Y-120095942D01*
X48530000Y-120217392D01*
X48530000Y-125222000D01*
X48606120Y-125604684D01*
X48822893Y-125929107D01*
X50600893Y-127707107D01*
X50925316Y-127923880D01*
X51256380Y-127989733D01*
X51255039Y-127989732D01*
X50685143Y-128225208D01*
X50248740Y-128660849D01*
X50012270Y-129230333D01*
X50011732Y-129846961D01*
X50247208Y-130416857D01*
X50682849Y-130853260D01*
X51252333Y-131089730D01*
X51868961Y-131090268D01*
X52438857Y-130854792D01*
X52875260Y-130419151D01*
X53111730Y-129849667D01*
X53112268Y-129233039D01*
X52876792Y-128663143D01*
X52441151Y-128226740D01*
X51895099Y-128000000D01*
X64181361Y-128000000D01*
X63638475Y-128107987D01*
X63135618Y-128443984D01*
X62799621Y-128946841D01*
X62681634Y-129540000D01*
X62799621Y-130133159D01*
X63135618Y-130636016D01*
X63638475Y-130972013D01*
X64231634Y-131090000D01*
X64292366Y-131090000D01*
X64885525Y-130972013D01*
X65388382Y-130636016D01*
X65724379Y-130133159D01*
X65842366Y-129540000D01*
X65724379Y-128946841D01*
X65388382Y-128443984D01*
X64885525Y-128107987D01*
X64342639Y-128000000D01*
X67420301Y-128000000D01*
X67012740Y-128406849D01*
X66776270Y-128976333D01*
X66775732Y-129592961D01*
X67011208Y-130162857D01*
X67446849Y-130599260D01*
X68016333Y-130835730D01*
X68632961Y-130836268D01*
X69202857Y-130600792D01*
X69639260Y-130165151D01*
X69875730Y-129595667D01*
X69876236Y-129016000D01*
X72839203Y-129016000D01*
X72735987Y-129170475D01*
X72618000Y-129763634D01*
X72618000Y-129824366D01*
X72735987Y-130417525D01*
X73071984Y-130920382D01*
X73574841Y-131256379D01*
X74168000Y-131374366D01*
X74761159Y-131256379D01*
X75264016Y-130920382D01*
X75348461Y-130794000D01*
X77294136Y-130794000D01*
X77606849Y-131107260D01*
X78176333Y-131343730D01*
X78792961Y-131344268D01*
X79362857Y-131108792D01*
X79678200Y-130794000D01*
X81866136Y-130794000D01*
X82178849Y-131107260D01*
X82748333Y-131343730D01*
X83364961Y-131344268D01*
X83934857Y-131108792D01*
X84371260Y-130673151D01*
X84607730Y-130103667D01*
X84608097Y-129682079D01*
X86137654Y-129682079D01*
X86441494Y-130417429D01*
X87003612Y-130980529D01*
X87738430Y-131285652D01*
X88534079Y-131286346D01*
X89269429Y-130982506D01*
X89832529Y-130420388D01*
X90137652Y-129685570D01*
X90138346Y-128889921D01*
X89834506Y-128154571D01*
X89272388Y-127591471D01*
X88537570Y-127286348D01*
X87741921Y-127285654D01*
X87006571Y-127589494D01*
X86443471Y-128151612D01*
X86138348Y-128886430D01*
X86137654Y-129682079D01*
X84608097Y-129682079D01*
X84608268Y-129487039D01*
X84372792Y-128917143D01*
X83937151Y-128480740D01*
X83367667Y-128244270D01*
X82751039Y-128243732D01*
X82181143Y-128479208D01*
X81865800Y-128794000D01*
X79677864Y-128794000D01*
X79365151Y-128480740D01*
X78795667Y-128244270D01*
X78179039Y-128243732D01*
X77609143Y-128479208D01*
X77293800Y-128794000D01*
X75348461Y-128794000D01*
X75264016Y-128667618D01*
X74761159Y-128331621D01*
X74335302Y-128246912D01*
X74582214Y-128000000D01*
X80184000Y-128000000D01*
X80261293Y-127984625D01*
X80340043Y-127987751D01*
X80450858Y-127946919D01*
X80566683Y-127923880D01*
X80632212Y-127880095D01*
X80706161Y-127852847D01*
X80792913Y-127772718D01*
X80891107Y-127707107D01*
X80934892Y-127641579D01*
X80992784Y-127588106D01*
X81996592Y-126207634D01*
X82524000Y-126207634D01*
X82524000Y-126268366D01*
X82641987Y-126861525D01*
X82977984Y-127364382D01*
X83480841Y-127700379D01*
X84074000Y-127818366D01*
X84667159Y-127700379D01*
X85170016Y-127364382D01*
X85506013Y-126861525D01*
X85624000Y-126268366D01*
X85624000Y-126207634D01*
X85506013Y-125614475D01*
X85170016Y-125111618D01*
X84667159Y-124775621D01*
X84074000Y-124657634D01*
X83480841Y-124775621D01*
X82977984Y-125111618D01*
X82641987Y-125614475D01*
X82524000Y-126207634D01*
X81996592Y-126207634D01*
X85775614Y-121010591D01*
X85630348Y-121360430D01*
X85629654Y-122156079D01*
X85933494Y-122891429D01*
X86495612Y-123454529D01*
X87230430Y-123759652D01*
X88026079Y-123760346D01*
X88761429Y-123456506D01*
X89324529Y-122894388D01*
X89629652Y-122159570D01*
X89630346Y-121363921D01*
X89326506Y-120628571D01*
X88764388Y-120065471D01*
X88029570Y-119760348D01*
X87233921Y-119759654D01*
X86498571Y-120063494D01*
X86373527Y-120188320D01*
X87412265Y-118759811D01*
X88026079Y-118760346D01*
X88761429Y-118456506D01*
X89324529Y-117894388D01*
X89629652Y-117159570D01*
X89630346Y-116363921D01*
X89326506Y-115628571D01*
X88764388Y-115065471D01*
X88029570Y-114760348D01*
X87233921Y-114759654D01*
X86498571Y-115063494D01*
X85935471Y-115625612D01*
X85630348Y-116360430D01*
X85629654Y-117156079D01*
X85802097Y-117573423D01*
X79674724Y-126000000D01*
X74804214Y-126000000D01*
X75796606Y-125007608D01*
X75969410Y-125180713D01*
X76612376Y-125447696D01*
X77308569Y-125448304D01*
X77952001Y-125182443D01*
X78444713Y-124690590D01*
X78711696Y-124047624D01*
X78712304Y-123351431D01*
X78446443Y-122707999D01*
X77954590Y-122215287D01*
X77311624Y-121948304D01*
X76615431Y-121947696D01*
X75971999Y-122213557D01*
X75479287Y-122705410D01*
X75463490Y-122743453D01*
X75309317Y-122774120D01*
X75251774Y-122812569D01*
X74984893Y-122990893D01*
X72470000Y-125505786D01*
X72470000Y-125453500D01*
X72280500Y-125264000D01*
X71162000Y-125264000D01*
X71162000Y-125814000D01*
X70062000Y-125814000D01*
X70062000Y-125264000D01*
X68943500Y-125264000D01*
X68754000Y-125453500D01*
X68754000Y-125964775D01*
X68768591Y-126000000D01*
X64351191Y-126000000D01*
X64737421Y-125421964D01*
X64747122Y-125373193D01*
X64931880Y-125096683D01*
X65008000Y-124714000D01*
X64931880Y-124331317D01*
X64747122Y-124054807D01*
X64737421Y-124006036D01*
X64481377Y-123622837D01*
X64640989Y-123463225D01*
X68754000Y-123463225D01*
X68754000Y-123974500D01*
X68943500Y-124164000D01*
X70062000Y-124164000D01*
X70062000Y-123045500D01*
X71162000Y-123045500D01*
X71162000Y-124164000D01*
X72280500Y-124164000D01*
X72470000Y-123974500D01*
X72470000Y-123463225D01*
X72354602Y-123184628D01*
X72141373Y-122971399D01*
X71862776Y-122856000D01*
X71351500Y-122856000D01*
X71162000Y-123045500D01*
X70062000Y-123045500D01*
X69872500Y-122856000D01*
X69361224Y-122856000D01*
X69082627Y-122971399D01*
X68869398Y-123184628D01*
X68754000Y-123463225D01*
X64640989Y-123463225D01*
X68554214Y-119550000D01*
X69001307Y-119550000D01*
X69001307Y-121750000D01*
X69053604Y-122027933D01*
X69217862Y-122283198D01*
X69468492Y-122454446D01*
X69766000Y-122514693D01*
X71966000Y-122514693D01*
X72243933Y-122462396D01*
X72499198Y-122298138D01*
X72670446Y-122047508D01*
X72730693Y-121750000D01*
X72730693Y-119550000D01*
X72678396Y-119272067D01*
X72514138Y-119016802D01*
X72263508Y-118845554D01*
X71966000Y-118785307D01*
X69766000Y-118785307D01*
X69488067Y-118837604D01*
X69232802Y-119001862D01*
X69061554Y-119252492D01*
X69001307Y-119550000D01*
X68554214Y-119550000D01*
X69815940Y-118288274D01*
X69936000Y-118238666D01*
X70231628Y-117943554D01*
X70391818Y-117557774D01*
X70392182Y-117140058D01*
X70232666Y-116754000D01*
X69937554Y-116458372D01*
X69551774Y-116298182D01*
X69134058Y-116297818D01*
X68786739Y-116441327D01*
X68742013Y-116216475D01*
X68453582Y-115784805D01*
X70454881Y-115784805D01*
X70539983Y-116032846D01*
X71150064Y-116142239D01*
X71700017Y-116032846D01*
X71785119Y-115784805D01*
X71120000Y-115119685D01*
X70454881Y-115784805D01*
X68453582Y-115784805D01*
X68406016Y-115713618D01*
X67903159Y-115377621D01*
X67310000Y-115259634D01*
X66716841Y-115377621D01*
X66213984Y-115713618D01*
X66040000Y-115974004D01*
X65866016Y-115713618D01*
X65363159Y-115377621D01*
X64770000Y-115259634D01*
X64176841Y-115377621D01*
X63673984Y-115713618D01*
X63500000Y-115974004D01*
X63326016Y-115713618D01*
X62823159Y-115377621D01*
X62230000Y-115259634D01*
X61636841Y-115377621D01*
X61133984Y-115713618D01*
X60960000Y-115974004D01*
X60786016Y-115713618D01*
X60283159Y-115377621D01*
X59690000Y-115259634D01*
X59096841Y-115377621D01*
X58708000Y-115637435D01*
X58708000Y-115589998D01*
X58042061Y-115589998D01*
X57780631Y-115415335D01*
X57550000Y-115531263D01*
X57550000Y-116440000D01*
X57950000Y-116440000D01*
X57950000Y-117240000D01*
X57550000Y-117240000D01*
X57550000Y-118148737D01*
X57780631Y-118264665D01*
X58042061Y-118090002D01*
X58708000Y-118090002D01*
X58708000Y-118042565D01*
X59096841Y-118302379D01*
X59690000Y-118420366D01*
X60283159Y-118302379D01*
X60786016Y-117966382D01*
X60960000Y-117705996D01*
X61133984Y-117966382D01*
X61394693Y-118140582D01*
X61085317Y-118202120D01*
X61030622Y-118238666D01*
X60760893Y-118418893D01*
X59838252Y-119341534D01*
X59734792Y-119091143D01*
X59299151Y-118654740D01*
X58729667Y-118418270D01*
X58113039Y-118417732D01*
X57589630Y-118634000D01*
X56548213Y-118634000D01*
X56004216Y-118090002D01*
X56257939Y-118090002D01*
X56519369Y-118264665D01*
X56750000Y-118148737D01*
X56750000Y-117240000D01*
X56350000Y-117240000D01*
X56350000Y-116440000D01*
X56750000Y-116440000D01*
X56750000Y-115531263D01*
X56519369Y-115415335D01*
X56257939Y-115589998D01*
X55592000Y-115589998D01*
X55592000Y-115637435D01*
X55203159Y-115377621D01*
X54610000Y-115259634D01*
X54016841Y-115377621D01*
X53540024Y-115696219D01*
X53418138Y-115506802D01*
X53167508Y-115335554D01*
X53069960Y-115315800D01*
X52993880Y-114933317D01*
X52777107Y-114608893D01*
X52777104Y-114608891D01*
X51150980Y-112982767D01*
X51308000Y-113014000D01*
X55976660Y-113014000D01*
X55846182Y-113328226D01*
X55845818Y-113745942D01*
X56005334Y-114132000D01*
X56300446Y-114427628D01*
X56686226Y-114587818D01*
X57103942Y-114588182D01*
X57113908Y-114584064D01*
X69531761Y-114584064D01*
X69641154Y-115134017D01*
X69889195Y-115219119D01*
X70554315Y-114554000D01*
X71685685Y-114554000D01*
X72350805Y-115219119D01*
X72598846Y-115134017D01*
X72708239Y-114523936D01*
X72598846Y-113973983D01*
X72350805Y-113888881D01*
X71685685Y-114554000D01*
X70554315Y-114554000D01*
X69889195Y-113888881D01*
X69641154Y-113973983D01*
X69531761Y-114584064D01*
X57113908Y-114584064D01*
X57406905Y-114463000D01*
X61468000Y-114463000D01*
X61821983Y-114392589D01*
X62122074Y-114192074D01*
X62630071Y-113684076D01*
X62630074Y-113684074D01*
X62830589Y-113383982D01*
X62901000Y-113030000D01*
X62901000Y-110630368D01*
X63326016Y-110346382D01*
X63500000Y-110085996D01*
X63673984Y-110346382D01*
X63770000Y-110410538D01*
X63770000Y-112776000D01*
X63846120Y-113158684D01*
X64062893Y-113483107D01*
X64083726Y-113503940D01*
X64133334Y-113624000D01*
X64428446Y-113919628D01*
X64814226Y-114079818D01*
X65231942Y-114080182D01*
X65618000Y-113920666D01*
X65913628Y-113625554D01*
X66039178Y-113323195D01*
X70454881Y-113323195D01*
X71120000Y-113988315D01*
X71785119Y-113323195D01*
X71700017Y-113075154D01*
X71089936Y-112965761D01*
X70539983Y-113075154D01*
X70454881Y-113323195D01*
X66039178Y-113323195D01*
X66073818Y-113239774D01*
X66074182Y-112822058D01*
X65914666Y-112436000D01*
X65770000Y-112291081D01*
X65770000Y-110410538D01*
X65866016Y-110346382D01*
X66040000Y-110085996D01*
X66213984Y-110346382D01*
X66716841Y-110682379D01*
X67310000Y-110800366D01*
X67903159Y-110682379D01*
X68406016Y-110346382D01*
X68742013Y-109843525D01*
X68860000Y-109250366D01*
X68860000Y-109189634D01*
X68742013Y-108596475D01*
X68406016Y-108093618D01*
X67903159Y-107757621D01*
X67310000Y-107639634D01*
X66716841Y-107757621D01*
X66213984Y-108093618D01*
X66040000Y-108354004D01*
X65866016Y-108093618D01*
X65363159Y-107757621D01*
X65217990Y-107728745D01*
X65211238Y-107694802D01*
X65185880Y-107567316D01*
X64969107Y-107242893D01*
X64207107Y-106480893D01*
X64066295Y-106386805D01*
X65374881Y-106386805D01*
X65459983Y-106634846D01*
X66070064Y-106744239D01*
X66620017Y-106634846D01*
X66705119Y-106386805D01*
X66040000Y-105721685D01*
X65374881Y-106386805D01*
X64066295Y-106386805D01*
X63882684Y-106264120D01*
X63500000Y-106188000D01*
X62200144Y-106188000D01*
X62353260Y-106035151D01*
X62589730Y-105465667D01*
X62589973Y-105186064D01*
X64451761Y-105186064D01*
X64561154Y-105736017D01*
X64809195Y-105821119D01*
X65474315Y-105156000D01*
X66605685Y-105156000D01*
X67270805Y-105821119D01*
X67518846Y-105736017D01*
X67628239Y-105125936D01*
X67518846Y-104575983D01*
X67270805Y-104490881D01*
X66605685Y-105156000D01*
X65474315Y-105156000D01*
X64809195Y-104490881D01*
X64561154Y-104575983D01*
X64451761Y-105186064D01*
X62589973Y-105186064D01*
X62590268Y-104849039D01*
X62354792Y-104279143D01*
X62001463Y-103925195D01*
X65374881Y-103925195D01*
X66040000Y-104590315D01*
X66705119Y-103925195D01*
X66620017Y-103677154D01*
X66009936Y-103567761D01*
X65459983Y-103677154D01*
X65374881Y-103925195D01*
X62001463Y-103925195D01*
X61919151Y-103842740D01*
X61349667Y-103606270D01*
X60733039Y-103605732D01*
X60163143Y-103841208D01*
X59766956Y-104236703D01*
X59657421Y-103686036D01*
X59256392Y-103085852D01*
X58656208Y-102684823D01*
X57948244Y-102544000D01*
X57875756Y-102544000D01*
X57167792Y-102684823D01*
X56567608Y-103085852D01*
X56166579Y-103686036D01*
X56025756Y-104394000D01*
X56166579Y-105101964D01*
X56567608Y-105702148D01*
X57167792Y-106103177D01*
X57594225Y-106188000D01*
X57225749Y-106188000D01*
X57105774Y-106138182D01*
X56688058Y-106137818D01*
X56302000Y-106297334D01*
X56172628Y-106426480D01*
X55281000Y-105534852D01*
X55281000Y-102739053D01*
X55356000Y-102362000D01*
X55356000Y-101764461D01*
X55482382Y-101680016D01*
X55818379Y-101177159D01*
X55936366Y-100584000D01*
X55818379Y-99990841D01*
X55680173Y-99784000D01*
X57617307Y-99784000D01*
X57617307Y-101384000D01*
X57669604Y-101661933D01*
X57833862Y-101917198D01*
X58084492Y-102088446D01*
X58382000Y-102148693D01*
X59982000Y-102148693D01*
X60259933Y-102096396D01*
X60515198Y-101932138D01*
X60653950Y-101729068D01*
X61128841Y-102046379D01*
X61722000Y-102164366D01*
X62315159Y-102046379D01*
X62818016Y-101710382D01*
X62992000Y-101449996D01*
X63165984Y-101710382D01*
X63668841Y-102046379D01*
X64262000Y-102164366D01*
X64855159Y-102046379D01*
X65244000Y-101786565D01*
X65244000Y-101834002D01*
X65909939Y-101834002D01*
X66171369Y-102008665D01*
X66402000Y-101892737D01*
X66402000Y-100984000D01*
X67202000Y-100984000D01*
X67202000Y-101892737D01*
X67432631Y-102008665D01*
X67876912Y-101711838D01*
X68226694Y-101214635D01*
X68118307Y-100984000D01*
X67202000Y-100984000D01*
X66402000Y-100984000D01*
X66002000Y-100984000D01*
X66002000Y-100184000D01*
X66402000Y-100184000D01*
X66402000Y-99275263D01*
X67202000Y-99275263D01*
X67202000Y-100184000D01*
X68118307Y-100184000D01*
X68226694Y-99953365D01*
X67876912Y-99456162D01*
X67432631Y-99159335D01*
X67202000Y-99275263D01*
X66402000Y-99275263D01*
X66171369Y-99159335D01*
X65909939Y-99333998D01*
X65244000Y-99333998D01*
X65244000Y-99381435D01*
X64855159Y-99121621D01*
X64262000Y-99003634D01*
X63668841Y-99121621D01*
X63165984Y-99457618D01*
X62992000Y-99718004D01*
X62818016Y-99457618D01*
X62315159Y-99121621D01*
X61722000Y-99003634D01*
X61128841Y-99121621D01*
X60652024Y-99440219D01*
X60530138Y-99250802D01*
X60279508Y-99079554D01*
X59982000Y-99019307D01*
X58382000Y-99019307D01*
X58104067Y-99071604D01*
X57848802Y-99235862D01*
X57677554Y-99486492D01*
X57617307Y-99784000D01*
X55680173Y-99784000D01*
X55482382Y-99487984D01*
X55356000Y-99403539D01*
X55356000Y-97203864D01*
X55669260Y-96891151D01*
X55905730Y-96321667D01*
X55906268Y-95705039D01*
X55670792Y-95135143D01*
X55235151Y-94698740D01*
X54665667Y-94462270D01*
X54049039Y-94461732D01*
X53832000Y-94551411D01*
X53832000Y-94137340D01*
X54146226Y-94267818D01*
X54563942Y-94268182D01*
X54950000Y-94108666D01*
X55245628Y-93813554D01*
X55296022Y-93692192D01*
X55393579Y-93594635D01*
X57757306Y-93594635D01*
X58107088Y-94091838D01*
X58551369Y-94388665D01*
X58782000Y-94272737D01*
X58782000Y-93364000D01*
X57865693Y-93364000D01*
X57757306Y-93594635D01*
X55393579Y-93594635D01*
X56079107Y-92909107D01*
X56295880Y-92584684D01*
X56345870Y-92333365D01*
X57757306Y-92333365D01*
X57865693Y-92564000D01*
X58782000Y-92564000D01*
X58782000Y-91655263D01*
X59582000Y-91655263D01*
X59582000Y-92564000D01*
X59982000Y-92564000D01*
X59982000Y-93364000D01*
X59582000Y-93364000D01*
X59582000Y-94272737D01*
X59812631Y-94388665D01*
X60074061Y-94214002D01*
X60740000Y-94214002D01*
X60740000Y-94166565D01*
X61128841Y-94426379D01*
X61722000Y-94544366D01*
X62315159Y-94426379D01*
X62818016Y-94090382D01*
X62992000Y-93829996D01*
X63165984Y-94090382D01*
X63668841Y-94426379D01*
X64262000Y-94544366D01*
X64855159Y-94426379D01*
X65358016Y-94090382D01*
X65532000Y-93829996D01*
X65705984Y-94090382D01*
X66208841Y-94426379D01*
X66802000Y-94544366D01*
X67395159Y-94426379D01*
X67898016Y-94090382D01*
X68234013Y-93587525D01*
X68352000Y-92994366D01*
X68352000Y-92933634D01*
X68234013Y-92340475D01*
X67898016Y-91837618D01*
X67395159Y-91501621D01*
X66802000Y-91383634D01*
X66208841Y-91501621D01*
X65705984Y-91837618D01*
X65532000Y-92098004D01*
X65358016Y-91837618D01*
X64855159Y-91501621D01*
X64262000Y-91383634D01*
X63668841Y-91501621D01*
X63165984Y-91837618D01*
X62992000Y-92098004D01*
X62818016Y-91837618D01*
X62315159Y-91501621D01*
X61722000Y-91383634D01*
X61128841Y-91501621D01*
X60740000Y-91761435D01*
X60740000Y-91713998D01*
X60074061Y-91713998D01*
X59812631Y-91539335D01*
X59582000Y-91655263D01*
X58782000Y-91655263D01*
X58551369Y-91539335D01*
X58107088Y-91836162D01*
X57757306Y-92333365D01*
X56345870Y-92333365D01*
X56372000Y-92202000D01*
X56372000Y-89460961D01*
X57377732Y-89460961D01*
X57613208Y-90030857D01*
X58048849Y-90467260D01*
X58618333Y-90703730D01*
X59234961Y-90704268D01*
X59804857Y-90468792D01*
X60241260Y-90033151D01*
X60477730Y-89463667D01*
X60478268Y-88847039D01*
X60242792Y-88277143D01*
X59807151Y-87840740D01*
X59237667Y-87604270D01*
X58621039Y-87603732D01*
X58051143Y-87839208D01*
X57614740Y-88274849D01*
X57378270Y-88844333D01*
X57377732Y-89460961D01*
X56372000Y-89460961D01*
X56372000Y-86360000D01*
X61614654Y-86360000D01*
X61736447Y-86972293D01*
X62083283Y-87491371D01*
X62290756Y-87630000D01*
X62083283Y-87768629D01*
X61736447Y-88287707D01*
X61614654Y-88900000D01*
X61736447Y-89512293D01*
X62083283Y-90031371D01*
X62602361Y-90378207D01*
X63214654Y-90500000D01*
X63277346Y-90500000D01*
X63889639Y-90378207D01*
X64408717Y-90031371D01*
X64755553Y-89512293D01*
X64877346Y-88900000D01*
X64755553Y-88287707D01*
X64408717Y-87768629D01*
X64201244Y-87630000D01*
X64408717Y-87491371D01*
X64755553Y-86972293D01*
X64877346Y-86360000D01*
X64755553Y-85747707D01*
X64470109Y-85320509D01*
X64629198Y-85218138D01*
X64800446Y-84967508D01*
X64860693Y-84670000D01*
X64860693Y-84380961D01*
X64997732Y-84380961D01*
X65233208Y-84950857D01*
X65668849Y-85387260D01*
X66238333Y-85623730D01*
X66854961Y-85624268D01*
X67424857Y-85388792D01*
X67861260Y-84953151D01*
X68097730Y-84383667D01*
X68098268Y-83767039D01*
X67862792Y-83197143D01*
X67427151Y-82760740D01*
X66857667Y-82524270D01*
X66241039Y-82523732D01*
X65671143Y-82759208D01*
X65234740Y-83194849D01*
X64998270Y-83764333D01*
X64997732Y-84380961D01*
X64860693Y-84380961D01*
X64860693Y-82970000D01*
X64808396Y-82692067D01*
X64644138Y-82436802D01*
X64393508Y-82265554D01*
X64096000Y-82205307D01*
X62396000Y-82205307D01*
X62118067Y-82257604D01*
X61862802Y-82421862D01*
X61691554Y-82672492D01*
X61631307Y-82970000D01*
X61631307Y-84670000D01*
X61683604Y-84947933D01*
X61847862Y-85203198D01*
X62021158Y-85321606D01*
X61736447Y-85747707D01*
X61614654Y-86360000D01*
X56372000Y-86360000D01*
X56372000Y-86229108D01*
X56528964Y-85601250D01*
X57462967Y-84667247D01*
X57613208Y-85030857D01*
X58048849Y-85467260D01*
X58618333Y-85703730D01*
X59234961Y-85704268D01*
X59804857Y-85468792D01*
X60241260Y-85033151D01*
X60477730Y-84463667D01*
X60478268Y-83847039D01*
X60242792Y-83277143D01*
X59807151Y-82840740D01*
X59441362Y-82688852D01*
X61413107Y-80717107D01*
X61629880Y-80392684D01*
X61706000Y-80010000D01*
X61706000Y-78138214D01*
X61882214Y-77962000D01*
X61982288Y-77962000D01*
X61935307Y-78194000D01*
X61935307Y-79794000D01*
X61987604Y-80071933D01*
X62151862Y-80327198D01*
X62402492Y-80498446D01*
X62700000Y-80558693D01*
X64300000Y-80558693D01*
X64577933Y-80506396D01*
X64833198Y-80342138D01*
X64971950Y-80139068D01*
X65232866Y-80313406D01*
X65332893Y-80463107D01*
X65657317Y-80679880D01*
X66040000Y-80756000D01*
X66118226Y-80740440D01*
X67872891Y-82495104D01*
X67872893Y-82495107D01*
X68197317Y-82711880D01*
X68580000Y-82788000D01*
X70642301Y-82788000D01*
X70234740Y-83194849D01*
X69998270Y-83764333D01*
X69997732Y-84380961D01*
X70233208Y-84950857D01*
X70668849Y-85387260D01*
X71238333Y-85623730D01*
X71854961Y-85624268D01*
X72406000Y-85396584D01*
X72406000Y-89932000D01*
X70772214Y-89932000D01*
X69922070Y-89081856D01*
X69958244Y-88900000D01*
X69817421Y-88192036D01*
X69416392Y-87591852D01*
X68816208Y-87190823D01*
X68108244Y-87050000D01*
X68035756Y-87050000D01*
X67327792Y-87190823D01*
X66727608Y-87591852D01*
X66326579Y-88192036D01*
X66185756Y-88900000D01*
X66326579Y-89607964D01*
X66727608Y-90208148D01*
X67327792Y-90609177D01*
X68035756Y-90750000D01*
X68108244Y-90750000D01*
X68653356Y-90641570D01*
X68943786Y-90932000D01*
X68888893Y-90986893D01*
X68672120Y-91311316D01*
X68672120Y-91311317D01*
X68596000Y-91694000D01*
X68596000Y-104218136D01*
X68282740Y-104530849D01*
X68046270Y-105100333D01*
X68045732Y-105716961D01*
X68281208Y-106286857D01*
X68716849Y-106723260D01*
X69286333Y-106959730D01*
X69902961Y-106960268D01*
X70472857Y-106724792D01*
X70909260Y-106289151D01*
X71145730Y-105719667D01*
X71146268Y-105103039D01*
X70910792Y-104533143D01*
X70596000Y-104217800D01*
X70596000Y-101798863D01*
X70778446Y-101981628D01*
X70899808Y-102032022D01*
X72110893Y-103243107D01*
X72152000Y-103270574D01*
X72152000Y-108393856D01*
X71999151Y-108240740D01*
X71429667Y-108004270D01*
X70813039Y-108003732D01*
X70243143Y-108239208D01*
X69806740Y-108674849D01*
X69570270Y-109244333D01*
X69569732Y-109860961D01*
X69805208Y-110430857D01*
X70240849Y-110867260D01*
X70810333Y-111103730D01*
X71426961Y-111104268D01*
X71996857Y-110868792D01*
X72433260Y-110433151D01*
X72669730Y-109863667D01*
X72670143Y-109390357D01*
X75211848Y-111932062D01*
X75211696Y-112106569D01*
X75477557Y-112750001D01*
X75969410Y-113242713D01*
X76612376Y-113509696D01*
X77308569Y-113510304D01*
X77952001Y-113244443D01*
X78444713Y-112752590D01*
X78711696Y-112109624D01*
X78712304Y-111413431D01*
X78446443Y-110769999D01*
X77954590Y-110277287D01*
X77311624Y-110010304D01*
X76615431Y-110009696D01*
X76263376Y-110155162D01*
X74152000Y-108043786D01*
X74152000Y-107570214D01*
X76254893Y-109673107D01*
X76579317Y-109889880D01*
X76962000Y-109966000D01*
X79087786Y-109966000D01*
X79264000Y-110142214D01*
X79264000Y-114139786D01*
X77297494Y-116106292D01*
X76615431Y-116105696D01*
X75971999Y-116371557D01*
X75479287Y-116863410D01*
X75212304Y-117506376D01*
X75211696Y-118202569D01*
X75477557Y-118846001D01*
X75969410Y-119338713D01*
X76612376Y-119605696D01*
X77308569Y-119606304D01*
X77952001Y-119340443D01*
X78444713Y-118848590D01*
X78711696Y-118205624D01*
X78712295Y-117519919D01*
X80971107Y-115261107D01*
X81086954Y-115087730D01*
X81187880Y-114936683D01*
X81264000Y-114554000D01*
X81264000Y-113844961D01*
X82523732Y-113844961D01*
X82759208Y-114414857D01*
X83194849Y-114851260D01*
X83764333Y-115087730D01*
X84380961Y-115088268D01*
X84950857Y-114852792D01*
X85387260Y-114417151D01*
X85623730Y-113847667D01*
X85624086Y-113439063D01*
X86834820Y-113439063D01*
X86989684Y-113704632D01*
X87782604Y-113801644D01*
X88270316Y-113704632D01*
X88425180Y-113439063D01*
X87630000Y-112643883D01*
X86834820Y-113439063D01*
X85624086Y-113439063D01*
X85624268Y-113231039D01*
X85388792Y-112661143D01*
X84953151Y-112224740D01*
X84383667Y-111988270D01*
X83767039Y-111987732D01*
X83197143Y-112223208D01*
X82760740Y-112658849D01*
X82524270Y-113228333D01*
X82523732Y-113844961D01*
X81264000Y-113844961D01*
X81264000Y-111912604D01*
X85588356Y-111912604D01*
X85685368Y-112400316D01*
X85950937Y-112555180D01*
X86746117Y-111760000D01*
X88513883Y-111760000D01*
X89309063Y-112555180D01*
X89574632Y-112400316D01*
X89671644Y-111607396D01*
X89574632Y-111119684D01*
X89309063Y-110964820D01*
X88513883Y-111760000D01*
X86746117Y-111760000D01*
X85950937Y-110964820D01*
X85685368Y-111119684D01*
X85588356Y-111912604D01*
X81264000Y-111912604D01*
X81264000Y-110080937D01*
X86834820Y-110080937D01*
X87630000Y-110876117D01*
X88425180Y-110080937D01*
X88270316Y-109815368D01*
X87477396Y-109718356D01*
X86989684Y-109815368D01*
X86834820Y-110080937D01*
X81264000Y-110080937D01*
X81264000Y-109728000D01*
X81187880Y-109345317D01*
X81187880Y-109345316D01*
X80971107Y-109020893D01*
X80377848Y-108427634D01*
X82016000Y-108427634D01*
X82016000Y-108488366D01*
X82133987Y-109081525D01*
X82469984Y-109584382D01*
X82972841Y-109920379D01*
X83566000Y-110038366D01*
X84159159Y-109920379D01*
X84662016Y-109584382D01*
X84998013Y-109081525D01*
X85116000Y-108488366D01*
X85116000Y-108427634D01*
X84998013Y-107834475D01*
X84662016Y-107331618D01*
X84159159Y-106995621D01*
X83566000Y-106877634D01*
X82972841Y-106995621D01*
X82469984Y-107331618D01*
X82133987Y-107834475D01*
X82016000Y-108427634D01*
X80377848Y-108427634D01*
X80289075Y-108338861D01*
X80561260Y-108067151D01*
X80797730Y-107497667D01*
X80798268Y-106881039D01*
X80562792Y-106311143D01*
X80127151Y-105874740D01*
X79557667Y-105638270D01*
X78941039Y-105637732D01*
X78371143Y-105873208D01*
X77934740Y-106308849D01*
X77698270Y-106878333D01*
X77697732Y-107494961D01*
X77892361Y-107966000D01*
X77376214Y-107966000D01*
X75804221Y-106394007D01*
X75909260Y-106289151D01*
X76145730Y-105719667D01*
X76146268Y-105103039D01*
X75910792Y-104533143D01*
X75475151Y-104096740D01*
X74905667Y-103860270D01*
X74289039Y-103859732D01*
X74152000Y-103916355D01*
X74152000Y-103616000D01*
X83566000Y-103616000D01*
X83575657Y-103614079D01*
X85883654Y-103614079D01*
X86187494Y-104349429D01*
X86749612Y-104912529D01*
X87484430Y-105217652D01*
X88280079Y-105218346D01*
X89015429Y-104914506D01*
X89578529Y-104352388D01*
X89883652Y-103617570D01*
X89884346Y-102821921D01*
X89580506Y-102086571D01*
X89018388Y-101523471D01*
X88283570Y-101218348D01*
X87487921Y-101217654D01*
X86752571Y-101521494D01*
X86189471Y-102083612D01*
X85884348Y-102818430D01*
X85883654Y-103614079D01*
X83575657Y-103614079D01*
X83948683Y-103539880D01*
X84273107Y-103323107D01*
X84434200Y-103082014D01*
X87353096Y-100163118D01*
X87484430Y-100217652D01*
X88280079Y-100218346D01*
X89015429Y-99914506D01*
X89578529Y-99352388D01*
X89883652Y-98617570D01*
X89884346Y-97821921D01*
X89580506Y-97086571D01*
X89018388Y-96523471D01*
X88283570Y-96218348D01*
X87487921Y-96217654D01*
X86752571Y-96521494D01*
X86189471Y-97083612D01*
X85884348Y-97818430D01*
X85883654Y-98614079D01*
X85939222Y-98748564D01*
X83071786Y-101616000D01*
X73540490Y-101616000D01*
X73534683Y-101612120D01*
X73252131Y-101555917D01*
X72314274Y-100618060D01*
X72264666Y-100498000D01*
X71969554Y-100202372D01*
X71583774Y-100042182D01*
X71166058Y-100041818D01*
X70780000Y-100201334D01*
X70596000Y-100385013D01*
X70596000Y-98524961D01*
X71855732Y-98524961D01*
X72091208Y-99094857D01*
X72526849Y-99531260D01*
X73096333Y-99767730D01*
X73712961Y-99768268D01*
X74282857Y-99532792D01*
X74719260Y-99097151D01*
X74955730Y-98527667D01*
X74956268Y-97911039D01*
X74720792Y-97341143D01*
X74285151Y-96904740D01*
X73715667Y-96668270D01*
X73099039Y-96667732D01*
X72529143Y-96903208D01*
X72092740Y-97338849D01*
X71856270Y-97908333D01*
X71855732Y-98524961D01*
X70596000Y-98524961D01*
X70596000Y-92108214D01*
X70772214Y-91932000D01*
X72500301Y-91932000D01*
X72092740Y-92338849D01*
X71856270Y-92908333D01*
X71855732Y-93524961D01*
X72091208Y-94094857D01*
X72526849Y-94531260D01*
X73096333Y-94767730D01*
X73712961Y-94768268D01*
X74282857Y-94532792D01*
X74358146Y-94457634D01*
X77698000Y-94457634D01*
X77698000Y-94518366D01*
X77815987Y-95111525D01*
X78151984Y-95614382D01*
X78654841Y-95950379D01*
X79248000Y-96068366D01*
X79841159Y-95950379D01*
X80344016Y-95614382D01*
X80680013Y-95111525D01*
X80798000Y-94518366D01*
X80798000Y-94457634D01*
X80680013Y-93864475D01*
X80453158Y-93524961D01*
X81761732Y-93524961D01*
X81997208Y-94094857D01*
X82432849Y-94531260D01*
X82551558Y-94580552D01*
X82252740Y-94878849D01*
X82016270Y-95448333D01*
X82015732Y-96064961D01*
X82251208Y-96634857D01*
X82686849Y-97071260D01*
X83256333Y-97307730D01*
X83872961Y-97308268D01*
X84442857Y-97072792D01*
X84879260Y-96637151D01*
X85115730Y-96067667D01*
X85115897Y-95876317D01*
X86051104Y-94941109D01*
X86051107Y-94941107D01*
X86267880Y-94616683D01*
X86298851Y-94460981D01*
X86749612Y-94912529D01*
X87484430Y-95217652D01*
X88280079Y-95218346D01*
X89015429Y-94914506D01*
X89578529Y-94352388D01*
X89883652Y-93617570D01*
X89884346Y-92821921D01*
X89580506Y-92086571D01*
X89018388Y-91523471D01*
X88283570Y-91218348D01*
X87487921Y-91217654D01*
X86752571Y-91521494D01*
X86344000Y-91929352D01*
X86344000Y-91854214D01*
X92401107Y-85797107D01*
X92525790Y-85610506D01*
X92617880Y-85472683D01*
X92694000Y-85090000D01*
X92694000Y-68701877D01*
X92871933Y-68668396D01*
X93127198Y-68504138D01*
X93298446Y-68253508D01*
X93358693Y-67956000D01*
X93358693Y-66156000D01*
X93306396Y-65878067D01*
X93142138Y-65622802D01*
X93040453Y-65553323D01*
X93769773Y-64824003D01*
X93378280Y-64432510D01*
X93276786Y-63922269D01*
X93024731Y-63821665D01*
X92330396Y-64516000D01*
X92648594Y-64834198D01*
X92091485Y-65391307D01*
X91932911Y-65391307D01*
X91694000Y-65152396D01*
X91455089Y-65391307D01*
X91296515Y-65391307D01*
X90739406Y-64834198D01*
X91057604Y-64516000D01*
X90363269Y-63821665D01*
X90111214Y-63922269D01*
X90031046Y-64411184D01*
X89618227Y-64824003D01*
X90346768Y-65552544D01*
X90260802Y-65607862D01*
X90089554Y-65858492D01*
X90029307Y-66156000D01*
X90029307Y-67956000D01*
X90081604Y-68233933D01*
X90245862Y-68489198D01*
X90496492Y-68660446D01*
X90694000Y-68700442D01*
X90694000Y-84675786D01*
X84636893Y-90732893D01*
X84420120Y-91057316D01*
X84368927Y-91314683D01*
X84344000Y-91440000D01*
X84344000Y-92057856D01*
X84191151Y-91904740D01*
X83621667Y-91668270D01*
X83005039Y-91667732D01*
X82435143Y-91903208D01*
X81998740Y-92338849D01*
X81762270Y-92908333D01*
X81761732Y-93524961D01*
X80453158Y-93524961D01*
X80344016Y-93361618D01*
X79841159Y-93025621D01*
X79248000Y-92907634D01*
X78654841Y-93025621D01*
X78151984Y-93361618D01*
X77815987Y-93864475D01*
X77698000Y-94457634D01*
X74358146Y-94457634D01*
X74719260Y-94097151D01*
X74955730Y-93527667D01*
X74956268Y-92911039D01*
X74720792Y-92341143D01*
X74312363Y-91932000D01*
X78067539Y-91932000D01*
X78151984Y-92058382D01*
X78654841Y-92394379D01*
X79248000Y-92512366D01*
X79841159Y-92394379D01*
X80344016Y-92058382D01*
X80680013Y-91555525D01*
X80798000Y-90962366D01*
X80798000Y-90901634D01*
X80680013Y-90308475D01*
X80344016Y-89805618D01*
X79841159Y-89469621D01*
X79248000Y-89351634D01*
X78654841Y-89469621D01*
X78151984Y-89805618D01*
X78067539Y-89932000D01*
X77550000Y-89932000D01*
X77550000Y-89639500D01*
X77360500Y-89450000D01*
X76242000Y-89450000D01*
X76242000Y-89932000D01*
X75142000Y-89932000D01*
X75142000Y-89450000D01*
X74592000Y-89450000D01*
X74592000Y-88350000D01*
X75142000Y-88350000D01*
X75142000Y-87915770D01*
X75184000Y-87873770D01*
X75419907Y-88109677D01*
X76242000Y-87287584D01*
X76242000Y-88350000D01*
X77360500Y-88350000D01*
X77550000Y-88160500D01*
X77550000Y-87649225D01*
X77434602Y-87370628D01*
X77221373Y-87157399D01*
X76942776Y-87042000D01*
X76487584Y-87042000D01*
X77187677Y-86341907D01*
X76735126Y-85889357D01*
X76662846Y-85525983D01*
X76414805Y-85440881D01*
X75749685Y-86106000D01*
X76032528Y-86388843D01*
X75466843Y-86954528D01*
X75184000Y-86671685D01*
X74901157Y-86954528D01*
X74406000Y-86459371D01*
X74406000Y-86318315D01*
X74618315Y-86106000D01*
X74406000Y-85893685D01*
X74406000Y-85752629D01*
X74901157Y-85257472D01*
X75184000Y-85540315D01*
X75849119Y-84875195D01*
X75764017Y-84627154D01*
X75409323Y-84563554D01*
X75155849Y-84310079D01*
X86137654Y-84310079D01*
X86441494Y-85045429D01*
X87003612Y-85608529D01*
X87738430Y-85913652D01*
X88534079Y-85914346D01*
X89269429Y-85610506D01*
X89832529Y-85048388D01*
X90137652Y-84313570D01*
X90138346Y-83517921D01*
X89834506Y-82782571D01*
X89272388Y-82219471D01*
X88537570Y-81914348D01*
X87741921Y-81913654D01*
X87006571Y-82217494D01*
X86443471Y-82779612D01*
X86138348Y-83514430D01*
X86137654Y-84310079D01*
X75155849Y-84310079D01*
X74948093Y-84102323D01*
X74406000Y-84644416D01*
X74406000Y-83764863D01*
X74588446Y-83947628D01*
X74974226Y-84107818D01*
X75391942Y-84108182D01*
X75513392Y-84058000D01*
X80264000Y-84058000D01*
X80646684Y-83981880D01*
X80971107Y-83765107D01*
X81733107Y-83003107D01*
X81949880Y-82678684D01*
X82026000Y-82296000D01*
X82026000Y-81360050D01*
X82215984Y-81644382D01*
X82718841Y-81980379D01*
X83312000Y-82098366D01*
X83905159Y-81980379D01*
X84408016Y-81644382D01*
X84744013Y-81141525D01*
X84853109Y-80593063D01*
X87342820Y-80593063D01*
X87497684Y-80858632D01*
X88290604Y-80955644D01*
X88778316Y-80858632D01*
X88933180Y-80593063D01*
X88138000Y-79797883D01*
X87342820Y-80593063D01*
X84853109Y-80593063D01*
X84862000Y-80548366D01*
X84862000Y-80487634D01*
X84744013Y-79894475D01*
X84408016Y-79391618D01*
X83921597Y-79066604D01*
X86096356Y-79066604D01*
X86193368Y-79554316D01*
X86458937Y-79709180D01*
X87254117Y-78914000D01*
X89021883Y-78914000D01*
X89817063Y-79709180D01*
X90082632Y-79554316D01*
X90179644Y-78761396D01*
X90082632Y-78273684D01*
X89817063Y-78118820D01*
X89021883Y-78914000D01*
X87254117Y-78914000D01*
X86458937Y-78118820D01*
X86193368Y-78273684D01*
X86096356Y-79066604D01*
X83921597Y-79066604D01*
X83905159Y-79055621D01*
X83312000Y-78937634D01*
X82718841Y-79055621D01*
X82215984Y-79391618D01*
X82026000Y-79675950D01*
X82026000Y-77234937D01*
X87342820Y-77234937D01*
X88138000Y-78030117D01*
X88933180Y-77234937D01*
X88778316Y-76969368D01*
X87985396Y-76872356D01*
X87497684Y-76969368D01*
X87342820Y-77234937D01*
X82026000Y-77234937D01*
X82026000Y-74728961D01*
X82189732Y-74728961D01*
X82425208Y-75298857D01*
X82860849Y-75735260D01*
X83430333Y-75971730D01*
X84046961Y-75972268D01*
X84616857Y-75736792D01*
X85053260Y-75301151D01*
X85289730Y-74731667D01*
X85290097Y-74310079D01*
X86137654Y-74310079D01*
X86441494Y-75045429D01*
X87003612Y-75608529D01*
X87738430Y-75913652D01*
X88534079Y-75914346D01*
X89269429Y-75610506D01*
X89832529Y-75048388D01*
X90137652Y-74313570D01*
X90138346Y-73517921D01*
X89834506Y-72782571D01*
X89272388Y-72219471D01*
X88537570Y-71914348D01*
X87741921Y-71913654D01*
X87006571Y-72217494D01*
X86443471Y-72779612D01*
X86138348Y-73514430D01*
X86137654Y-74310079D01*
X85290097Y-74310079D01*
X85290268Y-74115039D01*
X85054792Y-73545143D01*
X84619151Y-73108740D01*
X84049667Y-72872270D01*
X83433039Y-72871732D01*
X82863143Y-73107208D01*
X82426740Y-73542849D01*
X82190270Y-74112333D01*
X82189732Y-74728961D01*
X82026000Y-74728961D01*
X82026000Y-70278538D01*
X82122016Y-70214382D01*
X82296000Y-69953996D01*
X82469984Y-70214382D01*
X82972841Y-70550379D01*
X83566000Y-70668366D01*
X84159159Y-70550379D01*
X84662016Y-70214382D01*
X84998013Y-69711525D01*
X85116000Y-69118366D01*
X85116000Y-69057634D01*
X84998013Y-68464475D01*
X84662016Y-67961618D01*
X84310884Y-67727000D01*
X86106000Y-67727000D01*
X86459983Y-67656589D01*
X86760074Y-67456074D01*
X87776074Y-66440074D01*
X87976589Y-66139983D01*
X88047000Y-65786000D01*
X88047000Y-63185269D01*
X90999665Y-63185269D01*
X91694000Y-63879604D01*
X92388335Y-63185269D01*
X92287731Y-62933214D01*
X91636830Y-62826485D01*
X91100269Y-62933214D01*
X90999665Y-63185269D01*
X88047000Y-63185269D01*
X88047000Y-59436000D01*
X87991374Y-59156348D01*
X93984000Y-63625425D01*
X93984000Y-143630204D01*
X92621758Y-144538365D01*
X91651054Y-144537518D01*
X90628182Y-144960160D01*
X89844910Y-145742066D01*
X89473108Y-146637465D01*
X85776306Y-149102000D01*
X73445089Y-149102000D01*
X73569198Y-149022138D01*
X73740446Y-148771508D01*
X73800693Y-148474000D01*
X73800693Y-147909500D01*
X77182000Y-147909500D01*
X77182000Y-148270775D01*
X77297398Y-148549372D01*
X77510627Y-148762601D01*
X77789224Y-148878000D01*
X78150500Y-148878000D01*
X78340000Y-148688500D01*
X78340000Y-147720000D01*
X77371500Y-147720000D01*
X77182000Y-147909500D01*
X73800693Y-147909500D01*
X73800693Y-146674000D01*
X73748396Y-146396067D01*
X73731124Y-146369225D01*
X77182000Y-146369225D01*
X77182000Y-146730500D01*
X77371500Y-146920000D01*
X78340000Y-146920000D01*
X78340000Y-145951500D01*
X79140000Y-145951500D01*
X79140000Y-146920000D01*
X79540000Y-146920000D01*
X79540000Y-147720000D01*
X79140000Y-147720000D01*
X79140000Y-148688500D01*
X79329500Y-148878000D01*
X79690776Y-148878000D01*
X79969373Y-148762601D01*
X80161972Y-148570002D01*
X80297701Y-148570002D01*
X80360849Y-148633260D01*
X80930333Y-148869730D01*
X81546961Y-148870268D01*
X82116857Y-148634792D01*
X82553260Y-148199151D01*
X82789730Y-147629667D01*
X82790268Y-147013039D01*
X82554792Y-146443143D01*
X82119151Y-146006740D01*
X81549667Y-145770270D01*
X80933039Y-145769732D01*
X80363143Y-146005208D01*
X80298000Y-146070237D01*
X80298000Y-146069998D01*
X80161972Y-146069998D01*
X79969373Y-145877399D01*
X79690776Y-145762000D01*
X79329500Y-145762000D01*
X79140000Y-145951500D01*
X78340000Y-145951500D01*
X78150500Y-145762000D01*
X77789224Y-145762000D01*
X77510627Y-145877399D01*
X77297398Y-146090628D01*
X77182000Y-146369225D01*
X73731124Y-146369225D01*
X73584138Y-146140802D01*
X73333508Y-145969554D01*
X73036000Y-145909307D01*
X71236000Y-145909307D01*
X70958067Y-145961604D01*
X70702802Y-146125862D01*
X70599706Y-146276748D01*
X70259753Y-146049599D01*
X69628325Y-145924000D01*
X69563675Y-145924000D01*
X68932247Y-146049599D01*
X68521580Y-146323998D01*
X68102136Y-146323998D01*
X67750097Y-146068246D01*
X67506000Y-146167704D01*
X67506000Y-147124000D01*
X67956000Y-147124000D01*
X67956000Y-147361219D01*
X67913675Y-147574000D01*
X67956000Y-147786781D01*
X67956000Y-148024000D01*
X67506000Y-148024000D01*
X67506000Y-148474000D01*
X66606000Y-148474000D01*
X66606000Y-148024000D01*
X65658147Y-148024000D01*
X65550278Y-148268092D01*
X65776033Y-148606000D01*
X63078693Y-148606000D01*
X63078693Y-146879908D01*
X65550278Y-146879908D01*
X65658147Y-147124000D01*
X66606000Y-147124000D01*
X66606000Y-146167704D01*
X66361903Y-146068246D01*
X65838511Y-146448484D01*
X65550278Y-146879908D01*
X63078693Y-146879908D01*
X63078693Y-146474000D01*
X63026396Y-146196067D01*
X62862138Y-145940802D01*
X62611508Y-145769554D01*
X62314000Y-145709307D01*
X62214000Y-145709307D01*
X62214000Y-145702214D01*
X62644214Y-145272000D01*
X69850000Y-145272000D01*
X70232684Y-145195880D01*
X70557107Y-144979107D01*
X72042214Y-143494000D01*
X72976136Y-143494000D01*
X73288849Y-143807260D01*
X73858333Y-144043730D01*
X74474961Y-144044268D01*
X75044857Y-143808792D01*
X75481260Y-143373151D01*
X75717730Y-142803667D01*
X75718026Y-142463634D01*
X76936000Y-142463634D01*
X76936000Y-142524366D01*
X77053987Y-143117525D01*
X77389984Y-143620382D01*
X77892841Y-143956379D01*
X78486000Y-144074366D01*
X79079159Y-143956379D01*
X79582016Y-143620382D01*
X79913262Y-143124635D01*
X81633306Y-143124635D01*
X81983088Y-143621838D01*
X82427369Y-143918665D01*
X82658000Y-143802737D01*
X82658000Y-142894000D01*
X83458000Y-142894000D01*
X83458000Y-143802737D01*
X83688631Y-143918665D01*
X84132912Y-143621838D01*
X84482694Y-143124635D01*
X84374307Y-142894000D01*
X83458000Y-142894000D01*
X82658000Y-142894000D01*
X81741693Y-142894000D01*
X81633306Y-143124635D01*
X79913262Y-143124635D01*
X79918013Y-143117525D01*
X80036000Y-142524366D01*
X80036000Y-142463634D01*
X79918013Y-141870475D01*
X79913263Y-141863365D01*
X81633306Y-141863365D01*
X81741693Y-142094000D01*
X82658000Y-142094000D01*
X82658000Y-141185263D01*
X83458000Y-141185263D01*
X83458000Y-142094000D01*
X84374307Y-142094000D01*
X84482694Y-141863365D01*
X84132912Y-141366162D01*
X83688631Y-141069335D01*
X83458000Y-141185263D01*
X82658000Y-141185263D01*
X82427369Y-141069335D01*
X81983088Y-141366162D01*
X81633306Y-141863365D01*
X79913263Y-141863365D01*
X79582016Y-141367618D01*
X79079159Y-141031621D01*
X78486000Y-140913634D01*
X77892841Y-141031621D01*
X77389984Y-141367618D01*
X77053987Y-141870475D01*
X76936000Y-142463634D01*
X75718026Y-142463634D01*
X75718268Y-142187039D01*
X75482792Y-141617143D01*
X75047151Y-141180740D01*
X74477667Y-140944270D01*
X73861039Y-140943732D01*
X73291143Y-141179208D01*
X72975800Y-141494000D01*
X71628005Y-141494000D01*
X71628000Y-141493999D01*
X71245316Y-141570120D01*
X70920893Y-141786893D01*
X69435786Y-143272000D01*
X68939655Y-143272000D01*
X69068446Y-143083508D01*
X69128693Y-142786000D01*
X69128693Y-141186000D01*
X69076396Y-140908067D01*
X68912138Y-140652802D01*
X68720367Y-140521770D01*
X68877260Y-140365151D01*
X69113730Y-139795667D01*
X69113829Y-139682079D01*
X86137654Y-139682079D01*
X86441494Y-140417429D01*
X87003612Y-140980529D01*
X87738430Y-141285652D01*
X88534079Y-141286346D01*
X89269429Y-140982506D01*
X89832529Y-140420388D01*
X90137652Y-139685570D01*
X90138346Y-138889921D01*
X89834506Y-138154571D01*
X89272388Y-137591471D01*
X88537570Y-137286348D01*
X87741921Y-137285654D01*
X87006571Y-137589494D01*
X86443471Y-138151612D01*
X86138348Y-138886430D01*
X86137654Y-139682079D01*
X69113829Y-139682079D01*
X69114268Y-139179039D01*
X68878792Y-138609143D01*
X68443151Y-138172740D01*
X67873667Y-137936270D01*
X67257039Y-137935732D01*
X66687143Y-138171208D01*
X66250740Y-138606849D01*
X66014270Y-139176333D01*
X66013732Y-139792961D01*
X66249208Y-140362857D01*
X66409162Y-140523091D01*
X66230802Y-140637862D01*
X66059554Y-140888492D01*
X66004040Y-141162628D01*
X58811159Y-142008849D01*
X58680263Y-142051278D01*
X58545316Y-142078121D01*
X58496194Y-142110943D01*
X58439991Y-142129161D01*
X58335300Y-142218449D01*
X58220893Y-142294893D01*
X56950893Y-143564893D01*
X56734120Y-143889316D01*
X56719212Y-143964265D01*
X56658000Y-144272000D01*
X56658000Y-145709307D01*
X56304000Y-145709307D01*
X56026067Y-145761604D01*
X55770802Y-145925862D01*
X55624400Y-146140128D01*
X55496138Y-145940802D01*
X55245508Y-145769554D01*
X54948000Y-145709307D01*
X52748000Y-145709307D01*
X52470067Y-145761604D01*
X52214802Y-145925862D01*
X52043554Y-146176492D01*
X51983307Y-146474000D01*
X51983307Y-148105093D01*
X51902693Y-148024479D01*
X51902693Y-146474000D01*
X51850396Y-146196067D01*
X51686138Y-145940802D01*
X51435508Y-145769554D01*
X51138000Y-145709307D01*
X49158072Y-145709307D01*
X49183880Y-145670683D01*
X49260000Y-145288000D01*
X49260000Y-142908214D01*
X51976214Y-140192000D01*
X55626000Y-140192000D01*
X56008684Y-140115880D01*
X56333107Y-139899107D01*
X57010285Y-139221929D01*
X57404000Y-139300244D01*
X58111964Y-139159421D01*
X58712148Y-138758392D01*
X58942263Y-138414000D01*
X59675737Y-138414000D01*
X59905852Y-138758392D01*
X60506036Y-139159421D01*
X61214000Y-139300244D01*
X61921964Y-139159421D01*
X62522148Y-138758392D01*
X62923177Y-138158208D01*
X63064000Y-137450244D01*
X63064000Y-137377756D01*
X62923177Y-136669792D01*
X62522148Y-136069608D01*
X62365685Y-135965063D01*
X87342820Y-135965063D01*
X87497684Y-136230632D01*
X88290604Y-136327644D01*
X88778316Y-136230632D01*
X88933180Y-135965063D01*
X88138000Y-135169883D01*
X87342820Y-135965063D01*
X62365685Y-135965063D01*
X61921964Y-135668579D01*
X61214000Y-135527756D01*
X60506036Y-135668579D01*
X59905852Y-136069608D01*
X59675737Y-136414000D01*
X58942263Y-136414000D01*
X58712148Y-136069608D01*
X58111964Y-135668579D01*
X57404000Y-135527756D01*
X56696036Y-135668579D01*
X56095852Y-136069608D01*
X55694823Y-136669792D01*
X55626000Y-137015788D01*
X55557177Y-136669792D01*
X55156148Y-136069608D01*
X54555964Y-135668579D01*
X53848000Y-135527756D01*
X53140036Y-135668579D01*
X52539852Y-136069608D01*
X52309737Y-136414000D01*
X51576263Y-136414000D01*
X51346148Y-136069608D01*
X50745964Y-135668579D01*
X50038000Y-135527756D01*
X49644284Y-135606071D01*
X47642214Y-133604000D01*
X49981634Y-133604000D01*
X50099621Y-134197159D01*
X50435618Y-134700016D01*
X50938475Y-135036013D01*
X51531634Y-135154000D01*
X51592366Y-135154000D01*
X52185525Y-135036013D01*
X52486655Y-134834805D01*
X63596881Y-134834805D01*
X63681983Y-135082846D01*
X64292064Y-135192239D01*
X64842017Y-135082846D01*
X64927119Y-134834805D01*
X64685276Y-134592961D01*
X66775732Y-134592961D01*
X67011208Y-135162857D01*
X67446849Y-135599260D01*
X68016333Y-135835730D01*
X68632961Y-135836268D01*
X69202857Y-135600792D01*
X69639260Y-135165151D01*
X69875730Y-134595667D01*
X69875867Y-134438604D01*
X86096356Y-134438604D01*
X86193368Y-134926316D01*
X86458937Y-135081180D01*
X87254117Y-134286000D01*
X89021883Y-134286000D01*
X89817063Y-135081180D01*
X90082632Y-134926316D01*
X90179644Y-134133396D01*
X90082632Y-133645684D01*
X89817063Y-133490820D01*
X89021883Y-134286000D01*
X87254117Y-134286000D01*
X86458937Y-133490820D01*
X86193368Y-133645684D01*
X86096356Y-134438604D01*
X69875867Y-134438604D01*
X69876268Y-133979039D01*
X69640792Y-133409143D01*
X69205151Y-132972740D01*
X68635667Y-132736270D01*
X68019039Y-132735732D01*
X67449143Y-132971208D01*
X67012740Y-133406849D01*
X66776270Y-133976333D01*
X66775732Y-134592961D01*
X64685276Y-134592961D01*
X64262000Y-134169685D01*
X63596881Y-134834805D01*
X52486655Y-134834805D01*
X52688382Y-134700016D01*
X53024379Y-134197159D01*
X53136385Y-133634064D01*
X62673761Y-133634064D01*
X62783154Y-134184017D01*
X63031195Y-134269119D01*
X63696315Y-133604000D01*
X64827685Y-133604000D01*
X65492805Y-134269119D01*
X65740846Y-134184017D01*
X65850239Y-133573936D01*
X65740846Y-133023983D01*
X65492805Y-132938881D01*
X64827685Y-133604000D01*
X63696315Y-133604000D01*
X63031195Y-132938881D01*
X62783154Y-133023983D01*
X62673761Y-133634064D01*
X53136385Y-133634064D01*
X53142366Y-133604000D01*
X53024379Y-133010841D01*
X52688382Y-132507984D01*
X52486656Y-132373195D01*
X63596881Y-132373195D01*
X64262000Y-133038315D01*
X64693377Y-132606937D01*
X87342820Y-132606937D01*
X88138000Y-133402117D01*
X88933180Y-132606937D01*
X88778316Y-132341368D01*
X87985396Y-132244356D01*
X87497684Y-132341368D01*
X87342820Y-132606937D01*
X64693377Y-132606937D01*
X64927119Y-132373195D01*
X64842017Y-132125154D01*
X64231936Y-132015761D01*
X63681983Y-132125154D01*
X63596881Y-132373195D01*
X52486656Y-132373195D01*
X52185525Y-132171987D01*
X51592366Y-132054000D01*
X51531634Y-132054000D01*
X50938475Y-132171987D01*
X50435618Y-132507984D01*
X50099621Y-133010841D01*
X49981634Y-133604000D01*
X47642214Y-133604000D01*
X46173107Y-132134893D01*
X46160967Y-132126781D01*
X46152510Y-132114879D01*
X45999191Y-132018686D01*
X45848684Y-131918120D01*
X45834362Y-131915271D01*
X45821995Y-131907512D01*
X45643526Y-131877312D01*
X45466000Y-131842000D01*
X45451681Y-131844848D01*
X45437284Y-131842412D01*
X45260837Y-131882809D01*
X45184160Y-131898061D01*
X45184304Y-131733431D01*
X44918443Y-131089999D01*
X44426590Y-130597287D01*
X43783624Y-130330304D01*
X43097919Y-130329705D01*
X42109107Y-129340893D01*
X41784684Y-129124120D01*
X41402000Y-129048000D01*
X39682797Y-129048000D01*
X39786013Y-128893525D01*
X39904000Y-128300366D01*
X39904000Y-128239634D01*
X39786013Y-127646475D01*
X39450016Y-127143618D01*
X38947159Y-126807621D01*
X38354000Y-126689634D01*
X37760841Y-126807621D01*
X37257984Y-127143618D01*
X36921987Y-127646475D01*
X36804000Y-128239634D01*
X36804000Y-128300366D01*
X36921987Y-128893525D01*
X37025203Y-129048000D01*
X35618797Y-129048000D01*
X35722013Y-128893525D01*
X35840000Y-128300366D01*
X35840000Y-128239634D01*
X35722013Y-127646475D01*
X35386016Y-127143618D01*
X34883159Y-126807621D01*
X34290000Y-126689634D01*
X33696841Y-126807621D01*
X33193984Y-127143618D01*
X32857987Y-127646475D01*
X32750000Y-128189361D01*
X32750000Y-123444000D01*
X32673880Y-123061317D01*
X32457107Y-122736893D01*
X32457104Y-122736891D01*
X30190380Y-120470166D01*
X30190390Y-120458411D01*
X29848569Y-119631142D01*
X29216187Y-118997655D01*
X28389516Y-118654392D01*
X27494411Y-118653610D01*
X26667142Y-118995431D01*
X26033655Y-119627813D01*
X25690392Y-120454484D01*
X25689610Y-121349589D01*
X26031431Y-122176858D01*
X26663813Y-122810345D01*
X27490484Y-123153608D01*
X28385589Y-123154390D01*
X29212858Y-122812569D01*
X29458821Y-122567035D01*
X30750000Y-123858213D01*
X30750000Y-128778000D01*
X30826120Y-129160684D01*
X31042893Y-129485107D01*
X32312893Y-130755107D01*
X32637317Y-130971880D01*
X33020000Y-131048000D01*
X40987786Y-131048000D01*
X41684292Y-131744506D01*
X41683705Y-132416081D01*
X40733786Y-133366000D01*
X40106693Y-133366000D01*
X40106693Y-132616000D01*
X40054396Y-132338067D01*
X39890138Y-132082802D01*
X39639508Y-131911554D01*
X39342000Y-131851307D01*
X35842000Y-131851307D01*
X35564067Y-131903604D01*
X35308802Y-132067862D01*
X35137554Y-132318492D01*
X35077307Y-132616000D01*
X35077307Y-136116000D01*
X35129604Y-136393933D01*
X35230871Y-136551307D01*
X33952292Y-136551307D01*
X34046446Y-136413508D01*
X34106693Y-136116000D01*
X34106693Y-132616000D01*
X34054396Y-132338067D01*
X33890138Y-132082802D01*
X33639508Y-131911554D01*
X33342000Y-131851307D01*
X30491521Y-131851307D01*
X28940000Y-130299786D01*
X28940000Y-128248693D01*
X29440000Y-128248693D01*
X29717933Y-128196396D01*
X29973198Y-128032138D01*
X30144446Y-127781508D01*
X30204693Y-127484000D01*
X30204693Y-124484000D01*
X30152396Y-124206067D01*
X29988138Y-123950802D01*
X29737508Y-123779554D01*
X29440000Y-123719307D01*
X26440000Y-123719307D01*
X26162067Y-123771604D01*
X25906802Y-123935862D01*
X25735554Y-124186492D01*
X25675307Y-124484000D01*
X25675307Y-127484000D01*
X25727604Y-127761933D01*
X25891862Y-128017198D01*
X26142492Y-128188446D01*
X26440000Y-128248693D01*
X26940000Y-128248693D01*
X26940000Y-130714000D01*
X27016120Y-131096684D01*
X27232893Y-131421107D01*
X29077307Y-133265521D01*
X29077307Y-136116000D01*
X29129604Y-136393933D01*
X29293862Y-136649198D01*
X29544492Y-136820446D01*
X29842000Y-136880693D01*
X30592000Y-136880693D01*
X30592000Y-141128000D01*
X30668120Y-141510684D01*
X30884893Y-141835107D01*
X31996891Y-142947104D01*
X31996893Y-142947107D01*
X32321317Y-143163880D01*
X32704000Y-143240000D01*
X34200809Y-143240000D01*
X33814579Y-143818036D01*
X33673756Y-144526000D01*
X33814579Y-145233964D01*
X34215608Y-145834148D01*
X34815792Y-146235177D01*
X35523756Y-146376000D01*
X35596244Y-146376000D01*
X36304208Y-146235177D01*
X36904392Y-145834148D01*
X37305421Y-145233964D01*
X37446244Y-144526000D01*
X37305421Y-143818036D01*
X36919191Y-143240000D01*
X38955786Y-143240000D01*
X40910000Y-145194213D01*
X40910000Y-148590000D01*
X40986120Y-148972683D01*
X41072527Y-149102000D01*
X37344401Y-149102000D01*
X37446244Y-148590000D01*
X37305421Y-147882036D01*
X36904392Y-147281852D01*
X36304208Y-146880823D01*
X35596244Y-146740000D01*
X35523756Y-146740000D01*
X34815792Y-146880823D01*
X34215608Y-147281852D01*
X33814579Y-147882036D01*
X33673756Y-148590000D01*
X33748297Y-148964743D01*
X25650000Y-140866446D01*
X25650000Y-115253589D01*
X25689610Y-115253589D01*
X26031431Y-116080858D01*
X26663813Y-116714345D01*
X27490484Y-117057608D01*
X28385589Y-117058390D01*
X29212858Y-116716569D01*
X29846345Y-116084187D01*
X29932392Y-115876961D01*
X32739732Y-115876961D01*
X32975208Y-116446857D01*
X33290000Y-116762200D01*
X33290000Y-118364000D01*
X33366120Y-118746684D01*
X33582893Y-119071107D01*
X40360118Y-125848332D01*
X40359732Y-126290961D01*
X40595208Y-126860857D01*
X41030849Y-127297260D01*
X41600333Y-127533730D01*
X42216961Y-127534268D01*
X42786857Y-127298792D01*
X43223260Y-126863151D01*
X43459730Y-126293667D01*
X43459732Y-126290961D01*
X45359732Y-126290961D01*
X45595208Y-126860857D01*
X46030849Y-127297260D01*
X46600333Y-127533730D01*
X47216961Y-127534268D01*
X47786857Y-127298792D01*
X48223260Y-126863151D01*
X48459730Y-126293667D01*
X48460268Y-125677039D01*
X48224792Y-125107143D01*
X47789151Y-124670740D01*
X47219667Y-124434270D01*
X46603039Y-124433732D01*
X46033143Y-124669208D01*
X45596740Y-125104849D01*
X45360270Y-125674333D01*
X45359732Y-126290961D01*
X43459732Y-126290961D01*
X43460268Y-125677039D01*
X43224792Y-125107143D01*
X42789151Y-124670740D01*
X42219667Y-124434270D01*
X41774095Y-124433881D01*
X35290000Y-117949786D01*
X35290000Y-116800805D01*
X37688881Y-116800805D01*
X37773983Y-117048846D01*
X38384064Y-117158239D01*
X38934017Y-117048846D01*
X39019119Y-116800805D01*
X38834379Y-116616064D01*
X41083761Y-116616064D01*
X41193154Y-117166017D01*
X41441195Y-117251119D01*
X42106315Y-116586000D01*
X41441195Y-115920881D01*
X41193154Y-116005983D01*
X41083761Y-116616064D01*
X38834379Y-116616064D01*
X38354000Y-116135685D01*
X37688881Y-116800805D01*
X35290000Y-116800805D01*
X35290000Y-116761864D01*
X35603260Y-116449151D01*
X35839730Y-115879667D01*
X35839973Y-115600064D01*
X36765761Y-115600064D01*
X36875154Y-116150017D01*
X37123195Y-116235119D01*
X37788315Y-115570000D01*
X38919685Y-115570000D01*
X39584805Y-116235119D01*
X39832846Y-116150017D01*
X39942239Y-115539936D01*
X39832846Y-114989983D01*
X39584805Y-114904881D01*
X38919685Y-115570000D01*
X37788315Y-115570000D01*
X37123195Y-114904881D01*
X36875154Y-114989983D01*
X36765761Y-115600064D01*
X35839973Y-115600064D01*
X35840268Y-115263039D01*
X35604792Y-114693143D01*
X35251463Y-114339195D01*
X37688881Y-114339195D01*
X38354000Y-115004315D01*
X39019119Y-114339195D01*
X38934017Y-114091154D01*
X38323936Y-113981761D01*
X37773983Y-114091154D01*
X37688881Y-114339195D01*
X35251463Y-114339195D01*
X35169151Y-114256740D01*
X34599667Y-114020270D01*
X33983039Y-114019732D01*
X33413143Y-114255208D01*
X32976740Y-114690849D01*
X32740270Y-115260333D01*
X32739732Y-115876961D01*
X29932392Y-115876961D01*
X30189608Y-115257516D01*
X30190390Y-114362411D01*
X29848569Y-113535142D01*
X29216187Y-112901655D01*
X28389516Y-112558392D01*
X27494411Y-112557610D01*
X26667142Y-112899431D01*
X26033655Y-113531813D01*
X25690392Y-114358484D01*
X25689610Y-115253589D01*
X25650000Y-115253589D01*
X25650000Y-108228000D01*
X25675307Y-108228000D01*
X25675307Y-111228000D01*
X25727604Y-111505933D01*
X25891862Y-111761198D01*
X26142492Y-111932446D01*
X26440000Y-111992693D01*
X29440000Y-111992693D01*
X29717933Y-111940396D01*
X29973198Y-111776138D01*
X30144446Y-111525508D01*
X30204693Y-111228000D01*
X30204693Y-108228000D01*
X30152396Y-107950067D01*
X29988138Y-107694802D01*
X29737508Y-107523554D01*
X29440000Y-107463307D01*
X26440000Y-107463307D01*
X26162067Y-107515604D01*
X25906802Y-107679862D01*
X25735554Y-107930492D01*
X25675307Y-108228000D01*
X25650000Y-108228000D01*
X25650000Y-99170968D01*
X25708893Y-99259107D01*
X26724893Y-100275107D01*
X26796776Y-100323137D01*
X26541655Y-100577813D01*
X26198392Y-101404484D01*
X26197610Y-102299589D01*
X26539431Y-103126858D01*
X27171813Y-103760345D01*
X27998484Y-104103608D01*
X28893589Y-104104390D01*
X29720858Y-103762569D01*
X30354345Y-103130187D01*
X30648813Y-102421027D01*
X33544000Y-105316214D01*
X33544000Y-110822136D01*
X33230740Y-111134849D01*
X32994270Y-111704333D01*
X32993732Y-112320961D01*
X33229208Y-112890857D01*
X33664849Y-113327260D01*
X34234333Y-113563730D01*
X34850961Y-113564268D01*
X35420857Y-113328792D01*
X35857260Y-112893151D01*
X36093730Y-112323667D01*
X36094268Y-111707039D01*
X35858792Y-111137143D01*
X35544000Y-110821800D01*
X35544000Y-104902000D01*
X35467880Y-104519317D01*
X35251107Y-104194893D01*
X31370214Y-100314000D01*
X33363539Y-100314000D01*
X33447984Y-100440382D01*
X33950841Y-100776379D01*
X34544000Y-100894366D01*
X35137159Y-100776379D01*
X35640016Y-100440382D01*
X35976013Y-99937525D01*
X36094000Y-99344366D01*
X36094000Y-99283634D01*
X35976013Y-98690475D01*
X35640016Y-98187618D01*
X35504210Y-98096876D01*
X35852148Y-97864392D01*
X36012377Y-97624591D01*
X37354000Y-98966214D01*
X37354000Y-101932136D01*
X37040740Y-102244849D01*
X36804270Y-102814333D01*
X36803732Y-103430961D01*
X37039208Y-104000857D01*
X37474849Y-104437260D01*
X38044333Y-104673730D01*
X38660961Y-104674268D01*
X39230857Y-104438792D01*
X39667260Y-104003151D01*
X39903730Y-103433667D01*
X39904268Y-102817039D01*
X39668792Y-102247143D01*
X39354000Y-101931800D01*
X39354000Y-100890961D01*
X40105732Y-100890961D01*
X40341208Y-101460857D01*
X40776849Y-101897260D01*
X41346333Y-102133730D01*
X41962961Y-102134268D01*
X42532857Y-101898792D01*
X42969260Y-101463151D01*
X43205730Y-100893667D01*
X43206268Y-100277039D01*
X42970792Y-99707143D01*
X42535151Y-99270740D01*
X41965667Y-99034270D01*
X41349039Y-99033732D01*
X40779143Y-99269208D01*
X40342740Y-99704849D01*
X40106270Y-100274333D01*
X40105732Y-100890961D01*
X39354000Y-100890961D01*
X39354000Y-98552000D01*
X39335676Y-98459880D01*
X39277880Y-98169316D01*
X39061107Y-97844893D01*
X37228214Y-96012000D01*
X40075634Y-96012000D01*
X40193621Y-96605159D01*
X40529618Y-97108016D01*
X41032475Y-97444013D01*
X41625634Y-97562000D01*
X41686366Y-97562000D01*
X42279525Y-97444013D01*
X42782382Y-97108016D01*
X43118379Y-96605159D01*
X43236366Y-96012000D01*
X43118379Y-95418841D01*
X42782382Y-94915984D01*
X42279525Y-94579987D01*
X41686366Y-94462000D01*
X41625634Y-94462000D01*
X41032475Y-94579987D01*
X40529618Y-94915984D01*
X40193621Y-95418841D01*
X40075634Y-96012000D01*
X37228214Y-96012000D01*
X37029107Y-95812893D01*
X36704684Y-95596120D01*
X36322000Y-95520000D01*
X36082263Y-95520000D01*
X35852148Y-95175608D01*
X35251964Y-94774579D01*
X34544000Y-94633756D01*
X33836036Y-94774579D01*
X33512000Y-94991092D01*
X33512000Y-91854214D01*
X34601521Y-90764693D01*
X35644000Y-90764693D01*
X35921933Y-90712396D01*
X36177198Y-90548138D01*
X36282765Y-90393634D01*
X36804000Y-90393634D01*
X36804000Y-90454366D01*
X36921987Y-91047525D01*
X37257984Y-91550382D01*
X37760841Y-91886379D01*
X38354000Y-92004366D01*
X38947159Y-91886379D01*
X39450016Y-91550382D01*
X39786013Y-91047525D01*
X39904000Y-90454366D01*
X39904000Y-90393634D01*
X39792284Y-89832000D01*
X40299307Y-89832000D01*
X40299307Y-92032000D01*
X40351604Y-92309933D01*
X40515862Y-92565198D01*
X40766492Y-92736446D01*
X41064000Y-92796693D01*
X43264000Y-92796693D01*
X43541933Y-92744396D01*
X43797198Y-92580138D01*
X43968446Y-92329508D01*
X44028693Y-92032000D01*
X44028693Y-90932000D01*
X47897756Y-90932000D01*
X48038579Y-91639964D01*
X48439608Y-92240148D01*
X49039792Y-92641177D01*
X49747756Y-92782000D01*
X49820244Y-92782000D01*
X50528208Y-92641177D01*
X51128392Y-92240148D01*
X51529421Y-91639964D01*
X51670244Y-90932000D01*
X51529421Y-90224036D01*
X51128392Y-89623852D01*
X50528208Y-89222823D01*
X49820244Y-89082000D01*
X49747756Y-89082000D01*
X49039792Y-89222823D01*
X48439608Y-89623852D01*
X48038579Y-90224036D01*
X47897756Y-90932000D01*
X44028693Y-90932000D01*
X44028693Y-89832000D01*
X43976396Y-89554067D01*
X43812138Y-89298802D01*
X43561508Y-89127554D01*
X43264000Y-89067307D01*
X41064000Y-89067307D01*
X40786067Y-89119604D01*
X40530802Y-89283862D01*
X40359554Y-89534492D01*
X40299307Y-89832000D01*
X39792284Y-89832000D01*
X39786013Y-89800475D01*
X39450016Y-89297618D01*
X38947159Y-88961621D01*
X38354000Y-88843634D01*
X37760841Y-88961621D01*
X37257984Y-89297618D01*
X36921987Y-89800475D01*
X36804000Y-90393634D01*
X36282765Y-90393634D01*
X36348446Y-90297508D01*
X36408693Y-90000000D01*
X36408693Y-87800000D01*
X36386671Y-87682961D01*
X38327732Y-87682961D01*
X38563208Y-88252857D01*
X38998849Y-88689260D01*
X39568333Y-88925730D01*
X40184961Y-88926268D01*
X40754857Y-88690792D01*
X41191260Y-88255151D01*
X41427730Y-87685667D01*
X41428268Y-87069039D01*
X41192792Y-86499143D01*
X40757151Y-86062740D01*
X40187667Y-85826270D01*
X39571039Y-85825732D01*
X39001143Y-86061208D01*
X38564740Y-86496849D01*
X38328270Y-87066333D01*
X38327732Y-87682961D01*
X36386671Y-87682961D01*
X36356396Y-87522067D01*
X36192138Y-87266802D01*
X35941508Y-87095554D01*
X35644000Y-87035307D01*
X34093521Y-87035307D01*
X30341640Y-83283426D01*
X30696608Y-83520608D01*
X31940329Y-83768000D01*
X32067671Y-83768000D01*
X33311392Y-83520608D01*
X34365768Y-82816097D01*
X35070279Y-81761721D01*
X35317671Y-80518000D01*
X35070279Y-79274279D01*
X34365768Y-78219903D01*
X33311392Y-77515392D01*
X32067671Y-77268000D01*
X31940329Y-77268000D01*
X30696608Y-77515392D01*
X29642232Y-78219903D01*
X28937721Y-79274279D01*
X28690329Y-80518000D01*
X28937721Y-81761721D01*
X29174903Y-82116689D01*
X28358444Y-81300230D01*
X28206559Y-80932640D01*
X27792292Y-80517649D01*
X28205064Y-80105598D01*
X28435737Y-79550075D01*
X28436262Y-78948564D01*
X28206559Y-78392640D01*
X27781598Y-77966936D01*
X27226075Y-77736263D01*
X26624564Y-77735738D01*
X26384000Y-77835137D01*
X26384000Y-77429022D01*
X26231759Y-76663655D01*
X25798214Y-76014808D01*
X25650000Y-75915775D01*
X25650000Y-72201883D01*
X32315637Y-72201883D01*
X32634669Y-72974000D01*
X33224893Y-73565255D01*
X33996452Y-73885634D01*
X34831883Y-73886363D01*
X35604000Y-73567331D01*
X36195255Y-72977107D01*
X36515634Y-72205548D01*
X36516363Y-71370117D01*
X36197331Y-70598000D01*
X35607107Y-70006745D01*
X34835548Y-69686366D01*
X34000117Y-69685637D01*
X33228000Y-70004669D01*
X32636745Y-70594893D01*
X32316366Y-71366452D01*
X32315637Y-72201883D01*
X25650000Y-72201883D01*
X25650000Y-62230000D01*
X25630304Y-62132736D01*
X25574318Y-62050798D01*
X25490864Y-61997097D01*
X25400000Y-61980000D01*
X24987554Y-61980000D01*
X26765671Y-60201883D01*
X32315637Y-60201883D01*
X32634669Y-60974000D01*
X33224893Y-61565255D01*
X33996452Y-61885634D01*
X34831883Y-61886363D01*
X35604000Y-61567331D01*
X36195255Y-60977107D01*
X36515634Y-60205548D01*
X36516363Y-59370117D01*
X36197331Y-58598000D01*
X35607107Y-58006745D01*
X34835548Y-57686366D01*
X34000117Y-57685637D01*
X33228000Y-58004669D01*
X32636745Y-58594893D01*
X32316366Y-59366452D01*
X32315637Y-60201883D01*
X26765671Y-60201883D01*
X29067234Y-57900320D01*
X29252946Y-57900482D01*
X30275818Y-57477840D01*
X31059090Y-56695934D01*
X31483516Y-55673802D01*
X31483682Y-55483872D01*
X34326554Y-52641000D01*
X77044784Y-52641000D01*
X77007793Y-52696361D01*
M02*
