G04 #@! TF.FileFunction,Copper,L1,Top,Signal*
%FSLAX46Y46*%
G04 Gerber Fmt 4.6, Leading zero omitted, Abs format (unit mm)*
G04 Created by KiCad (PCBNEW 4.0.7) date 05/25/18 19:59:14*
%MOMM*%
%LPD*%
G01*
G04 APERTURE LIST*
%ADD10C,0.100000*%
%ADD11R,1.700000X1.700000*%
%ADD12O,1.700000X1.700000*%
%ADD13O,2.500000X3.500000*%
%ADD14C,1.524000*%
%ADD15O,5.000000X5.000000*%
%ADD16R,1.800000X1.800000*%
%ADD17C,1.800000*%
%ADD18C,1.600000*%
%ADD19O,1.600000X1.600000*%
%ADD20C,2.500000*%
%ADD21R,3.500000X3.500000*%
%ADD22C,2.000000*%
%ADD23R,1.600000X1.600000*%
%ADD24C,4.064000*%
%ADD25R,3.000000X3.000000*%
%ADD26C,3.000000*%
%ADD27R,2.200000X2.200000*%
%ADD28O,2.200000X2.200000*%
%ADD29O,1.800000X1.800000*%
%ADD30C,1.520000*%
%ADD31C,2.700000*%
%ADD32C,0.600000*%
%ADD33C,0.500000*%
%ADD34C,1.000000*%
%ADD35C,0.350000*%
G04 APERTURE END LIST*
D10*
D11*
X78486000Y-55880000D03*
D12*
X78486000Y-53340000D03*
X81026000Y-55880000D03*
X81026000Y-53340000D03*
X83566000Y-55880000D03*
X83566000Y-53340000D03*
D13*
X24384000Y-83058000D03*
D14*
X26924000Y-79248000D03*
X26924000Y-81788000D03*
D13*
X24384000Y-77978000D03*
D15*
X32004000Y-80518000D03*
D16*
X91694000Y-67056000D03*
D17*
X91694000Y-64516000D03*
D18*
X53086000Y-120142000D03*
X53086000Y-125142000D03*
X64262000Y-133604000D03*
D19*
X51562000Y-133604000D03*
D20*
X88138000Y-134286000D03*
X88138000Y-139286000D03*
X88138000Y-129286000D03*
D21*
X37592000Y-134366000D03*
X31592000Y-134366000D03*
X34592000Y-139066000D03*
D22*
X43434000Y-138176000D03*
X43434000Y-132080000D03*
D18*
X83566000Y-95758000D03*
D19*
X83566000Y-108458000D03*
D18*
X78486000Y-129794000D03*
D19*
X78486000Y-142494000D03*
D18*
X79248000Y-107188000D03*
D19*
X79248000Y-94488000D03*
D18*
X79248000Y-78232000D03*
D19*
X79248000Y-90932000D03*
D18*
X75184000Y-86106000D03*
D19*
X75184000Y-73406000D03*
D18*
X38354000Y-103124000D03*
D19*
X38354000Y-90424000D03*
D20*
X87630000Y-116760000D03*
X87630000Y-121760000D03*
X87630000Y-111760000D03*
X87884000Y-98218000D03*
X87884000Y-103218000D03*
X87884000Y-93218000D03*
X88138000Y-78914000D03*
X88138000Y-83914000D03*
X88138000Y-73914000D03*
D23*
X59182000Y-100584000D03*
D19*
X66802000Y-92964000D03*
X61722000Y-100584000D03*
X64262000Y-92964000D03*
X64262000Y-100584000D03*
X61722000Y-92964000D03*
X66802000Y-100584000D03*
X59182000Y-92964000D03*
D23*
X63500000Y-78994000D03*
D19*
X71120000Y-71374000D03*
X66040000Y-78994000D03*
X68580000Y-71374000D03*
X68580000Y-78994000D03*
X66040000Y-71374000D03*
X71120000Y-78994000D03*
X63500000Y-71374000D03*
D24*
X27432000Y-147828000D03*
X27432000Y-55372000D03*
X90932000Y-147828000D03*
X90932000Y-55372000D03*
D25*
X27940000Y-109728000D03*
D26*
X27940000Y-114808000D03*
D22*
X76962000Y-111760000D03*
X76962000Y-117856000D03*
X76962000Y-123698000D03*
D18*
X54356000Y-96012000D03*
D19*
X41656000Y-96012000D03*
D18*
X51562000Y-129540000D03*
D19*
X64262000Y-129540000D03*
D18*
X38354000Y-115570000D03*
D19*
X38354000Y-128270000D03*
D18*
X41656000Y-100584000D03*
D19*
X54356000Y-100584000D03*
D25*
X27940000Y-125984000D03*
D26*
X27940000Y-120904000D03*
D23*
X52070000Y-116840000D03*
D19*
X67310000Y-109220000D03*
X54610000Y-116840000D03*
X64770000Y-109220000D03*
X57150000Y-116840000D03*
X62230000Y-109220000D03*
X59690000Y-116840000D03*
X59690000Y-109220000D03*
X62230000Y-116840000D03*
X57150000Y-109220000D03*
X64770000Y-116840000D03*
X54610000Y-109220000D03*
X67310000Y-116840000D03*
X52070000Y-109220000D03*
D18*
X34544000Y-112014000D03*
D19*
X34544000Y-99314000D03*
D25*
X28448000Y-91694000D03*
D26*
X28448000Y-96774000D03*
X28448000Y-101854000D03*
D18*
X73406000Y-93218000D03*
X73406000Y-98218000D03*
X66040000Y-105156000D03*
X61040000Y-105156000D03*
X69596000Y-105410000D03*
X74596000Y-105410000D03*
X60452000Y-68072000D03*
X60452000Y-63072000D03*
X78740000Y-74422000D03*
X83740000Y-74422000D03*
X48260000Y-82042000D03*
X53260000Y-82042000D03*
X68326000Y-129286000D03*
X68326000Y-134286000D03*
X41910000Y-125984000D03*
X46910000Y-125984000D03*
X34290000Y-115570000D03*
D19*
X34290000Y-128270000D03*
D18*
X71120000Y-114554000D03*
X71120000Y-109554000D03*
X84074000Y-113538000D03*
D19*
X84074000Y-126238000D03*
D18*
X58928000Y-89154000D03*
X58928000Y-84154000D03*
X83312000Y-93218000D03*
D19*
X83312000Y-80518000D03*
D18*
X58420000Y-124968000D03*
X58420000Y-119968000D03*
X42672000Y-116586000D03*
D19*
X42672000Y-103886000D03*
D18*
X46736000Y-116586000D03*
D19*
X46736000Y-103886000D03*
D27*
X75692000Y-88900000D03*
D28*
X68072000Y-88900000D03*
D27*
X50292000Y-104394000D03*
D28*
X57912000Y-104394000D03*
D27*
X70866000Y-120650000D03*
D28*
X63246000Y-120650000D03*
D27*
X70612000Y-124714000D03*
D28*
X62992000Y-124714000D03*
D27*
X50038000Y-147574000D03*
D28*
X50038000Y-137414000D03*
D27*
X53848000Y-147574000D03*
D28*
X53848000Y-137414000D03*
D27*
X45720000Y-144526000D03*
D28*
X35560000Y-144526000D03*
D27*
X45720000Y-148590000D03*
D28*
X35560000Y-148590000D03*
D27*
X57404000Y-147574000D03*
D28*
X57404000Y-137414000D03*
D27*
X61214000Y-147574000D03*
D28*
X61214000Y-137414000D03*
D18*
X74168000Y-142494000D03*
D19*
X74168000Y-129794000D03*
D18*
X83058000Y-129794000D03*
D19*
X83058000Y-142494000D03*
D16*
X72136000Y-147574000D03*
D29*
X69596000Y-147574000D03*
X67056000Y-147574000D03*
D18*
X48260000Y-76454000D03*
X53260000Y-76454000D03*
D11*
X56642000Y-79756000D03*
D12*
X56642000Y-77216000D03*
X56642000Y-74676000D03*
D18*
X66548000Y-84074000D03*
X71548000Y-84074000D03*
D11*
X63246000Y-83820000D03*
D12*
X63246000Y-86360000D03*
X63246000Y-88900000D03*
D27*
X34544000Y-88900000D03*
D28*
X34544000Y-96520000D03*
D27*
X42164000Y-90932000D03*
D28*
X49784000Y-90932000D03*
D30*
X39116000Y-64516000D03*
X39116000Y-67056000D03*
X37116000Y-67056000D03*
X37116000Y-64516000D03*
D31*
X34416000Y-59786000D03*
X34416000Y-71786000D03*
D22*
X61214000Y-57912000D03*
X66294000Y-57912000D03*
X71120000Y-57912000D03*
D18*
X43942000Y-71374000D03*
D19*
X43942000Y-84074000D03*
D18*
X51816000Y-59182000D03*
D19*
X51816000Y-71882000D03*
D18*
X56134000Y-58928000D03*
D19*
X56134000Y-71628000D03*
D18*
X39878000Y-87376000D03*
D19*
X52578000Y-87376000D03*
D27*
X43942000Y-58674000D03*
D28*
X43942000Y-68834000D03*
D27*
X48006000Y-71628000D03*
D28*
X48006000Y-61468000D03*
D23*
X75946000Y-69088000D03*
D19*
X83566000Y-61468000D03*
X78486000Y-69088000D03*
X81026000Y-61468000D03*
X81026000Y-69088000D03*
X78486000Y-61468000D03*
X83566000Y-69088000D03*
X75946000Y-61468000D03*
D23*
X67564000Y-141986000D03*
D18*
X67564000Y-139486000D03*
D23*
X78740000Y-147320000D03*
D18*
X81240000Y-147320000D03*
D23*
X68834000Y-66802000D03*
D18*
X68834000Y-64302000D03*
D32*
X69088000Y-128016000D03*
X55880000Y-110744000D03*
X59944000Y-122936000D03*
X71374000Y-101092000D03*
X49530000Y-119888000D03*
X58928000Y-112014000D03*
X51054000Y-111760000D03*
X56896000Y-113538000D03*
X65024000Y-113030000D03*
X69342000Y-117348000D03*
X56896000Y-107188000D03*
X64008000Y-62738000D03*
X75184000Y-83058000D03*
X54356000Y-93218000D03*
D33*
X26924000Y-79248000D02*
X26924000Y-78740000D01*
X26924000Y-78740000D02*
X28448000Y-77216000D01*
X26924000Y-78994000D02*
X28702000Y-78486000D01*
X26924000Y-79248000D02*
X26924000Y-78994000D01*
X26924000Y-79248000D02*
X26924000Y-78486000D01*
X68834000Y-64302000D02*
X70398000Y-65318000D01*
X81534000Y-67056000D02*
X83566000Y-69088000D01*
X72136000Y-67056000D02*
X81534000Y-67056000D01*
X70398000Y-65318000D02*
X72136000Y-67056000D01*
X83566000Y-69088000D02*
X84328000Y-69088000D01*
X84328000Y-69088000D02*
X87122000Y-66294000D01*
X87122000Y-57658000D02*
X83566000Y-53340000D01*
X87122000Y-66294000D02*
X87122000Y-57658000D01*
X73406000Y-101092000D02*
X73406000Y-98218000D01*
X61468000Y-102870000D02*
X71628000Y-102870000D01*
X71628000Y-102870000D02*
X73406000Y-101092000D01*
X59182000Y-100584000D02*
X61468000Y-102870000D01*
X57150000Y-109220000D02*
X57404000Y-109220000D01*
X57404000Y-109220000D02*
X59182000Y-106680000D01*
X59182000Y-106680000D02*
X69008000Y-106680000D01*
X69008000Y-106680000D02*
X71120000Y-109554000D01*
X59182000Y-100584000D02*
X59182000Y-98552000D01*
X59182000Y-98552000D02*
X61722000Y-96012000D01*
X61722000Y-96012000D02*
X61722000Y-92964000D01*
D34*
X63500000Y-78994000D02*
X63246000Y-78994000D01*
D33*
X46736000Y-116586000D02*
X42672000Y-116586000D01*
X57658000Y-116332000D02*
X57150000Y-116840000D01*
X66040000Y-105156000D02*
X66294000Y-105156000D01*
X38608000Y-115570000D02*
X38608000Y-115824000D01*
X38100000Y-116078000D02*
X38608000Y-115570000D01*
X38608000Y-115570000D02*
X38862000Y-115570000D01*
X66802000Y-92964000D02*
X73152000Y-92964000D01*
X73152000Y-92964000D02*
X73406000Y-93218000D01*
X64770000Y-118364000D02*
X64770000Y-116840000D01*
X65532000Y-119126000D02*
X64770000Y-118364000D01*
X65532000Y-124460000D02*
X65532000Y-119126000D01*
X69088000Y-128016000D02*
X65532000Y-124460000D01*
X64770000Y-116840000D02*
X64770000Y-117602000D01*
X75438000Y-71374000D02*
X75692000Y-71374000D01*
X75692000Y-71374000D02*
X78740000Y-74422000D01*
X71120000Y-71374000D02*
X75438000Y-71374000D01*
X78740000Y-73914000D02*
X78740000Y-74422000D01*
D34*
X71120000Y-71374000D02*
X71374000Y-71374000D01*
D33*
X79248000Y-107188000D02*
X79248000Y-101854000D01*
X79248000Y-101854000D02*
X87884000Y-93218000D01*
X79248000Y-107188000D02*
X79756000Y-107188000D01*
X87884000Y-93726000D02*
X87884000Y-93218000D01*
X59690000Y-116840000D02*
X59690000Y-118110000D01*
X66294000Y-128016000D02*
X68072000Y-129032000D01*
X61722000Y-128016000D02*
X66294000Y-128016000D01*
X60960000Y-126492000D02*
X61722000Y-128016000D01*
X60960000Y-118618000D02*
X60960000Y-126492000D01*
X59690000Y-118110000D02*
X60960000Y-118618000D01*
D35*
X59690000Y-114554000D02*
X59690000Y-116840000D01*
X55880000Y-110744000D02*
X59690000Y-114554000D01*
D33*
X64262000Y-129540000D02*
X61976000Y-129540000D01*
X60198000Y-123190000D02*
X59944000Y-122936000D01*
X60198000Y-127762000D02*
X60198000Y-123190000D01*
X61976000Y-129540000D02*
X60198000Y-127762000D01*
X62230000Y-116840000D02*
X62230000Y-119634000D01*
X62230000Y-119634000D02*
X63246000Y-120650000D01*
X35306000Y-113284000D02*
X34290000Y-113284000D01*
X34290000Y-113284000D02*
X33528000Y-114046000D01*
X37592000Y-112268000D02*
X37592000Y-112522000D01*
X36830000Y-113284000D02*
X35306000Y-113284000D01*
X35306000Y-113284000D02*
X34544000Y-113284000D01*
X37592000Y-112522000D02*
X36830000Y-113284000D01*
X34290000Y-113538000D02*
X33528000Y-113538000D01*
X34544000Y-113284000D02*
X34290000Y-113538000D01*
X32258000Y-114808000D02*
X27940000Y-114808000D01*
X33528000Y-113538000D02*
X32258000Y-114808000D01*
X41656000Y-96012000D02*
X41656000Y-96774000D01*
X41656000Y-96774000D02*
X40132000Y-98298000D01*
X38862000Y-112268000D02*
X37592000Y-112268000D01*
X40132000Y-110998000D02*
X38862000Y-112268000D01*
X40132000Y-98298000D02*
X40132000Y-110998000D01*
X41656000Y-96012000D02*
X40894000Y-96012000D01*
X66294000Y-98298000D02*
X68580000Y-98298000D01*
X66294000Y-98298000D02*
X64262000Y-100330000D01*
X68580000Y-98298000D02*
X71374000Y-101092000D01*
X64262000Y-100330000D02*
X64262000Y-100584000D01*
X38354000Y-128270000D02*
X38354000Y-123444000D01*
X40894000Y-120904000D02*
X40894000Y-115745846D01*
X38354000Y-123444000D02*
X40894000Y-120904000D01*
X49530000Y-119888000D02*
X49530000Y-114808000D01*
X54610000Y-112014000D02*
X54610000Y-109220000D01*
X53594000Y-114808000D02*
X54610000Y-112014000D01*
X42926000Y-114808000D02*
X49530000Y-114808000D01*
X49530000Y-114808000D02*
X53594000Y-114808000D01*
X40894000Y-115745846D02*
X42926000Y-114808000D01*
X38354000Y-128270000D02*
X38354000Y-128016000D01*
X54610000Y-109474000D02*
X54610000Y-109220000D01*
X28448000Y-91694000D02*
X28956000Y-91694000D01*
X39116000Y-113030000D02*
X38100000Y-114046000D01*
X35814000Y-114046000D02*
X34290000Y-115570000D01*
X38100000Y-114046000D02*
X35814000Y-114046000D01*
X42926000Y-111760000D02*
X42164000Y-111760000D01*
X40894000Y-113030000D02*
X39116000Y-113030000D01*
X42164000Y-111760000D02*
X40894000Y-113030000D01*
X84074000Y-113538000D02*
X83058000Y-113538000D01*
X70866000Y-111252000D02*
X59690000Y-111252000D01*
X74168000Y-114554000D02*
X70866000Y-111252000D01*
X82042000Y-114554000D02*
X74168000Y-114554000D01*
X83058000Y-113538000D02*
X82042000Y-114554000D01*
X59690000Y-111252000D02*
X59690000Y-109220000D01*
X58928000Y-112014000D02*
X59690000Y-111252000D01*
X42926000Y-111760000D02*
X51054000Y-111760000D01*
X39896585Y-114386732D02*
X39896585Y-119107415D01*
X35052000Y-127000000D02*
X34290000Y-128270000D01*
X35052000Y-123952000D02*
X35052000Y-127000000D01*
X39896585Y-119107415D02*
X35052000Y-123952000D01*
X39896585Y-114386732D02*
X42672000Y-113792000D01*
X42672000Y-113792000D02*
X52070000Y-113792000D01*
X34290000Y-128270000D02*
X34290000Y-127762000D01*
X52070000Y-113792000D02*
X52070000Y-109220000D01*
X88138000Y-139286000D02*
X87216000Y-139286000D01*
X87216000Y-139286000D02*
X85344000Y-137414000D01*
X84074000Y-126238000D02*
X84074000Y-127508000D01*
X84074000Y-127508000D02*
X85344000Y-128778000D01*
X85344000Y-128778000D02*
X85344000Y-137414000D01*
X51562000Y-129540000D02*
X51562000Y-133604000D01*
D35*
X51562000Y-129540000D02*
X53086000Y-129540000D01*
X56896000Y-113792000D02*
X56896000Y-113538000D01*
X55880000Y-114808000D02*
X56896000Y-113792000D01*
X55880000Y-126746000D02*
X55880000Y-114808000D01*
X53086000Y-129540000D02*
X55880000Y-126746000D01*
D33*
X67310000Y-109220000D02*
X67310000Y-108966000D01*
X67310000Y-108966000D02*
X66040000Y-107696000D01*
X63754000Y-107696000D02*
X62230000Y-109220000D01*
X66040000Y-107696000D02*
X63754000Y-107696000D01*
X62230000Y-109220000D02*
X61976000Y-109220000D01*
X63246000Y-88900000D02*
X59182000Y-88900000D01*
X59182000Y-88900000D02*
X58928000Y-89154000D01*
X58928000Y-89408000D02*
X58928000Y-89154000D01*
X88138000Y-73914000D02*
X88138000Y-74422000D01*
X88138000Y-74422000D02*
X83312000Y-85090000D01*
X83312000Y-85090000D02*
X83312000Y-93218000D01*
X87630000Y-73914000D02*
X88138000Y-73914000D01*
X87884000Y-73660000D02*
X88138000Y-73914000D01*
X88138000Y-73914000D02*
X87884000Y-73914000D01*
X68834000Y-113030000D02*
X65024000Y-113030000D01*
X69342000Y-113538000D02*
X68834000Y-113030000D01*
X69342000Y-113284000D02*
X69342000Y-113538000D01*
X69342000Y-117348000D02*
X69342000Y-113284000D01*
X46736000Y-103886000D02*
X46736000Y-105410000D01*
X48514000Y-107188000D02*
X56896000Y-107188000D01*
X46736000Y-105410000D02*
X48514000Y-107188000D01*
X61214000Y-147574000D02*
X59436000Y-145796000D01*
X54864000Y-145796000D02*
X53848000Y-146812000D01*
X59436000Y-145796000D02*
X54864000Y-145796000D01*
X53848000Y-146812000D02*
X53848000Y-147574000D01*
X74168000Y-129794000D02*
X71374000Y-127000000D01*
X71374000Y-127000000D02*
X69596000Y-127000000D01*
X69596000Y-127000000D02*
X67056000Y-124460000D01*
X67056000Y-124460000D02*
X67056000Y-117094000D01*
X67056000Y-117094000D02*
X67310000Y-116840000D01*
X83312000Y-80518000D02*
X82296000Y-80518000D01*
X69342000Y-72136000D02*
X68580000Y-71374000D01*
X69342000Y-72644000D02*
X69342000Y-72136000D01*
X73660000Y-76962000D02*
X69342000Y-72644000D01*
X73660000Y-79502000D02*
X73660000Y-76962000D01*
X75438000Y-81280000D02*
X73660000Y-79502000D01*
X81534000Y-81280000D02*
X75438000Y-81280000D01*
X82296000Y-80518000D02*
X81534000Y-81280000D01*
X68580000Y-71374000D02*
X66040000Y-71374000D01*
X66040000Y-71374000D02*
X66040000Y-71882000D01*
D34*
X66040000Y-71374000D02*
X66040000Y-71628000D01*
D33*
X63246000Y-83820000D02*
X66294000Y-83820000D01*
X66294000Y-83820000D02*
X66548000Y-84074000D01*
X63246000Y-86360000D02*
X63500000Y-86360000D01*
X63500000Y-86360000D02*
X65024000Y-87884000D01*
X65024000Y-87884000D02*
X65024000Y-92202000D01*
X65024000Y-92202000D02*
X64262000Y-92964000D01*
X64262000Y-92964000D02*
X64008000Y-92964000D01*
X64262000Y-92964000D02*
X64262000Y-92456000D01*
X79248000Y-94488000D02*
X75946000Y-94488000D01*
X66294000Y-94996000D02*
X64262000Y-92964000D01*
X75438000Y-94996000D02*
X66294000Y-94996000D01*
X75946000Y-94488000D02*
X75438000Y-94996000D01*
X64262000Y-92964000D02*
X64262000Y-93472000D01*
X79248000Y-95250000D02*
X79248000Y-94488000D01*
X61722000Y-100584000D02*
X61722000Y-98806000D01*
X61722000Y-98806000D02*
X64262000Y-96266000D01*
X64262000Y-96266000D02*
X64262000Y-92964000D01*
X42164000Y-90932000D02*
X42164000Y-90424000D01*
X42164000Y-90424000D02*
X40640000Y-88900000D01*
X40640000Y-88900000D02*
X34544000Y-88900000D01*
X52578000Y-87376000D02*
X52578000Y-88138000D01*
X52578000Y-88138000D02*
X49784000Y-90932000D01*
X56134000Y-71628000D02*
X55118000Y-71628000D01*
X49530000Y-73152000D02*
X48006000Y-71628000D01*
X53594000Y-73152000D02*
X49530000Y-73152000D01*
X55118000Y-71628000D02*
X53594000Y-73152000D01*
X48006000Y-71628000D02*
X44196000Y-71628000D01*
X44196000Y-71628000D02*
X43942000Y-71374000D01*
X39116000Y-64516000D02*
X42672000Y-64516000D01*
X45974000Y-69342000D02*
X43942000Y-71374000D01*
X45974000Y-67818000D02*
X45974000Y-69342000D01*
X42672000Y-64516000D02*
X45974000Y-67818000D01*
X43942000Y-58674000D02*
X43942000Y-63500000D01*
X43942000Y-63500000D02*
X51816000Y-71374000D01*
X51816000Y-71374000D02*
X51816000Y-71882000D01*
X76962000Y-70612000D02*
X78486000Y-69088000D01*
X73598002Y-70612000D02*
X76962000Y-70612000D01*
X72582002Y-69596000D02*
X73598002Y-70612000D01*
X65024000Y-69596000D02*
X72582002Y-69596000D01*
X63754000Y-68326000D02*
X65024000Y-69596000D01*
X63754000Y-62992000D02*
X63754000Y-68326000D01*
X64008000Y-62738000D02*
X63754000Y-62992000D01*
X78486000Y-55880000D02*
X78740000Y-59182000D01*
X78740000Y-59182000D02*
X81026000Y-61468000D01*
X66167000Y-61595000D02*
X54229000Y-61595000D01*
X54229000Y-61595000D02*
X51816000Y-59182000D01*
X78486000Y-61468000D02*
X78486000Y-61722000D01*
X78486000Y-61722000D02*
X77216000Y-62992000D01*
X67564000Y-62992000D02*
X66167000Y-61595000D01*
X77216000Y-62992000D02*
X67564000Y-62992000D01*
D35*
X56134000Y-58928000D02*
X56134000Y-56896000D01*
X79756000Y-54610000D02*
X81026000Y-53340000D01*
X58420000Y-54610000D02*
X79756000Y-54610000D01*
X56134000Y-56896000D02*
X58420000Y-54610000D01*
D33*
X41148000Y-87376000D02*
X39878000Y-87376000D01*
X43180000Y-85344000D02*
X41148000Y-87376000D01*
X52324000Y-85344000D02*
X43180000Y-85344000D01*
X55626000Y-82042000D02*
X52324000Y-85344000D01*
X74168000Y-82042000D02*
X55626000Y-82042000D01*
X75184000Y-83058000D02*
X74168000Y-82042000D01*
X38354000Y-90424000D02*
X38354000Y-91186000D01*
X38354000Y-91186000D02*
X40640000Y-93472000D01*
X54102000Y-93472000D02*
X40640000Y-93472000D01*
X54356000Y-93218000D02*
X54102000Y-93472000D01*
G36*
X76989873Y-52786453D02*
X76886000Y-53308654D01*
X76886000Y-53371346D01*
X76948390Y-53685000D01*
X58420000Y-53685000D01*
X58066017Y-53755411D01*
X57765926Y-53955926D01*
X55479926Y-56241926D01*
X55279411Y-56542017D01*
X55279411Y-56542018D01*
X55209000Y-56896000D01*
X55209000Y-57661267D01*
X54820740Y-58048849D01*
X54584270Y-58618333D01*
X54583732Y-59234961D01*
X54819208Y-59804857D01*
X55254849Y-60241260D01*
X55824333Y-60477730D01*
X56440961Y-60478268D01*
X57010857Y-60242792D01*
X57447260Y-59807151D01*
X57640219Y-59342452D01*
X60490655Y-59342452D01*
X60606759Y-59598448D01*
X61298358Y-59702455D01*
X61821241Y-59598448D01*
X61937345Y-59342452D01*
X61214000Y-58619107D01*
X60490655Y-59342452D01*
X57640219Y-59342452D01*
X57683730Y-59237667D01*
X57684268Y-58621039D01*
X57448792Y-58051143D01*
X57394103Y-57996358D01*
X59423545Y-57996358D01*
X59527552Y-58519241D01*
X59783548Y-58635345D01*
X60506893Y-57912000D01*
X61921107Y-57912000D01*
X62644452Y-58635345D01*
X62900448Y-58519241D01*
X62939649Y-58258569D01*
X64543696Y-58258569D01*
X64809557Y-58902001D01*
X65301410Y-59394713D01*
X65944376Y-59661696D01*
X66640569Y-59662304D01*
X67284001Y-59396443D01*
X67776713Y-58904590D01*
X68043696Y-58261624D01*
X68043698Y-58258569D01*
X69369696Y-58258569D01*
X69635557Y-58902001D01*
X70127410Y-59394713D01*
X70770376Y-59661696D01*
X71466569Y-59662304D01*
X72110001Y-59396443D01*
X72602713Y-58904590D01*
X72869696Y-58261624D01*
X72870304Y-57565431D01*
X72604443Y-56921999D01*
X72112590Y-56429287D01*
X71469624Y-56162304D01*
X70773431Y-56161696D01*
X70129999Y-56427557D01*
X69637287Y-56919410D01*
X69370304Y-57562376D01*
X69369696Y-58258569D01*
X68043698Y-58258569D01*
X68044304Y-57565431D01*
X67778443Y-56921999D01*
X67286590Y-56429287D01*
X66643624Y-56162304D01*
X65947431Y-56161696D01*
X65303999Y-56427557D01*
X64811287Y-56919410D01*
X64544304Y-57562376D01*
X64543696Y-58258569D01*
X62939649Y-58258569D01*
X63004455Y-57827642D01*
X62900448Y-57304759D01*
X62644452Y-57188655D01*
X61921107Y-57912000D01*
X60506893Y-57912000D01*
X59783548Y-57188655D01*
X59527552Y-57304759D01*
X59423545Y-57996358D01*
X57394103Y-57996358D01*
X57059000Y-57660669D01*
X57059000Y-57279148D01*
X57856600Y-56481548D01*
X60490655Y-56481548D01*
X61214000Y-57204893D01*
X61937345Y-56481548D01*
X61821241Y-56225552D01*
X61129642Y-56121545D01*
X60606759Y-56225552D01*
X60490655Y-56481548D01*
X57856600Y-56481548D01*
X58803148Y-55535000D01*
X76871307Y-55535000D01*
X76871307Y-56730000D01*
X76923604Y-57007933D01*
X77087862Y-57263198D01*
X77338492Y-57434446D01*
X77606799Y-57488780D01*
X77742946Y-59258697D01*
X77785407Y-59410278D01*
X77816120Y-59564684D01*
X77837711Y-59596997D01*
X77848192Y-59634414D01*
X77945431Y-59758211D01*
X78032893Y-59889107D01*
X78106840Y-59963054D01*
X77892841Y-60005621D01*
X77389984Y-60341618D01*
X77216000Y-60602004D01*
X77042016Y-60341618D01*
X76539159Y-60005621D01*
X75946000Y-59887634D01*
X75352841Y-60005621D01*
X74849984Y-60341618D01*
X74513987Y-60844475D01*
X74396000Y-61437634D01*
X74396000Y-61498366D01*
X74494190Y-61992000D01*
X67978214Y-61992000D01*
X66874107Y-60887893D01*
X66549684Y-60671120D01*
X66167000Y-60595000D01*
X54643214Y-60595000D01*
X53365882Y-59317668D01*
X53366268Y-58875039D01*
X53130792Y-58305143D01*
X52695151Y-57868740D01*
X52125667Y-57632270D01*
X51509039Y-57631732D01*
X50939143Y-57867208D01*
X50502740Y-58302849D01*
X50266270Y-58872333D01*
X50265732Y-59488961D01*
X50501208Y-60058857D01*
X50936849Y-60495260D01*
X51506333Y-60731730D01*
X51951905Y-60732119D01*
X53521893Y-62302107D01*
X53846317Y-62518880D01*
X54229000Y-62595000D01*
X58689416Y-62595000D01*
X58448323Y-62836093D01*
X58900874Y-63288643D01*
X58973154Y-63652017D01*
X59221195Y-63737119D01*
X59886315Y-63072000D01*
X59603472Y-62789157D01*
X59797629Y-62595000D01*
X61106371Y-62595000D01*
X61300528Y-62789157D01*
X61017685Y-63072000D01*
X61682805Y-63737119D01*
X61930846Y-63652017D01*
X61994446Y-63297323D01*
X62455677Y-62836093D01*
X62214584Y-62595000D01*
X62839686Y-62595000D01*
X62830120Y-62609316D01*
X62779006Y-62866287D01*
X62754000Y-62992000D01*
X62754000Y-68326000D01*
X62830120Y-68708684D01*
X63046893Y-69033107D01*
X63883754Y-69869968D01*
X63500000Y-69793634D01*
X62906841Y-69911621D01*
X62403984Y-70247618D01*
X62067987Y-70750475D01*
X61950000Y-71343634D01*
X61950000Y-71404366D01*
X62067987Y-71997525D01*
X62403984Y-72500382D01*
X62906841Y-72836379D01*
X63500000Y-72954366D01*
X64093159Y-72836379D01*
X64596016Y-72500382D01*
X64770000Y-72239996D01*
X64943984Y-72500382D01*
X65446841Y-72836379D01*
X66040000Y-72954366D01*
X66633159Y-72836379D01*
X67136016Y-72500382D01*
X67220461Y-72374000D01*
X67399539Y-72374000D01*
X67483984Y-72500382D01*
X67986841Y-72836379D01*
X68396474Y-72917860D01*
X68418120Y-73026684D01*
X68634893Y-73351107D01*
X72660000Y-77376214D01*
X72660000Y-78913361D01*
X72552013Y-78370475D01*
X72216016Y-77867618D01*
X71713159Y-77531621D01*
X71120000Y-77413634D01*
X70526841Y-77531621D01*
X70023984Y-77867618D01*
X69850000Y-78128004D01*
X69676016Y-77867618D01*
X69173159Y-77531621D01*
X68580000Y-77413634D01*
X67986841Y-77531621D01*
X67483984Y-77867618D01*
X67310000Y-78128004D01*
X67136016Y-77867618D01*
X66633159Y-77531621D01*
X66040000Y-77413634D01*
X65446841Y-77531621D01*
X65058000Y-77791435D01*
X65058000Y-77743998D01*
X64921972Y-77743998D01*
X64729372Y-77551398D01*
X64450775Y-77436000D01*
X64089500Y-77436000D01*
X63900000Y-77625500D01*
X63900000Y-78594000D01*
X64300000Y-78594000D01*
X64300000Y-79394000D01*
X63900000Y-79394000D01*
X63900000Y-80362500D01*
X64089500Y-80552000D01*
X64450775Y-80552000D01*
X64729372Y-80436602D01*
X64921972Y-80244002D01*
X65058000Y-80244002D01*
X65058000Y-80196565D01*
X65446841Y-80456379D01*
X66040000Y-80574366D01*
X66633159Y-80456379D01*
X67136016Y-80120382D01*
X67310000Y-79859996D01*
X67483984Y-80120382D01*
X67986841Y-80456379D01*
X68580000Y-80574366D01*
X69173159Y-80456379D01*
X69676016Y-80120382D01*
X69850000Y-79859996D01*
X70023984Y-80120382D01*
X70526841Y-80456379D01*
X71120000Y-80574366D01*
X71713159Y-80456379D01*
X72216016Y-80120382D01*
X72552013Y-79617525D01*
X72660000Y-79074639D01*
X72660000Y-79502000D01*
X72736120Y-79884684D01*
X72952893Y-80209107D01*
X73785786Y-81042000D01*
X58101819Y-81042000D01*
X58196446Y-80903508D01*
X58256693Y-80606000D01*
X58256693Y-79583500D01*
X61942000Y-79583500D01*
X61942000Y-79944776D01*
X62057399Y-80223373D01*
X62270628Y-80436602D01*
X62549225Y-80552000D01*
X62910500Y-80552000D01*
X63100000Y-80362500D01*
X63100000Y-79394000D01*
X62131500Y-79394000D01*
X61942000Y-79583500D01*
X58256693Y-79583500D01*
X58256693Y-78906000D01*
X58204396Y-78628067D01*
X58040138Y-78372802D01*
X57866842Y-78254394D01*
X58007940Y-78043224D01*
X61942000Y-78043224D01*
X61942000Y-78404500D01*
X62131500Y-78594000D01*
X63100000Y-78594000D01*
X63100000Y-77625500D01*
X62910500Y-77436000D01*
X62549225Y-77436000D01*
X62270628Y-77551398D01*
X62057399Y-77764627D01*
X61942000Y-78043224D01*
X58007940Y-78043224D01*
X58151553Y-77828293D01*
X58273346Y-77216000D01*
X58151553Y-76603707D01*
X57804717Y-76084629D01*
X57597244Y-75946000D01*
X57804717Y-75807371D01*
X58151553Y-75288293D01*
X58273346Y-74676000D01*
X58151553Y-74063707D01*
X57804717Y-73544629D01*
X57285639Y-73197793D01*
X56731397Y-73087547D01*
X57230016Y-72754382D01*
X57566013Y-72251525D01*
X57684000Y-71658366D01*
X57684000Y-71597634D01*
X57566013Y-71004475D01*
X57230016Y-70501618D01*
X56727159Y-70165621D01*
X56134000Y-70047634D01*
X55540841Y-70165621D01*
X55037984Y-70501618D01*
X54928330Y-70665728D01*
X54735317Y-70704120D01*
X54410893Y-70920893D01*
X54410891Y-70920896D01*
X53352736Y-71979051D01*
X53366000Y-71912366D01*
X53366000Y-71851634D01*
X53248013Y-71258475D01*
X52912016Y-70755618D01*
X52409159Y-70419621D01*
X52242729Y-70386516D01*
X50235175Y-68378961D01*
X58901732Y-68378961D01*
X59137208Y-68948857D01*
X59572849Y-69385260D01*
X60142333Y-69621730D01*
X60758961Y-69622268D01*
X61328857Y-69386792D01*
X61765260Y-68951151D01*
X62001730Y-68381667D01*
X62002268Y-67765039D01*
X61766792Y-67195143D01*
X61331151Y-66758740D01*
X60761667Y-66522270D01*
X60145039Y-66521732D01*
X59575143Y-66757208D01*
X59138740Y-67192849D01*
X58902270Y-67762333D01*
X58901732Y-68378961D01*
X50235175Y-68378961D01*
X46159019Y-64302805D01*
X59786881Y-64302805D01*
X59871983Y-64550846D01*
X60482064Y-64660239D01*
X61032017Y-64550846D01*
X61117119Y-64302805D01*
X60452000Y-63637685D01*
X59786881Y-64302805D01*
X46159019Y-64302805D01*
X44942000Y-63085786D01*
X44942000Y-62288863D01*
X46339125Y-62288863D01*
X46780139Y-62864264D01*
X47185143Y-63134840D01*
X47456000Y-63043244D01*
X47456000Y-62018000D01*
X48556000Y-62018000D01*
X48556000Y-63043244D01*
X48826857Y-63134840D01*
X49231861Y-62864264D01*
X49672875Y-62288863D01*
X49591264Y-62018000D01*
X48556000Y-62018000D01*
X47456000Y-62018000D01*
X46420736Y-62018000D01*
X46339125Y-62288863D01*
X44942000Y-62288863D01*
X44942000Y-60647137D01*
X46339125Y-60647137D01*
X46420736Y-60918000D01*
X47456000Y-60918000D01*
X47456000Y-59892756D01*
X48556000Y-59892756D01*
X48556000Y-60918000D01*
X49591264Y-60918000D01*
X49672875Y-60647137D01*
X49231861Y-60071736D01*
X48826857Y-59801160D01*
X48556000Y-59892756D01*
X47456000Y-59892756D01*
X47185143Y-59801160D01*
X46780139Y-60071736D01*
X46339125Y-60647137D01*
X44942000Y-60647137D01*
X44942000Y-60538693D01*
X45042000Y-60538693D01*
X45319933Y-60486396D01*
X45575198Y-60322138D01*
X45746446Y-60071508D01*
X45806693Y-59774000D01*
X45806693Y-57574000D01*
X45754396Y-57296067D01*
X45590138Y-57040802D01*
X45339508Y-56869554D01*
X45042000Y-56809307D01*
X42842000Y-56809307D01*
X42564067Y-56861604D01*
X42308802Y-57025862D01*
X42137554Y-57276492D01*
X42077307Y-57574000D01*
X42077307Y-59774000D01*
X42129604Y-60051933D01*
X42293862Y-60307198D01*
X42544492Y-60478446D01*
X42842000Y-60538693D01*
X42942000Y-60538693D01*
X42942000Y-63500000D01*
X42956436Y-63572577D01*
X42672000Y-63516000D01*
X40251345Y-63516000D01*
X39972463Y-63236630D01*
X39417675Y-63006262D01*
X38816960Y-63005738D01*
X38261771Y-63235138D01*
X38116118Y-63380536D01*
X37972463Y-63236630D01*
X37417675Y-63006262D01*
X36816960Y-63005738D01*
X36261771Y-63235138D01*
X35836630Y-63659537D01*
X35606262Y-64214325D01*
X35605738Y-64815040D01*
X35835138Y-65370229D01*
X36259537Y-65795370D01*
X36487379Y-65889978D01*
X37116000Y-66518599D01*
X37384701Y-66249899D01*
X37689256Y-66554454D01*
X37606262Y-66754325D01*
X37605738Y-67355040D01*
X37689366Y-67557436D01*
X37384701Y-67862102D01*
X37116000Y-67593401D01*
X36462634Y-68246767D01*
X36541534Y-68493179D01*
X36841141Y-68548911D01*
X37323069Y-69030839D01*
X38139143Y-68214765D01*
X38259537Y-68335370D01*
X38814325Y-68565738D01*
X39415040Y-68566262D01*
X39970229Y-68336862D01*
X40395370Y-67912463D01*
X40625738Y-67357675D01*
X40626262Y-66756960D01*
X40396862Y-66201771D01*
X39981464Y-65785647D01*
X40251582Y-65516000D01*
X42257786Y-65516000D01*
X43717786Y-66976000D01*
X42691998Y-66976000D01*
X42691998Y-67469233D01*
X42275125Y-68013137D01*
X42356736Y-68284000D01*
X43392000Y-68284000D01*
X43392000Y-67734000D01*
X44475786Y-67734000D01*
X44492000Y-67750214D01*
X44492000Y-68284000D01*
X44974000Y-68284000D01*
X44974000Y-68927786D01*
X44517786Y-69384000D01*
X44492000Y-69384000D01*
X44492000Y-69409786D01*
X44077668Y-69824118D01*
X43635039Y-69823732D01*
X43392000Y-69924154D01*
X43392000Y-69384000D01*
X42356736Y-69384000D01*
X42275125Y-69654863D01*
X42691998Y-70198767D01*
X42691998Y-70431701D01*
X42628740Y-70494849D01*
X42392270Y-71064333D01*
X42391732Y-71680961D01*
X42627208Y-72250857D01*
X43062849Y-72687260D01*
X43632333Y-72923730D01*
X44248961Y-72924268D01*
X44818857Y-72688792D01*
X44879755Y-72628000D01*
X46141307Y-72628000D01*
X46141307Y-72728000D01*
X46193604Y-73005933D01*
X46357862Y-73261198D01*
X46608492Y-73432446D01*
X46906000Y-73492693D01*
X48456480Y-73492693D01*
X48822891Y-73859104D01*
X48822893Y-73859107D01*
X49147317Y-74075880D01*
X49530000Y-74152000D01*
X53594000Y-74152000D01*
X53976684Y-74075880D01*
X54301107Y-73859107D01*
X55258493Y-72901721D01*
X55540841Y-73090379D01*
X56039604Y-73189589D01*
X55998361Y-73197793D01*
X55479283Y-73544629D01*
X55132447Y-74063707D01*
X55010654Y-74676000D01*
X55132447Y-75288293D01*
X55479283Y-75807371D01*
X55686756Y-75946000D01*
X55479283Y-76084629D01*
X55132447Y-76603707D01*
X55010654Y-77216000D01*
X55132447Y-77828293D01*
X55417891Y-78255491D01*
X55258802Y-78357862D01*
X55087554Y-78608492D01*
X55027307Y-78906000D01*
X55027307Y-80606000D01*
X55079604Y-80883933D01*
X55234213Y-81124203D01*
X55172942Y-81165143D01*
X54918893Y-81334893D01*
X54725033Y-81528753D01*
X54574792Y-81165143D01*
X54139151Y-80728740D01*
X53569667Y-80492270D01*
X52953039Y-80491732D01*
X52383143Y-80727208D01*
X51946740Y-81162849D01*
X51710270Y-81732333D01*
X51709732Y-82348961D01*
X51945208Y-82918857D01*
X52380849Y-83355260D01*
X52746638Y-83507148D01*
X51909786Y-84344000D01*
X45444334Y-84344000D01*
X45492000Y-84104366D01*
X45492000Y-84043634D01*
X45374013Y-83450475D01*
X45255299Y-83272805D01*
X47594881Y-83272805D01*
X47679983Y-83520846D01*
X48290064Y-83630239D01*
X48840017Y-83520846D01*
X48925119Y-83272805D01*
X48260000Y-82607685D01*
X47594881Y-83272805D01*
X45255299Y-83272805D01*
X45038016Y-82947618D01*
X44535159Y-82611621D01*
X43942000Y-82493634D01*
X43348841Y-82611621D01*
X42845984Y-82947618D01*
X42509987Y-83450475D01*
X42392000Y-84043634D01*
X42392000Y-84104366D01*
X42494990Y-84622128D01*
X42472893Y-84636893D01*
X40901972Y-86207814D01*
X40757151Y-86062740D01*
X40187667Y-85826270D01*
X39571039Y-85825732D01*
X39001143Y-86061208D01*
X38564740Y-86496849D01*
X38328270Y-87066333D01*
X38327732Y-87682961D01*
X38417411Y-87900000D01*
X36408693Y-87900000D01*
X36408693Y-87800000D01*
X36356396Y-87522067D01*
X36192138Y-87266802D01*
X35941508Y-87095554D01*
X35644000Y-87035307D01*
X33444000Y-87035307D01*
X33166067Y-87087604D01*
X32910802Y-87251862D01*
X32739554Y-87502492D01*
X32679307Y-87800000D01*
X32679307Y-90000000D01*
X32731604Y-90277933D01*
X32895862Y-90533198D01*
X33146492Y-90704446D01*
X33444000Y-90764693D01*
X35644000Y-90764693D01*
X35921933Y-90712396D01*
X36177198Y-90548138D01*
X36348446Y-90297508D01*
X36408693Y-90000000D01*
X36408693Y-89900000D01*
X36902190Y-89900000D01*
X36804000Y-90393634D01*
X36804000Y-90454366D01*
X36921987Y-91047525D01*
X37257984Y-91550382D01*
X37546866Y-91743406D01*
X37646893Y-91893107D01*
X39932893Y-94179107D01*
X40257317Y-94395880D01*
X40640000Y-94472000D01*
X41575361Y-94472000D01*
X41032475Y-94579987D01*
X40529618Y-94915984D01*
X40336594Y-95204866D01*
X40186893Y-95304893D01*
X39970120Y-95629317D01*
X39894000Y-96012000D01*
X39970120Y-96394683D01*
X40186893Y-96719107D01*
X40252705Y-96763081D01*
X39424893Y-97590893D01*
X39208120Y-97915316D01*
X39208120Y-97915317D01*
X39132000Y-98298000D01*
X39132000Y-101768739D01*
X38663667Y-101574270D01*
X38047039Y-101573732D01*
X37477143Y-101809208D01*
X37040740Y-102244849D01*
X36804270Y-102814333D01*
X36803732Y-103430961D01*
X37039208Y-104000857D01*
X37474849Y-104437260D01*
X38044333Y-104673730D01*
X38660961Y-104674268D01*
X39132000Y-104479639D01*
X39132000Y-110583786D01*
X38447786Y-111268000D01*
X37592000Y-111268000D01*
X37209317Y-111344120D01*
X36884893Y-111560893D01*
X36668120Y-111885317D01*
X36631781Y-112068005D01*
X36415786Y-112284000D01*
X36093765Y-112284000D01*
X36094268Y-111707039D01*
X35858792Y-111137143D01*
X35423151Y-110700740D01*
X34853667Y-110464270D01*
X34237039Y-110463732D01*
X33667143Y-110699208D01*
X33230740Y-111134849D01*
X32994270Y-111704333D01*
X32993732Y-112320961D01*
X33121452Y-112630066D01*
X33074942Y-112661143D01*
X32820893Y-112830893D01*
X31843786Y-113808000D01*
X29961312Y-113808000D01*
X29848569Y-113535142D01*
X29216187Y-112901655D01*
X28389516Y-112558392D01*
X27494411Y-112557610D01*
X26667142Y-112899431D01*
X26033655Y-113531813D01*
X25690392Y-114358484D01*
X25689610Y-115253589D01*
X26031431Y-116080858D01*
X26663813Y-116714345D01*
X27490484Y-117057608D01*
X28385589Y-117058390D01*
X29212858Y-116716569D01*
X29846345Y-116084187D01*
X29961028Y-115808000D01*
X32258000Y-115808000D01*
X32640684Y-115731880D01*
X32739916Y-115665575D01*
X32739732Y-115876961D01*
X32975208Y-116446857D01*
X33410849Y-116883260D01*
X33980333Y-117119730D01*
X34596961Y-117120268D01*
X35166857Y-116884792D01*
X35603260Y-116449151D01*
X35839730Y-115879667D01*
X35840119Y-115434095D01*
X36228213Y-115046000D01*
X36893269Y-115046000D01*
X36804270Y-115260333D01*
X36803732Y-115876961D01*
X37039208Y-116446857D01*
X37474849Y-116883260D01*
X37646395Y-116954492D01*
X37717316Y-117001880D01*
X37800243Y-117018375D01*
X38044333Y-117119730D01*
X38660961Y-117120268D01*
X38896585Y-117022910D01*
X38896585Y-118693201D01*
X34344893Y-123244893D01*
X34128120Y-123569316D01*
X34077137Y-123825628D01*
X34052000Y-123952000D01*
X34052000Y-126723016D01*
X34042489Y-126738867D01*
X33696841Y-126807621D01*
X33193984Y-127143618D01*
X32857987Y-127646475D01*
X32740000Y-128239634D01*
X32740000Y-128300366D01*
X32857987Y-128893525D01*
X33193984Y-129396382D01*
X33696841Y-129732379D01*
X34290000Y-129850366D01*
X34883159Y-129732379D01*
X35386016Y-129396382D01*
X35722013Y-128893525D01*
X35840000Y-128300366D01*
X35840000Y-128239634D01*
X35748976Y-127782025D01*
X35909493Y-127514496D01*
X35934573Y-127444504D01*
X35975880Y-127382683D01*
X35999782Y-127262519D01*
X36041109Y-127147184D01*
X36037495Y-127072922D01*
X36052000Y-127000000D01*
X36052000Y-124366214D01*
X37577566Y-122840648D01*
X37430120Y-123061316D01*
X37411762Y-123153608D01*
X37354000Y-123444000D01*
X37354000Y-127079462D01*
X37257984Y-127143618D01*
X36921987Y-127646475D01*
X36804000Y-128239634D01*
X36804000Y-128300366D01*
X36921987Y-128893525D01*
X37257984Y-129396382D01*
X37760841Y-129732379D01*
X38354000Y-129850366D01*
X38947159Y-129732379D01*
X39450016Y-129396382D01*
X39786013Y-128893525D01*
X39904000Y-128300366D01*
X39904000Y-128239634D01*
X39786013Y-127646475D01*
X39450016Y-127143618D01*
X39354000Y-127079462D01*
X39354000Y-126290961D01*
X40359732Y-126290961D01*
X40595208Y-126860857D01*
X41030849Y-127297260D01*
X41600333Y-127533730D01*
X42216961Y-127534268D01*
X42786857Y-127298792D01*
X42870990Y-127214805D01*
X46244881Y-127214805D01*
X46329983Y-127462846D01*
X46940064Y-127572239D01*
X47490017Y-127462846D01*
X47575119Y-127214805D01*
X46910000Y-126549685D01*
X46244881Y-127214805D01*
X42870990Y-127214805D01*
X43223260Y-126863151D01*
X43459730Y-126293667D01*
X43459973Y-126014064D01*
X45321761Y-126014064D01*
X45431154Y-126564017D01*
X45679195Y-126649119D01*
X46344315Y-125984000D01*
X47475685Y-125984000D01*
X48140805Y-126649119D01*
X48388846Y-126564017D01*
X48423132Y-126372805D01*
X52420881Y-126372805D01*
X52505983Y-126620846D01*
X53116064Y-126730239D01*
X53666017Y-126620846D01*
X53751119Y-126372805D01*
X53086000Y-125707685D01*
X52420881Y-126372805D01*
X48423132Y-126372805D01*
X48498239Y-125953936D01*
X48388846Y-125403983D01*
X48140805Y-125318881D01*
X47475685Y-125984000D01*
X46344315Y-125984000D01*
X45679195Y-125318881D01*
X45431154Y-125403983D01*
X45321761Y-126014064D01*
X43459973Y-126014064D01*
X43460268Y-125677039D01*
X43224792Y-125107143D01*
X42871463Y-124753195D01*
X46244881Y-124753195D01*
X46910000Y-125418315D01*
X47156250Y-125172064D01*
X51497761Y-125172064D01*
X51607154Y-125722017D01*
X51855195Y-125807119D01*
X52520315Y-125142000D01*
X53651685Y-125142000D01*
X54316805Y-125807119D01*
X54564846Y-125722017D01*
X54674239Y-125111936D01*
X54564846Y-124561983D01*
X54316805Y-124476881D01*
X53651685Y-125142000D01*
X52520315Y-125142000D01*
X51855195Y-124476881D01*
X51607154Y-124561983D01*
X51497761Y-125172064D01*
X47156250Y-125172064D01*
X47575119Y-124753195D01*
X47490017Y-124505154D01*
X46879936Y-124395761D01*
X46329983Y-124505154D01*
X46244881Y-124753195D01*
X42871463Y-124753195D01*
X42789151Y-124670740D01*
X42219667Y-124434270D01*
X41603039Y-124433732D01*
X41033143Y-124669208D01*
X40596740Y-125104849D01*
X40360270Y-125674333D01*
X40359732Y-126290961D01*
X39354000Y-126290961D01*
X39354000Y-123911195D01*
X52420881Y-123911195D01*
X53086000Y-124576315D01*
X53751119Y-123911195D01*
X53666017Y-123663154D01*
X53055936Y-123553761D01*
X52505983Y-123663154D01*
X52420881Y-123911195D01*
X39354000Y-123911195D01*
X39354000Y-123858214D01*
X41601104Y-121611109D01*
X41601107Y-121611107D01*
X41817880Y-121286683D01*
X41894000Y-120904000D01*
X41894000Y-117941261D01*
X42362333Y-118135730D01*
X42978961Y-118136268D01*
X43548857Y-117900792D01*
X43864200Y-117586000D01*
X45544136Y-117586000D01*
X45856849Y-117899260D01*
X46426333Y-118135730D01*
X47042961Y-118136268D01*
X47612857Y-117900792D01*
X48049260Y-117465151D01*
X48285730Y-116895667D01*
X48286268Y-116279039D01*
X48091639Y-115808000D01*
X48530000Y-115808000D01*
X48530000Y-119558251D01*
X48480182Y-119678226D01*
X48479818Y-120095942D01*
X48639334Y-120482000D01*
X48934446Y-120777628D01*
X49320226Y-120937818D01*
X49737942Y-120938182D01*
X50124000Y-120778666D01*
X50419628Y-120483554D01*
X50433992Y-120448961D01*
X51535732Y-120448961D01*
X51771208Y-121018857D01*
X52206849Y-121455260D01*
X52776333Y-121691730D01*
X53392961Y-121692268D01*
X53962857Y-121456792D01*
X54399260Y-121021151D01*
X54635730Y-120451667D01*
X54636268Y-119835039D01*
X54400792Y-119265143D01*
X53965151Y-118828740D01*
X53395667Y-118592270D01*
X52779039Y-118591732D01*
X52209143Y-118827208D01*
X51772740Y-119262849D01*
X51536270Y-119832333D01*
X51535732Y-120448961D01*
X50433992Y-120448961D01*
X50579818Y-120097774D01*
X50580182Y-119680058D01*
X50530000Y-119558608D01*
X50530000Y-117771231D01*
X50557604Y-117917933D01*
X50721862Y-118173198D01*
X50972492Y-118344446D01*
X51270000Y-118404693D01*
X52870000Y-118404693D01*
X53147933Y-118352396D01*
X53403198Y-118188138D01*
X53541950Y-117985068D01*
X54016841Y-118302379D01*
X54610000Y-118420366D01*
X54955000Y-118351741D01*
X54955000Y-126362852D01*
X52765848Y-128552004D01*
X52441151Y-128226740D01*
X51871667Y-127990270D01*
X51255039Y-127989732D01*
X50685143Y-128225208D01*
X50248740Y-128660849D01*
X50012270Y-129230333D01*
X50011732Y-129846961D01*
X50247208Y-130416857D01*
X50562000Y-130732200D01*
X50562000Y-132423539D01*
X50435618Y-132507984D01*
X50099621Y-133010841D01*
X49981634Y-133604000D01*
X50099621Y-134197159D01*
X50435618Y-134700016D01*
X50938475Y-135036013D01*
X51531634Y-135154000D01*
X51592366Y-135154000D01*
X52185525Y-135036013D01*
X52688382Y-134700016D01*
X53024379Y-134197159D01*
X53081307Y-133910961D01*
X62711732Y-133910961D01*
X62947208Y-134480857D01*
X63382849Y-134917260D01*
X63952333Y-135153730D01*
X64568961Y-135154268D01*
X65138857Y-134918792D01*
X65575260Y-134483151D01*
X65644640Y-134316064D01*
X66737761Y-134316064D01*
X66847154Y-134866017D01*
X67095195Y-134951119D01*
X67760315Y-134286000D01*
X68891685Y-134286000D01*
X69556805Y-134951119D01*
X69804846Y-134866017D01*
X69914239Y-134255936D01*
X69804846Y-133705983D01*
X69556805Y-133620881D01*
X68891685Y-134286000D01*
X67760315Y-134286000D01*
X67095195Y-133620881D01*
X66847154Y-133705983D01*
X66737761Y-134316064D01*
X65644640Y-134316064D01*
X65811730Y-133913667D01*
X65812268Y-133297039D01*
X65712341Y-133055195D01*
X67660881Y-133055195D01*
X68326000Y-133720315D01*
X68991119Y-133055195D01*
X68906017Y-132807154D01*
X68295936Y-132697761D01*
X67745983Y-132807154D01*
X67660881Y-133055195D01*
X65712341Y-133055195D01*
X65576792Y-132727143D01*
X65141151Y-132290740D01*
X64571667Y-132054270D01*
X63955039Y-132053732D01*
X63385143Y-132289208D01*
X62948740Y-132724849D01*
X62712270Y-133294333D01*
X62711732Y-133910961D01*
X53081307Y-133910961D01*
X53142366Y-133604000D01*
X53024379Y-133010841D01*
X52688382Y-132507984D01*
X52562000Y-132423539D01*
X52562000Y-130731864D01*
X52829331Y-130465000D01*
X53086000Y-130465000D01*
X53439983Y-130394589D01*
X53740074Y-130194074D01*
X56534074Y-127400074D01*
X56734589Y-127099982D01*
X56805001Y-126746000D01*
X56805000Y-126745995D01*
X56805000Y-118351741D01*
X57150000Y-118420366D01*
X57743159Y-118302379D01*
X58246016Y-117966382D01*
X58420000Y-117705996D01*
X58593984Y-117966382D01*
X58690000Y-118030538D01*
X58690000Y-118110000D01*
X58691211Y-118116088D01*
X58690074Y-118122192D01*
X58729225Y-118307197D01*
X58753268Y-118428070D01*
X58729667Y-118418270D01*
X58113039Y-118417732D01*
X57543143Y-118653208D01*
X57106740Y-119088849D01*
X56870270Y-119658333D01*
X56869732Y-120274961D01*
X57105208Y-120844857D01*
X57540849Y-121281260D01*
X58110333Y-121517730D01*
X58726961Y-121518268D01*
X59296857Y-121282792D01*
X59733260Y-120847151D01*
X59960000Y-120301099D01*
X59960000Y-121886013D01*
X59736058Y-121885818D01*
X59350000Y-122045334D01*
X59054372Y-122340446D01*
X58894182Y-122726226D01*
X58893818Y-123143942D01*
X59053334Y-123530000D01*
X59091983Y-123568716D01*
X58729667Y-123418270D01*
X58113039Y-123417732D01*
X57543143Y-123653208D01*
X57106740Y-124088849D01*
X56870270Y-124658333D01*
X56869732Y-125274961D01*
X57105208Y-125844857D01*
X57540849Y-126281260D01*
X58110333Y-126517730D01*
X58726961Y-126518268D01*
X59198000Y-126323639D01*
X59198000Y-127762000D01*
X59274120Y-128144684D01*
X59490893Y-128469107D01*
X61268893Y-130247107D01*
X61593316Y-130463880D01*
X61976000Y-130540001D01*
X61976005Y-130540000D01*
X63071462Y-130540000D01*
X63135618Y-130636016D01*
X63638475Y-130972013D01*
X64231634Y-131090000D01*
X64292366Y-131090000D01*
X64885525Y-130972013D01*
X65388382Y-130636016D01*
X65724379Y-130133159D01*
X65842366Y-129540000D01*
X65738136Y-129016000D01*
X66028436Y-129016000D01*
X66775863Y-129443101D01*
X66775732Y-129592961D01*
X67011208Y-130162857D01*
X67446849Y-130599260D01*
X68016333Y-130835730D01*
X68632961Y-130836268D01*
X69202857Y-130600792D01*
X69639260Y-130165151D01*
X69875730Y-129595667D01*
X69876268Y-128979039D01*
X69798366Y-128790503D01*
X69977628Y-128611554D01*
X70137818Y-128225774D01*
X70138015Y-128000000D01*
X70959786Y-128000000D01*
X72635490Y-129675704D01*
X72618000Y-129763634D01*
X72618000Y-129824366D01*
X72735987Y-130417525D01*
X73071984Y-130920382D01*
X73574841Y-131256379D01*
X74168000Y-131374366D01*
X74761159Y-131256379D01*
X75264016Y-130920382D01*
X75600013Y-130417525D01*
X75662981Y-130100961D01*
X76935732Y-130100961D01*
X77171208Y-130670857D01*
X77606849Y-131107260D01*
X78176333Y-131343730D01*
X78792961Y-131344268D01*
X79362857Y-131108792D01*
X79799260Y-130673151D01*
X80035730Y-130103667D01*
X80035732Y-130100961D01*
X81507732Y-130100961D01*
X81743208Y-130670857D01*
X82178849Y-131107260D01*
X82748333Y-131343730D01*
X83364961Y-131344268D01*
X83934857Y-131108792D01*
X84344000Y-130700363D01*
X84344000Y-137414000D01*
X84420120Y-137796684D01*
X84636893Y-138121107D01*
X86137706Y-139621920D01*
X86137654Y-139682079D01*
X86441494Y-140417429D01*
X87003612Y-140980529D01*
X87738430Y-141285652D01*
X88534079Y-141286346D01*
X89269429Y-140982506D01*
X89832529Y-140420388D01*
X90137652Y-139685570D01*
X90138346Y-138889921D01*
X89834506Y-138154571D01*
X89272388Y-137591471D01*
X88537570Y-137286348D01*
X87741921Y-137285654D01*
X87006571Y-137589494D01*
X86970108Y-137625894D01*
X86344000Y-136999786D01*
X86344000Y-135181475D01*
X86441494Y-135417429D01*
X87003612Y-135980529D01*
X87738430Y-136285652D01*
X88534079Y-136286346D01*
X89269429Y-135982506D01*
X89832529Y-135420388D01*
X90137652Y-134685570D01*
X90138346Y-133889921D01*
X89834506Y-133154571D01*
X89272388Y-132591471D01*
X88537570Y-132286348D01*
X87741921Y-132285654D01*
X87006571Y-132589494D01*
X86443471Y-133151612D01*
X86344000Y-133391165D01*
X86344000Y-130181475D01*
X86441494Y-130417429D01*
X87003612Y-130980529D01*
X87738430Y-131285652D01*
X88534079Y-131286346D01*
X89269429Y-130982506D01*
X89832529Y-130420388D01*
X90137652Y-129685570D01*
X90138346Y-128889921D01*
X89834506Y-128154571D01*
X89272388Y-127591471D01*
X88537570Y-127286348D01*
X87741921Y-127285654D01*
X87006571Y-127589494D01*
X86443471Y-128151612D01*
X86291975Y-128516454D01*
X86267880Y-128395317D01*
X86051107Y-128070893D01*
X85239943Y-127259729D01*
X85506013Y-126861525D01*
X85624000Y-126268366D01*
X85624000Y-126207634D01*
X85506013Y-125614475D01*
X85170016Y-125111618D01*
X84667159Y-124775621D01*
X84074000Y-124657634D01*
X83480841Y-124775621D01*
X82977984Y-125111618D01*
X82641987Y-125614475D01*
X82524000Y-126207634D01*
X82524000Y-126268366D01*
X82641987Y-126861525D01*
X82977984Y-127364382D01*
X83074000Y-127428538D01*
X83074000Y-127508000D01*
X83150120Y-127890684D01*
X83366893Y-128215107D01*
X83416215Y-128264429D01*
X83367667Y-128244270D01*
X82751039Y-128243732D01*
X82181143Y-128479208D01*
X81744740Y-128914849D01*
X81508270Y-129484333D01*
X81507732Y-130100961D01*
X80035732Y-130100961D01*
X80036268Y-129487039D01*
X79800792Y-128917143D01*
X79365151Y-128480740D01*
X78795667Y-128244270D01*
X78179039Y-128243732D01*
X77609143Y-128479208D01*
X77172740Y-128914849D01*
X76936270Y-129484333D01*
X76935732Y-130100961D01*
X75662981Y-130100961D01*
X75718000Y-129824366D01*
X75718000Y-129763634D01*
X75600013Y-129170475D01*
X75264016Y-128667618D01*
X74761159Y-128331621D01*
X74168000Y-128213634D01*
X74029414Y-128241200D01*
X72187488Y-126399274D01*
X72245198Y-126362138D01*
X72416446Y-126111508D01*
X72476693Y-125814000D01*
X72476693Y-124044569D01*
X75211696Y-124044569D01*
X75477557Y-124688001D01*
X75969410Y-125180713D01*
X76612376Y-125447696D01*
X77308569Y-125448304D01*
X77952001Y-125182443D01*
X78444713Y-124690590D01*
X78711696Y-124047624D01*
X78712227Y-123439063D01*
X86834820Y-123439063D01*
X86989684Y-123704632D01*
X87782604Y-123801644D01*
X88270316Y-123704632D01*
X88425180Y-123439063D01*
X87630000Y-122643883D01*
X86834820Y-123439063D01*
X78712227Y-123439063D01*
X78712304Y-123351431D01*
X78446443Y-122707999D01*
X77954590Y-122215287D01*
X77311624Y-121948304D01*
X76615431Y-121947696D01*
X75971999Y-122213557D01*
X75479287Y-122705410D01*
X75212304Y-123348376D01*
X75211696Y-124044569D01*
X72476693Y-124044569D01*
X72476693Y-123614000D01*
X72424396Y-123336067D01*
X72260138Y-123080802D01*
X72009508Y-122909554D01*
X71712000Y-122849307D01*
X69512000Y-122849307D01*
X69234067Y-122901604D01*
X68978802Y-123065862D01*
X68807554Y-123316492D01*
X68747307Y-123614000D01*
X68747307Y-124737093D01*
X68056000Y-124045786D01*
X68056000Y-121389500D01*
X69008000Y-121389500D01*
X69008000Y-121900775D01*
X69123398Y-122179372D01*
X69336627Y-122392601D01*
X69615224Y-122508000D01*
X70126500Y-122508000D01*
X70316000Y-122318500D01*
X70316000Y-121200000D01*
X71416000Y-121200000D01*
X71416000Y-122318500D01*
X71605500Y-122508000D01*
X72116776Y-122508000D01*
X72395373Y-122392601D01*
X72608602Y-122179372D01*
X72719100Y-121912604D01*
X85588356Y-121912604D01*
X85685368Y-122400316D01*
X85950937Y-122555180D01*
X86746117Y-121760000D01*
X88513883Y-121760000D01*
X89309063Y-122555180D01*
X89574632Y-122400316D01*
X89671644Y-121607396D01*
X89574632Y-121119684D01*
X89309063Y-120964820D01*
X88513883Y-121760000D01*
X86746117Y-121760000D01*
X85950937Y-120964820D01*
X85685368Y-121119684D01*
X85588356Y-121912604D01*
X72719100Y-121912604D01*
X72724000Y-121900775D01*
X72724000Y-121389500D01*
X72534500Y-121200000D01*
X71416000Y-121200000D01*
X70316000Y-121200000D01*
X69197500Y-121200000D01*
X69008000Y-121389500D01*
X68056000Y-121389500D01*
X68056000Y-119399225D01*
X69008000Y-119399225D01*
X69008000Y-119910500D01*
X69197500Y-120100000D01*
X70316000Y-120100000D01*
X70316000Y-118981500D01*
X71416000Y-118981500D01*
X71416000Y-120100000D01*
X72534500Y-120100000D01*
X72553563Y-120080937D01*
X86834820Y-120080937D01*
X87630000Y-120876117D01*
X88425180Y-120080937D01*
X88270316Y-119815368D01*
X87477396Y-119718356D01*
X86989684Y-119815368D01*
X86834820Y-120080937D01*
X72553563Y-120080937D01*
X72724000Y-119910500D01*
X72724000Y-119399225D01*
X72608602Y-119120628D01*
X72395373Y-118907399D01*
X72116776Y-118792000D01*
X71605500Y-118792000D01*
X71416000Y-118981500D01*
X70316000Y-118981500D01*
X70126500Y-118792000D01*
X69615224Y-118792000D01*
X69336627Y-118907399D01*
X69123398Y-119120628D01*
X69008000Y-119399225D01*
X68056000Y-119399225D01*
X68056000Y-118200254D01*
X68406016Y-117966382D01*
X68440243Y-117915158D01*
X68451334Y-117942000D01*
X68746446Y-118237628D01*
X69132226Y-118397818D01*
X69549942Y-118398182D01*
X69936000Y-118238666D01*
X69972160Y-118202569D01*
X75211696Y-118202569D01*
X75477557Y-118846001D01*
X75969410Y-119338713D01*
X76612376Y-119605696D01*
X77308569Y-119606304D01*
X77952001Y-119340443D01*
X78444713Y-118848590D01*
X78711696Y-118205624D01*
X78712304Y-117509431D01*
X78566302Y-117156079D01*
X85629654Y-117156079D01*
X85933494Y-117891429D01*
X86495612Y-118454529D01*
X87230430Y-118759652D01*
X88026079Y-118760346D01*
X88761429Y-118456506D01*
X89324529Y-117894388D01*
X89629652Y-117159570D01*
X89630346Y-116363921D01*
X89326506Y-115628571D01*
X88764388Y-115065471D01*
X88029570Y-114760348D01*
X87233921Y-114759654D01*
X86498571Y-115063494D01*
X85935471Y-115625612D01*
X85630348Y-116360430D01*
X85629654Y-117156079D01*
X78566302Y-117156079D01*
X78446443Y-116865999D01*
X77954590Y-116373287D01*
X77311624Y-116106304D01*
X76615431Y-116105696D01*
X75971999Y-116371557D01*
X75479287Y-116863410D01*
X75212304Y-117506376D01*
X75211696Y-118202569D01*
X69972160Y-118202569D01*
X70231628Y-117943554D01*
X70391818Y-117557774D01*
X70392182Y-117140058D01*
X70342000Y-117018608D01*
X70342000Y-115909261D01*
X70810333Y-116103730D01*
X71426961Y-116104268D01*
X71996857Y-115868792D01*
X72433260Y-115433151D01*
X72669730Y-114863667D01*
X72670073Y-114470287D01*
X73460893Y-115261107D01*
X73785317Y-115477880D01*
X74168000Y-115554000D01*
X82042000Y-115554000D01*
X82424684Y-115477880D01*
X82749107Y-115261107D01*
X83176917Y-114833297D01*
X83194849Y-114851260D01*
X83764333Y-115087730D01*
X84380961Y-115088268D01*
X84950857Y-114852792D01*
X85387260Y-114417151D01*
X85623730Y-113847667D01*
X85624268Y-113231039D01*
X85388792Y-112661143D01*
X84953151Y-112224740D01*
X84787797Y-112156079D01*
X85629654Y-112156079D01*
X85933494Y-112891429D01*
X86495612Y-113454529D01*
X87230430Y-113759652D01*
X88026079Y-113760346D01*
X88761429Y-113456506D01*
X89324529Y-112894388D01*
X89629652Y-112159570D01*
X89630346Y-111363921D01*
X89326506Y-110628571D01*
X88764388Y-110065471D01*
X88029570Y-109760348D01*
X87233921Y-109759654D01*
X86498571Y-110063494D01*
X85935471Y-110625612D01*
X85630348Y-111360430D01*
X85629654Y-112156079D01*
X84787797Y-112156079D01*
X84383667Y-111988270D01*
X83767039Y-111987732D01*
X83197143Y-112223208D01*
X82837954Y-112581769D01*
X82675316Y-112614120D01*
X82350893Y-112830893D01*
X81627786Y-113554000D01*
X74582214Y-113554000D01*
X73134783Y-112106569D01*
X75211696Y-112106569D01*
X75477557Y-112750001D01*
X75969410Y-113242713D01*
X76612376Y-113509696D01*
X77308569Y-113510304D01*
X77952001Y-113244443D01*
X78444713Y-112752590D01*
X78711696Y-112109624D01*
X78712304Y-111413431D01*
X78446443Y-110769999D01*
X77954590Y-110277287D01*
X77311624Y-110010304D01*
X76615431Y-110009696D01*
X75971999Y-110275557D01*
X75479287Y-110767410D01*
X75212304Y-111410376D01*
X75211696Y-112106569D01*
X73134783Y-112106569D01*
X71573107Y-110544893D01*
X71489027Y-110488712D01*
X71120000Y-110119685D01*
X70967496Y-110272189D01*
X70866000Y-110252000D01*
X70686629Y-110252000D01*
X70271472Y-109836843D01*
X70554315Y-109554000D01*
X71685685Y-109554000D01*
X72350805Y-110219119D01*
X72598846Y-110134017D01*
X72708239Y-109523936D01*
X72621652Y-109088635D01*
X82141306Y-109088635D01*
X82491088Y-109585838D01*
X82935369Y-109882665D01*
X83166000Y-109766737D01*
X83166000Y-108858000D01*
X83966000Y-108858000D01*
X83966000Y-109766737D01*
X84196631Y-109882665D01*
X84640912Y-109585838D01*
X84990694Y-109088635D01*
X84882307Y-108858000D01*
X83966000Y-108858000D01*
X83166000Y-108858000D01*
X82249693Y-108858000D01*
X82141306Y-109088635D01*
X72621652Y-109088635D01*
X72598846Y-108973983D01*
X72350805Y-108888881D01*
X71685685Y-109554000D01*
X70554315Y-109554000D01*
X69889195Y-108888881D01*
X69641154Y-108973983D01*
X69577554Y-109328677D01*
X69116323Y-109789907D01*
X69578416Y-110252000D01*
X68469080Y-110252000D01*
X68742013Y-109843525D01*
X68860000Y-109250366D01*
X68860000Y-109189634D01*
X68742013Y-108596475D01*
X68559414Y-108323195D01*
X70454881Y-108323195D01*
X71120000Y-108988315D01*
X71785119Y-108323195D01*
X71700017Y-108075154D01*
X71089936Y-107965761D01*
X70539983Y-108075154D01*
X70454881Y-108323195D01*
X68559414Y-108323195D01*
X68406016Y-108093618D01*
X67903159Y-107757621D01*
X67419661Y-107661447D01*
X66747107Y-106988893D01*
X66422684Y-106772120D01*
X66090496Y-106706044D01*
X66346961Y-106706268D01*
X66916857Y-106470792D01*
X67353260Y-106035151D01*
X67485383Y-105716961D01*
X68045732Y-105716961D01*
X68281208Y-106286857D01*
X68716849Y-106723260D01*
X69286333Y-106959730D01*
X69902961Y-106960268D01*
X70472857Y-106724792D01*
X70909260Y-106289151D01*
X71145730Y-105719667D01*
X71145732Y-105716961D01*
X73045732Y-105716961D01*
X73281208Y-106286857D01*
X73716849Y-106723260D01*
X74286333Y-106959730D01*
X74902961Y-106960268D01*
X75472857Y-106724792D01*
X75909260Y-106289151D01*
X76145730Y-105719667D01*
X76146268Y-105103039D01*
X75910792Y-104533143D01*
X75475151Y-104096740D01*
X74905667Y-103860270D01*
X74289039Y-103859732D01*
X73719143Y-104095208D01*
X73282740Y-104530849D01*
X73046270Y-105100333D01*
X73045732Y-105716961D01*
X71145732Y-105716961D01*
X71146268Y-105103039D01*
X70910792Y-104533143D01*
X70475151Y-104096740D01*
X69905667Y-103860270D01*
X69289039Y-103859732D01*
X68719143Y-104095208D01*
X68282740Y-104530849D01*
X68046270Y-105100333D01*
X68045732Y-105716961D01*
X67485383Y-105716961D01*
X67589730Y-105465667D01*
X67590268Y-104849039D01*
X67354792Y-104279143D01*
X66919151Y-103842740D01*
X66349667Y-103606270D01*
X65733039Y-103605732D01*
X65163143Y-103841208D01*
X64726740Y-104276849D01*
X64490270Y-104846333D01*
X64489732Y-105462961D01*
X64725208Y-106032857D01*
X65160849Y-106469260D01*
X65706901Y-106696000D01*
X63754000Y-106696000D01*
X63371317Y-106772120D01*
X63046893Y-106988893D01*
X63046891Y-106988896D01*
X62368586Y-107667201D01*
X62230000Y-107639634D01*
X61636841Y-107757621D01*
X61133984Y-108093618D01*
X60960000Y-108354004D01*
X60786016Y-108093618D01*
X60283159Y-107757621D01*
X59690000Y-107639634D01*
X59096841Y-107757621D01*
X58708000Y-108017435D01*
X58708000Y-107969998D01*
X58400002Y-107969998D01*
X58400002Y-107662000D01*
X57836102Y-107662000D01*
X57945818Y-107397774D01*
X57946182Y-106980058D01*
X57786666Y-106594000D01*
X57579833Y-106386805D01*
X60374881Y-106386805D01*
X60459983Y-106634846D01*
X61070064Y-106744239D01*
X61620017Y-106634846D01*
X61705119Y-106386805D01*
X61040000Y-105721685D01*
X60374881Y-106386805D01*
X57579833Y-106386805D01*
X57491554Y-106298372D01*
X57105774Y-106138182D01*
X56688058Y-106137818D01*
X56566608Y-106188000D01*
X51698521Y-106188000D01*
X51925198Y-106042138D01*
X52096446Y-105791508D01*
X52156693Y-105494000D01*
X52156693Y-105214857D01*
X56245160Y-105214857D01*
X56515736Y-105619861D01*
X57091137Y-106060875D01*
X57362000Y-105979264D01*
X57362000Y-104944000D01*
X58462000Y-104944000D01*
X58462000Y-105979264D01*
X58732863Y-106060875D01*
X59308264Y-105619861D01*
X59485330Y-105354825D01*
X59561154Y-105736017D01*
X59809195Y-105821119D01*
X60474315Y-105156000D01*
X61605685Y-105156000D01*
X62270805Y-105821119D01*
X62518846Y-105736017D01*
X62628239Y-105125936D01*
X62518846Y-104575983D01*
X62270805Y-104490881D01*
X61605685Y-105156000D01*
X60474315Y-105156000D01*
X59809195Y-104490881D01*
X59561154Y-104575983D01*
X59492421Y-104959307D01*
X59487244Y-104944000D01*
X58462000Y-104944000D01*
X57362000Y-104944000D01*
X56336756Y-104944000D01*
X56245160Y-105214857D01*
X52156693Y-105214857D01*
X52156693Y-103925195D01*
X60374881Y-103925195D01*
X61040000Y-104590315D01*
X61705119Y-103925195D01*
X61620017Y-103677154D01*
X61009936Y-103567761D01*
X60459983Y-103677154D01*
X60374881Y-103925195D01*
X52156693Y-103925195D01*
X52156693Y-103573143D01*
X56245160Y-103573143D01*
X56336756Y-103844000D01*
X57362000Y-103844000D01*
X57362000Y-102808736D01*
X58462000Y-102808736D01*
X58462000Y-103844000D01*
X59487244Y-103844000D01*
X59578840Y-103573143D01*
X59308264Y-103168139D01*
X58732863Y-102727125D01*
X58462000Y-102808736D01*
X57362000Y-102808736D01*
X57091137Y-102727125D01*
X56515736Y-103168139D01*
X56245160Y-103573143D01*
X52156693Y-103573143D01*
X52156693Y-103294000D01*
X52104396Y-103016067D01*
X51940138Y-102760802D01*
X51689508Y-102589554D01*
X51392000Y-102529307D01*
X49192000Y-102529307D01*
X48914067Y-102581604D01*
X48658802Y-102745862D01*
X48487554Y-102996492D01*
X48427307Y-103294000D01*
X48427307Y-105494000D01*
X48472061Y-105731847D01*
X47784407Y-105044193D01*
X47832016Y-105012382D01*
X48168013Y-104509525D01*
X48286000Y-103916366D01*
X48286000Y-103855634D01*
X48168013Y-103262475D01*
X47832016Y-102759618D01*
X47329159Y-102423621D01*
X46736000Y-102305634D01*
X46142841Y-102423621D01*
X45639984Y-102759618D01*
X45303987Y-103262475D01*
X45186000Y-103855634D01*
X45186000Y-103916366D01*
X45303987Y-104509525D01*
X45639984Y-105012382D01*
X45736000Y-105076538D01*
X45736000Y-105410000D01*
X45812120Y-105792684D01*
X46028893Y-106117107D01*
X47806893Y-107895107D01*
X48131316Y-108111880D01*
X48514000Y-108188001D01*
X48514005Y-108188000D01*
X50910920Y-108188000D01*
X50637987Y-108596475D01*
X50520000Y-109189634D01*
X50520000Y-109250366D01*
X50637987Y-109843525D01*
X50973984Y-110346382D01*
X51070000Y-110410538D01*
X51070000Y-110710013D01*
X50846058Y-110709818D01*
X50724608Y-110760000D01*
X42164000Y-110760000D01*
X41781317Y-110836120D01*
X41456893Y-111052893D01*
X40908433Y-111601353D01*
X41055880Y-111380683D01*
X41132000Y-110998000D01*
X41132000Y-103966639D01*
X41239987Y-104509525D01*
X41575984Y-105012382D01*
X42078841Y-105348379D01*
X42672000Y-105466366D01*
X43265159Y-105348379D01*
X43768016Y-105012382D01*
X44104013Y-104509525D01*
X44222000Y-103916366D01*
X44222000Y-103855634D01*
X44104013Y-103262475D01*
X43768016Y-102759618D01*
X43265159Y-102423621D01*
X42672000Y-102305634D01*
X42078841Y-102423621D01*
X41575984Y-102759618D01*
X41239987Y-103262475D01*
X41132000Y-103805361D01*
X41132000Y-102299584D01*
X41420093Y-102587677D01*
X41872643Y-102135126D01*
X42236017Y-102062846D01*
X42321119Y-101814805D01*
X41656000Y-101149685D01*
X41373157Y-101432528D01*
X41132000Y-101191371D01*
X41132000Y-100584000D01*
X42221685Y-100584000D01*
X42886805Y-101249119D01*
X43134846Y-101164017D01*
X43238848Y-100584000D01*
X52775634Y-100584000D01*
X52893621Y-101177159D01*
X53229618Y-101680016D01*
X53732475Y-102016013D01*
X54325634Y-102134000D01*
X54386366Y-102134000D01*
X54979525Y-102016013D01*
X55482382Y-101680016D01*
X55818379Y-101177159D01*
X55819106Y-101173500D01*
X57624000Y-101173500D01*
X57624000Y-101534776D01*
X57739399Y-101813373D01*
X57952628Y-102026602D01*
X58231225Y-102142000D01*
X58592500Y-102142000D01*
X58782000Y-101952500D01*
X58782000Y-100984000D01*
X57813500Y-100984000D01*
X57624000Y-101173500D01*
X55819106Y-101173500D01*
X55936366Y-100584000D01*
X55818379Y-99990841D01*
X55579428Y-99633224D01*
X57624000Y-99633224D01*
X57624000Y-99994500D01*
X57813500Y-100184000D01*
X58782000Y-100184000D01*
X58782000Y-99215500D01*
X58592500Y-99026000D01*
X58231225Y-99026000D01*
X57952628Y-99141398D01*
X57739399Y-99354627D01*
X57624000Y-99633224D01*
X55579428Y-99633224D01*
X55482382Y-99487984D01*
X54979525Y-99151987D01*
X54386366Y-99034000D01*
X54325634Y-99034000D01*
X53732475Y-99151987D01*
X53229618Y-99487984D01*
X52893621Y-99990841D01*
X52775634Y-100584000D01*
X43238848Y-100584000D01*
X43244239Y-100553936D01*
X43134846Y-100003983D01*
X42886805Y-99918881D01*
X42221685Y-100584000D01*
X41132000Y-100584000D01*
X41132000Y-99976629D01*
X41373157Y-99735472D01*
X41656000Y-100018315D01*
X42321119Y-99353195D01*
X42236017Y-99105154D01*
X41881323Y-99041554D01*
X41420093Y-98580323D01*
X41132000Y-98868416D01*
X41132000Y-98712214D01*
X42363104Y-97481109D01*
X42363107Y-97481107D01*
X42475297Y-97313203D01*
X42782382Y-97108016D01*
X43118379Y-96605159D01*
X43236366Y-96012000D01*
X43118379Y-95418841D01*
X42782382Y-94915984D01*
X42279525Y-94579987D01*
X41736639Y-94472000D01*
X54024189Y-94472000D01*
X53479143Y-94697208D01*
X53042740Y-95132849D01*
X52806270Y-95702333D01*
X52805732Y-96318961D01*
X53041208Y-96888857D01*
X53476849Y-97325260D01*
X54046333Y-97561730D01*
X54662961Y-97562268D01*
X55232857Y-97326792D01*
X55669260Y-96891151D01*
X55905730Y-96321667D01*
X55906268Y-95705039D01*
X55670792Y-95135143D01*
X55235151Y-94698740D01*
X54665667Y-94462270D01*
X54153164Y-94461823D01*
X54484684Y-94395880D01*
X54809107Y-94179107D01*
X54829940Y-94158274D01*
X54950000Y-94108666D01*
X55245628Y-93813554D01*
X55405818Y-93427774D01*
X55406182Y-93010058D01*
X55374605Y-92933634D01*
X57632000Y-92933634D01*
X57632000Y-92994366D01*
X57749987Y-93587525D01*
X58085984Y-94090382D01*
X58588841Y-94426379D01*
X59182000Y-94544366D01*
X59775159Y-94426379D01*
X60164000Y-94166565D01*
X60164000Y-94214002D01*
X60829939Y-94214002D01*
X61091369Y-94388665D01*
X61322000Y-94272737D01*
X61322000Y-93364000D01*
X60922000Y-93364000D01*
X60922000Y-92564000D01*
X61322000Y-92564000D01*
X61322000Y-91655263D01*
X61091369Y-91539335D01*
X60829939Y-91713998D01*
X60164000Y-91713998D01*
X60164000Y-91761435D01*
X59775159Y-91501621D01*
X59182000Y-91383634D01*
X58588841Y-91501621D01*
X58085984Y-91837618D01*
X57749987Y-92340475D01*
X57632000Y-92933634D01*
X55374605Y-92933634D01*
X55246666Y-92624000D01*
X54951554Y-92328372D01*
X54565774Y-92168182D01*
X54148058Y-92167818D01*
X53762000Y-92327334D01*
X53617081Y-92472000D01*
X50781400Y-92472000D01*
X51128392Y-92240148D01*
X51529421Y-91639964D01*
X51670244Y-90932000D01*
X51591929Y-90538285D01*
X53285107Y-88845107D01*
X53397297Y-88677203D01*
X53704382Y-88472016D01*
X54040379Y-87969159D01*
X54158366Y-87376000D01*
X54040379Y-86782841D01*
X53704382Y-86279984D01*
X53201525Y-85943987D01*
X53148729Y-85933485D01*
X53697409Y-85384805D01*
X58262881Y-85384805D01*
X58347983Y-85632846D01*
X58958064Y-85742239D01*
X59508017Y-85632846D01*
X59593119Y-85384805D01*
X58928000Y-84719685D01*
X58262881Y-85384805D01*
X53697409Y-85384805D01*
X56040214Y-83042000D01*
X57800416Y-83042000D01*
X56924323Y-83918093D01*
X57376874Y-84370643D01*
X57449154Y-84734017D01*
X57697195Y-84819119D01*
X58362315Y-84154000D01*
X58079472Y-83871157D01*
X58645157Y-83305472D01*
X58928000Y-83588315D01*
X59210843Y-83305472D01*
X59776528Y-83871157D01*
X59493685Y-84154000D01*
X60158805Y-84819119D01*
X60406846Y-84734017D01*
X60470446Y-84379323D01*
X60931677Y-83918093D01*
X60055584Y-83042000D01*
X61631307Y-83042000D01*
X61631307Y-84670000D01*
X61683604Y-84947933D01*
X61847862Y-85203198D01*
X62021158Y-85321606D01*
X61736447Y-85747707D01*
X61614654Y-86360000D01*
X61736447Y-86972293D01*
X62083283Y-87491371D01*
X62290756Y-87630000D01*
X62083283Y-87768629D01*
X61995504Y-87900000D01*
X59866308Y-87900000D01*
X59807151Y-87840740D01*
X59237667Y-87604270D01*
X58621039Y-87603732D01*
X58051143Y-87839208D01*
X57614740Y-88274849D01*
X57378270Y-88844333D01*
X57377732Y-89460961D01*
X57613208Y-90030857D01*
X58048849Y-90467260D01*
X58618333Y-90703730D01*
X59234961Y-90704268D01*
X59804857Y-90468792D01*
X60241260Y-90033151D01*
X60296549Y-89900000D01*
X61995504Y-89900000D01*
X62083283Y-90031371D01*
X62602361Y-90378207D01*
X63214654Y-90500000D01*
X63277346Y-90500000D01*
X63889639Y-90378207D01*
X64024000Y-90288430D01*
X64024000Y-91430975D01*
X63668841Y-91501621D01*
X63280000Y-91761435D01*
X63280000Y-91713998D01*
X62614061Y-91713998D01*
X62352631Y-91539335D01*
X62122000Y-91655263D01*
X62122000Y-92564000D01*
X62522000Y-92564000D01*
X62522000Y-93364000D01*
X62122000Y-93364000D01*
X62122000Y-94272737D01*
X62352631Y-94388665D01*
X62614061Y-94214002D01*
X63262000Y-94214002D01*
X63262000Y-95851787D01*
X61014893Y-98098893D01*
X60798120Y-98423316D01*
X60798120Y-98423317D01*
X60722000Y-98806000D01*
X60722000Y-99333998D01*
X60603972Y-99333998D01*
X60411372Y-99141398D01*
X60132775Y-99026000D01*
X59771500Y-99026000D01*
X59582000Y-99215500D01*
X59582000Y-100184000D01*
X59982000Y-100184000D01*
X59982000Y-100984000D01*
X59582000Y-100984000D01*
X59582000Y-101952500D01*
X59771500Y-102142000D01*
X60132775Y-102142000D01*
X60411372Y-102026602D01*
X60603972Y-101834002D01*
X60740000Y-101834002D01*
X60740000Y-101786565D01*
X61128841Y-102046379D01*
X61722000Y-102164366D01*
X62315159Y-102046379D01*
X62818016Y-101710382D01*
X62992000Y-101449996D01*
X63165984Y-101710382D01*
X63668841Y-102046379D01*
X64262000Y-102164366D01*
X64855159Y-102046379D01*
X65358016Y-101710382D01*
X65532000Y-101449996D01*
X65705984Y-101710382D01*
X66208841Y-102046379D01*
X66802000Y-102164366D01*
X67395159Y-102046379D01*
X67898016Y-101710382D01*
X68234013Y-101207525D01*
X68352000Y-100614366D01*
X68352000Y-100553634D01*
X68234013Y-99960475D01*
X67898016Y-99457618D01*
X67659130Y-99298000D01*
X68165786Y-99298000D01*
X70433726Y-101565940D01*
X70483334Y-101686000D01*
X70778446Y-101981628D01*
X71164226Y-102141818D01*
X71581942Y-102142182D01*
X71968000Y-101982666D01*
X72263628Y-101687554D01*
X72423818Y-101301774D01*
X72424182Y-100884058D01*
X72264666Y-100498000D01*
X71969554Y-100202372D01*
X71848192Y-100151978D01*
X71145019Y-99448805D01*
X72740881Y-99448805D01*
X72825983Y-99696846D01*
X73436064Y-99806239D01*
X73986017Y-99696846D01*
X74071119Y-99448805D01*
X73406000Y-98783685D01*
X72740881Y-99448805D01*
X71145019Y-99448805D01*
X69944278Y-98248064D01*
X71817761Y-98248064D01*
X71927154Y-98798017D01*
X72175195Y-98883119D01*
X72840315Y-98218000D01*
X73971685Y-98218000D01*
X74636805Y-98883119D01*
X74884846Y-98798017D01*
X74994239Y-98187936D01*
X74884846Y-97637983D01*
X74636805Y-97552881D01*
X73971685Y-98218000D01*
X72840315Y-98218000D01*
X72175195Y-97552881D01*
X71927154Y-97637983D01*
X71817761Y-98248064D01*
X69944278Y-98248064D01*
X69287107Y-97590893D01*
X68962684Y-97374120D01*
X68580000Y-97298000D01*
X66294000Y-97298000D01*
X65911316Y-97374120D01*
X65586893Y-97590893D01*
X64152339Y-99025447D01*
X63668841Y-99121621D01*
X63165984Y-99457618D01*
X62992000Y-99718004D01*
X62818016Y-99457618D01*
X62722000Y-99393462D01*
X62722000Y-99220214D01*
X64955018Y-96987195D01*
X72740881Y-96987195D01*
X73406000Y-97652315D01*
X74071119Y-96987195D01*
X73986017Y-96739154D01*
X73375936Y-96629761D01*
X72825983Y-96739154D01*
X72740881Y-96987195D01*
X64955018Y-96987195D01*
X64969104Y-96973109D01*
X64969107Y-96973107D01*
X65185880Y-96648683D01*
X65262000Y-96266000D01*
X65262000Y-95378214D01*
X65586893Y-95703107D01*
X65911316Y-95919880D01*
X66294000Y-95996000D01*
X75438000Y-95996000D01*
X75820684Y-95919880D01*
X76145107Y-95703107D01*
X76360214Y-95488000D01*
X78067539Y-95488000D01*
X78151984Y-95614382D01*
X78440866Y-95807406D01*
X78540893Y-95957107D01*
X78865317Y-96173880D01*
X79248000Y-96250000D01*
X79630683Y-96173880D01*
X79955107Y-95957107D01*
X80055134Y-95807406D01*
X80344016Y-95614382D01*
X80680013Y-95111525D01*
X80798000Y-94518366D01*
X80798000Y-94457634D01*
X80680013Y-93864475D01*
X80344016Y-93361618D01*
X79841159Y-93025621D01*
X79248000Y-92907634D01*
X78654841Y-93025621D01*
X78151984Y-93361618D01*
X78067539Y-93488000D01*
X75946000Y-93488000D01*
X75563317Y-93564120D01*
X75238893Y-93780893D01*
X75238891Y-93780896D01*
X75023787Y-93996000D01*
X74761261Y-93996000D01*
X74955730Y-93527667D01*
X74956268Y-92911039D01*
X74720792Y-92341143D01*
X74285151Y-91904740D01*
X73715667Y-91668270D01*
X73099039Y-91667732D01*
X72529143Y-91903208D01*
X72468245Y-91964000D01*
X67982461Y-91964000D01*
X67898016Y-91837618D01*
X67395159Y-91501621D01*
X66802000Y-91383634D01*
X66208841Y-91501621D01*
X66024000Y-91625127D01*
X66024000Y-90901634D01*
X77698000Y-90901634D01*
X77698000Y-90962366D01*
X77815987Y-91555525D01*
X78151984Y-92058382D01*
X78654841Y-92394379D01*
X79248000Y-92512366D01*
X79841159Y-92394379D01*
X80344016Y-92058382D01*
X80680013Y-91555525D01*
X80798000Y-90962366D01*
X80798000Y-90901634D01*
X80680013Y-90308475D01*
X80344016Y-89805618D01*
X79841159Y-89469621D01*
X79248000Y-89351634D01*
X78654841Y-89469621D01*
X78151984Y-89805618D01*
X77815987Y-90308475D01*
X77698000Y-90901634D01*
X66024000Y-90901634D01*
X66024000Y-88900000D01*
X66185756Y-88900000D01*
X66326579Y-89607964D01*
X66727608Y-90208148D01*
X67327792Y-90609177D01*
X68035756Y-90750000D01*
X68108244Y-90750000D01*
X68816208Y-90609177D01*
X69416392Y-90208148D01*
X69817421Y-89607964D01*
X69958244Y-88900000D01*
X69817421Y-88192036D01*
X69416392Y-87591852D01*
X68816208Y-87190823D01*
X68108244Y-87050000D01*
X68035756Y-87050000D01*
X67327792Y-87190823D01*
X66727608Y-87591852D01*
X66326579Y-88192036D01*
X66185756Y-88900000D01*
X66024000Y-88900000D01*
X66024000Y-87884000D01*
X65947880Y-87501317D01*
X65731107Y-87176893D01*
X65731104Y-87176891D01*
X64967175Y-86412961D01*
X73633732Y-86412961D01*
X73869208Y-86982857D01*
X74106868Y-87220933D01*
X74058802Y-87251862D01*
X73887554Y-87502492D01*
X73827307Y-87800000D01*
X73827307Y-90000000D01*
X73879604Y-90277933D01*
X74043862Y-90533198D01*
X74294492Y-90704446D01*
X74592000Y-90764693D01*
X76792000Y-90764693D01*
X77069933Y-90712396D01*
X77325198Y-90548138D01*
X77496446Y-90297508D01*
X77556693Y-90000000D01*
X77556693Y-87800000D01*
X77504396Y-87522067D01*
X77340138Y-87266802D01*
X77089508Y-87095554D01*
X76792000Y-87035307D01*
X76447016Y-87035307D01*
X76497260Y-86985151D01*
X76733730Y-86415667D01*
X76734268Y-85799039D01*
X76498792Y-85229143D01*
X76063151Y-84792740D01*
X75493667Y-84556270D01*
X74877039Y-84555732D01*
X74307143Y-84791208D01*
X73870740Y-85226849D01*
X73634270Y-85796333D01*
X73633732Y-86412961D01*
X64967175Y-86412961D01*
X64868192Y-86313978D01*
X64755553Y-85747707D01*
X64470109Y-85320509D01*
X64629198Y-85218138D01*
X64800446Y-84967508D01*
X64830317Y-84820000D01*
X65179139Y-84820000D01*
X65233208Y-84950857D01*
X65668849Y-85387260D01*
X66238333Y-85623730D01*
X66854961Y-85624268D01*
X67424857Y-85388792D01*
X67508990Y-85304805D01*
X70882881Y-85304805D01*
X70967983Y-85552846D01*
X71578064Y-85662239D01*
X72128017Y-85552846D01*
X72213119Y-85304805D01*
X71548000Y-84639685D01*
X70882881Y-85304805D01*
X67508990Y-85304805D01*
X67861260Y-84953151D01*
X68097730Y-84383667D01*
X68098268Y-83767039D01*
X67862792Y-83197143D01*
X67707920Y-83042000D01*
X70340416Y-83042000D01*
X69544323Y-83838093D01*
X69996874Y-84290643D01*
X70069154Y-84654017D01*
X70317195Y-84739119D01*
X70982315Y-84074000D01*
X70699472Y-83791157D01*
X71265157Y-83225472D01*
X71548000Y-83508315D01*
X71830843Y-83225472D01*
X72396528Y-83791157D01*
X72113685Y-84074000D01*
X72778805Y-84739119D01*
X73026846Y-84654017D01*
X73090446Y-84299323D01*
X73551677Y-83838093D01*
X72755584Y-83042000D01*
X73753786Y-83042000D01*
X74243726Y-83531940D01*
X74293334Y-83652000D01*
X74588446Y-83947628D01*
X74974226Y-84107818D01*
X75391942Y-84108182D01*
X75778000Y-83948666D01*
X76073628Y-83653554D01*
X76233818Y-83267774D01*
X76234182Y-82850058D01*
X76074666Y-82464000D01*
X75890987Y-82280000D01*
X81534000Y-82280000D01*
X81916684Y-82203880D01*
X82241107Y-81987107D01*
X82436493Y-81791721D01*
X82718841Y-81980379D01*
X83312000Y-82098366D01*
X83593087Y-82042454D01*
X82400892Y-84677832D01*
X82397193Y-84693738D01*
X82388120Y-84707317D01*
X82353135Y-84883201D01*
X82312516Y-85057872D01*
X82315186Y-85073984D01*
X82312000Y-85090000D01*
X82312000Y-92026136D01*
X81998740Y-92338849D01*
X81762270Y-92908333D01*
X81761732Y-93524961D01*
X81997208Y-94094857D01*
X82432849Y-94531260D01*
X82551558Y-94580552D01*
X82252740Y-94878849D01*
X82016270Y-95448333D01*
X82015732Y-96064961D01*
X82251208Y-96634857D01*
X82651718Y-97036068D01*
X78540893Y-101146893D01*
X78324120Y-101471316D01*
X78324120Y-101471317D01*
X78248000Y-101854000D01*
X78248000Y-105996136D01*
X77934740Y-106308849D01*
X77698270Y-106878333D01*
X77697732Y-107494961D01*
X77933208Y-108064857D01*
X78368849Y-108501260D01*
X78938333Y-108737730D01*
X79554961Y-108738268D01*
X80124857Y-108502792D01*
X80561260Y-108067151D01*
X80660827Y-107827365D01*
X82141306Y-107827365D01*
X82249693Y-108058000D01*
X83166000Y-108058000D01*
X83166000Y-107149263D01*
X83966000Y-107149263D01*
X83966000Y-108058000D01*
X84882307Y-108058000D01*
X84990694Y-107827365D01*
X84640912Y-107330162D01*
X84196631Y-107033335D01*
X83966000Y-107149263D01*
X83166000Y-107149263D01*
X82935369Y-107033335D01*
X82491088Y-107330162D01*
X82141306Y-107827365D01*
X80660827Y-107827365D01*
X80797730Y-107497667D01*
X80798268Y-106881039D01*
X80562792Y-106311143D01*
X80248000Y-105995800D01*
X80248000Y-103614079D01*
X85883654Y-103614079D01*
X86187494Y-104349429D01*
X86749612Y-104912529D01*
X87484430Y-105217652D01*
X88280079Y-105218346D01*
X89015429Y-104914506D01*
X89578529Y-104352388D01*
X89883652Y-103617570D01*
X89884346Y-102821921D01*
X89580506Y-102086571D01*
X89018388Y-101523471D01*
X88283570Y-101218348D01*
X87487921Y-101217654D01*
X86752571Y-101521494D01*
X86189471Y-102083612D01*
X85884348Y-102818430D01*
X85883654Y-103614079D01*
X80248000Y-103614079D01*
X80248000Y-102268214D01*
X83902135Y-98614079D01*
X85883654Y-98614079D01*
X86187494Y-99349429D01*
X86749612Y-99912529D01*
X87484430Y-100217652D01*
X88280079Y-100218346D01*
X89015429Y-99914506D01*
X89578529Y-99352388D01*
X89883652Y-98617570D01*
X89884346Y-97821921D01*
X89580506Y-97086571D01*
X89018388Y-96523471D01*
X88283570Y-96218348D01*
X87487921Y-96217654D01*
X86752571Y-96521494D01*
X86189471Y-97083612D01*
X85884348Y-97818430D01*
X85883654Y-98614079D01*
X83902135Y-98614079D01*
X87353096Y-95163118D01*
X87484430Y-95217652D01*
X88280079Y-95218346D01*
X89015429Y-94914506D01*
X89578529Y-94352388D01*
X89883652Y-93617570D01*
X89884346Y-92821921D01*
X89580506Y-92086571D01*
X89018388Y-91523471D01*
X88283570Y-91218348D01*
X87487921Y-91217654D01*
X86752571Y-91521494D01*
X86189471Y-92083612D01*
X85884348Y-92818430D01*
X85883654Y-93614079D01*
X85939222Y-93748564D01*
X84843750Y-94844036D01*
X84445151Y-94444740D01*
X84326442Y-94395448D01*
X84625260Y-94097151D01*
X84861730Y-93527667D01*
X84862268Y-92911039D01*
X84626792Y-92341143D01*
X84312000Y-92025800D01*
X84312000Y-85305670D01*
X84762386Y-84310079D01*
X86137654Y-84310079D01*
X86441494Y-85045429D01*
X87003612Y-85608529D01*
X87738430Y-85913652D01*
X88534079Y-85914346D01*
X89269429Y-85610506D01*
X89832529Y-85048388D01*
X90137652Y-84313570D01*
X90138346Y-83517921D01*
X89834506Y-82782571D01*
X89272388Y-82219471D01*
X88537570Y-81914348D01*
X87741921Y-81913654D01*
X87006571Y-82217494D01*
X86443471Y-82779612D01*
X86138348Y-83514430D01*
X86137654Y-84310079D01*
X84762386Y-84310079D01*
X86613627Y-80217863D01*
X87003612Y-80608529D01*
X87738430Y-80913652D01*
X88534079Y-80914346D01*
X89269429Y-80610506D01*
X89832529Y-80048388D01*
X90137652Y-79313570D01*
X90138346Y-78517921D01*
X89834506Y-77782571D01*
X89272388Y-77219471D01*
X88537570Y-76914348D01*
X88108244Y-76913974D01*
X88566520Y-75900942D01*
X89269429Y-75610506D01*
X89832529Y-75048388D01*
X90137652Y-74313570D01*
X90138346Y-73517921D01*
X89834506Y-72782571D01*
X89272388Y-72219471D01*
X88537570Y-71914348D01*
X87741921Y-71913654D01*
X87006571Y-72217494D01*
X86443471Y-72779612D01*
X86138348Y-73514430D01*
X86137654Y-74310079D01*
X86441494Y-75045429D01*
X86659578Y-75263894D01*
X84637145Y-79734536D01*
X84408016Y-79391618D01*
X83905159Y-79055621D01*
X83312000Y-78937634D01*
X82718841Y-79055621D01*
X82215984Y-79391618D01*
X82106330Y-79555727D01*
X81913316Y-79594120D01*
X81588893Y-79810893D01*
X81119786Y-80280000D01*
X75852214Y-80280000D01*
X74660000Y-79087786D01*
X74660000Y-78538961D01*
X77697732Y-78538961D01*
X77933208Y-79108857D01*
X78368849Y-79545260D01*
X78938333Y-79781730D01*
X79554961Y-79782268D01*
X80124857Y-79546792D01*
X80561260Y-79111151D01*
X80797730Y-78541667D01*
X80798268Y-77925039D01*
X80562792Y-77355143D01*
X80127151Y-76918740D01*
X79557667Y-76682270D01*
X78941039Y-76681732D01*
X78371143Y-76917208D01*
X77934740Y-77352849D01*
X77698270Y-77922333D01*
X77697732Y-78538961D01*
X74660000Y-78538961D01*
X74660000Y-76962000D01*
X74583880Y-76579317D01*
X74367107Y-76254893D01*
X71053316Y-72941102D01*
X71120000Y-72954366D01*
X71713159Y-72836379D01*
X72216016Y-72500382D01*
X72300461Y-72374000D01*
X74024920Y-72374000D01*
X73751987Y-72782475D01*
X73634000Y-73375634D01*
X73634000Y-73436366D01*
X73751987Y-74029525D01*
X74087984Y-74532382D01*
X74590841Y-74868379D01*
X75184000Y-74986366D01*
X75777159Y-74868379D01*
X76280016Y-74532382D01*
X76616013Y-74029525D01*
X76668656Y-73764870D01*
X77190118Y-74286332D01*
X77189732Y-74728961D01*
X77425208Y-75298857D01*
X77860849Y-75735260D01*
X78430333Y-75971730D01*
X79046961Y-75972268D01*
X79616857Y-75736792D01*
X79700990Y-75652805D01*
X83074881Y-75652805D01*
X83159983Y-75900846D01*
X83770064Y-76010239D01*
X84320017Y-75900846D01*
X84405119Y-75652805D01*
X83740000Y-74987685D01*
X83074881Y-75652805D01*
X79700990Y-75652805D01*
X80053260Y-75301151D01*
X80289730Y-74731667D01*
X80289973Y-74452064D01*
X82151761Y-74452064D01*
X82261154Y-75002017D01*
X82509195Y-75087119D01*
X83174315Y-74422000D01*
X84305685Y-74422000D01*
X84970805Y-75087119D01*
X85218846Y-75002017D01*
X85328239Y-74391936D01*
X85218846Y-73841983D01*
X84970805Y-73756881D01*
X84305685Y-74422000D01*
X83174315Y-74422000D01*
X82509195Y-73756881D01*
X82261154Y-73841983D01*
X82151761Y-74452064D01*
X80289973Y-74452064D01*
X80290268Y-74115039D01*
X80054792Y-73545143D01*
X79701463Y-73191195D01*
X83074881Y-73191195D01*
X83740000Y-73856315D01*
X84405119Y-73191195D01*
X84320017Y-72943154D01*
X83709936Y-72833761D01*
X83159983Y-72943154D01*
X83074881Y-73191195D01*
X79701463Y-73191195D01*
X79619151Y-73108740D01*
X79049667Y-72872270D01*
X78604095Y-72871881D01*
X77280801Y-71548587D01*
X77344684Y-71535880D01*
X77669107Y-71319107D01*
X78347414Y-70640799D01*
X78486000Y-70668366D01*
X79079159Y-70550379D01*
X79582016Y-70214382D01*
X79756000Y-69953996D01*
X79929984Y-70214382D01*
X80432841Y-70550379D01*
X81026000Y-70668366D01*
X81619159Y-70550379D01*
X82008000Y-70290565D01*
X82008000Y-70338002D01*
X82673939Y-70338002D01*
X82935369Y-70512665D01*
X83166000Y-70396737D01*
X83166000Y-69488000D01*
X83966000Y-69488000D01*
X83966000Y-70396737D01*
X84196631Y-70512665D01*
X84640912Y-70215838D01*
X84990694Y-69718635D01*
X84882307Y-69488000D01*
X83966000Y-69488000D01*
X83166000Y-69488000D01*
X82766000Y-69488000D01*
X82766000Y-68688000D01*
X83166000Y-68688000D01*
X83166000Y-67779263D01*
X83966000Y-67779263D01*
X83966000Y-68688000D01*
X84882307Y-68688000D01*
X84990694Y-68457365D01*
X84640912Y-67960162D01*
X84196631Y-67663335D01*
X83966000Y-67779263D01*
X83166000Y-67779263D01*
X82935369Y-67663335D01*
X82673939Y-67837998D01*
X82008000Y-67837998D01*
X82008000Y-67885435D01*
X81619159Y-67625621D01*
X81026000Y-67507634D01*
X80432841Y-67625621D01*
X79929984Y-67961618D01*
X79756000Y-68222004D01*
X79582016Y-67961618D01*
X79079159Y-67625621D01*
X78486000Y-67507634D01*
X77892841Y-67625621D01*
X77416024Y-67944219D01*
X77294138Y-67754802D01*
X77043508Y-67583554D01*
X76746000Y-67523307D01*
X75146000Y-67523307D01*
X74868067Y-67575604D01*
X74612802Y-67739862D01*
X74441554Y-67990492D01*
X74381307Y-68288000D01*
X74381307Y-69612000D01*
X74012216Y-69612000D01*
X73289109Y-68888893D01*
X72964686Y-68672120D01*
X72582002Y-68596000D01*
X65438214Y-68596000D01*
X64754000Y-67911786D01*
X64754000Y-63476931D01*
X64897628Y-63333554D01*
X65057818Y-62947774D01*
X65058125Y-62595000D01*
X65752786Y-62595000D01*
X66856893Y-63699107D01*
X67060958Y-63835458D01*
X66830323Y-64066093D01*
X67066230Y-64302000D01*
X66830323Y-64537907D01*
X67650166Y-65357750D01*
X67500802Y-65453862D01*
X67329554Y-65704492D01*
X67269307Y-66002000D01*
X67269307Y-67602000D01*
X67321604Y-67879933D01*
X67485862Y-68135198D01*
X67736492Y-68306446D01*
X68034000Y-68366693D01*
X69634000Y-68366693D01*
X69911933Y-68314396D01*
X70167198Y-68150138D01*
X70338446Y-67899508D01*
X70398693Y-67602000D01*
X70398693Y-66156000D01*
X90029307Y-66156000D01*
X90029307Y-67956000D01*
X90081604Y-68233933D01*
X90245862Y-68489198D01*
X90496492Y-68660446D01*
X90794000Y-68720693D01*
X92594000Y-68720693D01*
X92871933Y-68668396D01*
X93127198Y-68504138D01*
X93298446Y-68253508D01*
X93358693Y-67956000D01*
X93358693Y-66156000D01*
X93306396Y-65878067D01*
X93142138Y-65622802D01*
X93010712Y-65533002D01*
X93091986Y-65451870D01*
X93343713Y-64845645D01*
X93344285Y-64189235D01*
X93093617Y-63582571D01*
X92629870Y-63118014D01*
X92023645Y-62866287D01*
X91367235Y-62865715D01*
X90760571Y-63116383D01*
X90296014Y-63580130D01*
X90044287Y-64186355D01*
X90043715Y-64842765D01*
X90294383Y-65449429D01*
X90377547Y-65532739D01*
X90260802Y-65607862D01*
X90089554Y-65858492D01*
X90029307Y-66156000D01*
X70398693Y-66156000D01*
X70398693Y-66002000D01*
X70346396Y-65724067D01*
X70182138Y-65468802D01*
X70018554Y-65357030D01*
X70837677Y-64537907D01*
X70601770Y-64302000D01*
X70837677Y-64066093D01*
X70763584Y-63992000D01*
X77216000Y-63992000D01*
X77598684Y-63915880D01*
X77923107Y-63699107D01*
X78595661Y-63026553D01*
X79079159Y-62930379D01*
X79582016Y-62594382D01*
X79756000Y-62333996D01*
X79929984Y-62594382D01*
X80432841Y-62930379D01*
X81026000Y-63048366D01*
X81619159Y-62930379D01*
X82122016Y-62594382D01*
X82296000Y-62333996D01*
X82469984Y-62594382D01*
X82972841Y-62930379D01*
X83566000Y-63048366D01*
X84159159Y-62930379D01*
X84662016Y-62594382D01*
X84998013Y-62091525D01*
X85116000Y-61498366D01*
X85116000Y-61437634D01*
X84998013Y-60844475D01*
X84662016Y-60341618D01*
X84159159Y-60005621D01*
X83566000Y-59887634D01*
X82972841Y-60005621D01*
X82469984Y-60341618D01*
X82296000Y-60602004D01*
X82122016Y-60341618D01*
X81619159Y-60005621D01*
X81026000Y-59887634D01*
X80887414Y-59915200D01*
X79708682Y-58736468D01*
X79609206Y-57443285D01*
X79613933Y-57442396D01*
X79869198Y-57278138D01*
X79987606Y-57104842D01*
X80413707Y-57389553D01*
X81026000Y-57511346D01*
X81638293Y-57389553D01*
X82157371Y-57042717D01*
X82296000Y-56835244D01*
X82434629Y-57042717D01*
X82953707Y-57389553D01*
X83566000Y-57511346D01*
X84178293Y-57389553D01*
X84697371Y-57042717D01*
X85044207Y-56523639D01*
X85100173Y-56242282D01*
X93984000Y-63114677D01*
X93984000Y-143131000D01*
X92108111Y-144537917D01*
X91651054Y-144537518D01*
X90628182Y-144960160D01*
X89844910Y-145742066D01*
X89547460Y-146458405D01*
X86022667Y-149102000D01*
X81225770Y-149102000D01*
X81456643Y-148871126D01*
X81820017Y-148798846D01*
X81905119Y-148550805D01*
X81240000Y-147885685D01*
X80957157Y-148168528D01*
X80391472Y-147602843D01*
X80674315Y-147320000D01*
X81805685Y-147320000D01*
X82470805Y-147985119D01*
X82718846Y-147900017D01*
X82828239Y-147289936D01*
X82718846Y-146739983D01*
X82470805Y-146654881D01*
X81805685Y-147320000D01*
X80674315Y-147320000D01*
X80391472Y-147037157D01*
X80957157Y-146471472D01*
X81240000Y-146754315D01*
X81905119Y-146089195D01*
X81820017Y-145841154D01*
X81465323Y-145777554D01*
X81004093Y-145316323D01*
X80184250Y-146136166D01*
X80088138Y-145986802D01*
X79837508Y-145815554D01*
X79540000Y-145755307D01*
X77940000Y-145755307D01*
X77662067Y-145807604D01*
X77406802Y-145971862D01*
X77235554Y-146222492D01*
X77175307Y-146520000D01*
X77175307Y-148120000D01*
X77227604Y-148397933D01*
X77391862Y-148653198D01*
X77642492Y-148824446D01*
X77940000Y-148884693D01*
X79540000Y-148884693D01*
X79817933Y-148832396D01*
X80073198Y-148668138D01*
X80184970Y-148504554D01*
X80782416Y-149102000D01*
X73445089Y-149102000D01*
X73569198Y-149022138D01*
X73740446Y-148771508D01*
X73800693Y-148474000D01*
X73800693Y-146674000D01*
X73748396Y-146396067D01*
X73584138Y-146140802D01*
X73333508Y-145969554D01*
X73036000Y-145909307D01*
X71236000Y-145909307D01*
X70958067Y-145961604D01*
X70702802Y-146125862D01*
X70592206Y-146287725D01*
X70290097Y-146068246D01*
X70046000Y-146167704D01*
X70046000Y-147124000D01*
X70471307Y-147124000D01*
X70471307Y-148024000D01*
X70046000Y-148024000D01*
X70046000Y-148474000D01*
X69146000Y-148474000D01*
X69146000Y-148024000D01*
X68696000Y-148024000D01*
X68696000Y-147786781D01*
X68738325Y-147574000D01*
X68696000Y-147361219D01*
X68696000Y-147124000D01*
X69146000Y-147124000D01*
X69146000Y-146167704D01*
X68901903Y-146068246D01*
X68549864Y-146323998D01*
X68130420Y-146323998D01*
X67719753Y-146049599D01*
X67088325Y-145924000D01*
X67023675Y-145924000D01*
X66392247Y-146049599D01*
X65856949Y-146407274D01*
X65499274Y-146942572D01*
X65373675Y-147574000D01*
X65499274Y-148205428D01*
X65856949Y-148740726D01*
X66392247Y-149098401D01*
X66410340Y-149102000D01*
X62929285Y-149102000D01*
X63018446Y-148971508D01*
X63078693Y-148674000D01*
X63078693Y-146474000D01*
X63026396Y-146196067D01*
X62862138Y-145940802D01*
X62611508Y-145769554D01*
X62314000Y-145709307D01*
X60763521Y-145709307D01*
X60143107Y-145088893D01*
X59818684Y-144872120D01*
X59436000Y-144796000D01*
X54864000Y-144796000D01*
X54481316Y-144872120D01*
X54156893Y-145088893D01*
X53536479Y-145709307D01*
X52748000Y-145709307D01*
X52470067Y-145761604D01*
X52214802Y-145925862D01*
X52043554Y-146176492D01*
X51983307Y-146474000D01*
X51983307Y-148674000D01*
X52035604Y-148951933D01*
X52132169Y-149102000D01*
X51753285Y-149102000D01*
X51842446Y-148971508D01*
X51902693Y-148674000D01*
X51902693Y-146474000D01*
X51850396Y-146196067D01*
X51686138Y-145940802D01*
X51435508Y-145769554D01*
X51138000Y-145709307D01*
X48938000Y-145709307D01*
X48660067Y-145761604D01*
X48404802Y-145925862D01*
X48233554Y-146176492D01*
X48173307Y-146474000D01*
X48173307Y-148674000D01*
X48225604Y-148951933D01*
X48322169Y-149102000D01*
X47584693Y-149102000D01*
X47584693Y-147490000D01*
X47532396Y-147212067D01*
X47368138Y-146956802D01*
X47117508Y-146785554D01*
X46820000Y-146725307D01*
X44620000Y-146725307D01*
X44342067Y-146777604D01*
X44086802Y-146941862D01*
X43915554Y-147192492D01*
X43855307Y-147490000D01*
X43855307Y-149102000D01*
X33885554Y-149102000D01*
X32552697Y-147769143D01*
X33893160Y-147769143D01*
X33984756Y-148040000D01*
X35010000Y-148040000D01*
X35010000Y-147004736D01*
X36110000Y-147004736D01*
X36110000Y-148040000D01*
X37135244Y-148040000D01*
X37226840Y-147769143D01*
X36956264Y-147364139D01*
X36380863Y-146923125D01*
X36110000Y-147004736D01*
X35010000Y-147004736D01*
X34739137Y-146923125D01*
X34163736Y-147364139D01*
X33893160Y-147769143D01*
X32552697Y-147769143D01*
X30130411Y-145346857D01*
X33893160Y-145346857D01*
X34163736Y-145751861D01*
X34739137Y-146192875D01*
X35010000Y-146111264D01*
X35010000Y-145076000D01*
X36110000Y-145076000D01*
X36110000Y-146111264D01*
X36380863Y-146192875D01*
X36956264Y-145751861D01*
X37226840Y-145346857D01*
X37135244Y-145076000D01*
X36110000Y-145076000D01*
X35010000Y-145076000D01*
X33984756Y-145076000D01*
X33893160Y-145346857D01*
X30130411Y-145346857D01*
X28488697Y-143705143D01*
X33893160Y-143705143D01*
X33984756Y-143976000D01*
X35010000Y-143976000D01*
X35010000Y-142940736D01*
X36110000Y-142940736D01*
X36110000Y-143976000D01*
X37135244Y-143976000D01*
X37226840Y-143705143D01*
X37040350Y-143426000D01*
X43855307Y-143426000D01*
X43855307Y-145626000D01*
X43907604Y-145903933D01*
X44071862Y-146159198D01*
X44322492Y-146330446D01*
X44620000Y-146390693D01*
X46820000Y-146390693D01*
X47097933Y-146338396D01*
X47353198Y-146174138D01*
X47524446Y-145923508D01*
X47584693Y-145626000D01*
X47584693Y-143426000D01*
X47532396Y-143148067D01*
X47368138Y-142892802D01*
X47117508Y-142721554D01*
X46820000Y-142661307D01*
X44620000Y-142661307D01*
X44342067Y-142713604D01*
X44086802Y-142877862D01*
X43915554Y-143128492D01*
X43855307Y-143426000D01*
X37040350Y-143426000D01*
X36956264Y-143300139D01*
X36380863Y-142859125D01*
X36110000Y-142940736D01*
X35010000Y-142940736D01*
X34739137Y-142859125D01*
X34163736Y-143300139D01*
X33893160Y-143705143D01*
X28488697Y-143705143D01*
X25650000Y-140866446D01*
X25650000Y-132616000D01*
X29077307Y-132616000D01*
X29077307Y-136116000D01*
X29129604Y-136393933D01*
X29293862Y-136649198D01*
X29544492Y-136820446D01*
X29842000Y-136880693D01*
X32231708Y-136880693D01*
X32137554Y-137018492D01*
X32077307Y-137316000D01*
X32077307Y-140816000D01*
X32129604Y-141093933D01*
X32293862Y-141349198D01*
X32544492Y-141520446D01*
X32842000Y-141580693D01*
X36342000Y-141580693D01*
X36619933Y-141528396D01*
X36875198Y-141364138D01*
X37046446Y-141113508D01*
X37106693Y-140816000D01*
X37106693Y-138522569D01*
X41683696Y-138522569D01*
X41949557Y-139166001D01*
X42441410Y-139658713D01*
X43084376Y-139925696D01*
X43780569Y-139926304D01*
X44275246Y-139721907D01*
X65560323Y-139721907D01*
X66380166Y-140541750D01*
X66230802Y-140637862D01*
X66059554Y-140888492D01*
X65999307Y-141186000D01*
X65999307Y-142786000D01*
X66051604Y-143063933D01*
X66215862Y-143319198D01*
X66466492Y-143490446D01*
X66764000Y-143550693D01*
X68364000Y-143550693D01*
X68641933Y-143498396D01*
X68897198Y-143334138D01*
X69068446Y-143083508D01*
X69125663Y-142800961D01*
X72617732Y-142800961D01*
X72853208Y-143370857D01*
X73288849Y-143807260D01*
X73858333Y-144043730D01*
X74474961Y-144044268D01*
X75044857Y-143808792D01*
X75481260Y-143373151D01*
X75584452Y-143124635D01*
X77061306Y-143124635D01*
X77411088Y-143621838D01*
X77855369Y-143918665D01*
X78086000Y-143802737D01*
X78086000Y-142894000D01*
X78886000Y-142894000D01*
X78886000Y-143802737D01*
X79116631Y-143918665D01*
X79560912Y-143621838D01*
X79910694Y-143124635D01*
X79802307Y-142894000D01*
X78886000Y-142894000D01*
X78086000Y-142894000D01*
X77169693Y-142894000D01*
X77061306Y-143124635D01*
X75584452Y-143124635D01*
X75717730Y-142803667D01*
X75718026Y-142463634D01*
X81508000Y-142463634D01*
X81508000Y-142524366D01*
X81625987Y-143117525D01*
X81961984Y-143620382D01*
X82464841Y-143956379D01*
X83058000Y-144074366D01*
X83651159Y-143956379D01*
X84154016Y-143620382D01*
X84490013Y-143117525D01*
X84608000Y-142524366D01*
X84608000Y-142463634D01*
X84490013Y-141870475D01*
X84154016Y-141367618D01*
X83651159Y-141031621D01*
X83058000Y-140913634D01*
X82464841Y-141031621D01*
X81961984Y-141367618D01*
X81625987Y-141870475D01*
X81508000Y-142463634D01*
X75718026Y-142463634D01*
X75718268Y-142187039D01*
X75584529Y-141863365D01*
X77061306Y-141863365D01*
X77169693Y-142094000D01*
X78086000Y-142094000D01*
X78086000Y-141185263D01*
X78886000Y-141185263D01*
X78886000Y-142094000D01*
X79802307Y-142094000D01*
X79910694Y-141863365D01*
X79560912Y-141366162D01*
X79116631Y-141069335D01*
X78886000Y-141185263D01*
X78086000Y-141185263D01*
X77855369Y-141069335D01*
X77411088Y-141366162D01*
X77061306Y-141863365D01*
X75584529Y-141863365D01*
X75482792Y-141617143D01*
X75047151Y-141180740D01*
X74477667Y-140944270D01*
X73861039Y-140943732D01*
X73291143Y-141179208D01*
X72854740Y-141614849D01*
X72618270Y-142184333D01*
X72617732Y-142800961D01*
X69125663Y-142800961D01*
X69128693Y-142786000D01*
X69128693Y-141186000D01*
X69076396Y-140908067D01*
X68912138Y-140652802D01*
X68748554Y-140541030D01*
X69567677Y-139721907D01*
X69115126Y-139269357D01*
X69042846Y-138905983D01*
X68794805Y-138820881D01*
X68129685Y-139486000D01*
X68412528Y-139768843D01*
X67846843Y-140334528D01*
X67564000Y-140051685D01*
X67281157Y-140334528D01*
X66715472Y-139768843D01*
X66998315Y-139486000D01*
X66333195Y-138820881D01*
X66085154Y-138905983D01*
X66021554Y-139260677D01*
X65560323Y-139721907D01*
X44275246Y-139721907D01*
X44424001Y-139660443D01*
X44916713Y-139168590D01*
X45183696Y-138525624D01*
X45184304Y-137829431D01*
X44997676Y-137377756D01*
X48188000Y-137377756D01*
X48188000Y-137450244D01*
X48328823Y-138158208D01*
X48729852Y-138758392D01*
X49330036Y-139159421D01*
X50038000Y-139300244D01*
X50745964Y-139159421D01*
X51346148Y-138758392D01*
X51747177Y-138158208D01*
X51888000Y-137450244D01*
X51888000Y-137377756D01*
X51998000Y-137377756D01*
X51998000Y-137450244D01*
X52138823Y-138158208D01*
X52539852Y-138758392D01*
X53140036Y-139159421D01*
X53848000Y-139300244D01*
X54555964Y-139159421D01*
X55156148Y-138758392D01*
X55557177Y-138158208D01*
X55626000Y-137812212D01*
X55694823Y-138158208D01*
X56095852Y-138758392D01*
X56696036Y-139159421D01*
X57404000Y-139300244D01*
X58111964Y-139159421D01*
X58712148Y-138758392D01*
X59113177Y-138158208D01*
X59254000Y-137450244D01*
X59254000Y-137377756D01*
X59364000Y-137377756D01*
X59364000Y-137450244D01*
X59504823Y-138158208D01*
X59905852Y-138758392D01*
X60506036Y-139159421D01*
X61214000Y-139300244D01*
X61921964Y-139159421D01*
X62522148Y-138758392D01*
X62858372Y-138255195D01*
X66898881Y-138255195D01*
X67564000Y-138920315D01*
X68229119Y-138255195D01*
X68144017Y-138007154D01*
X67533936Y-137897761D01*
X66983983Y-138007154D01*
X66898881Y-138255195D01*
X62858372Y-138255195D01*
X62923177Y-138158208D01*
X63064000Y-137450244D01*
X63064000Y-137377756D01*
X62923177Y-136669792D01*
X62522148Y-136069608D01*
X61921964Y-135668579D01*
X61214000Y-135527756D01*
X60506036Y-135668579D01*
X59905852Y-136069608D01*
X59504823Y-136669792D01*
X59364000Y-137377756D01*
X59254000Y-137377756D01*
X59113177Y-136669792D01*
X58712148Y-136069608D01*
X58111964Y-135668579D01*
X57404000Y-135527756D01*
X56696036Y-135668579D01*
X56095852Y-136069608D01*
X55694823Y-136669792D01*
X55626000Y-137015788D01*
X55557177Y-136669792D01*
X55156148Y-136069608D01*
X54555964Y-135668579D01*
X53848000Y-135527756D01*
X53140036Y-135668579D01*
X52539852Y-136069608D01*
X52138823Y-136669792D01*
X51998000Y-137377756D01*
X51888000Y-137377756D01*
X51747177Y-136669792D01*
X51346148Y-136069608D01*
X50745964Y-135668579D01*
X50038000Y-135527756D01*
X49330036Y-135668579D01*
X48729852Y-136069608D01*
X48328823Y-136669792D01*
X48188000Y-137377756D01*
X44997676Y-137377756D01*
X44918443Y-137185999D01*
X44426590Y-136693287D01*
X43783624Y-136426304D01*
X43087431Y-136425696D01*
X42443999Y-136691557D01*
X41951287Y-137183410D01*
X41684304Y-137826376D01*
X41683696Y-138522569D01*
X37106693Y-138522569D01*
X37106693Y-137316000D01*
X37054396Y-137038067D01*
X36953129Y-136880693D01*
X39342000Y-136880693D01*
X39619933Y-136828396D01*
X39875198Y-136664138D01*
X40046446Y-136413508D01*
X40106693Y-136116000D01*
X40106693Y-135516805D01*
X67660881Y-135516805D01*
X67745983Y-135764846D01*
X68356064Y-135874239D01*
X68906017Y-135764846D01*
X68991119Y-135516805D01*
X68326000Y-134851685D01*
X67660881Y-135516805D01*
X40106693Y-135516805D01*
X40106693Y-132616000D01*
X40071049Y-132426569D01*
X41683696Y-132426569D01*
X41949557Y-133070001D01*
X42441410Y-133562713D01*
X43084376Y-133829696D01*
X43780569Y-133830304D01*
X44424001Y-133564443D01*
X44916713Y-133072590D01*
X45183696Y-132429624D01*
X45184304Y-131733431D01*
X44918443Y-131089999D01*
X44426590Y-130597287D01*
X43783624Y-130330304D01*
X43087431Y-130329696D01*
X42443999Y-130595557D01*
X41951287Y-131087410D01*
X41684304Y-131730376D01*
X41683696Y-132426569D01*
X40071049Y-132426569D01*
X40054396Y-132338067D01*
X39890138Y-132082802D01*
X39639508Y-131911554D01*
X39342000Y-131851307D01*
X35842000Y-131851307D01*
X35564067Y-131903604D01*
X35308802Y-132067862D01*
X35137554Y-132318492D01*
X35077307Y-132616000D01*
X35077307Y-136116000D01*
X35129604Y-136393933D01*
X35230871Y-136551307D01*
X33952292Y-136551307D01*
X34046446Y-136413508D01*
X34106693Y-136116000D01*
X34106693Y-132616000D01*
X34054396Y-132338067D01*
X33890138Y-132082802D01*
X33639508Y-131911554D01*
X33342000Y-131851307D01*
X29842000Y-131851307D01*
X29564067Y-131903604D01*
X29308802Y-132067862D01*
X29137554Y-132318492D01*
X29077307Y-132616000D01*
X25650000Y-132616000D01*
X25650000Y-124484000D01*
X25675307Y-124484000D01*
X25675307Y-127484000D01*
X25727604Y-127761933D01*
X25891862Y-128017198D01*
X26142492Y-128188446D01*
X26440000Y-128248693D01*
X29440000Y-128248693D01*
X29717933Y-128196396D01*
X29973198Y-128032138D01*
X30144446Y-127781508D01*
X30204693Y-127484000D01*
X30204693Y-124484000D01*
X30152396Y-124206067D01*
X29988138Y-123950802D01*
X29737508Y-123779554D01*
X29440000Y-123719307D01*
X26440000Y-123719307D01*
X26162067Y-123771604D01*
X25906802Y-123935862D01*
X25735554Y-124186492D01*
X25675307Y-124484000D01*
X25650000Y-124484000D01*
X25650000Y-121349589D01*
X25689610Y-121349589D01*
X26031431Y-122176858D01*
X26663813Y-122810345D01*
X27490484Y-123153608D01*
X28385589Y-123154390D01*
X29212858Y-122812569D01*
X29846345Y-122180187D01*
X30189608Y-121353516D01*
X30190390Y-120458411D01*
X29848569Y-119631142D01*
X29216187Y-118997655D01*
X28389516Y-118654392D01*
X27494411Y-118653610D01*
X26667142Y-118995431D01*
X26033655Y-119627813D01*
X25690392Y-120454484D01*
X25689610Y-121349589D01*
X25650000Y-121349589D01*
X25650000Y-110667500D01*
X25682000Y-110667500D01*
X25682000Y-111378776D01*
X25797399Y-111657373D01*
X26010628Y-111870602D01*
X26289225Y-111986000D01*
X27000500Y-111986000D01*
X27190000Y-111796500D01*
X27190000Y-110478000D01*
X28690000Y-110478000D01*
X28690000Y-111796500D01*
X28879500Y-111986000D01*
X29590775Y-111986000D01*
X29869372Y-111870602D01*
X30082601Y-111657373D01*
X30198000Y-111378776D01*
X30198000Y-110667500D01*
X30008500Y-110478000D01*
X28690000Y-110478000D01*
X27190000Y-110478000D01*
X25871500Y-110478000D01*
X25682000Y-110667500D01*
X25650000Y-110667500D01*
X25650000Y-108077224D01*
X25682000Y-108077224D01*
X25682000Y-108788500D01*
X25871500Y-108978000D01*
X27190000Y-108978000D01*
X27190000Y-107659500D01*
X28690000Y-107659500D01*
X28690000Y-108978000D01*
X30008500Y-108978000D01*
X30198000Y-108788500D01*
X30198000Y-108077224D01*
X30082601Y-107798627D01*
X29869372Y-107585398D01*
X29590775Y-107470000D01*
X28879500Y-107470000D01*
X28690000Y-107659500D01*
X27190000Y-107659500D01*
X27000500Y-107470000D01*
X26289225Y-107470000D01*
X26010628Y-107585398D01*
X25797399Y-107798627D01*
X25682000Y-108077224D01*
X25650000Y-108077224D01*
X25650000Y-103780961D01*
X27581699Y-103780961D01*
X27775361Y-104055784D01*
X28669149Y-104145592D01*
X29120639Y-104055784D01*
X29314301Y-103780961D01*
X28448000Y-102914660D01*
X27581699Y-103780961D01*
X25650000Y-103780961D01*
X25650000Y-102075149D01*
X26156408Y-102075149D01*
X26246216Y-102526639D01*
X26521039Y-102720301D01*
X27387340Y-101854000D01*
X29508660Y-101854000D01*
X30374961Y-102720301D01*
X30649784Y-102526639D01*
X30739592Y-101632851D01*
X30649784Y-101181361D01*
X30374961Y-100987699D01*
X29508660Y-101854000D01*
X27387340Y-101854000D01*
X26521039Y-100987699D01*
X26246216Y-101181361D01*
X26156408Y-102075149D01*
X25650000Y-102075149D01*
X25650000Y-99927039D01*
X27581699Y-99927039D01*
X28448000Y-100793340D01*
X29314301Y-99927039D01*
X29120639Y-99652216D01*
X28226851Y-99562408D01*
X27775361Y-99652216D01*
X27581699Y-99927039D01*
X25650000Y-99927039D01*
X25650000Y-97219589D01*
X26197610Y-97219589D01*
X26539431Y-98046858D01*
X27171813Y-98680345D01*
X27998484Y-99023608D01*
X28893589Y-99024390D01*
X29720858Y-98682569D01*
X30354345Y-98050187D01*
X30697608Y-97223516D01*
X30698254Y-96483756D01*
X32694000Y-96483756D01*
X32694000Y-96556244D01*
X32834823Y-97264208D01*
X33235852Y-97864392D01*
X33583790Y-98096876D01*
X33447984Y-98187618D01*
X33111987Y-98690475D01*
X32994000Y-99283634D01*
X32994000Y-99344366D01*
X33111987Y-99937525D01*
X33447984Y-100440382D01*
X33950841Y-100776379D01*
X34544000Y-100894366D01*
X35137159Y-100776379D01*
X35640016Y-100440382D01*
X35976013Y-99937525D01*
X36094000Y-99344366D01*
X36094000Y-99283634D01*
X35976013Y-98690475D01*
X35640016Y-98187618D01*
X35504210Y-98096876D01*
X35852148Y-97864392D01*
X36253177Y-97264208D01*
X36394000Y-96556244D01*
X36394000Y-96483756D01*
X36253177Y-95775792D01*
X35852148Y-95175608D01*
X35251964Y-94774579D01*
X34544000Y-94633756D01*
X33836036Y-94774579D01*
X33235852Y-95175608D01*
X32834823Y-95775792D01*
X32694000Y-96483756D01*
X30698254Y-96483756D01*
X30698390Y-96328411D01*
X30356569Y-95501142D01*
X29724187Y-94867655D01*
X28897516Y-94524392D01*
X28002411Y-94523610D01*
X27175142Y-94865431D01*
X26541655Y-95497813D01*
X26198392Y-96324484D01*
X26197610Y-97219589D01*
X25650000Y-97219589D01*
X25650000Y-90194000D01*
X26183307Y-90194000D01*
X26183307Y-93194000D01*
X26235604Y-93471933D01*
X26399862Y-93727198D01*
X26650492Y-93898446D01*
X26948000Y-93958693D01*
X29948000Y-93958693D01*
X30225933Y-93906396D01*
X30481198Y-93742138D01*
X30652446Y-93491508D01*
X30712693Y-93194000D01*
X30712693Y-90194000D01*
X30660396Y-89916067D01*
X30496138Y-89660802D01*
X30245508Y-89489554D01*
X29948000Y-89429307D01*
X26948000Y-89429307D01*
X26670067Y-89481604D01*
X26414802Y-89645862D01*
X26243554Y-89896492D01*
X26183307Y-90194000D01*
X25650000Y-90194000D01*
X25650000Y-85120225D01*
X25798214Y-85021192D01*
X26231759Y-84372345D01*
X26384000Y-83606978D01*
X26384000Y-83200942D01*
X26621925Y-83299737D01*
X27223436Y-83300262D01*
X27779360Y-83070559D01*
X28205064Y-82645598D01*
X28435737Y-82090075D01*
X28436262Y-81488564D01*
X28206559Y-80932640D01*
X27792643Y-80518000D01*
X28690329Y-80518000D01*
X28937721Y-81761721D01*
X29642232Y-82816097D01*
X30696608Y-83520608D01*
X31940329Y-83768000D01*
X32067671Y-83768000D01*
X33311392Y-83520608D01*
X34365768Y-82816097D01*
X34862914Y-82072064D01*
X46671761Y-82072064D01*
X46781154Y-82622017D01*
X47029195Y-82707119D01*
X47694315Y-82042000D01*
X48825685Y-82042000D01*
X49490805Y-82707119D01*
X49738846Y-82622017D01*
X49848239Y-82011936D01*
X49738846Y-81461983D01*
X49490805Y-81376881D01*
X48825685Y-82042000D01*
X47694315Y-82042000D01*
X47029195Y-81376881D01*
X46781154Y-81461983D01*
X46671761Y-82072064D01*
X34862914Y-82072064D01*
X35070279Y-81761721D01*
X35259350Y-80811195D01*
X47594881Y-80811195D01*
X48260000Y-81476315D01*
X48925119Y-80811195D01*
X48840017Y-80563154D01*
X48229936Y-80453761D01*
X47679983Y-80563154D01*
X47594881Y-80811195D01*
X35259350Y-80811195D01*
X35317671Y-80518000D01*
X35070279Y-79274279D01*
X34365768Y-78219903D01*
X33564937Y-77684805D01*
X47594881Y-77684805D01*
X47679983Y-77932846D01*
X48290064Y-78042239D01*
X48840017Y-77932846D01*
X48925119Y-77684805D01*
X48260000Y-77019685D01*
X47594881Y-77684805D01*
X33564937Y-77684805D01*
X33311392Y-77515392D01*
X32067671Y-77268000D01*
X31940329Y-77268000D01*
X30696608Y-77515392D01*
X29642232Y-78219903D01*
X28937721Y-79274279D01*
X28690329Y-80518000D01*
X27792643Y-80518000D01*
X27781598Y-80506936D01*
X27546500Y-80409315D01*
X26924000Y-79786815D01*
X26301653Y-80409162D01*
X26068640Y-80505441D01*
X25650000Y-80923350D01*
X25650000Y-80040225D01*
X25798214Y-79941192D01*
X26012107Y-79621078D01*
X26385185Y-79248000D01*
X27462815Y-79248000D01*
X28116770Y-79901955D01*
X28363265Y-79822745D01*
X28473653Y-79228212D01*
X28363265Y-78673255D01*
X28116770Y-78594045D01*
X27462815Y-79248000D01*
X26385185Y-79248000D01*
X26264571Y-79127386D01*
X26338463Y-78755907D01*
X26654593Y-78439778D01*
X26924000Y-78709185D01*
X27577955Y-78055230D01*
X27498745Y-77808735D01*
X27196361Y-77752591D01*
X26715489Y-77271719D01*
X26384000Y-77603208D01*
X26384000Y-77429022D01*
X26231759Y-76663655D01*
X26111761Y-76484064D01*
X46671761Y-76484064D01*
X46781154Y-77034017D01*
X47029195Y-77119119D01*
X47694315Y-76454000D01*
X48825685Y-76454000D01*
X49490805Y-77119119D01*
X49738846Y-77034017D01*
X49787807Y-76760961D01*
X51709732Y-76760961D01*
X51945208Y-77330857D01*
X52380849Y-77767260D01*
X52950333Y-78003730D01*
X53566961Y-78004268D01*
X54136857Y-77768792D01*
X54573260Y-77333151D01*
X54809730Y-76763667D01*
X54810268Y-76147039D01*
X54574792Y-75577143D01*
X54139151Y-75140740D01*
X53569667Y-74904270D01*
X52953039Y-74903732D01*
X52383143Y-75139208D01*
X51946740Y-75574849D01*
X51710270Y-76144333D01*
X51709732Y-76760961D01*
X49787807Y-76760961D01*
X49848239Y-76423936D01*
X49738846Y-75873983D01*
X49490805Y-75788881D01*
X48825685Y-76454000D01*
X47694315Y-76454000D01*
X47029195Y-75788881D01*
X46781154Y-75873983D01*
X46671761Y-76484064D01*
X26111761Y-76484064D01*
X25798214Y-76014808D01*
X25650000Y-75915775D01*
X25650000Y-75223195D01*
X47594881Y-75223195D01*
X48260000Y-75888315D01*
X48925119Y-75223195D01*
X48840017Y-74975154D01*
X48229936Y-74865761D01*
X47679983Y-74975154D01*
X47594881Y-75223195D01*
X25650000Y-75223195D01*
X25650000Y-73564294D01*
X33592301Y-73564294D01*
X33762679Y-73833597D01*
X34595992Y-73927748D01*
X35069321Y-73833597D01*
X35239699Y-73564294D01*
X34416000Y-72740594D01*
X33592301Y-73564294D01*
X25650000Y-73564294D01*
X25650000Y-71965992D01*
X32274252Y-71965992D01*
X32368403Y-72439321D01*
X32637706Y-72609699D01*
X33461406Y-71786000D01*
X35370594Y-71786000D01*
X36194294Y-72609699D01*
X36463597Y-72439321D01*
X36557748Y-71606008D01*
X36463597Y-71132679D01*
X36194294Y-70962301D01*
X35370594Y-71786000D01*
X33461406Y-71786000D01*
X32637706Y-70962301D01*
X32368403Y-71132679D01*
X32274252Y-71965992D01*
X25650000Y-71965992D01*
X25650000Y-70007706D01*
X33592301Y-70007706D01*
X34416000Y-70831406D01*
X35239699Y-70007706D01*
X35069321Y-69738403D01*
X34236008Y-69644252D01*
X33762679Y-69738403D01*
X33592301Y-70007706D01*
X25650000Y-70007706D01*
X25650000Y-67075247D01*
X35568381Y-67075247D01*
X35678821Y-67630466D01*
X35925233Y-67709366D01*
X36578599Y-67056000D01*
X35925233Y-66402634D01*
X35678821Y-66481534D01*
X35568381Y-67075247D01*
X25650000Y-67075247D01*
X25650000Y-62230000D01*
X25630304Y-62132736D01*
X25574318Y-62050798D01*
X25490864Y-61997097D01*
X25400000Y-61980000D01*
X24987554Y-61980000D01*
X25403260Y-61564294D01*
X33592301Y-61564294D01*
X33762679Y-61833597D01*
X34595992Y-61927748D01*
X35069321Y-61833597D01*
X35239699Y-61564294D01*
X34416000Y-60740594D01*
X33592301Y-61564294D01*
X25403260Y-61564294D01*
X27001562Y-59965992D01*
X32274252Y-59965992D01*
X32368403Y-60439321D01*
X32637706Y-60609699D01*
X33461406Y-59786000D01*
X35370594Y-59786000D01*
X36194294Y-60609699D01*
X36463597Y-60439321D01*
X36557748Y-59606008D01*
X36463597Y-59132679D01*
X36194294Y-58962301D01*
X35370594Y-59786000D01*
X33461406Y-59786000D01*
X32637706Y-58962301D01*
X32368403Y-59132679D01*
X32274252Y-59965992D01*
X27001562Y-59965992D01*
X28959848Y-58007706D01*
X33592301Y-58007706D01*
X34416000Y-58831406D01*
X35239699Y-58007706D01*
X35069321Y-57738403D01*
X34236008Y-57644252D01*
X33762679Y-57738403D01*
X33592301Y-58007706D01*
X28959848Y-58007706D01*
X29067234Y-57900320D01*
X29252946Y-57900482D01*
X30275818Y-57477840D01*
X31059090Y-56695934D01*
X31483516Y-55673802D01*
X31483682Y-55483872D01*
X34326554Y-52641000D01*
X63753622Y-52641000D01*
X76989873Y-52786453D01*
X76989873Y-52786453D01*
G37*
X76989873Y-52786453D02*
X76886000Y-53308654D01*
X76886000Y-53371346D01*
X76948390Y-53685000D01*
X58420000Y-53685000D01*
X58066017Y-53755411D01*
X57765926Y-53955926D01*
X55479926Y-56241926D01*
X55279411Y-56542017D01*
X55279411Y-56542018D01*
X55209000Y-56896000D01*
X55209000Y-57661267D01*
X54820740Y-58048849D01*
X54584270Y-58618333D01*
X54583732Y-59234961D01*
X54819208Y-59804857D01*
X55254849Y-60241260D01*
X55824333Y-60477730D01*
X56440961Y-60478268D01*
X57010857Y-60242792D01*
X57447260Y-59807151D01*
X57640219Y-59342452D01*
X60490655Y-59342452D01*
X60606759Y-59598448D01*
X61298358Y-59702455D01*
X61821241Y-59598448D01*
X61937345Y-59342452D01*
X61214000Y-58619107D01*
X60490655Y-59342452D01*
X57640219Y-59342452D01*
X57683730Y-59237667D01*
X57684268Y-58621039D01*
X57448792Y-58051143D01*
X57394103Y-57996358D01*
X59423545Y-57996358D01*
X59527552Y-58519241D01*
X59783548Y-58635345D01*
X60506893Y-57912000D01*
X61921107Y-57912000D01*
X62644452Y-58635345D01*
X62900448Y-58519241D01*
X62939649Y-58258569D01*
X64543696Y-58258569D01*
X64809557Y-58902001D01*
X65301410Y-59394713D01*
X65944376Y-59661696D01*
X66640569Y-59662304D01*
X67284001Y-59396443D01*
X67776713Y-58904590D01*
X68043696Y-58261624D01*
X68043698Y-58258569D01*
X69369696Y-58258569D01*
X69635557Y-58902001D01*
X70127410Y-59394713D01*
X70770376Y-59661696D01*
X71466569Y-59662304D01*
X72110001Y-59396443D01*
X72602713Y-58904590D01*
X72869696Y-58261624D01*
X72870304Y-57565431D01*
X72604443Y-56921999D01*
X72112590Y-56429287D01*
X71469624Y-56162304D01*
X70773431Y-56161696D01*
X70129999Y-56427557D01*
X69637287Y-56919410D01*
X69370304Y-57562376D01*
X69369696Y-58258569D01*
X68043698Y-58258569D01*
X68044304Y-57565431D01*
X67778443Y-56921999D01*
X67286590Y-56429287D01*
X66643624Y-56162304D01*
X65947431Y-56161696D01*
X65303999Y-56427557D01*
X64811287Y-56919410D01*
X64544304Y-57562376D01*
X64543696Y-58258569D01*
X62939649Y-58258569D01*
X63004455Y-57827642D01*
X62900448Y-57304759D01*
X62644452Y-57188655D01*
X61921107Y-57912000D01*
X60506893Y-57912000D01*
X59783548Y-57188655D01*
X59527552Y-57304759D01*
X59423545Y-57996358D01*
X57394103Y-57996358D01*
X57059000Y-57660669D01*
X57059000Y-57279148D01*
X57856600Y-56481548D01*
X60490655Y-56481548D01*
X61214000Y-57204893D01*
X61937345Y-56481548D01*
X61821241Y-56225552D01*
X61129642Y-56121545D01*
X60606759Y-56225552D01*
X60490655Y-56481548D01*
X57856600Y-56481548D01*
X58803148Y-55535000D01*
X76871307Y-55535000D01*
X76871307Y-56730000D01*
X76923604Y-57007933D01*
X77087862Y-57263198D01*
X77338492Y-57434446D01*
X77606799Y-57488780D01*
X77742946Y-59258697D01*
X77785407Y-59410278D01*
X77816120Y-59564684D01*
X77837711Y-59596997D01*
X77848192Y-59634414D01*
X77945431Y-59758211D01*
X78032893Y-59889107D01*
X78106840Y-59963054D01*
X77892841Y-60005621D01*
X77389984Y-60341618D01*
X77216000Y-60602004D01*
X77042016Y-60341618D01*
X76539159Y-60005621D01*
X75946000Y-59887634D01*
X75352841Y-60005621D01*
X74849984Y-60341618D01*
X74513987Y-60844475D01*
X74396000Y-61437634D01*
X74396000Y-61498366D01*
X74494190Y-61992000D01*
X67978214Y-61992000D01*
X66874107Y-60887893D01*
X66549684Y-60671120D01*
X66167000Y-60595000D01*
X54643214Y-60595000D01*
X53365882Y-59317668D01*
X53366268Y-58875039D01*
X53130792Y-58305143D01*
X52695151Y-57868740D01*
X52125667Y-57632270D01*
X51509039Y-57631732D01*
X50939143Y-57867208D01*
X50502740Y-58302849D01*
X50266270Y-58872333D01*
X50265732Y-59488961D01*
X50501208Y-60058857D01*
X50936849Y-60495260D01*
X51506333Y-60731730D01*
X51951905Y-60732119D01*
X53521893Y-62302107D01*
X53846317Y-62518880D01*
X54229000Y-62595000D01*
X58689416Y-62595000D01*
X58448323Y-62836093D01*
X58900874Y-63288643D01*
X58973154Y-63652017D01*
X59221195Y-63737119D01*
X59886315Y-63072000D01*
X59603472Y-62789157D01*
X59797629Y-62595000D01*
X61106371Y-62595000D01*
X61300528Y-62789157D01*
X61017685Y-63072000D01*
X61682805Y-63737119D01*
X61930846Y-63652017D01*
X61994446Y-63297323D01*
X62455677Y-62836093D01*
X62214584Y-62595000D01*
X62839686Y-62595000D01*
X62830120Y-62609316D01*
X62779006Y-62866287D01*
X62754000Y-62992000D01*
X62754000Y-68326000D01*
X62830120Y-68708684D01*
X63046893Y-69033107D01*
X63883754Y-69869968D01*
X63500000Y-69793634D01*
X62906841Y-69911621D01*
X62403984Y-70247618D01*
X62067987Y-70750475D01*
X61950000Y-71343634D01*
X61950000Y-71404366D01*
X62067987Y-71997525D01*
X62403984Y-72500382D01*
X62906841Y-72836379D01*
X63500000Y-72954366D01*
X64093159Y-72836379D01*
X64596016Y-72500382D01*
X64770000Y-72239996D01*
X64943984Y-72500382D01*
X65446841Y-72836379D01*
X66040000Y-72954366D01*
X66633159Y-72836379D01*
X67136016Y-72500382D01*
X67220461Y-72374000D01*
X67399539Y-72374000D01*
X67483984Y-72500382D01*
X67986841Y-72836379D01*
X68396474Y-72917860D01*
X68418120Y-73026684D01*
X68634893Y-73351107D01*
X72660000Y-77376214D01*
X72660000Y-78913361D01*
X72552013Y-78370475D01*
X72216016Y-77867618D01*
X71713159Y-77531621D01*
X71120000Y-77413634D01*
X70526841Y-77531621D01*
X70023984Y-77867618D01*
X69850000Y-78128004D01*
X69676016Y-77867618D01*
X69173159Y-77531621D01*
X68580000Y-77413634D01*
X67986841Y-77531621D01*
X67483984Y-77867618D01*
X67310000Y-78128004D01*
X67136016Y-77867618D01*
X66633159Y-77531621D01*
X66040000Y-77413634D01*
X65446841Y-77531621D01*
X65058000Y-77791435D01*
X65058000Y-77743998D01*
X64921972Y-77743998D01*
X64729372Y-77551398D01*
X64450775Y-77436000D01*
X64089500Y-77436000D01*
X63900000Y-77625500D01*
X63900000Y-78594000D01*
X64300000Y-78594000D01*
X64300000Y-79394000D01*
X63900000Y-79394000D01*
X63900000Y-80362500D01*
X64089500Y-80552000D01*
X64450775Y-80552000D01*
X64729372Y-80436602D01*
X64921972Y-80244002D01*
X65058000Y-80244002D01*
X65058000Y-80196565D01*
X65446841Y-80456379D01*
X66040000Y-80574366D01*
X66633159Y-80456379D01*
X67136016Y-80120382D01*
X67310000Y-79859996D01*
X67483984Y-80120382D01*
X67986841Y-80456379D01*
X68580000Y-80574366D01*
X69173159Y-80456379D01*
X69676016Y-80120382D01*
X69850000Y-79859996D01*
X70023984Y-80120382D01*
X70526841Y-80456379D01*
X71120000Y-80574366D01*
X71713159Y-80456379D01*
X72216016Y-80120382D01*
X72552013Y-79617525D01*
X72660000Y-79074639D01*
X72660000Y-79502000D01*
X72736120Y-79884684D01*
X72952893Y-80209107D01*
X73785786Y-81042000D01*
X58101819Y-81042000D01*
X58196446Y-80903508D01*
X58256693Y-80606000D01*
X58256693Y-79583500D01*
X61942000Y-79583500D01*
X61942000Y-79944776D01*
X62057399Y-80223373D01*
X62270628Y-80436602D01*
X62549225Y-80552000D01*
X62910500Y-80552000D01*
X63100000Y-80362500D01*
X63100000Y-79394000D01*
X62131500Y-79394000D01*
X61942000Y-79583500D01*
X58256693Y-79583500D01*
X58256693Y-78906000D01*
X58204396Y-78628067D01*
X58040138Y-78372802D01*
X57866842Y-78254394D01*
X58007940Y-78043224D01*
X61942000Y-78043224D01*
X61942000Y-78404500D01*
X62131500Y-78594000D01*
X63100000Y-78594000D01*
X63100000Y-77625500D01*
X62910500Y-77436000D01*
X62549225Y-77436000D01*
X62270628Y-77551398D01*
X62057399Y-77764627D01*
X61942000Y-78043224D01*
X58007940Y-78043224D01*
X58151553Y-77828293D01*
X58273346Y-77216000D01*
X58151553Y-76603707D01*
X57804717Y-76084629D01*
X57597244Y-75946000D01*
X57804717Y-75807371D01*
X58151553Y-75288293D01*
X58273346Y-74676000D01*
X58151553Y-74063707D01*
X57804717Y-73544629D01*
X57285639Y-73197793D01*
X56731397Y-73087547D01*
X57230016Y-72754382D01*
X57566013Y-72251525D01*
X57684000Y-71658366D01*
X57684000Y-71597634D01*
X57566013Y-71004475D01*
X57230016Y-70501618D01*
X56727159Y-70165621D01*
X56134000Y-70047634D01*
X55540841Y-70165621D01*
X55037984Y-70501618D01*
X54928330Y-70665728D01*
X54735317Y-70704120D01*
X54410893Y-70920893D01*
X54410891Y-70920896D01*
X53352736Y-71979051D01*
X53366000Y-71912366D01*
X53366000Y-71851634D01*
X53248013Y-71258475D01*
X52912016Y-70755618D01*
X52409159Y-70419621D01*
X52242729Y-70386516D01*
X50235175Y-68378961D01*
X58901732Y-68378961D01*
X59137208Y-68948857D01*
X59572849Y-69385260D01*
X60142333Y-69621730D01*
X60758961Y-69622268D01*
X61328857Y-69386792D01*
X61765260Y-68951151D01*
X62001730Y-68381667D01*
X62002268Y-67765039D01*
X61766792Y-67195143D01*
X61331151Y-66758740D01*
X60761667Y-66522270D01*
X60145039Y-66521732D01*
X59575143Y-66757208D01*
X59138740Y-67192849D01*
X58902270Y-67762333D01*
X58901732Y-68378961D01*
X50235175Y-68378961D01*
X46159019Y-64302805D01*
X59786881Y-64302805D01*
X59871983Y-64550846D01*
X60482064Y-64660239D01*
X61032017Y-64550846D01*
X61117119Y-64302805D01*
X60452000Y-63637685D01*
X59786881Y-64302805D01*
X46159019Y-64302805D01*
X44942000Y-63085786D01*
X44942000Y-62288863D01*
X46339125Y-62288863D01*
X46780139Y-62864264D01*
X47185143Y-63134840D01*
X47456000Y-63043244D01*
X47456000Y-62018000D01*
X48556000Y-62018000D01*
X48556000Y-63043244D01*
X48826857Y-63134840D01*
X49231861Y-62864264D01*
X49672875Y-62288863D01*
X49591264Y-62018000D01*
X48556000Y-62018000D01*
X47456000Y-62018000D01*
X46420736Y-62018000D01*
X46339125Y-62288863D01*
X44942000Y-62288863D01*
X44942000Y-60647137D01*
X46339125Y-60647137D01*
X46420736Y-60918000D01*
X47456000Y-60918000D01*
X47456000Y-59892756D01*
X48556000Y-59892756D01*
X48556000Y-60918000D01*
X49591264Y-60918000D01*
X49672875Y-60647137D01*
X49231861Y-60071736D01*
X48826857Y-59801160D01*
X48556000Y-59892756D01*
X47456000Y-59892756D01*
X47185143Y-59801160D01*
X46780139Y-60071736D01*
X46339125Y-60647137D01*
X44942000Y-60647137D01*
X44942000Y-60538693D01*
X45042000Y-60538693D01*
X45319933Y-60486396D01*
X45575198Y-60322138D01*
X45746446Y-60071508D01*
X45806693Y-59774000D01*
X45806693Y-57574000D01*
X45754396Y-57296067D01*
X45590138Y-57040802D01*
X45339508Y-56869554D01*
X45042000Y-56809307D01*
X42842000Y-56809307D01*
X42564067Y-56861604D01*
X42308802Y-57025862D01*
X42137554Y-57276492D01*
X42077307Y-57574000D01*
X42077307Y-59774000D01*
X42129604Y-60051933D01*
X42293862Y-60307198D01*
X42544492Y-60478446D01*
X42842000Y-60538693D01*
X42942000Y-60538693D01*
X42942000Y-63500000D01*
X42956436Y-63572577D01*
X42672000Y-63516000D01*
X40251345Y-63516000D01*
X39972463Y-63236630D01*
X39417675Y-63006262D01*
X38816960Y-63005738D01*
X38261771Y-63235138D01*
X38116118Y-63380536D01*
X37972463Y-63236630D01*
X37417675Y-63006262D01*
X36816960Y-63005738D01*
X36261771Y-63235138D01*
X35836630Y-63659537D01*
X35606262Y-64214325D01*
X35605738Y-64815040D01*
X35835138Y-65370229D01*
X36259537Y-65795370D01*
X36487379Y-65889978D01*
X37116000Y-66518599D01*
X37384701Y-66249899D01*
X37689256Y-66554454D01*
X37606262Y-66754325D01*
X37605738Y-67355040D01*
X37689366Y-67557436D01*
X37384701Y-67862102D01*
X37116000Y-67593401D01*
X36462634Y-68246767D01*
X36541534Y-68493179D01*
X36841141Y-68548911D01*
X37323069Y-69030839D01*
X38139143Y-68214765D01*
X38259537Y-68335370D01*
X38814325Y-68565738D01*
X39415040Y-68566262D01*
X39970229Y-68336862D01*
X40395370Y-67912463D01*
X40625738Y-67357675D01*
X40626262Y-66756960D01*
X40396862Y-66201771D01*
X39981464Y-65785647D01*
X40251582Y-65516000D01*
X42257786Y-65516000D01*
X43717786Y-66976000D01*
X42691998Y-66976000D01*
X42691998Y-67469233D01*
X42275125Y-68013137D01*
X42356736Y-68284000D01*
X43392000Y-68284000D01*
X43392000Y-67734000D01*
X44475786Y-67734000D01*
X44492000Y-67750214D01*
X44492000Y-68284000D01*
X44974000Y-68284000D01*
X44974000Y-68927786D01*
X44517786Y-69384000D01*
X44492000Y-69384000D01*
X44492000Y-69409786D01*
X44077668Y-69824118D01*
X43635039Y-69823732D01*
X43392000Y-69924154D01*
X43392000Y-69384000D01*
X42356736Y-69384000D01*
X42275125Y-69654863D01*
X42691998Y-70198767D01*
X42691998Y-70431701D01*
X42628740Y-70494849D01*
X42392270Y-71064333D01*
X42391732Y-71680961D01*
X42627208Y-72250857D01*
X43062849Y-72687260D01*
X43632333Y-72923730D01*
X44248961Y-72924268D01*
X44818857Y-72688792D01*
X44879755Y-72628000D01*
X46141307Y-72628000D01*
X46141307Y-72728000D01*
X46193604Y-73005933D01*
X46357862Y-73261198D01*
X46608492Y-73432446D01*
X46906000Y-73492693D01*
X48456480Y-73492693D01*
X48822891Y-73859104D01*
X48822893Y-73859107D01*
X49147317Y-74075880D01*
X49530000Y-74152000D01*
X53594000Y-74152000D01*
X53976684Y-74075880D01*
X54301107Y-73859107D01*
X55258493Y-72901721D01*
X55540841Y-73090379D01*
X56039604Y-73189589D01*
X55998361Y-73197793D01*
X55479283Y-73544629D01*
X55132447Y-74063707D01*
X55010654Y-74676000D01*
X55132447Y-75288293D01*
X55479283Y-75807371D01*
X55686756Y-75946000D01*
X55479283Y-76084629D01*
X55132447Y-76603707D01*
X55010654Y-77216000D01*
X55132447Y-77828293D01*
X55417891Y-78255491D01*
X55258802Y-78357862D01*
X55087554Y-78608492D01*
X55027307Y-78906000D01*
X55027307Y-80606000D01*
X55079604Y-80883933D01*
X55234213Y-81124203D01*
X55172942Y-81165143D01*
X54918893Y-81334893D01*
X54725033Y-81528753D01*
X54574792Y-81165143D01*
X54139151Y-80728740D01*
X53569667Y-80492270D01*
X52953039Y-80491732D01*
X52383143Y-80727208D01*
X51946740Y-81162849D01*
X51710270Y-81732333D01*
X51709732Y-82348961D01*
X51945208Y-82918857D01*
X52380849Y-83355260D01*
X52746638Y-83507148D01*
X51909786Y-84344000D01*
X45444334Y-84344000D01*
X45492000Y-84104366D01*
X45492000Y-84043634D01*
X45374013Y-83450475D01*
X45255299Y-83272805D01*
X47594881Y-83272805D01*
X47679983Y-83520846D01*
X48290064Y-83630239D01*
X48840017Y-83520846D01*
X48925119Y-83272805D01*
X48260000Y-82607685D01*
X47594881Y-83272805D01*
X45255299Y-83272805D01*
X45038016Y-82947618D01*
X44535159Y-82611621D01*
X43942000Y-82493634D01*
X43348841Y-82611621D01*
X42845984Y-82947618D01*
X42509987Y-83450475D01*
X42392000Y-84043634D01*
X42392000Y-84104366D01*
X42494990Y-84622128D01*
X42472893Y-84636893D01*
X40901972Y-86207814D01*
X40757151Y-86062740D01*
X40187667Y-85826270D01*
X39571039Y-85825732D01*
X39001143Y-86061208D01*
X38564740Y-86496849D01*
X38328270Y-87066333D01*
X38327732Y-87682961D01*
X38417411Y-87900000D01*
X36408693Y-87900000D01*
X36408693Y-87800000D01*
X36356396Y-87522067D01*
X36192138Y-87266802D01*
X35941508Y-87095554D01*
X35644000Y-87035307D01*
X33444000Y-87035307D01*
X33166067Y-87087604D01*
X32910802Y-87251862D01*
X32739554Y-87502492D01*
X32679307Y-87800000D01*
X32679307Y-90000000D01*
X32731604Y-90277933D01*
X32895862Y-90533198D01*
X33146492Y-90704446D01*
X33444000Y-90764693D01*
X35644000Y-90764693D01*
X35921933Y-90712396D01*
X36177198Y-90548138D01*
X36348446Y-90297508D01*
X36408693Y-90000000D01*
X36408693Y-89900000D01*
X36902190Y-89900000D01*
X36804000Y-90393634D01*
X36804000Y-90454366D01*
X36921987Y-91047525D01*
X37257984Y-91550382D01*
X37546866Y-91743406D01*
X37646893Y-91893107D01*
X39932893Y-94179107D01*
X40257317Y-94395880D01*
X40640000Y-94472000D01*
X41575361Y-94472000D01*
X41032475Y-94579987D01*
X40529618Y-94915984D01*
X40336594Y-95204866D01*
X40186893Y-95304893D01*
X39970120Y-95629317D01*
X39894000Y-96012000D01*
X39970120Y-96394683D01*
X40186893Y-96719107D01*
X40252705Y-96763081D01*
X39424893Y-97590893D01*
X39208120Y-97915316D01*
X39208120Y-97915317D01*
X39132000Y-98298000D01*
X39132000Y-101768739D01*
X38663667Y-101574270D01*
X38047039Y-101573732D01*
X37477143Y-101809208D01*
X37040740Y-102244849D01*
X36804270Y-102814333D01*
X36803732Y-103430961D01*
X37039208Y-104000857D01*
X37474849Y-104437260D01*
X38044333Y-104673730D01*
X38660961Y-104674268D01*
X39132000Y-104479639D01*
X39132000Y-110583786D01*
X38447786Y-111268000D01*
X37592000Y-111268000D01*
X37209317Y-111344120D01*
X36884893Y-111560893D01*
X36668120Y-111885317D01*
X36631781Y-112068005D01*
X36415786Y-112284000D01*
X36093765Y-112284000D01*
X36094268Y-111707039D01*
X35858792Y-111137143D01*
X35423151Y-110700740D01*
X34853667Y-110464270D01*
X34237039Y-110463732D01*
X33667143Y-110699208D01*
X33230740Y-111134849D01*
X32994270Y-111704333D01*
X32993732Y-112320961D01*
X33121452Y-112630066D01*
X33074942Y-112661143D01*
X32820893Y-112830893D01*
X31843786Y-113808000D01*
X29961312Y-113808000D01*
X29848569Y-113535142D01*
X29216187Y-112901655D01*
X28389516Y-112558392D01*
X27494411Y-112557610D01*
X26667142Y-112899431D01*
X26033655Y-113531813D01*
X25690392Y-114358484D01*
X25689610Y-115253589D01*
X26031431Y-116080858D01*
X26663813Y-116714345D01*
X27490484Y-117057608D01*
X28385589Y-117058390D01*
X29212858Y-116716569D01*
X29846345Y-116084187D01*
X29961028Y-115808000D01*
X32258000Y-115808000D01*
X32640684Y-115731880D01*
X32739916Y-115665575D01*
X32739732Y-115876961D01*
X32975208Y-116446857D01*
X33410849Y-116883260D01*
X33980333Y-117119730D01*
X34596961Y-117120268D01*
X35166857Y-116884792D01*
X35603260Y-116449151D01*
X35839730Y-115879667D01*
X35840119Y-115434095D01*
X36228213Y-115046000D01*
X36893269Y-115046000D01*
X36804270Y-115260333D01*
X36803732Y-115876961D01*
X37039208Y-116446857D01*
X37474849Y-116883260D01*
X37646395Y-116954492D01*
X37717316Y-117001880D01*
X37800243Y-117018375D01*
X38044333Y-117119730D01*
X38660961Y-117120268D01*
X38896585Y-117022910D01*
X38896585Y-118693201D01*
X34344893Y-123244893D01*
X34128120Y-123569316D01*
X34077137Y-123825628D01*
X34052000Y-123952000D01*
X34052000Y-126723016D01*
X34042489Y-126738867D01*
X33696841Y-126807621D01*
X33193984Y-127143618D01*
X32857987Y-127646475D01*
X32740000Y-128239634D01*
X32740000Y-128300366D01*
X32857987Y-128893525D01*
X33193984Y-129396382D01*
X33696841Y-129732379D01*
X34290000Y-129850366D01*
X34883159Y-129732379D01*
X35386016Y-129396382D01*
X35722013Y-128893525D01*
X35840000Y-128300366D01*
X35840000Y-128239634D01*
X35748976Y-127782025D01*
X35909493Y-127514496D01*
X35934573Y-127444504D01*
X35975880Y-127382683D01*
X35999782Y-127262519D01*
X36041109Y-127147184D01*
X36037495Y-127072922D01*
X36052000Y-127000000D01*
X36052000Y-124366214D01*
X37577566Y-122840648D01*
X37430120Y-123061316D01*
X37411762Y-123153608D01*
X37354000Y-123444000D01*
X37354000Y-127079462D01*
X37257984Y-127143618D01*
X36921987Y-127646475D01*
X36804000Y-128239634D01*
X36804000Y-128300366D01*
X36921987Y-128893525D01*
X37257984Y-129396382D01*
X37760841Y-129732379D01*
X38354000Y-129850366D01*
X38947159Y-129732379D01*
X39450016Y-129396382D01*
X39786013Y-128893525D01*
X39904000Y-128300366D01*
X39904000Y-128239634D01*
X39786013Y-127646475D01*
X39450016Y-127143618D01*
X39354000Y-127079462D01*
X39354000Y-126290961D01*
X40359732Y-126290961D01*
X40595208Y-126860857D01*
X41030849Y-127297260D01*
X41600333Y-127533730D01*
X42216961Y-127534268D01*
X42786857Y-127298792D01*
X42870990Y-127214805D01*
X46244881Y-127214805D01*
X46329983Y-127462846D01*
X46940064Y-127572239D01*
X47490017Y-127462846D01*
X47575119Y-127214805D01*
X46910000Y-126549685D01*
X46244881Y-127214805D01*
X42870990Y-127214805D01*
X43223260Y-126863151D01*
X43459730Y-126293667D01*
X43459973Y-126014064D01*
X45321761Y-126014064D01*
X45431154Y-126564017D01*
X45679195Y-126649119D01*
X46344315Y-125984000D01*
X47475685Y-125984000D01*
X48140805Y-126649119D01*
X48388846Y-126564017D01*
X48423132Y-126372805D01*
X52420881Y-126372805D01*
X52505983Y-126620846D01*
X53116064Y-126730239D01*
X53666017Y-126620846D01*
X53751119Y-126372805D01*
X53086000Y-125707685D01*
X52420881Y-126372805D01*
X48423132Y-126372805D01*
X48498239Y-125953936D01*
X48388846Y-125403983D01*
X48140805Y-125318881D01*
X47475685Y-125984000D01*
X46344315Y-125984000D01*
X45679195Y-125318881D01*
X45431154Y-125403983D01*
X45321761Y-126014064D01*
X43459973Y-126014064D01*
X43460268Y-125677039D01*
X43224792Y-125107143D01*
X42871463Y-124753195D01*
X46244881Y-124753195D01*
X46910000Y-125418315D01*
X47156250Y-125172064D01*
X51497761Y-125172064D01*
X51607154Y-125722017D01*
X51855195Y-125807119D01*
X52520315Y-125142000D01*
X53651685Y-125142000D01*
X54316805Y-125807119D01*
X54564846Y-125722017D01*
X54674239Y-125111936D01*
X54564846Y-124561983D01*
X54316805Y-124476881D01*
X53651685Y-125142000D01*
X52520315Y-125142000D01*
X51855195Y-124476881D01*
X51607154Y-124561983D01*
X51497761Y-125172064D01*
X47156250Y-125172064D01*
X47575119Y-124753195D01*
X47490017Y-124505154D01*
X46879936Y-124395761D01*
X46329983Y-124505154D01*
X46244881Y-124753195D01*
X42871463Y-124753195D01*
X42789151Y-124670740D01*
X42219667Y-124434270D01*
X41603039Y-124433732D01*
X41033143Y-124669208D01*
X40596740Y-125104849D01*
X40360270Y-125674333D01*
X40359732Y-126290961D01*
X39354000Y-126290961D01*
X39354000Y-123911195D01*
X52420881Y-123911195D01*
X53086000Y-124576315D01*
X53751119Y-123911195D01*
X53666017Y-123663154D01*
X53055936Y-123553761D01*
X52505983Y-123663154D01*
X52420881Y-123911195D01*
X39354000Y-123911195D01*
X39354000Y-123858214D01*
X41601104Y-121611109D01*
X41601107Y-121611107D01*
X41817880Y-121286683D01*
X41894000Y-120904000D01*
X41894000Y-117941261D01*
X42362333Y-118135730D01*
X42978961Y-118136268D01*
X43548857Y-117900792D01*
X43864200Y-117586000D01*
X45544136Y-117586000D01*
X45856849Y-117899260D01*
X46426333Y-118135730D01*
X47042961Y-118136268D01*
X47612857Y-117900792D01*
X48049260Y-117465151D01*
X48285730Y-116895667D01*
X48286268Y-116279039D01*
X48091639Y-115808000D01*
X48530000Y-115808000D01*
X48530000Y-119558251D01*
X48480182Y-119678226D01*
X48479818Y-120095942D01*
X48639334Y-120482000D01*
X48934446Y-120777628D01*
X49320226Y-120937818D01*
X49737942Y-120938182D01*
X50124000Y-120778666D01*
X50419628Y-120483554D01*
X50433992Y-120448961D01*
X51535732Y-120448961D01*
X51771208Y-121018857D01*
X52206849Y-121455260D01*
X52776333Y-121691730D01*
X53392961Y-121692268D01*
X53962857Y-121456792D01*
X54399260Y-121021151D01*
X54635730Y-120451667D01*
X54636268Y-119835039D01*
X54400792Y-119265143D01*
X53965151Y-118828740D01*
X53395667Y-118592270D01*
X52779039Y-118591732D01*
X52209143Y-118827208D01*
X51772740Y-119262849D01*
X51536270Y-119832333D01*
X51535732Y-120448961D01*
X50433992Y-120448961D01*
X50579818Y-120097774D01*
X50580182Y-119680058D01*
X50530000Y-119558608D01*
X50530000Y-117771231D01*
X50557604Y-117917933D01*
X50721862Y-118173198D01*
X50972492Y-118344446D01*
X51270000Y-118404693D01*
X52870000Y-118404693D01*
X53147933Y-118352396D01*
X53403198Y-118188138D01*
X53541950Y-117985068D01*
X54016841Y-118302379D01*
X54610000Y-118420366D01*
X54955000Y-118351741D01*
X54955000Y-126362852D01*
X52765848Y-128552004D01*
X52441151Y-128226740D01*
X51871667Y-127990270D01*
X51255039Y-127989732D01*
X50685143Y-128225208D01*
X50248740Y-128660849D01*
X50012270Y-129230333D01*
X50011732Y-129846961D01*
X50247208Y-130416857D01*
X50562000Y-130732200D01*
X50562000Y-132423539D01*
X50435618Y-132507984D01*
X50099621Y-133010841D01*
X49981634Y-133604000D01*
X50099621Y-134197159D01*
X50435618Y-134700016D01*
X50938475Y-135036013D01*
X51531634Y-135154000D01*
X51592366Y-135154000D01*
X52185525Y-135036013D01*
X52688382Y-134700016D01*
X53024379Y-134197159D01*
X53081307Y-133910961D01*
X62711732Y-133910961D01*
X62947208Y-134480857D01*
X63382849Y-134917260D01*
X63952333Y-135153730D01*
X64568961Y-135154268D01*
X65138857Y-134918792D01*
X65575260Y-134483151D01*
X65644640Y-134316064D01*
X66737761Y-134316064D01*
X66847154Y-134866017D01*
X67095195Y-134951119D01*
X67760315Y-134286000D01*
X68891685Y-134286000D01*
X69556805Y-134951119D01*
X69804846Y-134866017D01*
X69914239Y-134255936D01*
X69804846Y-133705983D01*
X69556805Y-133620881D01*
X68891685Y-134286000D01*
X67760315Y-134286000D01*
X67095195Y-133620881D01*
X66847154Y-133705983D01*
X66737761Y-134316064D01*
X65644640Y-134316064D01*
X65811730Y-133913667D01*
X65812268Y-133297039D01*
X65712341Y-133055195D01*
X67660881Y-133055195D01*
X68326000Y-133720315D01*
X68991119Y-133055195D01*
X68906017Y-132807154D01*
X68295936Y-132697761D01*
X67745983Y-132807154D01*
X67660881Y-133055195D01*
X65712341Y-133055195D01*
X65576792Y-132727143D01*
X65141151Y-132290740D01*
X64571667Y-132054270D01*
X63955039Y-132053732D01*
X63385143Y-132289208D01*
X62948740Y-132724849D01*
X62712270Y-133294333D01*
X62711732Y-133910961D01*
X53081307Y-133910961D01*
X53142366Y-133604000D01*
X53024379Y-133010841D01*
X52688382Y-132507984D01*
X52562000Y-132423539D01*
X52562000Y-130731864D01*
X52829331Y-130465000D01*
X53086000Y-130465000D01*
X53439983Y-130394589D01*
X53740074Y-130194074D01*
X56534074Y-127400074D01*
X56734589Y-127099982D01*
X56805001Y-126746000D01*
X56805000Y-126745995D01*
X56805000Y-118351741D01*
X57150000Y-118420366D01*
X57743159Y-118302379D01*
X58246016Y-117966382D01*
X58420000Y-117705996D01*
X58593984Y-117966382D01*
X58690000Y-118030538D01*
X58690000Y-118110000D01*
X58691211Y-118116088D01*
X58690074Y-118122192D01*
X58729225Y-118307197D01*
X58753268Y-118428070D01*
X58729667Y-118418270D01*
X58113039Y-118417732D01*
X57543143Y-118653208D01*
X57106740Y-119088849D01*
X56870270Y-119658333D01*
X56869732Y-120274961D01*
X57105208Y-120844857D01*
X57540849Y-121281260D01*
X58110333Y-121517730D01*
X58726961Y-121518268D01*
X59296857Y-121282792D01*
X59733260Y-120847151D01*
X59960000Y-120301099D01*
X59960000Y-121886013D01*
X59736058Y-121885818D01*
X59350000Y-122045334D01*
X59054372Y-122340446D01*
X58894182Y-122726226D01*
X58893818Y-123143942D01*
X59053334Y-123530000D01*
X59091983Y-123568716D01*
X58729667Y-123418270D01*
X58113039Y-123417732D01*
X57543143Y-123653208D01*
X57106740Y-124088849D01*
X56870270Y-124658333D01*
X56869732Y-125274961D01*
X57105208Y-125844857D01*
X57540849Y-126281260D01*
X58110333Y-126517730D01*
X58726961Y-126518268D01*
X59198000Y-126323639D01*
X59198000Y-127762000D01*
X59274120Y-128144684D01*
X59490893Y-128469107D01*
X61268893Y-130247107D01*
X61593316Y-130463880D01*
X61976000Y-130540001D01*
X61976005Y-130540000D01*
X63071462Y-130540000D01*
X63135618Y-130636016D01*
X63638475Y-130972013D01*
X64231634Y-131090000D01*
X64292366Y-131090000D01*
X64885525Y-130972013D01*
X65388382Y-130636016D01*
X65724379Y-130133159D01*
X65842366Y-129540000D01*
X65738136Y-129016000D01*
X66028436Y-129016000D01*
X66775863Y-129443101D01*
X66775732Y-129592961D01*
X67011208Y-130162857D01*
X67446849Y-130599260D01*
X68016333Y-130835730D01*
X68632961Y-130836268D01*
X69202857Y-130600792D01*
X69639260Y-130165151D01*
X69875730Y-129595667D01*
X69876268Y-128979039D01*
X69798366Y-128790503D01*
X69977628Y-128611554D01*
X70137818Y-128225774D01*
X70138015Y-128000000D01*
X70959786Y-128000000D01*
X72635490Y-129675704D01*
X72618000Y-129763634D01*
X72618000Y-129824366D01*
X72735987Y-130417525D01*
X73071984Y-130920382D01*
X73574841Y-131256379D01*
X74168000Y-131374366D01*
X74761159Y-131256379D01*
X75264016Y-130920382D01*
X75600013Y-130417525D01*
X75662981Y-130100961D01*
X76935732Y-130100961D01*
X77171208Y-130670857D01*
X77606849Y-131107260D01*
X78176333Y-131343730D01*
X78792961Y-131344268D01*
X79362857Y-131108792D01*
X79799260Y-130673151D01*
X80035730Y-130103667D01*
X80035732Y-130100961D01*
X81507732Y-130100961D01*
X81743208Y-130670857D01*
X82178849Y-131107260D01*
X82748333Y-131343730D01*
X83364961Y-131344268D01*
X83934857Y-131108792D01*
X84344000Y-130700363D01*
X84344000Y-137414000D01*
X84420120Y-137796684D01*
X84636893Y-138121107D01*
X86137706Y-139621920D01*
X86137654Y-139682079D01*
X86441494Y-140417429D01*
X87003612Y-140980529D01*
X87738430Y-141285652D01*
X88534079Y-141286346D01*
X89269429Y-140982506D01*
X89832529Y-140420388D01*
X90137652Y-139685570D01*
X90138346Y-138889921D01*
X89834506Y-138154571D01*
X89272388Y-137591471D01*
X88537570Y-137286348D01*
X87741921Y-137285654D01*
X87006571Y-137589494D01*
X86970108Y-137625894D01*
X86344000Y-136999786D01*
X86344000Y-135181475D01*
X86441494Y-135417429D01*
X87003612Y-135980529D01*
X87738430Y-136285652D01*
X88534079Y-136286346D01*
X89269429Y-135982506D01*
X89832529Y-135420388D01*
X90137652Y-134685570D01*
X90138346Y-133889921D01*
X89834506Y-133154571D01*
X89272388Y-132591471D01*
X88537570Y-132286348D01*
X87741921Y-132285654D01*
X87006571Y-132589494D01*
X86443471Y-133151612D01*
X86344000Y-133391165D01*
X86344000Y-130181475D01*
X86441494Y-130417429D01*
X87003612Y-130980529D01*
X87738430Y-131285652D01*
X88534079Y-131286346D01*
X89269429Y-130982506D01*
X89832529Y-130420388D01*
X90137652Y-129685570D01*
X90138346Y-128889921D01*
X89834506Y-128154571D01*
X89272388Y-127591471D01*
X88537570Y-127286348D01*
X87741921Y-127285654D01*
X87006571Y-127589494D01*
X86443471Y-128151612D01*
X86291975Y-128516454D01*
X86267880Y-128395317D01*
X86051107Y-128070893D01*
X85239943Y-127259729D01*
X85506013Y-126861525D01*
X85624000Y-126268366D01*
X85624000Y-126207634D01*
X85506013Y-125614475D01*
X85170016Y-125111618D01*
X84667159Y-124775621D01*
X84074000Y-124657634D01*
X83480841Y-124775621D01*
X82977984Y-125111618D01*
X82641987Y-125614475D01*
X82524000Y-126207634D01*
X82524000Y-126268366D01*
X82641987Y-126861525D01*
X82977984Y-127364382D01*
X83074000Y-127428538D01*
X83074000Y-127508000D01*
X83150120Y-127890684D01*
X83366893Y-128215107D01*
X83416215Y-128264429D01*
X83367667Y-128244270D01*
X82751039Y-128243732D01*
X82181143Y-128479208D01*
X81744740Y-128914849D01*
X81508270Y-129484333D01*
X81507732Y-130100961D01*
X80035732Y-130100961D01*
X80036268Y-129487039D01*
X79800792Y-128917143D01*
X79365151Y-128480740D01*
X78795667Y-128244270D01*
X78179039Y-128243732D01*
X77609143Y-128479208D01*
X77172740Y-128914849D01*
X76936270Y-129484333D01*
X76935732Y-130100961D01*
X75662981Y-130100961D01*
X75718000Y-129824366D01*
X75718000Y-129763634D01*
X75600013Y-129170475D01*
X75264016Y-128667618D01*
X74761159Y-128331621D01*
X74168000Y-128213634D01*
X74029414Y-128241200D01*
X72187488Y-126399274D01*
X72245198Y-126362138D01*
X72416446Y-126111508D01*
X72476693Y-125814000D01*
X72476693Y-124044569D01*
X75211696Y-124044569D01*
X75477557Y-124688001D01*
X75969410Y-125180713D01*
X76612376Y-125447696D01*
X77308569Y-125448304D01*
X77952001Y-125182443D01*
X78444713Y-124690590D01*
X78711696Y-124047624D01*
X78712227Y-123439063D01*
X86834820Y-123439063D01*
X86989684Y-123704632D01*
X87782604Y-123801644D01*
X88270316Y-123704632D01*
X88425180Y-123439063D01*
X87630000Y-122643883D01*
X86834820Y-123439063D01*
X78712227Y-123439063D01*
X78712304Y-123351431D01*
X78446443Y-122707999D01*
X77954590Y-122215287D01*
X77311624Y-121948304D01*
X76615431Y-121947696D01*
X75971999Y-122213557D01*
X75479287Y-122705410D01*
X75212304Y-123348376D01*
X75211696Y-124044569D01*
X72476693Y-124044569D01*
X72476693Y-123614000D01*
X72424396Y-123336067D01*
X72260138Y-123080802D01*
X72009508Y-122909554D01*
X71712000Y-122849307D01*
X69512000Y-122849307D01*
X69234067Y-122901604D01*
X68978802Y-123065862D01*
X68807554Y-123316492D01*
X68747307Y-123614000D01*
X68747307Y-124737093D01*
X68056000Y-124045786D01*
X68056000Y-121389500D01*
X69008000Y-121389500D01*
X69008000Y-121900775D01*
X69123398Y-122179372D01*
X69336627Y-122392601D01*
X69615224Y-122508000D01*
X70126500Y-122508000D01*
X70316000Y-122318500D01*
X70316000Y-121200000D01*
X71416000Y-121200000D01*
X71416000Y-122318500D01*
X71605500Y-122508000D01*
X72116776Y-122508000D01*
X72395373Y-122392601D01*
X72608602Y-122179372D01*
X72719100Y-121912604D01*
X85588356Y-121912604D01*
X85685368Y-122400316D01*
X85950937Y-122555180D01*
X86746117Y-121760000D01*
X88513883Y-121760000D01*
X89309063Y-122555180D01*
X89574632Y-122400316D01*
X89671644Y-121607396D01*
X89574632Y-121119684D01*
X89309063Y-120964820D01*
X88513883Y-121760000D01*
X86746117Y-121760000D01*
X85950937Y-120964820D01*
X85685368Y-121119684D01*
X85588356Y-121912604D01*
X72719100Y-121912604D01*
X72724000Y-121900775D01*
X72724000Y-121389500D01*
X72534500Y-121200000D01*
X71416000Y-121200000D01*
X70316000Y-121200000D01*
X69197500Y-121200000D01*
X69008000Y-121389500D01*
X68056000Y-121389500D01*
X68056000Y-119399225D01*
X69008000Y-119399225D01*
X69008000Y-119910500D01*
X69197500Y-120100000D01*
X70316000Y-120100000D01*
X70316000Y-118981500D01*
X71416000Y-118981500D01*
X71416000Y-120100000D01*
X72534500Y-120100000D01*
X72553563Y-120080937D01*
X86834820Y-120080937D01*
X87630000Y-120876117D01*
X88425180Y-120080937D01*
X88270316Y-119815368D01*
X87477396Y-119718356D01*
X86989684Y-119815368D01*
X86834820Y-120080937D01*
X72553563Y-120080937D01*
X72724000Y-119910500D01*
X72724000Y-119399225D01*
X72608602Y-119120628D01*
X72395373Y-118907399D01*
X72116776Y-118792000D01*
X71605500Y-118792000D01*
X71416000Y-118981500D01*
X70316000Y-118981500D01*
X70126500Y-118792000D01*
X69615224Y-118792000D01*
X69336627Y-118907399D01*
X69123398Y-119120628D01*
X69008000Y-119399225D01*
X68056000Y-119399225D01*
X68056000Y-118200254D01*
X68406016Y-117966382D01*
X68440243Y-117915158D01*
X68451334Y-117942000D01*
X68746446Y-118237628D01*
X69132226Y-118397818D01*
X69549942Y-118398182D01*
X69936000Y-118238666D01*
X69972160Y-118202569D01*
X75211696Y-118202569D01*
X75477557Y-118846001D01*
X75969410Y-119338713D01*
X76612376Y-119605696D01*
X77308569Y-119606304D01*
X77952001Y-119340443D01*
X78444713Y-118848590D01*
X78711696Y-118205624D01*
X78712304Y-117509431D01*
X78566302Y-117156079D01*
X85629654Y-117156079D01*
X85933494Y-117891429D01*
X86495612Y-118454529D01*
X87230430Y-118759652D01*
X88026079Y-118760346D01*
X88761429Y-118456506D01*
X89324529Y-117894388D01*
X89629652Y-117159570D01*
X89630346Y-116363921D01*
X89326506Y-115628571D01*
X88764388Y-115065471D01*
X88029570Y-114760348D01*
X87233921Y-114759654D01*
X86498571Y-115063494D01*
X85935471Y-115625612D01*
X85630348Y-116360430D01*
X85629654Y-117156079D01*
X78566302Y-117156079D01*
X78446443Y-116865999D01*
X77954590Y-116373287D01*
X77311624Y-116106304D01*
X76615431Y-116105696D01*
X75971999Y-116371557D01*
X75479287Y-116863410D01*
X75212304Y-117506376D01*
X75211696Y-118202569D01*
X69972160Y-118202569D01*
X70231628Y-117943554D01*
X70391818Y-117557774D01*
X70392182Y-117140058D01*
X70342000Y-117018608D01*
X70342000Y-115909261D01*
X70810333Y-116103730D01*
X71426961Y-116104268D01*
X71996857Y-115868792D01*
X72433260Y-115433151D01*
X72669730Y-114863667D01*
X72670073Y-114470287D01*
X73460893Y-115261107D01*
X73785317Y-115477880D01*
X74168000Y-115554000D01*
X82042000Y-115554000D01*
X82424684Y-115477880D01*
X82749107Y-115261107D01*
X83176917Y-114833297D01*
X83194849Y-114851260D01*
X83764333Y-115087730D01*
X84380961Y-115088268D01*
X84950857Y-114852792D01*
X85387260Y-114417151D01*
X85623730Y-113847667D01*
X85624268Y-113231039D01*
X85388792Y-112661143D01*
X84953151Y-112224740D01*
X84787797Y-112156079D01*
X85629654Y-112156079D01*
X85933494Y-112891429D01*
X86495612Y-113454529D01*
X87230430Y-113759652D01*
X88026079Y-113760346D01*
X88761429Y-113456506D01*
X89324529Y-112894388D01*
X89629652Y-112159570D01*
X89630346Y-111363921D01*
X89326506Y-110628571D01*
X88764388Y-110065471D01*
X88029570Y-109760348D01*
X87233921Y-109759654D01*
X86498571Y-110063494D01*
X85935471Y-110625612D01*
X85630348Y-111360430D01*
X85629654Y-112156079D01*
X84787797Y-112156079D01*
X84383667Y-111988270D01*
X83767039Y-111987732D01*
X83197143Y-112223208D01*
X82837954Y-112581769D01*
X82675316Y-112614120D01*
X82350893Y-112830893D01*
X81627786Y-113554000D01*
X74582214Y-113554000D01*
X73134783Y-112106569D01*
X75211696Y-112106569D01*
X75477557Y-112750001D01*
X75969410Y-113242713D01*
X76612376Y-113509696D01*
X77308569Y-113510304D01*
X77952001Y-113244443D01*
X78444713Y-112752590D01*
X78711696Y-112109624D01*
X78712304Y-111413431D01*
X78446443Y-110769999D01*
X77954590Y-110277287D01*
X77311624Y-110010304D01*
X76615431Y-110009696D01*
X75971999Y-110275557D01*
X75479287Y-110767410D01*
X75212304Y-111410376D01*
X75211696Y-112106569D01*
X73134783Y-112106569D01*
X71573107Y-110544893D01*
X71489027Y-110488712D01*
X71120000Y-110119685D01*
X70967496Y-110272189D01*
X70866000Y-110252000D01*
X70686629Y-110252000D01*
X70271472Y-109836843D01*
X70554315Y-109554000D01*
X71685685Y-109554000D01*
X72350805Y-110219119D01*
X72598846Y-110134017D01*
X72708239Y-109523936D01*
X72621652Y-109088635D01*
X82141306Y-109088635D01*
X82491088Y-109585838D01*
X82935369Y-109882665D01*
X83166000Y-109766737D01*
X83166000Y-108858000D01*
X83966000Y-108858000D01*
X83966000Y-109766737D01*
X84196631Y-109882665D01*
X84640912Y-109585838D01*
X84990694Y-109088635D01*
X84882307Y-108858000D01*
X83966000Y-108858000D01*
X83166000Y-108858000D01*
X82249693Y-108858000D01*
X82141306Y-109088635D01*
X72621652Y-109088635D01*
X72598846Y-108973983D01*
X72350805Y-108888881D01*
X71685685Y-109554000D01*
X70554315Y-109554000D01*
X69889195Y-108888881D01*
X69641154Y-108973983D01*
X69577554Y-109328677D01*
X69116323Y-109789907D01*
X69578416Y-110252000D01*
X68469080Y-110252000D01*
X68742013Y-109843525D01*
X68860000Y-109250366D01*
X68860000Y-109189634D01*
X68742013Y-108596475D01*
X68559414Y-108323195D01*
X70454881Y-108323195D01*
X71120000Y-108988315D01*
X71785119Y-108323195D01*
X71700017Y-108075154D01*
X71089936Y-107965761D01*
X70539983Y-108075154D01*
X70454881Y-108323195D01*
X68559414Y-108323195D01*
X68406016Y-108093618D01*
X67903159Y-107757621D01*
X67419661Y-107661447D01*
X66747107Y-106988893D01*
X66422684Y-106772120D01*
X66090496Y-106706044D01*
X66346961Y-106706268D01*
X66916857Y-106470792D01*
X67353260Y-106035151D01*
X67485383Y-105716961D01*
X68045732Y-105716961D01*
X68281208Y-106286857D01*
X68716849Y-106723260D01*
X69286333Y-106959730D01*
X69902961Y-106960268D01*
X70472857Y-106724792D01*
X70909260Y-106289151D01*
X71145730Y-105719667D01*
X71145732Y-105716961D01*
X73045732Y-105716961D01*
X73281208Y-106286857D01*
X73716849Y-106723260D01*
X74286333Y-106959730D01*
X74902961Y-106960268D01*
X75472857Y-106724792D01*
X75909260Y-106289151D01*
X76145730Y-105719667D01*
X76146268Y-105103039D01*
X75910792Y-104533143D01*
X75475151Y-104096740D01*
X74905667Y-103860270D01*
X74289039Y-103859732D01*
X73719143Y-104095208D01*
X73282740Y-104530849D01*
X73046270Y-105100333D01*
X73045732Y-105716961D01*
X71145732Y-105716961D01*
X71146268Y-105103039D01*
X70910792Y-104533143D01*
X70475151Y-104096740D01*
X69905667Y-103860270D01*
X69289039Y-103859732D01*
X68719143Y-104095208D01*
X68282740Y-104530849D01*
X68046270Y-105100333D01*
X68045732Y-105716961D01*
X67485383Y-105716961D01*
X67589730Y-105465667D01*
X67590268Y-104849039D01*
X67354792Y-104279143D01*
X66919151Y-103842740D01*
X66349667Y-103606270D01*
X65733039Y-103605732D01*
X65163143Y-103841208D01*
X64726740Y-104276849D01*
X64490270Y-104846333D01*
X64489732Y-105462961D01*
X64725208Y-106032857D01*
X65160849Y-106469260D01*
X65706901Y-106696000D01*
X63754000Y-106696000D01*
X63371317Y-106772120D01*
X63046893Y-106988893D01*
X63046891Y-106988896D01*
X62368586Y-107667201D01*
X62230000Y-107639634D01*
X61636841Y-107757621D01*
X61133984Y-108093618D01*
X60960000Y-108354004D01*
X60786016Y-108093618D01*
X60283159Y-107757621D01*
X59690000Y-107639634D01*
X59096841Y-107757621D01*
X58708000Y-108017435D01*
X58708000Y-107969998D01*
X58400002Y-107969998D01*
X58400002Y-107662000D01*
X57836102Y-107662000D01*
X57945818Y-107397774D01*
X57946182Y-106980058D01*
X57786666Y-106594000D01*
X57579833Y-106386805D01*
X60374881Y-106386805D01*
X60459983Y-106634846D01*
X61070064Y-106744239D01*
X61620017Y-106634846D01*
X61705119Y-106386805D01*
X61040000Y-105721685D01*
X60374881Y-106386805D01*
X57579833Y-106386805D01*
X57491554Y-106298372D01*
X57105774Y-106138182D01*
X56688058Y-106137818D01*
X56566608Y-106188000D01*
X51698521Y-106188000D01*
X51925198Y-106042138D01*
X52096446Y-105791508D01*
X52156693Y-105494000D01*
X52156693Y-105214857D01*
X56245160Y-105214857D01*
X56515736Y-105619861D01*
X57091137Y-106060875D01*
X57362000Y-105979264D01*
X57362000Y-104944000D01*
X58462000Y-104944000D01*
X58462000Y-105979264D01*
X58732863Y-106060875D01*
X59308264Y-105619861D01*
X59485330Y-105354825D01*
X59561154Y-105736017D01*
X59809195Y-105821119D01*
X60474315Y-105156000D01*
X61605685Y-105156000D01*
X62270805Y-105821119D01*
X62518846Y-105736017D01*
X62628239Y-105125936D01*
X62518846Y-104575983D01*
X62270805Y-104490881D01*
X61605685Y-105156000D01*
X60474315Y-105156000D01*
X59809195Y-104490881D01*
X59561154Y-104575983D01*
X59492421Y-104959307D01*
X59487244Y-104944000D01*
X58462000Y-104944000D01*
X57362000Y-104944000D01*
X56336756Y-104944000D01*
X56245160Y-105214857D01*
X52156693Y-105214857D01*
X52156693Y-103925195D01*
X60374881Y-103925195D01*
X61040000Y-104590315D01*
X61705119Y-103925195D01*
X61620017Y-103677154D01*
X61009936Y-103567761D01*
X60459983Y-103677154D01*
X60374881Y-103925195D01*
X52156693Y-103925195D01*
X52156693Y-103573143D01*
X56245160Y-103573143D01*
X56336756Y-103844000D01*
X57362000Y-103844000D01*
X57362000Y-102808736D01*
X58462000Y-102808736D01*
X58462000Y-103844000D01*
X59487244Y-103844000D01*
X59578840Y-103573143D01*
X59308264Y-103168139D01*
X58732863Y-102727125D01*
X58462000Y-102808736D01*
X57362000Y-102808736D01*
X57091137Y-102727125D01*
X56515736Y-103168139D01*
X56245160Y-103573143D01*
X52156693Y-103573143D01*
X52156693Y-103294000D01*
X52104396Y-103016067D01*
X51940138Y-102760802D01*
X51689508Y-102589554D01*
X51392000Y-102529307D01*
X49192000Y-102529307D01*
X48914067Y-102581604D01*
X48658802Y-102745862D01*
X48487554Y-102996492D01*
X48427307Y-103294000D01*
X48427307Y-105494000D01*
X48472061Y-105731847D01*
X47784407Y-105044193D01*
X47832016Y-105012382D01*
X48168013Y-104509525D01*
X48286000Y-103916366D01*
X48286000Y-103855634D01*
X48168013Y-103262475D01*
X47832016Y-102759618D01*
X47329159Y-102423621D01*
X46736000Y-102305634D01*
X46142841Y-102423621D01*
X45639984Y-102759618D01*
X45303987Y-103262475D01*
X45186000Y-103855634D01*
X45186000Y-103916366D01*
X45303987Y-104509525D01*
X45639984Y-105012382D01*
X45736000Y-105076538D01*
X45736000Y-105410000D01*
X45812120Y-105792684D01*
X46028893Y-106117107D01*
X47806893Y-107895107D01*
X48131316Y-108111880D01*
X48514000Y-108188001D01*
X48514005Y-108188000D01*
X50910920Y-108188000D01*
X50637987Y-108596475D01*
X50520000Y-109189634D01*
X50520000Y-109250366D01*
X50637987Y-109843525D01*
X50973984Y-110346382D01*
X51070000Y-110410538D01*
X51070000Y-110710013D01*
X50846058Y-110709818D01*
X50724608Y-110760000D01*
X42164000Y-110760000D01*
X41781317Y-110836120D01*
X41456893Y-111052893D01*
X40908433Y-111601353D01*
X41055880Y-111380683D01*
X41132000Y-110998000D01*
X41132000Y-103966639D01*
X41239987Y-104509525D01*
X41575984Y-105012382D01*
X42078841Y-105348379D01*
X42672000Y-105466366D01*
X43265159Y-105348379D01*
X43768016Y-105012382D01*
X44104013Y-104509525D01*
X44222000Y-103916366D01*
X44222000Y-103855634D01*
X44104013Y-103262475D01*
X43768016Y-102759618D01*
X43265159Y-102423621D01*
X42672000Y-102305634D01*
X42078841Y-102423621D01*
X41575984Y-102759618D01*
X41239987Y-103262475D01*
X41132000Y-103805361D01*
X41132000Y-102299584D01*
X41420093Y-102587677D01*
X41872643Y-102135126D01*
X42236017Y-102062846D01*
X42321119Y-101814805D01*
X41656000Y-101149685D01*
X41373157Y-101432528D01*
X41132000Y-101191371D01*
X41132000Y-100584000D01*
X42221685Y-100584000D01*
X42886805Y-101249119D01*
X43134846Y-101164017D01*
X43238848Y-100584000D01*
X52775634Y-100584000D01*
X52893621Y-101177159D01*
X53229618Y-101680016D01*
X53732475Y-102016013D01*
X54325634Y-102134000D01*
X54386366Y-102134000D01*
X54979525Y-102016013D01*
X55482382Y-101680016D01*
X55818379Y-101177159D01*
X55819106Y-101173500D01*
X57624000Y-101173500D01*
X57624000Y-101534776D01*
X57739399Y-101813373D01*
X57952628Y-102026602D01*
X58231225Y-102142000D01*
X58592500Y-102142000D01*
X58782000Y-101952500D01*
X58782000Y-100984000D01*
X57813500Y-100984000D01*
X57624000Y-101173500D01*
X55819106Y-101173500D01*
X55936366Y-100584000D01*
X55818379Y-99990841D01*
X55579428Y-99633224D01*
X57624000Y-99633224D01*
X57624000Y-99994500D01*
X57813500Y-100184000D01*
X58782000Y-100184000D01*
X58782000Y-99215500D01*
X58592500Y-99026000D01*
X58231225Y-99026000D01*
X57952628Y-99141398D01*
X57739399Y-99354627D01*
X57624000Y-99633224D01*
X55579428Y-99633224D01*
X55482382Y-99487984D01*
X54979525Y-99151987D01*
X54386366Y-99034000D01*
X54325634Y-99034000D01*
X53732475Y-99151987D01*
X53229618Y-99487984D01*
X52893621Y-99990841D01*
X52775634Y-100584000D01*
X43238848Y-100584000D01*
X43244239Y-100553936D01*
X43134846Y-100003983D01*
X42886805Y-99918881D01*
X42221685Y-100584000D01*
X41132000Y-100584000D01*
X41132000Y-99976629D01*
X41373157Y-99735472D01*
X41656000Y-100018315D01*
X42321119Y-99353195D01*
X42236017Y-99105154D01*
X41881323Y-99041554D01*
X41420093Y-98580323D01*
X41132000Y-98868416D01*
X41132000Y-98712214D01*
X42363104Y-97481109D01*
X42363107Y-97481107D01*
X42475297Y-97313203D01*
X42782382Y-97108016D01*
X43118379Y-96605159D01*
X43236366Y-96012000D01*
X43118379Y-95418841D01*
X42782382Y-94915984D01*
X42279525Y-94579987D01*
X41736639Y-94472000D01*
X54024189Y-94472000D01*
X53479143Y-94697208D01*
X53042740Y-95132849D01*
X52806270Y-95702333D01*
X52805732Y-96318961D01*
X53041208Y-96888857D01*
X53476849Y-97325260D01*
X54046333Y-97561730D01*
X54662961Y-97562268D01*
X55232857Y-97326792D01*
X55669260Y-96891151D01*
X55905730Y-96321667D01*
X55906268Y-95705039D01*
X55670792Y-95135143D01*
X55235151Y-94698740D01*
X54665667Y-94462270D01*
X54153164Y-94461823D01*
X54484684Y-94395880D01*
X54809107Y-94179107D01*
X54829940Y-94158274D01*
X54950000Y-94108666D01*
X55245628Y-93813554D01*
X55405818Y-93427774D01*
X55406182Y-93010058D01*
X55374605Y-92933634D01*
X57632000Y-92933634D01*
X57632000Y-92994366D01*
X57749987Y-93587525D01*
X58085984Y-94090382D01*
X58588841Y-94426379D01*
X59182000Y-94544366D01*
X59775159Y-94426379D01*
X60164000Y-94166565D01*
X60164000Y-94214002D01*
X60829939Y-94214002D01*
X61091369Y-94388665D01*
X61322000Y-94272737D01*
X61322000Y-93364000D01*
X60922000Y-93364000D01*
X60922000Y-92564000D01*
X61322000Y-92564000D01*
X61322000Y-91655263D01*
X61091369Y-91539335D01*
X60829939Y-91713998D01*
X60164000Y-91713998D01*
X60164000Y-91761435D01*
X59775159Y-91501621D01*
X59182000Y-91383634D01*
X58588841Y-91501621D01*
X58085984Y-91837618D01*
X57749987Y-92340475D01*
X57632000Y-92933634D01*
X55374605Y-92933634D01*
X55246666Y-92624000D01*
X54951554Y-92328372D01*
X54565774Y-92168182D01*
X54148058Y-92167818D01*
X53762000Y-92327334D01*
X53617081Y-92472000D01*
X50781400Y-92472000D01*
X51128392Y-92240148D01*
X51529421Y-91639964D01*
X51670244Y-90932000D01*
X51591929Y-90538285D01*
X53285107Y-88845107D01*
X53397297Y-88677203D01*
X53704382Y-88472016D01*
X54040379Y-87969159D01*
X54158366Y-87376000D01*
X54040379Y-86782841D01*
X53704382Y-86279984D01*
X53201525Y-85943987D01*
X53148729Y-85933485D01*
X53697409Y-85384805D01*
X58262881Y-85384805D01*
X58347983Y-85632846D01*
X58958064Y-85742239D01*
X59508017Y-85632846D01*
X59593119Y-85384805D01*
X58928000Y-84719685D01*
X58262881Y-85384805D01*
X53697409Y-85384805D01*
X56040214Y-83042000D01*
X57800416Y-83042000D01*
X56924323Y-83918093D01*
X57376874Y-84370643D01*
X57449154Y-84734017D01*
X57697195Y-84819119D01*
X58362315Y-84154000D01*
X58079472Y-83871157D01*
X58645157Y-83305472D01*
X58928000Y-83588315D01*
X59210843Y-83305472D01*
X59776528Y-83871157D01*
X59493685Y-84154000D01*
X60158805Y-84819119D01*
X60406846Y-84734017D01*
X60470446Y-84379323D01*
X60931677Y-83918093D01*
X60055584Y-83042000D01*
X61631307Y-83042000D01*
X61631307Y-84670000D01*
X61683604Y-84947933D01*
X61847862Y-85203198D01*
X62021158Y-85321606D01*
X61736447Y-85747707D01*
X61614654Y-86360000D01*
X61736447Y-86972293D01*
X62083283Y-87491371D01*
X62290756Y-87630000D01*
X62083283Y-87768629D01*
X61995504Y-87900000D01*
X59866308Y-87900000D01*
X59807151Y-87840740D01*
X59237667Y-87604270D01*
X58621039Y-87603732D01*
X58051143Y-87839208D01*
X57614740Y-88274849D01*
X57378270Y-88844333D01*
X57377732Y-89460961D01*
X57613208Y-90030857D01*
X58048849Y-90467260D01*
X58618333Y-90703730D01*
X59234961Y-90704268D01*
X59804857Y-90468792D01*
X60241260Y-90033151D01*
X60296549Y-89900000D01*
X61995504Y-89900000D01*
X62083283Y-90031371D01*
X62602361Y-90378207D01*
X63214654Y-90500000D01*
X63277346Y-90500000D01*
X63889639Y-90378207D01*
X64024000Y-90288430D01*
X64024000Y-91430975D01*
X63668841Y-91501621D01*
X63280000Y-91761435D01*
X63280000Y-91713998D01*
X62614061Y-91713998D01*
X62352631Y-91539335D01*
X62122000Y-91655263D01*
X62122000Y-92564000D01*
X62522000Y-92564000D01*
X62522000Y-93364000D01*
X62122000Y-93364000D01*
X62122000Y-94272737D01*
X62352631Y-94388665D01*
X62614061Y-94214002D01*
X63262000Y-94214002D01*
X63262000Y-95851787D01*
X61014893Y-98098893D01*
X60798120Y-98423316D01*
X60798120Y-98423317D01*
X60722000Y-98806000D01*
X60722000Y-99333998D01*
X60603972Y-99333998D01*
X60411372Y-99141398D01*
X60132775Y-99026000D01*
X59771500Y-99026000D01*
X59582000Y-99215500D01*
X59582000Y-100184000D01*
X59982000Y-100184000D01*
X59982000Y-100984000D01*
X59582000Y-100984000D01*
X59582000Y-101952500D01*
X59771500Y-102142000D01*
X60132775Y-102142000D01*
X60411372Y-102026602D01*
X60603972Y-101834002D01*
X60740000Y-101834002D01*
X60740000Y-101786565D01*
X61128841Y-102046379D01*
X61722000Y-102164366D01*
X62315159Y-102046379D01*
X62818016Y-101710382D01*
X62992000Y-101449996D01*
X63165984Y-101710382D01*
X63668841Y-102046379D01*
X64262000Y-102164366D01*
X64855159Y-102046379D01*
X65358016Y-101710382D01*
X65532000Y-101449996D01*
X65705984Y-101710382D01*
X66208841Y-102046379D01*
X66802000Y-102164366D01*
X67395159Y-102046379D01*
X67898016Y-101710382D01*
X68234013Y-101207525D01*
X68352000Y-100614366D01*
X68352000Y-100553634D01*
X68234013Y-99960475D01*
X67898016Y-99457618D01*
X67659130Y-99298000D01*
X68165786Y-99298000D01*
X70433726Y-101565940D01*
X70483334Y-101686000D01*
X70778446Y-101981628D01*
X71164226Y-102141818D01*
X71581942Y-102142182D01*
X71968000Y-101982666D01*
X72263628Y-101687554D01*
X72423818Y-101301774D01*
X72424182Y-100884058D01*
X72264666Y-100498000D01*
X71969554Y-100202372D01*
X71848192Y-100151978D01*
X71145019Y-99448805D01*
X72740881Y-99448805D01*
X72825983Y-99696846D01*
X73436064Y-99806239D01*
X73986017Y-99696846D01*
X74071119Y-99448805D01*
X73406000Y-98783685D01*
X72740881Y-99448805D01*
X71145019Y-99448805D01*
X69944278Y-98248064D01*
X71817761Y-98248064D01*
X71927154Y-98798017D01*
X72175195Y-98883119D01*
X72840315Y-98218000D01*
X73971685Y-98218000D01*
X74636805Y-98883119D01*
X74884846Y-98798017D01*
X74994239Y-98187936D01*
X74884846Y-97637983D01*
X74636805Y-97552881D01*
X73971685Y-98218000D01*
X72840315Y-98218000D01*
X72175195Y-97552881D01*
X71927154Y-97637983D01*
X71817761Y-98248064D01*
X69944278Y-98248064D01*
X69287107Y-97590893D01*
X68962684Y-97374120D01*
X68580000Y-97298000D01*
X66294000Y-97298000D01*
X65911316Y-97374120D01*
X65586893Y-97590893D01*
X64152339Y-99025447D01*
X63668841Y-99121621D01*
X63165984Y-99457618D01*
X62992000Y-99718004D01*
X62818016Y-99457618D01*
X62722000Y-99393462D01*
X62722000Y-99220214D01*
X64955018Y-96987195D01*
X72740881Y-96987195D01*
X73406000Y-97652315D01*
X74071119Y-96987195D01*
X73986017Y-96739154D01*
X73375936Y-96629761D01*
X72825983Y-96739154D01*
X72740881Y-96987195D01*
X64955018Y-96987195D01*
X64969104Y-96973109D01*
X64969107Y-96973107D01*
X65185880Y-96648683D01*
X65262000Y-96266000D01*
X65262000Y-95378214D01*
X65586893Y-95703107D01*
X65911316Y-95919880D01*
X66294000Y-95996000D01*
X75438000Y-95996000D01*
X75820684Y-95919880D01*
X76145107Y-95703107D01*
X76360214Y-95488000D01*
X78067539Y-95488000D01*
X78151984Y-95614382D01*
X78440866Y-95807406D01*
X78540893Y-95957107D01*
X78865317Y-96173880D01*
X79248000Y-96250000D01*
X79630683Y-96173880D01*
X79955107Y-95957107D01*
X80055134Y-95807406D01*
X80344016Y-95614382D01*
X80680013Y-95111525D01*
X80798000Y-94518366D01*
X80798000Y-94457634D01*
X80680013Y-93864475D01*
X80344016Y-93361618D01*
X79841159Y-93025621D01*
X79248000Y-92907634D01*
X78654841Y-93025621D01*
X78151984Y-93361618D01*
X78067539Y-93488000D01*
X75946000Y-93488000D01*
X75563317Y-93564120D01*
X75238893Y-93780893D01*
X75238891Y-93780896D01*
X75023787Y-93996000D01*
X74761261Y-93996000D01*
X74955730Y-93527667D01*
X74956268Y-92911039D01*
X74720792Y-92341143D01*
X74285151Y-91904740D01*
X73715667Y-91668270D01*
X73099039Y-91667732D01*
X72529143Y-91903208D01*
X72468245Y-91964000D01*
X67982461Y-91964000D01*
X67898016Y-91837618D01*
X67395159Y-91501621D01*
X66802000Y-91383634D01*
X66208841Y-91501621D01*
X66024000Y-91625127D01*
X66024000Y-90901634D01*
X77698000Y-90901634D01*
X77698000Y-90962366D01*
X77815987Y-91555525D01*
X78151984Y-92058382D01*
X78654841Y-92394379D01*
X79248000Y-92512366D01*
X79841159Y-92394379D01*
X80344016Y-92058382D01*
X80680013Y-91555525D01*
X80798000Y-90962366D01*
X80798000Y-90901634D01*
X80680013Y-90308475D01*
X80344016Y-89805618D01*
X79841159Y-89469621D01*
X79248000Y-89351634D01*
X78654841Y-89469621D01*
X78151984Y-89805618D01*
X77815987Y-90308475D01*
X77698000Y-90901634D01*
X66024000Y-90901634D01*
X66024000Y-88900000D01*
X66185756Y-88900000D01*
X66326579Y-89607964D01*
X66727608Y-90208148D01*
X67327792Y-90609177D01*
X68035756Y-90750000D01*
X68108244Y-90750000D01*
X68816208Y-90609177D01*
X69416392Y-90208148D01*
X69817421Y-89607964D01*
X69958244Y-88900000D01*
X69817421Y-88192036D01*
X69416392Y-87591852D01*
X68816208Y-87190823D01*
X68108244Y-87050000D01*
X68035756Y-87050000D01*
X67327792Y-87190823D01*
X66727608Y-87591852D01*
X66326579Y-88192036D01*
X66185756Y-88900000D01*
X66024000Y-88900000D01*
X66024000Y-87884000D01*
X65947880Y-87501317D01*
X65731107Y-87176893D01*
X65731104Y-87176891D01*
X64967175Y-86412961D01*
X73633732Y-86412961D01*
X73869208Y-86982857D01*
X74106868Y-87220933D01*
X74058802Y-87251862D01*
X73887554Y-87502492D01*
X73827307Y-87800000D01*
X73827307Y-90000000D01*
X73879604Y-90277933D01*
X74043862Y-90533198D01*
X74294492Y-90704446D01*
X74592000Y-90764693D01*
X76792000Y-90764693D01*
X77069933Y-90712396D01*
X77325198Y-90548138D01*
X77496446Y-90297508D01*
X77556693Y-90000000D01*
X77556693Y-87800000D01*
X77504396Y-87522067D01*
X77340138Y-87266802D01*
X77089508Y-87095554D01*
X76792000Y-87035307D01*
X76447016Y-87035307D01*
X76497260Y-86985151D01*
X76733730Y-86415667D01*
X76734268Y-85799039D01*
X76498792Y-85229143D01*
X76063151Y-84792740D01*
X75493667Y-84556270D01*
X74877039Y-84555732D01*
X74307143Y-84791208D01*
X73870740Y-85226849D01*
X73634270Y-85796333D01*
X73633732Y-86412961D01*
X64967175Y-86412961D01*
X64868192Y-86313978D01*
X64755553Y-85747707D01*
X64470109Y-85320509D01*
X64629198Y-85218138D01*
X64800446Y-84967508D01*
X64830317Y-84820000D01*
X65179139Y-84820000D01*
X65233208Y-84950857D01*
X65668849Y-85387260D01*
X66238333Y-85623730D01*
X66854961Y-85624268D01*
X67424857Y-85388792D01*
X67508990Y-85304805D01*
X70882881Y-85304805D01*
X70967983Y-85552846D01*
X71578064Y-85662239D01*
X72128017Y-85552846D01*
X72213119Y-85304805D01*
X71548000Y-84639685D01*
X70882881Y-85304805D01*
X67508990Y-85304805D01*
X67861260Y-84953151D01*
X68097730Y-84383667D01*
X68098268Y-83767039D01*
X67862792Y-83197143D01*
X67707920Y-83042000D01*
X70340416Y-83042000D01*
X69544323Y-83838093D01*
X69996874Y-84290643D01*
X70069154Y-84654017D01*
X70317195Y-84739119D01*
X70982315Y-84074000D01*
X70699472Y-83791157D01*
X71265157Y-83225472D01*
X71548000Y-83508315D01*
X71830843Y-83225472D01*
X72396528Y-83791157D01*
X72113685Y-84074000D01*
X72778805Y-84739119D01*
X73026846Y-84654017D01*
X73090446Y-84299323D01*
X73551677Y-83838093D01*
X72755584Y-83042000D01*
X73753786Y-83042000D01*
X74243726Y-83531940D01*
X74293334Y-83652000D01*
X74588446Y-83947628D01*
X74974226Y-84107818D01*
X75391942Y-84108182D01*
X75778000Y-83948666D01*
X76073628Y-83653554D01*
X76233818Y-83267774D01*
X76234182Y-82850058D01*
X76074666Y-82464000D01*
X75890987Y-82280000D01*
X81534000Y-82280000D01*
X81916684Y-82203880D01*
X82241107Y-81987107D01*
X82436493Y-81791721D01*
X82718841Y-81980379D01*
X83312000Y-82098366D01*
X83593087Y-82042454D01*
X82400892Y-84677832D01*
X82397193Y-84693738D01*
X82388120Y-84707317D01*
X82353135Y-84883201D01*
X82312516Y-85057872D01*
X82315186Y-85073984D01*
X82312000Y-85090000D01*
X82312000Y-92026136D01*
X81998740Y-92338849D01*
X81762270Y-92908333D01*
X81761732Y-93524961D01*
X81997208Y-94094857D01*
X82432849Y-94531260D01*
X82551558Y-94580552D01*
X82252740Y-94878849D01*
X82016270Y-95448333D01*
X82015732Y-96064961D01*
X82251208Y-96634857D01*
X82651718Y-97036068D01*
X78540893Y-101146893D01*
X78324120Y-101471316D01*
X78324120Y-101471317D01*
X78248000Y-101854000D01*
X78248000Y-105996136D01*
X77934740Y-106308849D01*
X77698270Y-106878333D01*
X77697732Y-107494961D01*
X77933208Y-108064857D01*
X78368849Y-108501260D01*
X78938333Y-108737730D01*
X79554961Y-108738268D01*
X80124857Y-108502792D01*
X80561260Y-108067151D01*
X80660827Y-107827365D01*
X82141306Y-107827365D01*
X82249693Y-108058000D01*
X83166000Y-108058000D01*
X83166000Y-107149263D01*
X83966000Y-107149263D01*
X83966000Y-108058000D01*
X84882307Y-108058000D01*
X84990694Y-107827365D01*
X84640912Y-107330162D01*
X84196631Y-107033335D01*
X83966000Y-107149263D01*
X83166000Y-107149263D01*
X82935369Y-107033335D01*
X82491088Y-107330162D01*
X82141306Y-107827365D01*
X80660827Y-107827365D01*
X80797730Y-107497667D01*
X80798268Y-106881039D01*
X80562792Y-106311143D01*
X80248000Y-105995800D01*
X80248000Y-103614079D01*
X85883654Y-103614079D01*
X86187494Y-104349429D01*
X86749612Y-104912529D01*
X87484430Y-105217652D01*
X88280079Y-105218346D01*
X89015429Y-104914506D01*
X89578529Y-104352388D01*
X89883652Y-103617570D01*
X89884346Y-102821921D01*
X89580506Y-102086571D01*
X89018388Y-101523471D01*
X88283570Y-101218348D01*
X87487921Y-101217654D01*
X86752571Y-101521494D01*
X86189471Y-102083612D01*
X85884348Y-102818430D01*
X85883654Y-103614079D01*
X80248000Y-103614079D01*
X80248000Y-102268214D01*
X83902135Y-98614079D01*
X85883654Y-98614079D01*
X86187494Y-99349429D01*
X86749612Y-99912529D01*
X87484430Y-100217652D01*
X88280079Y-100218346D01*
X89015429Y-99914506D01*
X89578529Y-99352388D01*
X89883652Y-98617570D01*
X89884346Y-97821921D01*
X89580506Y-97086571D01*
X89018388Y-96523471D01*
X88283570Y-96218348D01*
X87487921Y-96217654D01*
X86752571Y-96521494D01*
X86189471Y-97083612D01*
X85884348Y-97818430D01*
X85883654Y-98614079D01*
X83902135Y-98614079D01*
X87353096Y-95163118D01*
X87484430Y-95217652D01*
X88280079Y-95218346D01*
X89015429Y-94914506D01*
X89578529Y-94352388D01*
X89883652Y-93617570D01*
X89884346Y-92821921D01*
X89580506Y-92086571D01*
X89018388Y-91523471D01*
X88283570Y-91218348D01*
X87487921Y-91217654D01*
X86752571Y-91521494D01*
X86189471Y-92083612D01*
X85884348Y-92818430D01*
X85883654Y-93614079D01*
X85939222Y-93748564D01*
X84843750Y-94844036D01*
X84445151Y-94444740D01*
X84326442Y-94395448D01*
X84625260Y-94097151D01*
X84861730Y-93527667D01*
X84862268Y-92911039D01*
X84626792Y-92341143D01*
X84312000Y-92025800D01*
X84312000Y-85305670D01*
X84762386Y-84310079D01*
X86137654Y-84310079D01*
X86441494Y-85045429D01*
X87003612Y-85608529D01*
X87738430Y-85913652D01*
X88534079Y-85914346D01*
X89269429Y-85610506D01*
X89832529Y-85048388D01*
X90137652Y-84313570D01*
X90138346Y-83517921D01*
X89834506Y-82782571D01*
X89272388Y-82219471D01*
X88537570Y-81914348D01*
X87741921Y-81913654D01*
X87006571Y-82217494D01*
X86443471Y-82779612D01*
X86138348Y-83514430D01*
X86137654Y-84310079D01*
X84762386Y-84310079D01*
X86613627Y-80217863D01*
X87003612Y-80608529D01*
X87738430Y-80913652D01*
X88534079Y-80914346D01*
X89269429Y-80610506D01*
X89832529Y-80048388D01*
X90137652Y-79313570D01*
X90138346Y-78517921D01*
X89834506Y-77782571D01*
X89272388Y-77219471D01*
X88537570Y-76914348D01*
X88108244Y-76913974D01*
X88566520Y-75900942D01*
X89269429Y-75610506D01*
X89832529Y-75048388D01*
X90137652Y-74313570D01*
X90138346Y-73517921D01*
X89834506Y-72782571D01*
X89272388Y-72219471D01*
X88537570Y-71914348D01*
X87741921Y-71913654D01*
X87006571Y-72217494D01*
X86443471Y-72779612D01*
X86138348Y-73514430D01*
X86137654Y-74310079D01*
X86441494Y-75045429D01*
X86659578Y-75263894D01*
X84637145Y-79734536D01*
X84408016Y-79391618D01*
X83905159Y-79055621D01*
X83312000Y-78937634D01*
X82718841Y-79055621D01*
X82215984Y-79391618D01*
X82106330Y-79555727D01*
X81913316Y-79594120D01*
X81588893Y-79810893D01*
X81119786Y-80280000D01*
X75852214Y-80280000D01*
X74660000Y-79087786D01*
X74660000Y-78538961D01*
X77697732Y-78538961D01*
X77933208Y-79108857D01*
X78368849Y-79545260D01*
X78938333Y-79781730D01*
X79554961Y-79782268D01*
X80124857Y-79546792D01*
X80561260Y-79111151D01*
X80797730Y-78541667D01*
X80798268Y-77925039D01*
X80562792Y-77355143D01*
X80127151Y-76918740D01*
X79557667Y-76682270D01*
X78941039Y-76681732D01*
X78371143Y-76917208D01*
X77934740Y-77352849D01*
X77698270Y-77922333D01*
X77697732Y-78538961D01*
X74660000Y-78538961D01*
X74660000Y-76962000D01*
X74583880Y-76579317D01*
X74367107Y-76254893D01*
X71053316Y-72941102D01*
X71120000Y-72954366D01*
X71713159Y-72836379D01*
X72216016Y-72500382D01*
X72300461Y-72374000D01*
X74024920Y-72374000D01*
X73751987Y-72782475D01*
X73634000Y-73375634D01*
X73634000Y-73436366D01*
X73751987Y-74029525D01*
X74087984Y-74532382D01*
X74590841Y-74868379D01*
X75184000Y-74986366D01*
X75777159Y-74868379D01*
X76280016Y-74532382D01*
X76616013Y-74029525D01*
X76668656Y-73764870D01*
X77190118Y-74286332D01*
X77189732Y-74728961D01*
X77425208Y-75298857D01*
X77860849Y-75735260D01*
X78430333Y-75971730D01*
X79046961Y-75972268D01*
X79616857Y-75736792D01*
X79700990Y-75652805D01*
X83074881Y-75652805D01*
X83159983Y-75900846D01*
X83770064Y-76010239D01*
X84320017Y-75900846D01*
X84405119Y-75652805D01*
X83740000Y-74987685D01*
X83074881Y-75652805D01*
X79700990Y-75652805D01*
X80053260Y-75301151D01*
X80289730Y-74731667D01*
X80289973Y-74452064D01*
X82151761Y-74452064D01*
X82261154Y-75002017D01*
X82509195Y-75087119D01*
X83174315Y-74422000D01*
X84305685Y-74422000D01*
X84970805Y-75087119D01*
X85218846Y-75002017D01*
X85328239Y-74391936D01*
X85218846Y-73841983D01*
X84970805Y-73756881D01*
X84305685Y-74422000D01*
X83174315Y-74422000D01*
X82509195Y-73756881D01*
X82261154Y-73841983D01*
X82151761Y-74452064D01*
X80289973Y-74452064D01*
X80290268Y-74115039D01*
X80054792Y-73545143D01*
X79701463Y-73191195D01*
X83074881Y-73191195D01*
X83740000Y-73856315D01*
X84405119Y-73191195D01*
X84320017Y-72943154D01*
X83709936Y-72833761D01*
X83159983Y-72943154D01*
X83074881Y-73191195D01*
X79701463Y-73191195D01*
X79619151Y-73108740D01*
X79049667Y-72872270D01*
X78604095Y-72871881D01*
X77280801Y-71548587D01*
X77344684Y-71535880D01*
X77669107Y-71319107D01*
X78347414Y-70640799D01*
X78486000Y-70668366D01*
X79079159Y-70550379D01*
X79582016Y-70214382D01*
X79756000Y-69953996D01*
X79929984Y-70214382D01*
X80432841Y-70550379D01*
X81026000Y-70668366D01*
X81619159Y-70550379D01*
X82008000Y-70290565D01*
X82008000Y-70338002D01*
X82673939Y-70338002D01*
X82935369Y-70512665D01*
X83166000Y-70396737D01*
X83166000Y-69488000D01*
X83966000Y-69488000D01*
X83966000Y-70396737D01*
X84196631Y-70512665D01*
X84640912Y-70215838D01*
X84990694Y-69718635D01*
X84882307Y-69488000D01*
X83966000Y-69488000D01*
X83166000Y-69488000D01*
X82766000Y-69488000D01*
X82766000Y-68688000D01*
X83166000Y-68688000D01*
X83166000Y-67779263D01*
X83966000Y-67779263D01*
X83966000Y-68688000D01*
X84882307Y-68688000D01*
X84990694Y-68457365D01*
X84640912Y-67960162D01*
X84196631Y-67663335D01*
X83966000Y-67779263D01*
X83166000Y-67779263D01*
X82935369Y-67663335D01*
X82673939Y-67837998D01*
X82008000Y-67837998D01*
X82008000Y-67885435D01*
X81619159Y-67625621D01*
X81026000Y-67507634D01*
X80432841Y-67625621D01*
X79929984Y-67961618D01*
X79756000Y-68222004D01*
X79582016Y-67961618D01*
X79079159Y-67625621D01*
X78486000Y-67507634D01*
X77892841Y-67625621D01*
X77416024Y-67944219D01*
X77294138Y-67754802D01*
X77043508Y-67583554D01*
X76746000Y-67523307D01*
X75146000Y-67523307D01*
X74868067Y-67575604D01*
X74612802Y-67739862D01*
X74441554Y-67990492D01*
X74381307Y-68288000D01*
X74381307Y-69612000D01*
X74012216Y-69612000D01*
X73289109Y-68888893D01*
X72964686Y-68672120D01*
X72582002Y-68596000D01*
X65438214Y-68596000D01*
X64754000Y-67911786D01*
X64754000Y-63476931D01*
X64897628Y-63333554D01*
X65057818Y-62947774D01*
X65058125Y-62595000D01*
X65752786Y-62595000D01*
X66856893Y-63699107D01*
X67060958Y-63835458D01*
X66830323Y-64066093D01*
X67066230Y-64302000D01*
X66830323Y-64537907D01*
X67650166Y-65357750D01*
X67500802Y-65453862D01*
X67329554Y-65704492D01*
X67269307Y-66002000D01*
X67269307Y-67602000D01*
X67321604Y-67879933D01*
X67485862Y-68135198D01*
X67736492Y-68306446D01*
X68034000Y-68366693D01*
X69634000Y-68366693D01*
X69911933Y-68314396D01*
X70167198Y-68150138D01*
X70338446Y-67899508D01*
X70398693Y-67602000D01*
X70398693Y-66156000D01*
X90029307Y-66156000D01*
X90029307Y-67956000D01*
X90081604Y-68233933D01*
X90245862Y-68489198D01*
X90496492Y-68660446D01*
X90794000Y-68720693D01*
X92594000Y-68720693D01*
X92871933Y-68668396D01*
X93127198Y-68504138D01*
X93298446Y-68253508D01*
X93358693Y-67956000D01*
X93358693Y-66156000D01*
X93306396Y-65878067D01*
X93142138Y-65622802D01*
X93010712Y-65533002D01*
X93091986Y-65451870D01*
X93343713Y-64845645D01*
X93344285Y-64189235D01*
X93093617Y-63582571D01*
X92629870Y-63118014D01*
X92023645Y-62866287D01*
X91367235Y-62865715D01*
X90760571Y-63116383D01*
X90296014Y-63580130D01*
X90044287Y-64186355D01*
X90043715Y-64842765D01*
X90294383Y-65449429D01*
X90377547Y-65532739D01*
X90260802Y-65607862D01*
X90089554Y-65858492D01*
X90029307Y-66156000D01*
X70398693Y-66156000D01*
X70398693Y-66002000D01*
X70346396Y-65724067D01*
X70182138Y-65468802D01*
X70018554Y-65357030D01*
X70837677Y-64537907D01*
X70601770Y-64302000D01*
X70837677Y-64066093D01*
X70763584Y-63992000D01*
X77216000Y-63992000D01*
X77598684Y-63915880D01*
X77923107Y-63699107D01*
X78595661Y-63026553D01*
X79079159Y-62930379D01*
X79582016Y-62594382D01*
X79756000Y-62333996D01*
X79929984Y-62594382D01*
X80432841Y-62930379D01*
X81026000Y-63048366D01*
X81619159Y-62930379D01*
X82122016Y-62594382D01*
X82296000Y-62333996D01*
X82469984Y-62594382D01*
X82972841Y-62930379D01*
X83566000Y-63048366D01*
X84159159Y-62930379D01*
X84662016Y-62594382D01*
X84998013Y-62091525D01*
X85116000Y-61498366D01*
X85116000Y-61437634D01*
X84998013Y-60844475D01*
X84662016Y-60341618D01*
X84159159Y-60005621D01*
X83566000Y-59887634D01*
X82972841Y-60005621D01*
X82469984Y-60341618D01*
X82296000Y-60602004D01*
X82122016Y-60341618D01*
X81619159Y-60005621D01*
X81026000Y-59887634D01*
X80887414Y-59915200D01*
X79708682Y-58736468D01*
X79609206Y-57443285D01*
X79613933Y-57442396D01*
X79869198Y-57278138D01*
X79987606Y-57104842D01*
X80413707Y-57389553D01*
X81026000Y-57511346D01*
X81638293Y-57389553D01*
X82157371Y-57042717D01*
X82296000Y-56835244D01*
X82434629Y-57042717D01*
X82953707Y-57389553D01*
X83566000Y-57511346D01*
X84178293Y-57389553D01*
X84697371Y-57042717D01*
X85044207Y-56523639D01*
X85100173Y-56242282D01*
X93984000Y-63114677D01*
X93984000Y-143131000D01*
X92108111Y-144537917D01*
X91651054Y-144537518D01*
X90628182Y-144960160D01*
X89844910Y-145742066D01*
X89547460Y-146458405D01*
X86022667Y-149102000D01*
X81225770Y-149102000D01*
X81456643Y-148871126D01*
X81820017Y-148798846D01*
X81905119Y-148550805D01*
X81240000Y-147885685D01*
X80957157Y-148168528D01*
X80391472Y-147602843D01*
X80674315Y-147320000D01*
X81805685Y-147320000D01*
X82470805Y-147985119D01*
X82718846Y-147900017D01*
X82828239Y-147289936D01*
X82718846Y-146739983D01*
X82470805Y-146654881D01*
X81805685Y-147320000D01*
X80674315Y-147320000D01*
X80391472Y-147037157D01*
X80957157Y-146471472D01*
X81240000Y-146754315D01*
X81905119Y-146089195D01*
X81820017Y-145841154D01*
X81465323Y-145777554D01*
X81004093Y-145316323D01*
X80184250Y-146136166D01*
X80088138Y-145986802D01*
X79837508Y-145815554D01*
X79540000Y-145755307D01*
X77940000Y-145755307D01*
X77662067Y-145807604D01*
X77406802Y-145971862D01*
X77235554Y-146222492D01*
X77175307Y-146520000D01*
X77175307Y-148120000D01*
X77227604Y-148397933D01*
X77391862Y-148653198D01*
X77642492Y-148824446D01*
X77940000Y-148884693D01*
X79540000Y-148884693D01*
X79817933Y-148832396D01*
X80073198Y-148668138D01*
X80184970Y-148504554D01*
X80782416Y-149102000D01*
X73445089Y-149102000D01*
X73569198Y-149022138D01*
X73740446Y-148771508D01*
X73800693Y-148474000D01*
X73800693Y-146674000D01*
X73748396Y-146396067D01*
X73584138Y-146140802D01*
X73333508Y-145969554D01*
X73036000Y-145909307D01*
X71236000Y-145909307D01*
X70958067Y-145961604D01*
X70702802Y-146125862D01*
X70592206Y-146287725D01*
X70290097Y-146068246D01*
X70046000Y-146167704D01*
X70046000Y-147124000D01*
X70471307Y-147124000D01*
X70471307Y-148024000D01*
X70046000Y-148024000D01*
X70046000Y-148474000D01*
X69146000Y-148474000D01*
X69146000Y-148024000D01*
X68696000Y-148024000D01*
X68696000Y-147786781D01*
X68738325Y-147574000D01*
X68696000Y-147361219D01*
X68696000Y-147124000D01*
X69146000Y-147124000D01*
X69146000Y-146167704D01*
X68901903Y-146068246D01*
X68549864Y-146323998D01*
X68130420Y-146323998D01*
X67719753Y-146049599D01*
X67088325Y-145924000D01*
X67023675Y-145924000D01*
X66392247Y-146049599D01*
X65856949Y-146407274D01*
X65499274Y-146942572D01*
X65373675Y-147574000D01*
X65499274Y-148205428D01*
X65856949Y-148740726D01*
X66392247Y-149098401D01*
X66410340Y-149102000D01*
X62929285Y-149102000D01*
X63018446Y-148971508D01*
X63078693Y-148674000D01*
X63078693Y-146474000D01*
X63026396Y-146196067D01*
X62862138Y-145940802D01*
X62611508Y-145769554D01*
X62314000Y-145709307D01*
X60763521Y-145709307D01*
X60143107Y-145088893D01*
X59818684Y-144872120D01*
X59436000Y-144796000D01*
X54864000Y-144796000D01*
X54481316Y-144872120D01*
X54156893Y-145088893D01*
X53536479Y-145709307D01*
X52748000Y-145709307D01*
X52470067Y-145761604D01*
X52214802Y-145925862D01*
X52043554Y-146176492D01*
X51983307Y-146474000D01*
X51983307Y-148674000D01*
X52035604Y-148951933D01*
X52132169Y-149102000D01*
X51753285Y-149102000D01*
X51842446Y-148971508D01*
X51902693Y-148674000D01*
X51902693Y-146474000D01*
X51850396Y-146196067D01*
X51686138Y-145940802D01*
X51435508Y-145769554D01*
X51138000Y-145709307D01*
X48938000Y-145709307D01*
X48660067Y-145761604D01*
X48404802Y-145925862D01*
X48233554Y-146176492D01*
X48173307Y-146474000D01*
X48173307Y-148674000D01*
X48225604Y-148951933D01*
X48322169Y-149102000D01*
X47584693Y-149102000D01*
X47584693Y-147490000D01*
X47532396Y-147212067D01*
X47368138Y-146956802D01*
X47117508Y-146785554D01*
X46820000Y-146725307D01*
X44620000Y-146725307D01*
X44342067Y-146777604D01*
X44086802Y-146941862D01*
X43915554Y-147192492D01*
X43855307Y-147490000D01*
X43855307Y-149102000D01*
X33885554Y-149102000D01*
X32552697Y-147769143D01*
X33893160Y-147769143D01*
X33984756Y-148040000D01*
X35010000Y-148040000D01*
X35010000Y-147004736D01*
X36110000Y-147004736D01*
X36110000Y-148040000D01*
X37135244Y-148040000D01*
X37226840Y-147769143D01*
X36956264Y-147364139D01*
X36380863Y-146923125D01*
X36110000Y-147004736D01*
X35010000Y-147004736D01*
X34739137Y-146923125D01*
X34163736Y-147364139D01*
X33893160Y-147769143D01*
X32552697Y-147769143D01*
X30130411Y-145346857D01*
X33893160Y-145346857D01*
X34163736Y-145751861D01*
X34739137Y-146192875D01*
X35010000Y-146111264D01*
X35010000Y-145076000D01*
X36110000Y-145076000D01*
X36110000Y-146111264D01*
X36380863Y-146192875D01*
X36956264Y-145751861D01*
X37226840Y-145346857D01*
X37135244Y-145076000D01*
X36110000Y-145076000D01*
X35010000Y-145076000D01*
X33984756Y-145076000D01*
X33893160Y-145346857D01*
X30130411Y-145346857D01*
X28488697Y-143705143D01*
X33893160Y-143705143D01*
X33984756Y-143976000D01*
X35010000Y-143976000D01*
X35010000Y-142940736D01*
X36110000Y-142940736D01*
X36110000Y-143976000D01*
X37135244Y-143976000D01*
X37226840Y-143705143D01*
X37040350Y-143426000D01*
X43855307Y-143426000D01*
X43855307Y-145626000D01*
X43907604Y-145903933D01*
X44071862Y-146159198D01*
X44322492Y-146330446D01*
X44620000Y-146390693D01*
X46820000Y-146390693D01*
X47097933Y-146338396D01*
X47353198Y-146174138D01*
X47524446Y-145923508D01*
X47584693Y-145626000D01*
X47584693Y-143426000D01*
X47532396Y-143148067D01*
X47368138Y-142892802D01*
X47117508Y-142721554D01*
X46820000Y-142661307D01*
X44620000Y-142661307D01*
X44342067Y-142713604D01*
X44086802Y-142877862D01*
X43915554Y-143128492D01*
X43855307Y-143426000D01*
X37040350Y-143426000D01*
X36956264Y-143300139D01*
X36380863Y-142859125D01*
X36110000Y-142940736D01*
X35010000Y-142940736D01*
X34739137Y-142859125D01*
X34163736Y-143300139D01*
X33893160Y-143705143D01*
X28488697Y-143705143D01*
X25650000Y-140866446D01*
X25650000Y-132616000D01*
X29077307Y-132616000D01*
X29077307Y-136116000D01*
X29129604Y-136393933D01*
X29293862Y-136649198D01*
X29544492Y-136820446D01*
X29842000Y-136880693D01*
X32231708Y-136880693D01*
X32137554Y-137018492D01*
X32077307Y-137316000D01*
X32077307Y-140816000D01*
X32129604Y-141093933D01*
X32293862Y-141349198D01*
X32544492Y-141520446D01*
X32842000Y-141580693D01*
X36342000Y-141580693D01*
X36619933Y-141528396D01*
X36875198Y-141364138D01*
X37046446Y-141113508D01*
X37106693Y-140816000D01*
X37106693Y-138522569D01*
X41683696Y-138522569D01*
X41949557Y-139166001D01*
X42441410Y-139658713D01*
X43084376Y-139925696D01*
X43780569Y-139926304D01*
X44275246Y-139721907D01*
X65560323Y-139721907D01*
X66380166Y-140541750D01*
X66230802Y-140637862D01*
X66059554Y-140888492D01*
X65999307Y-141186000D01*
X65999307Y-142786000D01*
X66051604Y-143063933D01*
X66215862Y-143319198D01*
X66466492Y-143490446D01*
X66764000Y-143550693D01*
X68364000Y-143550693D01*
X68641933Y-143498396D01*
X68897198Y-143334138D01*
X69068446Y-143083508D01*
X69125663Y-142800961D01*
X72617732Y-142800961D01*
X72853208Y-143370857D01*
X73288849Y-143807260D01*
X73858333Y-144043730D01*
X74474961Y-144044268D01*
X75044857Y-143808792D01*
X75481260Y-143373151D01*
X75584452Y-143124635D01*
X77061306Y-143124635D01*
X77411088Y-143621838D01*
X77855369Y-143918665D01*
X78086000Y-143802737D01*
X78086000Y-142894000D01*
X78886000Y-142894000D01*
X78886000Y-143802737D01*
X79116631Y-143918665D01*
X79560912Y-143621838D01*
X79910694Y-143124635D01*
X79802307Y-142894000D01*
X78886000Y-142894000D01*
X78086000Y-142894000D01*
X77169693Y-142894000D01*
X77061306Y-143124635D01*
X75584452Y-143124635D01*
X75717730Y-142803667D01*
X75718026Y-142463634D01*
X81508000Y-142463634D01*
X81508000Y-142524366D01*
X81625987Y-143117525D01*
X81961984Y-143620382D01*
X82464841Y-143956379D01*
X83058000Y-144074366D01*
X83651159Y-143956379D01*
X84154016Y-143620382D01*
X84490013Y-143117525D01*
X84608000Y-142524366D01*
X84608000Y-142463634D01*
X84490013Y-141870475D01*
X84154016Y-141367618D01*
X83651159Y-141031621D01*
X83058000Y-140913634D01*
X82464841Y-141031621D01*
X81961984Y-141367618D01*
X81625987Y-141870475D01*
X81508000Y-142463634D01*
X75718026Y-142463634D01*
X75718268Y-142187039D01*
X75584529Y-141863365D01*
X77061306Y-141863365D01*
X77169693Y-142094000D01*
X78086000Y-142094000D01*
X78086000Y-141185263D01*
X78886000Y-141185263D01*
X78886000Y-142094000D01*
X79802307Y-142094000D01*
X79910694Y-141863365D01*
X79560912Y-141366162D01*
X79116631Y-141069335D01*
X78886000Y-141185263D01*
X78086000Y-141185263D01*
X77855369Y-141069335D01*
X77411088Y-141366162D01*
X77061306Y-141863365D01*
X75584529Y-141863365D01*
X75482792Y-141617143D01*
X75047151Y-141180740D01*
X74477667Y-140944270D01*
X73861039Y-140943732D01*
X73291143Y-141179208D01*
X72854740Y-141614849D01*
X72618270Y-142184333D01*
X72617732Y-142800961D01*
X69125663Y-142800961D01*
X69128693Y-142786000D01*
X69128693Y-141186000D01*
X69076396Y-140908067D01*
X68912138Y-140652802D01*
X68748554Y-140541030D01*
X69567677Y-139721907D01*
X69115126Y-139269357D01*
X69042846Y-138905983D01*
X68794805Y-138820881D01*
X68129685Y-139486000D01*
X68412528Y-139768843D01*
X67846843Y-140334528D01*
X67564000Y-140051685D01*
X67281157Y-140334528D01*
X66715472Y-139768843D01*
X66998315Y-139486000D01*
X66333195Y-138820881D01*
X66085154Y-138905983D01*
X66021554Y-139260677D01*
X65560323Y-139721907D01*
X44275246Y-139721907D01*
X44424001Y-139660443D01*
X44916713Y-139168590D01*
X45183696Y-138525624D01*
X45184304Y-137829431D01*
X44997676Y-137377756D01*
X48188000Y-137377756D01*
X48188000Y-137450244D01*
X48328823Y-138158208D01*
X48729852Y-138758392D01*
X49330036Y-139159421D01*
X50038000Y-139300244D01*
X50745964Y-139159421D01*
X51346148Y-138758392D01*
X51747177Y-138158208D01*
X51888000Y-137450244D01*
X51888000Y-137377756D01*
X51998000Y-137377756D01*
X51998000Y-137450244D01*
X52138823Y-138158208D01*
X52539852Y-138758392D01*
X53140036Y-139159421D01*
X53848000Y-139300244D01*
X54555964Y-139159421D01*
X55156148Y-138758392D01*
X55557177Y-138158208D01*
X55626000Y-137812212D01*
X55694823Y-138158208D01*
X56095852Y-138758392D01*
X56696036Y-139159421D01*
X57404000Y-139300244D01*
X58111964Y-139159421D01*
X58712148Y-138758392D01*
X59113177Y-138158208D01*
X59254000Y-137450244D01*
X59254000Y-137377756D01*
X59364000Y-137377756D01*
X59364000Y-137450244D01*
X59504823Y-138158208D01*
X59905852Y-138758392D01*
X60506036Y-139159421D01*
X61214000Y-139300244D01*
X61921964Y-139159421D01*
X62522148Y-138758392D01*
X62858372Y-138255195D01*
X66898881Y-138255195D01*
X67564000Y-138920315D01*
X68229119Y-138255195D01*
X68144017Y-138007154D01*
X67533936Y-137897761D01*
X66983983Y-138007154D01*
X66898881Y-138255195D01*
X62858372Y-138255195D01*
X62923177Y-138158208D01*
X63064000Y-137450244D01*
X63064000Y-137377756D01*
X62923177Y-136669792D01*
X62522148Y-136069608D01*
X61921964Y-135668579D01*
X61214000Y-135527756D01*
X60506036Y-135668579D01*
X59905852Y-136069608D01*
X59504823Y-136669792D01*
X59364000Y-137377756D01*
X59254000Y-137377756D01*
X59113177Y-136669792D01*
X58712148Y-136069608D01*
X58111964Y-135668579D01*
X57404000Y-135527756D01*
X56696036Y-135668579D01*
X56095852Y-136069608D01*
X55694823Y-136669792D01*
X55626000Y-137015788D01*
X55557177Y-136669792D01*
X55156148Y-136069608D01*
X54555964Y-135668579D01*
X53848000Y-135527756D01*
X53140036Y-135668579D01*
X52539852Y-136069608D01*
X52138823Y-136669792D01*
X51998000Y-137377756D01*
X51888000Y-137377756D01*
X51747177Y-136669792D01*
X51346148Y-136069608D01*
X50745964Y-135668579D01*
X50038000Y-135527756D01*
X49330036Y-135668579D01*
X48729852Y-136069608D01*
X48328823Y-136669792D01*
X48188000Y-137377756D01*
X44997676Y-137377756D01*
X44918443Y-137185999D01*
X44426590Y-136693287D01*
X43783624Y-136426304D01*
X43087431Y-136425696D01*
X42443999Y-136691557D01*
X41951287Y-137183410D01*
X41684304Y-137826376D01*
X41683696Y-138522569D01*
X37106693Y-138522569D01*
X37106693Y-137316000D01*
X37054396Y-137038067D01*
X36953129Y-136880693D01*
X39342000Y-136880693D01*
X39619933Y-136828396D01*
X39875198Y-136664138D01*
X40046446Y-136413508D01*
X40106693Y-136116000D01*
X40106693Y-135516805D01*
X67660881Y-135516805D01*
X67745983Y-135764846D01*
X68356064Y-135874239D01*
X68906017Y-135764846D01*
X68991119Y-135516805D01*
X68326000Y-134851685D01*
X67660881Y-135516805D01*
X40106693Y-135516805D01*
X40106693Y-132616000D01*
X40071049Y-132426569D01*
X41683696Y-132426569D01*
X41949557Y-133070001D01*
X42441410Y-133562713D01*
X43084376Y-133829696D01*
X43780569Y-133830304D01*
X44424001Y-133564443D01*
X44916713Y-133072590D01*
X45183696Y-132429624D01*
X45184304Y-131733431D01*
X44918443Y-131089999D01*
X44426590Y-130597287D01*
X43783624Y-130330304D01*
X43087431Y-130329696D01*
X42443999Y-130595557D01*
X41951287Y-131087410D01*
X41684304Y-131730376D01*
X41683696Y-132426569D01*
X40071049Y-132426569D01*
X40054396Y-132338067D01*
X39890138Y-132082802D01*
X39639508Y-131911554D01*
X39342000Y-131851307D01*
X35842000Y-131851307D01*
X35564067Y-131903604D01*
X35308802Y-132067862D01*
X35137554Y-132318492D01*
X35077307Y-132616000D01*
X35077307Y-136116000D01*
X35129604Y-136393933D01*
X35230871Y-136551307D01*
X33952292Y-136551307D01*
X34046446Y-136413508D01*
X34106693Y-136116000D01*
X34106693Y-132616000D01*
X34054396Y-132338067D01*
X33890138Y-132082802D01*
X33639508Y-131911554D01*
X33342000Y-131851307D01*
X29842000Y-131851307D01*
X29564067Y-131903604D01*
X29308802Y-132067862D01*
X29137554Y-132318492D01*
X29077307Y-132616000D01*
X25650000Y-132616000D01*
X25650000Y-124484000D01*
X25675307Y-124484000D01*
X25675307Y-127484000D01*
X25727604Y-127761933D01*
X25891862Y-128017198D01*
X26142492Y-128188446D01*
X26440000Y-128248693D01*
X29440000Y-128248693D01*
X29717933Y-128196396D01*
X29973198Y-128032138D01*
X30144446Y-127781508D01*
X30204693Y-127484000D01*
X30204693Y-124484000D01*
X30152396Y-124206067D01*
X29988138Y-123950802D01*
X29737508Y-123779554D01*
X29440000Y-123719307D01*
X26440000Y-123719307D01*
X26162067Y-123771604D01*
X25906802Y-123935862D01*
X25735554Y-124186492D01*
X25675307Y-124484000D01*
X25650000Y-124484000D01*
X25650000Y-121349589D01*
X25689610Y-121349589D01*
X26031431Y-122176858D01*
X26663813Y-122810345D01*
X27490484Y-123153608D01*
X28385589Y-123154390D01*
X29212858Y-122812569D01*
X29846345Y-122180187D01*
X30189608Y-121353516D01*
X30190390Y-120458411D01*
X29848569Y-119631142D01*
X29216187Y-118997655D01*
X28389516Y-118654392D01*
X27494411Y-118653610D01*
X26667142Y-118995431D01*
X26033655Y-119627813D01*
X25690392Y-120454484D01*
X25689610Y-121349589D01*
X25650000Y-121349589D01*
X25650000Y-110667500D01*
X25682000Y-110667500D01*
X25682000Y-111378776D01*
X25797399Y-111657373D01*
X26010628Y-111870602D01*
X26289225Y-111986000D01*
X27000500Y-111986000D01*
X27190000Y-111796500D01*
X27190000Y-110478000D01*
X28690000Y-110478000D01*
X28690000Y-111796500D01*
X28879500Y-111986000D01*
X29590775Y-111986000D01*
X29869372Y-111870602D01*
X30082601Y-111657373D01*
X30198000Y-111378776D01*
X30198000Y-110667500D01*
X30008500Y-110478000D01*
X28690000Y-110478000D01*
X27190000Y-110478000D01*
X25871500Y-110478000D01*
X25682000Y-110667500D01*
X25650000Y-110667500D01*
X25650000Y-108077224D01*
X25682000Y-108077224D01*
X25682000Y-108788500D01*
X25871500Y-108978000D01*
X27190000Y-108978000D01*
X27190000Y-107659500D01*
X28690000Y-107659500D01*
X28690000Y-108978000D01*
X30008500Y-108978000D01*
X30198000Y-108788500D01*
X30198000Y-108077224D01*
X30082601Y-107798627D01*
X29869372Y-107585398D01*
X29590775Y-107470000D01*
X28879500Y-107470000D01*
X28690000Y-107659500D01*
X27190000Y-107659500D01*
X27000500Y-107470000D01*
X26289225Y-107470000D01*
X26010628Y-107585398D01*
X25797399Y-107798627D01*
X25682000Y-108077224D01*
X25650000Y-108077224D01*
X25650000Y-103780961D01*
X27581699Y-103780961D01*
X27775361Y-104055784D01*
X28669149Y-104145592D01*
X29120639Y-104055784D01*
X29314301Y-103780961D01*
X28448000Y-102914660D01*
X27581699Y-103780961D01*
X25650000Y-103780961D01*
X25650000Y-102075149D01*
X26156408Y-102075149D01*
X26246216Y-102526639D01*
X26521039Y-102720301D01*
X27387340Y-101854000D01*
X29508660Y-101854000D01*
X30374961Y-102720301D01*
X30649784Y-102526639D01*
X30739592Y-101632851D01*
X30649784Y-101181361D01*
X30374961Y-100987699D01*
X29508660Y-101854000D01*
X27387340Y-101854000D01*
X26521039Y-100987699D01*
X26246216Y-101181361D01*
X26156408Y-102075149D01*
X25650000Y-102075149D01*
X25650000Y-99927039D01*
X27581699Y-99927039D01*
X28448000Y-100793340D01*
X29314301Y-99927039D01*
X29120639Y-99652216D01*
X28226851Y-99562408D01*
X27775361Y-99652216D01*
X27581699Y-99927039D01*
X25650000Y-99927039D01*
X25650000Y-97219589D01*
X26197610Y-97219589D01*
X26539431Y-98046858D01*
X27171813Y-98680345D01*
X27998484Y-99023608D01*
X28893589Y-99024390D01*
X29720858Y-98682569D01*
X30354345Y-98050187D01*
X30697608Y-97223516D01*
X30698254Y-96483756D01*
X32694000Y-96483756D01*
X32694000Y-96556244D01*
X32834823Y-97264208D01*
X33235852Y-97864392D01*
X33583790Y-98096876D01*
X33447984Y-98187618D01*
X33111987Y-98690475D01*
X32994000Y-99283634D01*
X32994000Y-99344366D01*
X33111987Y-99937525D01*
X33447984Y-100440382D01*
X33950841Y-100776379D01*
X34544000Y-100894366D01*
X35137159Y-100776379D01*
X35640016Y-100440382D01*
X35976013Y-99937525D01*
X36094000Y-99344366D01*
X36094000Y-99283634D01*
X35976013Y-98690475D01*
X35640016Y-98187618D01*
X35504210Y-98096876D01*
X35852148Y-97864392D01*
X36253177Y-97264208D01*
X36394000Y-96556244D01*
X36394000Y-96483756D01*
X36253177Y-95775792D01*
X35852148Y-95175608D01*
X35251964Y-94774579D01*
X34544000Y-94633756D01*
X33836036Y-94774579D01*
X33235852Y-95175608D01*
X32834823Y-95775792D01*
X32694000Y-96483756D01*
X30698254Y-96483756D01*
X30698390Y-96328411D01*
X30356569Y-95501142D01*
X29724187Y-94867655D01*
X28897516Y-94524392D01*
X28002411Y-94523610D01*
X27175142Y-94865431D01*
X26541655Y-95497813D01*
X26198392Y-96324484D01*
X26197610Y-97219589D01*
X25650000Y-97219589D01*
X25650000Y-90194000D01*
X26183307Y-90194000D01*
X26183307Y-93194000D01*
X26235604Y-93471933D01*
X26399862Y-93727198D01*
X26650492Y-93898446D01*
X26948000Y-93958693D01*
X29948000Y-93958693D01*
X30225933Y-93906396D01*
X30481198Y-93742138D01*
X30652446Y-93491508D01*
X30712693Y-93194000D01*
X30712693Y-90194000D01*
X30660396Y-89916067D01*
X30496138Y-89660802D01*
X30245508Y-89489554D01*
X29948000Y-89429307D01*
X26948000Y-89429307D01*
X26670067Y-89481604D01*
X26414802Y-89645862D01*
X26243554Y-89896492D01*
X26183307Y-90194000D01*
X25650000Y-90194000D01*
X25650000Y-85120225D01*
X25798214Y-85021192D01*
X26231759Y-84372345D01*
X26384000Y-83606978D01*
X26384000Y-83200942D01*
X26621925Y-83299737D01*
X27223436Y-83300262D01*
X27779360Y-83070559D01*
X28205064Y-82645598D01*
X28435737Y-82090075D01*
X28436262Y-81488564D01*
X28206559Y-80932640D01*
X27792643Y-80518000D01*
X28690329Y-80518000D01*
X28937721Y-81761721D01*
X29642232Y-82816097D01*
X30696608Y-83520608D01*
X31940329Y-83768000D01*
X32067671Y-83768000D01*
X33311392Y-83520608D01*
X34365768Y-82816097D01*
X34862914Y-82072064D01*
X46671761Y-82072064D01*
X46781154Y-82622017D01*
X47029195Y-82707119D01*
X47694315Y-82042000D01*
X48825685Y-82042000D01*
X49490805Y-82707119D01*
X49738846Y-82622017D01*
X49848239Y-82011936D01*
X49738846Y-81461983D01*
X49490805Y-81376881D01*
X48825685Y-82042000D01*
X47694315Y-82042000D01*
X47029195Y-81376881D01*
X46781154Y-81461983D01*
X46671761Y-82072064D01*
X34862914Y-82072064D01*
X35070279Y-81761721D01*
X35259350Y-80811195D01*
X47594881Y-80811195D01*
X48260000Y-81476315D01*
X48925119Y-80811195D01*
X48840017Y-80563154D01*
X48229936Y-80453761D01*
X47679983Y-80563154D01*
X47594881Y-80811195D01*
X35259350Y-80811195D01*
X35317671Y-80518000D01*
X35070279Y-79274279D01*
X34365768Y-78219903D01*
X33564937Y-77684805D01*
X47594881Y-77684805D01*
X47679983Y-77932846D01*
X48290064Y-78042239D01*
X48840017Y-77932846D01*
X48925119Y-77684805D01*
X48260000Y-77019685D01*
X47594881Y-77684805D01*
X33564937Y-77684805D01*
X33311392Y-77515392D01*
X32067671Y-77268000D01*
X31940329Y-77268000D01*
X30696608Y-77515392D01*
X29642232Y-78219903D01*
X28937721Y-79274279D01*
X28690329Y-80518000D01*
X27792643Y-80518000D01*
X27781598Y-80506936D01*
X27546500Y-80409315D01*
X26924000Y-79786815D01*
X26301653Y-80409162D01*
X26068640Y-80505441D01*
X25650000Y-80923350D01*
X25650000Y-80040225D01*
X25798214Y-79941192D01*
X26012107Y-79621078D01*
X26385185Y-79248000D01*
X27462815Y-79248000D01*
X28116770Y-79901955D01*
X28363265Y-79822745D01*
X28473653Y-79228212D01*
X28363265Y-78673255D01*
X28116770Y-78594045D01*
X27462815Y-79248000D01*
X26385185Y-79248000D01*
X26264571Y-79127386D01*
X26338463Y-78755907D01*
X26654593Y-78439778D01*
X26924000Y-78709185D01*
X27577955Y-78055230D01*
X27498745Y-77808735D01*
X27196361Y-77752591D01*
X26715489Y-77271719D01*
X26384000Y-77603208D01*
X26384000Y-77429022D01*
X26231759Y-76663655D01*
X26111761Y-76484064D01*
X46671761Y-76484064D01*
X46781154Y-77034017D01*
X47029195Y-77119119D01*
X47694315Y-76454000D01*
X48825685Y-76454000D01*
X49490805Y-77119119D01*
X49738846Y-77034017D01*
X49787807Y-76760961D01*
X51709732Y-76760961D01*
X51945208Y-77330857D01*
X52380849Y-77767260D01*
X52950333Y-78003730D01*
X53566961Y-78004268D01*
X54136857Y-77768792D01*
X54573260Y-77333151D01*
X54809730Y-76763667D01*
X54810268Y-76147039D01*
X54574792Y-75577143D01*
X54139151Y-75140740D01*
X53569667Y-74904270D01*
X52953039Y-74903732D01*
X52383143Y-75139208D01*
X51946740Y-75574849D01*
X51710270Y-76144333D01*
X51709732Y-76760961D01*
X49787807Y-76760961D01*
X49848239Y-76423936D01*
X49738846Y-75873983D01*
X49490805Y-75788881D01*
X48825685Y-76454000D01*
X47694315Y-76454000D01*
X47029195Y-75788881D01*
X46781154Y-75873983D01*
X46671761Y-76484064D01*
X26111761Y-76484064D01*
X25798214Y-76014808D01*
X25650000Y-75915775D01*
X25650000Y-75223195D01*
X47594881Y-75223195D01*
X48260000Y-75888315D01*
X48925119Y-75223195D01*
X48840017Y-74975154D01*
X48229936Y-74865761D01*
X47679983Y-74975154D01*
X47594881Y-75223195D01*
X25650000Y-75223195D01*
X25650000Y-73564294D01*
X33592301Y-73564294D01*
X33762679Y-73833597D01*
X34595992Y-73927748D01*
X35069321Y-73833597D01*
X35239699Y-73564294D01*
X34416000Y-72740594D01*
X33592301Y-73564294D01*
X25650000Y-73564294D01*
X25650000Y-71965992D01*
X32274252Y-71965992D01*
X32368403Y-72439321D01*
X32637706Y-72609699D01*
X33461406Y-71786000D01*
X35370594Y-71786000D01*
X36194294Y-72609699D01*
X36463597Y-72439321D01*
X36557748Y-71606008D01*
X36463597Y-71132679D01*
X36194294Y-70962301D01*
X35370594Y-71786000D01*
X33461406Y-71786000D01*
X32637706Y-70962301D01*
X32368403Y-71132679D01*
X32274252Y-71965992D01*
X25650000Y-71965992D01*
X25650000Y-70007706D01*
X33592301Y-70007706D01*
X34416000Y-70831406D01*
X35239699Y-70007706D01*
X35069321Y-69738403D01*
X34236008Y-69644252D01*
X33762679Y-69738403D01*
X33592301Y-70007706D01*
X25650000Y-70007706D01*
X25650000Y-67075247D01*
X35568381Y-67075247D01*
X35678821Y-67630466D01*
X35925233Y-67709366D01*
X36578599Y-67056000D01*
X35925233Y-66402634D01*
X35678821Y-66481534D01*
X35568381Y-67075247D01*
X25650000Y-67075247D01*
X25650000Y-62230000D01*
X25630304Y-62132736D01*
X25574318Y-62050798D01*
X25490864Y-61997097D01*
X25400000Y-61980000D01*
X24987554Y-61980000D01*
X25403260Y-61564294D01*
X33592301Y-61564294D01*
X33762679Y-61833597D01*
X34595992Y-61927748D01*
X35069321Y-61833597D01*
X35239699Y-61564294D01*
X34416000Y-60740594D01*
X33592301Y-61564294D01*
X25403260Y-61564294D01*
X27001562Y-59965992D01*
X32274252Y-59965992D01*
X32368403Y-60439321D01*
X32637706Y-60609699D01*
X33461406Y-59786000D01*
X35370594Y-59786000D01*
X36194294Y-60609699D01*
X36463597Y-60439321D01*
X36557748Y-59606008D01*
X36463597Y-59132679D01*
X36194294Y-58962301D01*
X35370594Y-59786000D01*
X33461406Y-59786000D01*
X32637706Y-58962301D01*
X32368403Y-59132679D01*
X32274252Y-59965992D01*
X27001562Y-59965992D01*
X28959848Y-58007706D01*
X33592301Y-58007706D01*
X34416000Y-58831406D01*
X35239699Y-58007706D01*
X35069321Y-57738403D01*
X34236008Y-57644252D01*
X33762679Y-57738403D01*
X33592301Y-58007706D01*
X28959848Y-58007706D01*
X29067234Y-57900320D01*
X29252946Y-57900482D01*
X30275818Y-57477840D01*
X31059090Y-56695934D01*
X31483516Y-55673802D01*
X31483682Y-55483872D01*
X34326554Y-52641000D01*
X63753622Y-52641000D01*
X76989873Y-52786453D01*
G36*
X57550000Y-108820000D02*
X57950000Y-108820000D01*
X57950000Y-109620000D01*
X57550000Y-109620000D01*
X57550000Y-110020000D01*
X56750000Y-110020000D01*
X56750000Y-109620000D01*
X56350000Y-109620000D01*
X56350000Y-108820000D01*
X56750000Y-108820000D01*
X56750000Y-108420000D01*
X57550000Y-108420000D01*
X57550000Y-108820000D01*
X57550000Y-108820000D01*
G37*
X57550000Y-108820000D02*
X57950000Y-108820000D01*
X57950000Y-109620000D01*
X57550000Y-109620000D01*
X57550000Y-110020000D01*
X56750000Y-110020000D01*
X56750000Y-109620000D01*
X56350000Y-109620000D01*
X56350000Y-108820000D01*
X56750000Y-108820000D01*
X56750000Y-108420000D01*
X57550000Y-108420000D01*
X57550000Y-108820000D01*
G36*
X69682528Y-64019157D02*
X69399685Y-64302000D01*
X69682528Y-64584843D01*
X69116843Y-65150528D01*
X68834000Y-64867685D01*
X68551157Y-65150528D01*
X67985472Y-64584843D01*
X68268315Y-64302000D01*
X67985472Y-64019157D01*
X68012629Y-63992000D01*
X69655371Y-63992000D01*
X69682528Y-64019157D01*
X69682528Y-64019157D01*
G37*
X69682528Y-64019157D02*
X69399685Y-64302000D01*
X69682528Y-64584843D01*
X69116843Y-65150528D01*
X68834000Y-64867685D01*
X68551157Y-65150528D01*
X67985472Y-64584843D01*
X68268315Y-64302000D01*
X67985472Y-64019157D01*
X68012629Y-63992000D01*
X69655371Y-63992000D01*
X69682528Y-64019157D01*
M02*
