G04 #@! TF.FileFunction,Soldermask,Top*
%FSLAX46Y46*%
G04 Gerber Fmt 4.6, Leading zero omitted, Abs format (unit mm)*
G04 Created by KiCad (PCBNEW 4.0.7) date 05/25/18 19:59:14*
%MOMM*%
%LPD*%
G01*
G04 APERTURE LIST*
%ADD10C,0.100000*%
%ADD11R,2.100000X2.100000*%
%ADD12O,2.100000X2.100000*%
%ADD13O,2.900000X3.900000*%
%ADD14C,1.924000*%
%ADD15O,5.400000X5.400000*%
%ADD16R,2.200000X2.200000*%
%ADD17C,2.200000*%
%ADD18C,2.000000*%
%ADD19O,2.000000X2.000000*%
%ADD20C,2.900000*%
%ADD21R,3.900000X3.900000*%
%ADD22C,2.400000*%
%ADD23R,2.000000X2.000000*%
%ADD24C,4.464000*%
%ADD25R,3.400000X3.400000*%
%ADD26C,3.400000*%
%ADD27R,2.600000X2.600000*%
%ADD28O,2.600000X2.600000*%
%ADD29O,2.200000X2.200000*%
%ADD30C,1.920000*%
%ADD31C,3.100000*%
G04 APERTURE END LIST*
D10*
D11*
X78486000Y-55880000D03*
D12*
X78486000Y-53340000D03*
X81026000Y-55880000D03*
X81026000Y-53340000D03*
X83566000Y-55880000D03*
X83566000Y-53340000D03*
D13*
X24384000Y-83058000D03*
D14*
X26924000Y-79248000D03*
X26924000Y-81788000D03*
D13*
X24384000Y-77978000D03*
D15*
X32004000Y-80518000D03*
D16*
X91694000Y-67056000D03*
D17*
X91694000Y-64516000D03*
D18*
X53086000Y-120142000D03*
X53086000Y-125142000D03*
X64262000Y-133604000D03*
D19*
X51562000Y-133604000D03*
D20*
X88138000Y-134286000D03*
X88138000Y-139286000D03*
X88138000Y-129286000D03*
D21*
X37592000Y-134366000D03*
X31592000Y-134366000D03*
X34592000Y-139066000D03*
D22*
X43434000Y-138176000D03*
X43434000Y-132080000D03*
D18*
X83566000Y-95758000D03*
D19*
X83566000Y-108458000D03*
D18*
X78486000Y-129794000D03*
D19*
X78486000Y-142494000D03*
D18*
X79248000Y-107188000D03*
D19*
X79248000Y-94488000D03*
D18*
X79248000Y-78232000D03*
D19*
X79248000Y-90932000D03*
D18*
X75184000Y-86106000D03*
D19*
X75184000Y-73406000D03*
D18*
X38354000Y-103124000D03*
D19*
X38354000Y-90424000D03*
D20*
X87630000Y-116760000D03*
X87630000Y-121760000D03*
X87630000Y-111760000D03*
X87884000Y-98218000D03*
X87884000Y-103218000D03*
X87884000Y-93218000D03*
X88138000Y-78914000D03*
X88138000Y-83914000D03*
X88138000Y-73914000D03*
D23*
X59182000Y-100584000D03*
D19*
X66802000Y-92964000D03*
X61722000Y-100584000D03*
X64262000Y-92964000D03*
X64262000Y-100584000D03*
X61722000Y-92964000D03*
X66802000Y-100584000D03*
X59182000Y-92964000D03*
D23*
X63500000Y-78994000D03*
D19*
X71120000Y-71374000D03*
X66040000Y-78994000D03*
X68580000Y-71374000D03*
X68580000Y-78994000D03*
X66040000Y-71374000D03*
X71120000Y-78994000D03*
X63500000Y-71374000D03*
D24*
X27432000Y-147828000D03*
X27432000Y-55372000D03*
X90932000Y-147828000D03*
X90932000Y-55372000D03*
D25*
X27940000Y-109728000D03*
D26*
X27940000Y-114808000D03*
D22*
X76962000Y-111760000D03*
X76962000Y-117856000D03*
X76962000Y-123698000D03*
D18*
X54356000Y-96012000D03*
D19*
X41656000Y-96012000D03*
D18*
X51562000Y-129540000D03*
D19*
X64262000Y-129540000D03*
D18*
X38354000Y-115570000D03*
D19*
X38354000Y-128270000D03*
D18*
X41656000Y-100584000D03*
D19*
X54356000Y-100584000D03*
D25*
X27940000Y-125984000D03*
D26*
X27940000Y-120904000D03*
D23*
X52070000Y-116840000D03*
D19*
X67310000Y-109220000D03*
X54610000Y-116840000D03*
X64770000Y-109220000D03*
X57150000Y-116840000D03*
X62230000Y-109220000D03*
X59690000Y-116840000D03*
X59690000Y-109220000D03*
X62230000Y-116840000D03*
X57150000Y-109220000D03*
X64770000Y-116840000D03*
X54610000Y-109220000D03*
X67310000Y-116840000D03*
X52070000Y-109220000D03*
D18*
X34544000Y-112014000D03*
D19*
X34544000Y-99314000D03*
D25*
X28448000Y-91694000D03*
D26*
X28448000Y-96774000D03*
X28448000Y-101854000D03*
D18*
X73406000Y-93218000D03*
X73406000Y-98218000D03*
X66040000Y-105156000D03*
X61040000Y-105156000D03*
X69596000Y-105410000D03*
X74596000Y-105410000D03*
X60452000Y-68072000D03*
X60452000Y-63072000D03*
X78740000Y-74422000D03*
X83740000Y-74422000D03*
X48260000Y-82042000D03*
X53260000Y-82042000D03*
X68326000Y-129286000D03*
X68326000Y-134286000D03*
X41910000Y-125984000D03*
X46910000Y-125984000D03*
X34290000Y-115570000D03*
D19*
X34290000Y-128270000D03*
D18*
X71120000Y-114554000D03*
X71120000Y-109554000D03*
X84074000Y-113538000D03*
D19*
X84074000Y-126238000D03*
D18*
X58928000Y-89154000D03*
X58928000Y-84154000D03*
X83312000Y-93218000D03*
D19*
X83312000Y-80518000D03*
D18*
X58420000Y-124968000D03*
X58420000Y-119968000D03*
X42672000Y-116586000D03*
D19*
X42672000Y-103886000D03*
D18*
X46736000Y-116586000D03*
D19*
X46736000Y-103886000D03*
D27*
X75692000Y-88900000D03*
D28*
X68072000Y-88900000D03*
D27*
X50292000Y-104394000D03*
D28*
X57912000Y-104394000D03*
D27*
X70866000Y-120650000D03*
D28*
X63246000Y-120650000D03*
D27*
X70612000Y-124714000D03*
D28*
X62992000Y-124714000D03*
D27*
X50038000Y-147574000D03*
D28*
X50038000Y-137414000D03*
D27*
X53848000Y-147574000D03*
D28*
X53848000Y-137414000D03*
D27*
X45720000Y-144526000D03*
D28*
X35560000Y-144526000D03*
D27*
X45720000Y-148590000D03*
D28*
X35560000Y-148590000D03*
D27*
X57404000Y-147574000D03*
D28*
X57404000Y-137414000D03*
D27*
X61214000Y-147574000D03*
D28*
X61214000Y-137414000D03*
D18*
X74168000Y-142494000D03*
D19*
X74168000Y-129794000D03*
D18*
X83058000Y-129794000D03*
D19*
X83058000Y-142494000D03*
D16*
X72136000Y-147574000D03*
D29*
X69596000Y-147574000D03*
X67056000Y-147574000D03*
D18*
X48260000Y-76454000D03*
X53260000Y-76454000D03*
D11*
X56642000Y-79756000D03*
D12*
X56642000Y-77216000D03*
X56642000Y-74676000D03*
D18*
X66548000Y-84074000D03*
X71548000Y-84074000D03*
D11*
X63246000Y-83820000D03*
D12*
X63246000Y-86360000D03*
X63246000Y-88900000D03*
D27*
X34544000Y-88900000D03*
D28*
X34544000Y-96520000D03*
D27*
X42164000Y-90932000D03*
D28*
X49784000Y-90932000D03*
D30*
X39116000Y-64516000D03*
X39116000Y-67056000D03*
X37116000Y-67056000D03*
X37116000Y-64516000D03*
D31*
X34416000Y-59786000D03*
X34416000Y-71786000D03*
D22*
X61214000Y-57912000D03*
X66294000Y-57912000D03*
X71120000Y-57912000D03*
D18*
X43942000Y-71374000D03*
D19*
X43942000Y-84074000D03*
D18*
X51816000Y-59182000D03*
D19*
X51816000Y-71882000D03*
D18*
X56134000Y-58928000D03*
D19*
X56134000Y-71628000D03*
D18*
X39878000Y-87376000D03*
D19*
X52578000Y-87376000D03*
D27*
X43942000Y-58674000D03*
D28*
X43942000Y-68834000D03*
D27*
X48006000Y-71628000D03*
D28*
X48006000Y-61468000D03*
D23*
X75946000Y-69088000D03*
D19*
X83566000Y-61468000D03*
X78486000Y-69088000D03*
X81026000Y-61468000D03*
X81026000Y-69088000D03*
X78486000Y-61468000D03*
X83566000Y-69088000D03*
X75946000Y-61468000D03*
D23*
X67564000Y-141986000D03*
D18*
X67564000Y-139486000D03*
D23*
X78740000Y-147320000D03*
D18*
X81240000Y-147320000D03*
D23*
X68834000Y-66802000D03*
D18*
X68834000Y-64302000D03*
M02*
