G04 #@! TF.FileFunction,Legend,Top*
%FSLAX46Y46*%
G04 Gerber Fmt 4.6, Leading zero omitted, Abs format (unit mm)*
G04 Created by KiCad (PCBNEW 4.0.7) date 07/12/19 12:00:17*
%MOMM*%
%LPD*%
G01*
G04 APERTURE LIST*
%ADD10C,0.100000*%
%ADD11C,0.300000*%
%ADD12C,0.150000*%
%ADD13C,0.120000*%
G04 APERTURE END LIST*
D10*
D11*
X133794572Y-100183143D02*
X134937429Y-100183143D01*
X134366000Y-100754571D02*
X134366000Y-99611714D01*
X133794572Y-95103143D02*
X134937429Y-95103143D01*
X54800572Y-94595143D02*
X55943429Y-94595143D01*
X55054572Y-99675143D02*
X56197429Y-99675143D01*
X55626000Y-100246571D02*
X55626000Y-99103714D01*
D12*
X94289715Y-93575143D02*
X94242096Y-93622762D01*
X94099239Y-93670381D01*
X94004001Y-93670381D01*
X93861143Y-93622762D01*
X93765905Y-93527524D01*
X93718286Y-93432286D01*
X93670667Y-93241810D01*
X93670667Y-93098952D01*
X93718286Y-92908476D01*
X93765905Y-92813238D01*
X93861143Y-92718000D01*
X94004001Y-92670381D01*
X94099239Y-92670381D01*
X94242096Y-92718000D01*
X94289715Y-92765619D01*
X95146858Y-93670381D02*
X95146858Y-93146571D01*
X95099239Y-93051333D01*
X95004001Y-93003714D01*
X94813524Y-93003714D01*
X94718286Y-93051333D01*
X95146858Y-93622762D02*
X95051620Y-93670381D01*
X94813524Y-93670381D01*
X94718286Y-93622762D01*
X94670667Y-93527524D01*
X94670667Y-93432286D01*
X94718286Y-93337048D01*
X94813524Y-93289429D01*
X95051620Y-93289429D01*
X95146858Y-93241810D01*
X95623048Y-93003714D02*
X95623048Y-94003714D01*
X95623048Y-93051333D02*
X95718286Y-93003714D01*
X95908763Y-93003714D01*
X96004001Y-93051333D01*
X96051620Y-93098952D01*
X96099239Y-93194190D01*
X96099239Y-93479905D01*
X96051620Y-93575143D01*
X96004001Y-93622762D01*
X95908763Y-93670381D01*
X95718286Y-93670381D01*
X95623048Y-93622762D01*
X96527810Y-93289429D02*
X97289715Y-93289429D01*
X96908763Y-93670381D02*
X96908763Y-92908476D01*
X94289715Y-76811143D02*
X94242096Y-76858762D01*
X94099239Y-76906381D01*
X94004001Y-76906381D01*
X93861143Y-76858762D01*
X93765905Y-76763524D01*
X93718286Y-76668286D01*
X93670667Y-76477810D01*
X93670667Y-76334952D01*
X93718286Y-76144476D01*
X93765905Y-76049238D01*
X93861143Y-75954000D01*
X94004001Y-75906381D01*
X94099239Y-75906381D01*
X94242096Y-75954000D01*
X94289715Y-76001619D01*
X95146858Y-76906381D02*
X95146858Y-76382571D01*
X95099239Y-76287333D01*
X95004001Y-76239714D01*
X94813524Y-76239714D01*
X94718286Y-76287333D01*
X95146858Y-76858762D02*
X95051620Y-76906381D01*
X94813524Y-76906381D01*
X94718286Y-76858762D01*
X94670667Y-76763524D01*
X94670667Y-76668286D01*
X94718286Y-76573048D01*
X94813524Y-76525429D01*
X95051620Y-76525429D01*
X95146858Y-76477810D01*
X95623048Y-76239714D02*
X95623048Y-77239714D01*
X95623048Y-76287333D02*
X95718286Y-76239714D01*
X95908763Y-76239714D01*
X96004001Y-76287333D01*
X96051620Y-76334952D01*
X96099239Y-76430190D01*
X96099239Y-76715905D01*
X96051620Y-76811143D01*
X96004001Y-76858762D01*
X95908763Y-76906381D01*
X95718286Y-76906381D01*
X95623048Y-76858762D01*
X96527810Y-76525429D02*
X97289715Y-76525429D01*
X94543715Y-123547143D02*
X94496096Y-123594762D01*
X94353239Y-123642381D01*
X94258001Y-123642381D01*
X94115143Y-123594762D01*
X94019905Y-123499524D01*
X93972286Y-123404286D01*
X93924667Y-123213810D01*
X93924667Y-123070952D01*
X93972286Y-122880476D01*
X94019905Y-122785238D01*
X94115143Y-122690000D01*
X94258001Y-122642381D01*
X94353239Y-122642381D01*
X94496096Y-122690000D01*
X94543715Y-122737619D01*
X95400858Y-123642381D02*
X95400858Y-123118571D01*
X95353239Y-123023333D01*
X95258001Y-122975714D01*
X95067524Y-122975714D01*
X94972286Y-123023333D01*
X95400858Y-123594762D02*
X95305620Y-123642381D01*
X95067524Y-123642381D01*
X94972286Y-123594762D01*
X94924667Y-123499524D01*
X94924667Y-123404286D01*
X94972286Y-123309048D01*
X95067524Y-123261429D01*
X95305620Y-123261429D01*
X95400858Y-123213810D01*
X95877048Y-122975714D02*
X95877048Y-123975714D01*
X95877048Y-123023333D02*
X95972286Y-122975714D01*
X96162763Y-122975714D01*
X96258001Y-123023333D01*
X96305620Y-123070952D01*
X96353239Y-123166190D01*
X96353239Y-123451905D01*
X96305620Y-123547143D01*
X96258001Y-123594762D01*
X96162763Y-123642381D01*
X95972286Y-123642381D01*
X95877048Y-123594762D01*
X96781810Y-123261429D02*
X97543715Y-123261429D01*
X97162763Y-123642381D02*
X97162763Y-122880476D01*
X94543715Y-106529143D02*
X94496096Y-106576762D01*
X94353239Y-106624381D01*
X94258001Y-106624381D01*
X94115143Y-106576762D01*
X94019905Y-106481524D01*
X93972286Y-106386286D01*
X93924667Y-106195810D01*
X93924667Y-106052952D01*
X93972286Y-105862476D01*
X94019905Y-105767238D01*
X94115143Y-105672000D01*
X94258001Y-105624381D01*
X94353239Y-105624381D01*
X94496096Y-105672000D01*
X94543715Y-105719619D01*
X95400858Y-106624381D02*
X95400858Y-106100571D01*
X95353239Y-106005333D01*
X95258001Y-105957714D01*
X95067524Y-105957714D01*
X94972286Y-106005333D01*
X95400858Y-106576762D02*
X95305620Y-106624381D01*
X95067524Y-106624381D01*
X94972286Y-106576762D01*
X94924667Y-106481524D01*
X94924667Y-106386286D01*
X94972286Y-106291048D01*
X95067524Y-106243429D01*
X95305620Y-106243429D01*
X95400858Y-106195810D01*
X95877048Y-105957714D02*
X95877048Y-106957714D01*
X95877048Y-106005333D02*
X95972286Y-105957714D01*
X96162763Y-105957714D01*
X96258001Y-106005333D01*
X96305620Y-106052952D01*
X96353239Y-106148190D01*
X96353239Y-106433905D01*
X96305620Y-106529143D01*
X96258001Y-106576762D01*
X96162763Y-106624381D01*
X95972286Y-106624381D01*
X95877048Y-106576762D01*
X96781810Y-106243429D02*
X97543715Y-106243429D01*
X106735715Y-140819143D02*
X106688096Y-140866762D01*
X106545239Y-140914381D01*
X106450001Y-140914381D01*
X106307143Y-140866762D01*
X106211905Y-140771524D01*
X106164286Y-140676286D01*
X106116667Y-140485810D01*
X106116667Y-140342952D01*
X106164286Y-140152476D01*
X106211905Y-140057238D01*
X106307143Y-139962000D01*
X106450001Y-139914381D01*
X106545239Y-139914381D01*
X106688096Y-139962000D01*
X106735715Y-140009619D01*
X107592858Y-140914381D02*
X107592858Y-140390571D01*
X107545239Y-140295333D01*
X107450001Y-140247714D01*
X107259524Y-140247714D01*
X107164286Y-140295333D01*
X107592858Y-140866762D02*
X107497620Y-140914381D01*
X107259524Y-140914381D01*
X107164286Y-140866762D01*
X107116667Y-140771524D01*
X107116667Y-140676286D01*
X107164286Y-140581048D01*
X107259524Y-140533429D01*
X107497620Y-140533429D01*
X107592858Y-140485810D01*
X108069048Y-140247714D02*
X108069048Y-141247714D01*
X108069048Y-140295333D02*
X108164286Y-140247714D01*
X108354763Y-140247714D01*
X108450001Y-140295333D01*
X108497620Y-140342952D01*
X108545239Y-140438190D01*
X108545239Y-140723905D01*
X108497620Y-140819143D01*
X108450001Y-140866762D01*
X108354763Y-140914381D01*
X108164286Y-140914381D01*
X108069048Y-140866762D01*
X108973810Y-140533429D02*
X109735715Y-140533429D01*
X80573715Y-140819143D02*
X80526096Y-140866762D01*
X80383239Y-140914381D01*
X80288001Y-140914381D01*
X80145143Y-140866762D01*
X80049905Y-140771524D01*
X80002286Y-140676286D01*
X79954667Y-140485810D01*
X79954667Y-140342952D01*
X80002286Y-140152476D01*
X80049905Y-140057238D01*
X80145143Y-139962000D01*
X80288001Y-139914381D01*
X80383239Y-139914381D01*
X80526096Y-139962000D01*
X80573715Y-140009619D01*
X81430858Y-140914381D02*
X81430858Y-140390571D01*
X81383239Y-140295333D01*
X81288001Y-140247714D01*
X81097524Y-140247714D01*
X81002286Y-140295333D01*
X81430858Y-140866762D02*
X81335620Y-140914381D01*
X81097524Y-140914381D01*
X81002286Y-140866762D01*
X80954667Y-140771524D01*
X80954667Y-140676286D01*
X81002286Y-140581048D01*
X81097524Y-140533429D01*
X81335620Y-140533429D01*
X81430858Y-140485810D01*
X81907048Y-140247714D02*
X81907048Y-141247714D01*
X81907048Y-140295333D02*
X82002286Y-140247714D01*
X82192763Y-140247714D01*
X82288001Y-140295333D01*
X82335620Y-140342952D01*
X82383239Y-140438190D01*
X82383239Y-140723905D01*
X82335620Y-140819143D01*
X82288001Y-140866762D01*
X82192763Y-140914381D01*
X82002286Y-140914381D01*
X81907048Y-140866762D01*
X82811810Y-140533429D02*
X83573715Y-140533429D01*
X83192763Y-140914381D02*
X83192763Y-140152476D01*
D11*
X96988857Y-132504571D02*
X96988857Y-131004571D01*
X97846000Y-132504571D01*
X97846000Y-131004571D01*
X99131714Y-132433143D02*
X98988857Y-132504571D01*
X98703143Y-132504571D01*
X98560286Y-132433143D01*
X98488857Y-132290286D01*
X98488857Y-131718857D01*
X98560286Y-131576000D01*
X98703143Y-131504571D01*
X98988857Y-131504571D01*
X99131714Y-131576000D01*
X99203143Y-131718857D01*
X99203143Y-131861714D01*
X98488857Y-132004571D01*
X100488857Y-131504571D02*
X100488857Y-132718857D01*
X100417428Y-132861714D01*
X100346000Y-132933143D01*
X100203143Y-133004571D01*
X99988857Y-133004571D01*
X99846000Y-132933143D01*
X100488857Y-132433143D02*
X100346000Y-132504571D01*
X100060286Y-132504571D01*
X99917428Y-132433143D01*
X99846000Y-132361714D01*
X99774571Y-132218857D01*
X99774571Y-131790286D01*
X99846000Y-131647429D01*
X99917428Y-131576000D01*
X100060286Y-131504571D01*
X100346000Y-131504571D01*
X100488857Y-131576000D01*
X102846000Y-131718857D02*
X103060286Y-131790286D01*
X103131714Y-131861714D01*
X103203143Y-132004571D01*
X103203143Y-132218857D01*
X103131714Y-132361714D01*
X103060286Y-132433143D01*
X102917428Y-132504571D01*
X102346000Y-132504571D01*
X102346000Y-131004571D01*
X102846000Y-131004571D01*
X102988857Y-131076000D01*
X103060286Y-131147429D01*
X103131714Y-131290286D01*
X103131714Y-131433143D01*
X103060286Y-131576000D01*
X102988857Y-131647429D01*
X102846000Y-131718857D01*
X102346000Y-131718857D01*
X104488857Y-131504571D02*
X104488857Y-132504571D01*
X103846000Y-131504571D02*
X103846000Y-132290286D01*
X103917428Y-132433143D01*
X104060286Y-132504571D01*
X104274571Y-132504571D01*
X104417428Y-132433143D01*
X104488857Y-132361714D01*
X105131714Y-132433143D02*
X105274571Y-132504571D01*
X105560286Y-132504571D01*
X105703143Y-132433143D01*
X105774571Y-132290286D01*
X105774571Y-132218857D01*
X105703143Y-132076000D01*
X105560286Y-132004571D01*
X105346000Y-132004571D01*
X105203143Y-131933143D01*
X105131714Y-131790286D01*
X105131714Y-131718857D01*
X105203143Y-131576000D01*
X105346000Y-131504571D01*
X105560286Y-131504571D01*
X105703143Y-131576000D01*
X83344286Y-132250571D02*
X83344286Y-130750571D01*
X83915714Y-130750571D01*
X84058572Y-130822000D01*
X84130000Y-130893429D01*
X84201429Y-131036286D01*
X84201429Y-131250571D01*
X84130000Y-131393429D01*
X84058572Y-131464857D01*
X83915714Y-131536286D01*
X83344286Y-131536286D01*
X85058572Y-132250571D02*
X84915714Y-132179143D01*
X84844286Y-132107714D01*
X84772857Y-131964857D01*
X84772857Y-131536286D01*
X84844286Y-131393429D01*
X84915714Y-131322000D01*
X85058572Y-131250571D01*
X85272857Y-131250571D01*
X85415714Y-131322000D01*
X85487143Y-131393429D01*
X85558572Y-131536286D01*
X85558572Y-131964857D01*
X85487143Y-132107714D01*
X85415714Y-132179143D01*
X85272857Y-132250571D01*
X85058572Y-132250571D01*
X86130000Y-132179143D02*
X86272857Y-132250571D01*
X86558572Y-132250571D01*
X86701429Y-132179143D01*
X86772857Y-132036286D01*
X86772857Y-131964857D01*
X86701429Y-131822000D01*
X86558572Y-131750571D01*
X86344286Y-131750571D01*
X86201429Y-131679143D01*
X86130000Y-131536286D01*
X86130000Y-131464857D01*
X86201429Y-131322000D01*
X86344286Y-131250571D01*
X86558572Y-131250571D01*
X86701429Y-131322000D01*
X89058572Y-131464857D02*
X89272858Y-131536286D01*
X89344286Y-131607714D01*
X89415715Y-131750571D01*
X89415715Y-131964857D01*
X89344286Y-132107714D01*
X89272858Y-132179143D01*
X89130000Y-132250571D01*
X88558572Y-132250571D01*
X88558572Y-130750571D01*
X89058572Y-130750571D01*
X89201429Y-130822000D01*
X89272858Y-130893429D01*
X89344286Y-131036286D01*
X89344286Y-131179143D01*
X89272858Y-131322000D01*
X89201429Y-131393429D01*
X89058572Y-131464857D01*
X88558572Y-131464857D01*
X90701429Y-131250571D02*
X90701429Y-132250571D01*
X90058572Y-131250571D02*
X90058572Y-132036286D01*
X90130000Y-132179143D01*
X90272858Y-132250571D01*
X90487143Y-132250571D01*
X90630000Y-132179143D01*
X90701429Y-132107714D01*
X91344286Y-132179143D02*
X91487143Y-132250571D01*
X91772858Y-132250571D01*
X91915715Y-132179143D01*
X91987143Y-132036286D01*
X91987143Y-131964857D01*
X91915715Y-131822000D01*
X91772858Y-131750571D01*
X91558572Y-131750571D01*
X91415715Y-131679143D01*
X91344286Y-131536286D01*
X91344286Y-131464857D01*
X91415715Y-131322000D01*
X91558572Y-131250571D01*
X91772858Y-131250571D01*
X91915715Y-131322000D01*
X118741429Y-56304571D02*
X118027143Y-56304571D01*
X118027143Y-54804571D01*
X119455715Y-56304571D02*
X119312857Y-56233143D01*
X119241429Y-56161714D01*
X119170000Y-56018857D01*
X119170000Y-55590286D01*
X119241429Y-55447429D01*
X119312857Y-55376000D01*
X119455715Y-55304571D01*
X119670000Y-55304571D01*
X119812857Y-55376000D01*
X119884286Y-55447429D01*
X119955715Y-55590286D01*
X119955715Y-56018857D01*
X119884286Y-56161714D01*
X119812857Y-56233143D01*
X119670000Y-56304571D01*
X119455715Y-56304571D01*
X121670000Y-56233143D02*
X121884286Y-56304571D01*
X122241429Y-56304571D01*
X122384286Y-56233143D01*
X122455715Y-56161714D01*
X122527143Y-56018857D01*
X122527143Y-55876000D01*
X122455715Y-55733143D01*
X122384286Y-55661714D01*
X122241429Y-55590286D01*
X121955715Y-55518857D01*
X121812857Y-55447429D01*
X121741429Y-55376000D01*
X121670000Y-55233143D01*
X121670000Y-55090286D01*
X121741429Y-54947429D01*
X121812857Y-54876000D01*
X121955715Y-54804571D01*
X122312857Y-54804571D01*
X122527143Y-54876000D01*
X123170000Y-56304571D02*
X123170000Y-55304571D01*
X123170000Y-54804571D02*
X123098571Y-54876000D01*
X123170000Y-54947429D01*
X123241428Y-54876000D01*
X123170000Y-54804571D01*
X123170000Y-54947429D01*
X124527143Y-56304571D02*
X124527143Y-54804571D01*
X124527143Y-56233143D02*
X124384286Y-56304571D01*
X124098572Y-56304571D01*
X123955714Y-56233143D01*
X123884286Y-56161714D01*
X123812857Y-56018857D01*
X123812857Y-55590286D01*
X123884286Y-55447429D01*
X123955714Y-55376000D01*
X124098572Y-55304571D01*
X124384286Y-55304571D01*
X124527143Y-55376000D01*
X125812857Y-56233143D02*
X125670000Y-56304571D01*
X125384286Y-56304571D01*
X125241429Y-56233143D01*
X125170000Y-56090286D01*
X125170000Y-55518857D01*
X125241429Y-55376000D01*
X125384286Y-55304571D01*
X125670000Y-55304571D01*
X125812857Y-55376000D01*
X125884286Y-55518857D01*
X125884286Y-55661714D01*
X125170000Y-55804571D01*
X68386000Y-56304571D02*
X68386000Y-54804571D01*
X68386000Y-55518857D02*
X69243143Y-55518857D01*
X69243143Y-56304571D02*
X69243143Y-54804571D01*
X69957429Y-56304571D02*
X69957429Y-55304571D01*
X69957429Y-54804571D02*
X69886000Y-54876000D01*
X69957429Y-54947429D01*
X70028857Y-54876000D01*
X69957429Y-54804571D01*
X69957429Y-54947429D01*
X71743143Y-56233143D02*
X71957429Y-56304571D01*
X72314572Y-56304571D01*
X72457429Y-56233143D01*
X72528858Y-56161714D01*
X72600286Y-56018857D01*
X72600286Y-55876000D01*
X72528858Y-55733143D01*
X72457429Y-55661714D01*
X72314572Y-55590286D01*
X72028858Y-55518857D01*
X71886000Y-55447429D01*
X71814572Y-55376000D01*
X71743143Y-55233143D01*
X71743143Y-55090286D01*
X71814572Y-54947429D01*
X71886000Y-54876000D01*
X72028858Y-54804571D01*
X72386000Y-54804571D01*
X72600286Y-54876000D01*
X73243143Y-56304571D02*
X73243143Y-55304571D01*
X73243143Y-54804571D02*
X73171714Y-54876000D01*
X73243143Y-54947429D01*
X73314571Y-54876000D01*
X73243143Y-54804571D01*
X73243143Y-54947429D01*
X74600286Y-56304571D02*
X74600286Y-54804571D01*
X74600286Y-56233143D02*
X74457429Y-56304571D01*
X74171715Y-56304571D01*
X74028857Y-56233143D01*
X73957429Y-56161714D01*
X73886000Y-56018857D01*
X73886000Y-55590286D01*
X73957429Y-55447429D01*
X74028857Y-55376000D01*
X74171715Y-55304571D01*
X74457429Y-55304571D01*
X74600286Y-55376000D01*
X75886000Y-56233143D02*
X75743143Y-56304571D01*
X75457429Y-56304571D01*
X75314572Y-56233143D01*
X75243143Y-56090286D01*
X75243143Y-55518857D01*
X75314572Y-55376000D01*
X75457429Y-55304571D01*
X75743143Y-55304571D01*
X75886000Y-55376000D01*
X75957429Y-55518857D01*
X75957429Y-55661714D01*
X75243143Y-55804571D01*
X90702572Y-64432571D02*
X90702572Y-62932571D01*
X90702572Y-63646857D02*
X91559715Y-63646857D01*
X91559715Y-64432571D02*
X91559715Y-62932571D01*
X92916858Y-64432571D02*
X92916858Y-63646857D01*
X92845429Y-63504000D01*
X92702572Y-63432571D01*
X92416858Y-63432571D01*
X92274001Y-63504000D01*
X92916858Y-64361143D02*
X92774001Y-64432571D01*
X92416858Y-64432571D01*
X92274001Y-64361143D01*
X92202572Y-64218286D01*
X92202572Y-64075429D01*
X92274001Y-63932571D01*
X92416858Y-63861143D01*
X92774001Y-63861143D01*
X92916858Y-63789714D01*
X93845430Y-64432571D02*
X93702572Y-64361143D01*
X93631144Y-64218286D01*
X93631144Y-62932571D01*
X94202572Y-63432571D02*
X94774001Y-63432571D01*
X94416858Y-64432571D02*
X94416858Y-63146857D01*
X94488286Y-63004000D01*
X94631144Y-62932571D01*
X94774001Y-62932571D01*
X96916858Y-63646857D02*
X97131144Y-63718286D01*
X97202572Y-63789714D01*
X97274001Y-63932571D01*
X97274001Y-64146857D01*
X97202572Y-64289714D01*
X97131144Y-64361143D01*
X96988286Y-64432571D01*
X96416858Y-64432571D01*
X96416858Y-62932571D01*
X96916858Y-62932571D01*
X97059715Y-63004000D01*
X97131144Y-63075429D01*
X97202572Y-63218286D01*
X97202572Y-63361143D01*
X97131144Y-63504000D01*
X97059715Y-63575429D01*
X96916858Y-63646857D01*
X96416858Y-63646857D01*
X97916858Y-64432571D02*
X97916858Y-63432571D01*
X97916858Y-63718286D02*
X97988286Y-63575429D01*
X98059715Y-63504000D01*
X98202572Y-63432571D01*
X98345429Y-63432571D01*
X98845429Y-64432571D02*
X98845429Y-63432571D01*
X98845429Y-62932571D02*
X98774000Y-63004000D01*
X98845429Y-63075429D01*
X98916857Y-63004000D01*
X98845429Y-62932571D01*
X98845429Y-63075429D01*
X100202572Y-64432571D02*
X100202572Y-62932571D01*
X100202572Y-64361143D02*
X100059715Y-64432571D01*
X99774001Y-64432571D01*
X99631143Y-64361143D01*
X99559715Y-64289714D01*
X99488286Y-64146857D01*
X99488286Y-63718286D01*
X99559715Y-63575429D01*
X99631143Y-63504000D01*
X99774001Y-63432571D01*
X100059715Y-63432571D01*
X100202572Y-63504000D01*
X101559715Y-63432571D02*
X101559715Y-64646857D01*
X101488286Y-64789714D01*
X101416858Y-64861143D01*
X101274001Y-64932571D01*
X101059715Y-64932571D01*
X100916858Y-64861143D01*
X101559715Y-64361143D02*
X101416858Y-64432571D01*
X101131144Y-64432571D01*
X100988286Y-64361143D01*
X100916858Y-64289714D01*
X100845429Y-64146857D01*
X100845429Y-63718286D01*
X100916858Y-63575429D01*
X100988286Y-63504000D01*
X101131144Y-63432571D01*
X101416858Y-63432571D01*
X101559715Y-63504000D01*
X102845429Y-64361143D02*
X102702572Y-64432571D01*
X102416858Y-64432571D01*
X102274001Y-64361143D01*
X102202572Y-64218286D01*
X102202572Y-63646857D01*
X102274001Y-63504000D01*
X102416858Y-63432571D01*
X102702572Y-63432571D01*
X102845429Y-63504000D01*
X102916858Y-63646857D01*
X102916858Y-63789714D01*
X102202572Y-63932571D01*
D13*
X90170000Y-138176000D02*
G75*
G03X90170000Y-138176000I-2286000J0D01*
G01*
X70844000Y-113140000D02*
X70844000Y-113620000D01*
X70844000Y-113620000D02*
X60824000Y-113620000D01*
X60824000Y-113620000D02*
X60824000Y-113140000D01*
X70844000Y-110380000D02*
X70844000Y-109900000D01*
X70844000Y-109900000D02*
X60824000Y-109900000D01*
X60824000Y-109900000D02*
X60824000Y-110380000D01*
X71352000Y-132190000D02*
X71352000Y-132670000D01*
X71352000Y-132670000D02*
X61332000Y-132670000D01*
X61332000Y-132670000D02*
X61332000Y-132190000D01*
X71352000Y-129430000D02*
X71352000Y-128950000D01*
X71352000Y-128950000D02*
X61332000Y-128950000D01*
X61332000Y-128950000D02*
X61332000Y-129430000D01*
X118942000Y-65930000D02*
X118942000Y-65450000D01*
X118942000Y-65450000D02*
X128962000Y-65450000D01*
X128962000Y-65450000D02*
X128962000Y-65930000D01*
X118942000Y-68690000D02*
X118942000Y-69170000D01*
X118942000Y-69170000D02*
X128962000Y-69170000D01*
X128962000Y-69170000D02*
X128962000Y-68690000D01*
X126612000Y-104280000D02*
X126612000Y-101460000D01*
X126612000Y-101460000D02*
X121292000Y-101460000D01*
X121292000Y-101460000D02*
X121292000Y-104280000D01*
X121292000Y-104280000D02*
X126612000Y-104280000D01*
X129022000Y-102870000D02*
X126612000Y-102870000D01*
X118882000Y-102870000D02*
X121292000Y-102870000D01*
X125772000Y-104280000D02*
X125772000Y-101460000D01*
X74549000Y-93620000D02*
X74549000Y-77480000D01*
X79820000Y-93620000D02*
X79820000Y-77480000D01*
X74549000Y-93620000D02*
X79820000Y-93620000D01*
X74549000Y-77480000D02*
X79820000Y-77480000D01*
X74549000Y-87354000D02*
X79820000Y-87354000D01*
X74549000Y-83745000D02*
X79820000Y-83745000D01*
X71098000Y-92566000D02*
X71098000Y-93046000D01*
X71098000Y-93046000D02*
X61078000Y-93046000D01*
X61078000Y-93046000D02*
X61078000Y-92566000D01*
X71098000Y-89806000D02*
X71098000Y-89326000D01*
X71098000Y-89326000D02*
X61078000Y-89326000D01*
X61078000Y-89326000D02*
X61078000Y-89806000D01*
X63682000Y-74282000D02*
X63682000Y-77102000D01*
X63682000Y-77102000D02*
X69002000Y-77102000D01*
X69002000Y-77102000D02*
X69002000Y-74282000D01*
X69002000Y-74282000D02*
X63682000Y-74282000D01*
X61272000Y-75692000D02*
X63682000Y-75692000D01*
X71412000Y-75692000D02*
X69002000Y-75692000D01*
X64522000Y-74282000D02*
X64522000Y-77102000D01*
X141732000Y-92456000D02*
X141732000Y-102616000D01*
X143002000Y-92456000D02*
X135382000Y-92456000D01*
X135382000Y-92456000D02*
X135382000Y-102616000D01*
X135382000Y-102616000D02*
X143002000Y-102616000D01*
X143002000Y-102616000D02*
X143002000Y-92456000D01*
X52286000Y-50000000D02*
G75*
G03X52286000Y-50000000I-2286000J0D01*
G01*
X52286000Y-140000000D02*
G75*
G03X52286000Y-140000000I-2286000J0D01*
G01*
X115451000Y-64380000D02*
X115451000Y-80520000D01*
X110180000Y-64380000D02*
X110180000Y-80520000D01*
X115451000Y-64380000D02*
X110180000Y-64380000D01*
X115451000Y-80520000D02*
X110180000Y-80520000D01*
X115451000Y-70646000D02*
X110180000Y-70646000D01*
X115451000Y-74255000D02*
X110180000Y-74255000D01*
X74549000Y-73620000D02*
X74549000Y-57480000D01*
X79820000Y-73620000D02*
X79820000Y-57480000D01*
X74549000Y-73620000D02*
X79820000Y-73620000D01*
X74549000Y-57480000D02*
X79820000Y-57480000D01*
X74549000Y-67354000D02*
X79820000Y-67354000D01*
X74549000Y-63745000D02*
X79820000Y-63745000D01*
X90678000Y-52578000D02*
G75*
G03X90678000Y-52578000I-2286000J0D01*
G01*
X103632000Y-138430000D02*
G75*
G03X103632000Y-138430000I-2286000J0D01*
G01*
X142286000Y-50000000D02*
G75*
G03X142286000Y-50000000I-2286000J0D01*
G01*
X142286000Y-140000000D02*
G75*
G03X142286000Y-140000000I-2286000J0D01*
G01*
X52578000Y-91948000D02*
X52578000Y-102108000D01*
X53848000Y-91948000D02*
X46228000Y-91948000D01*
X46228000Y-91948000D02*
X46228000Y-102108000D01*
X46228000Y-102108000D02*
X53848000Y-102108000D01*
X53848000Y-102108000D02*
X53848000Y-91948000D01*
X115451000Y-84380000D02*
X115451000Y-100520000D01*
X110180000Y-84380000D02*
X110180000Y-100520000D01*
X115451000Y-84380000D02*
X110180000Y-84380000D01*
X115451000Y-100520000D02*
X110180000Y-100520000D01*
X115451000Y-90646000D02*
X110180000Y-90646000D01*
X115451000Y-94255000D02*
X110180000Y-94255000D01*
X115451000Y-104380000D02*
X115451000Y-120520000D01*
X110180000Y-104380000D02*
X110180000Y-120520000D01*
X115451000Y-104380000D02*
X110180000Y-104380000D01*
X115451000Y-120520000D02*
X110180000Y-120520000D01*
X115451000Y-110646000D02*
X110180000Y-110646000D01*
X115451000Y-114255000D02*
X110180000Y-114255000D01*
X74549000Y-113620000D02*
X74549000Y-97480000D01*
X79820000Y-113620000D02*
X79820000Y-97480000D01*
X74549000Y-113620000D02*
X79820000Y-113620000D01*
X74549000Y-97480000D02*
X79820000Y-97480000D01*
X74549000Y-107354000D02*
X79820000Y-107354000D01*
X74549000Y-103745000D02*
X79820000Y-103745000D01*
X115451000Y-124380000D02*
X115451000Y-140520000D01*
X110180000Y-124380000D02*
X110180000Y-140520000D01*
X115451000Y-124380000D02*
X110180000Y-124380000D01*
X115451000Y-140520000D02*
X110180000Y-140520000D01*
X115451000Y-130646000D02*
X110180000Y-130646000D01*
X115451000Y-134255000D02*
X110180000Y-134255000D01*
X74549000Y-133620000D02*
X74549000Y-117480000D01*
X79820000Y-133620000D02*
X79820000Y-117480000D01*
X74549000Y-133620000D02*
X79820000Y-133620000D01*
X74549000Y-117480000D02*
X79820000Y-117480000D01*
X74549000Y-127354000D02*
X79820000Y-127354000D01*
X74549000Y-123745000D02*
X79820000Y-123745000D01*
X104394000Y-52578000D02*
G75*
G03X104394000Y-52578000I-2286000J0D01*
G01*
X126612000Y-64402000D02*
X126612000Y-61582000D01*
X126612000Y-61582000D02*
X121292000Y-61582000D01*
X121292000Y-61582000D02*
X121292000Y-64402000D01*
X121292000Y-64402000D02*
X126612000Y-64402000D01*
X129022000Y-62992000D02*
X126612000Y-62992000D01*
X118882000Y-62992000D02*
X121292000Y-62992000D01*
X125772000Y-64402000D02*
X125772000Y-61582000D01*
X126358000Y-83706000D02*
X126358000Y-80886000D01*
X126358000Y-80886000D02*
X121038000Y-80886000D01*
X121038000Y-80886000D02*
X121038000Y-83706000D01*
X121038000Y-83706000D02*
X126358000Y-83706000D01*
X128768000Y-82296000D02*
X126358000Y-82296000D01*
X118628000Y-82296000D02*
X121038000Y-82296000D01*
X125518000Y-83706000D02*
X125518000Y-80886000D01*
X63428000Y-93840000D02*
X63428000Y-96660000D01*
X63428000Y-96660000D02*
X68748000Y-96660000D01*
X68748000Y-96660000D02*
X68748000Y-93840000D01*
X68748000Y-93840000D02*
X63428000Y-93840000D01*
X61018000Y-95250000D02*
X63428000Y-95250000D01*
X71158000Y-95250000D02*
X68748000Y-95250000D01*
X64268000Y-93840000D02*
X64268000Y-96660000D01*
X63174000Y-114414000D02*
X63174000Y-117234000D01*
X63174000Y-117234000D02*
X68494000Y-117234000D01*
X68494000Y-117234000D02*
X68494000Y-114414000D01*
X68494000Y-114414000D02*
X63174000Y-114414000D01*
X60764000Y-115824000D02*
X63174000Y-115824000D01*
X70904000Y-115824000D02*
X68494000Y-115824000D01*
X64014000Y-114414000D02*
X64014000Y-117234000D01*
X126358000Y-124092000D02*
X126358000Y-121272000D01*
X126358000Y-121272000D02*
X121038000Y-121272000D01*
X121038000Y-121272000D02*
X121038000Y-124092000D01*
X121038000Y-124092000D02*
X126358000Y-124092000D01*
X128768000Y-122682000D02*
X126358000Y-122682000D01*
X118628000Y-122682000D02*
X121038000Y-122682000D01*
X125518000Y-124092000D02*
X125518000Y-121272000D01*
X63682000Y-133972000D02*
X63682000Y-136792000D01*
X63682000Y-136792000D02*
X69002000Y-136792000D01*
X69002000Y-136792000D02*
X69002000Y-133972000D01*
X69002000Y-133972000D02*
X63682000Y-133972000D01*
X61272000Y-135382000D02*
X63682000Y-135382000D01*
X71412000Y-135382000D02*
X69002000Y-135382000D01*
X64522000Y-133972000D02*
X64522000Y-136792000D01*
X71352000Y-72754000D02*
X71352000Y-73234000D01*
X71352000Y-73234000D02*
X61332000Y-73234000D01*
X61332000Y-73234000D02*
X61332000Y-72754000D01*
X71352000Y-69994000D02*
X71352000Y-69514000D01*
X71352000Y-69514000D02*
X61332000Y-69514000D01*
X61332000Y-69514000D02*
X61332000Y-69994000D01*
X118688000Y-84980000D02*
X118688000Y-84500000D01*
X118688000Y-84500000D02*
X128708000Y-84500000D01*
X128708000Y-84500000D02*
X128708000Y-84980000D01*
X118688000Y-87740000D02*
X118688000Y-88220000D01*
X118688000Y-88220000D02*
X128708000Y-88220000D01*
X128708000Y-88220000D02*
X128708000Y-87740000D01*
X118942000Y-105554000D02*
X118942000Y-105074000D01*
X118942000Y-105074000D02*
X128962000Y-105074000D01*
X128962000Y-105074000D02*
X128962000Y-105554000D01*
X118942000Y-108314000D02*
X118942000Y-108794000D01*
X118942000Y-108794000D02*
X128962000Y-108794000D01*
X128962000Y-108794000D02*
X128962000Y-108314000D01*
X118688000Y-125366000D02*
X118688000Y-124886000D01*
X118688000Y-124886000D02*
X128708000Y-124886000D01*
X128708000Y-124886000D02*
X128708000Y-125366000D01*
X118688000Y-128126000D02*
X118688000Y-128606000D01*
X118688000Y-128606000D02*
X128708000Y-128606000D01*
X128708000Y-128606000D02*
X128708000Y-128126000D01*
X57241924Y-55575197D02*
X61010803Y-59344076D01*
X61010803Y-59344076D02*
X67834383Y-52520496D01*
X67834383Y-52520496D02*
X64065504Y-48751617D01*
X64065504Y-48751617D02*
X57241924Y-55575197D01*
X58196518Y-58389482D02*
X59126363Y-57459637D01*
X66879789Y-49706211D02*
X65949944Y-50636056D01*
X58295159Y-54521961D02*
X62064039Y-58290841D01*
X132130803Y-49875924D02*
X128361924Y-53644803D01*
X128361924Y-53644803D02*
X135185504Y-60468383D01*
X135185504Y-60468383D02*
X138954383Y-56699504D01*
X138954383Y-56699504D02*
X132130803Y-49875924D01*
X129316518Y-50830518D02*
X130246363Y-51760363D01*
X137999789Y-59513789D02*
X137069944Y-58583944D01*
X133184039Y-50929159D02*
X129415159Y-54698039D01*
X90444000Y-128794000D02*
X90444000Y-100674000D01*
X100564000Y-128794000D02*
X100564000Y-100674000D01*
X90444000Y-128794000D02*
X100564000Y-128794000D01*
X90444000Y-100674000D02*
X100564000Y-100674000D01*
X90444000Y-99330000D02*
X90444000Y-71210000D01*
X100564000Y-99330000D02*
X100564000Y-71210000D01*
X90444000Y-99330000D02*
X100564000Y-99330000D01*
X90444000Y-71210000D02*
X100564000Y-71210000D01*
X141603000Y-107189000D02*
X136273000Y-107189000D01*
X136273000Y-107189000D02*
X136273000Y-116839000D01*
X136273000Y-116839000D02*
X141603000Y-116839000D01*
X141603000Y-116839000D02*
X141603000Y-107189000D01*
X138938000Y-105874000D02*
X138938000Y-107189000D01*
X138938000Y-118154000D02*
X138938000Y-116839000D01*
X141603000Y-108678500D02*
X136273000Y-108678500D01*
X51433000Y-107189000D02*
X46103000Y-107189000D01*
X46103000Y-107189000D02*
X46103000Y-116839000D01*
X46103000Y-116839000D02*
X51433000Y-116839000D01*
X51433000Y-116839000D02*
X51433000Y-107189000D01*
X48768000Y-105874000D02*
X48768000Y-107189000D01*
X48768000Y-118154000D02*
X48768000Y-116839000D01*
X51433000Y-108678500D02*
X46103000Y-108678500D01*
D12*
X81251467Y-131125981D02*
X81251467Y-131840267D01*
X81203847Y-131983124D01*
X81108609Y-132078362D01*
X80965752Y-132125981D01*
X80870514Y-132125981D01*
X81680038Y-131221219D02*
X81727657Y-131173600D01*
X81822895Y-131125981D01*
X82060991Y-131125981D01*
X82156229Y-131173600D01*
X82203848Y-131221219D01*
X82251467Y-131316457D01*
X82251467Y-131411695D01*
X82203848Y-131554552D01*
X81632419Y-132125981D01*
X82251467Y-132125981D01*
X65619334Y-112161581D02*
X65286000Y-111685390D01*
X65047905Y-112161581D02*
X65047905Y-111161581D01*
X65428858Y-111161581D01*
X65524096Y-111209200D01*
X65571715Y-111256819D01*
X65619334Y-111352057D01*
X65619334Y-111494914D01*
X65571715Y-111590152D01*
X65524096Y-111637771D01*
X65428858Y-111685390D01*
X65047905Y-111685390D01*
X66476477Y-111161581D02*
X66286000Y-111161581D01*
X66190762Y-111209200D01*
X66143143Y-111256819D01*
X66047905Y-111399676D01*
X66000286Y-111590152D01*
X66000286Y-111971105D01*
X66047905Y-112066343D01*
X66095524Y-112113962D01*
X66190762Y-112161581D01*
X66381239Y-112161581D01*
X66476477Y-112113962D01*
X66524096Y-112066343D01*
X66571715Y-111971105D01*
X66571715Y-111733010D01*
X66524096Y-111637771D01*
X66476477Y-111590152D01*
X66381239Y-111542533D01*
X66190762Y-111542533D01*
X66095524Y-111590152D01*
X66047905Y-111637771D01*
X66000286Y-111733010D01*
X66178134Y-131160781D02*
X65844800Y-130684590D01*
X65606705Y-131160781D02*
X65606705Y-130160781D01*
X65987658Y-130160781D01*
X66082896Y-130208400D01*
X66130515Y-130256019D01*
X66178134Y-130351257D01*
X66178134Y-130494114D01*
X66130515Y-130589352D01*
X66082896Y-130636971D01*
X65987658Y-130684590D01*
X65606705Y-130684590D01*
X66749562Y-130589352D02*
X66654324Y-130541733D01*
X66606705Y-130494114D01*
X66559086Y-130398876D01*
X66559086Y-130351257D01*
X66606705Y-130256019D01*
X66654324Y-130208400D01*
X66749562Y-130160781D01*
X66940039Y-130160781D01*
X67035277Y-130208400D01*
X67082896Y-130256019D01*
X67130515Y-130351257D01*
X67130515Y-130398876D01*
X67082896Y-130494114D01*
X67035277Y-130541733D01*
X66940039Y-130589352D01*
X66749562Y-130589352D01*
X66654324Y-130636971D01*
X66606705Y-130684590D01*
X66559086Y-130779829D01*
X66559086Y-130970305D01*
X66606705Y-131065543D01*
X66654324Y-131113162D01*
X66749562Y-131160781D01*
X66940039Y-131160781D01*
X67035277Y-131113162D01*
X67082896Y-131065543D01*
X67130515Y-130970305D01*
X67130515Y-130779829D01*
X67082896Y-130684590D01*
X67035277Y-130636971D01*
X66940039Y-130589352D01*
X123632934Y-67914781D02*
X123299600Y-67438590D01*
X123061505Y-67914781D02*
X123061505Y-66914781D01*
X123442458Y-66914781D01*
X123537696Y-66962400D01*
X123585315Y-67010019D01*
X123632934Y-67105257D01*
X123632934Y-67248114D01*
X123585315Y-67343352D01*
X123537696Y-67390971D01*
X123442458Y-67438590D01*
X123061505Y-67438590D01*
X124585315Y-67914781D02*
X124013886Y-67914781D01*
X124299600Y-67914781D02*
X124299600Y-66914781D01*
X124204362Y-67057638D01*
X124109124Y-67152876D01*
X124013886Y-67200495D01*
X123163105Y-103373181D02*
X123163105Y-102373181D01*
X123401200Y-102373181D01*
X123544058Y-102420800D01*
X123639296Y-102516038D01*
X123686915Y-102611276D01*
X123734534Y-102801752D01*
X123734534Y-102944610D01*
X123686915Y-103135086D01*
X123639296Y-103230324D01*
X123544058Y-103325562D01*
X123401200Y-103373181D01*
X123163105Y-103373181D01*
X124639296Y-102373181D02*
X124163105Y-102373181D01*
X124115486Y-102849371D01*
X124163105Y-102801752D01*
X124258343Y-102754133D01*
X124496439Y-102754133D01*
X124591677Y-102801752D01*
X124639296Y-102849371D01*
X124686915Y-102944610D01*
X124686915Y-103182705D01*
X124639296Y-103277943D01*
X124591677Y-103325562D01*
X124496439Y-103373181D01*
X124258343Y-103373181D01*
X124163105Y-103325562D01*
X124115486Y-103277943D01*
X74097619Y-85645238D02*
X74050000Y-85740476D01*
X73954762Y-85835714D01*
X73811905Y-85978571D01*
X73764286Y-86073810D01*
X73764286Y-86169048D01*
X74002381Y-86121429D02*
X73954762Y-86216667D01*
X73859524Y-86311905D01*
X73669048Y-86359524D01*
X73335714Y-86359524D01*
X73145238Y-86311905D01*
X73050000Y-86216667D01*
X73002381Y-86121429D01*
X73002381Y-85930952D01*
X73050000Y-85835714D01*
X73145238Y-85740476D01*
X73335714Y-85692857D01*
X73669048Y-85692857D01*
X73859524Y-85740476D01*
X73954762Y-85835714D01*
X74002381Y-85930952D01*
X74002381Y-86121429D01*
X73335714Y-84835714D02*
X74002381Y-84835714D01*
X72954762Y-85073810D02*
X73669048Y-85311905D01*
X73669048Y-84692857D01*
X66127334Y-91536781D02*
X65794000Y-91060590D01*
X65555905Y-91536781D02*
X65555905Y-90536781D01*
X65936858Y-90536781D01*
X66032096Y-90584400D01*
X66079715Y-90632019D01*
X66127334Y-90727257D01*
X66127334Y-90870114D01*
X66079715Y-90965352D01*
X66032096Y-91012971D01*
X65936858Y-91060590D01*
X65555905Y-91060590D01*
X66984477Y-90870114D02*
X66984477Y-91536781D01*
X66746381Y-90489162D02*
X66508286Y-91203448D01*
X67127334Y-91203448D01*
X65555905Y-76195181D02*
X65555905Y-75195181D01*
X65794000Y-75195181D01*
X65936858Y-75242800D01*
X66032096Y-75338038D01*
X66079715Y-75433276D01*
X66127334Y-75623752D01*
X66127334Y-75766610D01*
X66079715Y-75957086D01*
X66032096Y-76052324D01*
X65936858Y-76147562D01*
X65794000Y-76195181D01*
X65555905Y-76195181D01*
X66508286Y-75290419D02*
X66555905Y-75242800D01*
X66651143Y-75195181D01*
X66889239Y-75195181D01*
X66984477Y-75242800D01*
X67032096Y-75290419D01*
X67079715Y-75385657D01*
X67079715Y-75480895D01*
X67032096Y-75623752D01*
X66460667Y-76195181D01*
X67079715Y-76195181D01*
X139112667Y-90384381D02*
X139112667Y-91098667D01*
X139065047Y-91241524D01*
X138969809Y-91336762D01*
X138826952Y-91384381D01*
X138731714Y-91384381D01*
X139493619Y-90384381D02*
X140160286Y-90384381D01*
X139731714Y-91384381D01*
X49666667Y-46404381D02*
X49666667Y-47118667D01*
X49619047Y-47261524D01*
X49523809Y-47356762D01*
X49380952Y-47404381D01*
X49285714Y-47404381D01*
X50047619Y-46404381D02*
X50666667Y-46404381D01*
X50333333Y-46785333D01*
X50476191Y-46785333D01*
X50571429Y-46832952D01*
X50619048Y-46880571D01*
X50666667Y-46975810D01*
X50666667Y-47213905D01*
X50619048Y-47309143D01*
X50571429Y-47356762D01*
X50476191Y-47404381D01*
X50190476Y-47404381D01*
X50095238Y-47356762D01*
X50047619Y-47309143D01*
X49412667Y-134626381D02*
X49412667Y-135340667D01*
X49365047Y-135483524D01*
X49269809Y-135578762D01*
X49126952Y-135626381D01*
X49031714Y-135626381D01*
X50317429Y-134626381D02*
X50126952Y-134626381D01*
X50031714Y-134674000D01*
X49984095Y-134721619D01*
X49888857Y-134864476D01*
X49841238Y-135054952D01*
X49841238Y-135435905D01*
X49888857Y-135531143D01*
X49936476Y-135578762D01*
X50031714Y-135626381D01*
X50222191Y-135626381D01*
X50317429Y-135578762D01*
X50365048Y-135531143D01*
X50412667Y-135435905D01*
X50412667Y-135197810D01*
X50365048Y-135102571D01*
X50317429Y-135054952D01*
X50222191Y-135007333D01*
X50031714Y-135007333D01*
X49936476Y-135054952D01*
X49888857Y-135102571D01*
X49841238Y-135197810D01*
X116997619Y-72545238D02*
X116950000Y-72640476D01*
X116854762Y-72735714D01*
X116711905Y-72878571D01*
X116664286Y-72973810D01*
X116664286Y-73069048D01*
X116902381Y-73021429D02*
X116854762Y-73116667D01*
X116759524Y-73211905D01*
X116569048Y-73259524D01*
X116235714Y-73259524D01*
X116045238Y-73211905D01*
X115950000Y-73116667D01*
X115902381Y-73021429D01*
X115902381Y-72830952D01*
X115950000Y-72735714D01*
X116045238Y-72640476D01*
X116235714Y-72592857D01*
X116569048Y-72592857D01*
X116759524Y-72640476D01*
X116854762Y-72735714D01*
X116902381Y-72830952D01*
X116902381Y-73021429D01*
X116902381Y-71640476D02*
X116902381Y-72211905D01*
X116902381Y-71926191D02*
X115902381Y-71926191D01*
X116045238Y-72021429D01*
X116140476Y-72116667D01*
X116188095Y-72211905D01*
X74097619Y-65645238D02*
X74050000Y-65740476D01*
X73954762Y-65835714D01*
X73811905Y-65978571D01*
X73764286Y-66073810D01*
X73764286Y-66169048D01*
X74002381Y-66121429D02*
X73954762Y-66216667D01*
X73859524Y-66311905D01*
X73669048Y-66359524D01*
X73335714Y-66359524D01*
X73145238Y-66311905D01*
X73050000Y-66216667D01*
X73002381Y-66121429D01*
X73002381Y-65930952D01*
X73050000Y-65835714D01*
X73145238Y-65740476D01*
X73335714Y-65692857D01*
X73669048Y-65692857D01*
X73859524Y-65740476D01*
X73954762Y-65835714D01*
X74002381Y-65930952D01*
X74002381Y-66121429D01*
X73097619Y-65311905D02*
X73050000Y-65264286D01*
X73002381Y-65169048D01*
X73002381Y-64930952D01*
X73050000Y-64835714D01*
X73097619Y-64788095D01*
X73192857Y-64740476D01*
X73288095Y-64740476D01*
X73430952Y-64788095D01*
X74002381Y-65359524D01*
X74002381Y-64740476D01*
X87804667Y-58126381D02*
X87804667Y-58840667D01*
X87757047Y-58983524D01*
X87661809Y-59078762D01*
X87518952Y-59126381D01*
X87423714Y-59126381D01*
X88328476Y-59126381D02*
X88518952Y-59126381D01*
X88614191Y-59078762D01*
X88661810Y-59031143D01*
X88757048Y-58888286D01*
X88804667Y-58697810D01*
X88804667Y-58316857D01*
X88757048Y-58221619D01*
X88709429Y-58174000D01*
X88614191Y-58126381D01*
X88423714Y-58126381D01*
X88328476Y-58174000D01*
X88280857Y-58221619D01*
X88233238Y-58316857D01*
X88233238Y-58554952D01*
X88280857Y-58650190D01*
X88328476Y-58697810D01*
X88423714Y-58745429D01*
X88614191Y-58745429D01*
X88709429Y-58697810D01*
X88757048Y-58650190D01*
X88804667Y-58554952D01*
X108073867Y-131176781D02*
X108073867Y-131891067D01*
X108026247Y-132033924D01*
X107931009Y-132129162D01*
X107788152Y-132176781D01*
X107692914Y-132176781D01*
X109073867Y-132176781D02*
X108502438Y-132176781D01*
X108788152Y-132176781D02*
X108788152Y-131176781D01*
X108692914Y-131319638D01*
X108597676Y-131414876D01*
X108502438Y-131462495D01*
X139666667Y-46404381D02*
X139666667Y-47118667D01*
X139619047Y-47261524D01*
X139523809Y-47356762D01*
X139380952Y-47404381D01*
X139285714Y-47404381D01*
X140571429Y-46737714D02*
X140571429Y-47404381D01*
X140333333Y-46356762D02*
X140095238Y-47071048D01*
X140714286Y-47071048D01*
X139666667Y-136404381D02*
X139666667Y-137118667D01*
X139619047Y-137261524D01*
X139523809Y-137356762D01*
X139380952Y-137404381D01*
X139285714Y-137404381D01*
X140619048Y-136404381D02*
X140142857Y-136404381D01*
X140095238Y-136880571D01*
X140142857Y-136832952D01*
X140238095Y-136785333D01*
X140476191Y-136785333D01*
X140571429Y-136832952D01*
X140619048Y-136880571D01*
X140666667Y-136975810D01*
X140666667Y-137213905D01*
X140619048Y-137309143D01*
X140571429Y-137356762D01*
X140476191Y-137404381D01*
X140238095Y-137404381D01*
X140142857Y-137356762D01*
X140095238Y-137309143D01*
X49958667Y-90130381D02*
X49958667Y-90844667D01*
X49911047Y-90987524D01*
X49815809Y-91082762D01*
X49672952Y-91130381D01*
X49577714Y-91130381D01*
X50577714Y-90558952D02*
X50482476Y-90511333D01*
X50434857Y-90463714D01*
X50387238Y-90368476D01*
X50387238Y-90320857D01*
X50434857Y-90225619D01*
X50482476Y-90178000D01*
X50577714Y-90130381D01*
X50768191Y-90130381D01*
X50863429Y-90178000D01*
X50911048Y-90225619D01*
X50958667Y-90320857D01*
X50958667Y-90368476D01*
X50911048Y-90463714D01*
X50863429Y-90511333D01*
X50768191Y-90558952D01*
X50577714Y-90558952D01*
X50482476Y-90606571D01*
X50434857Y-90654190D01*
X50387238Y-90749429D01*
X50387238Y-90939905D01*
X50434857Y-91035143D01*
X50482476Y-91082762D01*
X50577714Y-91130381D01*
X50768191Y-91130381D01*
X50863429Y-91082762D01*
X50911048Y-91035143D01*
X50958667Y-90939905D01*
X50958667Y-90749429D01*
X50911048Y-90654190D01*
X50863429Y-90606571D01*
X50768191Y-90558952D01*
X116997619Y-92545238D02*
X116950000Y-92640476D01*
X116854762Y-92735714D01*
X116711905Y-92878571D01*
X116664286Y-92973810D01*
X116664286Y-93069048D01*
X116902381Y-93021429D02*
X116854762Y-93116667D01*
X116759524Y-93211905D01*
X116569048Y-93259524D01*
X116235714Y-93259524D01*
X116045238Y-93211905D01*
X115950000Y-93116667D01*
X115902381Y-93021429D01*
X115902381Y-92830952D01*
X115950000Y-92735714D01*
X116045238Y-92640476D01*
X116235714Y-92592857D01*
X116569048Y-92592857D01*
X116759524Y-92640476D01*
X116854762Y-92735714D01*
X116902381Y-92830952D01*
X116902381Y-93021429D01*
X115902381Y-92259524D02*
X115902381Y-91640476D01*
X116283333Y-91973810D01*
X116283333Y-91830952D01*
X116330952Y-91735714D01*
X116378571Y-91688095D01*
X116473810Y-91640476D01*
X116711905Y-91640476D01*
X116807143Y-91688095D01*
X116854762Y-91735714D01*
X116902381Y-91830952D01*
X116902381Y-92116667D01*
X116854762Y-92211905D01*
X116807143Y-92259524D01*
X116997619Y-112545238D02*
X116950000Y-112640476D01*
X116854762Y-112735714D01*
X116711905Y-112878571D01*
X116664286Y-112973810D01*
X116664286Y-113069048D01*
X116902381Y-113021429D02*
X116854762Y-113116667D01*
X116759524Y-113211905D01*
X116569048Y-113259524D01*
X116235714Y-113259524D01*
X116045238Y-113211905D01*
X115950000Y-113116667D01*
X115902381Y-113021429D01*
X115902381Y-112830952D01*
X115950000Y-112735714D01*
X116045238Y-112640476D01*
X116235714Y-112592857D01*
X116569048Y-112592857D01*
X116759524Y-112640476D01*
X116854762Y-112735714D01*
X116902381Y-112830952D01*
X116902381Y-113021429D01*
X115902381Y-111688095D02*
X115902381Y-112164286D01*
X116378571Y-112211905D01*
X116330952Y-112164286D01*
X116283333Y-112069048D01*
X116283333Y-111830952D01*
X116330952Y-111735714D01*
X116378571Y-111688095D01*
X116473810Y-111640476D01*
X116711905Y-111640476D01*
X116807143Y-111688095D01*
X116854762Y-111735714D01*
X116902381Y-111830952D01*
X116902381Y-112069048D01*
X116854762Y-112164286D01*
X116807143Y-112211905D01*
X74097619Y-105645238D02*
X74050000Y-105740476D01*
X73954762Y-105835714D01*
X73811905Y-105978571D01*
X73764286Y-106073810D01*
X73764286Y-106169048D01*
X74002381Y-106121429D02*
X73954762Y-106216667D01*
X73859524Y-106311905D01*
X73669048Y-106359524D01*
X73335714Y-106359524D01*
X73145238Y-106311905D01*
X73050000Y-106216667D01*
X73002381Y-106121429D01*
X73002381Y-105930952D01*
X73050000Y-105835714D01*
X73145238Y-105740476D01*
X73335714Y-105692857D01*
X73669048Y-105692857D01*
X73859524Y-105740476D01*
X73954762Y-105835714D01*
X74002381Y-105930952D01*
X74002381Y-106121429D01*
X73002381Y-104835714D02*
X73002381Y-105026191D01*
X73050000Y-105121429D01*
X73097619Y-105169048D01*
X73240476Y-105264286D01*
X73430952Y-105311905D01*
X73811905Y-105311905D01*
X73907143Y-105264286D01*
X73954762Y-105216667D01*
X74002381Y-105121429D01*
X74002381Y-104930952D01*
X73954762Y-104835714D01*
X73907143Y-104788095D01*
X73811905Y-104740476D01*
X73573810Y-104740476D01*
X73478571Y-104788095D01*
X73430952Y-104835714D01*
X73383333Y-104930952D01*
X73383333Y-105121429D01*
X73430952Y-105216667D01*
X73478571Y-105264286D01*
X73573810Y-105311905D01*
X116997619Y-132545238D02*
X116950000Y-132640476D01*
X116854762Y-132735714D01*
X116711905Y-132878571D01*
X116664286Y-132973810D01*
X116664286Y-133069048D01*
X116902381Y-133021429D02*
X116854762Y-133116667D01*
X116759524Y-133211905D01*
X116569048Y-133259524D01*
X116235714Y-133259524D01*
X116045238Y-133211905D01*
X115950000Y-133116667D01*
X115902381Y-133021429D01*
X115902381Y-132830952D01*
X115950000Y-132735714D01*
X116045238Y-132640476D01*
X116235714Y-132592857D01*
X116569048Y-132592857D01*
X116759524Y-132640476D01*
X116854762Y-132735714D01*
X116902381Y-132830952D01*
X116902381Y-133021429D01*
X115902381Y-132259524D02*
X115902381Y-131592857D01*
X116902381Y-132021429D01*
X74097619Y-125645238D02*
X74050000Y-125740476D01*
X73954762Y-125835714D01*
X73811905Y-125978571D01*
X73764286Y-126073810D01*
X73764286Y-126169048D01*
X74002381Y-126121429D02*
X73954762Y-126216667D01*
X73859524Y-126311905D01*
X73669048Y-126359524D01*
X73335714Y-126359524D01*
X73145238Y-126311905D01*
X73050000Y-126216667D01*
X73002381Y-126121429D01*
X73002381Y-125930952D01*
X73050000Y-125835714D01*
X73145238Y-125740476D01*
X73335714Y-125692857D01*
X73669048Y-125692857D01*
X73859524Y-125740476D01*
X73954762Y-125835714D01*
X74002381Y-125930952D01*
X74002381Y-126121429D01*
X73430952Y-125121429D02*
X73383333Y-125216667D01*
X73335714Y-125264286D01*
X73240476Y-125311905D01*
X73192857Y-125311905D01*
X73097619Y-125264286D01*
X73050000Y-125216667D01*
X73002381Y-125121429D01*
X73002381Y-124930952D01*
X73050000Y-124835714D01*
X73097619Y-124788095D01*
X73192857Y-124740476D01*
X73240476Y-124740476D01*
X73335714Y-124788095D01*
X73383333Y-124835714D01*
X73430952Y-124930952D01*
X73430952Y-125121429D01*
X73478571Y-125216667D01*
X73526190Y-125264286D01*
X73621429Y-125311905D01*
X73811905Y-125311905D01*
X73907143Y-125264286D01*
X73954762Y-125216667D01*
X74002381Y-125121429D01*
X74002381Y-124930952D01*
X73954762Y-124835714D01*
X73907143Y-124788095D01*
X73811905Y-124740476D01*
X73621429Y-124740476D01*
X73526190Y-124788095D01*
X73478571Y-124835714D01*
X73430952Y-124930952D01*
X101298477Y-58126381D02*
X101298477Y-58840667D01*
X101250857Y-58983524D01*
X101155619Y-59078762D01*
X101012762Y-59126381D01*
X100917524Y-59126381D01*
X102298477Y-59126381D02*
X101727048Y-59126381D01*
X102012762Y-59126381D02*
X102012762Y-58126381D01*
X101917524Y-58269238D01*
X101822286Y-58364476D01*
X101727048Y-58412095D01*
X102679429Y-58221619D02*
X102727048Y-58174000D01*
X102822286Y-58126381D01*
X103060382Y-58126381D01*
X103155620Y-58174000D01*
X103203239Y-58221619D01*
X103250858Y-58316857D01*
X103250858Y-58412095D01*
X103203239Y-58554952D01*
X102631810Y-59126381D01*
X103250858Y-59126381D01*
X123163105Y-63393581D02*
X123163105Y-62393581D01*
X123401200Y-62393581D01*
X123544058Y-62441200D01*
X123639296Y-62536438D01*
X123686915Y-62631676D01*
X123734534Y-62822152D01*
X123734534Y-62965010D01*
X123686915Y-63155486D01*
X123639296Y-63250724D01*
X123544058Y-63345962D01*
X123401200Y-63393581D01*
X123163105Y-63393581D01*
X124686915Y-63393581D02*
X124115486Y-63393581D01*
X124401200Y-63393581D02*
X124401200Y-62393581D01*
X124305962Y-62536438D01*
X124210724Y-62631676D01*
X124115486Y-62679295D01*
X122959905Y-82748381D02*
X122959905Y-81748381D01*
X123198000Y-81748381D01*
X123340858Y-81796000D01*
X123436096Y-81891238D01*
X123483715Y-81986476D01*
X123531334Y-82176952D01*
X123531334Y-82319810D01*
X123483715Y-82510286D01*
X123436096Y-82605524D01*
X123340858Y-82700762D01*
X123198000Y-82748381D01*
X122959905Y-82748381D01*
X123864667Y-81748381D02*
X124483715Y-81748381D01*
X124150381Y-82129333D01*
X124293239Y-82129333D01*
X124388477Y-82176952D01*
X124436096Y-82224571D01*
X124483715Y-82319810D01*
X124483715Y-82557905D01*
X124436096Y-82653143D01*
X124388477Y-82700762D01*
X124293239Y-82748381D01*
X124007524Y-82748381D01*
X123912286Y-82700762D01*
X123864667Y-82653143D01*
X65352705Y-95753181D02*
X65352705Y-94753181D01*
X65590800Y-94753181D01*
X65733658Y-94800800D01*
X65828896Y-94896038D01*
X65876515Y-94991276D01*
X65924134Y-95181752D01*
X65924134Y-95324610D01*
X65876515Y-95515086D01*
X65828896Y-95610324D01*
X65733658Y-95705562D01*
X65590800Y-95753181D01*
X65352705Y-95753181D01*
X66781277Y-95086514D02*
X66781277Y-95753181D01*
X66543181Y-94705562D02*
X66305086Y-95419848D01*
X66924134Y-95419848D01*
X65047905Y-116377981D02*
X65047905Y-115377981D01*
X65286000Y-115377981D01*
X65428858Y-115425600D01*
X65524096Y-115520838D01*
X65571715Y-115616076D01*
X65619334Y-115806552D01*
X65619334Y-115949410D01*
X65571715Y-116139886D01*
X65524096Y-116235124D01*
X65428858Y-116330362D01*
X65286000Y-116377981D01*
X65047905Y-116377981D01*
X66476477Y-115377981D02*
X66286000Y-115377981D01*
X66190762Y-115425600D01*
X66143143Y-115473219D01*
X66047905Y-115616076D01*
X66000286Y-115806552D01*
X66000286Y-116187505D01*
X66047905Y-116282743D01*
X66095524Y-116330362D01*
X66190762Y-116377981D01*
X66381239Y-116377981D01*
X66476477Y-116330362D01*
X66524096Y-116282743D01*
X66571715Y-116187505D01*
X66571715Y-115949410D01*
X66524096Y-115854171D01*
X66476477Y-115806552D01*
X66381239Y-115758933D01*
X66190762Y-115758933D01*
X66095524Y-115806552D01*
X66047905Y-115854171D01*
X66000286Y-115949410D01*
X122959905Y-123134381D02*
X122959905Y-122134381D01*
X123198000Y-122134381D01*
X123340858Y-122182000D01*
X123436096Y-122277238D01*
X123483715Y-122372476D01*
X123531334Y-122562952D01*
X123531334Y-122705810D01*
X123483715Y-122896286D01*
X123436096Y-122991524D01*
X123340858Y-123086762D01*
X123198000Y-123134381D01*
X122959905Y-123134381D01*
X123864667Y-122134381D02*
X124531334Y-122134381D01*
X124102762Y-123134381D01*
X65555905Y-135834381D02*
X65555905Y-134834381D01*
X65794000Y-134834381D01*
X65936858Y-134882000D01*
X66032096Y-134977238D01*
X66079715Y-135072476D01*
X66127334Y-135262952D01*
X66127334Y-135405810D01*
X66079715Y-135596286D01*
X66032096Y-135691524D01*
X65936858Y-135786762D01*
X65794000Y-135834381D01*
X65555905Y-135834381D01*
X66698762Y-135262952D02*
X66603524Y-135215333D01*
X66555905Y-135167714D01*
X66508286Y-135072476D01*
X66508286Y-135024857D01*
X66555905Y-134929619D01*
X66603524Y-134882000D01*
X66698762Y-134834381D01*
X66889239Y-134834381D01*
X66984477Y-134882000D01*
X67032096Y-134929619D01*
X67079715Y-135024857D01*
X67079715Y-135072476D01*
X67032096Y-135167714D01*
X66984477Y-135215333D01*
X66889239Y-135262952D01*
X66698762Y-135262952D01*
X66603524Y-135310571D01*
X66555905Y-135358190D01*
X66508286Y-135453429D01*
X66508286Y-135643905D01*
X66555905Y-135739143D01*
X66603524Y-135786762D01*
X66698762Y-135834381D01*
X66889239Y-135834381D01*
X66984477Y-135786762D01*
X67032096Y-135739143D01*
X67079715Y-135643905D01*
X67079715Y-135453429D01*
X67032096Y-135358190D01*
X66984477Y-135310571D01*
X66889239Y-135262952D01*
X66330534Y-71623181D02*
X65997200Y-71146990D01*
X65759105Y-71623181D02*
X65759105Y-70623181D01*
X66140058Y-70623181D01*
X66235296Y-70670800D01*
X66282915Y-70718419D01*
X66330534Y-70813657D01*
X66330534Y-70956514D01*
X66282915Y-71051752D01*
X66235296Y-71099371D01*
X66140058Y-71146990D01*
X65759105Y-71146990D01*
X66711486Y-70718419D02*
X66759105Y-70670800D01*
X66854343Y-70623181D01*
X67092439Y-70623181D01*
X67187677Y-70670800D01*
X67235296Y-70718419D01*
X67282915Y-70813657D01*
X67282915Y-70908895D01*
X67235296Y-71051752D01*
X66663867Y-71623181D01*
X67282915Y-71623181D01*
X123328134Y-86812381D02*
X122994800Y-86336190D01*
X122756705Y-86812381D02*
X122756705Y-85812381D01*
X123137658Y-85812381D01*
X123232896Y-85860000D01*
X123280515Y-85907619D01*
X123328134Y-86002857D01*
X123328134Y-86145714D01*
X123280515Y-86240952D01*
X123232896Y-86288571D01*
X123137658Y-86336190D01*
X122756705Y-86336190D01*
X123661467Y-85812381D02*
X124280515Y-85812381D01*
X123947181Y-86193333D01*
X124090039Y-86193333D01*
X124185277Y-86240952D01*
X124232896Y-86288571D01*
X124280515Y-86383810D01*
X124280515Y-86621905D01*
X124232896Y-86717143D01*
X124185277Y-86764762D01*
X124090039Y-86812381D01*
X123804324Y-86812381D01*
X123709086Y-86764762D01*
X123661467Y-86717143D01*
X123632934Y-107437181D02*
X123299600Y-106960990D01*
X123061505Y-107437181D02*
X123061505Y-106437181D01*
X123442458Y-106437181D01*
X123537696Y-106484800D01*
X123585315Y-106532419D01*
X123632934Y-106627657D01*
X123632934Y-106770514D01*
X123585315Y-106865752D01*
X123537696Y-106913371D01*
X123442458Y-106960990D01*
X123061505Y-106960990D01*
X124537696Y-106437181D02*
X124061505Y-106437181D01*
X124013886Y-106913371D01*
X124061505Y-106865752D01*
X124156743Y-106818133D01*
X124394839Y-106818133D01*
X124490077Y-106865752D01*
X124537696Y-106913371D01*
X124585315Y-107008610D01*
X124585315Y-107246705D01*
X124537696Y-107341943D01*
X124490077Y-107389562D01*
X124394839Y-107437181D01*
X124156743Y-107437181D01*
X124061505Y-107389562D01*
X124013886Y-107341943D01*
X123429734Y-127147581D02*
X123096400Y-126671390D01*
X122858305Y-127147581D02*
X122858305Y-126147581D01*
X123239258Y-126147581D01*
X123334496Y-126195200D01*
X123382115Y-126242819D01*
X123429734Y-126338057D01*
X123429734Y-126480914D01*
X123382115Y-126576152D01*
X123334496Y-126623771D01*
X123239258Y-126671390D01*
X122858305Y-126671390D01*
X123763067Y-126147581D02*
X124429734Y-126147581D01*
X124001162Y-127147581D01*
X60816663Y-54842486D02*
X61220725Y-54438425D01*
X61725800Y-55347563D02*
X61018694Y-54640456D01*
X61355412Y-54303738D02*
X62298220Y-54775143D01*
X61826816Y-53832333D01*
X62702282Y-54303738D02*
X62836969Y-54236395D01*
X63005328Y-54068036D01*
X63039000Y-53967020D01*
X63039000Y-53899677D01*
X63005328Y-53798662D01*
X62937984Y-53731318D01*
X62836969Y-53697647D01*
X62769626Y-53697647D01*
X62668610Y-53731318D01*
X62500251Y-53832333D01*
X62399236Y-53866005D01*
X62331892Y-53866005D01*
X62230877Y-53832333D01*
X62163533Y-53764990D01*
X62129862Y-53663975D01*
X62129862Y-53596631D01*
X62163533Y-53495616D01*
X62331893Y-53327257D01*
X62466580Y-53259914D01*
X62668610Y-52990540D02*
X63106343Y-52552807D01*
X63140014Y-53057883D01*
X63241030Y-52956867D01*
X63342045Y-52923196D01*
X63409388Y-52923196D01*
X63510404Y-52956868D01*
X63678763Y-53125227D01*
X63712435Y-53226242D01*
X63712435Y-53293585D01*
X63678763Y-53394600D01*
X63476732Y-53596631D01*
X63375717Y-53630303D01*
X63308373Y-53630303D01*
X132863514Y-53552263D02*
X133267575Y-53956325D01*
X132358437Y-54461400D02*
X133065544Y-53754294D01*
X133402262Y-54091012D02*
X132930857Y-55033820D01*
X133873667Y-54562416D01*
X133402262Y-55437882D02*
X133469605Y-55572569D01*
X133637964Y-55740928D01*
X133738980Y-55774600D01*
X133806323Y-55774600D01*
X133907338Y-55740928D01*
X133974682Y-55673584D01*
X134008353Y-55572569D01*
X134008353Y-55505226D01*
X133974682Y-55404210D01*
X133873667Y-55235851D01*
X133839995Y-55134836D01*
X133839995Y-55067492D01*
X133873667Y-54966477D01*
X133941010Y-54899133D01*
X134042025Y-54865462D01*
X134109369Y-54865462D01*
X134210384Y-54899133D01*
X134378743Y-55067493D01*
X134446086Y-55202180D01*
X134850148Y-56010302D02*
X134378743Y-56481706D01*
X134951162Y-55572569D02*
X134277727Y-55909286D01*
X134715460Y-56347019D01*
X89551143Y-114900666D02*
X89598762Y-114948285D01*
X89646381Y-115091142D01*
X89646381Y-115186380D01*
X89598762Y-115329238D01*
X89503524Y-115424476D01*
X89408286Y-115472095D01*
X89217810Y-115519714D01*
X89074952Y-115519714D01*
X88884476Y-115472095D01*
X88789238Y-115424476D01*
X88694000Y-115329238D01*
X88646381Y-115186380D01*
X88646381Y-115091142D01*
X88694000Y-114948285D01*
X88741619Y-114900666D01*
X89646381Y-113948285D02*
X89646381Y-114519714D01*
X89646381Y-114234000D02*
X88646381Y-114234000D01*
X88789238Y-114329238D01*
X88884476Y-114424476D01*
X88932095Y-114519714D01*
X89551143Y-85436666D02*
X89598762Y-85484285D01*
X89646381Y-85627142D01*
X89646381Y-85722380D01*
X89598762Y-85865238D01*
X89503524Y-85960476D01*
X89408286Y-86008095D01*
X89217810Y-86055714D01*
X89074952Y-86055714D01*
X88884476Y-86008095D01*
X88789238Y-85960476D01*
X88694000Y-85865238D01*
X88646381Y-85722380D01*
X88646381Y-85627142D01*
X88694000Y-85484285D01*
X88741619Y-85436666D01*
X88741619Y-85055714D02*
X88694000Y-85008095D01*
X88646381Y-84912857D01*
X88646381Y-84674761D01*
X88694000Y-84579523D01*
X88741619Y-84531904D01*
X88836857Y-84484285D01*
X88932095Y-84484285D01*
X89074952Y-84531904D01*
X89646381Y-85103333D01*
X89646381Y-84484285D01*
X138390381Y-113579067D02*
X138390381Y-113007638D01*
X139390381Y-113293353D02*
X138390381Y-113293353D01*
X138390381Y-112817162D02*
X139390381Y-112483829D01*
X138390381Y-112150495D01*
X139342762Y-111864781D02*
X139390381Y-111721924D01*
X139390381Y-111483828D01*
X139342762Y-111388590D01*
X139295143Y-111340971D01*
X139199905Y-111293352D01*
X139104667Y-111293352D01*
X139009429Y-111340971D01*
X138961810Y-111388590D01*
X138914190Y-111483828D01*
X138866571Y-111674305D01*
X138818952Y-111769543D01*
X138771333Y-111817162D01*
X138676095Y-111864781D01*
X138580857Y-111864781D01*
X138485619Y-111817162D01*
X138438000Y-111769543D01*
X138390381Y-111674305D01*
X138390381Y-111436209D01*
X138438000Y-111293352D01*
X139390381Y-110340971D02*
X139390381Y-110912400D01*
X139390381Y-110626686D02*
X138390381Y-110626686D01*
X138533238Y-110721924D01*
X138628476Y-110817162D01*
X138676095Y-110912400D01*
X48067981Y-113680667D02*
X48067981Y-113109238D01*
X49067981Y-113394953D02*
X48067981Y-113394953D01*
X48067981Y-112918762D02*
X49067981Y-112585429D01*
X48067981Y-112252095D01*
X49020362Y-111966381D02*
X49067981Y-111823524D01*
X49067981Y-111585428D01*
X49020362Y-111490190D01*
X48972743Y-111442571D01*
X48877505Y-111394952D01*
X48782267Y-111394952D01*
X48687029Y-111442571D01*
X48639410Y-111490190D01*
X48591790Y-111585428D01*
X48544171Y-111775905D01*
X48496552Y-111871143D01*
X48448933Y-111918762D01*
X48353695Y-111966381D01*
X48258457Y-111966381D01*
X48163219Y-111918762D01*
X48115600Y-111871143D01*
X48067981Y-111775905D01*
X48067981Y-111537809D01*
X48115600Y-111394952D01*
X48163219Y-111014000D02*
X48115600Y-110966381D01*
X48067981Y-110871143D01*
X48067981Y-110633047D01*
X48115600Y-110537809D01*
X48163219Y-110490190D01*
X48258457Y-110442571D01*
X48353695Y-110442571D01*
X48496552Y-110490190D01*
X49067981Y-111061619D01*
X49067981Y-110442571D01*
M02*
