M48
;DRILL file {KiCad 4.0.7} date 07/12/19 12:00:18
;FORMAT={-:-/ absolute / metric / decimal}
FMAT,2
METRIC,TZ
T1C0.400
T2C1.100
T3C1.200
T4C1.300
T5C1.500
T6C1.520
T7C1.800
T8C3.048
T9C5.000
%
G90
G05
M71
T1
X127.508Y-99.822
X127.762Y-69.85
X127.762Y-74.676
X127.762Y-79.756
X127.762Y-88.646
X127.762Y-94.234
X127.762Y-120.396
X128.016Y-109.22
X128.016Y-114.554
X132.08Y-99.822
X132.334Y-69.85
X132.334Y-88.646
X132.334Y-94.234
X132.588Y-74.676
X132.588Y-79.756
X132.588Y-109.22
X132.588Y-114.554
X132.588Y-120.396
X134.112Y-99.822
X136.906Y-97.028
T2
X59.484Y-115.824
X59.738Y-95.25
X59.992Y-75.692
X59.992Y-135.382
X72.184Y-115.824
X72.438Y-95.25
X72.692Y-75.692
X72.692Y-135.382
X117.348Y-82.296
X117.348Y-122.682
X117.602Y-62.992
X117.602Y-102.87
X130.048Y-82.296
X130.048Y-122.682
X130.302Y-62.992
X130.302Y-102.87
T3
X59.484Y-111.76
X59.738Y-91.186
X59.992Y-71.374
X59.992Y-130.81
X72.184Y-111.76
X72.438Y-91.186
X72.692Y-71.374
X72.692Y-130.81
X80.518Y-142.24
X95.504Y-74.02
X95.504Y-96.52
X95.504Y-103.484
X95.504Y-125.984
X108.204Y-142.24
X117.348Y-86.36
X117.348Y-126.746
X117.602Y-67.31
X117.602Y-106.934
X130.048Y-86.36
X130.048Y-126.746
X130.302Y-67.31
X130.302Y-106.934
T4
X48.768Y-104.394
X48.768Y-119.634
X57.15Y-59.436
X67.926Y-48.66
X128.27Y-49.784
X138.938Y-104.394
X138.938Y-119.634
X139.046Y-60.56
T5
X77.Y-60.1
X77.Y-65.55
X77.Y-71.
X77.Y-80.1
X77.Y-85.55
X77.Y-91.
X77.Y-100.1
X77.Y-105.55
X77.Y-111.
X77.Y-120.1
X77.Y-125.55
X77.Y-131.
X113.Y-67.
X113.Y-72.45
X113.Y-77.9
X113.Y-87.
X113.Y-92.45
X113.Y-97.9
X113.Y-107.
X113.Y-112.45
X113.Y-117.9
X113.Y-127.
X113.Y-132.45
X113.Y-137.9
T6
X50.038Y-94.488
X50.038Y-99.568
X139.192Y-94.996
X139.192Y-100.076
T7
X94.742Y-112.522
X94.996Y-66.802
X94.996Y-80.264
X94.996Y-120.142
X95.504Y-87.884
T8
X50.Y-50.
X50.Y-140.
X140.Y-50.
X140.Y-140.
T9
X87.884Y-138.176
X88.392Y-52.578
X101.346Y-138.43
X102.108Y-52.578
T0
M30
