G04 #@! TF.FileFunction,Copper,L2,Bot,Signal*
%FSLAX46Y46*%
G04 Gerber Fmt 4.6, Leading zero omitted, Abs format (unit mm)*
G04 Created by KiCad (PCBNEW 4.0.7) date 05/14/18 04:09:50*
%MOMM*%
%LPD*%
G01*
G04 APERTURE LIST*
%ADD10C,0.100000*%
%ADD11C,10.000000*%
%ADD12C,2.400000*%
%ADD13O,2.400000X2.400000*%
%ADD14R,2.200000X2.200000*%
%ADD15O,2.200000X2.200000*%
%ADD16R,4.500000X2.500000*%
%ADD17O,4.500000X2.500000*%
%ADD18R,3.000000X3.000000*%
%ADD19C,3.000000*%
%ADD20C,4.064000*%
%ADD21C,2.600000*%
%ADD22C,2.200000*%
%ADD23R,2.600000X2.600000*%
%ADD24O,2.600000X2.600000*%
%ADD25C,0.600000*%
%ADD26C,2.000000*%
%ADD27C,2.000000*%
%ADD28C,1.000000*%
%ADD29C,3.000000*%
%ADD30C,5.000000*%
G04 APERTURE END LIST*
D10*
D11*
X87884000Y-138176000D03*
D12*
X72184000Y-111760000D03*
D13*
X59484000Y-111760000D03*
D12*
X72692000Y-130810000D03*
D13*
X59992000Y-130810000D03*
D12*
X117602000Y-67310000D03*
D13*
X130302000Y-67310000D03*
D14*
X130302000Y-102870000D03*
D15*
X117602000Y-102870000D03*
D16*
X77000000Y-91000000D03*
D17*
X77000000Y-85550000D03*
X77000000Y-80100000D03*
D12*
X72438000Y-91186000D03*
D13*
X59738000Y-91186000D03*
D14*
X59992000Y-75692000D03*
D15*
X72692000Y-75692000D03*
D18*
X139192000Y-100076000D03*
D19*
X139192000Y-94996000D03*
D20*
X50000000Y-50000000D03*
X50000000Y-140000000D03*
D16*
X113000000Y-67000000D03*
D17*
X113000000Y-72450000D03*
X113000000Y-77900000D03*
D16*
X77000000Y-71000000D03*
D17*
X77000000Y-65550000D03*
X77000000Y-60100000D03*
D11*
X88392000Y-52578000D03*
X101346000Y-138430000D03*
D20*
X140000000Y-50000000D03*
X140000000Y-140000000D03*
D18*
X50038000Y-99568000D03*
D19*
X50038000Y-94488000D03*
D16*
X113000000Y-87000000D03*
D17*
X113000000Y-92450000D03*
X113000000Y-97900000D03*
D16*
X113000000Y-107000000D03*
D17*
X113000000Y-112450000D03*
X113000000Y-117900000D03*
D16*
X77000000Y-111000000D03*
D17*
X77000000Y-105550000D03*
X77000000Y-100100000D03*
D16*
X113000000Y-127000000D03*
D17*
X113000000Y-132450000D03*
X113000000Y-137900000D03*
D16*
X77000000Y-131000000D03*
D17*
X77000000Y-125550000D03*
X77000000Y-120100000D03*
D11*
X102108000Y-52578000D03*
D14*
X130302000Y-62992000D03*
D15*
X117602000Y-62992000D03*
D14*
X130048000Y-82296000D03*
D15*
X117348000Y-82296000D03*
D14*
X59738000Y-95250000D03*
D15*
X72438000Y-95250000D03*
D14*
X59484000Y-115824000D03*
D15*
X72184000Y-115824000D03*
D14*
X130048000Y-122682000D03*
D15*
X117348000Y-122682000D03*
D14*
X59992000Y-135382000D03*
D15*
X72692000Y-135382000D03*
D12*
X72692000Y-71374000D03*
D13*
X59992000Y-71374000D03*
D12*
X117348000Y-86360000D03*
D13*
X130048000Y-86360000D03*
D12*
X117602000Y-106934000D03*
D13*
X130302000Y-106934000D03*
D12*
X117348000Y-126746000D03*
D13*
X130048000Y-126746000D03*
D10*
G36*
X57150000Y-61274478D02*
X55311522Y-59436000D01*
X57150000Y-57597522D01*
X58988478Y-59436000D01*
X57150000Y-61274478D01*
X57150000Y-61274478D01*
G37*
D21*
X67926307Y-48659693D02*
X67926307Y-48659693D01*
D10*
G36*
X126431522Y-49784000D02*
X128270000Y-47945522D01*
X130108478Y-49784000D01*
X128270000Y-51622478D01*
X126431522Y-49784000D01*
X126431522Y-49784000D01*
G37*
D21*
X139046307Y-60560307D02*
X139046307Y-60560307D01*
D12*
X95504000Y-125984000D03*
X95504000Y-103484000D03*
X95504000Y-96520000D03*
X95504000Y-74020000D03*
D22*
X80518000Y-142240000D03*
X108204000Y-142240000D03*
D23*
X138938000Y-104394000D03*
D24*
X138938000Y-119634000D03*
D23*
X48768000Y-104394000D03*
D24*
X48768000Y-119634000D03*
D25*
X136906000Y-97028000D03*
X134112000Y-99822000D03*
X132080000Y-99822000D03*
X127508000Y-99822000D03*
X132588000Y-109220000D03*
X128016000Y-109220000D03*
X132334000Y-88646000D03*
X127762000Y-88646000D03*
X132334000Y-69850000D03*
X127762000Y-69850000D03*
X132588000Y-114554000D03*
X128016000Y-114554000D03*
X132588000Y-120396000D03*
X127762000Y-120396000D03*
X132334000Y-94234000D03*
X127762000Y-94234000D03*
X132588000Y-74676000D03*
X127762000Y-74676000D03*
X132588000Y-79756000D03*
X127762000Y-79756000D03*
D26*
X94996000Y-80264000D03*
X94996000Y-120142000D03*
X94742000Y-112522000D03*
X94996000Y-66802000D03*
X95504000Y-87884000D03*
D27*
X87884000Y-138176000D02*
X87884000Y-136398000D01*
X87884000Y-136398000D02*
X84328000Y-133858000D01*
X87884000Y-138176000D02*
X90932000Y-138176000D01*
X90932000Y-138176000D02*
X91948000Y-140208000D01*
X87884000Y-138176000D02*
X92202000Y-138176000D01*
X92202000Y-138176000D02*
X92456000Y-138430000D01*
D28*
X87884000Y-136398000D02*
X84582000Y-132588000D01*
X87884000Y-138176000D02*
X87884000Y-135128000D01*
X87884000Y-135128000D02*
X85344000Y-132080000D01*
X87884000Y-138176000D02*
X90424000Y-138176000D01*
X87884000Y-138176000D02*
X91694000Y-138176000D01*
X87884000Y-138176000D02*
X92202000Y-138176000D01*
X92202000Y-138176000D02*
X92710000Y-136144000D01*
X87884000Y-138176000D02*
X92456000Y-137160000D01*
X92456000Y-137160000D02*
X92964000Y-136652000D01*
D29*
X87884000Y-138176000D02*
X89662000Y-138176000D01*
X89662000Y-138176000D02*
X91694000Y-134620000D01*
X87884000Y-138176000D02*
X87884000Y-140970000D01*
X87884000Y-140970000D02*
X85852000Y-141986000D01*
X87884000Y-138176000D02*
X85344000Y-138176000D01*
X85344000Y-138176000D02*
X82550000Y-134874000D01*
X85344000Y-138176000D02*
X83058000Y-139446000D01*
X87884000Y-138176000D02*
X87884000Y-138176000D01*
X87884000Y-138176000D02*
X87884000Y-142240000D01*
X87884000Y-138176000D02*
X87884000Y-139954000D01*
X87884000Y-139954000D02*
X90424000Y-141478000D01*
X87884000Y-138176000D02*
X87884000Y-136144000D01*
X87884000Y-138176000D02*
X87884000Y-136652000D01*
X87884000Y-136652000D02*
X90424000Y-132588000D01*
X87884000Y-138176000D02*
X83058000Y-137160000D01*
X83058000Y-137160000D02*
X81788000Y-136906000D01*
X87884000Y-138176000D02*
X87376000Y-131572000D01*
D28*
X134112000Y-99822000D02*
X136906000Y-97028000D01*
X127508000Y-99822000D02*
X132080000Y-99822000D01*
X128016000Y-109220000D02*
X132588000Y-109220000D01*
X127762000Y-88646000D02*
X132334000Y-88646000D01*
X127762000Y-69850000D02*
X132334000Y-69850000D01*
X128016000Y-114554000D02*
X132588000Y-114554000D01*
X127762000Y-120396000D02*
X132588000Y-120396000D01*
X127762000Y-94234000D02*
X132334000Y-94234000D01*
X127762000Y-74676000D02*
X132588000Y-74676000D01*
X127762000Y-79756000D02*
X132588000Y-79756000D01*
X138938000Y-100330000D02*
X139192000Y-100076000D01*
X139192000Y-100076000D02*
X139192000Y-100330000D01*
D27*
X59738000Y-99568000D02*
X50038000Y-99568000D01*
X59992000Y-135382000D02*
X59992000Y-130810000D01*
X59484000Y-115824000D02*
X59484000Y-130302000D01*
X59484000Y-130302000D02*
X59992000Y-130810000D01*
X59484000Y-111760000D02*
X59484000Y-115824000D01*
X59738000Y-95250000D02*
X59738000Y-99568000D01*
X59738000Y-99568000D02*
X59738000Y-111506000D01*
X59738000Y-111506000D02*
X59484000Y-111760000D01*
X59738000Y-91186000D02*
X59738000Y-75946000D01*
X59738000Y-75946000D02*
X59992000Y-75692000D01*
X59738000Y-91186000D02*
X59738000Y-95250000D01*
X59992000Y-71374000D02*
X59992000Y-75692000D01*
D28*
X50038000Y-99568000D02*
X50038000Y-102362000D01*
X50038000Y-102362000D02*
X48768000Y-104394000D01*
D27*
X72692000Y-71374000D02*
X72692000Y-75692000D01*
X77000000Y-71000000D02*
X73066000Y-71000000D01*
X73066000Y-71000000D02*
X72692000Y-71374000D01*
X99688000Y-80010000D02*
X107248000Y-72450000D01*
X95250000Y-80010000D02*
X99688000Y-80010000D01*
X94996000Y-80264000D02*
X95250000Y-80010000D01*
X110606000Y-132450000D02*
X113000000Y-132450000D01*
X104902000Y-126746000D02*
X110606000Y-132450000D01*
X104902000Y-123952000D02*
X104902000Y-126746000D01*
X101092000Y-120142000D02*
X104902000Y-123952000D01*
X94996000Y-120142000D02*
X101092000Y-120142000D01*
X94814000Y-112450000D02*
X113000000Y-112450000D01*
X94742000Y-112522000D02*
X94814000Y-112450000D01*
X101600000Y-66802000D02*
X107248000Y-72450000D01*
X94996000Y-66802000D02*
X101600000Y-66802000D01*
X107248000Y-72450000D02*
X113000000Y-72450000D01*
X99822000Y-92202000D02*
X112752000Y-92202000D01*
X95504000Y-87884000D02*
X99822000Y-92202000D01*
X112752000Y-92202000D02*
X113000000Y-92450000D01*
D30*
X88392000Y-52578000D02*
X88392000Y-58928000D01*
X88392000Y-52578000D02*
X92202000Y-52578000D01*
X92202000Y-52578000D02*
X94996000Y-55372000D01*
X102108000Y-52578000D02*
X100330000Y-52578000D01*
X100330000Y-52578000D02*
X97536000Y-55372000D01*
X88392000Y-52578000D02*
X83058000Y-52578000D01*
X83058000Y-52578000D02*
X82804000Y-52324000D01*
X102108000Y-52578000D02*
X88392000Y-52578000D01*
X102108000Y-52578000D02*
X102108000Y-58674000D01*
X102108000Y-58674000D02*
X101854000Y-58928000D01*
X102108000Y-52578000D02*
X109982000Y-52578000D01*
D27*
X72438000Y-91186000D02*
X72438000Y-95964000D01*
X72438000Y-95964000D02*
X71882000Y-96520000D01*
X77000000Y-91000000D02*
X72624000Y-91000000D01*
X72624000Y-91000000D02*
X72438000Y-91186000D01*
X75624000Y-91000000D02*
X75438000Y-91186000D01*
X77000000Y-111000000D02*
X72944000Y-111000000D01*
X72944000Y-111000000D02*
X72184000Y-111760000D01*
X72184000Y-115824000D02*
X72184000Y-111760000D01*
X72692000Y-130810000D02*
X72692000Y-135382000D01*
X77000000Y-131000000D02*
X72882000Y-131000000D01*
X72882000Y-131000000D02*
X72692000Y-130810000D01*
X75882000Y-131000000D02*
X75692000Y-130810000D01*
D28*
G36*
X85006406Y-47778192D02*
X88392000Y-51163786D01*
X91777594Y-47778192D01*
X91319359Y-47295000D01*
X99180641Y-47295000D01*
X98722406Y-47778192D01*
X102108000Y-51163786D01*
X105493594Y-47778192D01*
X105035359Y-47295000D01*
X127494995Y-47295000D01*
X127275808Y-47514187D01*
X127275808Y-47870569D01*
X128270000Y-48864761D01*
X129264192Y-47870569D01*
X129264192Y-47514187D01*
X129045005Y-47295000D01*
X135293629Y-47295000D01*
X134882916Y-54071752D01*
X134910469Y-54268307D01*
X135012321Y-54438657D01*
X135172425Y-54555959D01*
X135350811Y-54601026D01*
X142443000Y-55044288D01*
X142443000Y-133126391D01*
X134098116Y-133358193D01*
X133904757Y-133402972D01*
X133744054Y-133519451D01*
X133641328Y-133689275D01*
X133612814Y-133829475D01*
X133131454Y-142253278D01*
X111244000Y-142499205D01*
X111244000Y-140514236D01*
X111926533Y-140650000D01*
X114073467Y-140650000D01*
X115125846Y-140440669D01*
X116018011Y-139844544D01*
X116614136Y-138952379D01*
X116823467Y-137900000D01*
X116614136Y-136847621D01*
X116018011Y-135955456D01*
X115125846Y-135359331D01*
X114073467Y-135150000D01*
X111926533Y-135150000D01*
X111244000Y-135285764D01*
X111244000Y-134531610D01*
X111646771Y-134680200D01*
X112000000Y-134456000D01*
X112000000Y-133075000D01*
X114000000Y-133075000D01*
X114000000Y-134456000D01*
X114353229Y-134680200D01*
X115179802Y-134375261D01*
X115826760Y-133777219D01*
X116045294Y-133406733D01*
X115906151Y-133075000D01*
X114000000Y-133075000D01*
X112000000Y-133075000D01*
X111980000Y-133075000D01*
X111980000Y-131825000D01*
X112000000Y-131825000D01*
X112000000Y-130444000D01*
X114000000Y-130444000D01*
X114000000Y-131825000D01*
X115906151Y-131825000D01*
X116045294Y-131493267D01*
X115826760Y-131122781D01*
X115179802Y-130524739D01*
X114353229Y-130219800D01*
X114000000Y-130444000D01*
X112000000Y-130444000D01*
X111646771Y-130219800D01*
X111244000Y-130368390D01*
X111244000Y-130302000D01*
X111204607Y-130107472D01*
X111092635Y-129943596D01*
X110925729Y-129836195D01*
X110744000Y-129802000D01*
X100073848Y-129802000D01*
X100120964Y-125750000D01*
X109220614Y-125750000D01*
X109220614Y-128250000D01*
X109325207Y-128805867D01*
X109653724Y-129316396D01*
X110154983Y-129658892D01*
X110750000Y-129779386D01*
X115250000Y-129779386D01*
X115805867Y-129674793D01*
X116316396Y-129346276D01*
X116372346Y-129264390D01*
X116808581Y-129445530D01*
X117882707Y-129446468D01*
X118875429Y-129036283D01*
X119635614Y-128277424D01*
X120047530Y-127285419D01*
X120048468Y-126211293D01*
X119638283Y-125218571D01*
X119059847Y-124639125D01*
X119237415Y-124520478D01*
X119801024Y-123676977D01*
X119998937Y-122682000D01*
X119801024Y-121687023D01*
X119237415Y-120843522D01*
X118567651Y-120396000D01*
X125762000Y-120396000D01*
X125914241Y-121161367D01*
X126347786Y-121810214D01*
X126996633Y-122243759D01*
X127418614Y-122327696D01*
X127418614Y-123782000D01*
X127523207Y-124337867D01*
X127851724Y-124848396D01*
X128007196Y-124954625D01*
X127500629Y-125712755D01*
X127295104Y-126746000D01*
X127500629Y-127779245D01*
X128085916Y-128655188D01*
X128961859Y-129240475D01*
X129995104Y-129446000D01*
X130100896Y-129446000D01*
X131134141Y-129240475D01*
X132010084Y-128655188D01*
X132595371Y-127779245D01*
X132800896Y-126746000D01*
X132595371Y-125712755D01*
X132090892Y-124957749D01*
X132214396Y-124878276D01*
X132556892Y-124377017D01*
X132677386Y-123782000D01*
X132677386Y-122378220D01*
X133353367Y-122243759D01*
X134002214Y-121810214D01*
X134435759Y-121161367D01*
X134588000Y-120396000D01*
X134435759Y-119630633D01*
X134401356Y-119579145D01*
X136138000Y-119579145D01*
X136138000Y-119688855D01*
X136351137Y-120760369D01*
X136958101Y-121668754D01*
X137866486Y-122275718D01*
X138938000Y-122488855D01*
X140009514Y-122275718D01*
X140917899Y-121668754D01*
X141524863Y-120760369D01*
X141738000Y-119688855D01*
X141738000Y-119579145D01*
X141524863Y-118507631D01*
X140917899Y-117599246D01*
X140009514Y-116992282D01*
X138938000Y-116779145D01*
X137866486Y-116992282D01*
X136958101Y-117599246D01*
X136351137Y-118507631D01*
X136138000Y-119579145D01*
X134401356Y-119579145D01*
X134002214Y-118981786D01*
X133353367Y-118548241D01*
X132588000Y-118396000D01*
X127762000Y-118396000D01*
X126996633Y-118548241D01*
X126347786Y-118981786D01*
X125914241Y-119630633D01*
X125762000Y-120396000D01*
X118567651Y-120396000D01*
X118393914Y-120279913D01*
X117398937Y-120082000D01*
X117297063Y-120082000D01*
X116302086Y-120279913D01*
X115458585Y-120843522D01*
X114894976Y-121687023D01*
X114697063Y-122682000D01*
X114894976Y-123676977D01*
X115259509Y-124222540D01*
X115250000Y-124220614D01*
X110750000Y-124220614D01*
X110194133Y-124325207D01*
X109683604Y-124653724D01*
X109341108Y-125154983D01*
X109220614Y-125750000D01*
X100120964Y-125750000D01*
X100212243Y-117900000D01*
X109176533Y-117900000D01*
X109385864Y-118952379D01*
X109981989Y-119844544D01*
X110874154Y-120440669D01*
X111926533Y-120650000D01*
X114073467Y-120650000D01*
X115125846Y-120440669D01*
X116018011Y-119844544D01*
X116614136Y-118952379D01*
X116823467Y-117900000D01*
X116614136Y-116847621D01*
X116018011Y-115955456D01*
X115125846Y-115359331D01*
X114073467Y-115150000D01*
X111926533Y-115150000D01*
X110874154Y-115359331D01*
X109981989Y-115955456D01*
X109385864Y-116847621D01*
X109176533Y-117900000D01*
X100212243Y-117900000D01*
X100264489Y-113406733D01*
X109954706Y-113406733D01*
X110173240Y-113777219D01*
X110820198Y-114375261D01*
X111646771Y-114680200D01*
X112000000Y-114456000D01*
X112000000Y-113075000D01*
X114000000Y-113075000D01*
X114000000Y-114456000D01*
X114353229Y-114680200D01*
X114695308Y-114554000D01*
X126016000Y-114554000D01*
X126168241Y-115319367D01*
X126601786Y-115968214D01*
X127250633Y-116401759D01*
X128016000Y-116554000D01*
X132588000Y-116554000D01*
X133353367Y-116401759D01*
X134002214Y-115968214D01*
X134435759Y-115319367D01*
X134588000Y-114554000D01*
X134435759Y-113788633D01*
X134002214Y-113139786D01*
X133353367Y-112706241D01*
X132588000Y-112554000D01*
X128016000Y-112554000D01*
X127250633Y-112706241D01*
X126601786Y-113139786D01*
X126168241Y-113788633D01*
X126016000Y-114554000D01*
X114695308Y-114554000D01*
X115179802Y-114375261D01*
X115826760Y-113777219D01*
X116045294Y-113406733D01*
X115906151Y-113075000D01*
X114000000Y-113075000D01*
X112000000Y-113075000D01*
X110093849Y-113075000D01*
X109954706Y-113406733D01*
X100264489Y-113406733D01*
X100286738Y-111493267D01*
X109954706Y-111493267D01*
X110093849Y-111825000D01*
X112000000Y-111825000D01*
X112000000Y-110444000D01*
X114000000Y-110444000D01*
X114000000Y-111825000D01*
X115906151Y-111825000D01*
X116045294Y-111493267D01*
X115826760Y-111122781D01*
X115179802Y-110524739D01*
X114353229Y-110219800D01*
X114000000Y-110444000D01*
X112000000Y-110444000D01*
X111646771Y-110219800D01*
X110820198Y-110524739D01*
X110173240Y-111122781D01*
X109954706Y-111493267D01*
X100286738Y-111493267D01*
X100353521Y-105750000D01*
X109220614Y-105750000D01*
X109220614Y-108250000D01*
X109325207Y-108805867D01*
X109653724Y-109316396D01*
X110154983Y-109658892D01*
X110750000Y-109779386D01*
X115250000Y-109779386D01*
X115805867Y-109674793D01*
X116316396Y-109346276D01*
X116328419Y-109328680D01*
X117062581Y-109633530D01*
X118136707Y-109634468D01*
X119129429Y-109224283D01*
X119889614Y-108465424D01*
X120301530Y-107473419D01*
X120302468Y-106399293D01*
X119892283Y-105406571D01*
X119313847Y-104827125D01*
X119491415Y-104708478D01*
X120055024Y-103864977D01*
X120252937Y-102870000D01*
X120055024Y-101875023D01*
X119491415Y-101031522D01*
X118647914Y-100467913D01*
X117652937Y-100270000D01*
X117551063Y-100270000D01*
X116556086Y-100467913D01*
X115712585Y-101031522D01*
X115148976Y-101875023D01*
X114951063Y-102870000D01*
X115148976Y-103864977D01*
X115407981Y-104252606D01*
X115250000Y-104220614D01*
X110750000Y-104220614D01*
X110194133Y-104325207D01*
X109683604Y-104653724D01*
X109341108Y-105154983D01*
X109220614Y-105750000D01*
X100353521Y-105750000D01*
X100444801Y-97900000D01*
X109176533Y-97900000D01*
X109385864Y-98952379D01*
X109981989Y-99844544D01*
X110874154Y-100440669D01*
X111926533Y-100650000D01*
X114073467Y-100650000D01*
X115125846Y-100440669D01*
X116018011Y-99844544D01*
X116033074Y-99822000D01*
X125508000Y-99822000D01*
X125660241Y-100587367D01*
X126093786Y-101236214D01*
X126742633Y-101669759D01*
X127508000Y-101822000D01*
X127672614Y-101822000D01*
X127672614Y-103970000D01*
X127777207Y-104525867D01*
X128105724Y-105036396D01*
X128261196Y-105142625D01*
X127754629Y-105900755D01*
X127549104Y-106934000D01*
X127621598Y-107298451D01*
X127250633Y-107372241D01*
X126601786Y-107805786D01*
X126168241Y-108454633D01*
X126016000Y-109220000D01*
X126168241Y-109985367D01*
X126601786Y-110634214D01*
X127250633Y-111067759D01*
X128016000Y-111220000D01*
X132588000Y-111220000D01*
X133353367Y-111067759D01*
X134002214Y-110634214D01*
X134435759Y-109985367D01*
X134588000Y-109220000D01*
X134435759Y-108454633D01*
X134002214Y-107805786D01*
X133353367Y-107372241D01*
X132982402Y-107298451D01*
X133054896Y-106934000D01*
X132849371Y-105900755D01*
X132344892Y-105145749D01*
X132468396Y-105066276D01*
X132810892Y-104565017D01*
X132931386Y-103970000D01*
X132931386Y-101770000D01*
X132905024Y-101629898D01*
X133096000Y-101502292D01*
X133346633Y-101669759D01*
X134112000Y-101822001D01*
X134877367Y-101669759D01*
X135526214Y-101236214D01*
X136162614Y-100599814D01*
X136162614Y-101576000D01*
X136267207Y-102131867D01*
X136370388Y-102292214D01*
X136229108Y-102498983D01*
X136108614Y-103094000D01*
X136108614Y-105694000D01*
X136213207Y-106249867D01*
X136541724Y-106760396D01*
X137042983Y-107102892D01*
X137638000Y-107223386D01*
X140238000Y-107223386D01*
X140793867Y-107118793D01*
X141304396Y-106790276D01*
X141646892Y-106289017D01*
X141767386Y-105694000D01*
X141767386Y-103094000D01*
X141695633Y-102712663D01*
X141758396Y-102672276D01*
X142100892Y-102171017D01*
X142221386Y-101576000D01*
X142221386Y-98576000D01*
X142116793Y-98020133D01*
X141788276Y-97509604D01*
X141287017Y-97167108D01*
X141267422Y-97163140D01*
X141733793Y-96697582D01*
X142191478Y-95595355D01*
X142192519Y-94401881D01*
X141736759Y-93298857D01*
X140893582Y-92454207D01*
X139791355Y-91996522D01*
X138597881Y-91995481D01*
X137494857Y-92451241D01*
X136650207Y-93294418D01*
X136192522Y-94396645D01*
X136191847Y-95170054D01*
X136140633Y-95180241D01*
X135491787Y-95613786D01*
X133016790Y-98088782D01*
X132845367Y-97974241D01*
X132080000Y-97822000D01*
X127508000Y-97822000D01*
X126742633Y-97974241D01*
X126093786Y-98407786D01*
X125660241Y-99056633D01*
X125508000Y-99822000D01*
X116033074Y-99822000D01*
X116614136Y-98952379D01*
X116823467Y-97900000D01*
X116614136Y-96847621D01*
X116018011Y-95955456D01*
X115125846Y-95359331D01*
X114073467Y-95150000D01*
X111926533Y-95150000D01*
X110874154Y-95359331D01*
X109981989Y-95955456D01*
X109385864Y-96847621D01*
X109176533Y-97900000D01*
X100444801Y-97900000D01*
X100497047Y-93406733D01*
X109954706Y-93406733D01*
X110173240Y-93777219D01*
X110820198Y-94375261D01*
X111646771Y-94680200D01*
X112000000Y-94456000D01*
X112000000Y-93075000D01*
X114000000Y-93075000D01*
X114000000Y-94456000D01*
X114353229Y-94680200D01*
X115179802Y-94375261D01*
X115332617Y-94234000D01*
X125762000Y-94234000D01*
X125914241Y-94999367D01*
X126347786Y-95648214D01*
X126996633Y-96081759D01*
X127762000Y-96234000D01*
X132334000Y-96234000D01*
X133099367Y-96081759D01*
X133748214Y-95648214D01*
X134181759Y-94999367D01*
X134334000Y-94234000D01*
X134181759Y-93468633D01*
X133748214Y-92819786D01*
X133099367Y-92386241D01*
X132334000Y-92234000D01*
X127762000Y-92234000D01*
X126996633Y-92386241D01*
X126347786Y-92819786D01*
X125914241Y-93468633D01*
X125762000Y-94234000D01*
X115332617Y-94234000D01*
X115826760Y-93777219D01*
X116045294Y-93406733D01*
X115906151Y-93075000D01*
X114000000Y-93075000D01*
X112000000Y-93075000D01*
X110093849Y-93075000D01*
X109954706Y-93406733D01*
X100497047Y-93406733D01*
X100519296Y-91493267D01*
X109954706Y-91493267D01*
X110093849Y-91825000D01*
X112000000Y-91825000D01*
X112000000Y-90444000D01*
X114000000Y-90444000D01*
X114000000Y-91825000D01*
X115906151Y-91825000D01*
X116045294Y-91493267D01*
X115826760Y-91122781D01*
X115179802Y-90524739D01*
X114353229Y-90219800D01*
X114000000Y-90444000D01*
X112000000Y-90444000D01*
X111646771Y-90219800D01*
X110820198Y-90524739D01*
X110173240Y-91122781D01*
X109954706Y-91493267D01*
X100519296Y-91493267D01*
X100586079Y-85750000D01*
X109220614Y-85750000D01*
X109220614Y-88250000D01*
X109325207Y-88805867D01*
X109653724Y-89316396D01*
X110154983Y-89658892D01*
X110750000Y-89779386D01*
X115250000Y-89779386D01*
X115805867Y-89674793D01*
X116316396Y-89346276D01*
X116577799Y-88963701D01*
X116808581Y-89059530D01*
X117882707Y-89060468D01*
X118875429Y-88650283D01*
X119635614Y-87891424D01*
X120047530Y-86899419D01*
X120048468Y-85825293D01*
X119638283Y-84832571D01*
X119059847Y-84253125D01*
X119237415Y-84134478D01*
X119801024Y-83290977D01*
X119998937Y-82296000D01*
X119801024Y-81301023D01*
X119237415Y-80457522D01*
X118393914Y-79893913D01*
X117700578Y-79756000D01*
X125762000Y-79756000D01*
X125914241Y-80521367D01*
X126347786Y-81170214D01*
X126996633Y-81603759D01*
X127418614Y-81687696D01*
X127418614Y-83396000D01*
X127523207Y-83951867D01*
X127851724Y-84462396D01*
X128007196Y-84568625D01*
X127500629Y-85326755D01*
X127295104Y-86360000D01*
X127367598Y-86724451D01*
X126996633Y-86798241D01*
X126347786Y-87231786D01*
X125914241Y-87880633D01*
X125762000Y-88646000D01*
X125914241Y-89411367D01*
X126347786Y-90060214D01*
X126996633Y-90493759D01*
X127762000Y-90646000D01*
X132334000Y-90646000D01*
X133099367Y-90493759D01*
X133748214Y-90060214D01*
X134181759Y-89411367D01*
X134334000Y-88646000D01*
X134181759Y-87880633D01*
X133748214Y-87231786D01*
X133099367Y-86798241D01*
X132728402Y-86724451D01*
X132800896Y-86360000D01*
X132595371Y-85326755D01*
X132090892Y-84571749D01*
X132214396Y-84492276D01*
X132556892Y-83991017D01*
X132677386Y-83396000D01*
X132677386Y-81738220D01*
X133353367Y-81603759D01*
X134002214Y-81170214D01*
X134435759Y-80521367D01*
X134588000Y-79756000D01*
X134435759Y-78990633D01*
X134002214Y-78341786D01*
X133353367Y-77908241D01*
X132588000Y-77756000D01*
X127762000Y-77756000D01*
X126996633Y-77908241D01*
X126347786Y-78341786D01*
X125914241Y-78990633D01*
X125762000Y-79756000D01*
X117700578Y-79756000D01*
X117398937Y-79696000D01*
X117297063Y-79696000D01*
X116302086Y-79893913D01*
X115458585Y-80457522D01*
X114894976Y-81301023D01*
X114697063Y-82296000D01*
X114894976Y-83290977D01*
X115458585Y-84134478D01*
X115636566Y-84253401D01*
X115598678Y-84291223D01*
X115250000Y-84220614D01*
X110750000Y-84220614D01*
X110194133Y-84325207D01*
X109683604Y-84653724D01*
X109341108Y-85154983D01*
X109220614Y-85750000D01*
X100586079Y-85750000D01*
X100677359Y-77900000D01*
X109176533Y-77900000D01*
X109385864Y-78952379D01*
X109981989Y-79844544D01*
X110874154Y-80440669D01*
X111926533Y-80650000D01*
X114073467Y-80650000D01*
X115125846Y-80440669D01*
X116018011Y-79844544D01*
X116614136Y-78952379D01*
X116823467Y-77900000D01*
X116614136Y-76847621D01*
X116018011Y-75955456D01*
X115125846Y-75359331D01*
X114073467Y-75150000D01*
X111926533Y-75150000D01*
X110874154Y-75359331D01*
X109981989Y-75955456D01*
X109385864Y-76847621D01*
X109176533Y-77900000D01*
X100677359Y-77900000D01*
X100729606Y-73406733D01*
X109954706Y-73406733D01*
X110173240Y-73777219D01*
X110820198Y-74375261D01*
X111646771Y-74680200D01*
X112000000Y-74456000D01*
X112000000Y-73075000D01*
X114000000Y-73075000D01*
X114000000Y-74456000D01*
X114353229Y-74680200D01*
X114364613Y-74676000D01*
X125762000Y-74676000D01*
X125914241Y-75441367D01*
X126347786Y-76090214D01*
X126996633Y-76523759D01*
X127762000Y-76676000D01*
X132588000Y-76676000D01*
X133353367Y-76523759D01*
X134002214Y-76090214D01*
X134435759Y-75441367D01*
X134588000Y-74676000D01*
X134435759Y-73910633D01*
X134002214Y-73261786D01*
X133353367Y-72828241D01*
X132588000Y-72676000D01*
X127762000Y-72676000D01*
X126996633Y-72828241D01*
X126347786Y-73261786D01*
X125914241Y-73910633D01*
X125762000Y-74676000D01*
X114364613Y-74676000D01*
X115179802Y-74375261D01*
X115826760Y-73777219D01*
X116045294Y-73406733D01*
X115906151Y-73075000D01*
X114000000Y-73075000D01*
X112000000Y-73075000D01*
X110093849Y-73075000D01*
X109954706Y-73406733D01*
X100729606Y-73406733D01*
X100751855Y-71493267D01*
X109954706Y-71493267D01*
X110093849Y-71825000D01*
X112000000Y-71825000D01*
X112000000Y-70444000D01*
X114000000Y-70444000D01*
X114000000Y-71825000D01*
X115906151Y-71825000D01*
X116045294Y-71493267D01*
X115826760Y-71122781D01*
X115179802Y-70524739D01*
X114353229Y-70219800D01*
X114000000Y-70444000D01*
X112000000Y-70444000D01*
X111646771Y-70219800D01*
X110820198Y-70524739D01*
X110173240Y-71122781D01*
X109954706Y-71493267D01*
X100751855Y-71493267D01*
X100818638Y-65750000D01*
X109220614Y-65750000D01*
X109220614Y-68250000D01*
X109325207Y-68805867D01*
X109653724Y-69316396D01*
X110154983Y-69658892D01*
X110750000Y-69779386D01*
X115250000Y-69779386D01*
X115805867Y-69674793D01*
X116013954Y-69540893D01*
X116070576Y-69597614D01*
X117062581Y-70009530D01*
X118136707Y-70010468D01*
X118525068Y-69850000D01*
X125762000Y-69850000D01*
X125914241Y-70615367D01*
X126347786Y-71264214D01*
X126996633Y-71697759D01*
X127762000Y-71850000D01*
X132334000Y-71850000D01*
X133099367Y-71697759D01*
X133748214Y-71264214D01*
X134181759Y-70615367D01*
X134334000Y-69850000D01*
X134181759Y-69084633D01*
X133748214Y-68435786D01*
X133099367Y-68002241D01*
X132924134Y-67967385D01*
X133054896Y-67310000D01*
X132849371Y-66276755D01*
X132264084Y-65400812D01*
X132202281Y-65359517D01*
X132468396Y-65188276D01*
X132810892Y-64687017D01*
X132931386Y-64092000D01*
X132931386Y-61892000D01*
X132826793Y-61336133D01*
X132498276Y-60825604D01*
X132053234Y-60521519D01*
X136207519Y-60521519D01*
X136420656Y-61593033D01*
X137027620Y-62501418D01*
X137105196Y-62578994D01*
X138013581Y-63185958D01*
X139085095Y-63399095D01*
X140156609Y-63185958D01*
X141064994Y-62578994D01*
X141671958Y-61670609D01*
X141885095Y-60599095D01*
X141671958Y-59527581D01*
X141064994Y-58619196D01*
X140987418Y-58541620D01*
X140079033Y-57934656D01*
X139007519Y-57721519D01*
X137936005Y-57934656D01*
X137027620Y-58541620D01*
X136420656Y-59450005D01*
X136207519Y-60521519D01*
X132053234Y-60521519D01*
X131997017Y-60483108D01*
X131402000Y-60362614D01*
X129202000Y-60362614D01*
X128646133Y-60467207D01*
X128135604Y-60795724D01*
X127793108Y-61296983D01*
X127672614Y-61892000D01*
X127672614Y-64092000D01*
X127777207Y-64647867D01*
X128105724Y-65158396D01*
X128400887Y-65360072D01*
X128339916Y-65400812D01*
X127754629Y-66276755D01*
X127549104Y-67310000D01*
X127660531Y-67870183D01*
X126996633Y-68002241D01*
X126347786Y-68435786D01*
X125914241Y-69084633D01*
X125762000Y-69850000D01*
X118525068Y-69850000D01*
X119129429Y-69600283D01*
X119889614Y-68841424D01*
X120301530Y-67849419D01*
X120302468Y-66775293D01*
X119892283Y-65782571D01*
X119161745Y-65050756D01*
X119491415Y-64830478D01*
X120055024Y-63986977D01*
X120252937Y-62992000D01*
X120055024Y-61997023D01*
X119491415Y-61153522D01*
X118647914Y-60589913D01*
X117652937Y-60392000D01*
X117551063Y-60392000D01*
X116556086Y-60589913D01*
X115712585Y-61153522D01*
X115148976Y-61997023D01*
X114951063Y-62992000D01*
X115148976Y-63986977D01*
X115313707Y-64233515D01*
X115250000Y-64220614D01*
X110750000Y-64220614D01*
X110194133Y-64325207D01*
X109683604Y-64653724D01*
X109341108Y-65154983D01*
X109220614Y-65750000D01*
X100818638Y-65750000D01*
X100829966Y-64775814D01*
X100804342Y-64611886D01*
X98772342Y-58515886D01*
X98673455Y-58343798D01*
X98515407Y-58223740D01*
X98306332Y-58174069D01*
X91135797Y-58054560D01*
X91777594Y-57377808D01*
X98722406Y-57377808D01*
X99364719Y-58055104D01*
X101669536Y-58687992D01*
X104041105Y-58390690D01*
X104851281Y-58055104D01*
X105493594Y-57377808D01*
X102108000Y-53992214D01*
X98722406Y-57377808D01*
X91777594Y-57377808D01*
X88392000Y-53992214D01*
X85006406Y-57377808D01*
X85560075Y-57961632D01*
X83450004Y-57926464D01*
X82621823Y-54613741D01*
X82914896Y-55321281D01*
X83592192Y-55963594D01*
X86977786Y-52578000D01*
X89806214Y-52578000D01*
X93191808Y-55963594D01*
X93869104Y-55321281D01*
X94501992Y-53016464D01*
X94392060Y-52139536D01*
X95998008Y-52139536D01*
X96295310Y-54511105D01*
X96630896Y-55321281D01*
X97308192Y-55963594D01*
X100693786Y-52578000D01*
X103522214Y-52578000D01*
X106907808Y-55963594D01*
X107585104Y-55321281D01*
X108217992Y-53016464D01*
X108052637Y-51697431D01*
X127275808Y-51697431D01*
X127275808Y-52053813D01*
X127699014Y-52477019D01*
X128069496Y-52630477D01*
X128470504Y-52630477D01*
X128840987Y-52477018D01*
X129264192Y-52053813D01*
X129264192Y-51697431D01*
X128270000Y-50703239D01*
X127275808Y-51697431D01*
X108052637Y-51697431D01*
X107920690Y-50644895D01*
X107585104Y-49834719D01*
X107320199Y-49583496D01*
X125423523Y-49583496D01*
X125423523Y-49984504D01*
X125576981Y-50354986D01*
X126000187Y-50778192D01*
X126356569Y-50778192D01*
X127350761Y-49784000D01*
X129189239Y-49784000D01*
X130183431Y-50778192D01*
X130539813Y-50778192D01*
X130963018Y-50354987D01*
X131116477Y-49984504D01*
X131116477Y-49583496D01*
X130963019Y-49213014D01*
X130539813Y-48789808D01*
X130183431Y-48789808D01*
X129189239Y-49784000D01*
X127350761Y-49784000D01*
X126356569Y-48789808D01*
X126000187Y-48789808D01*
X125576982Y-49213013D01*
X125423523Y-49583496D01*
X107320199Y-49583496D01*
X106907808Y-49192406D01*
X103522214Y-52578000D01*
X100693786Y-52578000D01*
X97308192Y-49192406D01*
X96630896Y-49834719D01*
X95998008Y-52139536D01*
X94392060Y-52139536D01*
X94204690Y-50644895D01*
X93869104Y-49834719D01*
X93191808Y-49192406D01*
X89806214Y-52578000D01*
X86977786Y-52578000D01*
X83592192Y-49192406D01*
X82914896Y-49834719D01*
X82282008Y-52139536D01*
X82562358Y-54375881D01*
X80792138Y-47295000D01*
X85464641Y-47295000D01*
X85006406Y-47778192D01*
X85006406Y-47778192D01*
G37*
X85006406Y-47778192D02*
X88392000Y-51163786D01*
X91777594Y-47778192D01*
X91319359Y-47295000D01*
X99180641Y-47295000D01*
X98722406Y-47778192D01*
X102108000Y-51163786D01*
X105493594Y-47778192D01*
X105035359Y-47295000D01*
X127494995Y-47295000D01*
X127275808Y-47514187D01*
X127275808Y-47870569D01*
X128270000Y-48864761D01*
X129264192Y-47870569D01*
X129264192Y-47514187D01*
X129045005Y-47295000D01*
X135293629Y-47295000D01*
X134882916Y-54071752D01*
X134910469Y-54268307D01*
X135012321Y-54438657D01*
X135172425Y-54555959D01*
X135350811Y-54601026D01*
X142443000Y-55044288D01*
X142443000Y-133126391D01*
X134098116Y-133358193D01*
X133904757Y-133402972D01*
X133744054Y-133519451D01*
X133641328Y-133689275D01*
X133612814Y-133829475D01*
X133131454Y-142253278D01*
X111244000Y-142499205D01*
X111244000Y-140514236D01*
X111926533Y-140650000D01*
X114073467Y-140650000D01*
X115125846Y-140440669D01*
X116018011Y-139844544D01*
X116614136Y-138952379D01*
X116823467Y-137900000D01*
X116614136Y-136847621D01*
X116018011Y-135955456D01*
X115125846Y-135359331D01*
X114073467Y-135150000D01*
X111926533Y-135150000D01*
X111244000Y-135285764D01*
X111244000Y-134531610D01*
X111646771Y-134680200D01*
X112000000Y-134456000D01*
X112000000Y-133075000D01*
X114000000Y-133075000D01*
X114000000Y-134456000D01*
X114353229Y-134680200D01*
X115179802Y-134375261D01*
X115826760Y-133777219D01*
X116045294Y-133406733D01*
X115906151Y-133075000D01*
X114000000Y-133075000D01*
X112000000Y-133075000D01*
X111980000Y-133075000D01*
X111980000Y-131825000D01*
X112000000Y-131825000D01*
X112000000Y-130444000D01*
X114000000Y-130444000D01*
X114000000Y-131825000D01*
X115906151Y-131825000D01*
X116045294Y-131493267D01*
X115826760Y-131122781D01*
X115179802Y-130524739D01*
X114353229Y-130219800D01*
X114000000Y-130444000D01*
X112000000Y-130444000D01*
X111646771Y-130219800D01*
X111244000Y-130368390D01*
X111244000Y-130302000D01*
X111204607Y-130107472D01*
X111092635Y-129943596D01*
X110925729Y-129836195D01*
X110744000Y-129802000D01*
X100073848Y-129802000D01*
X100120964Y-125750000D01*
X109220614Y-125750000D01*
X109220614Y-128250000D01*
X109325207Y-128805867D01*
X109653724Y-129316396D01*
X110154983Y-129658892D01*
X110750000Y-129779386D01*
X115250000Y-129779386D01*
X115805867Y-129674793D01*
X116316396Y-129346276D01*
X116372346Y-129264390D01*
X116808581Y-129445530D01*
X117882707Y-129446468D01*
X118875429Y-129036283D01*
X119635614Y-128277424D01*
X120047530Y-127285419D01*
X120048468Y-126211293D01*
X119638283Y-125218571D01*
X119059847Y-124639125D01*
X119237415Y-124520478D01*
X119801024Y-123676977D01*
X119998937Y-122682000D01*
X119801024Y-121687023D01*
X119237415Y-120843522D01*
X118567651Y-120396000D01*
X125762000Y-120396000D01*
X125914241Y-121161367D01*
X126347786Y-121810214D01*
X126996633Y-122243759D01*
X127418614Y-122327696D01*
X127418614Y-123782000D01*
X127523207Y-124337867D01*
X127851724Y-124848396D01*
X128007196Y-124954625D01*
X127500629Y-125712755D01*
X127295104Y-126746000D01*
X127500629Y-127779245D01*
X128085916Y-128655188D01*
X128961859Y-129240475D01*
X129995104Y-129446000D01*
X130100896Y-129446000D01*
X131134141Y-129240475D01*
X132010084Y-128655188D01*
X132595371Y-127779245D01*
X132800896Y-126746000D01*
X132595371Y-125712755D01*
X132090892Y-124957749D01*
X132214396Y-124878276D01*
X132556892Y-124377017D01*
X132677386Y-123782000D01*
X132677386Y-122378220D01*
X133353367Y-122243759D01*
X134002214Y-121810214D01*
X134435759Y-121161367D01*
X134588000Y-120396000D01*
X134435759Y-119630633D01*
X134401356Y-119579145D01*
X136138000Y-119579145D01*
X136138000Y-119688855D01*
X136351137Y-120760369D01*
X136958101Y-121668754D01*
X137866486Y-122275718D01*
X138938000Y-122488855D01*
X140009514Y-122275718D01*
X140917899Y-121668754D01*
X141524863Y-120760369D01*
X141738000Y-119688855D01*
X141738000Y-119579145D01*
X141524863Y-118507631D01*
X140917899Y-117599246D01*
X140009514Y-116992282D01*
X138938000Y-116779145D01*
X137866486Y-116992282D01*
X136958101Y-117599246D01*
X136351137Y-118507631D01*
X136138000Y-119579145D01*
X134401356Y-119579145D01*
X134002214Y-118981786D01*
X133353367Y-118548241D01*
X132588000Y-118396000D01*
X127762000Y-118396000D01*
X126996633Y-118548241D01*
X126347786Y-118981786D01*
X125914241Y-119630633D01*
X125762000Y-120396000D01*
X118567651Y-120396000D01*
X118393914Y-120279913D01*
X117398937Y-120082000D01*
X117297063Y-120082000D01*
X116302086Y-120279913D01*
X115458585Y-120843522D01*
X114894976Y-121687023D01*
X114697063Y-122682000D01*
X114894976Y-123676977D01*
X115259509Y-124222540D01*
X115250000Y-124220614D01*
X110750000Y-124220614D01*
X110194133Y-124325207D01*
X109683604Y-124653724D01*
X109341108Y-125154983D01*
X109220614Y-125750000D01*
X100120964Y-125750000D01*
X100212243Y-117900000D01*
X109176533Y-117900000D01*
X109385864Y-118952379D01*
X109981989Y-119844544D01*
X110874154Y-120440669D01*
X111926533Y-120650000D01*
X114073467Y-120650000D01*
X115125846Y-120440669D01*
X116018011Y-119844544D01*
X116614136Y-118952379D01*
X116823467Y-117900000D01*
X116614136Y-116847621D01*
X116018011Y-115955456D01*
X115125846Y-115359331D01*
X114073467Y-115150000D01*
X111926533Y-115150000D01*
X110874154Y-115359331D01*
X109981989Y-115955456D01*
X109385864Y-116847621D01*
X109176533Y-117900000D01*
X100212243Y-117900000D01*
X100264489Y-113406733D01*
X109954706Y-113406733D01*
X110173240Y-113777219D01*
X110820198Y-114375261D01*
X111646771Y-114680200D01*
X112000000Y-114456000D01*
X112000000Y-113075000D01*
X114000000Y-113075000D01*
X114000000Y-114456000D01*
X114353229Y-114680200D01*
X114695308Y-114554000D01*
X126016000Y-114554000D01*
X126168241Y-115319367D01*
X126601786Y-115968214D01*
X127250633Y-116401759D01*
X128016000Y-116554000D01*
X132588000Y-116554000D01*
X133353367Y-116401759D01*
X134002214Y-115968214D01*
X134435759Y-115319367D01*
X134588000Y-114554000D01*
X134435759Y-113788633D01*
X134002214Y-113139786D01*
X133353367Y-112706241D01*
X132588000Y-112554000D01*
X128016000Y-112554000D01*
X127250633Y-112706241D01*
X126601786Y-113139786D01*
X126168241Y-113788633D01*
X126016000Y-114554000D01*
X114695308Y-114554000D01*
X115179802Y-114375261D01*
X115826760Y-113777219D01*
X116045294Y-113406733D01*
X115906151Y-113075000D01*
X114000000Y-113075000D01*
X112000000Y-113075000D01*
X110093849Y-113075000D01*
X109954706Y-113406733D01*
X100264489Y-113406733D01*
X100286738Y-111493267D01*
X109954706Y-111493267D01*
X110093849Y-111825000D01*
X112000000Y-111825000D01*
X112000000Y-110444000D01*
X114000000Y-110444000D01*
X114000000Y-111825000D01*
X115906151Y-111825000D01*
X116045294Y-111493267D01*
X115826760Y-111122781D01*
X115179802Y-110524739D01*
X114353229Y-110219800D01*
X114000000Y-110444000D01*
X112000000Y-110444000D01*
X111646771Y-110219800D01*
X110820198Y-110524739D01*
X110173240Y-111122781D01*
X109954706Y-111493267D01*
X100286738Y-111493267D01*
X100353521Y-105750000D01*
X109220614Y-105750000D01*
X109220614Y-108250000D01*
X109325207Y-108805867D01*
X109653724Y-109316396D01*
X110154983Y-109658892D01*
X110750000Y-109779386D01*
X115250000Y-109779386D01*
X115805867Y-109674793D01*
X116316396Y-109346276D01*
X116328419Y-109328680D01*
X117062581Y-109633530D01*
X118136707Y-109634468D01*
X119129429Y-109224283D01*
X119889614Y-108465424D01*
X120301530Y-107473419D01*
X120302468Y-106399293D01*
X119892283Y-105406571D01*
X119313847Y-104827125D01*
X119491415Y-104708478D01*
X120055024Y-103864977D01*
X120252937Y-102870000D01*
X120055024Y-101875023D01*
X119491415Y-101031522D01*
X118647914Y-100467913D01*
X117652937Y-100270000D01*
X117551063Y-100270000D01*
X116556086Y-100467913D01*
X115712585Y-101031522D01*
X115148976Y-101875023D01*
X114951063Y-102870000D01*
X115148976Y-103864977D01*
X115407981Y-104252606D01*
X115250000Y-104220614D01*
X110750000Y-104220614D01*
X110194133Y-104325207D01*
X109683604Y-104653724D01*
X109341108Y-105154983D01*
X109220614Y-105750000D01*
X100353521Y-105750000D01*
X100444801Y-97900000D01*
X109176533Y-97900000D01*
X109385864Y-98952379D01*
X109981989Y-99844544D01*
X110874154Y-100440669D01*
X111926533Y-100650000D01*
X114073467Y-100650000D01*
X115125846Y-100440669D01*
X116018011Y-99844544D01*
X116033074Y-99822000D01*
X125508000Y-99822000D01*
X125660241Y-100587367D01*
X126093786Y-101236214D01*
X126742633Y-101669759D01*
X127508000Y-101822000D01*
X127672614Y-101822000D01*
X127672614Y-103970000D01*
X127777207Y-104525867D01*
X128105724Y-105036396D01*
X128261196Y-105142625D01*
X127754629Y-105900755D01*
X127549104Y-106934000D01*
X127621598Y-107298451D01*
X127250633Y-107372241D01*
X126601786Y-107805786D01*
X126168241Y-108454633D01*
X126016000Y-109220000D01*
X126168241Y-109985367D01*
X126601786Y-110634214D01*
X127250633Y-111067759D01*
X128016000Y-111220000D01*
X132588000Y-111220000D01*
X133353367Y-111067759D01*
X134002214Y-110634214D01*
X134435759Y-109985367D01*
X134588000Y-109220000D01*
X134435759Y-108454633D01*
X134002214Y-107805786D01*
X133353367Y-107372241D01*
X132982402Y-107298451D01*
X133054896Y-106934000D01*
X132849371Y-105900755D01*
X132344892Y-105145749D01*
X132468396Y-105066276D01*
X132810892Y-104565017D01*
X132931386Y-103970000D01*
X132931386Y-101770000D01*
X132905024Y-101629898D01*
X133096000Y-101502292D01*
X133346633Y-101669759D01*
X134112000Y-101822001D01*
X134877367Y-101669759D01*
X135526214Y-101236214D01*
X136162614Y-100599814D01*
X136162614Y-101576000D01*
X136267207Y-102131867D01*
X136370388Y-102292214D01*
X136229108Y-102498983D01*
X136108614Y-103094000D01*
X136108614Y-105694000D01*
X136213207Y-106249867D01*
X136541724Y-106760396D01*
X137042983Y-107102892D01*
X137638000Y-107223386D01*
X140238000Y-107223386D01*
X140793867Y-107118793D01*
X141304396Y-106790276D01*
X141646892Y-106289017D01*
X141767386Y-105694000D01*
X141767386Y-103094000D01*
X141695633Y-102712663D01*
X141758396Y-102672276D01*
X142100892Y-102171017D01*
X142221386Y-101576000D01*
X142221386Y-98576000D01*
X142116793Y-98020133D01*
X141788276Y-97509604D01*
X141287017Y-97167108D01*
X141267422Y-97163140D01*
X141733793Y-96697582D01*
X142191478Y-95595355D01*
X142192519Y-94401881D01*
X141736759Y-93298857D01*
X140893582Y-92454207D01*
X139791355Y-91996522D01*
X138597881Y-91995481D01*
X137494857Y-92451241D01*
X136650207Y-93294418D01*
X136192522Y-94396645D01*
X136191847Y-95170054D01*
X136140633Y-95180241D01*
X135491787Y-95613786D01*
X133016790Y-98088782D01*
X132845367Y-97974241D01*
X132080000Y-97822000D01*
X127508000Y-97822000D01*
X126742633Y-97974241D01*
X126093786Y-98407786D01*
X125660241Y-99056633D01*
X125508000Y-99822000D01*
X116033074Y-99822000D01*
X116614136Y-98952379D01*
X116823467Y-97900000D01*
X116614136Y-96847621D01*
X116018011Y-95955456D01*
X115125846Y-95359331D01*
X114073467Y-95150000D01*
X111926533Y-95150000D01*
X110874154Y-95359331D01*
X109981989Y-95955456D01*
X109385864Y-96847621D01*
X109176533Y-97900000D01*
X100444801Y-97900000D01*
X100497047Y-93406733D01*
X109954706Y-93406733D01*
X110173240Y-93777219D01*
X110820198Y-94375261D01*
X111646771Y-94680200D01*
X112000000Y-94456000D01*
X112000000Y-93075000D01*
X114000000Y-93075000D01*
X114000000Y-94456000D01*
X114353229Y-94680200D01*
X115179802Y-94375261D01*
X115332617Y-94234000D01*
X125762000Y-94234000D01*
X125914241Y-94999367D01*
X126347786Y-95648214D01*
X126996633Y-96081759D01*
X127762000Y-96234000D01*
X132334000Y-96234000D01*
X133099367Y-96081759D01*
X133748214Y-95648214D01*
X134181759Y-94999367D01*
X134334000Y-94234000D01*
X134181759Y-93468633D01*
X133748214Y-92819786D01*
X133099367Y-92386241D01*
X132334000Y-92234000D01*
X127762000Y-92234000D01*
X126996633Y-92386241D01*
X126347786Y-92819786D01*
X125914241Y-93468633D01*
X125762000Y-94234000D01*
X115332617Y-94234000D01*
X115826760Y-93777219D01*
X116045294Y-93406733D01*
X115906151Y-93075000D01*
X114000000Y-93075000D01*
X112000000Y-93075000D01*
X110093849Y-93075000D01*
X109954706Y-93406733D01*
X100497047Y-93406733D01*
X100519296Y-91493267D01*
X109954706Y-91493267D01*
X110093849Y-91825000D01*
X112000000Y-91825000D01*
X112000000Y-90444000D01*
X114000000Y-90444000D01*
X114000000Y-91825000D01*
X115906151Y-91825000D01*
X116045294Y-91493267D01*
X115826760Y-91122781D01*
X115179802Y-90524739D01*
X114353229Y-90219800D01*
X114000000Y-90444000D01*
X112000000Y-90444000D01*
X111646771Y-90219800D01*
X110820198Y-90524739D01*
X110173240Y-91122781D01*
X109954706Y-91493267D01*
X100519296Y-91493267D01*
X100586079Y-85750000D01*
X109220614Y-85750000D01*
X109220614Y-88250000D01*
X109325207Y-88805867D01*
X109653724Y-89316396D01*
X110154983Y-89658892D01*
X110750000Y-89779386D01*
X115250000Y-89779386D01*
X115805867Y-89674793D01*
X116316396Y-89346276D01*
X116577799Y-88963701D01*
X116808581Y-89059530D01*
X117882707Y-89060468D01*
X118875429Y-88650283D01*
X119635614Y-87891424D01*
X120047530Y-86899419D01*
X120048468Y-85825293D01*
X119638283Y-84832571D01*
X119059847Y-84253125D01*
X119237415Y-84134478D01*
X119801024Y-83290977D01*
X119998937Y-82296000D01*
X119801024Y-81301023D01*
X119237415Y-80457522D01*
X118393914Y-79893913D01*
X117700578Y-79756000D01*
X125762000Y-79756000D01*
X125914241Y-80521367D01*
X126347786Y-81170214D01*
X126996633Y-81603759D01*
X127418614Y-81687696D01*
X127418614Y-83396000D01*
X127523207Y-83951867D01*
X127851724Y-84462396D01*
X128007196Y-84568625D01*
X127500629Y-85326755D01*
X127295104Y-86360000D01*
X127367598Y-86724451D01*
X126996633Y-86798241D01*
X126347786Y-87231786D01*
X125914241Y-87880633D01*
X125762000Y-88646000D01*
X125914241Y-89411367D01*
X126347786Y-90060214D01*
X126996633Y-90493759D01*
X127762000Y-90646000D01*
X132334000Y-90646000D01*
X133099367Y-90493759D01*
X133748214Y-90060214D01*
X134181759Y-89411367D01*
X134334000Y-88646000D01*
X134181759Y-87880633D01*
X133748214Y-87231786D01*
X133099367Y-86798241D01*
X132728402Y-86724451D01*
X132800896Y-86360000D01*
X132595371Y-85326755D01*
X132090892Y-84571749D01*
X132214396Y-84492276D01*
X132556892Y-83991017D01*
X132677386Y-83396000D01*
X132677386Y-81738220D01*
X133353367Y-81603759D01*
X134002214Y-81170214D01*
X134435759Y-80521367D01*
X134588000Y-79756000D01*
X134435759Y-78990633D01*
X134002214Y-78341786D01*
X133353367Y-77908241D01*
X132588000Y-77756000D01*
X127762000Y-77756000D01*
X126996633Y-77908241D01*
X126347786Y-78341786D01*
X125914241Y-78990633D01*
X125762000Y-79756000D01*
X117700578Y-79756000D01*
X117398937Y-79696000D01*
X117297063Y-79696000D01*
X116302086Y-79893913D01*
X115458585Y-80457522D01*
X114894976Y-81301023D01*
X114697063Y-82296000D01*
X114894976Y-83290977D01*
X115458585Y-84134478D01*
X115636566Y-84253401D01*
X115598678Y-84291223D01*
X115250000Y-84220614D01*
X110750000Y-84220614D01*
X110194133Y-84325207D01*
X109683604Y-84653724D01*
X109341108Y-85154983D01*
X109220614Y-85750000D01*
X100586079Y-85750000D01*
X100677359Y-77900000D01*
X109176533Y-77900000D01*
X109385864Y-78952379D01*
X109981989Y-79844544D01*
X110874154Y-80440669D01*
X111926533Y-80650000D01*
X114073467Y-80650000D01*
X115125846Y-80440669D01*
X116018011Y-79844544D01*
X116614136Y-78952379D01*
X116823467Y-77900000D01*
X116614136Y-76847621D01*
X116018011Y-75955456D01*
X115125846Y-75359331D01*
X114073467Y-75150000D01*
X111926533Y-75150000D01*
X110874154Y-75359331D01*
X109981989Y-75955456D01*
X109385864Y-76847621D01*
X109176533Y-77900000D01*
X100677359Y-77900000D01*
X100729606Y-73406733D01*
X109954706Y-73406733D01*
X110173240Y-73777219D01*
X110820198Y-74375261D01*
X111646771Y-74680200D01*
X112000000Y-74456000D01*
X112000000Y-73075000D01*
X114000000Y-73075000D01*
X114000000Y-74456000D01*
X114353229Y-74680200D01*
X114364613Y-74676000D01*
X125762000Y-74676000D01*
X125914241Y-75441367D01*
X126347786Y-76090214D01*
X126996633Y-76523759D01*
X127762000Y-76676000D01*
X132588000Y-76676000D01*
X133353367Y-76523759D01*
X134002214Y-76090214D01*
X134435759Y-75441367D01*
X134588000Y-74676000D01*
X134435759Y-73910633D01*
X134002214Y-73261786D01*
X133353367Y-72828241D01*
X132588000Y-72676000D01*
X127762000Y-72676000D01*
X126996633Y-72828241D01*
X126347786Y-73261786D01*
X125914241Y-73910633D01*
X125762000Y-74676000D01*
X114364613Y-74676000D01*
X115179802Y-74375261D01*
X115826760Y-73777219D01*
X116045294Y-73406733D01*
X115906151Y-73075000D01*
X114000000Y-73075000D01*
X112000000Y-73075000D01*
X110093849Y-73075000D01*
X109954706Y-73406733D01*
X100729606Y-73406733D01*
X100751855Y-71493267D01*
X109954706Y-71493267D01*
X110093849Y-71825000D01*
X112000000Y-71825000D01*
X112000000Y-70444000D01*
X114000000Y-70444000D01*
X114000000Y-71825000D01*
X115906151Y-71825000D01*
X116045294Y-71493267D01*
X115826760Y-71122781D01*
X115179802Y-70524739D01*
X114353229Y-70219800D01*
X114000000Y-70444000D01*
X112000000Y-70444000D01*
X111646771Y-70219800D01*
X110820198Y-70524739D01*
X110173240Y-71122781D01*
X109954706Y-71493267D01*
X100751855Y-71493267D01*
X100818638Y-65750000D01*
X109220614Y-65750000D01*
X109220614Y-68250000D01*
X109325207Y-68805867D01*
X109653724Y-69316396D01*
X110154983Y-69658892D01*
X110750000Y-69779386D01*
X115250000Y-69779386D01*
X115805867Y-69674793D01*
X116013954Y-69540893D01*
X116070576Y-69597614D01*
X117062581Y-70009530D01*
X118136707Y-70010468D01*
X118525068Y-69850000D01*
X125762000Y-69850000D01*
X125914241Y-70615367D01*
X126347786Y-71264214D01*
X126996633Y-71697759D01*
X127762000Y-71850000D01*
X132334000Y-71850000D01*
X133099367Y-71697759D01*
X133748214Y-71264214D01*
X134181759Y-70615367D01*
X134334000Y-69850000D01*
X134181759Y-69084633D01*
X133748214Y-68435786D01*
X133099367Y-68002241D01*
X132924134Y-67967385D01*
X133054896Y-67310000D01*
X132849371Y-66276755D01*
X132264084Y-65400812D01*
X132202281Y-65359517D01*
X132468396Y-65188276D01*
X132810892Y-64687017D01*
X132931386Y-64092000D01*
X132931386Y-61892000D01*
X132826793Y-61336133D01*
X132498276Y-60825604D01*
X132053234Y-60521519D01*
X136207519Y-60521519D01*
X136420656Y-61593033D01*
X137027620Y-62501418D01*
X137105196Y-62578994D01*
X138013581Y-63185958D01*
X139085095Y-63399095D01*
X140156609Y-63185958D01*
X141064994Y-62578994D01*
X141671958Y-61670609D01*
X141885095Y-60599095D01*
X141671958Y-59527581D01*
X141064994Y-58619196D01*
X140987418Y-58541620D01*
X140079033Y-57934656D01*
X139007519Y-57721519D01*
X137936005Y-57934656D01*
X137027620Y-58541620D01*
X136420656Y-59450005D01*
X136207519Y-60521519D01*
X132053234Y-60521519D01*
X131997017Y-60483108D01*
X131402000Y-60362614D01*
X129202000Y-60362614D01*
X128646133Y-60467207D01*
X128135604Y-60795724D01*
X127793108Y-61296983D01*
X127672614Y-61892000D01*
X127672614Y-64092000D01*
X127777207Y-64647867D01*
X128105724Y-65158396D01*
X128400887Y-65360072D01*
X128339916Y-65400812D01*
X127754629Y-66276755D01*
X127549104Y-67310000D01*
X127660531Y-67870183D01*
X126996633Y-68002241D01*
X126347786Y-68435786D01*
X125914241Y-69084633D01*
X125762000Y-69850000D01*
X118525068Y-69850000D01*
X119129429Y-69600283D01*
X119889614Y-68841424D01*
X120301530Y-67849419D01*
X120302468Y-66775293D01*
X119892283Y-65782571D01*
X119161745Y-65050756D01*
X119491415Y-64830478D01*
X120055024Y-63986977D01*
X120252937Y-62992000D01*
X120055024Y-61997023D01*
X119491415Y-61153522D01*
X118647914Y-60589913D01*
X117652937Y-60392000D01*
X117551063Y-60392000D01*
X116556086Y-60589913D01*
X115712585Y-61153522D01*
X115148976Y-61997023D01*
X114951063Y-62992000D01*
X115148976Y-63986977D01*
X115313707Y-64233515D01*
X115250000Y-64220614D01*
X110750000Y-64220614D01*
X110194133Y-64325207D01*
X109683604Y-64653724D01*
X109341108Y-65154983D01*
X109220614Y-65750000D01*
X100818638Y-65750000D01*
X100829966Y-64775814D01*
X100804342Y-64611886D01*
X98772342Y-58515886D01*
X98673455Y-58343798D01*
X98515407Y-58223740D01*
X98306332Y-58174069D01*
X91135797Y-58054560D01*
X91777594Y-57377808D01*
X98722406Y-57377808D01*
X99364719Y-58055104D01*
X101669536Y-58687992D01*
X104041105Y-58390690D01*
X104851281Y-58055104D01*
X105493594Y-57377808D01*
X102108000Y-53992214D01*
X98722406Y-57377808D01*
X91777594Y-57377808D01*
X88392000Y-53992214D01*
X85006406Y-57377808D01*
X85560075Y-57961632D01*
X83450004Y-57926464D01*
X82621823Y-54613741D01*
X82914896Y-55321281D01*
X83592192Y-55963594D01*
X86977786Y-52578000D01*
X89806214Y-52578000D01*
X93191808Y-55963594D01*
X93869104Y-55321281D01*
X94501992Y-53016464D01*
X94392060Y-52139536D01*
X95998008Y-52139536D01*
X96295310Y-54511105D01*
X96630896Y-55321281D01*
X97308192Y-55963594D01*
X100693786Y-52578000D01*
X103522214Y-52578000D01*
X106907808Y-55963594D01*
X107585104Y-55321281D01*
X108217992Y-53016464D01*
X108052637Y-51697431D01*
X127275808Y-51697431D01*
X127275808Y-52053813D01*
X127699014Y-52477019D01*
X128069496Y-52630477D01*
X128470504Y-52630477D01*
X128840987Y-52477018D01*
X129264192Y-52053813D01*
X129264192Y-51697431D01*
X128270000Y-50703239D01*
X127275808Y-51697431D01*
X108052637Y-51697431D01*
X107920690Y-50644895D01*
X107585104Y-49834719D01*
X107320199Y-49583496D01*
X125423523Y-49583496D01*
X125423523Y-49984504D01*
X125576981Y-50354986D01*
X126000187Y-50778192D01*
X126356569Y-50778192D01*
X127350761Y-49784000D01*
X129189239Y-49784000D01*
X130183431Y-50778192D01*
X130539813Y-50778192D01*
X130963018Y-50354987D01*
X131116477Y-49984504D01*
X131116477Y-49583496D01*
X130963019Y-49213014D01*
X130539813Y-48789808D01*
X130183431Y-48789808D01*
X129189239Y-49784000D01*
X127350761Y-49784000D01*
X126356569Y-48789808D01*
X126000187Y-48789808D01*
X125576982Y-49213013D01*
X125423523Y-49583496D01*
X107320199Y-49583496D01*
X106907808Y-49192406D01*
X103522214Y-52578000D01*
X100693786Y-52578000D01*
X97308192Y-49192406D01*
X96630896Y-49834719D01*
X95998008Y-52139536D01*
X94392060Y-52139536D01*
X94204690Y-50644895D01*
X93869104Y-49834719D01*
X93191808Y-49192406D01*
X89806214Y-52578000D01*
X86977786Y-52578000D01*
X83592192Y-49192406D01*
X82914896Y-49834719D01*
X82282008Y-52139536D01*
X82562358Y-54375881D01*
X80792138Y-47295000D01*
X85464641Y-47295000D01*
X85006406Y-47778192D01*
G36*
X79364846Y-56376936D02*
X79767655Y-57988174D01*
X79125846Y-57559331D01*
X78073467Y-57350000D01*
X75926533Y-57350000D01*
X74874154Y-57559331D01*
X73981989Y-58155456D01*
X73385864Y-59047621D01*
X73176533Y-60100000D01*
X73385864Y-61152379D01*
X73981989Y-62044544D01*
X74874154Y-62640669D01*
X75926533Y-62850000D01*
X78073467Y-62850000D01*
X79125846Y-62640669D01*
X80018011Y-62044544D01*
X80573799Y-61212748D01*
X81048929Y-63113268D01*
X81134325Y-63292434D01*
X81282700Y-63424259D01*
X81534000Y-63492000D01*
X90780612Y-63492000D01*
X93174468Y-65087904D01*
X92877839Y-65384015D01*
X92496435Y-66302538D01*
X92495567Y-67297099D01*
X92875367Y-68216286D01*
X93578015Y-68920161D01*
X94496538Y-69301565D01*
X95491099Y-69302433D01*
X95492147Y-69302000D01*
X97531170Y-69302000D01*
X97454147Y-72151841D01*
X97035424Y-71732386D01*
X96043419Y-71320470D01*
X94969293Y-71319532D01*
X93976571Y-71729717D01*
X93216386Y-72488576D01*
X92804470Y-73480581D01*
X92803532Y-74554707D01*
X93213717Y-75547429D01*
X93972576Y-76307614D01*
X94964581Y-76719530D01*
X96038707Y-76720468D01*
X97031429Y-76310283D01*
X97350361Y-75991907D01*
X97309331Y-77510000D01*
X95250000Y-77510000D01*
X94293291Y-77700301D01*
X93708759Y-78090873D01*
X93581714Y-78143367D01*
X93483571Y-78241339D01*
X93482233Y-78242233D01*
X93228916Y-78495550D01*
X92877839Y-78846015D01*
X92496435Y-79764538D01*
X92495567Y-80759099D01*
X92875367Y-81678286D01*
X93578015Y-82382161D01*
X94496538Y-82763565D01*
X95491099Y-82764433D01*
X96106874Y-82510000D01*
X97309352Y-82510000D01*
X97325915Y-86170381D01*
X97272450Y-86116916D01*
X96921985Y-85765839D01*
X96003462Y-85384435D01*
X95008901Y-85383567D01*
X94089714Y-85763367D01*
X93385839Y-86466015D01*
X93004435Y-87384538D01*
X93003567Y-88379099D01*
X93383367Y-89298286D01*
X94086015Y-90002161D01*
X94087062Y-90002596D01*
X97358056Y-93273590D01*
X97368730Y-95632560D01*
X97276787Y-95595741D01*
X96352528Y-96520000D01*
X97276787Y-97444259D01*
X97376747Y-97404230D01*
X97395538Y-101557129D01*
X97035424Y-101196386D01*
X96043419Y-100784470D01*
X94969293Y-100783532D01*
X93976571Y-101193717D01*
X93216386Y-101952576D01*
X92804470Y-102944581D01*
X92803532Y-104018707D01*
X93213717Y-105011429D01*
X93972576Y-105771614D01*
X94964581Y-106183530D01*
X96038707Y-106184468D01*
X97031429Y-105774283D01*
X97412897Y-105393480D01*
X97433515Y-109950000D01*
X94814000Y-109950000D01*
X94453302Y-110021747D01*
X94246901Y-110021567D01*
X94054461Y-110101081D01*
X93857291Y-110140301D01*
X93691599Y-110251013D01*
X93327714Y-110401367D01*
X93046610Y-110681981D01*
X93046233Y-110682233D01*
X92974916Y-110753550D01*
X92623839Y-111104015D01*
X92242435Y-112022538D01*
X92241567Y-113017099D01*
X92621367Y-113936286D01*
X93324015Y-114640161D01*
X94242538Y-115021565D01*
X95237099Y-115022433D01*
X95412400Y-114950000D01*
X97456139Y-114950000D01*
X97468320Y-117642000D01*
X94997036Y-117642000D01*
X94500901Y-117641567D01*
X93581714Y-118021367D01*
X92877839Y-118724015D01*
X92496435Y-119642538D01*
X92495567Y-120637099D01*
X92875367Y-121556286D01*
X93578015Y-122260161D01*
X94496538Y-122641565D01*
X95491099Y-122642433D01*
X95492147Y-122642000D01*
X97490945Y-122642000D01*
X97502293Y-125150045D01*
X97276787Y-125059741D01*
X96352528Y-125984000D01*
X97276787Y-126908259D01*
X97509827Y-126814938D01*
X97538026Y-133046957D01*
X96717552Y-133866000D01*
X93726000Y-133866000D01*
X93531472Y-133905393D01*
X93367596Y-134017365D01*
X93260195Y-134184271D01*
X93226343Y-134347494D01*
X93192086Y-135272431D01*
X92683808Y-134790406D01*
X89298214Y-138176000D01*
X92683808Y-141561594D01*
X92938445Y-141320109D01*
X92632470Y-142697000D01*
X90990786Y-142697000D01*
X87884000Y-139590214D01*
X84777214Y-142697000D01*
X82578066Y-142697000D01*
X82666722Y-142190234D01*
X82522205Y-141463697D01*
X82190894Y-141344923D01*
X81295817Y-142240000D01*
X81628158Y-142572341D01*
X81503498Y-142697000D01*
X79532502Y-142697000D01*
X79407843Y-142572341D01*
X79740183Y-142240000D01*
X78845106Y-141344923D01*
X78513795Y-141463697D01*
X78369278Y-142289766D01*
X78450282Y-142697000D01*
X59444487Y-142697000D01*
X58755404Y-140567106D01*
X79622923Y-140567106D01*
X80518000Y-141462183D01*
X81413077Y-140567106D01*
X81294303Y-140235795D01*
X80468234Y-140091278D01*
X79741697Y-140235795D01*
X79622923Y-140567106D01*
X58755404Y-140567106D01*
X57761611Y-137495383D01*
X57795724Y-137548396D01*
X58296983Y-137890892D01*
X58892000Y-138011386D01*
X61092000Y-138011386D01*
X61647867Y-137906793D01*
X62158396Y-137578276D01*
X62500892Y-137077017D01*
X62621386Y-136482000D01*
X62621386Y-134282000D01*
X62516793Y-133726133D01*
X62492000Y-133687604D01*
X62492000Y-131914141D01*
X62539371Y-131843245D01*
X62638536Y-131344707D01*
X69991532Y-131344707D01*
X70192000Y-131829876D01*
X70192000Y-134623188D01*
X70041063Y-135382000D01*
X70238976Y-136376977D01*
X70802585Y-137220478D01*
X71646086Y-137784087D01*
X72641063Y-137982000D01*
X72742937Y-137982000D01*
X73737914Y-137784087D01*
X73807582Y-137737536D01*
X81774008Y-137737536D01*
X82071310Y-140109105D01*
X82406896Y-140919281D01*
X83084192Y-141561594D01*
X86469786Y-138176000D01*
X83084192Y-134790406D01*
X82406896Y-135432719D01*
X81774008Y-137737536D01*
X73807582Y-137737536D01*
X74581415Y-137220478D01*
X75145024Y-136376977D01*
X75342937Y-135382000D01*
X75192000Y-134623188D01*
X75192000Y-133779386D01*
X79250000Y-133779386D01*
X79805867Y-133674793D01*
X80269905Y-133376192D01*
X84498406Y-133376192D01*
X87884000Y-136761786D01*
X91269594Y-133376192D01*
X90627281Y-132698896D01*
X88322464Y-132066008D01*
X85950895Y-132363310D01*
X85140719Y-132698896D01*
X84498406Y-133376192D01*
X80269905Y-133376192D01*
X80316396Y-133346276D01*
X80658892Y-132845017D01*
X80779386Y-132250000D01*
X80779386Y-129750000D01*
X80674793Y-129194133D01*
X80346276Y-128683604D01*
X79845017Y-128341108D01*
X79250000Y-128220614D01*
X74750000Y-128220614D01*
X74194133Y-128325207D01*
X74019378Y-128437659D01*
X73231419Y-128110470D01*
X72157293Y-128109532D01*
X71164571Y-128519717D01*
X70404386Y-129278576D01*
X69992470Y-130270581D01*
X69991532Y-131344707D01*
X62638536Y-131344707D01*
X62744896Y-130810000D01*
X62539371Y-129776755D01*
X61984000Y-128945584D01*
X61984000Y-126506733D01*
X73954706Y-126506733D01*
X74173240Y-126877219D01*
X74820198Y-127475261D01*
X75646771Y-127780200D01*
X76000000Y-127556000D01*
X76000000Y-126175000D01*
X78000000Y-126175000D01*
X78000000Y-127556000D01*
X78353229Y-127780200D01*
X78416692Y-127756787D01*
X94579741Y-127756787D01*
X94714017Y-128092100D01*
X95580886Y-128233944D01*
X96293983Y-128092100D01*
X96428259Y-127756787D01*
X95504000Y-126832528D01*
X94579741Y-127756787D01*
X78416692Y-127756787D01*
X79179802Y-127475261D01*
X79826760Y-126877219D01*
X80045294Y-126506733D01*
X79906151Y-126175000D01*
X78000000Y-126175000D01*
X76000000Y-126175000D01*
X74093849Y-126175000D01*
X73954706Y-126506733D01*
X61984000Y-126506733D01*
X61984000Y-126060886D01*
X93254056Y-126060886D01*
X93395900Y-126773983D01*
X93731213Y-126908259D01*
X94655472Y-125984000D01*
X93731213Y-125059741D01*
X93395900Y-125194017D01*
X93254056Y-126060886D01*
X61984000Y-126060886D01*
X61984000Y-124593267D01*
X73954706Y-124593267D01*
X74093849Y-124925000D01*
X76000000Y-124925000D01*
X76000000Y-123544000D01*
X78000000Y-123544000D01*
X78000000Y-124925000D01*
X79906151Y-124925000D01*
X80045294Y-124593267D01*
X79826760Y-124222781D01*
X79814246Y-124211213D01*
X94579741Y-124211213D01*
X95504000Y-125135472D01*
X96428259Y-124211213D01*
X96293983Y-123875900D01*
X95427114Y-123734056D01*
X94714017Y-123875900D01*
X94579741Y-124211213D01*
X79814246Y-124211213D01*
X79179802Y-123624739D01*
X78353229Y-123319800D01*
X78000000Y-123544000D01*
X76000000Y-123544000D01*
X75646771Y-123319800D01*
X74820198Y-123624739D01*
X74173240Y-124222781D01*
X73954706Y-124593267D01*
X61984000Y-124593267D01*
X61984000Y-120100000D01*
X73176533Y-120100000D01*
X73385864Y-121152379D01*
X73981989Y-122044544D01*
X74874154Y-122640669D01*
X75926533Y-122850000D01*
X78073467Y-122850000D01*
X79125846Y-122640669D01*
X80018011Y-122044544D01*
X80614136Y-121152379D01*
X80823467Y-120100000D01*
X80614136Y-119047621D01*
X80018011Y-118155456D01*
X79125846Y-117559331D01*
X78073467Y-117350000D01*
X75926533Y-117350000D01*
X74874154Y-117559331D01*
X73981989Y-118155456D01*
X73385864Y-119047621D01*
X73176533Y-120100000D01*
X61984000Y-120100000D01*
X61984000Y-117532031D01*
X61992892Y-117519017D01*
X62113386Y-116924000D01*
X62113386Y-114724000D01*
X62008793Y-114168133D01*
X61984000Y-114129604D01*
X61984000Y-112864141D01*
X62031371Y-112793245D01*
X62130536Y-112294707D01*
X69483532Y-112294707D01*
X69684000Y-112779876D01*
X69684000Y-115065188D01*
X69533063Y-115824000D01*
X69730976Y-116818977D01*
X70294585Y-117662478D01*
X71138086Y-118226087D01*
X72133063Y-118424000D01*
X72234937Y-118424000D01*
X73229914Y-118226087D01*
X74073415Y-117662478D01*
X74637024Y-116818977D01*
X74834937Y-115824000D01*
X74684000Y-115065188D01*
X74684000Y-113766021D01*
X74750000Y-113779386D01*
X79250000Y-113779386D01*
X79805867Y-113674793D01*
X80316396Y-113346276D01*
X80658892Y-112845017D01*
X80779386Y-112250000D01*
X80779386Y-109750000D01*
X80674793Y-109194133D01*
X80346276Y-108683604D01*
X79845017Y-108341108D01*
X79250000Y-108220614D01*
X74750000Y-108220614D01*
X74194133Y-108325207D01*
X73922497Y-108500000D01*
X72944000Y-108500000D01*
X71987291Y-108690301D01*
X71176233Y-109232233D01*
X71137441Y-109271025D01*
X70656571Y-109469717D01*
X69896386Y-110228576D01*
X69484470Y-111220581D01*
X69483532Y-112294707D01*
X62130536Y-112294707D01*
X62236896Y-111760000D01*
X62212186Y-111635775D01*
X62238000Y-111506000D01*
X62238000Y-106506733D01*
X73954706Y-106506733D01*
X74173240Y-106877219D01*
X74820198Y-107475261D01*
X75646771Y-107780200D01*
X76000000Y-107556000D01*
X76000000Y-106175000D01*
X78000000Y-106175000D01*
X78000000Y-107556000D01*
X78353229Y-107780200D01*
X79179802Y-107475261D01*
X79826760Y-106877219D01*
X80045294Y-106506733D01*
X79906151Y-106175000D01*
X78000000Y-106175000D01*
X76000000Y-106175000D01*
X74093849Y-106175000D01*
X73954706Y-106506733D01*
X62238000Y-106506733D01*
X62238000Y-104593267D01*
X73954706Y-104593267D01*
X74093849Y-104925000D01*
X76000000Y-104925000D01*
X76000000Y-103544000D01*
X78000000Y-103544000D01*
X78000000Y-104925000D01*
X79906151Y-104925000D01*
X80045294Y-104593267D01*
X79826760Y-104222781D01*
X79179802Y-103624739D01*
X78353229Y-103319800D01*
X78000000Y-103544000D01*
X76000000Y-103544000D01*
X75646771Y-103319800D01*
X74820198Y-103624739D01*
X74173240Y-104222781D01*
X73954706Y-104593267D01*
X62238000Y-104593267D01*
X62238000Y-100100000D01*
X73176533Y-100100000D01*
X73385864Y-101152379D01*
X73981989Y-102044544D01*
X74874154Y-102640669D01*
X75926533Y-102850000D01*
X78073467Y-102850000D01*
X79125846Y-102640669D01*
X80018011Y-102044544D01*
X80614136Y-101152379D01*
X80823467Y-100100000D01*
X80614136Y-99047621D01*
X80109773Y-98292787D01*
X94579741Y-98292787D01*
X94714017Y-98628100D01*
X95580886Y-98769944D01*
X96293983Y-98628100D01*
X96428259Y-98292787D01*
X95504000Y-97368528D01*
X94579741Y-98292787D01*
X80109773Y-98292787D01*
X80018011Y-98155456D01*
X79125846Y-97559331D01*
X78073467Y-97350000D01*
X75926533Y-97350000D01*
X74874154Y-97559331D01*
X73981989Y-98155456D01*
X73385864Y-99047621D01*
X73176533Y-100100000D01*
X62238000Y-100100000D01*
X62238000Y-96958031D01*
X62246892Y-96945017D01*
X62332960Y-96520000D01*
X69382000Y-96520000D01*
X69572301Y-97476708D01*
X70114233Y-98287767D01*
X70925292Y-98829699D01*
X71882000Y-99020000D01*
X72838708Y-98829699D01*
X73649767Y-98287767D01*
X74205767Y-97731767D01*
X74213468Y-97720241D01*
X74747699Y-96920709D01*
X74812111Y-96596886D01*
X93254056Y-96596886D01*
X93395900Y-97309983D01*
X93731213Y-97444259D01*
X94655472Y-96520000D01*
X93731213Y-95595741D01*
X93395900Y-95730017D01*
X93254056Y-96596886D01*
X74812111Y-96596886D01*
X74878332Y-96263972D01*
X74891024Y-96244977D01*
X75088937Y-95250000D01*
X74988927Y-94747213D01*
X94579741Y-94747213D01*
X95504000Y-95671472D01*
X96428259Y-94747213D01*
X96293983Y-94411900D01*
X95427114Y-94270056D01*
X94714017Y-94411900D01*
X94579741Y-94747213D01*
X74988927Y-94747213D01*
X74938000Y-94491188D01*
X74938000Y-93779386D01*
X79250000Y-93779386D01*
X79805867Y-93674793D01*
X80316396Y-93346276D01*
X80658892Y-92845017D01*
X80779386Y-92250000D01*
X80779386Y-89750000D01*
X80674793Y-89194133D01*
X80346276Y-88683604D01*
X79845017Y-88341108D01*
X79250000Y-88220614D01*
X74750000Y-88220614D01*
X74194133Y-88325207D01*
X73922497Y-88500000D01*
X73010003Y-88500000D01*
X72977419Y-88486470D01*
X71903293Y-88485532D01*
X70910571Y-88895717D01*
X70150386Y-89654576D01*
X69738470Y-90646581D01*
X69737532Y-91720707D01*
X69938000Y-92205876D01*
X69938000Y-94491188D01*
X69789363Y-95238435D01*
X69572301Y-95563292D01*
X69382000Y-96520000D01*
X62332960Y-96520000D01*
X62367386Y-96350000D01*
X62367386Y-94150000D01*
X62262793Y-93594133D01*
X62238000Y-93555604D01*
X62238000Y-92290141D01*
X62285371Y-92219245D01*
X62490896Y-91186000D01*
X62285371Y-90152755D01*
X62238000Y-90081859D01*
X62238000Y-86506733D01*
X73954706Y-86506733D01*
X74173240Y-86877219D01*
X74820198Y-87475261D01*
X75646771Y-87780200D01*
X76000000Y-87556000D01*
X76000000Y-86175000D01*
X78000000Y-86175000D01*
X78000000Y-87556000D01*
X78353229Y-87780200D01*
X79179802Y-87475261D01*
X79826760Y-86877219D01*
X80045294Y-86506733D01*
X79906151Y-86175000D01*
X78000000Y-86175000D01*
X76000000Y-86175000D01*
X74093849Y-86175000D01*
X73954706Y-86506733D01*
X62238000Y-86506733D01*
X62238000Y-84593267D01*
X73954706Y-84593267D01*
X74093849Y-84925000D01*
X76000000Y-84925000D01*
X76000000Y-83544000D01*
X78000000Y-83544000D01*
X78000000Y-84925000D01*
X79906151Y-84925000D01*
X80045294Y-84593267D01*
X79826760Y-84222781D01*
X79179802Y-83624739D01*
X78353229Y-83319800D01*
X78000000Y-83544000D01*
X76000000Y-83544000D01*
X75646771Y-83319800D01*
X74820198Y-83624739D01*
X74173240Y-84222781D01*
X73954706Y-84593267D01*
X62238000Y-84593267D01*
X62238000Y-80100000D01*
X73176533Y-80100000D01*
X73385864Y-81152379D01*
X73981989Y-82044544D01*
X74874154Y-82640669D01*
X75926533Y-82850000D01*
X78073467Y-82850000D01*
X79125846Y-82640669D01*
X80018011Y-82044544D01*
X80614136Y-81152379D01*
X80823467Y-80100000D01*
X80614136Y-79047621D01*
X80018011Y-78155456D01*
X79125846Y-77559331D01*
X78073467Y-77350000D01*
X75926533Y-77350000D01*
X74874154Y-77559331D01*
X73981989Y-78155456D01*
X73385864Y-79047621D01*
X73176533Y-80100000D01*
X62238000Y-80100000D01*
X62238000Y-77771772D01*
X62500892Y-77387017D01*
X62621386Y-76792000D01*
X62621386Y-74592000D01*
X62516793Y-74036133D01*
X62492000Y-73997604D01*
X62492000Y-72478141D01*
X62539371Y-72407245D01*
X62638536Y-71908707D01*
X69991532Y-71908707D01*
X70192000Y-72393876D01*
X70192000Y-74933188D01*
X70041063Y-75692000D01*
X70238976Y-76686977D01*
X70802585Y-77530478D01*
X71646086Y-78094087D01*
X72641063Y-78292000D01*
X72742937Y-78292000D01*
X73737914Y-78094087D01*
X74581415Y-77530478D01*
X75145024Y-76686977D01*
X75342937Y-75692000D01*
X75192000Y-74933188D01*
X75192000Y-73779386D01*
X79250000Y-73779386D01*
X79805867Y-73674793D01*
X80316396Y-73346276D01*
X80658892Y-72845017D01*
X80779386Y-72250000D01*
X80779386Y-69750000D01*
X80674793Y-69194133D01*
X80346276Y-68683604D01*
X79845017Y-68341108D01*
X79250000Y-68220614D01*
X74750000Y-68220614D01*
X74194133Y-68325207D01*
X73922497Y-68500000D01*
X73066000Y-68500000D01*
X72193436Y-68673564D01*
X72157293Y-68673532D01*
X72123595Y-68687456D01*
X72109291Y-68690301D01*
X72097271Y-68698333D01*
X71164571Y-69083717D01*
X70404386Y-69842576D01*
X69992470Y-70834581D01*
X69991532Y-71908707D01*
X62638536Y-71908707D01*
X62744896Y-71374000D01*
X62539371Y-70340755D01*
X61954084Y-69464812D01*
X61078141Y-68879525D01*
X60044896Y-68674000D01*
X59939104Y-68674000D01*
X58905859Y-68879525D01*
X58029916Y-69464812D01*
X57444629Y-70340755D01*
X57239104Y-71374000D01*
X57444629Y-72407245D01*
X57492000Y-72478141D01*
X57492000Y-73983969D01*
X57483108Y-73996983D01*
X57362614Y-74592000D01*
X57362614Y-75319522D01*
X57238000Y-75946000D01*
X57238000Y-90081859D01*
X57190629Y-90152755D01*
X56985104Y-91186000D01*
X57190629Y-92219245D01*
X57238000Y-92290141D01*
X57238000Y-93541969D01*
X57229108Y-93554983D01*
X57108614Y-94150000D01*
X57108614Y-96350000D01*
X57213207Y-96905867D01*
X57238000Y-96944396D01*
X57238000Y-97068000D01*
X52677001Y-97068000D01*
X52634276Y-97001604D01*
X52133017Y-96659108D01*
X52113422Y-96655140D01*
X52579793Y-96189582D01*
X53037478Y-95087355D01*
X53038519Y-93893881D01*
X52582759Y-92790857D01*
X51739582Y-91946207D01*
X50637355Y-91488522D01*
X49443881Y-91487481D01*
X48340857Y-91943241D01*
X47756832Y-92526247D01*
X47926894Y-66506733D01*
X73954706Y-66506733D01*
X74173240Y-66877219D01*
X74820198Y-67475261D01*
X75646771Y-67780200D01*
X76000000Y-67556000D01*
X76000000Y-66175000D01*
X78000000Y-66175000D01*
X78000000Y-67556000D01*
X78353229Y-67780200D01*
X79179802Y-67475261D01*
X79826760Y-66877219D01*
X80045294Y-66506733D01*
X79906151Y-66175000D01*
X78000000Y-66175000D01*
X76000000Y-66175000D01*
X74093849Y-66175000D01*
X73954706Y-66506733D01*
X47926894Y-66506733D01*
X47939400Y-64593267D01*
X73954706Y-64593267D01*
X74093849Y-64925000D01*
X76000000Y-64925000D01*
X76000000Y-63544000D01*
X78000000Y-63544000D01*
X78000000Y-64925000D01*
X79906151Y-64925000D01*
X80045294Y-64593267D01*
X79826760Y-64222781D01*
X79179802Y-63624739D01*
X78353229Y-63319800D01*
X78000000Y-63544000D01*
X76000000Y-63544000D01*
X75646771Y-63319800D01*
X74820198Y-63624739D01*
X74173240Y-64222781D01*
X73954706Y-64593267D01*
X47939400Y-64593267D01*
X47960602Y-61349431D01*
X56155808Y-61349431D01*
X56155808Y-61705813D01*
X56579013Y-62129018D01*
X56949496Y-62282477D01*
X57350504Y-62282477D01*
X57720986Y-62129019D01*
X58144192Y-61705813D01*
X58144192Y-61349431D01*
X57150000Y-60355239D01*
X56155808Y-61349431D01*
X47960602Y-61349431D01*
X47974419Y-59235496D01*
X54303523Y-59235496D01*
X54303523Y-59636504D01*
X54456982Y-60006987D01*
X54880187Y-60430192D01*
X55236569Y-60430192D01*
X56230761Y-59436000D01*
X58069239Y-59436000D01*
X59063431Y-60430192D01*
X59419813Y-60430192D01*
X59843019Y-60006986D01*
X59996477Y-59636504D01*
X59996477Y-59235496D01*
X59843018Y-58865013D01*
X59419813Y-58441808D01*
X59063431Y-58441808D01*
X58069239Y-59436000D01*
X56230761Y-59436000D01*
X55236569Y-58441808D01*
X54880187Y-58441808D01*
X54456981Y-58865014D01*
X54303523Y-59235496D01*
X47974419Y-59235496D01*
X47987944Y-57166187D01*
X56155808Y-57166187D01*
X56155808Y-57522569D01*
X57150000Y-58516761D01*
X58144192Y-57522569D01*
X58144192Y-57166187D01*
X57720987Y-56742982D01*
X57350504Y-56589523D01*
X56949496Y-56589523D01*
X56579014Y-56742981D01*
X56155808Y-57166187D01*
X47987944Y-57166187D01*
X47994717Y-56129927D01*
X79364846Y-56376936D01*
X79364846Y-56376936D01*
G37*
X79364846Y-56376936D02*
X79767655Y-57988174D01*
X79125846Y-57559331D01*
X78073467Y-57350000D01*
X75926533Y-57350000D01*
X74874154Y-57559331D01*
X73981989Y-58155456D01*
X73385864Y-59047621D01*
X73176533Y-60100000D01*
X73385864Y-61152379D01*
X73981989Y-62044544D01*
X74874154Y-62640669D01*
X75926533Y-62850000D01*
X78073467Y-62850000D01*
X79125846Y-62640669D01*
X80018011Y-62044544D01*
X80573799Y-61212748D01*
X81048929Y-63113268D01*
X81134325Y-63292434D01*
X81282700Y-63424259D01*
X81534000Y-63492000D01*
X90780612Y-63492000D01*
X93174468Y-65087904D01*
X92877839Y-65384015D01*
X92496435Y-66302538D01*
X92495567Y-67297099D01*
X92875367Y-68216286D01*
X93578015Y-68920161D01*
X94496538Y-69301565D01*
X95491099Y-69302433D01*
X95492147Y-69302000D01*
X97531170Y-69302000D01*
X97454147Y-72151841D01*
X97035424Y-71732386D01*
X96043419Y-71320470D01*
X94969293Y-71319532D01*
X93976571Y-71729717D01*
X93216386Y-72488576D01*
X92804470Y-73480581D01*
X92803532Y-74554707D01*
X93213717Y-75547429D01*
X93972576Y-76307614D01*
X94964581Y-76719530D01*
X96038707Y-76720468D01*
X97031429Y-76310283D01*
X97350361Y-75991907D01*
X97309331Y-77510000D01*
X95250000Y-77510000D01*
X94293291Y-77700301D01*
X93708759Y-78090873D01*
X93581714Y-78143367D01*
X93483571Y-78241339D01*
X93482233Y-78242233D01*
X93228916Y-78495550D01*
X92877839Y-78846015D01*
X92496435Y-79764538D01*
X92495567Y-80759099D01*
X92875367Y-81678286D01*
X93578015Y-82382161D01*
X94496538Y-82763565D01*
X95491099Y-82764433D01*
X96106874Y-82510000D01*
X97309352Y-82510000D01*
X97325915Y-86170381D01*
X97272450Y-86116916D01*
X96921985Y-85765839D01*
X96003462Y-85384435D01*
X95008901Y-85383567D01*
X94089714Y-85763367D01*
X93385839Y-86466015D01*
X93004435Y-87384538D01*
X93003567Y-88379099D01*
X93383367Y-89298286D01*
X94086015Y-90002161D01*
X94087062Y-90002596D01*
X97358056Y-93273590D01*
X97368730Y-95632560D01*
X97276787Y-95595741D01*
X96352528Y-96520000D01*
X97276787Y-97444259D01*
X97376747Y-97404230D01*
X97395538Y-101557129D01*
X97035424Y-101196386D01*
X96043419Y-100784470D01*
X94969293Y-100783532D01*
X93976571Y-101193717D01*
X93216386Y-101952576D01*
X92804470Y-102944581D01*
X92803532Y-104018707D01*
X93213717Y-105011429D01*
X93972576Y-105771614D01*
X94964581Y-106183530D01*
X96038707Y-106184468D01*
X97031429Y-105774283D01*
X97412897Y-105393480D01*
X97433515Y-109950000D01*
X94814000Y-109950000D01*
X94453302Y-110021747D01*
X94246901Y-110021567D01*
X94054461Y-110101081D01*
X93857291Y-110140301D01*
X93691599Y-110251013D01*
X93327714Y-110401367D01*
X93046610Y-110681981D01*
X93046233Y-110682233D01*
X92974916Y-110753550D01*
X92623839Y-111104015D01*
X92242435Y-112022538D01*
X92241567Y-113017099D01*
X92621367Y-113936286D01*
X93324015Y-114640161D01*
X94242538Y-115021565D01*
X95237099Y-115022433D01*
X95412400Y-114950000D01*
X97456139Y-114950000D01*
X97468320Y-117642000D01*
X94997036Y-117642000D01*
X94500901Y-117641567D01*
X93581714Y-118021367D01*
X92877839Y-118724015D01*
X92496435Y-119642538D01*
X92495567Y-120637099D01*
X92875367Y-121556286D01*
X93578015Y-122260161D01*
X94496538Y-122641565D01*
X95491099Y-122642433D01*
X95492147Y-122642000D01*
X97490945Y-122642000D01*
X97502293Y-125150045D01*
X97276787Y-125059741D01*
X96352528Y-125984000D01*
X97276787Y-126908259D01*
X97509827Y-126814938D01*
X97538026Y-133046957D01*
X96717552Y-133866000D01*
X93726000Y-133866000D01*
X93531472Y-133905393D01*
X93367596Y-134017365D01*
X93260195Y-134184271D01*
X93226343Y-134347494D01*
X93192086Y-135272431D01*
X92683808Y-134790406D01*
X89298214Y-138176000D01*
X92683808Y-141561594D01*
X92938445Y-141320109D01*
X92632470Y-142697000D01*
X90990786Y-142697000D01*
X87884000Y-139590214D01*
X84777214Y-142697000D01*
X82578066Y-142697000D01*
X82666722Y-142190234D01*
X82522205Y-141463697D01*
X82190894Y-141344923D01*
X81295817Y-142240000D01*
X81628158Y-142572341D01*
X81503498Y-142697000D01*
X79532502Y-142697000D01*
X79407843Y-142572341D01*
X79740183Y-142240000D01*
X78845106Y-141344923D01*
X78513795Y-141463697D01*
X78369278Y-142289766D01*
X78450282Y-142697000D01*
X59444487Y-142697000D01*
X58755404Y-140567106D01*
X79622923Y-140567106D01*
X80518000Y-141462183D01*
X81413077Y-140567106D01*
X81294303Y-140235795D01*
X80468234Y-140091278D01*
X79741697Y-140235795D01*
X79622923Y-140567106D01*
X58755404Y-140567106D01*
X57761611Y-137495383D01*
X57795724Y-137548396D01*
X58296983Y-137890892D01*
X58892000Y-138011386D01*
X61092000Y-138011386D01*
X61647867Y-137906793D01*
X62158396Y-137578276D01*
X62500892Y-137077017D01*
X62621386Y-136482000D01*
X62621386Y-134282000D01*
X62516793Y-133726133D01*
X62492000Y-133687604D01*
X62492000Y-131914141D01*
X62539371Y-131843245D01*
X62638536Y-131344707D01*
X69991532Y-131344707D01*
X70192000Y-131829876D01*
X70192000Y-134623188D01*
X70041063Y-135382000D01*
X70238976Y-136376977D01*
X70802585Y-137220478D01*
X71646086Y-137784087D01*
X72641063Y-137982000D01*
X72742937Y-137982000D01*
X73737914Y-137784087D01*
X73807582Y-137737536D01*
X81774008Y-137737536D01*
X82071310Y-140109105D01*
X82406896Y-140919281D01*
X83084192Y-141561594D01*
X86469786Y-138176000D01*
X83084192Y-134790406D01*
X82406896Y-135432719D01*
X81774008Y-137737536D01*
X73807582Y-137737536D01*
X74581415Y-137220478D01*
X75145024Y-136376977D01*
X75342937Y-135382000D01*
X75192000Y-134623188D01*
X75192000Y-133779386D01*
X79250000Y-133779386D01*
X79805867Y-133674793D01*
X80269905Y-133376192D01*
X84498406Y-133376192D01*
X87884000Y-136761786D01*
X91269594Y-133376192D01*
X90627281Y-132698896D01*
X88322464Y-132066008D01*
X85950895Y-132363310D01*
X85140719Y-132698896D01*
X84498406Y-133376192D01*
X80269905Y-133376192D01*
X80316396Y-133346276D01*
X80658892Y-132845017D01*
X80779386Y-132250000D01*
X80779386Y-129750000D01*
X80674793Y-129194133D01*
X80346276Y-128683604D01*
X79845017Y-128341108D01*
X79250000Y-128220614D01*
X74750000Y-128220614D01*
X74194133Y-128325207D01*
X74019378Y-128437659D01*
X73231419Y-128110470D01*
X72157293Y-128109532D01*
X71164571Y-128519717D01*
X70404386Y-129278576D01*
X69992470Y-130270581D01*
X69991532Y-131344707D01*
X62638536Y-131344707D01*
X62744896Y-130810000D01*
X62539371Y-129776755D01*
X61984000Y-128945584D01*
X61984000Y-126506733D01*
X73954706Y-126506733D01*
X74173240Y-126877219D01*
X74820198Y-127475261D01*
X75646771Y-127780200D01*
X76000000Y-127556000D01*
X76000000Y-126175000D01*
X78000000Y-126175000D01*
X78000000Y-127556000D01*
X78353229Y-127780200D01*
X78416692Y-127756787D01*
X94579741Y-127756787D01*
X94714017Y-128092100D01*
X95580886Y-128233944D01*
X96293983Y-128092100D01*
X96428259Y-127756787D01*
X95504000Y-126832528D01*
X94579741Y-127756787D01*
X78416692Y-127756787D01*
X79179802Y-127475261D01*
X79826760Y-126877219D01*
X80045294Y-126506733D01*
X79906151Y-126175000D01*
X78000000Y-126175000D01*
X76000000Y-126175000D01*
X74093849Y-126175000D01*
X73954706Y-126506733D01*
X61984000Y-126506733D01*
X61984000Y-126060886D01*
X93254056Y-126060886D01*
X93395900Y-126773983D01*
X93731213Y-126908259D01*
X94655472Y-125984000D01*
X93731213Y-125059741D01*
X93395900Y-125194017D01*
X93254056Y-126060886D01*
X61984000Y-126060886D01*
X61984000Y-124593267D01*
X73954706Y-124593267D01*
X74093849Y-124925000D01*
X76000000Y-124925000D01*
X76000000Y-123544000D01*
X78000000Y-123544000D01*
X78000000Y-124925000D01*
X79906151Y-124925000D01*
X80045294Y-124593267D01*
X79826760Y-124222781D01*
X79814246Y-124211213D01*
X94579741Y-124211213D01*
X95504000Y-125135472D01*
X96428259Y-124211213D01*
X96293983Y-123875900D01*
X95427114Y-123734056D01*
X94714017Y-123875900D01*
X94579741Y-124211213D01*
X79814246Y-124211213D01*
X79179802Y-123624739D01*
X78353229Y-123319800D01*
X78000000Y-123544000D01*
X76000000Y-123544000D01*
X75646771Y-123319800D01*
X74820198Y-123624739D01*
X74173240Y-124222781D01*
X73954706Y-124593267D01*
X61984000Y-124593267D01*
X61984000Y-120100000D01*
X73176533Y-120100000D01*
X73385864Y-121152379D01*
X73981989Y-122044544D01*
X74874154Y-122640669D01*
X75926533Y-122850000D01*
X78073467Y-122850000D01*
X79125846Y-122640669D01*
X80018011Y-122044544D01*
X80614136Y-121152379D01*
X80823467Y-120100000D01*
X80614136Y-119047621D01*
X80018011Y-118155456D01*
X79125846Y-117559331D01*
X78073467Y-117350000D01*
X75926533Y-117350000D01*
X74874154Y-117559331D01*
X73981989Y-118155456D01*
X73385864Y-119047621D01*
X73176533Y-120100000D01*
X61984000Y-120100000D01*
X61984000Y-117532031D01*
X61992892Y-117519017D01*
X62113386Y-116924000D01*
X62113386Y-114724000D01*
X62008793Y-114168133D01*
X61984000Y-114129604D01*
X61984000Y-112864141D01*
X62031371Y-112793245D01*
X62130536Y-112294707D01*
X69483532Y-112294707D01*
X69684000Y-112779876D01*
X69684000Y-115065188D01*
X69533063Y-115824000D01*
X69730976Y-116818977D01*
X70294585Y-117662478D01*
X71138086Y-118226087D01*
X72133063Y-118424000D01*
X72234937Y-118424000D01*
X73229914Y-118226087D01*
X74073415Y-117662478D01*
X74637024Y-116818977D01*
X74834937Y-115824000D01*
X74684000Y-115065188D01*
X74684000Y-113766021D01*
X74750000Y-113779386D01*
X79250000Y-113779386D01*
X79805867Y-113674793D01*
X80316396Y-113346276D01*
X80658892Y-112845017D01*
X80779386Y-112250000D01*
X80779386Y-109750000D01*
X80674793Y-109194133D01*
X80346276Y-108683604D01*
X79845017Y-108341108D01*
X79250000Y-108220614D01*
X74750000Y-108220614D01*
X74194133Y-108325207D01*
X73922497Y-108500000D01*
X72944000Y-108500000D01*
X71987291Y-108690301D01*
X71176233Y-109232233D01*
X71137441Y-109271025D01*
X70656571Y-109469717D01*
X69896386Y-110228576D01*
X69484470Y-111220581D01*
X69483532Y-112294707D01*
X62130536Y-112294707D01*
X62236896Y-111760000D01*
X62212186Y-111635775D01*
X62238000Y-111506000D01*
X62238000Y-106506733D01*
X73954706Y-106506733D01*
X74173240Y-106877219D01*
X74820198Y-107475261D01*
X75646771Y-107780200D01*
X76000000Y-107556000D01*
X76000000Y-106175000D01*
X78000000Y-106175000D01*
X78000000Y-107556000D01*
X78353229Y-107780200D01*
X79179802Y-107475261D01*
X79826760Y-106877219D01*
X80045294Y-106506733D01*
X79906151Y-106175000D01*
X78000000Y-106175000D01*
X76000000Y-106175000D01*
X74093849Y-106175000D01*
X73954706Y-106506733D01*
X62238000Y-106506733D01*
X62238000Y-104593267D01*
X73954706Y-104593267D01*
X74093849Y-104925000D01*
X76000000Y-104925000D01*
X76000000Y-103544000D01*
X78000000Y-103544000D01*
X78000000Y-104925000D01*
X79906151Y-104925000D01*
X80045294Y-104593267D01*
X79826760Y-104222781D01*
X79179802Y-103624739D01*
X78353229Y-103319800D01*
X78000000Y-103544000D01*
X76000000Y-103544000D01*
X75646771Y-103319800D01*
X74820198Y-103624739D01*
X74173240Y-104222781D01*
X73954706Y-104593267D01*
X62238000Y-104593267D01*
X62238000Y-100100000D01*
X73176533Y-100100000D01*
X73385864Y-101152379D01*
X73981989Y-102044544D01*
X74874154Y-102640669D01*
X75926533Y-102850000D01*
X78073467Y-102850000D01*
X79125846Y-102640669D01*
X80018011Y-102044544D01*
X80614136Y-101152379D01*
X80823467Y-100100000D01*
X80614136Y-99047621D01*
X80109773Y-98292787D01*
X94579741Y-98292787D01*
X94714017Y-98628100D01*
X95580886Y-98769944D01*
X96293983Y-98628100D01*
X96428259Y-98292787D01*
X95504000Y-97368528D01*
X94579741Y-98292787D01*
X80109773Y-98292787D01*
X80018011Y-98155456D01*
X79125846Y-97559331D01*
X78073467Y-97350000D01*
X75926533Y-97350000D01*
X74874154Y-97559331D01*
X73981989Y-98155456D01*
X73385864Y-99047621D01*
X73176533Y-100100000D01*
X62238000Y-100100000D01*
X62238000Y-96958031D01*
X62246892Y-96945017D01*
X62332960Y-96520000D01*
X69382000Y-96520000D01*
X69572301Y-97476708D01*
X70114233Y-98287767D01*
X70925292Y-98829699D01*
X71882000Y-99020000D01*
X72838708Y-98829699D01*
X73649767Y-98287767D01*
X74205767Y-97731767D01*
X74213468Y-97720241D01*
X74747699Y-96920709D01*
X74812111Y-96596886D01*
X93254056Y-96596886D01*
X93395900Y-97309983D01*
X93731213Y-97444259D01*
X94655472Y-96520000D01*
X93731213Y-95595741D01*
X93395900Y-95730017D01*
X93254056Y-96596886D01*
X74812111Y-96596886D01*
X74878332Y-96263972D01*
X74891024Y-96244977D01*
X75088937Y-95250000D01*
X74988927Y-94747213D01*
X94579741Y-94747213D01*
X95504000Y-95671472D01*
X96428259Y-94747213D01*
X96293983Y-94411900D01*
X95427114Y-94270056D01*
X94714017Y-94411900D01*
X94579741Y-94747213D01*
X74988927Y-94747213D01*
X74938000Y-94491188D01*
X74938000Y-93779386D01*
X79250000Y-93779386D01*
X79805867Y-93674793D01*
X80316396Y-93346276D01*
X80658892Y-92845017D01*
X80779386Y-92250000D01*
X80779386Y-89750000D01*
X80674793Y-89194133D01*
X80346276Y-88683604D01*
X79845017Y-88341108D01*
X79250000Y-88220614D01*
X74750000Y-88220614D01*
X74194133Y-88325207D01*
X73922497Y-88500000D01*
X73010003Y-88500000D01*
X72977419Y-88486470D01*
X71903293Y-88485532D01*
X70910571Y-88895717D01*
X70150386Y-89654576D01*
X69738470Y-90646581D01*
X69737532Y-91720707D01*
X69938000Y-92205876D01*
X69938000Y-94491188D01*
X69789363Y-95238435D01*
X69572301Y-95563292D01*
X69382000Y-96520000D01*
X62332960Y-96520000D01*
X62367386Y-96350000D01*
X62367386Y-94150000D01*
X62262793Y-93594133D01*
X62238000Y-93555604D01*
X62238000Y-92290141D01*
X62285371Y-92219245D01*
X62490896Y-91186000D01*
X62285371Y-90152755D01*
X62238000Y-90081859D01*
X62238000Y-86506733D01*
X73954706Y-86506733D01*
X74173240Y-86877219D01*
X74820198Y-87475261D01*
X75646771Y-87780200D01*
X76000000Y-87556000D01*
X76000000Y-86175000D01*
X78000000Y-86175000D01*
X78000000Y-87556000D01*
X78353229Y-87780200D01*
X79179802Y-87475261D01*
X79826760Y-86877219D01*
X80045294Y-86506733D01*
X79906151Y-86175000D01*
X78000000Y-86175000D01*
X76000000Y-86175000D01*
X74093849Y-86175000D01*
X73954706Y-86506733D01*
X62238000Y-86506733D01*
X62238000Y-84593267D01*
X73954706Y-84593267D01*
X74093849Y-84925000D01*
X76000000Y-84925000D01*
X76000000Y-83544000D01*
X78000000Y-83544000D01*
X78000000Y-84925000D01*
X79906151Y-84925000D01*
X80045294Y-84593267D01*
X79826760Y-84222781D01*
X79179802Y-83624739D01*
X78353229Y-83319800D01*
X78000000Y-83544000D01*
X76000000Y-83544000D01*
X75646771Y-83319800D01*
X74820198Y-83624739D01*
X74173240Y-84222781D01*
X73954706Y-84593267D01*
X62238000Y-84593267D01*
X62238000Y-80100000D01*
X73176533Y-80100000D01*
X73385864Y-81152379D01*
X73981989Y-82044544D01*
X74874154Y-82640669D01*
X75926533Y-82850000D01*
X78073467Y-82850000D01*
X79125846Y-82640669D01*
X80018011Y-82044544D01*
X80614136Y-81152379D01*
X80823467Y-80100000D01*
X80614136Y-79047621D01*
X80018011Y-78155456D01*
X79125846Y-77559331D01*
X78073467Y-77350000D01*
X75926533Y-77350000D01*
X74874154Y-77559331D01*
X73981989Y-78155456D01*
X73385864Y-79047621D01*
X73176533Y-80100000D01*
X62238000Y-80100000D01*
X62238000Y-77771772D01*
X62500892Y-77387017D01*
X62621386Y-76792000D01*
X62621386Y-74592000D01*
X62516793Y-74036133D01*
X62492000Y-73997604D01*
X62492000Y-72478141D01*
X62539371Y-72407245D01*
X62638536Y-71908707D01*
X69991532Y-71908707D01*
X70192000Y-72393876D01*
X70192000Y-74933188D01*
X70041063Y-75692000D01*
X70238976Y-76686977D01*
X70802585Y-77530478D01*
X71646086Y-78094087D01*
X72641063Y-78292000D01*
X72742937Y-78292000D01*
X73737914Y-78094087D01*
X74581415Y-77530478D01*
X75145024Y-76686977D01*
X75342937Y-75692000D01*
X75192000Y-74933188D01*
X75192000Y-73779386D01*
X79250000Y-73779386D01*
X79805867Y-73674793D01*
X80316396Y-73346276D01*
X80658892Y-72845017D01*
X80779386Y-72250000D01*
X80779386Y-69750000D01*
X80674793Y-69194133D01*
X80346276Y-68683604D01*
X79845017Y-68341108D01*
X79250000Y-68220614D01*
X74750000Y-68220614D01*
X74194133Y-68325207D01*
X73922497Y-68500000D01*
X73066000Y-68500000D01*
X72193436Y-68673564D01*
X72157293Y-68673532D01*
X72123595Y-68687456D01*
X72109291Y-68690301D01*
X72097271Y-68698333D01*
X71164571Y-69083717D01*
X70404386Y-69842576D01*
X69992470Y-70834581D01*
X69991532Y-71908707D01*
X62638536Y-71908707D01*
X62744896Y-71374000D01*
X62539371Y-70340755D01*
X61954084Y-69464812D01*
X61078141Y-68879525D01*
X60044896Y-68674000D01*
X59939104Y-68674000D01*
X58905859Y-68879525D01*
X58029916Y-69464812D01*
X57444629Y-70340755D01*
X57239104Y-71374000D01*
X57444629Y-72407245D01*
X57492000Y-72478141D01*
X57492000Y-73983969D01*
X57483108Y-73996983D01*
X57362614Y-74592000D01*
X57362614Y-75319522D01*
X57238000Y-75946000D01*
X57238000Y-90081859D01*
X57190629Y-90152755D01*
X56985104Y-91186000D01*
X57190629Y-92219245D01*
X57238000Y-92290141D01*
X57238000Y-93541969D01*
X57229108Y-93554983D01*
X57108614Y-94150000D01*
X57108614Y-96350000D01*
X57213207Y-96905867D01*
X57238000Y-96944396D01*
X57238000Y-97068000D01*
X52677001Y-97068000D01*
X52634276Y-97001604D01*
X52133017Y-96659108D01*
X52113422Y-96655140D01*
X52579793Y-96189582D01*
X53037478Y-95087355D01*
X53038519Y-93893881D01*
X52582759Y-92790857D01*
X51739582Y-91946207D01*
X50637355Y-91488522D01*
X49443881Y-91487481D01*
X48340857Y-91943241D01*
X47756832Y-92526247D01*
X47926894Y-66506733D01*
X73954706Y-66506733D01*
X74173240Y-66877219D01*
X74820198Y-67475261D01*
X75646771Y-67780200D01*
X76000000Y-67556000D01*
X76000000Y-66175000D01*
X78000000Y-66175000D01*
X78000000Y-67556000D01*
X78353229Y-67780200D01*
X79179802Y-67475261D01*
X79826760Y-66877219D01*
X80045294Y-66506733D01*
X79906151Y-66175000D01*
X78000000Y-66175000D01*
X76000000Y-66175000D01*
X74093849Y-66175000D01*
X73954706Y-66506733D01*
X47926894Y-66506733D01*
X47939400Y-64593267D01*
X73954706Y-64593267D01*
X74093849Y-64925000D01*
X76000000Y-64925000D01*
X76000000Y-63544000D01*
X78000000Y-63544000D01*
X78000000Y-64925000D01*
X79906151Y-64925000D01*
X80045294Y-64593267D01*
X79826760Y-64222781D01*
X79179802Y-63624739D01*
X78353229Y-63319800D01*
X78000000Y-63544000D01*
X76000000Y-63544000D01*
X75646771Y-63319800D01*
X74820198Y-63624739D01*
X74173240Y-64222781D01*
X73954706Y-64593267D01*
X47939400Y-64593267D01*
X47960602Y-61349431D01*
X56155808Y-61349431D01*
X56155808Y-61705813D01*
X56579013Y-62129018D01*
X56949496Y-62282477D01*
X57350504Y-62282477D01*
X57720986Y-62129019D01*
X58144192Y-61705813D01*
X58144192Y-61349431D01*
X57150000Y-60355239D01*
X56155808Y-61349431D01*
X47960602Y-61349431D01*
X47974419Y-59235496D01*
X54303523Y-59235496D01*
X54303523Y-59636504D01*
X54456982Y-60006987D01*
X54880187Y-60430192D01*
X55236569Y-60430192D01*
X56230761Y-59436000D01*
X58069239Y-59436000D01*
X59063431Y-60430192D01*
X59419813Y-60430192D01*
X59843019Y-60006986D01*
X59996477Y-59636504D01*
X59996477Y-59235496D01*
X59843018Y-58865013D01*
X59419813Y-58441808D01*
X59063431Y-58441808D01*
X58069239Y-59436000D01*
X56230761Y-59436000D01*
X55236569Y-58441808D01*
X54880187Y-58441808D01*
X54456981Y-58865014D01*
X54303523Y-59235496D01*
X47974419Y-59235496D01*
X47987944Y-57166187D01*
X56155808Y-57166187D01*
X56155808Y-57522569D01*
X57150000Y-58516761D01*
X58144192Y-57522569D01*
X58144192Y-57166187D01*
X57720987Y-56742982D01*
X57350504Y-56589523D01*
X56949496Y-56589523D01*
X56579014Y-56742981D01*
X56155808Y-57166187D01*
X47987944Y-57166187D01*
X47994717Y-56129927D01*
X79364846Y-56376936D01*
M02*
