G04 #@! TF.FileFunction,Copper,L1,Top,Signal*
%FSLAX46Y46*%
G04 Gerber Fmt 4.6, Leading zero omitted, Abs format (unit mm)*
G04 Created by KiCad (PCBNEW 4.0.7) date 05/14/18 04:09:50*
%MOMM*%
%LPD*%
G01*
G04 APERTURE LIST*
%ADD10C,0.100000*%
%ADD11C,10.000000*%
%ADD12C,2.400000*%
%ADD13O,2.400000X2.400000*%
%ADD14R,2.200000X2.200000*%
%ADD15O,2.200000X2.200000*%
%ADD16R,4.500000X2.500000*%
%ADD17O,4.500000X2.500000*%
%ADD18R,3.000000X3.000000*%
%ADD19C,3.000000*%
%ADD20C,4.064000*%
%ADD21C,2.600000*%
%ADD22C,2.200000*%
%ADD23R,2.600000X2.600000*%
%ADD24O,2.600000X2.600000*%
%ADD25C,0.600000*%
%ADD26C,2.000000*%
%ADD27C,1.000000*%
%ADD28C,3.000000*%
%ADD29C,2.000000*%
%ADD30C,5.000000*%
G04 APERTURE END LIST*
D10*
D11*
X87884000Y-138176000D03*
D12*
X72184000Y-111760000D03*
D13*
X59484000Y-111760000D03*
D12*
X72692000Y-130810000D03*
D13*
X59992000Y-130810000D03*
D12*
X117602000Y-67310000D03*
D13*
X130302000Y-67310000D03*
D14*
X130302000Y-102870000D03*
D15*
X117602000Y-102870000D03*
D16*
X77000000Y-91000000D03*
D17*
X77000000Y-85550000D03*
X77000000Y-80100000D03*
D12*
X72438000Y-91186000D03*
D13*
X59738000Y-91186000D03*
D14*
X59992000Y-75692000D03*
D15*
X72692000Y-75692000D03*
D18*
X139192000Y-100076000D03*
D19*
X139192000Y-94996000D03*
D20*
X50000000Y-50000000D03*
X50000000Y-140000000D03*
D16*
X113000000Y-67000000D03*
D17*
X113000000Y-72450000D03*
X113000000Y-77900000D03*
D16*
X77000000Y-71000000D03*
D17*
X77000000Y-65550000D03*
X77000000Y-60100000D03*
D11*
X88392000Y-52578000D03*
X101346000Y-138430000D03*
D20*
X140000000Y-50000000D03*
X140000000Y-140000000D03*
D18*
X50038000Y-99568000D03*
D19*
X50038000Y-94488000D03*
D16*
X113000000Y-87000000D03*
D17*
X113000000Y-92450000D03*
X113000000Y-97900000D03*
D16*
X113000000Y-107000000D03*
D17*
X113000000Y-112450000D03*
X113000000Y-117900000D03*
D16*
X77000000Y-111000000D03*
D17*
X77000000Y-105550000D03*
X77000000Y-100100000D03*
D16*
X113000000Y-127000000D03*
D17*
X113000000Y-132450000D03*
X113000000Y-137900000D03*
D16*
X77000000Y-131000000D03*
D17*
X77000000Y-125550000D03*
X77000000Y-120100000D03*
D11*
X102108000Y-52578000D03*
D14*
X130302000Y-62992000D03*
D15*
X117602000Y-62992000D03*
D14*
X130048000Y-82296000D03*
D15*
X117348000Y-82296000D03*
D14*
X59738000Y-95250000D03*
D15*
X72438000Y-95250000D03*
D14*
X59484000Y-115824000D03*
D15*
X72184000Y-115824000D03*
D14*
X130048000Y-122682000D03*
D15*
X117348000Y-122682000D03*
D14*
X59992000Y-135382000D03*
D15*
X72692000Y-135382000D03*
D12*
X72692000Y-71374000D03*
D13*
X59992000Y-71374000D03*
D12*
X117348000Y-86360000D03*
D13*
X130048000Y-86360000D03*
D12*
X117602000Y-106934000D03*
D13*
X130302000Y-106934000D03*
D12*
X117348000Y-126746000D03*
D13*
X130048000Y-126746000D03*
D10*
G36*
X57150000Y-61274478D02*
X55311522Y-59436000D01*
X57150000Y-57597522D01*
X58988478Y-59436000D01*
X57150000Y-61274478D01*
X57150000Y-61274478D01*
G37*
D21*
X67926307Y-48659693D02*
X67926307Y-48659693D01*
D10*
G36*
X126431522Y-49784000D02*
X128270000Y-47945522D01*
X130108478Y-49784000D01*
X128270000Y-51622478D01*
X126431522Y-49784000D01*
X126431522Y-49784000D01*
G37*
D21*
X139046307Y-60560307D02*
X139046307Y-60560307D01*
D12*
X95504000Y-125984000D03*
X95504000Y-103484000D03*
X95504000Y-96520000D03*
X95504000Y-74020000D03*
D22*
X80518000Y-142240000D03*
X108204000Y-142240000D03*
D23*
X138938000Y-104394000D03*
D24*
X138938000Y-119634000D03*
D23*
X48768000Y-104394000D03*
D24*
X48768000Y-119634000D03*
D25*
X136906000Y-97028000D03*
X134112000Y-99822000D03*
X132080000Y-99822000D03*
X127508000Y-99822000D03*
X132588000Y-109220000D03*
X128016000Y-109220000D03*
X132334000Y-88646000D03*
X127762000Y-88646000D03*
X132334000Y-69850000D03*
X127762000Y-69850000D03*
X132588000Y-114554000D03*
X128016000Y-114554000D03*
X132588000Y-120396000D03*
X127762000Y-120396000D03*
X132334000Y-94234000D03*
X127762000Y-94234000D03*
X132588000Y-74676000D03*
X127762000Y-74676000D03*
X132588000Y-79756000D03*
X127762000Y-79756000D03*
D26*
X94996000Y-80264000D03*
X94996000Y-120142000D03*
X94742000Y-112522000D03*
X94996000Y-66802000D03*
X95504000Y-87884000D03*
D27*
X126238000Y-99822000D02*
X127508000Y-99822000D01*
X136906000Y-97028000D02*
X138938000Y-94996000D01*
X132080000Y-99822000D02*
X134112000Y-99822000D01*
X138938000Y-94996000D02*
X139192000Y-94996000D01*
X126238000Y-109220000D02*
X128016000Y-109220000D01*
X132588000Y-109220000D02*
X133858000Y-109220000D01*
X126238000Y-88646000D02*
X127762000Y-88646000D01*
X132334000Y-88646000D02*
X133096000Y-88646000D01*
X126238000Y-69850000D02*
X127762000Y-69850000D01*
X132334000Y-69850000D02*
X133350000Y-69850000D01*
X126238000Y-114554000D02*
X128016000Y-114554000D01*
X132588000Y-114554000D02*
X133858000Y-114554000D01*
X126238000Y-120396000D02*
X127762000Y-120396000D01*
X132588000Y-120396000D02*
X133350000Y-120396000D01*
X126238000Y-94234000D02*
X127762000Y-94234000D01*
X132334000Y-94234000D02*
X133096000Y-94234000D01*
X126238000Y-74676000D02*
X127762000Y-74676000D01*
X132588000Y-74676000D02*
X133350000Y-74676000D01*
X126238000Y-79756000D02*
X127762000Y-79756000D01*
X132588000Y-79756000D02*
X133350000Y-79756000D01*
X126238000Y-97900000D02*
X126238000Y-99822000D01*
X126238000Y-99822000D02*
X126238000Y-100584000D01*
X126238000Y-100584000D02*
X126238000Y-109220000D01*
X126238000Y-109220000D02*
X126238000Y-108966000D01*
X126238000Y-108966000D02*
X126238000Y-114554000D01*
X126238000Y-114554000D02*
X126238000Y-120396000D01*
X126238000Y-120396000D02*
X126238000Y-128524000D01*
X126238000Y-128524000D02*
X125476000Y-129286000D01*
X113000000Y-97900000D02*
X126238000Y-97900000D01*
X126238000Y-97900000D02*
X126890000Y-97900000D01*
X126238000Y-97248000D02*
X126238000Y-94234000D01*
X126238000Y-94234000D02*
X126238000Y-88646000D01*
X126238000Y-88646000D02*
X126238000Y-88392000D01*
X126238000Y-88392000D02*
X126238000Y-79756000D01*
X126238000Y-79756000D02*
X126238000Y-74676000D01*
X126238000Y-74676000D02*
X126238000Y-69850000D01*
X126238000Y-69850000D02*
X126238000Y-69342000D01*
X126238000Y-69342000D02*
X126238000Y-62230000D01*
X126890000Y-97900000D02*
X126238000Y-97248000D01*
D28*
X101346000Y-138430000D02*
X104902000Y-138430000D01*
X104902000Y-138430000D02*
X106426000Y-135382000D01*
X101346000Y-138430000D02*
X104140000Y-138430000D01*
X104140000Y-138430000D02*
X106426000Y-139192000D01*
X101346000Y-138430000D02*
X101346000Y-139446000D01*
X101346000Y-139446000D02*
X104394000Y-140970000D01*
X104394000Y-140970000D02*
X104394000Y-141478000D01*
X104394000Y-141478000D02*
X101346000Y-138430000D01*
X101346000Y-138430000D02*
X99314000Y-138430000D01*
X99314000Y-138430000D02*
X96774000Y-139446000D01*
X96774000Y-139446000D02*
X98806000Y-140970000D01*
X98806000Y-140970000D02*
X101346000Y-138430000D01*
X101346000Y-138430000D02*
X101346000Y-139954000D01*
X101346000Y-139954000D02*
X98552000Y-141224000D01*
X101346000Y-138430000D02*
X101346000Y-141986000D01*
X101346000Y-138430000D02*
X96774000Y-138430000D01*
X96774000Y-138430000D02*
X96266000Y-137414000D01*
X101346000Y-138430000D02*
X100076000Y-138430000D01*
X100076000Y-138430000D02*
X97028000Y-133858000D01*
X101346000Y-138430000D02*
X101346000Y-136398000D01*
X101346000Y-136398000D02*
X98806000Y-132334000D01*
X101346000Y-138430000D02*
X101346000Y-136144000D01*
X101346000Y-136144000D02*
X103632000Y-132334000D01*
X101346000Y-138430000D02*
X101346000Y-131572000D01*
X101346000Y-138430000D02*
X102362000Y-138430000D01*
X102362000Y-138430000D02*
X105410000Y-133858000D01*
X101346000Y-138430000D02*
X107442000Y-136906000D01*
D27*
X138938000Y-104394000D02*
X138938000Y-100330000D01*
X138938000Y-100330000D02*
X139192000Y-100076000D01*
D29*
X139192000Y-100076000D02*
X137160000Y-100076000D01*
X134366000Y-97282000D02*
X130048000Y-97282000D01*
X137160000Y-100076000D02*
X134366000Y-97282000D01*
X139192000Y-100076000D02*
X138430000Y-100076000D01*
X130048000Y-122682000D02*
X130048000Y-126746000D01*
X130302000Y-106934000D02*
X130302000Y-122428000D01*
X130302000Y-122428000D02*
X130048000Y-122682000D01*
X130048000Y-86360000D02*
X130048000Y-82296000D01*
X130302000Y-67310000D02*
X130302000Y-62992000D01*
X130048000Y-82296000D02*
X130048000Y-67564000D01*
X130048000Y-67564000D02*
X130302000Y-67310000D01*
X130048000Y-86360000D02*
X130048000Y-97282000D01*
X130048000Y-97282000D02*
X130048000Y-102616000D01*
X130048000Y-102616000D02*
X130302000Y-102870000D01*
X130302000Y-106934000D02*
X130302000Y-102870000D01*
X130302000Y-103632000D02*
X130302000Y-102870000D01*
X117602000Y-67310000D02*
X113310000Y-67310000D01*
X113310000Y-67310000D02*
X113000000Y-67000000D01*
X117602000Y-62992000D02*
X117602000Y-67310000D01*
X77000000Y-80100000D02*
X94832000Y-80100000D01*
X94832000Y-80100000D02*
X94996000Y-80264000D01*
X77000000Y-120100000D02*
X94954000Y-120100000D01*
X94954000Y-120100000D02*
X94996000Y-120142000D01*
X77000000Y-100100000D02*
X82320000Y-100100000D01*
X82320000Y-100100000D02*
X94742000Y-112522000D01*
X77000000Y-60100000D02*
X79150000Y-60100000D01*
X79150000Y-60100000D02*
X85852000Y-66802000D01*
X85852000Y-66802000D02*
X94996000Y-66802000D01*
X77000000Y-80100000D02*
X81878000Y-80100000D01*
X89662000Y-87884000D02*
X95504000Y-87884000D01*
X81878000Y-80100000D02*
X89662000Y-87884000D01*
D30*
X88392000Y-52578000D02*
X88392000Y-58928000D01*
X95504000Y-52578000D02*
X102108000Y-52578000D01*
X102108000Y-52578000D02*
X95504000Y-52578000D01*
X95504000Y-52578000D02*
X93726000Y-50800000D01*
X93726000Y-50800000D02*
X93726000Y-52578000D01*
X102108000Y-52578000D02*
X99568000Y-52578000D01*
X99568000Y-52578000D02*
X96774000Y-55372000D01*
X88392000Y-52578000D02*
X91440000Y-52578000D01*
X91440000Y-52578000D02*
X88392000Y-52578000D01*
X88392000Y-52578000D02*
X85090000Y-52578000D01*
X85090000Y-52578000D02*
X82296000Y-55372000D01*
X88392000Y-52578000D02*
X82550000Y-52578000D01*
X102108000Y-52578000D02*
X93726000Y-52578000D01*
X93726000Y-52578000D02*
X88392000Y-52578000D01*
X102108000Y-52578000D02*
X102108000Y-58674000D01*
X102108000Y-58674000D02*
X101346000Y-59436000D01*
X102108000Y-52578000D02*
X110236000Y-52578000D01*
X110236000Y-52578000D02*
X110490000Y-52324000D01*
D29*
X117348000Y-86360000D02*
X113640000Y-86360000D01*
X113640000Y-86360000D02*
X113000000Y-87000000D01*
X117348000Y-82296000D02*
X117348000Y-86360000D01*
X117602000Y-106934000D02*
X113066000Y-106934000D01*
X113066000Y-106934000D02*
X113000000Y-107000000D01*
X117602000Y-102870000D02*
X117602000Y-106934000D01*
X117348000Y-126746000D02*
X113254000Y-126746000D01*
X113254000Y-126746000D02*
X113000000Y-127000000D01*
X117348000Y-122682000D02*
X117348000Y-126746000D01*
X78740000Y-131318000D02*
X78994000Y-131572000D01*
X79248000Y-131318000D02*
X78994000Y-131572000D01*
D27*
G36*
X136820678Y-60045512D02*
X136741145Y-60445258D01*
X136872587Y-61336163D01*
X137198911Y-61488465D01*
X138127068Y-60560307D01*
X137865439Y-60298678D01*
X138090078Y-60074038D01*
X140046500Y-60118002D01*
X140227175Y-60298677D01*
X139965546Y-60560307D01*
X140885172Y-61479933D01*
X141220000Y-61336143D01*
X141351469Y-60675356D01*
X141273306Y-60145571D01*
X142443000Y-60171856D01*
X142443000Y-133447660D01*
X134309227Y-134377234D01*
X134120430Y-134438460D01*
X133970328Y-134568315D01*
X133882572Y-134746337D01*
X133866260Y-134890121D01*
X134103745Y-142252147D01*
X110308319Y-142444045D01*
X110352722Y-142190234D01*
X110208205Y-141463697D01*
X109876894Y-141344923D01*
X108981817Y-142240000D01*
X109194842Y-142453025D01*
X107197047Y-142469136D01*
X107426183Y-142240000D01*
X107093843Y-141907660D01*
X107871660Y-141129843D01*
X108204000Y-141462183D01*
X109099077Y-140567106D01*
X108980303Y-140235795D01*
X108154234Y-140091278D01*
X107583100Y-140204884D01*
X107398251Y-140020035D01*
X107041936Y-140376350D01*
X107455992Y-138868464D01*
X107454522Y-138856733D01*
X109954706Y-138856733D01*
X110173240Y-139227219D01*
X110820198Y-139825261D01*
X111646771Y-140130200D01*
X112000000Y-139906000D01*
X112000000Y-138525000D01*
X114000000Y-138525000D01*
X114000000Y-139906000D01*
X114353229Y-140130200D01*
X115179802Y-139825261D01*
X115826760Y-139227219D01*
X116045294Y-138856733D01*
X115906151Y-138525000D01*
X114000000Y-138525000D01*
X112000000Y-138525000D01*
X110093849Y-138525000D01*
X109954706Y-138856733D01*
X107454522Y-138856733D01*
X107214648Y-136943267D01*
X109954706Y-136943267D01*
X110093849Y-137275000D01*
X112000000Y-137275000D01*
X112000000Y-135894000D01*
X114000000Y-135894000D01*
X114000000Y-137275000D01*
X115906151Y-137275000D01*
X116045294Y-136943267D01*
X115826760Y-136572781D01*
X115179802Y-135974739D01*
X114353229Y-135669800D01*
X114000000Y-135894000D01*
X112000000Y-135894000D01*
X111646771Y-135669800D01*
X110820198Y-135974739D01*
X110173240Y-136572781D01*
X109954706Y-136943267D01*
X107214648Y-136943267D01*
X107158690Y-136496895D01*
X106823104Y-135686719D01*
X106145808Y-135044406D01*
X102760214Y-138430000D01*
X102774356Y-138444142D01*
X101360142Y-139858356D01*
X101346000Y-139844214D01*
X101331858Y-139858356D01*
X99917644Y-138444142D01*
X99931786Y-138430000D01*
X96546192Y-135044406D01*
X95868896Y-135686719D01*
X95750000Y-136119708D01*
X95750000Y-134366000D01*
X95710607Y-134171472D01*
X95598635Y-134007596D01*
X95431729Y-133900195D01*
X95250000Y-133866000D01*
X92765893Y-133866000D01*
X92530497Y-133630192D01*
X97960406Y-133630192D01*
X101346000Y-137015786D01*
X104731594Y-133630192D01*
X104089281Y-132952896D01*
X102257862Y-132450000D01*
X109176533Y-132450000D01*
X109385864Y-133502379D01*
X109981989Y-134394544D01*
X110874154Y-134990669D01*
X111926533Y-135200000D01*
X114073467Y-135200000D01*
X115125846Y-134990669D01*
X116018011Y-134394544D01*
X116614136Y-133502379D01*
X116823467Y-132450000D01*
X116614136Y-131397621D01*
X116018011Y-130505456D01*
X115125846Y-129909331D01*
X114472568Y-129779386D01*
X115250000Y-129779386D01*
X115805867Y-129674793D01*
X116316396Y-129346276D01*
X116372346Y-129264390D01*
X116808581Y-129445530D01*
X117882707Y-129446468D01*
X118875429Y-129036283D01*
X119635614Y-128277424D01*
X120047530Y-127285419D01*
X120048468Y-126211293D01*
X119848000Y-125726124D01*
X119848000Y-123440812D01*
X119998937Y-122682000D01*
X119801024Y-121687023D01*
X119237415Y-120843522D01*
X118393914Y-120279913D01*
X117398937Y-120082000D01*
X117297063Y-120082000D01*
X116302086Y-120279913D01*
X115458585Y-120843522D01*
X114894976Y-121687023D01*
X114697063Y-122682000D01*
X114848000Y-123440812D01*
X114848000Y-124220614D01*
X110750000Y-124220614D01*
X110194133Y-124325207D01*
X109683604Y-124653724D01*
X109341108Y-125154983D01*
X109220614Y-125750000D01*
X109220614Y-128250000D01*
X109325207Y-128805867D01*
X109653724Y-129316396D01*
X110154983Y-129658892D01*
X110750000Y-129779386D01*
X111527432Y-129779386D01*
X110874154Y-129909331D01*
X109981989Y-130505456D01*
X109385864Y-131397621D01*
X109176533Y-132450000D01*
X102257862Y-132450000D01*
X101784464Y-132320008D01*
X99412895Y-132617310D01*
X98602719Y-132952896D01*
X97960406Y-133630192D01*
X92530497Y-133630192D01*
X91945512Y-133044186D01*
X91972701Y-126518707D01*
X92803532Y-126518707D01*
X93213717Y-127511429D01*
X93972576Y-128271614D01*
X94964581Y-128683530D01*
X96038707Y-128684468D01*
X97031429Y-128274283D01*
X97791614Y-127515424D01*
X98203530Y-126523419D01*
X98204468Y-125449293D01*
X97794283Y-124456571D01*
X97035424Y-123696386D01*
X96043419Y-123284470D01*
X94969293Y-123283532D01*
X93976571Y-123693717D01*
X93216386Y-124452576D01*
X92804470Y-125444581D01*
X92803532Y-126518707D01*
X91972701Y-126518707D01*
X91989030Y-122600000D01*
X94396438Y-122600000D01*
X94496538Y-122641565D01*
X95491099Y-122642433D01*
X96410286Y-122262633D01*
X97114161Y-121559985D01*
X97495565Y-120641462D01*
X97496433Y-119646901D01*
X97169943Y-118856733D01*
X109954706Y-118856733D01*
X110173240Y-119227219D01*
X110820198Y-119825261D01*
X111646771Y-120130200D01*
X112000000Y-119906000D01*
X112000000Y-118525000D01*
X114000000Y-118525000D01*
X114000000Y-119906000D01*
X114353229Y-120130200D01*
X115179802Y-119825261D01*
X115826760Y-119227219D01*
X116045294Y-118856733D01*
X115906151Y-118525000D01*
X114000000Y-118525000D01*
X112000000Y-118525000D01*
X110093849Y-118525000D01*
X109954706Y-118856733D01*
X97169943Y-118856733D01*
X97116633Y-118727714D01*
X96413985Y-118023839D01*
X96007804Y-117855178D01*
X95910709Y-117790301D01*
X95797178Y-117767718D01*
X95495462Y-117642435D01*
X95165889Y-117642147D01*
X94954000Y-117600000D01*
X92009863Y-117600000D01*
X92012599Y-116943267D01*
X109954706Y-116943267D01*
X110093849Y-117275000D01*
X112000000Y-117275000D01*
X112000000Y-115894000D01*
X114000000Y-115894000D01*
X114000000Y-117275000D01*
X115906151Y-117275000D01*
X116045294Y-116943267D01*
X115826760Y-116572781D01*
X115179802Y-115974739D01*
X114353229Y-115669800D01*
X114000000Y-115894000D01*
X112000000Y-115894000D01*
X111646771Y-115669800D01*
X110820198Y-115974739D01*
X110173240Y-116572781D01*
X109954706Y-116943267D01*
X92012599Y-116943267D01*
X92027600Y-113343134D01*
X92973550Y-114289084D01*
X93324015Y-114640161D01*
X94242538Y-115021565D01*
X95237099Y-115022433D01*
X96156286Y-114642633D01*
X96860161Y-113939985D01*
X97241565Y-113021462D01*
X97242063Y-112450000D01*
X109176533Y-112450000D01*
X109385864Y-113502379D01*
X109981989Y-114394544D01*
X110874154Y-114990669D01*
X111926533Y-115200000D01*
X114073467Y-115200000D01*
X115125846Y-114990669D01*
X116018011Y-114394544D01*
X116614136Y-113502379D01*
X116823467Y-112450000D01*
X116614136Y-111397621D01*
X116018011Y-110505456D01*
X115125846Y-109909331D01*
X114472568Y-109779386D01*
X115250000Y-109779386D01*
X115805867Y-109674793D01*
X116180069Y-109434000D01*
X116582059Y-109434000D01*
X117062581Y-109633530D01*
X118136707Y-109634468D01*
X119129429Y-109224283D01*
X119889614Y-108465424D01*
X120301530Y-107473419D01*
X120302468Y-106399293D01*
X120102000Y-105914124D01*
X120102000Y-103628812D01*
X120252937Y-102870000D01*
X120055024Y-101875023D01*
X119491415Y-101031522D01*
X118647914Y-100467913D01*
X117652937Y-100270000D01*
X117551063Y-100270000D01*
X116556086Y-100467913D01*
X115712585Y-101031522D01*
X115148976Y-101875023D01*
X114951063Y-102870000D01*
X115102000Y-103628812D01*
X115102000Y-104220614D01*
X110750000Y-104220614D01*
X110194133Y-104325207D01*
X109683604Y-104653724D01*
X109341108Y-105154983D01*
X109220614Y-105750000D01*
X109220614Y-108250000D01*
X109325207Y-108805867D01*
X109653724Y-109316396D01*
X110154983Y-109658892D01*
X110750000Y-109779386D01*
X111527432Y-109779386D01*
X110874154Y-109909331D01*
X109981989Y-110505456D01*
X109385864Y-111397621D01*
X109176533Y-112450000D01*
X97242063Y-112450000D01*
X97242433Y-112026901D01*
X96862633Y-111107714D01*
X96159985Y-110403839D01*
X96158938Y-110403404D01*
X92056941Y-106301407D01*
X92061293Y-105256787D01*
X94579741Y-105256787D01*
X94714017Y-105592100D01*
X95580886Y-105733944D01*
X96293983Y-105592100D01*
X96428259Y-105256787D01*
X95504000Y-104332528D01*
X94579741Y-105256787D01*
X92061293Y-105256787D01*
X92068359Y-103560886D01*
X93254056Y-103560886D01*
X93395900Y-104273983D01*
X93731213Y-104408259D01*
X94655472Y-103484000D01*
X96352528Y-103484000D01*
X97276787Y-104408259D01*
X97612100Y-104273983D01*
X97753944Y-103407114D01*
X97612100Y-102694017D01*
X97276787Y-102559741D01*
X96352528Y-103484000D01*
X94655472Y-103484000D01*
X93731213Y-102559741D01*
X93395900Y-102694017D01*
X93254056Y-103560886D01*
X92068359Y-103560886D01*
X92076065Y-101711213D01*
X94579741Y-101711213D01*
X95504000Y-102635472D01*
X96428259Y-101711213D01*
X96293983Y-101375900D01*
X95427114Y-101234056D01*
X94714017Y-101375900D01*
X94579741Y-101711213D01*
X92076065Y-101711213D01*
X92095468Y-97054707D01*
X92803532Y-97054707D01*
X93213717Y-98047429D01*
X93972576Y-98807614D01*
X94964581Y-99219530D01*
X96038707Y-99220468D01*
X96919011Y-98856733D01*
X109954706Y-98856733D01*
X110173240Y-99227219D01*
X110820198Y-99825261D01*
X111646771Y-100130200D01*
X112000000Y-99906000D01*
X112000000Y-98525000D01*
X114000000Y-98525000D01*
X114000000Y-99906000D01*
X114353229Y-100130200D01*
X115179802Y-99825261D01*
X115826760Y-99227219D01*
X116045294Y-98856733D01*
X115906151Y-98525000D01*
X114000000Y-98525000D01*
X112000000Y-98525000D01*
X110093849Y-98525000D01*
X109954706Y-98856733D01*
X96919011Y-98856733D01*
X97031429Y-98810283D01*
X97791614Y-98051424D01*
X98203530Y-97059419D01*
X98203631Y-96943267D01*
X109954706Y-96943267D01*
X110093849Y-97275000D01*
X112000000Y-97275000D01*
X112000000Y-95894000D01*
X114000000Y-95894000D01*
X114000000Y-97275000D01*
X115906151Y-97275000D01*
X116045294Y-96943267D01*
X115826760Y-96572781D01*
X115179802Y-95974739D01*
X114353229Y-95669800D01*
X114000000Y-95894000D01*
X112000000Y-95894000D01*
X111646771Y-95669800D01*
X110820198Y-95974739D01*
X110173240Y-96572781D01*
X109954706Y-96943267D01*
X98203631Y-96943267D01*
X98204468Y-95985293D01*
X97794283Y-94992571D01*
X97035424Y-94232386D01*
X96043419Y-93820470D01*
X94969293Y-93819532D01*
X93976571Y-94229717D01*
X93216386Y-94988576D01*
X92804470Y-95980581D01*
X92803532Y-97054707D01*
X92095468Y-97054707D01*
X92114654Y-92450000D01*
X109176533Y-92450000D01*
X109385864Y-93502379D01*
X109981989Y-94394544D01*
X110874154Y-94990669D01*
X111926533Y-95200000D01*
X114073467Y-95200000D01*
X115125846Y-94990669D01*
X116018011Y-94394544D01*
X116614136Y-93502379D01*
X116823467Y-92450000D01*
X116614136Y-91397621D01*
X116018011Y-90505456D01*
X115125846Y-89909331D01*
X114472568Y-89779386D01*
X115250000Y-89779386D01*
X115805867Y-89674793D01*
X116316396Y-89346276D01*
X116577799Y-88963701D01*
X116808581Y-89059530D01*
X117882707Y-89060468D01*
X118875429Y-88650283D01*
X119635614Y-87891424D01*
X120047530Y-86899419D01*
X120048001Y-86360000D01*
X127295104Y-86360000D01*
X127500629Y-87393245D01*
X127548000Y-87464141D01*
X127548000Y-102616000D01*
X127672614Y-103242478D01*
X127672614Y-103970000D01*
X127777207Y-104525867D01*
X127802000Y-104564396D01*
X127802000Y-105829859D01*
X127754629Y-105900755D01*
X127549104Y-106934000D01*
X127754629Y-107967245D01*
X127802000Y-108038141D01*
X127802000Y-120602228D01*
X127539108Y-120986983D01*
X127418614Y-121582000D01*
X127418614Y-123782000D01*
X127523207Y-124337867D01*
X127548000Y-124376396D01*
X127548000Y-125641859D01*
X127500629Y-125712755D01*
X127295104Y-126746000D01*
X127500629Y-127779245D01*
X128085916Y-128655188D01*
X128961859Y-129240475D01*
X129995104Y-129446000D01*
X130100896Y-129446000D01*
X131134141Y-129240475D01*
X132010084Y-128655188D01*
X132595371Y-127779245D01*
X132800896Y-126746000D01*
X132595371Y-125712755D01*
X132548000Y-125641859D01*
X132548000Y-124390031D01*
X132556892Y-124377017D01*
X132677386Y-123782000D01*
X132677386Y-123054478D01*
X132802000Y-122428000D01*
X132802000Y-120622439D01*
X136852335Y-120622439D01*
X137389356Y-121345348D01*
X137949566Y-121719632D01*
X138288000Y-121584548D01*
X138288000Y-120284000D01*
X139588000Y-120284000D01*
X139588000Y-121584548D01*
X139926434Y-121719632D01*
X140486644Y-121345348D01*
X141023665Y-120622439D01*
X140900613Y-120284000D01*
X139588000Y-120284000D01*
X138288000Y-120284000D01*
X136975387Y-120284000D01*
X136852335Y-120622439D01*
X132802000Y-120622439D01*
X132802000Y-118645561D01*
X136852335Y-118645561D01*
X136975387Y-118984000D01*
X138288000Y-118984000D01*
X138288000Y-117683452D01*
X139588000Y-117683452D01*
X139588000Y-118984000D01*
X140900613Y-118984000D01*
X141023665Y-118645561D01*
X140486644Y-117922652D01*
X139926434Y-117548368D01*
X139588000Y-117683452D01*
X138288000Y-117683452D01*
X137949566Y-117548368D01*
X137389356Y-117922652D01*
X136852335Y-118645561D01*
X132802000Y-118645561D01*
X132802000Y-108038141D01*
X132849371Y-107967245D01*
X133054896Y-106934000D01*
X132849371Y-105900755D01*
X132802000Y-105829859D01*
X132802000Y-104578031D01*
X132810892Y-104565017D01*
X132931386Y-103970000D01*
X132931386Y-101770000D01*
X132826793Y-101214133D01*
X132548000Y-100780877D01*
X132548000Y-99782000D01*
X133330466Y-99782000D01*
X135392233Y-101843767D01*
X136203291Y-102385699D01*
X136294161Y-102403774D01*
X136229108Y-102498983D01*
X136108614Y-103094000D01*
X136108614Y-105694000D01*
X136213207Y-106249867D01*
X136541724Y-106760396D01*
X137042983Y-107102892D01*
X137638000Y-107223386D01*
X140238000Y-107223386D01*
X140793867Y-107118793D01*
X141304396Y-106790276D01*
X141646892Y-106289017D01*
X141767386Y-105694000D01*
X141767386Y-103094000D01*
X141695633Y-102712663D01*
X141758396Y-102672276D01*
X142100892Y-102171017D01*
X142221386Y-101576000D01*
X142221386Y-98576000D01*
X142116793Y-98020133D01*
X141788276Y-97509604D01*
X141287017Y-97167108D01*
X140692000Y-97046614D01*
X140181954Y-97046614D01*
X139192000Y-96056660D01*
X139001081Y-96247579D01*
X137940421Y-95186919D01*
X138131340Y-94996000D01*
X140252660Y-94996000D01*
X141263620Y-96006960D01*
X141610623Y-95826182D01*
X141744214Y-94837421D01*
X141610623Y-94165818D01*
X141263620Y-93985040D01*
X140252660Y-94996000D01*
X138131340Y-94996000D01*
X137120380Y-93985040D01*
X136773377Y-94165818D01*
X136639786Y-95154579D01*
X136773377Y-95826182D01*
X136887925Y-95885858D01*
X136696659Y-96077125D01*
X136133767Y-95514233D01*
X135663484Y-95200000D01*
X135322709Y-94972301D01*
X134366000Y-94782000D01*
X132548000Y-94782000D01*
X132548000Y-92924380D01*
X138181040Y-92924380D01*
X139192000Y-93935340D01*
X140202960Y-92924380D01*
X140022182Y-92577377D01*
X139033421Y-92443786D01*
X138361818Y-92577377D01*
X138181040Y-92924380D01*
X132548000Y-92924380D01*
X132548000Y-87464141D01*
X132595371Y-87393245D01*
X132800896Y-86360000D01*
X132595371Y-85326755D01*
X132548000Y-85255859D01*
X132548000Y-84004031D01*
X132556892Y-83991017D01*
X132677386Y-83396000D01*
X132677386Y-81196000D01*
X132572793Y-80640133D01*
X132548000Y-80601604D01*
X132548000Y-68794278D01*
X132849371Y-68343245D01*
X133054896Y-67310000D01*
X132849371Y-66276755D01*
X132802000Y-66205859D01*
X132802000Y-64700031D01*
X132810892Y-64687017D01*
X132931386Y-64092000D01*
X132931386Y-62407703D01*
X138118149Y-62407703D01*
X138270451Y-62734027D01*
X139161356Y-62865469D01*
X139822143Y-62734000D01*
X139965933Y-62399172D01*
X139046307Y-61479546D01*
X138118149Y-62407703D01*
X132931386Y-62407703D01*
X132931386Y-61892000D01*
X132826793Y-61336133D01*
X132498276Y-60825604D01*
X131997017Y-60483108D01*
X131402000Y-60362614D01*
X129202000Y-60362614D01*
X128646133Y-60467207D01*
X128135604Y-60795724D01*
X127793108Y-61296983D01*
X127672614Y-61892000D01*
X127672614Y-64092000D01*
X127777207Y-64647867D01*
X127802000Y-64686396D01*
X127802000Y-66205859D01*
X127754629Y-66276755D01*
X127549104Y-67310000D01*
X127573814Y-67434225D01*
X127548000Y-67564000D01*
X127548000Y-80587969D01*
X127539108Y-80600983D01*
X127418614Y-81196000D01*
X127418614Y-83396000D01*
X127523207Y-83951867D01*
X127548000Y-83990396D01*
X127548000Y-85255859D01*
X127500629Y-85326755D01*
X127295104Y-86360000D01*
X120048001Y-86360000D01*
X120048468Y-85825293D01*
X119848000Y-85340124D01*
X119848000Y-83054812D01*
X119998937Y-82296000D01*
X119801024Y-81301023D01*
X119237415Y-80457522D01*
X118393914Y-79893913D01*
X117398937Y-79696000D01*
X117297063Y-79696000D01*
X116302086Y-79893913D01*
X115458585Y-80457522D01*
X114894976Y-81301023D01*
X114697063Y-82296000D01*
X114848000Y-83054812D01*
X114848000Y-83860000D01*
X113640000Y-83860000D01*
X112683291Y-84050301D01*
X112428400Y-84220614D01*
X110750000Y-84220614D01*
X110194133Y-84325207D01*
X109683604Y-84653724D01*
X109341108Y-85154983D01*
X109220614Y-85750000D01*
X109220614Y-88250000D01*
X109325207Y-88805867D01*
X109653724Y-89316396D01*
X110154983Y-89658892D01*
X110750000Y-89779386D01*
X111527432Y-89779386D01*
X110874154Y-89909331D01*
X109981989Y-90505456D01*
X109385864Y-91397621D01*
X109176533Y-92450000D01*
X92114654Y-92450000D01*
X92123263Y-90384000D01*
X95502964Y-90384000D01*
X95999099Y-90384433D01*
X96918286Y-90004633D01*
X97622161Y-89301985D01*
X98003565Y-88383462D01*
X98004433Y-87388901D01*
X97624633Y-86469714D01*
X96921985Y-85765839D01*
X96003462Y-85384435D01*
X95008901Y-85383567D01*
X95007853Y-85384000D01*
X92144097Y-85384000D01*
X92155697Y-82600000D01*
X94102630Y-82600000D01*
X94496538Y-82763565D01*
X95491099Y-82764433D01*
X96410286Y-82384633D01*
X97114161Y-81681985D01*
X97495565Y-80763462D01*
X97496433Y-79768901D01*
X97119534Y-78856733D01*
X109954706Y-78856733D01*
X110173240Y-79227219D01*
X110820198Y-79825261D01*
X111646771Y-80130200D01*
X112000000Y-79906000D01*
X112000000Y-78525000D01*
X114000000Y-78525000D01*
X114000000Y-79906000D01*
X114353229Y-80130200D01*
X115179802Y-79825261D01*
X115826760Y-79227219D01*
X116045294Y-78856733D01*
X115906151Y-78525000D01*
X114000000Y-78525000D01*
X112000000Y-78525000D01*
X110093849Y-78525000D01*
X109954706Y-78856733D01*
X97119534Y-78856733D01*
X97116633Y-78849714D01*
X96413985Y-78145839D01*
X96167849Y-78043634D01*
X95788709Y-77790301D01*
X94832000Y-77600000D01*
X92176530Y-77600000D01*
X92179266Y-76943267D01*
X109954706Y-76943267D01*
X110093849Y-77275000D01*
X112000000Y-77275000D01*
X112000000Y-75894000D01*
X114000000Y-75894000D01*
X114000000Y-77275000D01*
X115906151Y-77275000D01*
X116045294Y-76943267D01*
X115826760Y-76572781D01*
X115179802Y-75974739D01*
X114353229Y-75669800D01*
X114000000Y-75894000D01*
X112000000Y-75894000D01*
X111646771Y-75669800D01*
X110820198Y-75974739D01*
X110173240Y-76572781D01*
X109954706Y-76943267D01*
X92179266Y-76943267D01*
X92184060Y-75792787D01*
X94579741Y-75792787D01*
X94714017Y-76128100D01*
X95580886Y-76269944D01*
X96293983Y-76128100D01*
X96428259Y-75792787D01*
X95504000Y-74868528D01*
X94579741Y-75792787D01*
X92184060Y-75792787D01*
X92192887Y-73674334D01*
X93653506Y-72700588D01*
X93211939Y-73142155D01*
X93382387Y-73312603D01*
X93254056Y-74096886D01*
X93395900Y-74809983D01*
X93731213Y-74944259D01*
X94655472Y-74020000D01*
X96352528Y-74020000D01*
X97276787Y-74944259D01*
X97612100Y-74809983D01*
X97753944Y-73943114D01*
X97612100Y-73230017D01*
X97276787Y-73095741D01*
X96352528Y-74020000D01*
X94655472Y-74020000D01*
X94358487Y-73723015D01*
X95207015Y-72874487D01*
X95504000Y-73171472D01*
X96428259Y-72247213D01*
X96293983Y-71911900D01*
X95427114Y-71770056D01*
X94888640Y-71877165D01*
X95781350Y-71282025D01*
X95921356Y-71141344D01*
X95995598Y-70957275D01*
X95993987Y-70858000D01*
X109474000Y-70858000D01*
X109668528Y-70818607D01*
X109827553Y-70711553D01*
X109877961Y-70661145D01*
X109385864Y-71397621D01*
X109176533Y-72450000D01*
X109385864Y-73502379D01*
X109981989Y-74394544D01*
X110874154Y-74990669D01*
X111926533Y-75200000D01*
X114073467Y-75200000D01*
X115125846Y-74990669D01*
X116018011Y-74394544D01*
X116614136Y-73502379D01*
X116823467Y-72450000D01*
X116614136Y-71397621D01*
X116018011Y-70505456D01*
X115125846Y-69909331D01*
X114626475Y-69810000D01*
X116582059Y-69810000D01*
X117062581Y-70009530D01*
X118136707Y-70010468D01*
X119129429Y-69600283D01*
X119889614Y-68841424D01*
X120301530Y-67849419D01*
X120302468Y-66775293D01*
X120102000Y-66290124D01*
X120102000Y-63750812D01*
X120252937Y-62992000D01*
X120055024Y-61997023D01*
X119491415Y-61153522D01*
X119427974Y-61111132D01*
X120852431Y-59686675D01*
X136820678Y-60045512D01*
X136820678Y-60045512D01*
G37*
X136820678Y-60045512D02*
X136741145Y-60445258D01*
X136872587Y-61336163D01*
X137198911Y-61488465D01*
X138127068Y-60560307D01*
X137865439Y-60298678D01*
X138090078Y-60074038D01*
X140046500Y-60118002D01*
X140227175Y-60298677D01*
X139965546Y-60560307D01*
X140885172Y-61479933D01*
X141220000Y-61336143D01*
X141351469Y-60675356D01*
X141273306Y-60145571D01*
X142443000Y-60171856D01*
X142443000Y-133447660D01*
X134309227Y-134377234D01*
X134120430Y-134438460D01*
X133970328Y-134568315D01*
X133882572Y-134746337D01*
X133866260Y-134890121D01*
X134103745Y-142252147D01*
X110308319Y-142444045D01*
X110352722Y-142190234D01*
X110208205Y-141463697D01*
X109876894Y-141344923D01*
X108981817Y-142240000D01*
X109194842Y-142453025D01*
X107197047Y-142469136D01*
X107426183Y-142240000D01*
X107093843Y-141907660D01*
X107871660Y-141129843D01*
X108204000Y-141462183D01*
X109099077Y-140567106D01*
X108980303Y-140235795D01*
X108154234Y-140091278D01*
X107583100Y-140204884D01*
X107398251Y-140020035D01*
X107041936Y-140376350D01*
X107455992Y-138868464D01*
X107454522Y-138856733D01*
X109954706Y-138856733D01*
X110173240Y-139227219D01*
X110820198Y-139825261D01*
X111646771Y-140130200D01*
X112000000Y-139906000D01*
X112000000Y-138525000D01*
X114000000Y-138525000D01*
X114000000Y-139906000D01*
X114353229Y-140130200D01*
X115179802Y-139825261D01*
X115826760Y-139227219D01*
X116045294Y-138856733D01*
X115906151Y-138525000D01*
X114000000Y-138525000D01*
X112000000Y-138525000D01*
X110093849Y-138525000D01*
X109954706Y-138856733D01*
X107454522Y-138856733D01*
X107214648Y-136943267D01*
X109954706Y-136943267D01*
X110093849Y-137275000D01*
X112000000Y-137275000D01*
X112000000Y-135894000D01*
X114000000Y-135894000D01*
X114000000Y-137275000D01*
X115906151Y-137275000D01*
X116045294Y-136943267D01*
X115826760Y-136572781D01*
X115179802Y-135974739D01*
X114353229Y-135669800D01*
X114000000Y-135894000D01*
X112000000Y-135894000D01*
X111646771Y-135669800D01*
X110820198Y-135974739D01*
X110173240Y-136572781D01*
X109954706Y-136943267D01*
X107214648Y-136943267D01*
X107158690Y-136496895D01*
X106823104Y-135686719D01*
X106145808Y-135044406D01*
X102760214Y-138430000D01*
X102774356Y-138444142D01*
X101360142Y-139858356D01*
X101346000Y-139844214D01*
X101331858Y-139858356D01*
X99917644Y-138444142D01*
X99931786Y-138430000D01*
X96546192Y-135044406D01*
X95868896Y-135686719D01*
X95750000Y-136119708D01*
X95750000Y-134366000D01*
X95710607Y-134171472D01*
X95598635Y-134007596D01*
X95431729Y-133900195D01*
X95250000Y-133866000D01*
X92765893Y-133866000D01*
X92530497Y-133630192D01*
X97960406Y-133630192D01*
X101346000Y-137015786D01*
X104731594Y-133630192D01*
X104089281Y-132952896D01*
X102257862Y-132450000D01*
X109176533Y-132450000D01*
X109385864Y-133502379D01*
X109981989Y-134394544D01*
X110874154Y-134990669D01*
X111926533Y-135200000D01*
X114073467Y-135200000D01*
X115125846Y-134990669D01*
X116018011Y-134394544D01*
X116614136Y-133502379D01*
X116823467Y-132450000D01*
X116614136Y-131397621D01*
X116018011Y-130505456D01*
X115125846Y-129909331D01*
X114472568Y-129779386D01*
X115250000Y-129779386D01*
X115805867Y-129674793D01*
X116316396Y-129346276D01*
X116372346Y-129264390D01*
X116808581Y-129445530D01*
X117882707Y-129446468D01*
X118875429Y-129036283D01*
X119635614Y-128277424D01*
X120047530Y-127285419D01*
X120048468Y-126211293D01*
X119848000Y-125726124D01*
X119848000Y-123440812D01*
X119998937Y-122682000D01*
X119801024Y-121687023D01*
X119237415Y-120843522D01*
X118393914Y-120279913D01*
X117398937Y-120082000D01*
X117297063Y-120082000D01*
X116302086Y-120279913D01*
X115458585Y-120843522D01*
X114894976Y-121687023D01*
X114697063Y-122682000D01*
X114848000Y-123440812D01*
X114848000Y-124220614D01*
X110750000Y-124220614D01*
X110194133Y-124325207D01*
X109683604Y-124653724D01*
X109341108Y-125154983D01*
X109220614Y-125750000D01*
X109220614Y-128250000D01*
X109325207Y-128805867D01*
X109653724Y-129316396D01*
X110154983Y-129658892D01*
X110750000Y-129779386D01*
X111527432Y-129779386D01*
X110874154Y-129909331D01*
X109981989Y-130505456D01*
X109385864Y-131397621D01*
X109176533Y-132450000D01*
X102257862Y-132450000D01*
X101784464Y-132320008D01*
X99412895Y-132617310D01*
X98602719Y-132952896D01*
X97960406Y-133630192D01*
X92530497Y-133630192D01*
X91945512Y-133044186D01*
X91972701Y-126518707D01*
X92803532Y-126518707D01*
X93213717Y-127511429D01*
X93972576Y-128271614D01*
X94964581Y-128683530D01*
X96038707Y-128684468D01*
X97031429Y-128274283D01*
X97791614Y-127515424D01*
X98203530Y-126523419D01*
X98204468Y-125449293D01*
X97794283Y-124456571D01*
X97035424Y-123696386D01*
X96043419Y-123284470D01*
X94969293Y-123283532D01*
X93976571Y-123693717D01*
X93216386Y-124452576D01*
X92804470Y-125444581D01*
X92803532Y-126518707D01*
X91972701Y-126518707D01*
X91989030Y-122600000D01*
X94396438Y-122600000D01*
X94496538Y-122641565D01*
X95491099Y-122642433D01*
X96410286Y-122262633D01*
X97114161Y-121559985D01*
X97495565Y-120641462D01*
X97496433Y-119646901D01*
X97169943Y-118856733D01*
X109954706Y-118856733D01*
X110173240Y-119227219D01*
X110820198Y-119825261D01*
X111646771Y-120130200D01*
X112000000Y-119906000D01*
X112000000Y-118525000D01*
X114000000Y-118525000D01*
X114000000Y-119906000D01*
X114353229Y-120130200D01*
X115179802Y-119825261D01*
X115826760Y-119227219D01*
X116045294Y-118856733D01*
X115906151Y-118525000D01*
X114000000Y-118525000D01*
X112000000Y-118525000D01*
X110093849Y-118525000D01*
X109954706Y-118856733D01*
X97169943Y-118856733D01*
X97116633Y-118727714D01*
X96413985Y-118023839D01*
X96007804Y-117855178D01*
X95910709Y-117790301D01*
X95797178Y-117767718D01*
X95495462Y-117642435D01*
X95165889Y-117642147D01*
X94954000Y-117600000D01*
X92009863Y-117600000D01*
X92012599Y-116943267D01*
X109954706Y-116943267D01*
X110093849Y-117275000D01*
X112000000Y-117275000D01*
X112000000Y-115894000D01*
X114000000Y-115894000D01*
X114000000Y-117275000D01*
X115906151Y-117275000D01*
X116045294Y-116943267D01*
X115826760Y-116572781D01*
X115179802Y-115974739D01*
X114353229Y-115669800D01*
X114000000Y-115894000D01*
X112000000Y-115894000D01*
X111646771Y-115669800D01*
X110820198Y-115974739D01*
X110173240Y-116572781D01*
X109954706Y-116943267D01*
X92012599Y-116943267D01*
X92027600Y-113343134D01*
X92973550Y-114289084D01*
X93324015Y-114640161D01*
X94242538Y-115021565D01*
X95237099Y-115022433D01*
X96156286Y-114642633D01*
X96860161Y-113939985D01*
X97241565Y-113021462D01*
X97242063Y-112450000D01*
X109176533Y-112450000D01*
X109385864Y-113502379D01*
X109981989Y-114394544D01*
X110874154Y-114990669D01*
X111926533Y-115200000D01*
X114073467Y-115200000D01*
X115125846Y-114990669D01*
X116018011Y-114394544D01*
X116614136Y-113502379D01*
X116823467Y-112450000D01*
X116614136Y-111397621D01*
X116018011Y-110505456D01*
X115125846Y-109909331D01*
X114472568Y-109779386D01*
X115250000Y-109779386D01*
X115805867Y-109674793D01*
X116180069Y-109434000D01*
X116582059Y-109434000D01*
X117062581Y-109633530D01*
X118136707Y-109634468D01*
X119129429Y-109224283D01*
X119889614Y-108465424D01*
X120301530Y-107473419D01*
X120302468Y-106399293D01*
X120102000Y-105914124D01*
X120102000Y-103628812D01*
X120252937Y-102870000D01*
X120055024Y-101875023D01*
X119491415Y-101031522D01*
X118647914Y-100467913D01*
X117652937Y-100270000D01*
X117551063Y-100270000D01*
X116556086Y-100467913D01*
X115712585Y-101031522D01*
X115148976Y-101875023D01*
X114951063Y-102870000D01*
X115102000Y-103628812D01*
X115102000Y-104220614D01*
X110750000Y-104220614D01*
X110194133Y-104325207D01*
X109683604Y-104653724D01*
X109341108Y-105154983D01*
X109220614Y-105750000D01*
X109220614Y-108250000D01*
X109325207Y-108805867D01*
X109653724Y-109316396D01*
X110154983Y-109658892D01*
X110750000Y-109779386D01*
X111527432Y-109779386D01*
X110874154Y-109909331D01*
X109981989Y-110505456D01*
X109385864Y-111397621D01*
X109176533Y-112450000D01*
X97242063Y-112450000D01*
X97242433Y-112026901D01*
X96862633Y-111107714D01*
X96159985Y-110403839D01*
X96158938Y-110403404D01*
X92056941Y-106301407D01*
X92061293Y-105256787D01*
X94579741Y-105256787D01*
X94714017Y-105592100D01*
X95580886Y-105733944D01*
X96293983Y-105592100D01*
X96428259Y-105256787D01*
X95504000Y-104332528D01*
X94579741Y-105256787D01*
X92061293Y-105256787D01*
X92068359Y-103560886D01*
X93254056Y-103560886D01*
X93395900Y-104273983D01*
X93731213Y-104408259D01*
X94655472Y-103484000D01*
X96352528Y-103484000D01*
X97276787Y-104408259D01*
X97612100Y-104273983D01*
X97753944Y-103407114D01*
X97612100Y-102694017D01*
X97276787Y-102559741D01*
X96352528Y-103484000D01*
X94655472Y-103484000D01*
X93731213Y-102559741D01*
X93395900Y-102694017D01*
X93254056Y-103560886D01*
X92068359Y-103560886D01*
X92076065Y-101711213D01*
X94579741Y-101711213D01*
X95504000Y-102635472D01*
X96428259Y-101711213D01*
X96293983Y-101375900D01*
X95427114Y-101234056D01*
X94714017Y-101375900D01*
X94579741Y-101711213D01*
X92076065Y-101711213D01*
X92095468Y-97054707D01*
X92803532Y-97054707D01*
X93213717Y-98047429D01*
X93972576Y-98807614D01*
X94964581Y-99219530D01*
X96038707Y-99220468D01*
X96919011Y-98856733D01*
X109954706Y-98856733D01*
X110173240Y-99227219D01*
X110820198Y-99825261D01*
X111646771Y-100130200D01*
X112000000Y-99906000D01*
X112000000Y-98525000D01*
X114000000Y-98525000D01*
X114000000Y-99906000D01*
X114353229Y-100130200D01*
X115179802Y-99825261D01*
X115826760Y-99227219D01*
X116045294Y-98856733D01*
X115906151Y-98525000D01*
X114000000Y-98525000D01*
X112000000Y-98525000D01*
X110093849Y-98525000D01*
X109954706Y-98856733D01*
X96919011Y-98856733D01*
X97031429Y-98810283D01*
X97791614Y-98051424D01*
X98203530Y-97059419D01*
X98203631Y-96943267D01*
X109954706Y-96943267D01*
X110093849Y-97275000D01*
X112000000Y-97275000D01*
X112000000Y-95894000D01*
X114000000Y-95894000D01*
X114000000Y-97275000D01*
X115906151Y-97275000D01*
X116045294Y-96943267D01*
X115826760Y-96572781D01*
X115179802Y-95974739D01*
X114353229Y-95669800D01*
X114000000Y-95894000D01*
X112000000Y-95894000D01*
X111646771Y-95669800D01*
X110820198Y-95974739D01*
X110173240Y-96572781D01*
X109954706Y-96943267D01*
X98203631Y-96943267D01*
X98204468Y-95985293D01*
X97794283Y-94992571D01*
X97035424Y-94232386D01*
X96043419Y-93820470D01*
X94969293Y-93819532D01*
X93976571Y-94229717D01*
X93216386Y-94988576D01*
X92804470Y-95980581D01*
X92803532Y-97054707D01*
X92095468Y-97054707D01*
X92114654Y-92450000D01*
X109176533Y-92450000D01*
X109385864Y-93502379D01*
X109981989Y-94394544D01*
X110874154Y-94990669D01*
X111926533Y-95200000D01*
X114073467Y-95200000D01*
X115125846Y-94990669D01*
X116018011Y-94394544D01*
X116614136Y-93502379D01*
X116823467Y-92450000D01*
X116614136Y-91397621D01*
X116018011Y-90505456D01*
X115125846Y-89909331D01*
X114472568Y-89779386D01*
X115250000Y-89779386D01*
X115805867Y-89674793D01*
X116316396Y-89346276D01*
X116577799Y-88963701D01*
X116808581Y-89059530D01*
X117882707Y-89060468D01*
X118875429Y-88650283D01*
X119635614Y-87891424D01*
X120047530Y-86899419D01*
X120048001Y-86360000D01*
X127295104Y-86360000D01*
X127500629Y-87393245D01*
X127548000Y-87464141D01*
X127548000Y-102616000D01*
X127672614Y-103242478D01*
X127672614Y-103970000D01*
X127777207Y-104525867D01*
X127802000Y-104564396D01*
X127802000Y-105829859D01*
X127754629Y-105900755D01*
X127549104Y-106934000D01*
X127754629Y-107967245D01*
X127802000Y-108038141D01*
X127802000Y-120602228D01*
X127539108Y-120986983D01*
X127418614Y-121582000D01*
X127418614Y-123782000D01*
X127523207Y-124337867D01*
X127548000Y-124376396D01*
X127548000Y-125641859D01*
X127500629Y-125712755D01*
X127295104Y-126746000D01*
X127500629Y-127779245D01*
X128085916Y-128655188D01*
X128961859Y-129240475D01*
X129995104Y-129446000D01*
X130100896Y-129446000D01*
X131134141Y-129240475D01*
X132010084Y-128655188D01*
X132595371Y-127779245D01*
X132800896Y-126746000D01*
X132595371Y-125712755D01*
X132548000Y-125641859D01*
X132548000Y-124390031D01*
X132556892Y-124377017D01*
X132677386Y-123782000D01*
X132677386Y-123054478D01*
X132802000Y-122428000D01*
X132802000Y-120622439D01*
X136852335Y-120622439D01*
X137389356Y-121345348D01*
X137949566Y-121719632D01*
X138288000Y-121584548D01*
X138288000Y-120284000D01*
X139588000Y-120284000D01*
X139588000Y-121584548D01*
X139926434Y-121719632D01*
X140486644Y-121345348D01*
X141023665Y-120622439D01*
X140900613Y-120284000D01*
X139588000Y-120284000D01*
X138288000Y-120284000D01*
X136975387Y-120284000D01*
X136852335Y-120622439D01*
X132802000Y-120622439D01*
X132802000Y-118645561D01*
X136852335Y-118645561D01*
X136975387Y-118984000D01*
X138288000Y-118984000D01*
X138288000Y-117683452D01*
X139588000Y-117683452D01*
X139588000Y-118984000D01*
X140900613Y-118984000D01*
X141023665Y-118645561D01*
X140486644Y-117922652D01*
X139926434Y-117548368D01*
X139588000Y-117683452D01*
X138288000Y-117683452D01*
X137949566Y-117548368D01*
X137389356Y-117922652D01*
X136852335Y-118645561D01*
X132802000Y-118645561D01*
X132802000Y-108038141D01*
X132849371Y-107967245D01*
X133054896Y-106934000D01*
X132849371Y-105900755D01*
X132802000Y-105829859D01*
X132802000Y-104578031D01*
X132810892Y-104565017D01*
X132931386Y-103970000D01*
X132931386Y-101770000D01*
X132826793Y-101214133D01*
X132548000Y-100780877D01*
X132548000Y-99782000D01*
X133330466Y-99782000D01*
X135392233Y-101843767D01*
X136203291Y-102385699D01*
X136294161Y-102403774D01*
X136229108Y-102498983D01*
X136108614Y-103094000D01*
X136108614Y-105694000D01*
X136213207Y-106249867D01*
X136541724Y-106760396D01*
X137042983Y-107102892D01*
X137638000Y-107223386D01*
X140238000Y-107223386D01*
X140793867Y-107118793D01*
X141304396Y-106790276D01*
X141646892Y-106289017D01*
X141767386Y-105694000D01*
X141767386Y-103094000D01*
X141695633Y-102712663D01*
X141758396Y-102672276D01*
X142100892Y-102171017D01*
X142221386Y-101576000D01*
X142221386Y-98576000D01*
X142116793Y-98020133D01*
X141788276Y-97509604D01*
X141287017Y-97167108D01*
X140692000Y-97046614D01*
X140181954Y-97046614D01*
X139192000Y-96056660D01*
X139001081Y-96247579D01*
X137940421Y-95186919D01*
X138131340Y-94996000D01*
X140252660Y-94996000D01*
X141263620Y-96006960D01*
X141610623Y-95826182D01*
X141744214Y-94837421D01*
X141610623Y-94165818D01*
X141263620Y-93985040D01*
X140252660Y-94996000D01*
X138131340Y-94996000D01*
X137120380Y-93985040D01*
X136773377Y-94165818D01*
X136639786Y-95154579D01*
X136773377Y-95826182D01*
X136887925Y-95885858D01*
X136696659Y-96077125D01*
X136133767Y-95514233D01*
X135663484Y-95200000D01*
X135322709Y-94972301D01*
X134366000Y-94782000D01*
X132548000Y-94782000D01*
X132548000Y-92924380D01*
X138181040Y-92924380D01*
X139192000Y-93935340D01*
X140202960Y-92924380D01*
X140022182Y-92577377D01*
X139033421Y-92443786D01*
X138361818Y-92577377D01*
X138181040Y-92924380D01*
X132548000Y-92924380D01*
X132548000Y-87464141D01*
X132595371Y-87393245D01*
X132800896Y-86360000D01*
X132595371Y-85326755D01*
X132548000Y-85255859D01*
X132548000Y-84004031D01*
X132556892Y-83991017D01*
X132677386Y-83396000D01*
X132677386Y-81196000D01*
X132572793Y-80640133D01*
X132548000Y-80601604D01*
X132548000Y-68794278D01*
X132849371Y-68343245D01*
X133054896Y-67310000D01*
X132849371Y-66276755D01*
X132802000Y-66205859D01*
X132802000Y-64700031D01*
X132810892Y-64687017D01*
X132931386Y-64092000D01*
X132931386Y-62407703D01*
X138118149Y-62407703D01*
X138270451Y-62734027D01*
X139161356Y-62865469D01*
X139822143Y-62734000D01*
X139965933Y-62399172D01*
X139046307Y-61479546D01*
X138118149Y-62407703D01*
X132931386Y-62407703D01*
X132931386Y-61892000D01*
X132826793Y-61336133D01*
X132498276Y-60825604D01*
X131997017Y-60483108D01*
X131402000Y-60362614D01*
X129202000Y-60362614D01*
X128646133Y-60467207D01*
X128135604Y-60795724D01*
X127793108Y-61296983D01*
X127672614Y-61892000D01*
X127672614Y-64092000D01*
X127777207Y-64647867D01*
X127802000Y-64686396D01*
X127802000Y-66205859D01*
X127754629Y-66276755D01*
X127549104Y-67310000D01*
X127573814Y-67434225D01*
X127548000Y-67564000D01*
X127548000Y-80587969D01*
X127539108Y-80600983D01*
X127418614Y-81196000D01*
X127418614Y-83396000D01*
X127523207Y-83951867D01*
X127548000Y-83990396D01*
X127548000Y-85255859D01*
X127500629Y-85326755D01*
X127295104Y-86360000D01*
X120048001Y-86360000D01*
X120048468Y-85825293D01*
X119848000Y-85340124D01*
X119848000Y-83054812D01*
X119998937Y-82296000D01*
X119801024Y-81301023D01*
X119237415Y-80457522D01*
X118393914Y-79893913D01*
X117398937Y-79696000D01*
X117297063Y-79696000D01*
X116302086Y-79893913D01*
X115458585Y-80457522D01*
X114894976Y-81301023D01*
X114697063Y-82296000D01*
X114848000Y-83054812D01*
X114848000Y-83860000D01*
X113640000Y-83860000D01*
X112683291Y-84050301D01*
X112428400Y-84220614D01*
X110750000Y-84220614D01*
X110194133Y-84325207D01*
X109683604Y-84653724D01*
X109341108Y-85154983D01*
X109220614Y-85750000D01*
X109220614Y-88250000D01*
X109325207Y-88805867D01*
X109653724Y-89316396D01*
X110154983Y-89658892D01*
X110750000Y-89779386D01*
X111527432Y-89779386D01*
X110874154Y-89909331D01*
X109981989Y-90505456D01*
X109385864Y-91397621D01*
X109176533Y-92450000D01*
X92114654Y-92450000D01*
X92123263Y-90384000D01*
X95502964Y-90384000D01*
X95999099Y-90384433D01*
X96918286Y-90004633D01*
X97622161Y-89301985D01*
X98003565Y-88383462D01*
X98004433Y-87388901D01*
X97624633Y-86469714D01*
X96921985Y-85765839D01*
X96003462Y-85384435D01*
X95008901Y-85383567D01*
X95007853Y-85384000D01*
X92144097Y-85384000D01*
X92155697Y-82600000D01*
X94102630Y-82600000D01*
X94496538Y-82763565D01*
X95491099Y-82764433D01*
X96410286Y-82384633D01*
X97114161Y-81681985D01*
X97495565Y-80763462D01*
X97496433Y-79768901D01*
X97119534Y-78856733D01*
X109954706Y-78856733D01*
X110173240Y-79227219D01*
X110820198Y-79825261D01*
X111646771Y-80130200D01*
X112000000Y-79906000D01*
X112000000Y-78525000D01*
X114000000Y-78525000D01*
X114000000Y-79906000D01*
X114353229Y-80130200D01*
X115179802Y-79825261D01*
X115826760Y-79227219D01*
X116045294Y-78856733D01*
X115906151Y-78525000D01*
X114000000Y-78525000D01*
X112000000Y-78525000D01*
X110093849Y-78525000D01*
X109954706Y-78856733D01*
X97119534Y-78856733D01*
X97116633Y-78849714D01*
X96413985Y-78145839D01*
X96167849Y-78043634D01*
X95788709Y-77790301D01*
X94832000Y-77600000D01*
X92176530Y-77600000D01*
X92179266Y-76943267D01*
X109954706Y-76943267D01*
X110093849Y-77275000D01*
X112000000Y-77275000D01*
X112000000Y-75894000D01*
X114000000Y-75894000D01*
X114000000Y-77275000D01*
X115906151Y-77275000D01*
X116045294Y-76943267D01*
X115826760Y-76572781D01*
X115179802Y-75974739D01*
X114353229Y-75669800D01*
X114000000Y-75894000D01*
X112000000Y-75894000D01*
X111646771Y-75669800D01*
X110820198Y-75974739D01*
X110173240Y-76572781D01*
X109954706Y-76943267D01*
X92179266Y-76943267D01*
X92184060Y-75792787D01*
X94579741Y-75792787D01*
X94714017Y-76128100D01*
X95580886Y-76269944D01*
X96293983Y-76128100D01*
X96428259Y-75792787D01*
X95504000Y-74868528D01*
X94579741Y-75792787D01*
X92184060Y-75792787D01*
X92192887Y-73674334D01*
X93653506Y-72700588D01*
X93211939Y-73142155D01*
X93382387Y-73312603D01*
X93254056Y-74096886D01*
X93395900Y-74809983D01*
X93731213Y-74944259D01*
X94655472Y-74020000D01*
X96352528Y-74020000D01*
X97276787Y-74944259D01*
X97612100Y-74809983D01*
X97753944Y-73943114D01*
X97612100Y-73230017D01*
X97276787Y-73095741D01*
X96352528Y-74020000D01*
X94655472Y-74020000D01*
X94358487Y-73723015D01*
X95207015Y-72874487D01*
X95504000Y-73171472D01*
X96428259Y-72247213D01*
X96293983Y-71911900D01*
X95427114Y-71770056D01*
X94888640Y-71877165D01*
X95781350Y-71282025D01*
X95921356Y-71141344D01*
X95995598Y-70957275D01*
X95993987Y-70858000D01*
X109474000Y-70858000D01*
X109668528Y-70818607D01*
X109827553Y-70711553D01*
X109877961Y-70661145D01*
X109385864Y-71397621D01*
X109176533Y-72450000D01*
X109385864Y-73502379D01*
X109981989Y-74394544D01*
X110874154Y-74990669D01*
X111926533Y-75200000D01*
X114073467Y-75200000D01*
X115125846Y-74990669D01*
X116018011Y-74394544D01*
X116614136Y-73502379D01*
X116823467Y-72450000D01*
X116614136Y-71397621D01*
X116018011Y-70505456D01*
X115125846Y-69909331D01*
X114626475Y-69810000D01*
X116582059Y-69810000D01*
X117062581Y-70009530D01*
X118136707Y-70010468D01*
X119129429Y-69600283D01*
X119889614Y-68841424D01*
X120301530Y-67849419D01*
X120302468Y-66775293D01*
X120102000Y-66290124D01*
X120102000Y-63750812D01*
X120252937Y-62992000D01*
X120055024Y-61997023D01*
X119491415Y-61153522D01*
X119427974Y-61111132D01*
X120852431Y-59686675D01*
X136820678Y-60045512D01*
G36*
X85006406Y-47778192D02*
X88392000Y-51163786D01*
X91777594Y-47778192D01*
X91319359Y-47295000D01*
X99180641Y-47295000D01*
X98722406Y-47778192D01*
X102108000Y-51163786D01*
X105493594Y-47778192D01*
X105035359Y-47295000D01*
X115324000Y-47295000D01*
X115324000Y-61730000D01*
X93726000Y-61730000D01*
X93531472Y-61769393D01*
X93372447Y-61876447D01*
X89816447Y-65432447D01*
X89706750Y-65597854D01*
X89670000Y-65786000D01*
X89670000Y-129548000D01*
X81012425Y-129548000D01*
X80702399Y-129340847D01*
X80674793Y-129194133D01*
X80346276Y-128683604D01*
X79845017Y-128341108D01*
X79250000Y-128220614D01*
X78472568Y-128220614D01*
X79125846Y-128090669D01*
X80018011Y-127494544D01*
X80614136Y-126602379D01*
X80823467Y-125550000D01*
X80614136Y-124497621D01*
X80018011Y-123605456D01*
X79125846Y-123009331D01*
X78073467Y-122800000D01*
X75926533Y-122800000D01*
X74874154Y-123009331D01*
X73981989Y-123605456D01*
X73385864Y-124497621D01*
X73176533Y-125550000D01*
X73385864Y-126602379D01*
X73981989Y-127494544D01*
X74874154Y-128090669D01*
X75527432Y-128220614D01*
X74750000Y-128220614D01*
X74194133Y-128325207D01*
X74019378Y-128437659D01*
X73231419Y-128110470D01*
X72157293Y-128109532D01*
X71164571Y-128519717D01*
X70404386Y-129278576D01*
X69992470Y-130270581D01*
X69991532Y-131344707D01*
X70401717Y-132337429D01*
X71160576Y-133097614D01*
X71351368Y-133176837D01*
X70802585Y-133543522D01*
X70238976Y-134387023D01*
X70041063Y-135382000D01*
X70238976Y-136376977D01*
X70802585Y-137220478D01*
X71646086Y-137784087D01*
X72641063Y-137982000D01*
X72742937Y-137982000D01*
X73737914Y-137784087D01*
X74581415Y-137220478D01*
X75145024Y-136376977D01*
X75342937Y-135382000D01*
X75145024Y-134387023D01*
X74737295Y-133776813D01*
X74750000Y-133779386D01*
X77884169Y-133779386D01*
X78037291Y-133881699D01*
X78994000Y-134072000D01*
X79510000Y-133969361D01*
X79510000Y-139843293D01*
X79047142Y-140034542D01*
X78315113Y-140765295D01*
X77918452Y-141720559D01*
X77917992Y-142248000D01*
X57904000Y-142248000D01*
X57904000Y-137622378D01*
X58296983Y-137890892D01*
X58892000Y-138011386D01*
X61092000Y-138011386D01*
X61647867Y-137906793D01*
X62158396Y-137578276D01*
X62500892Y-137077017D01*
X62621386Y-136482000D01*
X62621386Y-134282000D01*
X62516793Y-133726133D01*
X62188276Y-133215604D01*
X61705167Y-132885509D01*
X61954084Y-132719188D01*
X62539371Y-131843245D01*
X62744896Y-130810000D01*
X62539371Y-129776755D01*
X61954084Y-128900812D01*
X61078141Y-128315525D01*
X60044896Y-128110000D01*
X59939104Y-128110000D01*
X58905859Y-128315525D01*
X58029916Y-128900812D01*
X57444629Y-129776755D01*
X57239104Y-130810000D01*
X57444629Y-131843245D01*
X58029916Y-132719188D01*
X58285366Y-132889875D01*
X57825604Y-133185724D01*
X57483108Y-133686983D01*
X57445283Y-133873768D01*
X57404000Y-133866000D01*
X47451106Y-133866000D01*
X47041000Y-133455894D01*
X47041000Y-121105255D01*
X47219356Y-121345348D01*
X47779566Y-121719632D01*
X48118000Y-121584548D01*
X48118000Y-120284000D01*
X49418000Y-120284000D01*
X49418000Y-121584548D01*
X49756434Y-121719632D01*
X50316644Y-121345348D01*
X50531044Y-121056733D01*
X73954706Y-121056733D01*
X74173240Y-121427219D01*
X74820198Y-122025261D01*
X75646771Y-122330200D01*
X76000000Y-122106000D01*
X76000000Y-120725000D01*
X78000000Y-120725000D01*
X78000000Y-122106000D01*
X78353229Y-122330200D01*
X79179802Y-122025261D01*
X79826760Y-121427219D01*
X80045294Y-121056733D01*
X79906151Y-120725000D01*
X78000000Y-120725000D01*
X76000000Y-120725000D01*
X74093849Y-120725000D01*
X73954706Y-121056733D01*
X50531044Y-121056733D01*
X50853665Y-120622439D01*
X50730613Y-120284000D01*
X49418000Y-120284000D01*
X48118000Y-120284000D01*
X47748000Y-120284000D01*
X47748000Y-119143267D01*
X73954706Y-119143267D01*
X74093849Y-119475000D01*
X76000000Y-119475000D01*
X76000000Y-118094000D01*
X78000000Y-118094000D01*
X78000000Y-119475000D01*
X79906151Y-119475000D01*
X80045294Y-119143267D01*
X79826760Y-118772781D01*
X79179802Y-118174739D01*
X78353229Y-117869800D01*
X78000000Y-118094000D01*
X76000000Y-118094000D01*
X75646771Y-117869800D01*
X74820198Y-118174739D01*
X74173240Y-118772781D01*
X73954706Y-119143267D01*
X47748000Y-119143267D01*
X47748000Y-118984000D01*
X48118000Y-118984000D01*
X48118000Y-117683452D01*
X49418000Y-117683452D01*
X49418000Y-118984000D01*
X50730613Y-118984000D01*
X50853665Y-118645561D01*
X50316644Y-117922652D01*
X49756434Y-117548368D01*
X49418000Y-117683452D01*
X48118000Y-117683452D01*
X47779566Y-117548368D01*
X47219356Y-117922652D01*
X47041000Y-118162745D01*
X47041000Y-111760000D01*
X56731104Y-111760000D01*
X56936629Y-112793245D01*
X57441108Y-113548251D01*
X57317604Y-113627724D01*
X56975108Y-114128983D01*
X56854614Y-114724000D01*
X56854614Y-116924000D01*
X56959207Y-117479867D01*
X57287724Y-117990396D01*
X57788983Y-118332892D01*
X58384000Y-118453386D01*
X60584000Y-118453386D01*
X61139867Y-118348793D01*
X61650396Y-118020276D01*
X61992892Y-117519017D01*
X62113386Y-116924000D01*
X62113386Y-114724000D01*
X62008793Y-114168133D01*
X61680276Y-113657604D01*
X61524804Y-113551375D01*
X62031371Y-112793245D01*
X62130536Y-112294707D01*
X69483532Y-112294707D01*
X69893717Y-113287429D01*
X70472153Y-113866875D01*
X70294585Y-113985522D01*
X69730976Y-114829023D01*
X69533063Y-115824000D01*
X69730976Y-116818977D01*
X70294585Y-117662478D01*
X71138086Y-118226087D01*
X72133063Y-118424000D01*
X72234937Y-118424000D01*
X73229914Y-118226087D01*
X74073415Y-117662478D01*
X74637024Y-116818977D01*
X74834937Y-115824000D01*
X74637024Y-114829023D01*
X74073415Y-113985522D01*
X73895434Y-113866599D01*
X74124422Y-113638010D01*
X74154983Y-113658892D01*
X74750000Y-113779386D01*
X79250000Y-113779386D01*
X79805867Y-113674793D01*
X80316396Y-113346276D01*
X80658892Y-112845017D01*
X80779386Y-112250000D01*
X80779386Y-109750000D01*
X80674793Y-109194133D01*
X80346276Y-108683604D01*
X79845017Y-108341108D01*
X79250000Y-108220614D01*
X78472568Y-108220614D01*
X79125846Y-108090669D01*
X80018011Y-107494544D01*
X80614136Y-106602379D01*
X80823467Y-105550000D01*
X80614136Y-104497621D01*
X80018011Y-103605456D01*
X79125846Y-103009331D01*
X78073467Y-102800000D01*
X75926533Y-102800000D01*
X74874154Y-103009331D01*
X73981989Y-103605456D01*
X73385864Y-104497621D01*
X73176533Y-105550000D01*
X73385864Y-106602379D01*
X73981989Y-107494544D01*
X74874154Y-108090669D01*
X75527432Y-108220614D01*
X74750000Y-108220614D01*
X74194133Y-108325207D01*
X73683604Y-108653724D01*
X73341108Y-109154983D01*
X73310852Y-109304393D01*
X72723419Y-109060470D01*
X71649293Y-109059532D01*
X70656571Y-109469717D01*
X69896386Y-110228576D01*
X69484470Y-111220581D01*
X69483532Y-112294707D01*
X62130536Y-112294707D01*
X62236896Y-111760000D01*
X62031371Y-110726755D01*
X61446084Y-109850812D01*
X60570141Y-109265525D01*
X59536896Y-109060000D01*
X59431104Y-109060000D01*
X58397859Y-109265525D01*
X57521916Y-109850812D01*
X56936629Y-110726755D01*
X56731104Y-111760000D01*
X47041000Y-111760000D01*
X47041000Y-107136916D01*
X47468000Y-107223386D01*
X50068000Y-107223386D01*
X50623867Y-107118793D01*
X51134396Y-106790276D01*
X51476892Y-106289017D01*
X51597386Y-105694000D01*
X51597386Y-103094000D01*
X51503942Y-102597386D01*
X51538000Y-102597386D01*
X52093867Y-102492793D01*
X52604396Y-102164276D01*
X52946892Y-101663017D01*
X53067386Y-101068000D01*
X53067386Y-101056733D01*
X73954706Y-101056733D01*
X74173240Y-101427219D01*
X74820198Y-102025261D01*
X75646771Y-102330200D01*
X76000000Y-102106000D01*
X76000000Y-100725000D01*
X78000000Y-100725000D01*
X78000000Y-102106000D01*
X78353229Y-102330200D01*
X79179802Y-102025261D01*
X79826760Y-101427219D01*
X80045294Y-101056733D01*
X79906151Y-100725000D01*
X78000000Y-100725000D01*
X76000000Y-100725000D01*
X74093849Y-100725000D01*
X73954706Y-101056733D01*
X53067386Y-101056733D01*
X53067386Y-99143267D01*
X73954706Y-99143267D01*
X74093849Y-99475000D01*
X76000000Y-99475000D01*
X76000000Y-98094000D01*
X78000000Y-98094000D01*
X78000000Y-99475000D01*
X79906151Y-99475000D01*
X80045294Y-99143267D01*
X79826760Y-98772781D01*
X79179802Y-98174739D01*
X78353229Y-97869800D01*
X78000000Y-98094000D01*
X76000000Y-98094000D01*
X75646771Y-97869800D01*
X74820198Y-98174739D01*
X74173240Y-98772781D01*
X73954706Y-99143267D01*
X53067386Y-99143267D01*
X53067386Y-98068000D01*
X52962793Y-97512133D01*
X52634276Y-97001604D01*
X52133017Y-96659108D01*
X51538000Y-96538614D01*
X51027954Y-96538614D01*
X50038000Y-95548660D01*
X49048046Y-96538614D01*
X48538000Y-96538614D01*
X47982133Y-96643207D01*
X47471604Y-96971724D01*
X47129108Y-97472983D01*
X47041000Y-97908073D01*
X47041000Y-94646579D01*
X47485786Y-94646579D01*
X47619377Y-95318182D01*
X47966380Y-95498960D01*
X48977340Y-94488000D01*
X51098660Y-94488000D01*
X52109620Y-95498960D01*
X52456623Y-95318182D01*
X52590214Y-94329421D01*
X52456623Y-93657818D01*
X52109620Y-93477040D01*
X51098660Y-94488000D01*
X48977340Y-94488000D01*
X47966380Y-93477040D01*
X47619377Y-93657818D01*
X47485786Y-94646579D01*
X47041000Y-94646579D01*
X47041000Y-92416380D01*
X49027040Y-92416380D01*
X50038000Y-93427340D01*
X51048960Y-92416380D01*
X50868182Y-92069377D01*
X49879421Y-91935786D01*
X49207818Y-92069377D01*
X49027040Y-92416380D01*
X47041000Y-92416380D01*
X47041000Y-91186000D01*
X56985104Y-91186000D01*
X57190629Y-92219245D01*
X57695108Y-92974251D01*
X57571604Y-93053724D01*
X57229108Y-93554983D01*
X57108614Y-94150000D01*
X57108614Y-96350000D01*
X57213207Y-96905867D01*
X57541724Y-97416396D01*
X58042983Y-97758892D01*
X58638000Y-97879386D01*
X60838000Y-97879386D01*
X61393867Y-97774793D01*
X61904396Y-97446276D01*
X62246892Y-96945017D01*
X62367386Y-96350000D01*
X62367386Y-94150000D01*
X62262793Y-93594133D01*
X61934276Y-93083604D01*
X61778804Y-92977375D01*
X62285371Y-92219245D01*
X62384536Y-91720707D01*
X69737532Y-91720707D01*
X70147717Y-92713429D01*
X70726153Y-93292875D01*
X70548585Y-93411522D01*
X69984976Y-94255023D01*
X69787063Y-95250000D01*
X69984976Y-96244977D01*
X70548585Y-97088478D01*
X71392086Y-97652087D01*
X72387063Y-97850000D01*
X72488937Y-97850000D01*
X73483914Y-97652087D01*
X74327415Y-97088478D01*
X74891024Y-96244977D01*
X75088937Y-95250000D01*
X74891024Y-94255023D01*
X74545550Y-93737984D01*
X74750000Y-93779386D01*
X79250000Y-93779386D01*
X79805867Y-93674793D01*
X80316396Y-93346276D01*
X80658892Y-92845017D01*
X80779386Y-92250000D01*
X80779386Y-89750000D01*
X80674793Y-89194133D01*
X80346276Y-88683604D01*
X79845017Y-88341108D01*
X79250000Y-88220614D01*
X78472568Y-88220614D01*
X79125846Y-88090669D01*
X80018011Y-87494544D01*
X80614136Y-86602379D01*
X80823467Y-85550000D01*
X80614136Y-84497621D01*
X80018011Y-83605456D01*
X79125846Y-83009331D01*
X78073467Y-82800000D01*
X75926533Y-82800000D01*
X74874154Y-83009331D01*
X73981989Y-83605456D01*
X73385864Y-84497621D01*
X73176533Y-85550000D01*
X73385864Y-86602379D01*
X73981989Y-87494544D01*
X74874154Y-88090669D01*
X75527432Y-88220614D01*
X74750000Y-88220614D01*
X74194133Y-88325207D01*
X73683604Y-88653724D01*
X73616550Y-88751860D01*
X72977419Y-88486470D01*
X71903293Y-88485532D01*
X70910571Y-88895717D01*
X70150386Y-89654576D01*
X69738470Y-90646581D01*
X69737532Y-91720707D01*
X62384536Y-91720707D01*
X62490896Y-91186000D01*
X62285371Y-90152755D01*
X61700084Y-89276812D01*
X60824141Y-88691525D01*
X59790896Y-88486000D01*
X59685104Y-88486000D01*
X58651859Y-88691525D01*
X57775916Y-89276812D01*
X57190629Y-90152755D01*
X56985104Y-91186000D01*
X47041000Y-91186000D01*
X47041000Y-81056733D01*
X73954706Y-81056733D01*
X74173240Y-81427219D01*
X74820198Y-82025261D01*
X75646771Y-82330200D01*
X76000000Y-82106000D01*
X76000000Y-80725000D01*
X78000000Y-80725000D01*
X78000000Y-82106000D01*
X78353229Y-82330200D01*
X79179802Y-82025261D01*
X79826760Y-81427219D01*
X80045294Y-81056733D01*
X79906151Y-80725000D01*
X78000000Y-80725000D01*
X76000000Y-80725000D01*
X74093849Y-80725000D01*
X73954706Y-81056733D01*
X47041000Y-81056733D01*
X47041000Y-79143267D01*
X73954706Y-79143267D01*
X74093849Y-79475000D01*
X76000000Y-79475000D01*
X76000000Y-78094000D01*
X78000000Y-78094000D01*
X78000000Y-79475000D01*
X79906151Y-79475000D01*
X80045294Y-79143267D01*
X79826760Y-78772781D01*
X79179802Y-78174739D01*
X78353229Y-77869800D01*
X78000000Y-78094000D01*
X76000000Y-78094000D01*
X75646771Y-77869800D01*
X74820198Y-78174739D01*
X74173240Y-78772781D01*
X73954706Y-79143267D01*
X47041000Y-79143267D01*
X47041000Y-71374000D01*
X57239104Y-71374000D01*
X57444629Y-72407245D01*
X58029916Y-73283188D01*
X58091719Y-73324483D01*
X57825604Y-73495724D01*
X57483108Y-73996983D01*
X57362614Y-74592000D01*
X57362614Y-76792000D01*
X57467207Y-77347867D01*
X57795724Y-77858396D01*
X58296983Y-78200892D01*
X58892000Y-78321386D01*
X61092000Y-78321386D01*
X61647867Y-78216793D01*
X62158396Y-77888276D01*
X62500892Y-77387017D01*
X62621386Y-76792000D01*
X62621386Y-74592000D01*
X62516793Y-74036133D01*
X62188276Y-73525604D01*
X61893113Y-73323928D01*
X61954084Y-73283188D01*
X62539371Y-72407245D01*
X62638536Y-71908707D01*
X69991532Y-71908707D01*
X70401717Y-72901429D01*
X71132255Y-73633244D01*
X70802585Y-73853522D01*
X70238976Y-74697023D01*
X70041063Y-75692000D01*
X70238976Y-76686977D01*
X70802585Y-77530478D01*
X71646086Y-78094087D01*
X72641063Y-78292000D01*
X72742937Y-78292000D01*
X73737914Y-78094087D01*
X74581415Y-77530478D01*
X75145024Y-76686977D01*
X75342937Y-75692000D01*
X75145024Y-74697023D01*
X74581415Y-73853522D01*
X74348901Y-73698161D01*
X74750000Y-73779386D01*
X79250000Y-73779386D01*
X79805867Y-73674793D01*
X80316396Y-73346276D01*
X80658892Y-72845017D01*
X80779386Y-72250000D01*
X80779386Y-69750000D01*
X80674793Y-69194133D01*
X80346276Y-68683604D01*
X79845017Y-68341108D01*
X79250000Y-68220614D01*
X78472568Y-68220614D01*
X79125846Y-68090669D01*
X80018011Y-67494544D01*
X80614136Y-66602379D01*
X80823467Y-65550000D01*
X80614136Y-64497621D01*
X80018011Y-63605456D01*
X79125846Y-63009331D01*
X78073467Y-62800000D01*
X75926533Y-62800000D01*
X74874154Y-63009331D01*
X73981989Y-63605456D01*
X73385864Y-64497621D01*
X73176533Y-65550000D01*
X73385864Y-66602379D01*
X73981989Y-67494544D01*
X74874154Y-68090669D01*
X75527432Y-68220614D01*
X74750000Y-68220614D01*
X74194133Y-68325207D01*
X73683604Y-68653724D01*
X73572623Y-68816150D01*
X73231419Y-68674470D01*
X72157293Y-68673532D01*
X71164571Y-69083717D01*
X70404386Y-69842576D01*
X69992470Y-70834581D01*
X69991532Y-71908707D01*
X62638536Y-71908707D01*
X62744896Y-71374000D01*
X62539371Y-70340755D01*
X61954084Y-69464812D01*
X61078141Y-68879525D01*
X60044896Y-68674000D01*
X59939104Y-68674000D01*
X58905859Y-68879525D01*
X58029916Y-69464812D01*
X57444629Y-70340755D01*
X57239104Y-71374000D01*
X47041000Y-71374000D01*
X47041000Y-59414872D01*
X53782282Y-59414872D01*
X53894545Y-60011497D01*
X54230083Y-60517439D01*
X56068561Y-62355917D01*
X56535577Y-62675016D01*
X57128872Y-62803718D01*
X57725497Y-62691455D01*
X58231439Y-62355917D01*
X59530623Y-61056733D01*
X73954706Y-61056733D01*
X74173240Y-61427219D01*
X74820198Y-62025261D01*
X75646771Y-62330200D01*
X76000000Y-62106000D01*
X76000000Y-60725000D01*
X78000000Y-60725000D01*
X78000000Y-62106000D01*
X78353229Y-62330200D01*
X79179802Y-62025261D01*
X79826760Y-61427219D01*
X80045294Y-61056733D01*
X79906151Y-60725000D01*
X78000000Y-60725000D01*
X76000000Y-60725000D01*
X74093849Y-60725000D01*
X73954706Y-61056733D01*
X59530623Y-61056733D01*
X60069917Y-60517439D01*
X60389016Y-60050423D01*
X60517718Y-59457128D01*
X60458661Y-59143267D01*
X73954706Y-59143267D01*
X74093849Y-59475000D01*
X76000000Y-59475000D01*
X76000000Y-58094000D01*
X78000000Y-58094000D01*
X78000000Y-59475000D01*
X79906151Y-59475000D01*
X80045294Y-59143267D01*
X79826760Y-58772781D01*
X79179802Y-58174739D01*
X78353229Y-57869800D01*
X78000000Y-58094000D01*
X76000000Y-58094000D01*
X75646771Y-57869800D01*
X74820198Y-58174739D01*
X74173240Y-58772781D01*
X73954706Y-59143267D01*
X60458661Y-59143267D01*
X60405455Y-58860503D01*
X60069917Y-58354561D01*
X59093164Y-57377808D01*
X85006406Y-57377808D01*
X85648719Y-58055104D01*
X87953536Y-58687992D01*
X90325105Y-58390690D01*
X91135281Y-58055104D01*
X91777594Y-57377808D01*
X98722406Y-57377808D01*
X99364719Y-58055104D01*
X101669536Y-58687992D01*
X104041105Y-58390690D01*
X104851281Y-58055104D01*
X105493594Y-57377808D01*
X102108000Y-53992214D01*
X98722406Y-57377808D01*
X91777594Y-57377808D01*
X88392000Y-53992214D01*
X85006406Y-57377808D01*
X59093164Y-57377808D01*
X58231439Y-56516083D01*
X57764423Y-56196984D01*
X57171128Y-56068282D01*
X56574503Y-56180545D01*
X56068561Y-56516083D01*
X54230083Y-58354561D01*
X53910984Y-58821577D01*
X53782282Y-59414872D01*
X47041000Y-59414872D01*
X47041000Y-55872000D01*
X58928000Y-55872000D01*
X59122528Y-55832607D01*
X59301705Y-55704182D01*
X62470278Y-52139536D01*
X82282008Y-52139536D01*
X82579310Y-54511105D01*
X82914896Y-55321281D01*
X83592192Y-55963594D01*
X86977786Y-52578000D01*
X89806214Y-52578000D01*
X93191808Y-55963594D01*
X93869104Y-55321281D01*
X94501992Y-53016464D01*
X94392060Y-52139536D01*
X95998008Y-52139536D01*
X96295310Y-54511105D01*
X96630896Y-55321281D01*
X97308192Y-55963594D01*
X100693786Y-52578000D01*
X103522214Y-52578000D01*
X106907808Y-55963594D01*
X107585104Y-55321281D01*
X108217992Y-53016464D01*
X107920690Y-50644895D01*
X107585104Y-49834719D01*
X106907808Y-49192406D01*
X103522214Y-52578000D01*
X100693786Y-52578000D01*
X97308192Y-49192406D01*
X96630896Y-49834719D01*
X95998008Y-52139536D01*
X94392060Y-52139536D01*
X94204690Y-50644895D01*
X93869104Y-49834719D01*
X93191808Y-49192406D01*
X89806214Y-52578000D01*
X86977786Y-52578000D01*
X83592192Y-49192406D01*
X82914896Y-49834719D01*
X82282008Y-52139536D01*
X62470278Y-52139536D01*
X63928926Y-50498558D01*
X67006681Y-50498558D01*
X67150471Y-50833386D01*
X67811258Y-50964855D01*
X68702163Y-50833413D01*
X68854465Y-50507089D01*
X67926307Y-49578932D01*
X67006681Y-50498558D01*
X63928926Y-50498558D01*
X65652975Y-48559003D01*
X65621145Y-48774742D01*
X65752614Y-49435529D01*
X66087442Y-49579319D01*
X67007068Y-48659693D01*
X66745439Y-48398063D01*
X67664678Y-47478825D01*
X67926307Y-47740454D01*
X68187937Y-47478825D01*
X69107176Y-48398064D01*
X68845546Y-48659693D01*
X69773703Y-49587851D01*
X70100027Y-49435549D01*
X70231469Y-48544644D01*
X70102715Y-47897502D01*
X70265418Y-47734799D01*
X69825619Y-47295000D01*
X85464641Y-47295000D01*
X85006406Y-47778192D01*
X85006406Y-47778192D01*
G37*
X85006406Y-47778192D02*
X88392000Y-51163786D01*
X91777594Y-47778192D01*
X91319359Y-47295000D01*
X99180641Y-47295000D01*
X98722406Y-47778192D01*
X102108000Y-51163786D01*
X105493594Y-47778192D01*
X105035359Y-47295000D01*
X115324000Y-47295000D01*
X115324000Y-61730000D01*
X93726000Y-61730000D01*
X93531472Y-61769393D01*
X93372447Y-61876447D01*
X89816447Y-65432447D01*
X89706750Y-65597854D01*
X89670000Y-65786000D01*
X89670000Y-129548000D01*
X81012425Y-129548000D01*
X80702399Y-129340847D01*
X80674793Y-129194133D01*
X80346276Y-128683604D01*
X79845017Y-128341108D01*
X79250000Y-128220614D01*
X78472568Y-128220614D01*
X79125846Y-128090669D01*
X80018011Y-127494544D01*
X80614136Y-126602379D01*
X80823467Y-125550000D01*
X80614136Y-124497621D01*
X80018011Y-123605456D01*
X79125846Y-123009331D01*
X78073467Y-122800000D01*
X75926533Y-122800000D01*
X74874154Y-123009331D01*
X73981989Y-123605456D01*
X73385864Y-124497621D01*
X73176533Y-125550000D01*
X73385864Y-126602379D01*
X73981989Y-127494544D01*
X74874154Y-128090669D01*
X75527432Y-128220614D01*
X74750000Y-128220614D01*
X74194133Y-128325207D01*
X74019378Y-128437659D01*
X73231419Y-128110470D01*
X72157293Y-128109532D01*
X71164571Y-128519717D01*
X70404386Y-129278576D01*
X69992470Y-130270581D01*
X69991532Y-131344707D01*
X70401717Y-132337429D01*
X71160576Y-133097614D01*
X71351368Y-133176837D01*
X70802585Y-133543522D01*
X70238976Y-134387023D01*
X70041063Y-135382000D01*
X70238976Y-136376977D01*
X70802585Y-137220478D01*
X71646086Y-137784087D01*
X72641063Y-137982000D01*
X72742937Y-137982000D01*
X73737914Y-137784087D01*
X74581415Y-137220478D01*
X75145024Y-136376977D01*
X75342937Y-135382000D01*
X75145024Y-134387023D01*
X74737295Y-133776813D01*
X74750000Y-133779386D01*
X77884169Y-133779386D01*
X78037291Y-133881699D01*
X78994000Y-134072000D01*
X79510000Y-133969361D01*
X79510000Y-139843293D01*
X79047142Y-140034542D01*
X78315113Y-140765295D01*
X77918452Y-141720559D01*
X77917992Y-142248000D01*
X57904000Y-142248000D01*
X57904000Y-137622378D01*
X58296983Y-137890892D01*
X58892000Y-138011386D01*
X61092000Y-138011386D01*
X61647867Y-137906793D01*
X62158396Y-137578276D01*
X62500892Y-137077017D01*
X62621386Y-136482000D01*
X62621386Y-134282000D01*
X62516793Y-133726133D01*
X62188276Y-133215604D01*
X61705167Y-132885509D01*
X61954084Y-132719188D01*
X62539371Y-131843245D01*
X62744896Y-130810000D01*
X62539371Y-129776755D01*
X61954084Y-128900812D01*
X61078141Y-128315525D01*
X60044896Y-128110000D01*
X59939104Y-128110000D01*
X58905859Y-128315525D01*
X58029916Y-128900812D01*
X57444629Y-129776755D01*
X57239104Y-130810000D01*
X57444629Y-131843245D01*
X58029916Y-132719188D01*
X58285366Y-132889875D01*
X57825604Y-133185724D01*
X57483108Y-133686983D01*
X57445283Y-133873768D01*
X57404000Y-133866000D01*
X47451106Y-133866000D01*
X47041000Y-133455894D01*
X47041000Y-121105255D01*
X47219356Y-121345348D01*
X47779566Y-121719632D01*
X48118000Y-121584548D01*
X48118000Y-120284000D01*
X49418000Y-120284000D01*
X49418000Y-121584548D01*
X49756434Y-121719632D01*
X50316644Y-121345348D01*
X50531044Y-121056733D01*
X73954706Y-121056733D01*
X74173240Y-121427219D01*
X74820198Y-122025261D01*
X75646771Y-122330200D01*
X76000000Y-122106000D01*
X76000000Y-120725000D01*
X78000000Y-120725000D01*
X78000000Y-122106000D01*
X78353229Y-122330200D01*
X79179802Y-122025261D01*
X79826760Y-121427219D01*
X80045294Y-121056733D01*
X79906151Y-120725000D01*
X78000000Y-120725000D01*
X76000000Y-120725000D01*
X74093849Y-120725000D01*
X73954706Y-121056733D01*
X50531044Y-121056733D01*
X50853665Y-120622439D01*
X50730613Y-120284000D01*
X49418000Y-120284000D01*
X48118000Y-120284000D01*
X47748000Y-120284000D01*
X47748000Y-119143267D01*
X73954706Y-119143267D01*
X74093849Y-119475000D01*
X76000000Y-119475000D01*
X76000000Y-118094000D01*
X78000000Y-118094000D01*
X78000000Y-119475000D01*
X79906151Y-119475000D01*
X80045294Y-119143267D01*
X79826760Y-118772781D01*
X79179802Y-118174739D01*
X78353229Y-117869800D01*
X78000000Y-118094000D01*
X76000000Y-118094000D01*
X75646771Y-117869800D01*
X74820198Y-118174739D01*
X74173240Y-118772781D01*
X73954706Y-119143267D01*
X47748000Y-119143267D01*
X47748000Y-118984000D01*
X48118000Y-118984000D01*
X48118000Y-117683452D01*
X49418000Y-117683452D01*
X49418000Y-118984000D01*
X50730613Y-118984000D01*
X50853665Y-118645561D01*
X50316644Y-117922652D01*
X49756434Y-117548368D01*
X49418000Y-117683452D01*
X48118000Y-117683452D01*
X47779566Y-117548368D01*
X47219356Y-117922652D01*
X47041000Y-118162745D01*
X47041000Y-111760000D01*
X56731104Y-111760000D01*
X56936629Y-112793245D01*
X57441108Y-113548251D01*
X57317604Y-113627724D01*
X56975108Y-114128983D01*
X56854614Y-114724000D01*
X56854614Y-116924000D01*
X56959207Y-117479867D01*
X57287724Y-117990396D01*
X57788983Y-118332892D01*
X58384000Y-118453386D01*
X60584000Y-118453386D01*
X61139867Y-118348793D01*
X61650396Y-118020276D01*
X61992892Y-117519017D01*
X62113386Y-116924000D01*
X62113386Y-114724000D01*
X62008793Y-114168133D01*
X61680276Y-113657604D01*
X61524804Y-113551375D01*
X62031371Y-112793245D01*
X62130536Y-112294707D01*
X69483532Y-112294707D01*
X69893717Y-113287429D01*
X70472153Y-113866875D01*
X70294585Y-113985522D01*
X69730976Y-114829023D01*
X69533063Y-115824000D01*
X69730976Y-116818977D01*
X70294585Y-117662478D01*
X71138086Y-118226087D01*
X72133063Y-118424000D01*
X72234937Y-118424000D01*
X73229914Y-118226087D01*
X74073415Y-117662478D01*
X74637024Y-116818977D01*
X74834937Y-115824000D01*
X74637024Y-114829023D01*
X74073415Y-113985522D01*
X73895434Y-113866599D01*
X74124422Y-113638010D01*
X74154983Y-113658892D01*
X74750000Y-113779386D01*
X79250000Y-113779386D01*
X79805867Y-113674793D01*
X80316396Y-113346276D01*
X80658892Y-112845017D01*
X80779386Y-112250000D01*
X80779386Y-109750000D01*
X80674793Y-109194133D01*
X80346276Y-108683604D01*
X79845017Y-108341108D01*
X79250000Y-108220614D01*
X78472568Y-108220614D01*
X79125846Y-108090669D01*
X80018011Y-107494544D01*
X80614136Y-106602379D01*
X80823467Y-105550000D01*
X80614136Y-104497621D01*
X80018011Y-103605456D01*
X79125846Y-103009331D01*
X78073467Y-102800000D01*
X75926533Y-102800000D01*
X74874154Y-103009331D01*
X73981989Y-103605456D01*
X73385864Y-104497621D01*
X73176533Y-105550000D01*
X73385864Y-106602379D01*
X73981989Y-107494544D01*
X74874154Y-108090669D01*
X75527432Y-108220614D01*
X74750000Y-108220614D01*
X74194133Y-108325207D01*
X73683604Y-108653724D01*
X73341108Y-109154983D01*
X73310852Y-109304393D01*
X72723419Y-109060470D01*
X71649293Y-109059532D01*
X70656571Y-109469717D01*
X69896386Y-110228576D01*
X69484470Y-111220581D01*
X69483532Y-112294707D01*
X62130536Y-112294707D01*
X62236896Y-111760000D01*
X62031371Y-110726755D01*
X61446084Y-109850812D01*
X60570141Y-109265525D01*
X59536896Y-109060000D01*
X59431104Y-109060000D01*
X58397859Y-109265525D01*
X57521916Y-109850812D01*
X56936629Y-110726755D01*
X56731104Y-111760000D01*
X47041000Y-111760000D01*
X47041000Y-107136916D01*
X47468000Y-107223386D01*
X50068000Y-107223386D01*
X50623867Y-107118793D01*
X51134396Y-106790276D01*
X51476892Y-106289017D01*
X51597386Y-105694000D01*
X51597386Y-103094000D01*
X51503942Y-102597386D01*
X51538000Y-102597386D01*
X52093867Y-102492793D01*
X52604396Y-102164276D01*
X52946892Y-101663017D01*
X53067386Y-101068000D01*
X53067386Y-101056733D01*
X73954706Y-101056733D01*
X74173240Y-101427219D01*
X74820198Y-102025261D01*
X75646771Y-102330200D01*
X76000000Y-102106000D01*
X76000000Y-100725000D01*
X78000000Y-100725000D01*
X78000000Y-102106000D01*
X78353229Y-102330200D01*
X79179802Y-102025261D01*
X79826760Y-101427219D01*
X80045294Y-101056733D01*
X79906151Y-100725000D01*
X78000000Y-100725000D01*
X76000000Y-100725000D01*
X74093849Y-100725000D01*
X73954706Y-101056733D01*
X53067386Y-101056733D01*
X53067386Y-99143267D01*
X73954706Y-99143267D01*
X74093849Y-99475000D01*
X76000000Y-99475000D01*
X76000000Y-98094000D01*
X78000000Y-98094000D01*
X78000000Y-99475000D01*
X79906151Y-99475000D01*
X80045294Y-99143267D01*
X79826760Y-98772781D01*
X79179802Y-98174739D01*
X78353229Y-97869800D01*
X78000000Y-98094000D01*
X76000000Y-98094000D01*
X75646771Y-97869800D01*
X74820198Y-98174739D01*
X74173240Y-98772781D01*
X73954706Y-99143267D01*
X53067386Y-99143267D01*
X53067386Y-98068000D01*
X52962793Y-97512133D01*
X52634276Y-97001604D01*
X52133017Y-96659108D01*
X51538000Y-96538614D01*
X51027954Y-96538614D01*
X50038000Y-95548660D01*
X49048046Y-96538614D01*
X48538000Y-96538614D01*
X47982133Y-96643207D01*
X47471604Y-96971724D01*
X47129108Y-97472983D01*
X47041000Y-97908073D01*
X47041000Y-94646579D01*
X47485786Y-94646579D01*
X47619377Y-95318182D01*
X47966380Y-95498960D01*
X48977340Y-94488000D01*
X51098660Y-94488000D01*
X52109620Y-95498960D01*
X52456623Y-95318182D01*
X52590214Y-94329421D01*
X52456623Y-93657818D01*
X52109620Y-93477040D01*
X51098660Y-94488000D01*
X48977340Y-94488000D01*
X47966380Y-93477040D01*
X47619377Y-93657818D01*
X47485786Y-94646579D01*
X47041000Y-94646579D01*
X47041000Y-92416380D01*
X49027040Y-92416380D01*
X50038000Y-93427340D01*
X51048960Y-92416380D01*
X50868182Y-92069377D01*
X49879421Y-91935786D01*
X49207818Y-92069377D01*
X49027040Y-92416380D01*
X47041000Y-92416380D01*
X47041000Y-91186000D01*
X56985104Y-91186000D01*
X57190629Y-92219245D01*
X57695108Y-92974251D01*
X57571604Y-93053724D01*
X57229108Y-93554983D01*
X57108614Y-94150000D01*
X57108614Y-96350000D01*
X57213207Y-96905867D01*
X57541724Y-97416396D01*
X58042983Y-97758892D01*
X58638000Y-97879386D01*
X60838000Y-97879386D01*
X61393867Y-97774793D01*
X61904396Y-97446276D01*
X62246892Y-96945017D01*
X62367386Y-96350000D01*
X62367386Y-94150000D01*
X62262793Y-93594133D01*
X61934276Y-93083604D01*
X61778804Y-92977375D01*
X62285371Y-92219245D01*
X62384536Y-91720707D01*
X69737532Y-91720707D01*
X70147717Y-92713429D01*
X70726153Y-93292875D01*
X70548585Y-93411522D01*
X69984976Y-94255023D01*
X69787063Y-95250000D01*
X69984976Y-96244977D01*
X70548585Y-97088478D01*
X71392086Y-97652087D01*
X72387063Y-97850000D01*
X72488937Y-97850000D01*
X73483914Y-97652087D01*
X74327415Y-97088478D01*
X74891024Y-96244977D01*
X75088937Y-95250000D01*
X74891024Y-94255023D01*
X74545550Y-93737984D01*
X74750000Y-93779386D01*
X79250000Y-93779386D01*
X79805867Y-93674793D01*
X80316396Y-93346276D01*
X80658892Y-92845017D01*
X80779386Y-92250000D01*
X80779386Y-89750000D01*
X80674793Y-89194133D01*
X80346276Y-88683604D01*
X79845017Y-88341108D01*
X79250000Y-88220614D01*
X78472568Y-88220614D01*
X79125846Y-88090669D01*
X80018011Y-87494544D01*
X80614136Y-86602379D01*
X80823467Y-85550000D01*
X80614136Y-84497621D01*
X80018011Y-83605456D01*
X79125846Y-83009331D01*
X78073467Y-82800000D01*
X75926533Y-82800000D01*
X74874154Y-83009331D01*
X73981989Y-83605456D01*
X73385864Y-84497621D01*
X73176533Y-85550000D01*
X73385864Y-86602379D01*
X73981989Y-87494544D01*
X74874154Y-88090669D01*
X75527432Y-88220614D01*
X74750000Y-88220614D01*
X74194133Y-88325207D01*
X73683604Y-88653724D01*
X73616550Y-88751860D01*
X72977419Y-88486470D01*
X71903293Y-88485532D01*
X70910571Y-88895717D01*
X70150386Y-89654576D01*
X69738470Y-90646581D01*
X69737532Y-91720707D01*
X62384536Y-91720707D01*
X62490896Y-91186000D01*
X62285371Y-90152755D01*
X61700084Y-89276812D01*
X60824141Y-88691525D01*
X59790896Y-88486000D01*
X59685104Y-88486000D01*
X58651859Y-88691525D01*
X57775916Y-89276812D01*
X57190629Y-90152755D01*
X56985104Y-91186000D01*
X47041000Y-91186000D01*
X47041000Y-81056733D01*
X73954706Y-81056733D01*
X74173240Y-81427219D01*
X74820198Y-82025261D01*
X75646771Y-82330200D01*
X76000000Y-82106000D01*
X76000000Y-80725000D01*
X78000000Y-80725000D01*
X78000000Y-82106000D01*
X78353229Y-82330200D01*
X79179802Y-82025261D01*
X79826760Y-81427219D01*
X80045294Y-81056733D01*
X79906151Y-80725000D01*
X78000000Y-80725000D01*
X76000000Y-80725000D01*
X74093849Y-80725000D01*
X73954706Y-81056733D01*
X47041000Y-81056733D01*
X47041000Y-79143267D01*
X73954706Y-79143267D01*
X74093849Y-79475000D01*
X76000000Y-79475000D01*
X76000000Y-78094000D01*
X78000000Y-78094000D01*
X78000000Y-79475000D01*
X79906151Y-79475000D01*
X80045294Y-79143267D01*
X79826760Y-78772781D01*
X79179802Y-78174739D01*
X78353229Y-77869800D01*
X78000000Y-78094000D01*
X76000000Y-78094000D01*
X75646771Y-77869800D01*
X74820198Y-78174739D01*
X74173240Y-78772781D01*
X73954706Y-79143267D01*
X47041000Y-79143267D01*
X47041000Y-71374000D01*
X57239104Y-71374000D01*
X57444629Y-72407245D01*
X58029916Y-73283188D01*
X58091719Y-73324483D01*
X57825604Y-73495724D01*
X57483108Y-73996983D01*
X57362614Y-74592000D01*
X57362614Y-76792000D01*
X57467207Y-77347867D01*
X57795724Y-77858396D01*
X58296983Y-78200892D01*
X58892000Y-78321386D01*
X61092000Y-78321386D01*
X61647867Y-78216793D01*
X62158396Y-77888276D01*
X62500892Y-77387017D01*
X62621386Y-76792000D01*
X62621386Y-74592000D01*
X62516793Y-74036133D01*
X62188276Y-73525604D01*
X61893113Y-73323928D01*
X61954084Y-73283188D01*
X62539371Y-72407245D01*
X62638536Y-71908707D01*
X69991532Y-71908707D01*
X70401717Y-72901429D01*
X71132255Y-73633244D01*
X70802585Y-73853522D01*
X70238976Y-74697023D01*
X70041063Y-75692000D01*
X70238976Y-76686977D01*
X70802585Y-77530478D01*
X71646086Y-78094087D01*
X72641063Y-78292000D01*
X72742937Y-78292000D01*
X73737914Y-78094087D01*
X74581415Y-77530478D01*
X75145024Y-76686977D01*
X75342937Y-75692000D01*
X75145024Y-74697023D01*
X74581415Y-73853522D01*
X74348901Y-73698161D01*
X74750000Y-73779386D01*
X79250000Y-73779386D01*
X79805867Y-73674793D01*
X80316396Y-73346276D01*
X80658892Y-72845017D01*
X80779386Y-72250000D01*
X80779386Y-69750000D01*
X80674793Y-69194133D01*
X80346276Y-68683604D01*
X79845017Y-68341108D01*
X79250000Y-68220614D01*
X78472568Y-68220614D01*
X79125846Y-68090669D01*
X80018011Y-67494544D01*
X80614136Y-66602379D01*
X80823467Y-65550000D01*
X80614136Y-64497621D01*
X80018011Y-63605456D01*
X79125846Y-63009331D01*
X78073467Y-62800000D01*
X75926533Y-62800000D01*
X74874154Y-63009331D01*
X73981989Y-63605456D01*
X73385864Y-64497621D01*
X73176533Y-65550000D01*
X73385864Y-66602379D01*
X73981989Y-67494544D01*
X74874154Y-68090669D01*
X75527432Y-68220614D01*
X74750000Y-68220614D01*
X74194133Y-68325207D01*
X73683604Y-68653724D01*
X73572623Y-68816150D01*
X73231419Y-68674470D01*
X72157293Y-68673532D01*
X71164571Y-69083717D01*
X70404386Y-69842576D01*
X69992470Y-70834581D01*
X69991532Y-71908707D01*
X62638536Y-71908707D01*
X62744896Y-71374000D01*
X62539371Y-70340755D01*
X61954084Y-69464812D01*
X61078141Y-68879525D01*
X60044896Y-68674000D01*
X59939104Y-68674000D01*
X58905859Y-68879525D01*
X58029916Y-69464812D01*
X57444629Y-70340755D01*
X57239104Y-71374000D01*
X47041000Y-71374000D01*
X47041000Y-59414872D01*
X53782282Y-59414872D01*
X53894545Y-60011497D01*
X54230083Y-60517439D01*
X56068561Y-62355917D01*
X56535577Y-62675016D01*
X57128872Y-62803718D01*
X57725497Y-62691455D01*
X58231439Y-62355917D01*
X59530623Y-61056733D01*
X73954706Y-61056733D01*
X74173240Y-61427219D01*
X74820198Y-62025261D01*
X75646771Y-62330200D01*
X76000000Y-62106000D01*
X76000000Y-60725000D01*
X78000000Y-60725000D01*
X78000000Y-62106000D01*
X78353229Y-62330200D01*
X79179802Y-62025261D01*
X79826760Y-61427219D01*
X80045294Y-61056733D01*
X79906151Y-60725000D01*
X78000000Y-60725000D01*
X76000000Y-60725000D01*
X74093849Y-60725000D01*
X73954706Y-61056733D01*
X59530623Y-61056733D01*
X60069917Y-60517439D01*
X60389016Y-60050423D01*
X60517718Y-59457128D01*
X60458661Y-59143267D01*
X73954706Y-59143267D01*
X74093849Y-59475000D01*
X76000000Y-59475000D01*
X76000000Y-58094000D01*
X78000000Y-58094000D01*
X78000000Y-59475000D01*
X79906151Y-59475000D01*
X80045294Y-59143267D01*
X79826760Y-58772781D01*
X79179802Y-58174739D01*
X78353229Y-57869800D01*
X78000000Y-58094000D01*
X76000000Y-58094000D01*
X75646771Y-57869800D01*
X74820198Y-58174739D01*
X74173240Y-58772781D01*
X73954706Y-59143267D01*
X60458661Y-59143267D01*
X60405455Y-58860503D01*
X60069917Y-58354561D01*
X59093164Y-57377808D01*
X85006406Y-57377808D01*
X85648719Y-58055104D01*
X87953536Y-58687992D01*
X90325105Y-58390690D01*
X91135281Y-58055104D01*
X91777594Y-57377808D01*
X98722406Y-57377808D01*
X99364719Y-58055104D01*
X101669536Y-58687992D01*
X104041105Y-58390690D01*
X104851281Y-58055104D01*
X105493594Y-57377808D01*
X102108000Y-53992214D01*
X98722406Y-57377808D01*
X91777594Y-57377808D01*
X88392000Y-53992214D01*
X85006406Y-57377808D01*
X59093164Y-57377808D01*
X58231439Y-56516083D01*
X57764423Y-56196984D01*
X57171128Y-56068282D01*
X56574503Y-56180545D01*
X56068561Y-56516083D01*
X54230083Y-58354561D01*
X53910984Y-58821577D01*
X53782282Y-59414872D01*
X47041000Y-59414872D01*
X47041000Y-55872000D01*
X58928000Y-55872000D01*
X59122528Y-55832607D01*
X59301705Y-55704182D01*
X62470278Y-52139536D01*
X82282008Y-52139536D01*
X82579310Y-54511105D01*
X82914896Y-55321281D01*
X83592192Y-55963594D01*
X86977786Y-52578000D01*
X89806214Y-52578000D01*
X93191808Y-55963594D01*
X93869104Y-55321281D01*
X94501992Y-53016464D01*
X94392060Y-52139536D01*
X95998008Y-52139536D01*
X96295310Y-54511105D01*
X96630896Y-55321281D01*
X97308192Y-55963594D01*
X100693786Y-52578000D01*
X103522214Y-52578000D01*
X106907808Y-55963594D01*
X107585104Y-55321281D01*
X108217992Y-53016464D01*
X107920690Y-50644895D01*
X107585104Y-49834719D01*
X106907808Y-49192406D01*
X103522214Y-52578000D01*
X100693786Y-52578000D01*
X97308192Y-49192406D01*
X96630896Y-49834719D01*
X95998008Y-52139536D01*
X94392060Y-52139536D01*
X94204690Y-50644895D01*
X93869104Y-49834719D01*
X93191808Y-49192406D01*
X89806214Y-52578000D01*
X86977786Y-52578000D01*
X83592192Y-49192406D01*
X82914896Y-49834719D01*
X82282008Y-52139536D01*
X62470278Y-52139536D01*
X63928926Y-50498558D01*
X67006681Y-50498558D01*
X67150471Y-50833386D01*
X67811258Y-50964855D01*
X68702163Y-50833413D01*
X68854465Y-50507089D01*
X67926307Y-49578932D01*
X67006681Y-50498558D01*
X63928926Y-50498558D01*
X65652975Y-48559003D01*
X65621145Y-48774742D01*
X65752614Y-49435529D01*
X66087442Y-49579319D01*
X67007068Y-48659693D01*
X66745439Y-48398063D01*
X67664678Y-47478825D01*
X67926307Y-47740454D01*
X68187937Y-47478825D01*
X69107176Y-48398064D01*
X68845546Y-48659693D01*
X69773703Y-49587851D01*
X70100027Y-49435549D01*
X70231469Y-48544644D01*
X70102715Y-47897502D01*
X70265418Y-47734799D01*
X69825619Y-47295000D01*
X85464641Y-47295000D01*
X85006406Y-47778192D01*
M02*
