G04 #@! TF.FileFunction,Legend,Bot*
%FSLAX46Y46*%
G04 Gerber Fmt 4.6, Leading zero omitted, Abs format (unit mm)*
G04 Created by KiCad (PCBNEW 4.0.7) date 04/20/18 10:23:05*
%MOMM*%
%LPD*%
G01*
G04 APERTURE LIST*
%ADD10C,0.100000*%
%ADD11C,0.150000*%
G04 APERTURE END LIST*
D10*
D11*
X131935810Y-49856381D02*
X131935810Y-48856381D01*
X131697715Y-48856381D01*
X131554857Y-48904000D01*
X131459619Y-48999238D01*
X131412000Y-49094476D01*
X131364381Y-49284952D01*
X131364381Y-49427810D01*
X131412000Y-49618286D01*
X131459619Y-49713524D01*
X131554857Y-49808762D01*
X131697715Y-49856381D01*
X131935810Y-49856381D01*
X130364381Y-49856381D02*
X130697715Y-49380190D01*
X130935810Y-49856381D02*
X130935810Y-48856381D01*
X130554857Y-48856381D01*
X130459619Y-48904000D01*
X130412000Y-48951619D01*
X130364381Y-49046857D01*
X130364381Y-49189714D01*
X130412000Y-49284952D01*
X130459619Y-49332571D01*
X130554857Y-49380190D01*
X130935810Y-49380190D01*
X129983429Y-49808762D02*
X129840572Y-49856381D01*
X129602476Y-49856381D01*
X129507238Y-49808762D01*
X129459619Y-49761143D01*
X129412000Y-49665905D01*
X129412000Y-49570667D01*
X129459619Y-49475429D01*
X129507238Y-49427810D01*
X129602476Y-49380190D01*
X129792953Y-49332571D01*
X129888191Y-49284952D01*
X129935810Y-49237333D01*
X129983429Y-49142095D01*
X129983429Y-49046857D01*
X129935810Y-48951619D01*
X129888191Y-48904000D01*
X129792953Y-48856381D01*
X129554857Y-48856381D01*
X129412000Y-48904000D01*
X129031048Y-49808762D02*
X128888191Y-49856381D01*
X128650095Y-49856381D01*
X128554857Y-49808762D01*
X128507238Y-49761143D01*
X128459619Y-49665905D01*
X128459619Y-49570667D01*
X128507238Y-49475429D01*
X128554857Y-49427810D01*
X128650095Y-49380190D01*
X128840572Y-49332571D01*
X128935810Y-49284952D01*
X128983429Y-49237333D01*
X129031048Y-49142095D01*
X129031048Y-49046857D01*
X128983429Y-48951619D01*
X128935810Y-48904000D01*
X128840572Y-48856381D01*
X128602476Y-48856381D01*
X128459619Y-48904000D01*
X128173905Y-48856381D02*
X127602476Y-48856381D01*
X127888191Y-49856381D02*
X127888191Y-48856381D01*
X126697714Y-49761143D02*
X126745333Y-49808762D01*
X126888190Y-49856381D01*
X126983428Y-49856381D01*
X127126286Y-49808762D01*
X127221524Y-49713524D01*
X127269143Y-49618286D01*
X127316762Y-49427810D01*
X127316762Y-49284952D01*
X127269143Y-49094476D01*
X127221524Y-48999238D01*
X127126286Y-48904000D01*
X126983428Y-48856381D01*
X126888190Y-48856381D01*
X126745333Y-48904000D01*
X126697714Y-48951619D01*
X125507238Y-48856381D02*
X125507238Y-49665905D01*
X125459619Y-49761143D01*
X125412000Y-49808762D01*
X125316762Y-49856381D01*
X125126285Y-49856381D01*
X125031047Y-49808762D01*
X124983428Y-49761143D01*
X124935809Y-49665905D01*
X124935809Y-48856381D01*
X124459619Y-49856381D02*
X124459619Y-48856381D01*
X124221524Y-48856381D01*
X124078666Y-48904000D01*
X123983428Y-48999238D01*
X123935809Y-49094476D01*
X123888190Y-49284952D01*
X123888190Y-49427810D01*
X123935809Y-49618286D01*
X123983428Y-49713524D01*
X124078666Y-49808762D01*
X124221524Y-49856381D01*
X124459619Y-49856381D01*
X123507238Y-48951619D02*
X123459619Y-48904000D01*
X123364381Y-48856381D01*
X123126285Y-48856381D01*
X123031047Y-48904000D01*
X122983428Y-48951619D01*
X122935809Y-49046857D01*
X122935809Y-49142095D01*
X122983428Y-49284952D01*
X123554857Y-49856381D01*
X122935809Y-49856381D01*
X122507238Y-49761143D02*
X122459619Y-49808762D01*
X122507238Y-49856381D01*
X122554857Y-49808762D01*
X122507238Y-49761143D01*
X122507238Y-49856381D01*
X122126286Y-48856381D02*
X121459619Y-48856381D01*
X121888191Y-49856381D01*
X120507238Y-49761143D02*
X120554857Y-49808762D01*
X120697714Y-49856381D01*
X120792952Y-49856381D01*
X120935810Y-49808762D01*
X121031048Y-49713524D01*
X121078667Y-49618286D01*
X121126286Y-49427810D01*
X121126286Y-49284952D01*
X121078667Y-49094476D01*
X121031048Y-48999238D01*
X120935810Y-48904000D01*
X120792952Y-48856381D01*
X120697714Y-48856381D01*
X120554857Y-48904000D01*
X120507238Y-48951619D01*
X119459619Y-48856381D02*
X118888190Y-48856381D01*
X119173905Y-49856381D02*
X119173905Y-48856381D01*
X118554857Y-49856381D02*
X118554857Y-48856381D01*
X118554857Y-49332571D02*
X117983428Y-49332571D01*
X117983428Y-49856381D02*
X117983428Y-48856381D01*
X116935809Y-49856381D02*
X117269143Y-49380190D01*
X117507238Y-49856381D02*
X117507238Y-48856381D01*
X117126285Y-48856381D01*
X117031047Y-48904000D01*
X116983428Y-48951619D01*
X116935809Y-49046857D01*
X116935809Y-49189714D01*
X116983428Y-49284952D01*
X117031047Y-49332571D01*
X117126285Y-49380190D01*
X117507238Y-49380190D01*
X116507238Y-48856381D02*
X116507238Y-49665905D01*
X116459619Y-49761143D01*
X116412000Y-49808762D01*
X116316762Y-49856381D01*
X116126285Y-49856381D01*
X116031047Y-49808762D01*
X115983428Y-49761143D01*
X115935809Y-49665905D01*
X115935809Y-48856381D01*
X115459619Y-49475429D02*
X114697714Y-49475429D01*
X114221524Y-49856381D02*
X114221524Y-48856381D01*
X114221524Y-49332571D02*
X113650095Y-49332571D01*
X113650095Y-49856381D02*
X113650095Y-48856381D01*
X112983429Y-48856381D02*
X112792952Y-48856381D01*
X112697714Y-48904000D01*
X112602476Y-48999238D01*
X112554857Y-49189714D01*
X112554857Y-49523048D01*
X112602476Y-49713524D01*
X112697714Y-49808762D01*
X112792952Y-49856381D01*
X112983429Y-49856381D01*
X113078667Y-49808762D01*
X113173905Y-49713524D01*
X113221524Y-49523048D01*
X113221524Y-49189714D01*
X113173905Y-48999238D01*
X113078667Y-48904000D01*
X112983429Y-48856381D01*
X111650095Y-49856381D02*
X112126286Y-49856381D01*
X112126286Y-48856381D01*
X111316762Y-49332571D02*
X110983428Y-49332571D01*
X110840571Y-49856381D02*
X111316762Y-49856381D01*
X111316762Y-48856381D01*
X110840571Y-48856381D01*
X133769142Y-50982571D02*
X133626285Y-51030190D01*
X133578666Y-51077810D01*
X133531047Y-51173048D01*
X133531047Y-51315905D01*
X133578666Y-51411143D01*
X133626285Y-51458762D01*
X133721523Y-51506381D01*
X134102476Y-51506381D01*
X134102476Y-50506381D01*
X133769142Y-50506381D01*
X133673904Y-50554000D01*
X133626285Y-50601619D01*
X133578666Y-50696857D01*
X133578666Y-50792095D01*
X133626285Y-50887333D01*
X133673904Y-50934952D01*
X133769142Y-50982571D01*
X134102476Y-50982571D01*
X133150095Y-51220667D02*
X132673904Y-51220667D01*
X133245333Y-51506381D02*
X132912000Y-50506381D01*
X132578666Y-51506381D01*
X132292952Y-51458762D02*
X132150095Y-51506381D01*
X131911999Y-51506381D01*
X131816761Y-51458762D01*
X131769142Y-51411143D01*
X131721523Y-51315905D01*
X131721523Y-51220667D01*
X131769142Y-51125429D01*
X131816761Y-51077810D01*
X131911999Y-51030190D01*
X132102476Y-50982571D01*
X132197714Y-50934952D01*
X132245333Y-50887333D01*
X132292952Y-50792095D01*
X132292952Y-50696857D01*
X132245333Y-50601619D01*
X132197714Y-50554000D01*
X132102476Y-50506381D01*
X131864380Y-50506381D01*
X131721523Y-50554000D01*
X131292952Y-50982571D02*
X130959618Y-50982571D01*
X130816761Y-51506381D02*
X131292952Y-51506381D01*
X131292952Y-50506381D01*
X130816761Y-50506381D01*
X130388190Y-51506381D02*
X130388190Y-50506381D01*
X130150095Y-50506381D01*
X130007237Y-50554000D01*
X129911999Y-50649238D01*
X129864380Y-50744476D01*
X129816761Y-50934952D01*
X129816761Y-51077810D01*
X129864380Y-51268286D01*
X129911999Y-51363524D01*
X130007237Y-51458762D01*
X130150095Y-51506381D01*
X130388190Y-51506381D01*
X128435809Y-50506381D02*
X128245332Y-50506381D01*
X128150094Y-50554000D01*
X128054856Y-50649238D01*
X128007237Y-50839714D01*
X128007237Y-51173048D01*
X128054856Y-51363524D01*
X128150094Y-51458762D01*
X128245332Y-51506381D01*
X128435809Y-51506381D01*
X128531047Y-51458762D01*
X128626285Y-51363524D01*
X128673904Y-51173048D01*
X128673904Y-50839714D01*
X128626285Y-50649238D01*
X128531047Y-50554000D01*
X128435809Y-50506381D01*
X127578666Y-51506381D02*
X127578666Y-50506381D01*
X127007237Y-51506381D01*
X127007237Y-50506381D01*
X125816761Y-51458762D02*
X125673904Y-51506381D01*
X125435808Y-51506381D01*
X125340570Y-51458762D01*
X125292951Y-51411143D01*
X125245332Y-51315905D01*
X125245332Y-51220667D01*
X125292951Y-51125429D01*
X125340570Y-51077810D01*
X125435808Y-51030190D01*
X125626285Y-50982571D01*
X125721523Y-50934952D01*
X125769142Y-50887333D01*
X125816761Y-50792095D01*
X125816761Y-50696857D01*
X125769142Y-50601619D01*
X125721523Y-50554000D01*
X125626285Y-50506381D01*
X125388189Y-50506381D01*
X125245332Y-50554000D01*
X124150094Y-50506381D02*
X123911999Y-51506381D01*
X123721522Y-50792095D01*
X123531046Y-51506381D01*
X123292951Y-50506381D01*
X122959618Y-51220667D02*
X122483427Y-51220667D01*
X123054856Y-51506381D02*
X122721523Y-50506381D01*
X122388189Y-51506381D01*
X121483427Y-51506381D02*
X121816761Y-51030190D01*
X122054856Y-51506381D02*
X122054856Y-50506381D01*
X121673903Y-50506381D01*
X121578665Y-50554000D01*
X121531046Y-50601619D01*
X121483427Y-50696857D01*
X121483427Y-50839714D01*
X121531046Y-50934952D01*
X121578665Y-50982571D01*
X121673903Y-51030190D01*
X122054856Y-51030190D01*
X121054856Y-51506381D02*
X121054856Y-50506381D01*
X120816761Y-50506381D01*
X120673903Y-50554000D01*
X120578665Y-50649238D01*
X120531046Y-50744476D01*
X120483427Y-50934952D01*
X120483427Y-51077810D01*
X120531046Y-51268286D01*
X120578665Y-51363524D01*
X120673903Y-51458762D01*
X120816761Y-51506381D01*
X121054856Y-51506381D01*
X120007237Y-51458762D02*
X120007237Y-51506381D01*
X120054856Y-51601619D01*
X120102475Y-51649238D01*
X118816761Y-50982571D02*
X118483427Y-50982571D01*
X118340570Y-51506381D02*
X118816761Y-51506381D01*
X118816761Y-50506381D01*
X118340570Y-50506381D01*
X116626284Y-50554000D02*
X116721522Y-50506381D01*
X116864379Y-50506381D01*
X117007237Y-50554000D01*
X117102475Y-50649238D01*
X117150094Y-50744476D01*
X117197713Y-50934952D01*
X117197713Y-51077810D01*
X117150094Y-51268286D01*
X117102475Y-51363524D01*
X117007237Y-51458762D01*
X116864379Y-51506381D01*
X116769141Y-51506381D01*
X116626284Y-51458762D01*
X116578665Y-51411143D01*
X116578665Y-51077810D01*
X116769141Y-51077810D01*
X115959618Y-50506381D02*
X115769141Y-50506381D01*
X115673903Y-50554000D01*
X115578665Y-50649238D01*
X115531046Y-50839714D01*
X115531046Y-51173048D01*
X115578665Y-51363524D01*
X115673903Y-51458762D01*
X115769141Y-51506381D01*
X115959618Y-51506381D01*
X116054856Y-51458762D01*
X116150094Y-51363524D01*
X116197713Y-51173048D01*
X116197713Y-50839714D01*
X116150094Y-50649238D01*
X116054856Y-50554000D01*
X115959618Y-50506381D01*
X114911999Y-50506381D02*
X114721522Y-50506381D01*
X114626284Y-50554000D01*
X114531046Y-50649238D01*
X114483427Y-50839714D01*
X114483427Y-51173048D01*
X114531046Y-51363524D01*
X114626284Y-51458762D01*
X114721522Y-51506381D01*
X114911999Y-51506381D01*
X115007237Y-51458762D01*
X115102475Y-51363524D01*
X115150094Y-51173048D01*
X115150094Y-50839714D01*
X115102475Y-50649238D01*
X115007237Y-50554000D01*
X114911999Y-50506381D01*
X114054856Y-51506381D02*
X114054856Y-50506381D01*
X113816761Y-50506381D01*
X113673903Y-50554000D01*
X113578665Y-50649238D01*
X113531046Y-50744476D01*
X113483427Y-50934952D01*
X113483427Y-51077810D01*
X113531046Y-51268286D01*
X113578665Y-51363524D01*
X113673903Y-51458762D01*
X113816761Y-51506381D01*
X114054856Y-51506381D01*
X112483427Y-51411143D02*
X112531046Y-51458762D01*
X112673903Y-51506381D01*
X112769141Y-51506381D01*
X112911999Y-51458762D01*
X113007237Y-51363524D01*
X113054856Y-51268286D01*
X113102475Y-51077810D01*
X113102475Y-50934952D01*
X113054856Y-50744476D01*
X113007237Y-50649238D01*
X112911999Y-50554000D01*
X112769141Y-50506381D01*
X112673903Y-50506381D01*
X112531046Y-50554000D01*
X112483427Y-50601619D01*
X112054856Y-51506381D02*
X112054856Y-50506381D01*
X112054856Y-50982571D02*
X111483427Y-50982571D01*
X111483427Y-51506381D02*
X111483427Y-50506381D01*
X111007237Y-51506381D02*
X111007237Y-50506381D01*
X110054856Y-51506381D02*
X110531047Y-51506381D01*
X110531047Y-50506381D01*
X109721523Y-51506381D02*
X109721523Y-50506381D01*
X109483428Y-50506381D01*
X109340570Y-50554000D01*
X109245332Y-50649238D01*
X109197713Y-50744476D01*
X109150094Y-50934952D01*
X109150094Y-51077810D01*
X109197713Y-51268286D01*
X109245332Y-51363524D01*
X109340570Y-51458762D01*
X109483428Y-51506381D01*
X109721523Y-51506381D01*
X108673904Y-51458762D02*
X108673904Y-51506381D01*
X108721523Y-51601619D01*
X108769142Y-51649238D01*
X129364381Y-52204000D02*
X129459619Y-52156381D01*
X129602476Y-52156381D01*
X129745334Y-52204000D01*
X129840572Y-52299238D01*
X129888191Y-52394476D01*
X129935810Y-52584952D01*
X129935810Y-52727810D01*
X129888191Y-52918286D01*
X129840572Y-53013524D01*
X129745334Y-53108762D01*
X129602476Y-53156381D01*
X129507238Y-53156381D01*
X129364381Y-53108762D01*
X129316762Y-53061143D01*
X129316762Y-52727810D01*
X129507238Y-52727810D01*
X127602476Y-52204000D02*
X127697714Y-52156381D01*
X127840571Y-52156381D01*
X127983429Y-52204000D01*
X128078667Y-52299238D01*
X128126286Y-52394476D01*
X128173905Y-52584952D01*
X128173905Y-52727810D01*
X128126286Y-52918286D01*
X128078667Y-53013524D01*
X127983429Y-53108762D01*
X127840571Y-53156381D01*
X127745333Y-53156381D01*
X127602476Y-53108762D01*
X127554857Y-53061143D01*
X127554857Y-52727810D01*
X127745333Y-52727810D01*
X127126286Y-52156381D02*
X127126286Y-52965905D01*
X127078667Y-53061143D01*
X127031048Y-53108762D01*
X126935810Y-53156381D01*
X126745333Y-53156381D01*
X126650095Y-53108762D01*
X126602476Y-53061143D01*
X126554857Y-52965905D01*
X126554857Y-52156381D01*
X126126286Y-52870667D02*
X125650095Y-52870667D01*
X126221524Y-53156381D02*
X125888191Y-52156381D01*
X125554857Y-53156381D01*
X125221524Y-53156381D02*
X125221524Y-52156381D01*
X124650095Y-53156381D01*
X124650095Y-52156381D01*
X123650095Y-52204000D02*
X123745333Y-52156381D01*
X123888190Y-52156381D01*
X124031048Y-52204000D01*
X124126286Y-52299238D01*
X124173905Y-52394476D01*
X124221524Y-52584952D01*
X124221524Y-52727810D01*
X124173905Y-52918286D01*
X124126286Y-53013524D01*
X124031048Y-53108762D01*
X123888190Y-53156381D01*
X123792952Y-53156381D01*
X123650095Y-53108762D01*
X123602476Y-53061143D01*
X123602476Y-52727810D01*
X123792952Y-52727810D01*
X122983429Y-52680190D02*
X122983429Y-53156381D01*
X123316762Y-52156381D02*
X122983429Y-52680190D01*
X122650095Y-52156381D01*
X122364381Y-52870667D02*
X121888190Y-52870667D01*
X122459619Y-53156381D02*
X122126286Y-52156381D01*
X121792952Y-53156381D01*
X121459619Y-53156381D02*
X121459619Y-52156381D01*
X120888190Y-53156381D01*
X120888190Y-52156381D01*
X120364381Y-53108762D02*
X120364381Y-53156381D01*
X120412000Y-53251619D01*
X120459619Y-53299238D01*
X119173905Y-53156381D02*
X119173905Y-52156381D01*
X118935810Y-52156381D01*
X118792952Y-52204000D01*
X118697714Y-52299238D01*
X118650095Y-52394476D01*
X118602476Y-52584952D01*
X118602476Y-52727810D01*
X118650095Y-52918286D01*
X118697714Y-53013524D01*
X118792952Y-53108762D01*
X118935810Y-53156381D01*
X119173905Y-53156381D01*
X117412000Y-53156381D02*
X117412000Y-52156381D01*
X117078666Y-52870667D01*
X116745333Y-52156381D01*
X116745333Y-53156381D01*
X116316762Y-52870667D02*
X115840571Y-52870667D01*
X116412000Y-53156381D02*
X116078667Y-52156381D01*
X115745333Y-53156381D01*
X114840571Y-53156381D02*
X115173905Y-52680190D01*
X115412000Y-53156381D02*
X115412000Y-52156381D01*
X115031047Y-52156381D01*
X114935809Y-52204000D01*
X114888190Y-52251619D01*
X114840571Y-52346857D01*
X114840571Y-52489714D01*
X114888190Y-52584952D01*
X114935809Y-52632571D01*
X115031047Y-52680190D01*
X115412000Y-52680190D01*
X114412000Y-53156381D02*
X114412000Y-52156381D01*
X113840571Y-53156381D02*
X114269143Y-52584952D01*
X113840571Y-52156381D02*
X114412000Y-52727810D01*
X113459619Y-53108762D02*
X113316762Y-53156381D01*
X113078666Y-53156381D01*
X112983428Y-53108762D01*
X112935809Y-53061143D01*
X112888190Y-52965905D01*
X112888190Y-52870667D01*
X112935809Y-52775429D01*
X112983428Y-52727810D01*
X113078666Y-52680190D01*
X113269143Y-52632571D01*
X113364381Y-52584952D01*
X113412000Y-52537333D01*
X113459619Y-52442095D01*
X113459619Y-52346857D01*
X113412000Y-52251619D01*
X113364381Y-52204000D01*
X113269143Y-52156381D01*
X113031047Y-52156381D01*
X112888190Y-52204000D01*
M02*
