M48
;DRILL file {KiCad 4.0.7} date 04/20/18 10:23:07
;FORMAT={-:-/ absolute / metric / decimal}
FMAT,2
METRIC,TZ
T1C0.400
T2C0.600
T3C0.762
T4C0.800
T5C0.900
T6C1.000
T7C1.100
T8C1.200
T9C1.300
T10C1.400
T11C1.520
T12C1.800
T13C3.048
T14C4.000
%
G90
G05
M71
T1
X86.868Y-116.586
X92.71Y-116.586
X103.632Y-108.712
X104.14Y-83.566
X106.172Y-87.63
X106.426Y-92.456
X108.966Y-119.126
X109.982Y-118.618
X111.252Y-89.662
X111.252Y-104.394
T2
X117.094Y-132.334
X118.364Y-131.064
X118.364Y-133.604
T3
X60.96Y-135.382
X60.96Y-137.922
X63.5Y-135.382
X63.5Y-137.922
X66.04Y-135.382
X66.04Y-137.922
X68.58Y-135.382
X68.58Y-137.922
X77.856Y-139.192
X79.756Y-139.192
X81.656Y-139.192
T4
X57.912Y-118.872
X61.294Y-76.708
X65.278Y-80.518
X65.278Y-88.138
X65.532Y-90.678
X65.532Y-95.678
X65.532Y-118.872
X66.294Y-76.708
X67.898Y-120.396
X68.834Y-94.742
X69.342Y-83.82
X69.342Y-91.44
X72.898Y-83.82
X72.898Y-91.44
X72.898Y-120.396
X73.834Y-94.742
X75.438Y-117.602
X76.026Y-124.46
X76.2Y-94.488
X77.47Y-98.806
X80.01Y-98.806
X81.026Y-124.46
X82.296Y-73.66
X82.296Y-81.28
X82.55Y-83.82
X82.55Y-91.44
X82.55Y-98.806
X83.058Y-117.602
X83.82Y-94.488
X83.82Y-114.3
X85.852Y-73.66
X85.852Y-81.28
X86.868Y-84.074
X86.868Y-86.614
X86.868Y-89.154
X86.868Y-91.694
X87.376Y-94.996
X87.376Y-99.996
X87.63Y-119.38
X87.63Y-124.38
X87.63Y-130.048
X87.63Y-133.096
X87.63Y-136.398
X89.408Y-73.66
X89.408Y-81.28
X90.932Y-103.124
X90.932Y-105.664
X90.932Y-108.204
X90.932Y-110.744
X91.44Y-114.3
X91.44Y-118.872
X91.44Y-126.492
X91.694Y-94.996
X91.694Y-99.996
X91.948Y-52.07
X91.948Y-59.69
X92.456Y-75.438
X92.536Y-80.01
X93.98Y-118.872
X93.98Y-126.492
X94.488Y-84.074
X94.488Y-86.614
X94.488Y-89.154
X94.488Y-91.694
X94.568Y-114.808
X95.25Y-136.398
X96.52Y-118.872
X96.52Y-126.492
X97.456Y-75.438
X97.536Y-80.01
X97.79Y-92.456
X97.79Y-100.076
X97.79Y-130.048
X97.79Y-133.096
X98.552Y-103.124
X98.552Y-105.664
X98.552Y-108.204
X98.552Y-110.744
X99.06Y-118.872
X99.06Y-126.492
X99.568Y-114.808
X100.33Y-132.842
X100.584Y-73.152
X100.584Y-75.692
X100.584Y-78.232
X100.584Y-80.772
X100.584Y-83.312
X100.584Y-85.852
X100.584Y-88.392
X100.584Y-129.54
X101.6Y-118.872
X101.6Y-126.492
X102.108Y-96.266
X102.108Y-99.822
X102.108Y-102.362
X102.108Y-104.902
X102.108Y-107.442
X102.108Y-109.982
X102.108Y-112.522
X102.108Y-115.062
X103.712Y-92.456
X104.14Y-118.872
X104.14Y-126.492
X106.68Y-118.872
X106.68Y-126.492
X107.95Y-132.842
X108.204Y-73.152
X108.204Y-75.692
X108.204Y-78.232
X108.204Y-80.772
X108.204Y-83.312
X108.204Y-85.852
X108.204Y-88.392
X108.712Y-92.456
X109.728Y-96.266
X109.728Y-99.822
X109.728Y-102.362
X109.728Y-104.902
X109.728Y-107.442
X109.728Y-109.982
X109.728Y-112.522
X109.728Y-115.062
X110.49Y-137.16
X110.744Y-121.492
X110.744Y-126.492
X110.744Y-129.54
X111.252Y-72.898
X113.792Y-88.9
X113.792Y-91.44
X113.792Y-93.98
X113.792Y-96.52
X116.252Y-72.898
X116.84Y-61.976
X116.84Y-124.46
X118.11Y-137.16
X119.38Y-124.46
X121.412Y-88.9
X121.412Y-91.44
X121.412Y-93.98
X121.412Y-96.52
X121.84Y-61.976
X121.92Y-79.756
X121.92Y-84.756
X121.92Y-124.46
X122.936Y-129.286
X122.936Y-134.286
X125.476Y-107.95
X125.476Y-115.57
X125.476Y-118.618
X125.984Y-71.12
X126.746Y-126.746
X126.746Y-134.366
X130.302Y-60.198
X130.302Y-67.818
X130.302Y-126.746
X130.302Y-134.366
X130.476Y-118.618
X130.984Y-71.12
X135.128Y-85.344
X135.128Y-90.344
T5
X52.07Y-128.524
X54.61Y-128.524
X121.666Y-138.684
X124.206Y-138.684
T6
X66.668Y-67.31
X70.358Y-52.578
X70.358Y-60.078
X72.39Y-113.792
X74.168Y-67.31
X74.93Y-113.792
X77.47Y-113.792
X77.724Y-83.94
X77.724Y-91.44
X77.844Y-65.786
X80.772Y-57.15
X83.312Y-57.15
X85.344Y-65.786
X85.852Y-57.15
X90.17Y-62.858
X90.17Y-70.358
X92.964Y-139.7
X95.37Y-65.024
X95.504Y-139.7
X99.314Y-56.642
X100.076Y-137.668
X101.854Y-56.642
X102.616Y-137.668
X102.87Y-65.024
X104.394Y-56.642
X105.156Y-137.668
X109.982Y-61.468
X109.982Y-68.968
X113.538Y-130.81
X113.538Y-133.35
X113.792Y-78.994
X113.792Y-81.534
X113.792Y-84.074
X113.792Y-101.346
X114.554Y-57.15
X116.332Y-78.994
X116.332Y-81.534
X116.332Y-84.074
X117.094Y-57.15
X119.634Y-57.15
X120.904Y-107.95
X120.904Y-115.45
X121.292Y-101.346
X128.27Y-137.414
X128.524Y-74.676
X128.524Y-82.176
X130.81Y-137.414
X134.874Y-120.396
X134.874Y-122.936
X134.874Y-125.476
X135.128Y-63.5
X135.128Y-66.04
X135.128Y-68.58
X135.128Y-75.438
X135.128Y-77.978
X135.128Y-80.518
X135.128Y-108.458
X135.128Y-110.998
X135.128Y-113.538
T7
X58.42Y-103.886
X58.42Y-107.442
X58.42Y-110.998
X58.42Y-114.808
X68.58Y-103.886
X68.58Y-107.442
X68.58Y-110.998
X68.58Y-114.808
X68.834Y-75.692
X68.834Y-79.502
X77.47Y-52.324
X78.994Y-75.692
X78.994Y-79.502
X87.63Y-52.324
X96.266Y-52.324
X106.426Y-52.324
X126.238Y-57.404
X126.238Y-67.564
X130.048Y-104.648
X130.048Y-114.808
T8
X59.944Y-80.01
X59.944Y-100.33
X72.136Y-104.14
X72.136Y-109.728
X87.376Y-104.14
X87.376Y-109.728
X127.254Y-86.36
X127.254Y-101.6
T9
X61.976Y-55.312
X61.976Y-60.412
X61.976Y-65.512
X61.976Y-70.612
T10
X49.606Y-104.14
X49.606Y-108.636
X54.102Y-104.14
X54.102Y-106.388
X54.102Y-108.636
T11
X52.578Y-60.706
X52.578Y-65.786
X52.578Y-71.374
X52.578Y-76.454
X52.578Y-82.296
X52.578Y-87.376
X52.578Y-93.218
X52.578Y-98.298
X52.578Y-115.316
X52.578Y-120.396
X133.858Y-94.742
X133.858Y-99.822
T13
X50.Y-50.
X50.Y-140.
X140.Y-50.
X140.Y-140.
T4
X52.704Y-102.77G85X51.004Y-102.77
G05
X52.704Y-110.01G85X51.004Y-110.01
G05
T12
X77.566Y-141.732G85X76.866Y-141.732
G05
X82.646Y-141.732G85X81.946Y-141.732
G05
T14
X79.756Y-134.112G85X79.756Y-134.112
G05
T0
M30
