G04 #@! TF.FileFunction,Copper,L2,Bot,Signal*
%FSLAX46Y46*%
G04 Gerber Fmt 4.6, Leading zero omitted, Abs format (unit mm)*
G04 Created by KiCad (PCBNEW 4.0.7) date 05/14/18 04:12:04*
%MOMM*%
%LPD*%
G01*
G04 APERTURE LIST*
%ADD10C,0.100000*%
%ADD11C,2.400000*%
%ADD12O,2.400000X2.400000*%
%ADD13R,3.000000X3.000000*%
%ADD14C,3.000000*%
%ADD15R,2.200000X2.200000*%
%ADD16O,2.200000X2.200000*%
%ADD17C,4.064000*%
%ADD18R,4.500000X2.500000*%
%ADD19O,4.500000X2.500000*%
%ADD20C,10.000000*%
%ADD21R,2.600000X2.600000*%
%ADD22O,2.600000X2.600000*%
%ADD23C,2.000000*%
%ADD24C,2.000000*%
%ADD25C,3.000000*%
%ADD26C,1.000000*%
G04 APERTURE END LIST*
D10*
D11*
X119808000Y-64516000D03*
D12*
X132508000Y-64516000D03*
D13*
X138684000Y-115570000D03*
D14*
X138684000Y-110490000D03*
D15*
X65358000Y-114808000D03*
D16*
X78058000Y-114808000D03*
D17*
X50000000Y-50000000D03*
X50000000Y-140000000D03*
D18*
X115000000Y-65000000D03*
D19*
X115000000Y-70450000D03*
X115000000Y-75900000D03*
D18*
X83000000Y-70000000D03*
D19*
X83000000Y-64550000D03*
X83000000Y-59100000D03*
D20*
X134874000Y-94234000D03*
X55880000Y-95758000D03*
D17*
X140000000Y-50000000D03*
X140000000Y-140000000D03*
D13*
X138176000Y-70358000D03*
D14*
X138176000Y-65278000D03*
D13*
X51054000Y-76454000D03*
D14*
X51054000Y-81534000D03*
D18*
X115000000Y-85000000D03*
D19*
X115000000Y-90450000D03*
X115000000Y-95900000D03*
D18*
X83000000Y-90000000D03*
D19*
X83000000Y-84550000D03*
X83000000Y-79100000D03*
D18*
X115000000Y-105000000D03*
D19*
X115000000Y-110450000D03*
X115000000Y-115900000D03*
D18*
X83000000Y-110000000D03*
D19*
X83000000Y-104550000D03*
X83000000Y-99100000D03*
D18*
X115000000Y-125000000D03*
D19*
X115000000Y-130450000D03*
X115000000Y-135900000D03*
D18*
X83000000Y-130000000D03*
D19*
X83000000Y-124550000D03*
X83000000Y-119100000D03*
D20*
X95758000Y-136652000D03*
D15*
X139192000Y-75946000D03*
D16*
X139192000Y-86106000D03*
D15*
X52832000Y-72136000D03*
D16*
X52832000Y-61976000D03*
D15*
X132762000Y-59944000D03*
D16*
X120062000Y-59944000D03*
D15*
X65612000Y-74422000D03*
D16*
X78312000Y-74422000D03*
D15*
X132508000Y-79756000D03*
D16*
X119808000Y-79756000D03*
D15*
X65104000Y-90932000D03*
D16*
X77804000Y-90932000D03*
D15*
X132000000Y-108458000D03*
D16*
X119300000Y-108458000D03*
D15*
X132254000Y-119888000D03*
D16*
X119554000Y-119888000D03*
D15*
X65358000Y-133350000D03*
D16*
X78058000Y-133350000D03*
D11*
X78312000Y-69850000D03*
D12*
X65612000Y-69850000D03*
D11*
X119808000Y-84836000D03*
D12*
X132508000Y-84836000D03*
D11*
X77804000Y-86360000D03*
D12*
X65104000Y-86360000D03*
D11*
X119554000Y-104140000D03*
D12*
X132254000Y-104140000D03*
D11*
X78058000Y-110490000D03*
D12*
X65358000Y-110490000D03*
D11*
X119554000Y-124206000D03*
D12*
X132254000Y-124206000D03*
D11*
X78058000Y-129032000D03*
D12*
X65358000Y-129032000D03*
D21*
X61722000Y-139192000D03*
D22*
X76962000Y-139192000D03*
D21*
X115824000Y-140716000D03*
D22*
X131064000Y-140716000D03*
D11*
X98806000Y-102616000D03*
X98806000Y-125116000D03*
X98806000Y-88392000D03*
X98806000Y-65892000D03*
D13*
X51054000Y-124460000D03*
D14*
X51054000Y-129540000D03*
D20*
X98298000Y-53340000D03*
D15*
X49530000Y-119888000D03*
D16*
X49530000Y-109728000D03*
D15*
X138684000Y-121412000D03*
D16*
X138684000Y-131572000D03*
D21*
X57912000Y-49784000D03*
D22*
X73152000Y-49784000D03*
D21*
X112268000Y-49276000D03*
D22*
X127508000Y-49276000D03*
D23*
X98298000Y-119126000D03*
X99060000Y-109982000D03*
X97790000Y-72390000D03*
X98298000Y-79756000D03*
D24*
X132508000Y-76454000D02*
X138684000Y-76454000D01*
X138684000Y-76454000D02*
X139192000Y-75946000D01*
X132508000Y-70612000D02*
X137922000Y-70612000D01*
X137922000Y-70612000D02*
X138176000Y-70358000D01*
X132508000Y-64516000D02*
X132508000Y-70612000D01*
X132508000Y-70612000D02*
X132508000Y-76454000D01*
X132508000Y-76454000D02*
X132508000Y-79756000D01*
X132508000Y-79756000D02*
X132508000Y-84836000D01*
X132762000Y-59944000D02*
X132762000Y-64262000D01*
X132762000Y-64262000D02*
X132508000Y-64516000D01*
X78312000Y-69850000D02*
X78312000Y-74422000D01*
X83000000Y-70000000D02*
X78082000Y-70000000D01*
X78082000Y-70000000D02*
X77470000Y-70612000D01*
X77470000Y-70612000D02*
X78312000Y-69850000D01*
X83462000Y-70000000D02*
X83312000Y-69850000D01*
X109622000Y-130450000D02*
X114572000Y-130450000D01*
X109474000Y-130302000D02*
X109622000Y-130450000D01*
X104902000Y-122682000D02*
X109474000Y-130302000D01*
X103378000Y-121158000D02*
X104902000Y-122682000D01*
X101600000Y-121158000D02*
X103378000Y-121158000D01*
X98298000Y-119126000D02*
X101600000Y-121158000D01*
X99528000Y-110450000D02*
X114318000Y-110450000D01*
X99060000Y-109982000D02*
X99528000Y-110450000D01*
D25*
X95758000Y-136652000D02*
X95758000Y-132334000D01*
X95758000Y-132334000D02*
X94996000Y-131572000D01*
X95758000Y-136652000D02*
X90932000Y-136652000D01*
X90932000Y-136652000D02*
X90678000Y-136398000D01*
X95758000Y-136652000D02*
X95758000Y-142240000D01*
X95758000Y-142240000D02*
X95504000Y-142494000D01*
X95758000Y-136652000D02*
X100838000Y-136652000D01*
X100838000Y-136652000D02*
X101346000Y-137160000D01*
D24*
X83000000Y-90000000D02*
X78736000Y-90000000D01*
X78736000Y-90000000D02*
X77804000Y-90932000D01*
X77804000Y-86360000D02*
X77804000Y-90932000D01*
X83000000Y-110000000D02*
X78548000Y-110000000D01*
X78548000Y-110000000D02*
X78058000Y-110490000D01*
X78058000Y-110490000D02*
X78058000Y-114808000D01*
X78058000Y-129032000D02*
X82032000Y-129032000D01*
X82032000Y-129032000D02*
X83000000Y-130000000D01*
X78058000Y-133350000D02*
X78058000Y-129032000D01*
X132254000Y-119888000D02*
X132254000Y-124206000D01*
X138684000Y-121412000D02*
X138684000Y-115570000D01*
X138684000Y-115570000D02*
X132000000Y-115570000D01*
X132000000Y-115570000D02*
X132080000Y-115570000D01*
X132080000Y-115570000D02*
X132000000Y-115570000D01*
X132000000Y-108458000D02*
X132000000Y-115570000D01*
X132000000Y-115570000D02*
X132000000Y-119634000D01*
X132000000Y-119634000D02*
X132254000Y-119888000D01*
X132254000Y-104140000D02*
X132254000Y-108204000D01*
X132254000Y-108204000D02*
X132000000Y-108458000D01*
X104810000Y-70450000D02*
X115080000Y-70450000D01*
X97790000Y-72390000D02*
X104810000Y-70450000D01*
X108738000Y-90450000D02*
X114572000Y-90450000D01*
X108458000Y-90170000D02*
X108738000Y-90450000D01*
X103886000Y-85344000D02*
X108458000Y-90170000D01*
X98298000Y-79756000D02*
X103886000Y-85344000D01*
D25*
X98298000Y-53340000D02*
X92964000Y-53340000D01*
X92964000Y-53340000D02*
X92710000Y-53086000D01*
X98298000Y-53340000D02*
X98298000Y-48514000D01*
X98298000Y-48514000D02*
X97790000Y-48006000D01*
X98298000Y-53340000D02*
X103632000Y-53340000D01*
X103632000Y-53340000D02*
X103886000Y-53086000D01*
X98298000Y-53340000D02*
X98298000Y-58420000D01*
X98298000Y-58420000D02*
X97790000Y-58928000D01*
D24*
X51054000Y-81026000D02*
X50800000Y-81280000D01*
D26*
G36*
X71117246Y-47804101D02*
X70510282Y-48712486D01*
X70297145Y-49784000D01*
X70510282Y-50855514D01*
X71117246Y-51763899D01*
X72025631Y-52370863D01*
X73097145Y-52584000D01*
X73206855Y-52584000D01*
X74278369Y-52370863D01*
X75186754Y-51763899D01*
X75793718Y-50855514D01*
X76006855Y-49784000D01*
X75793718Y-48712486D01*
X75186754Y-47804101D01*
X74615542Y-47422429D01*
X75726264Y-47479389D01*
X84562213Y-56447218D01*
X84073467Y-56350000D01*
X81926533Y-56350000D01*
X80874154Y-56559331D01*
X79981989Y-57155456D01*
X79385864Y-58047621D01*
X79176533Y-59100000D01*
X79385864Y-60152379D01*
X79981989Y-61044544D01*
X80874154Y-61640669D01*
X81926533Y-61850000D01*
X84073467Y-61850000D01*
X85125846Y-61640669D01*
X86018011Y-61044544D01*
X86614136Y-60152379D01*
X86823467Y-59100000D01*
X86734299Y-58651723D01*
X92607837Y-64612925D01*
X92772427Y-64723844D01*
X92964000Y-64762000D01*
X96351700Y-64762000D01*
X96106470Y-65352581D01*
X96105532Y-66426707D01*
X96515717Y-67419429D01*
X97274576Y-68179614D01*
X98266581Y-68591530D01*
X99340707Y-68592468D01*
X100333429Y-68182283D01*
X101093614Y-67423424D01*
X101125272Y-67347183D01*
X101137763Y-68871127D01*
X97451984Y-69889704D01*
X97294901Y-69889567D01*
X96375714Y-70269367D01*
X95671839Y-70972015D01*
X95290435Y-71890538D01*
X95289567Y-72885099D01*
X95669367Y-73804286D01*
X96372015Y-74508161D01*
X97290538Y-74889565D01*
X98285099Y-74890433D01*
X98603340Y-74758938D01*
X101180187Y-74046818D01*
X101221971Y-79144437D01*
X100066450Y-77988916D01*
X99715985Y-77637839D01*
X98797462Y-77256435D01*
X97802901Y-77255567D01*
X96883714Y-77635367D01*
X96179839Y-78338015D01*
X95798435Y-79256538D01*
X95797567Y-80251099D01*
X96177367Y-81170286D01*
X96880015Y-81874161D01*
X96881062Y-81874596D01*
X101280409Y-86273943D01*
X101458082Y-107950000D01*
X100563996Y-107950000D01*
X100477985Y-107863839D01*
X99559462Y-107482435D01*
X98564901Y-107481567D01*
X97645714Y-107861367D01*
X96941839Y-108564015D01*
X96560435Y-109482538D01*
X96559567Y-110477099D01*
X96939367Y-111396286D01*
X97642015Y-112100161D01*
X97643062Y-112100596D01*
X97760233Y-112217767D01*
X98571291Y-112759699D01*
X99528000Y-112950000D01*
X101499065Y-112950000D01*
X101541990Y-118186852D01*
X99859160Y-117151264D01*
X99715985Y-117007839D01*
X98797462Y-116626435D01*
X97802901Y-116625567D01*
X96883714Y-117005367D01*
X96179839Y-117708015D01*
X95798435Y-118626538D01*
X95797567Y-119621099D01*
X96177367Y-120540286D01*
X96880015Y-121244161D01*
X97156396Y-121358924D01*
X98874239Y-122416059D01*
X98271293Y-122415532D01*
X97278571Y-122825717D01*
X96518386Y-123584576D01*
X96106470Y-124576581D01*
X96105532Y-125650707D01*
X96141601Y-125738000D01*
X94996000Y-125738000D01*
X94801472Y-125777393D01*
X94623525Y-125904440D01*
X79585411Y-142697000D01*
X74743912Y-142697000D01*
X58666000Y-142507848D01*
X58666000Y-140094000D01*
X59414000Y-140094000D01*
X59414000Y-140692503D01*
X59567459Y-141062986D01*
X59851014Y-141346541D01*
X60221496Y-141500000D01*
X60820000Y-141500000D01*
X61072000Y-141248000D01*
X61072000Y-139842000D01*
X62372000Y-139842000D01*
X62372000Y-141248000D01*
X62624000Y-141500000D01*
X63222504Y-141500000D01*
X63592986Y-141346541D01*
X63876541Y-141062986D01*
X64030000Y-140692503D01*
X64030000Y-140094000D01*
X63778000Y-139842000D01*
X62372000Y-139842000D01*
X61072000Y-139842000D01*
X59666000Y-139842000D01*
X59414000Y-140094000D01*
X58666000Y-140094000D01*
X58666000Y-139192000D01*
X74107145Y-139192000D01*
X74320282Y-140263514D01*
X74927246Y-141171899D01*
X75835631Y-141778863D01*
X76907145Y-141992000D01*
X77016855Y-141992000D01*
X78088369Y-141778863D01*
X78996754Y-141171899D01*
X79603718Y-140263514D01*
X79816855Y-139192000D01*
X79603718Y-138120486D01*
X78996754Y-137212101D01*
X78088369Y-136605137D01*
X77016855Y-136392000D01*
X76907145Y-136392000D01*
X75835631Y-136605137D01*
X74927246Y-137212101D01*
X74320282Y-138120486D01*
X74107145Y-139192000D01*
X58666000Y-139192000D01*
X58666000Y-137691497D01*
X59414000Y-137691497D01*
X59414000Y-138290000D01*
X59666000Y-138542000D01*
X61072000Y-138542000D01*
X61072000Y-137136000D01*
X62372000Y-137136000D01*
X62372000Y-138542000D01*
X63778000Y-138542000D01*
X64030000Y-138290000D01*
X64030000Y-137691497D01*
X63876541Y-137321014D01*
X63592986Y-137037459D01*
X63222504Y-136884000D01*
X62624000Y-136884000D01*
X62372000Y-137136000D01*
X61072000Y-137136000D01*
X60820000Y-136884000D01*
X60221496Y-136884000D01*
X59851014Y-137037459D01*
X59567459Y-137321014D01*
X59414000Y-137691497D01*
X58666000Y-137691497D01*
X58666000Y-132588000D01*
X58626607Y-132393472D01*
X58514635Y-132229596D01*
X58347729Y-132122195D01*
X58166000Y-132088000D01*
X52743299Y-132088000D01*
X52751143Y-132084759D01*
X53595793Y-131241582D01*
X54053478Y-130139355D01*
X54054443Y-129032000D01*
X62605104Y-129032000D01*
X62810629Y-130065245D01*
X63395916Y-130941188D01*
X63457719Y-130982483D01*
X63191604Y-131153724D01*
X62849108Y-131654983D01*
X62728614Y-132250000D01*
X62728614Y-134450000D01*
X62833207Y-135005867D01*
X63161724Y-135516396D01*
X63662983Y-135858892D01*
X64258000Y-135979386D01*
X66458000Y-135979386D01*
X67013867Y-135874793D01*
X67524396Y-135546276D01*
X67866892Y-135045017D01*
X67987386Y-134450000D01*
X67987386Y-132250000D01*
X67882793Y-131694133D01*
X67554276Y-131183604D01*
X67259113Y-130981928D01*
X67320084Y-130941188D01*
X67905371Y-130065245D01*
X68004536Y-129566707D01*
X75357532Y-129566707D01*
X75558000Y-130051876D01*
X75558000Y-132591188D01*
X75407063Y-133350000D01*
X75604976Y-134344977D01*
X76168585Y-135188478D01*
X77012086Y-135752087D01*
X78007063Y-135950000D01*
X78108937Y-135950000D01*
X79103914Y-135752087D01*
X79947415Y-135188478D01*
X80511024Y-134344977D01*
X80708937Y-133350000D01*
X80588948Y-132746772D01*
X80750000Y-132779386D01*
X85250000Y-132779386D01*
X85805867Y-132674793D01*
X86316396Y-132346276D01*
X86658892Y-131845017D01*
X86779386Y-131250000D01*
X86779386Y-128750000D01*
X86674793Y-128194133D01*
X86346276Y-127683604D01*
X85845017Y-127341108D01*
X85250000Y-127220614D01*
X83734487Y-127220614D01*
X83116967Y-126808000D01*
X84000002Y-126808000D01*
X84000002Y-126556001D01*
X84353229Y-126780200D01*
X85179802Y-126475261D01*
X85826760Y-125877219D01*
X86045294Y-125506733D01*
X85906151Y-125175000D01*
X84000000Y-125175000D01*
X84000000Y-125570000D01*
X82000000Y-125570000D01*
X82000000Y-125175000D01*
X80093849Y-125175000D01*
X79954706Y-125506733D01*
X80173240Y-125877219D01*
X80820198Y-126475261D01*
X80973996Y-126532000D01*
X79077941Y-126532000D01*
X78597419Y-126332470D01*
X77523293Y-126331532D01*
X76530571Y-126741717D01*
X75770386Y-127500576D01*
X75358470Y-128492581D01*
X75357532Y-129566707D01*
X68004536Y-129566707D01*
X68110896Y-129032000D01*
X67905371Y-127998755D01*
X67320084Y-127122812D01*
X66444141Y-126537525D01*
X65410896Y-126332000D01*
X65305104Y-126332000D01*
X64271859Y-126537525D01*
X63395916Y-127122812D01*
X62810629Y-127998755D01*
X62605104Y-129032000D01*
X54054443Y-129032000D01*
X54054519Y-128945881D01*
X53598759Y-127842857D01*
X53129124Y-127372401D01*
X53620396Y-127056276D01*
X53962892Y-126555017D01*
X54083386Y-125960000D01*
X54083386Y-123593267D01*
X79954706Y-123593267D01*
X80093849Y-123925000D01*
X82000000Y-123925000D01*
X82000000Y-122544000D01*
X84000000Y-122544000D01*
X84000000Y-123925000D01*
X85906151Y-123925000D01*
X86045294Y-123593267D01*
X85826760Y-123222781D01*
X85179802Y-122624739D01*
X84353229Y-122319800D01*
X84000000Y-122544000D01*
X82000000Y-122544000D01*
X81646771Y-122319800D01*
X80820198Y-122624739D01*
X80173240Y-123222781D01*
X79954706Y-123593267D01*
X54083386Y-123593267D01*
X54083386Y-122960000D01*
X53978793Y-122404133D01*
X53650276Y-121893604D01*
X53149017Y-121551108D01*
X52554000Y-121430614D01*
X52069754Y-121430614D01*
X52159386Y-120988000D01*
X52159386Y-119100000D01*
X79176533Y-119100000D01*
X79385864Y-120152379D01*
X79981989Y-121044544D01*
X80874154Y-121640669D01*
X81926533Y-121850000D01*
X84073467Y-121850000D01*
X85125846Y-121640669D01*
X86018011Y-121044544D01*
X86614136Y-120152379D01*
X86823467Y-119100000D01*
X86614136Y-118047621D01*
X86018011Y-117155456D01*
X85125846Y-116559331D01*
X84073467Y-116350000D01*
X81926533Y-116350000D01*
X80874154Y-116559331D01*
X79981989Y-117155456D01*
X79385864Y-118047621D01*
X79176533Y-119100000D01*
X52159386Y-119100000D01*
X52159386Y-118788000D01*
X52054793Y-118232133D01*
X51726276Y-117721604D01*
X51225017Y-117379108D01*
X50630000Y-117258614D01*
X48430000Y-117258614D01*
X47998000Y-117339900D01*
X47998000Y-111822197D01*
X48535023Y-112181024D01*
X49530000Y-112378937D01*
X50524977Y-112181024D01*
X51368478Y-111617415D01*
X51932087Y-110773914D01*
X51988560Y-110490000D01*
X62605104Y-110490000D01*
X62810629Y-111523245D01*
X63395916Y-112399188D01*
X63457719Y-112440483D01*
X63191604Y-112611724D01*
X62849108Y-113112983D01*
X62728614Y-113708000D01*
X62728614Y-115908000D01*
X62833207Y-116463867D01*
X63161724Y-116974396D01*
X63662983Y-117316892D01*
X64258000Y-117437386D01*
X66458000Y-117437386D01*
X67013867Y-117332793D01*
X67524396Y-117004276D01*
X67866892Y-116503017D01*
X67987386Y-115908000D01*
X67987386Y-113708000D01*
X67882793Y-113152133D01*
X67554276Y-112641604D01*
X67259113Y-112439928D01*
X67320084Y-112399188D01*
X67905371Y-111523245D01*
X68004536Y-111024707D01*
X75357532Y-111024707D01*
X75558000Y-111509876D01*
X75558000Y-114049188D01*
X75407063Y-114808000D01*
X75604976Y-115802977D01*
X76168585Y-116646478D01*
X77012086Y-117210087D01*
X78007063Y-117408000D01*
X78108937Y-117408000D01*
X79103914Y-117210087D01*
X79947415Y-116646478D01*
X80511024Y-115802977D01*
X80708937Y-114808000D01*
X80558000Y-114049188D01*
X80558000Y-112740505D01*
X80750000Y-112779386D01*
X85250000Y-112779386D01*
X85805867Y-112674793D01*
X86316396Y-112346276D01*
X86658892Y-111845017D01*
X86779386Y-111250000D01*
X86779386Y-108750000D01*
X86674793Y-108194133D01*
X86346276Y-107683604D01*
X85845017Y-107341108D01*
X85250000Y-107220614D01*
X80750000Y-107220614D01*
X80194133Y-107325207D01*
X79922497Y-107500000D01*
X78548000Y-107500000D01*
X77591291Y-107690301D01*
X77312317Y-107876706D01*
X76530571Y-108199717D01*
X75770386Y-108958576D01*
X75358470Y-109950581D01*
X75357532Y-111024707D01*
X68004536Y-111024707D01*
X68110896Y-110490000D01*
X67905371Y-109456755D01*
X67320084Y-108580812D01*
X66444141Y-107995525D01*
X65410896Y-107790000D01*
X65305104Y-107790000D01*
X64271859Y-107995525D01*
X63395916Y-108580812D01*
X62810629Y-109456755D01*
X62605104Y-110490000D01*
X51988560Y-110490000D01*
X52130000Y-109778937D01*
X52130000Y-109677063D01*
X51932087Y-108682086D01*
X51368478Y-107838585D01*
X50524977Y-107274976D01*
X49530000Y-107077063D01*
X48535023Y-107274976D01*
X47998000Y-107633803D01*
X47998000Y-105506733D01*
X79954706Y-105506733D01*
X80173240Y-105877219D01*
X80820198Y-106475261D01*
X81646771Y-106780200D01*
X82000000Y-106556000D01*
X82000000Y-105175000D01*
X84000000Y-105175000D01*
X84000000Y-106556000D01*
X84353229Y-106780200D01*
X85179802Y-106475261D01*
X85826760Y-105877219D01*
X86045294Y-105506733D01*
X85906151Y-105175000D01*
X84000000Y-105175000D01*
X82000000Y-105175000D01*
X80093849Y-105175000D01*
X79954706Y-105506733D01*
X47998000Y-105506733D01*
X47998000Y-104388787D01*
X97881741Y-104388787D01*
X98016017Y-104724100D01*
X98882886Y-104865944D01*
X99595983Y-104724100D01*
X99730259Y-104388787D01*
X98806000Y-103464528D01*
X97881741Y-104388787D01*
X47998000Y-104388787D01*
X47998000Y-103593267D01*
X79954706Y-103593267D01*
X80093849Y-103925000D01*
X82000000Y-103925000D01*
X82000000Y-102544000D01*
X84000000Y-102544000D01*
X84000000Y-103925000D01*
X85906151Y-103925000D01*
X86045294Y-103593267D01*
X85826760Y-103222781D01*
X85253523Y-102692886D01*
X96556056Y-102692886D01*
X96697900Y-103405983D01*
X97033213Y-103540259D01*
X97957472Y-102616000D01*
X99654528Y-102616000D01*
X100578787Y-103540259D01*
X100914100Y-103405983D01*
X101055944Y-102539114D01*
X100914100Y-101826017D01*
X100578787Y-101691741D01*
X99654528Y-102616000D01*
X97957472Y-102616000D01*
X97033213Y-101691741D01*
X96697900Y-101826017D01*
X96556056Y-102692886D01*
X85253523Y-102692886D01*
X85179802Y-102624739D01*
X84353229Y-102319800D01*
X84000000Y-102544000D01*
X82000000Y-102544000D01*
X81646771Y-102319800D01*
X80820198Y-102624739D01*
X80173240Y-103222781D01*
X79954706Y-103593267D01*
X47998000Y-103593267D01*
X47998000Y-100557808D01*
X52494406Y-100557808D01*
X53136719Y-101235104D01*
X55441536Y-101867992D01*
X57813105Y-101570690D01*
X58623281Y-101235104D01*
X59265594Y-100557808D01*
X55880000Y-97172214D01*
X52494406Y-100557808D01*
X47998000Y-100557808D01*
X47998000Y-95319536D01*
X49770008Y-95319536D01*
X50067310Y-97691105D01*
X50402896Y-98501281D01*
X51080192Y-99143594D01*
X54465786Y-95758000D01*
X57294214Y-95758000D01*
X60679808Y-99143594D01*
X60725776Y-99100000D01*
X79176533Y-99100000D01*
X79385864Y-100152379D01*
X79981989Y-101044544D01*
X80874154Y-101640669D01*
X81926533Y-101850000D01*
X84073467Y-101850000D01*
X85125846Y-101640669D01*
X86018011Y-101044544D01*
X86152535Y-100843213D01*
X97881741Y-100843213D01*
X98806000Y-101767472D01*
X99730259Y-100843213D01*
X99595983Y-100507900D01*
X98729114Y-100366056D01*
X98016017Y-100507900D01*
X97881741Y-100843213D01*
X86152535Y-100843213D01*
X86614136Y-100152379D01*
X86823467Y-99100000D01*
X86614136Y-98047621D01*
X86018011Y-97155456D01*
X85125846Y-96559331D01*
X84073467Y-96350000D01*
X81926533Y-96350000D01*
X80874154Y-96559331D01*
X79981989Y-97155456D01*
X79385864Y-98047621D01*
X79176533Y-99100000D01*
X60725776Y-99100000D01*
X61357104Y-98501281D01*
X61989992Y-96196464D01*
X61692690Y-93824895D01*
X61357104Y-93014719D01*
X60679808Y-92372406D01*
X57294214Y-95758000D01*
X54465786Y-95758000D01*
X51080192Y-92372406D01*
X50402896Y-93014719D01*
X49770008Y-95319536D01*
X47998000Y-95319536D01*
X47998000Y-90958192D01*
X52494406Y-90958192D01*
X55880000Y-94343786D01*
X59265594Y-90958192D01*
X58623281Y-90280896D01*
X56318464Y-89648008D01*
X53946895Y-89945310D01*
X53136719Y-90280896D01*
X52494406Y-90958192D01*
X47998000Y-90958192D01*
X47998000Y-86360000D01*
X62351104Y-86360000D01*
X62556629Y-87393245D01*
X63141916Y-88269188D01*
X63397366Y-88439875D01*
X62937604Y-88735724D01*
X62595108Y-89236983D01*
X62474614Y-89832000D01*
X62474614Y-92032000D01*
X62579207Y-92587867D01*
X62907724Y-93098396D01*
X63408983Y-93440892D01*
X64004000Y-93561386D01*
X66204000Y-93561386D01*
X66759867Y-93456793D01*
X67270396Y-93128276D01*
X67612892Y-92627017D01*
X67733386Y-92032000D01*
X67733386Y-89832000D01*
X67628793Y-89276133D01*
X67300276Y-88765604D01*
X66817167Y-88435509D01*
X67066084Y-88269188D01*
X67651371Y-87393245D01*
X67750536Y-86894707D01*
X75103532Y-86894707D01*
X75304000Y-87379876D01*
X75304000Y-90173188D01*
X75153063Y-90932000D01*
X75350976Y-91926977D01*
X75914585Y-92770478D01*
X76758086Y-93334087D01*
X77753063Y-93532000D01*
X77854937Y-93532000D01*
X78849914Y-93334087D01*
X79693415Y-92770478D01*
X79874143Y-92500000D01*
X79922437Y-92500000D01*
X80154983Y-92658892D01*
X80750000Y-92779386D01*
X85250000Y-92779386D01*
X85805867Y-92674793D01*
X86316396Y-92346276D01*
X86658892Y-91845017D01*
X86779386Y-91250000D01*
X86779386Y-90164787D01*
X97881741Y-90164787D01*
X98016017Y-90500100D01*
X98882886Y-90641944D01*
X99595983Y-90500100D01*
X99730259Y-90164787D01*
X98806000Y-89240528D01*
X97881741Y-90164787D01*
X86779386Y-90164787D01*
X86779386Y-88750000D01*
X86726492Y-88468886D01*
X96556056Y-88468886D01*
X96697900Y-89181983D01*
X97033213Y-89316259D01*
X97957472Y-88392000D01*
X99654528Y-88392000D01*
X100578787Y-89316259D01*
X100914100Y-89181983D01*
X101055944Y-88315114D01*
X100914100Y-87602017D01*
X100578787Y-87467741D01*
X99654528Y-88392000D01*
X97957472Y-88392000D01*
X97033213Y-87467741D01*
X96697900Y-87602017D01*
X96556056Y-88468886D01*
X86726492Y-88468886D01*
X86674793Y-88194133D01*
X86346276Y-87683604D01*
X85845017Y-87341108D01*
X85250000Y-87220614D01*
X80750000Y-87220614D01*
X80337965Y-87298143D01*
X80503530Y-86899419D01*
X80504156Y-86183114D01*
X80820198Y-86475261D01*
X81646771Y-86780200D01*
X82000000Y-86556000D01*
X82000000Y-85175000D01*
X84000000Y-85175000D01*
X84000000Y-86556000D01*
X84353229Y-86780200D01*
X84789603Y-86619213D01*
X97881741Y-86619213D01*
X98806000Y-87543472D01*
X99730259Y-86619213D01*
X99595983Y-86283900D01*
X98729114Y-86142056D01*
X98016017Y-86283900D01*
X97881741Y-86619213D01*
X84789603Y-86619213D01*
X85179802Y-86475261D01*
X85826760Y-85877219D01*
X86045294Y-85506733D01*
X85906151Y-85175000D01*
X84000000Y-85175000D01*
X82000000Y-85175000D01*
X81980000Y-85175000D01*
X81980000Y-83925000D01*
X82000000Y-83925000D01*
X82000000Y-82544000D01*
X84000000Y-82544000D01*
X84000000Y-83925000D01*
X85906151Y-83925000D01*
X86045294Y-83593267D01*
X85826760Y-83222781D01*
X85179802Y-82624739D01*
X84353229Y-82319800D01*
X84000000Y-82544000D01*
X82000000Y-82544000D01*
X81646771Y-82319800D01*
X80820198Y-82624739D01*
X80173240Y-83222781D01*
X79980229Y-83549998D01*
X79742000Y-83549998D01*
X79742000Y-84479672D01*
X79335424Y-84072386D01*
X78343419Y-83660470D01*
X77269293Y-83659532D01*
X76276571Y-84069717D01*
X75516386Y-84828576D01*
X75104470Y-85820581D01*
X75103532Y-86894707D01*
X67750536Y-86894707D01*
X67856896Y-86360000D01*
X67651371Y-85326755D01*
X67066084Y-84450812D01*
X66190141Y-83865525D01*
X65156896Y-83660000D01*
X65051104Y-83660000D01*
X64017859Y-83865525D01*
X63141916Y-84450812D01*
X62556629Y-85326755D01*
X62351104Y-86360000D01*
X47998000Y-86360000D01*
X47998000Y-74954000D01*
X48024614Y-74954000D01*
X48024614Y-77954000D01*
X48129207Y-78509867D01*
X48457724Y-79020396D01*
X48958983Y-79362892D01*
X48978578Y-79366860D01*
X48512207Y-79832418D01*
X48054522Y-80934645D01*
X48053481Y-82128119D01*
X48509241Y-83231143D01*
X49352418Y-84075793D01*
X50454645Y-84533478D01*
X51648119Y-84534519D01*
X52751143Y-84078759D01*
X53595793Y-83235582D01*
X54053478Y-82133355D01*
X54054519Y-80939881D01*
X53598759Y-79836857D01*
X53129124Y-79366401D01*
X53543122Y-79100000D01*
X79176533Y-79100000D01*
X79385864Y-80152379D01*
X79981989Y-81044544D01*
X80874154Y-81640669D01*
X81926533Y-81850000D01*
X84073467Y-81850000D01*
X85125846Y-81640669D01*
X86018011Y-81044544D01*
X86614136Y-80152379D01*
X86823467Y-79100000D01*
X86614136Y-78047621D01*
X86018011Y-77155456D01*
X85125846Y-76559331D01*
X84073467Y-76350000D01*
X81926533Y-76350000D01*
X80874154Y-76559331D01*
X79981989Y-77155456D01*
X79385864Y-78047621D01*
X79176533Y-79100000D01*
X53543122Y-79100000D01*
X53620396Y-79050276D01*
X53962892Y-78549017D01*
X54083386Y-77954000D01*
X54083386Y-74954000D01*
X54043933Y-74744324D01*
X54487867Y-74660793D01*
X54998396Y-74332276D01*
X55340892Y-73831017D01*
X55461386Y-73236000D01*
X55461386Y-71036000D01*
X55356793Y-70480133D01*
X55028276Y-69969604D01*
X54853230Y-69850000D01*
X62859104Y-69850000D01*
X63064629Y-70883245D01*
X63649916Y-71759188D01*
X63905366Y-71929875D01*
X63445604Y-72225724D01*
X63103108Y-72726983D01*
X62982614Y-73322000D01*
X62982614Y-75522000D01*
X63087207Y-76077867D01*
X63415724Y-76588396D01*
X63916983Y-76930892D01*
X64512000Y-77051386D01*
X66712000Y-77051386D01*
X67267867Y-76946793D01*
X67778396Y-76618276D01*
X68120892Y-76117017D01*
X68241386Y-75522000D01*
X68241386Y-73322000D01*
X68136793Y-72766133D01*
X67808276Y-72255604D01*
X67325167Y-71925509D01*
X67574084Y-71759188D01*
X68159371Y-70883245D01*
X68213324Y-70612000D01*
X74970000Y-70612000D01*
X75053228Y-71030416D01*
X75115511Y-71452467D01*
X75147969Y-71506712D01*
X75160301Y-71568708D01*
X75397312Y-71923420D01*
X75616369Y-72289514D01*
X75667114Y-72327208D01*
X75702233Y-72379767D01*
X75812000Y-72453111D01*
X75812000Y-73663188D01*
X75661063Y-74422000D01*
X75858976Y-75416977D01*
X76422585Y-76260478D01*
X77266086Y-76824087D01*
X78261063Y-77022000D01*
X78362937Y-77022000D01*
X79357914Y-76824087D01*
X80201415Y-76260478D01*
X80765024Y-75416977D01*
X80962937Y-74422000D01*
X80812000Y-73663188D01*
X80812000Y-72779386D01*
X85250000Y-72779386D01*
X85805867Y-72674793D01*
X86316396Y-72346276D01*
X86658892Y-71845017D01*
X86779386Y-71250000D01*
X86779386Y-68750000D01*
X86674793Y-68194133D01*
X86346276Y-67683604D01*
X85845017Y-67341108D01*
X85250000Y-67220614D01*
X80750000Y-67220614D01*
X80194133Y-67325207D01*
X79922497Y-67500000D01*
X79693182Y-67500000D01*
X78851419Y-67150470D01*
X77777293Y-67149532D01*
X76784571Y-67559717D01*
X76024386Y-68318576D01*
X75879880Y-68666586D01*
X75702233Y-68844233D01*
X75465222Y-69198946D01*
X75210825Y-69541425D01*
X75195419Y-69602734D01*
X75160301Y-69655292D01*
X75077072Y-70073713D01*
X74973104Y-70487467D01*
X74982332Y-70550001D01*
X74970000Y-70612000D01*
X68213324Y-70612000D01*
X68364896Y-69850000D01*
X68159371Y-68816755D01*
X67574084Y-67940812D01*
X66698141Y-67355525D01*
X65664896Y-67150000D01*
X65559104Y-67150000D01*
X64525859Y-67355525D01*
X63649916Y-67940812D01*
X63064629Y-68816755D01*
X62859104Y-69850000D01*
X54853230Y-69850000D01*
X54527017Y-69627108D01*
X53932000Y-69506614D01*
X51732000Y-69506614D01*
X51176133Y-69611207D01*
X50665604Y-69939724D01*
X50323108Y-70440983D01*
X50202614Y-71036000D01*
X50202614Y-73236000D01*
X50238104Y-73424614D01*
X49554000Y-73424614D01*
X48998133Y-73529207D01*
X48487604Y-73857724D01*
X48145108Y-74358983D01*
X48024614Y-74954000D01*
X47998000Y-74954000D01*
X47998000Y-65506733D01*
X79954706Y-65506733D01*
X80173240Y-65877219D01*
X80820198Y-66475261D01*
X81646771Y-66780200D01*
X82000000Y-66556000D01*
X82000000Y-65175000D01*
X84000000Y-65175000D01*
X84000000Y-66556000D01*
X84353229Y-66780200D01*
X85179802Y-66475261D01*
X85826760Y-65877219D01*
X86045294Y-65506733D01*
X85906151Y-65175000D01*
X84000000Y-65175000D01*
X82000000Y-65175000D01*
X80093849Y-65175000D01*
X79954706Y-65506733D01*
X47998000Y-65506733D01*
X47998000Y-61925063D01*
X50232000Y-61925063D01*
X50232000Y-62026937D01*
X50429913Y-63021914D01*
X50993522Y-63865415D01*
X51837023Y-64429024D01*
X52832000Y-64626937D01*
X53826977Y-64429024D01*
X54670478Y-63865415D01*
X54852321Y-63593267D01*
X79954706Y-63593267D01*
X80093849Y-63925000D01*
X82000000Y-63925000D01*
X82000000Y-62544000D01*
X84000000Y-62544000D01*
X84000000Y-63925000D01*
X85906151Y-63925000D01*
X86045294Y-63593267D01*
X85826760Y-63222781D01*
X85179802Y-62624739D01*
X84353229Y-62319800D01*
X84000000Y-62544000D01*
X82000000Y-62544000D01*
X81646771Y-62319800D01*
X80820198Y-62624739D01*
X80173240Y-63222781D01*
X79954706Y-63593267D01*
X54852321Y-63593267D01*
X55234087Y-63021914D01*
X55432000Y-62026937D01*
X55432000Y-61925063D01*
X55234087Y-60930086D01*
X54670478Y-60086585D01*
X53826977Y-59522976D01*
X52832000Y-59325063D01*
X51837023Y-59522976D01*
X50993522Y-60086585D01*
X50429913Y-60930086D01*
X50232000Y-61925063D01*
X47998000Y-61925063D01*
X47998000Y-56083825D01*
X56177947Y-55362065D01*
X56368260Y-55305727D01*
X56521660Y-55179785D01*
X56613976Y-55004084D01*
X56634000Y-54864000D01*
X56634000Y-52092000D01*
X57010000Y-52092000D01*
X57262000Y-51840000D01*
X57262000Y-50434000D01*
X58562000Y-50434000D01*
X58562000Y-51840000D01*
X58814000Y-52092000D01*
X59412504Y-52092000D01*
X59782986Y-51938541D01*
X60066541Y-51654986D01*
X60220000Y-51284503D01*
X60220000Y-50686000D01*
X59968000Y-50434000D01*
X58562000Y-50434000D01*
X57262000Y-50434000D01*
X56892000Y-50434000D01*
X56892000Y-49134000D01*
X57262000Y-49134000D01*
X57262000Y-47728000D01*
X58562000Y-47728000D01*
X58562000Y-49134000D01*
X59968000Y-49134000D01*
X60220000Y-48882000D01*
X60220000Y-48283497D01*
X60066541Y-47913014D01*
X59782986Y-47629459D01*
X59412504Y-47476000D01*
X58814000Y-47476000D01*
X58562000Y-47728000D01*
X57262000Y-47728000D01*
X57010000Y-47476000D01*
X56634000Y-47476000D01*
X56634000Y-47295000D01*
X71879169Y-47295000D01*
X71117246Y-47804101D01*
X71117246Y-47804101D01*
G37*
X71117246Y-47804101D02*
X70510282Y-48712486D01*
X70297145Y-49784000D01*
X70510282Y-50855514D01*
X71117246Y-51763899D01*
X72025631Y-52370863D01*
X73097145Y-52584000D01*
X73206855Y-52584000D01*
X74278369Y-52370863D01*
X75186754Y-51763899D01*
X75793718Y-50855514D01*
X76006855Y-49784000D01*
X75793718Y-48712486D01*
X75186754Y-47804101D01*
X74615542Y-47422429D01*
X75726264Y-47479389D01*
X84562213Y-56447218D01*
X84073467Y-56350000D01*
X81926533Y-56350000D01*
X80874154Y-56559331D01*
X79981989Y-57155456D01*
X79385864Y-58047621D01*
X79176533Y-59100000D01*
X79385864Y-60152379D01*
X79981989Y-61044544D01*
X80874154Y-61640669D01*
X81926533Y-61850000D01*
X84073467Y-61850000D01*
X85125846Y-61640669D01*
X86018011Y-61044544D01*
X86614136Y-60152379D01*
X86823467Y-59100000D01*
X86734299Y-58651723D01*
X92607837Y-64612925D01*
X92772427Y-64723844D01*
X92964000Y-64762000D01*
X96351700Y-64762000D01*
X96106470Y-65352581D01*
X96105532Y-66426707D01*
X96515717Y-67419429D01*
X97274576Y-68179614D01*
X98266581Y-68591530D01*
X99340707Y-68592468D01*
X100333429Y-68182283D01*
X101093614Y-67423424D01*
X101125272Y-67347183D01*
X101137763Y-68871127D01*
X97451984Y-69889704D01*
X97294901Y-69889567D01*
X96375714Y-70269367D01*
X95671839Y-70972015D01*
X95290435Y-71890538D01*
X95289567Y-72885099D01*
X95669367Y-73804286D01*
X96372015Y-74508161D01*
X97290538Y-74889565D01*
X98285099Y-74890433D01*
X98603340Y-74758938D01*
X101180187Y-74046818D01*
X101221971Y-79144437D01*
X100066450Y-77988916D01*
X99715985Y-77637839D01*
X98797462Y-77256435D01*
X97802901Y-77255567D01*
X96883714Y-77635367D01*
X96179839Y-78338015D01*
X95798435Y-79256538D01*
X95797567Y-80251099D01*
X96177367Y-81170286D01*
X96880015Y-81874161D01*
X96881062Y-81874596D01*
X101280409Y-86273943D01*
X101458082Y-107950000D01*
X100563996Y-107950000D01*
X100477985Y-107863839D01*
X99559462Y-107482435D01*
X98564901Y-107481567D01*
X97645714Y-107861367D01*
X96941839Y-108564015D01*
X96560435Y-109482538D01*
X96559567Y-110477099D01*
X96939367Y-111396286D01*
X97642015Y-112100161D01*
X97643062Y-112100596D01*
X97760233Y-112217767D01*
X98571291Y-112759699D01*
X99528000Y-112950000D01*
X101499065Y-112950000D01*
X101541990Y-118186852D01*
X99859160Y-117151264D01*
X99715985Y-117007839D01*
X98797462Y-116626435D01*
X97802901Y-116625567D01*
X96883714Y-117005367D01*
X96179839Y-117708015D01*
X95798435Y-118626538D01*
X95797567Y-119621099D01*
X96177367Y-120540286D01*
X96880015Y-121244161D01*
X97156396Y-121358924D01*
X98874239Y-122416059D01*
X98271293Y-122415532D01*
X97278571Y-122825717D01*
X96518386Y-123584576D01*
X96106470Y-124576581D01*
X96105532Y-125650707D01*
X96141601Y-125738000D01*
X94996000Y-125738000D01*
X94801472Y-125777393D01*
X94623525Y-125904440D01*
X79585411Y-142697000D01*
X74743912Y-142697000D01*
X58666000Y-142507848D01*
X58666000Y-140094000D01*
X59414000Y-140094000D01*
X59414000Y-140692503D01*
X59567459Y-141062986D01*
X59851014Y-141346541D01*
X60221496Y-141500000D01*
X60820000Y-141500000D01*
X61072000Y-141248000D01*
X61072000Y-139842000D01*
X62372000Y-139842000D01*
X62372000Y-141248000D01*
X62624000Y-141500000D01*
X63222504Y-141500000D01*
X63592986Y-141346541D01*
X63876541Y-141062986D01*
X64030000Y-140692503D01*
X64030000Y-140094000D01*
X63778000Y-139842000D01*
X62372000Y-139842000D01*
X61072000Y-139842000D01*
X59666000Y-139842000D01*
X59414000Y-140094000D01*
X58666000Y-140094000D01*
X58666000Y-139192000D01*
X74107145Y-139192000D01*
X74320282Y-140263514D01*
X74927246Y-141171899D01*
X75835631Y-141778863D01*
X76907145Y-141992000D01*
X77016855Y-141992000D01*
X78088369Y-141778863D01*
X78996754Y-141171899D01*
X79603718Y-140263514D01*
X79816855Y-139192000D01*
X79603718Y-138120486D01*
X78996754Y-137212101D01*
X78088369Y-136605137D01*
X77016855Y-136392000D01*
X76907145Y-136392000D01*
X75835631Y-136605137D01*
X74927246Y-137212101D01*
X74320282Y-138120486D01*
X74107145Y-139192000D01*
X58666000Y-139192000D01*
X58666000Y-137691497D01*
X59414000Y-137691497D01*
X59414000Y-138290000D01*
X59666000Y-138542000D01*
X61072000Y-138542000D01*
X61072000Y-137136000D01*
X62372000Y-137136000D01*
X62372000Y-138542000D01*
X63778000Y-138542000D01*
X64030000Y-138290000D01*
X64030000Y-137691497D01*
X63876541Y-137321014D01*
X63592986Y-137037459D01*
X63222504Y-136884000D01*
X62624000Y-136884000D01*
X62372000Y-137136000D01*
X61072000Y-137136000D01*
X60820000Y-136884000D01*
X60221496Y-136884000D01*
X59851014Y-137037459D01*
X59567459Y-137321014D01*
X59414000Y-137691497D01*
X58666000Y-137691497D01*
X58666000Y-132588000D01*
X58626607Y-132393472D01*
X58514635Y-132229596D01*
X58347729Y-132122195D01*
X58166000Y-132088000D01*
X52743299Y-132088000D01*
X52751143Y-132084759D01*
X53595793Y-131241582D01*
X54053478Y-130139355D01*
X54054443Y-129032000D01*
X62605104Y-129032000D01*
X62810629Y-130065245D01*
X63395916Y-130941188D01*
X63457719Y-130982483D01*
X63191604Y-131153724D01*
X62849108Y-131654983D01*
X62728614Y-132250000D01*
X62728614Y-134450000D01*
X62833207Y-135005867D01*
X63161724Y-135516396D01*
X63662983Y-135858892D01*
X64258000Y-135979386D01*
X66458000Y-135979386D01*
X67013867Y-135874793D01*
X67524396Y-135546276D01*
X67866892Y-135045017D01*
X67987386Y-134450000D01*
X67987386Y-132250000D01*
X67882793Y-131694133D01*
X67554276Y-131183604D01*
X67259113Y-130981928D01*
X67320084Y-130941188D01*
X67905371Y-130065245D01*
X68004536Y-129566707D01*
X75357532Y-129566707D01*
X75558000Y-130051876D01*
X75558000Y-132591188D01*
X75407063Y-133350000D01*
X75604976Y-134344977D01*
X76168585Y-135188478D01*
X77012086Y-135752087D01*
X78007063Y-135950000D01*
X78108937Y-135950000D01*
X79103914Y-135752087D01*
X79947415Y-135188478D01*
X80511024Y-134344977D01*
X80708937Y-133350000D01*
X80588948Y-132746772D01*
X80750000Y-132779386D01*
X85250000Y-132779386D01*
X85805867Y-132674793D01*
X86316396Y-132346276D01*
X86658892Y-131845017D01*
X86779386Y-131250000D01*
X86779386Y-128750000D01*
X86674793Y-128194133D01*
X86346276Y-127683604D01*
X85845017Y-127341108D01*
X85250000Y-127220614D01*
X83734487Y-127220614D01*
X83116967Y-126808000D01*
X84000002Y-126808000D01*
X84000002Y-126556001D01*
X84353229Y-126780200D01*
X85179802Y-126475261D01*
X85826760Y-125877219D01*
X86045294Y-125506733D01*
X85906151Y-125175000D01*
X84000000Y-125175000D01*
X84000000Y-125570000D01*
X82000000Y-125570000D01*
X82000000Y-125175000D01*
X80093849Y-125175000D01*
X79954706Y-125506733D01*
X80173240Y-125877219D01*
X80820198Y-126475261D01*
X80973996Y-126532000D01*
X79077941Y-126532000D01*
X78597419Y-126332470D01*
X77523293Y-126331532D01*
X76530571Y-126741717D01*
X75770386Y-127500576D01*
X75358470Y-128492581D01*
X75357532Y-129566707D01*
X68004536Y-129566707D01*
X68110896Y-129032000D01*
X67905371Y-127998755D01*
X67320084Y-127122812D01*
X66444141Y-126537525D01*
X65410896Y-126332000D01*
X65305104Y-126332000D01*
X64271859Y-126537525D01*
X63395916Y-127122812D01*
X62810629Y-127998755D01*
X62605104Y-129032000D01*
X54054443Y-129032000D01*
X54054519Y-128945881D01*
X53598759Y-127842857D01*
X53129124Y-127372401D01*
X53620396Y-127056276D01*
X53962892Y-126555017D01*
X54083386Y-125960000D01*
X54083386Y-123593267D01*
X79954706Y-123593267D01*
X80093849Y-123925000D01*
X82000000Y-123925000D01*
X82000000Y-122544000D01*
X84000000Y-122544000D01*
X84000000Y-123925000D01*
X85906151Y-123925000D01*
X86045294Y-123593267D01*
X85826760Y-123222781D01*
X85179802Y-122624739D01*
X84353229Y-122319800D01*
X84000000Y-122544000D01*
X82000000Y-122544000D01*
X81646771Y-122319800D01*
X80820198Y-122624739D01*
X80173240Y-123222781D01*
X79954706Y-123593267D01*
X54083386Y-123593267D01*
X54083386Y-122960000D01*
X53978793Y-122404133D01*
X53650276Y-121893604D01*
X53149017Y-121551108D01*
X52554000Y-121430614D01*
X52069754Y-121430614D01*
X52159386Y-120988000D01*
X52159386Y-119100000D01*
X79176533Y-119100000D01*
X79385864Y-120152379D01*
X79981989Y-121044544D01*
X80874154Y-121640669D01*
X81926533Y-121850000D01*
X84073467Y-121850000D01*
X85125846Y-121640669D01*
X86018011Y-121044544D01*
X86614136Y-120152379D01*
X86823467Y-119100000D01*
X86614136Y-118047621D01*
X86018011Y-117155456D01*
X85125846Y-116559331D01*
X84073467Y-116350000D01*
X81926533Y-116350000D01*
X80874154Y-116559331D01*
X79981989Y-117155456D01*
X79385864Y-118047621D01*
X79176533Y-119100000D01*
X52159386Y-119100000D01*
X52159386Y-118788000D01*
X52054793Y-118232133D01*
X51726276Y-117721604D01*
X51225017Y-117379108D01*
X50630000Y-117258614D01*
X48430000Y-117258614D01*
X47998000Y-117339900D01*
X47998000Y-111822197D01*
X48535023Y-112181024D01*
X49530000Y-112378937D01*
X50524977Y-112181024D01*
X51368478Y-111617415D01*
X51932087Y-110773914D01*
X51988560Y-110490000D01*
X62605104Y-110490000D01*
X62810629Y-111523245D01*
X63395916Y-112399188D01*
X63457719Y-112440483D01*
X63191604Y-112611724D01*
X62849108Y-113112983D01*
X62728614Y-113708000D01*
X62728614Y-115908000D01*
X62833207Y-116463867D01*
X63161724Y-116974396D01*
X63662983Y-117316892D01*
X64258000Y-117437386D01*
X66458000Y-117437386D01*
X67013867Y-117332793D01*
X67524396Y-117004276D01*
X67866892Y-116503017D01*
X67987386Y-115908000D01*
X67987386Y-113708000D01*
X67882793Y-113152133D01*
X67554276Y-112641604D01*
X67259113Y-112439928D01*
X67320084Y-112399188D01*
X67905371Y-111523245D01*
X68004536Y-111024707D01*
X75357532Y-111024707D01*
X75558000Y-111509876D01*
X75558000Y-114049188D01*
X75407063Y-114808000D01*
X75604976Y-115802977D01*
X76168585Y-116646478D01*
X77012086Y-117210087D01*
X78007063Y-117408000D01*
X78108937Y-117408000D01*
X79103914Y-117210087D01*
X79947415Y-116646478D01*
X80511024Y-115802977D01*
X80708937Y-114808000D01*
X80558000Y-114049188D01*
X80558000Y-112740505D01*
X80750000Y-112779386D01*
X85250000Y-112779386D01*
X85805867Y-112674793D01*
X86316396Y-112346276D01*
X86658892Y-111845017D01*
X86779386Y-111250000D01*
X86779386Y-108750000D01*
X86674793Y-108194133D01*
X86346276Y-107683604D01*
X85845017Y-107341108D01*
X85250000Y-107220614D01*
X80750000Y-107220614D01*
X80194133Y-107325207D01*
X79922497Y-107500000D01*
X78548000Y-107500000D01*
X77591291Y-107690301D01*
X77312317Y-107876706D01*
X76530571Y-108199717D01*
X75770386Y-108958576D01*
X75358470Y-109950581D01*
X75357532Y-111024707D01*
X68004536Y-111024707D01*
X68110896Y-110490000D01*
X67905371Y-109456755D01*
X67320084Y-108580812D01*
X66444141Y-107995525D01*
X65410896Y-107790000D01*
X65305104Y-107790000D01*
X64271859Y-107995525D01*
X63395916Y-108580812D01*
X62810629Y-109456755D01*
X62605104Y-110490000D01*
X51988560Y-110490000D01*
X52130000Y-109778937D01*
X52130000Y-109677063D01*
X51932087Y-108682086D01*
X51368478Y-107838585D01*
X50524977Y-107274976D01*
X49530000Y-107077063D01*
X48535023Y-107274976D01*
X47998000Y-107633803D01*
X47998000Y-105506733D01*
X79954706Y-105506733D01*
X80173240Y-105877219D01*
X80820198Y-106475261D01*
X81646771Y-106780200D01*
X82000000Y-106556000D01*
X82000000Y-105175000D01*
X84000000Y-105175000D01*
X84000000Y-106556000D01*
X84353229Y-106780200D01*
X85179802Y-106475261D01*
X85826760Y-105877219D01*
X86045294Y-105506733D01*
X85906151Y-105175000D01*
X84000000Y-105175000D01*
X82000000Y-105175000D01*
X80093849Y-105175000D01*
X79954706Y-105506733D01*
X47998000Y-105506733D01*
X47998000Y-104388787D01*
X97881741Y-104388787D01*
X98016017Y-104724100D01*
X98882886Y-104865944D01*
X99595983Y-104724100D01*
X99730259Y-104388787D01*
X98806000Y-103464528D01*
X97881741Y-104388787D01*
X47998000Y-104388787D01*
X47998000Y-103593267D01*
X79954706Y-103593267D01*
X80093849Y-103925000D01*
X82000000Y-103925000D01*
X82000000Y-102544000D01*
X84000000Y-102544000D01*
X84000000Y-103925000D01*
X85906151Y-103925000D01*
X86045294Y-103593267D01*
X85826760Y-103222781D01*
X85253523Y-102692886D01*
X96556056Y-102692886D01*
X96697900Y-103405983D01*
X97033213Y-103540259D01*
X97957472Y-102616000D01*
X99654528Y-102616000D01*
X100578787Y-103540259D01*
X100914100Y-103405983D01*
X101055944Y-102539114D01*
X100914100Y-101826017D01*
X100578787Y-101691741D01*
X99654528Y-102616000D01*
X97957472Y-102616000D01*
X97033213Y-101691741D01*
X96697900Y-101826017D01*
X96556056Y-102692886D01*
X85253523Y-102692886D01*
X85179802Y-102624739D01*
X84353229Y-102319800D01*
X84000000Y-102544000D01*
X82000000Y-102544000D01*
X81646771Y-102319800D01*
X80820198Y-102624739D01*
X80173240Y-103222781D01*
X79954706Y-103593267D01*
X47998000Y-103593267D01*
X47998000Y-100557808D01*
X52494406Y-100557808D01*
X53136719Y-101235104D01*
X55441536Y-101867992D01*
X57813105Y-101570690D01*
X58623281Y-101235104D01*
X59265594Y-100557808D01*
X55880000Y-97172214D01*
X52494406Y-100557808D01*
X47998000Y-100557808D01*
X47998000Y-95319536D01*
X49770008Y-95319536D01*
X50067310Y-97691105D01*
X50402896Y-98501281D01*
X51080192Y-99143594D01*
X54465786Y-95758000D01*
X57294214Y-95758000D01*
X60679808Y-99143594D01*
X60725776Y-99100000D01*
X79176533Y-99100000D01*
X79385864Y-100152379D01*
X79981989Y-101044544D01*
X80874154Y-101640669D01*
X81926533Y-101850000D01*
X84073467Y-101850000D01*
X85125846Y-101640669D01*
X86018011Y-101044544D01*
X86152535Y-100843213D01*
X97881741Y-100843213D01*
X98806000Y-101767472D01*
X99730259Y-100843213D01*
X99595983Y-100507900D01*
X98729114Y-100366056D01*
X98016017Y-100507900D01*
X97881741Y-100843213D01*
X86152535Y-100843213D01*
X86614136Y-100152379D01*
X86823467Y-99100000D01*
X86614136Y-98047621D01*
X86018011Y-97155456D01*
X85125846Y-96559331D01*
X84073467Y-96350000D01*
X81926533Y-96350000D01*
X80874154Y-96559331D01*
X79981989Y-97155456D01*
X79385864Y-98047621D01*
X79176533Y-99100000D01*
X60725776Y-99100000D01*
X61357104Y-98501281D01*
X61989992Y-96196464D01*
X61692690Y-93824895D01*
X61357104Y-93014719D01*
X60679808Y-92372406D01*
X57294214Y-95758000D01*
X54465786Y-95758000D01*
X51080192Y-92372406D01*
X50402896Y-93014719D01*
X49770008Y-95319536D01*
X47998000Y-95319536D01*
X47998000Y-90958192D01*
X52494406Y-90958192D01*
X55880000Y-94343786D01*
X59265594Y-90958192D01*
X58623281Y-90280896D01*
X56318464Y-89648008D01*
X53946895Y-89945310D01*
X53136719Y-90280896D01*
X52494406Y-90958192D01*
X47998000Y-90958192D01*
X47998000Y-86360000D01*
X62351104Y-86360000D01*
X62556629Y-87393245D01*
X63141916Y-88269188D01*
X63397366Y-88439875D01*
X62937604Y-88735724D01*
X62595108Y-89236983D01*
X62474614Y-89832000D01*
X62474614Y-92032000D01*
X62579207Y-92587867D01*
X62907724Y-93098396D01*
X63408983Y-93440892D01*
X64004000Y-93561386D01*
X66204000Y-93561386D01*
X66759867Y-93456793D01*
X67270396Y-93128276D01*
X67612892Y-92627017D01*
X67733386Y-92032000D01*
X67733386Y-89832000D01*
X67628793Y-89276133D01*
X67300276Y-88765604D01*
X66817167Y-88435509D01*
X67066084Y-88269188D01*
X67651371Y-87393245D01*
X67750536Y-86894707D01*
X75103532Y-86894707D01*
X75304000Y-87379876D01*
X75304000Y-90173188D01*
X75153063Y-90932000D01*
X75350976Y-91926977D01*
X75914585Y-92770478D01*
X76758086Y-93334087D01*
X77753063Y-93532000D01*
X77854937Y-93532000D01*
X78849914Y-93334087D01*
X79693415Y-92770478D01*
X79874143Y-92500000D01*
X79922437Y-92500000D01*
X80154983Y-92658892D01*
X80750000Y-92779386D01*
X85250000Y-92779386D01*
X85805867Y-92674793D01*
X86316396Y-92346276D01*
X86658892Y-91845017D01*
X86779386Y-91250000D01*
X86779386Y-90164787D01*
X97881741Y-90164787D01*
X98016017Y-90500100D01*
X98882886Y-90641944D01*
X99595983Y-90500100D01*
X99730259Y-90164787D01*
X98806000Y-89240528D01*
X97881741Y-90164787D01*
X86779386Y-90164787D01*
X86779386Y-88750000D01*
X86726492Y-88468886D01*
X96556056Y-88468886D01*
X96697900Y-89181983D01*
X97033213Y-89316259D01*
X97957472Y-88392000D01*
X99654528Y-88392000D01*
X100578787Y-89316259D01*
X100914100Y-89181983D01*
X101055944Y-88315114D01*
X100914100Y-87602017D01*
X100578787Y-87467741D01*
X99654528Y-88392000D01*
X97957472Y-88392000D01*
X97033213Y-87467741D01*
X96697900Y-87602017D01*
X96556056Y-88468886D01*
X86726492Y-88468886D01*
X86674793Y-88194133D01*
X86346276Y-87683604D01*
X85845017Y-87341108D01*
X85250000Y-87220614D01*
X80750000Y-87220614D01*
X80337965Y-87298143D01*
X80503530Y-86899419D01*
X80504156Y-86183114D01*
X80820198Y-86475261D01*
X81646771Y-86780200D01*
X82000000Y-86556000D01*
X82000000Y-85175000D01*
X84000000Y-85175000D01*
X84000000Y-86556000D01*
X84353229Y-86780200D01*
X84789603Y-86619213D01*
X97881741Y-86619213D01*
X98806000Y-87543472D01*
X99730259Y-86619213D01*
X99595983Y-86283900D01*
X98729114Y-86142056D01*
X98016017Y-86283900D01*
X97881741Y-86619213D01*
X84789603Y-86619213D01*
X85179802Y-86475261D01*
X85826760Y-85877219D01*
X86045294Y-85506733D01*
X85906151Y-85175000D01*
X84000000Y-85175000D01*
X82000000Y-85175000D01*
X81980000Y-85175000D01*
X81980000Y-83925000D01*
X82000000Y-83925000D01*
X82000000Y-82544000D01*
X84000000Y-82544000D01*
X84000000Y-83925000D01*
X85906151Y-83925000D01*
X86045294Y-83593267D01*
X85826760Y-83222781D01*
X85179802Y-82624739D01*
X84353229Y-82319800D01*
X84000000Y-82544000D01*
X82000000Y-82544000D01*
X81646771Y-82319800D01*
X80820198Y-82624739D01*
X80173240Y-83222781D01*
X79980229Y-83549998D01*
X79742000Y-83549998D01*
X79742000Y-84479672D01*
X79335424Y-84072386D01*
X78343419Y-83660470D01*
X77269293Y-83659532D01*
X76276571Y-84069717D01*
X75516386Y-84828576D01*
X75104470Y-85820581D01*
X75103532Y-86894707D01*
X67750536Y-86894707D01*
X67856896Y-86360000D01*
X67651371Y-85326755D01*
X67066084Y-84450812D01*
X66190141Y-83865525D01*
X65156896Y-83660000D01*
X65051104Y-83660000D01*
X64017859Y-83865525D01*
X63141916Y-84450812D01*
X62556629Y-85326755D01*
X62351104Y-86360000D01*
X47998000Y-86360000D01*
X47998000Y-74954000D01*
X48024614Y-74954000D01*
X48024614Y-77954000D01*
X48129207Y-78509867D01*
X48457724Y-79020396D01*
X48958983Y-79362892D01*
X48978578Y-79366860D01*
X48512207Y-79832418D01*
X48054522Y-80934645D01*
X48053481Y-82128119D01*
X48509241Y-83231143D01*
X49352418Y-84075793D01*
X50454645Y-84533478D01*
X51648119Y-84534519D01*
X52751143Y-84078759D01*
X53595793Y-83235582D01*
X54053478Y-82133355D01*
X54054519Y-80939881D01*
X53598759Y-79836857D01*
X53129124Y-79366401D01*
X53543122Y-79100000D01*
X79176533Y-79100000D01*
X79385864Y-80152379D01*
X79981989Y-81044544D01*
X80874154Y-81640669D01*
X81926533Y-81850000D01*
X84073467Y-81850000D01*
X85125846Y-81640669D01*
X86018011Y-81044544D01*
X86614136Y-80152379D01*
X86823467Y-79100000D01*
X86614136Y-78047621D01*
X86018011Y-77155456D01*
X85125846Y-76559331D01*
X84073467Y-76350000D01*
X81926533Y-76350000D01*
X80874154Y-76559331D01*
X79981989Y-77155456D01*
X79385864Y-78047621D01*
X79176533Y-79100000D01*
X53543122Y-79100000D01*
X53620396Y-79050276D01*
X53962892Y-78549017D01*
X54083386Y-77954000D01*
X54083386Y-74954000D01*
X54043933Y-74744324D01*
X54487867Y-74660793D01*
X54998396Y-74332276D01*
X55340892Y-73831017D01*
X55461386Y-73236000D01*
X55461386Y-71036000D01*
X55356793Y-70480133D01*
X55028276Y-69969604D01*
X54853230Y-69850000D01*
X62859104Y-69850000D01*
X63064629Y-70883245D01*
X63649916Y-71759188D01*
X63905366Y-71929875D01*
X63445604Y-72225724D01*
X63103108Y-72726983D01*
X62982614Y-73322000D01*
X62982614Y-75522000D01*
X63087207Y-76077867D01*
X63415724Y-76588396D01*
X63916983Y-76930892D01*
X64512000Y-77051386D01*
X66712000Y-77051386D01*
X67267867Y-76946793D01*
X67778396Y-76618276D01*
X68120892Y-76117017D01*
X68241386Y-75522000D01*
X68241386Y-73322000D01*
X68136793Y-72766133D01*
X67808276Y-72255604D01*
X67325167Y-71925509D01*
X67574084Y-71759188D01*
X68159371Y-70883245D01*
X68213324Y-70612000D01*
X74970000Y-70612000D01*
X75053228Y-71030416D01*
X75115511Y-71452467D01*
X75147969Y-71506712D01*
X75160301Y-71568708D01*
X75397312Y-71923420D01*
X75616369Y-72289514D01*
X75667114Y-72327208D01*
X75702233Y-72379767D01*
X75812000Y-72453111D01*
X75812000Y-73663188D01*
X75661063Y-74422000D01*
X75858976Y-75416977D01*
X76422585Y-76260478D01*
X77266086Y-76824087D01*
X78261063Y-77022000D01*
X78362937Y-77022000D01*
X79357914Y-76824087D01*
X80201415Y-76260478D01*
X80765024Y-75416977D01*
X80962937Y-74422000D01*
X80812000Y-73663188D01*
X80812000Y-72779386D01*
X85250000Y-72779386D01*
X85805867Y-72674793D01*
X86316396Y-72346276D01*
X86658892Y-71845017D01*
X86779386Y-71250000D01*
X86779386Y-68750000D01*
X86674793Y-68194133D01*
X86346276Y-67683604D01*
X85845017Y-67341108D01*
X85250000Y-67220614D01*
X80750000Y-67220614D01*
X80194133Y-67325207D01*
X79922497Y-67500000D01*
X79693182Y-67500000D01*
X78851419Y-67150470D01*
X77777293Y-67149532D01*
X76784571Y-67559717D01*
X76024386Y-68318576D01*
X75879880Y-68666586D01*
X75702233Y-68844233D01*
X75465222Y-69198946D01*
X75210825Y-69541425D01*
X75195419Y-69602734D01*
X75160301Y-69655292D01*
X75077072Y-70073713D01*
X74973104Y-70487467D01*
X74982332Y-70550001D01*
X74970000Y-70612000D01*
X68213324Y-70612000D01*
X68364896Y-69850000D01*
X68159371Y-68816755D01*
X67574084Y-67940812D01*
X66698141Y-67355525D01*
X65664896Y-67150000D01*
X65559104Y-67150000D01*
X64525859Y-67355525D01*
X63649916Y-67940812D01*
X63064629Y-68816755D01*
X62859104Y-69850000D01*
X54853230Y-69850000D01*
X54527017Y-69627108D01*
X53932000Y-69506614D01*
X51732000Y-69506614D01*
X51176133Y-69611207D01*
X50665604Y-69939724D01*
X50323108Y-70440983D01*
X50202614Y-71036000D01*
X50202614Y-73236000D01*
X50238104Y-73424614D01*
X49554000Y-73424614D01*
X48998133Y-73529207D01*
X48487604Y-73857724D01*
X48145108Y-74358983D01*
X48024614Y-74954000D01*
X47998000Y-74954000D01*
X47998000Y-65506733D01*
X79954706Y-65506733D01*
X80173240Y-65877219D01*
X80820198Y-66475261D01*
X81646771Y-66780200D01*
X82000000Y-66556000D01*
X82000000Y-65175000D01*
X84000000Y-65175000D01*
X84000000Y-66556000D01*
X84353229Y-66780200D01*
X85179802Y-66475261D01*
X85826760Y-65877219D01*
X86045294Y-65506733D01*
X85906151Y-65175000D01*
X84000000Y-65175000D01*
X82000000Y-65175000D01*
X80093849Y-65175000D01*
X79954706Y-65506733D01*
X47998000Y-65506733D01*
X47998000Y-61925063D01*
X50232000Y-61925063D01*
X50232000Y-62026937D01*
X50429913Y-63021914D01*
X50993522Y-63865415D01*
X51837023Y-64429024D01*
X52832000Y-64626937D01*
X53826977Y-64429024D01*
X54670478Y-63865415D01*
X54852321Y-63593267D01*
X79954706Y-63593267D01*
X80093849Y-63925000D01*
X82000000Y-63925000D01*
X82000000Y-62544000D01*
X84000000Y-62544000D01*
X84000000Y-63925000D01*
X85906151Y-63925000D01*
X86045294Y-63593267D01*
X85826760Y-63222781D01*
X85179802Y-62624739D01*
X84353229Y-62319800D01*
X84000000Y-62544000D01*
X82000000Y-62544000D01*
X81646771Y-62319800D01*
X80820198Y-62624739D01*
X80173240Y-63222781D01*
X79954706Y-63593267D01*
X54852321Y-63593267D01*
X55234087Y-63021914D01*
X55432000Y-62026937D01*
X55432000Y-61925063D01*
X55234087Y-60930086D01*
X54670478Y-60086585D01*
X53826977Y-59522976D01*
X52832000Y-59325063D01*
X51837023Y-59522976D01*
X50993522Y-60086585D01*
X50429913Y-60930086D01*
X50232000Y-61925063D01*
X47998000Y-61925063D01*
X47998000Y-56083825D01*
X56177947Y-55362065D01*
X56368260Y-55305727D01*
X56521660Y-55179785D01*
X56613976Y-55004084D01*
X56634000Y-54864000D01*
X56634000Y-52092000D01*
X57010000Y-52092000D01*
X57262000Y-51840000D01*
X57262000Y-50434000D01*
X58562000Y-50434000D01*
X58562000Y-51840000D01*
X58814000Y-52092000D01*
X59412504Y-52092000D01*
X59782986Y-51938541D01*
X60066541Y-51654986D01*
X60220000Y-51284503D01*
X60220000Y-50686000D01*
X59968000Y-50434000D01*
X58562000Y-50434000D01*
X57262000Y-50434000D01*
X56892000Y-50434000D01*
X56892000Y-49134000D01*
X57262000Y-49134000D01*
X57262000Y-47728000D01*
X58562000Y-47728000D01*
X58562000Y-49134000D01*
X59968000Y-49134000D01*
X60220000Y-48882000D01*
X60220000Y-48283497D01*
X60066541Y-47913014D01*
X59782986Y-47629459D01*
X59412504Y-47476000D01*
X58814000Y-47476000D01*
X58562000Y-47728000D01*
X57262000Y-47728000D01*
X57010000Y-47476000D01*
X56634000Y-47476000D01*
X56634000Y-47295000D01*
X71879169Y-47295000D01*
X71117246Y-47804101D01*
G36*
X96364895Y-47527310D02*
X95554719Y-47862896D01*
X94912406Y-48540192D01*
X98298000Y-51925786D01*
X101683594Y-48540192D01*
X101041281Y-47862896D01*
X98973148Y-47295000D01*
X110223473Y-47295000D01*
X110113459Y-47405014D01*
X109960000Y-47775497D01*
X109960000Y-48374000D01*
X110212000Y-48626000D01*
X111618000Y-48626000D01*
X111618000Y-48256000D01*
X112918000Y-48256000D01*
X112918000Y-48626000D01*
X114324000Y-48626000D01*
X114576000Y-48374000D01*
X114576000Y-47775497D01*
X114422541Y-47405014D01*
X114312527Y-47295000D01*
X125474894Y-47295000D01*
X125473246Y-47296101D01*
X124866282Y-48204486D01*
X124653145Y-49276000D01*
X124866282Y-50347514D01*
X125473246Y-51255899D01*
X126381631Y-51862863D01*
X127453145Y-52076000D01*
X127562855Y-52076000D01*
X128634369Y-51862863D01*
X129542754Y-51255899D01*
X130149718Y-50347514D01*
X130362855Y-49276000D01*
X130149718Y-48204486D01*
X129542754Y-47296101D01*
X129541106Y-47295000D01*
X133358000Y-47295000D01*
X133358000Y-47498000D01*
X133397393Y-47692528D01*
X133509365Y-47856404D01*
X133612000Y-47922448D01*
X133612000Y-57314614D01*
X131662000Y-57314614D01*
X131106133Y-57419207D01*
X130595604Y-57747724D01*
X130253108Y-58248983D01*
X130132614Y-58844000D01*
X130132614Y-61044000D01*
X130237207Y-61599867D01*
X130262000Y-61638396D01*
X130262000Y-63031722D01*
X129960629Y-63482755D01*
X129755104Y-64516000D01*
X129960629Y-65549245D01*
X130008000Y-65620141D01*
X130008000Y-78047969D01*
X129999108Y-78060983D01*
X129878614Y-78656000D01*
X129878614Y-80856000D01*
X129983207Y-81411867D01*
X130008000Y-81450396D01*
X130008000Y-83731859D01*
X129960629Y-83802755D01*
X129755104Y-84836000D01*
X129960629Y-85869245D01*
X130545916Y-86745188D01*
X131421859Y-87330475D01*
X132455104Y-87536000D01*
X132560896Y-87536000D01*
X133594141Y-87330475D01*
X134470084Y-86745188D01*
X134931211Y-86055063D01*
X136592000Y-86055063D01*
X136592000Y-86156937D01*
X136789913Y-87151914D01*
X137353522Y-87995415D01*
X138197023Y-88559024D01*
X139192000Y-88756937D01*
X140186977Y-88559024D01*
X141030478Y-87995415D01*
X141594087Y-87151914D01*
X141792000Y-86156937D01*
X141792000Y-86055063D01*
X141594087Y-85060086D01*
X141030478Y-84216585D01*
X140186977Y-83652976D01*
X139192000Y-83455063D01*
X138197023Y-83652976D01*
X137353522Y-84216585D01*
X136789913Y-85060086D01*
X136592000Y-86055063D01*
X134931211Y-86055063D01*
X135055371Y-85869245D01*
X135260896Y-84836000D01*
X135055371Y-83802755D01*
X135008000Y-83731859D01*
X135008000Y-81464031D01*
X135016892Y-81451017D01*
X135137386Y-80856000D01*
X135137386Y-78954000D01*
X138684000Y-78954000D01*
X139640709Y-78763699D01*
X139922539Y-78575386D01*
X140292000Y-78575386D01*
X140847867Y-78470793D01*
X141358396Y-78142276D01*
X141700892Y-77641017D01*
X141821386Y-77046000D01*
X141821386Y-74846000D01*
X141716793Y-74290133D01*
X141388276Y-73779604D01*
X140887017Y-73437108D01*
X140292000Y-73316614D01*
X140052123Y-73316614D01*
X140231867Y-73282793D01*
X140742396Y-72954276D01*
X141084892Y-72453017D01*
X141205386Y-71858000D01*
X141205386Y-68858000D01*
X141100793Y-68302133D01*
X140772276Y-67791604D01*
X140271017Y-67449108D01*
X140251422Y-67445140D01*
X140717793Y-66979582D01*
X141175478Y-65877355D01*
X141176519Y-64683881D01*
X140720759Y-63580857D01*
X139877582Y-62736207D01*
X138775355Y-62278522D01*
X137581881Y-62277481D01*
X136478857Y-62733241D01*
X135634207Y-63576418D01*
X135255443Y-64488583D01*
X135236186Y-64391775D01*
X135262000Y-64262000D01*
X135262000Y-61652031D01*
X135270892Y-61639017D01*
X135391386Y-61044000D01*
X135391386Y-58844000D01*
X135286793Y-58288133D01*
X135203055Y-58158000D01*
X142443000Y-58158000D01*
X142443000Y-63201286D01*
X142256134Y-80766681D01*
X142293456Y-80961617D01*
X142403678Y-81126675D01*
X142443000Y-81152574D01*
X142443000Y-93226000D01*
X141374882Y-93226000D01*
X141375126Y-92946742D01*
X140387645Y-90556856D01*
X138560762Y-88726781D01*
X136172602Y-87735130D01*
X133586742Y-87732874D01*
X131196856Y-88720355D01*
X129366781Y-90547238D01*
X128375130Y-92935398D01*
X128374876Y-93226000D01*
X116455545Y-93226000D01*
X116073467Y-93150000D01*
X113926533Y-93150000D01*
X113544455Y-93226000D01*
X104386000Y-93226000D01*
X104386000Y-91406733D01*
X111954706Y-91406733D01*
X112173240Y-91777219D01*
X112820198Y-92375261D01*
X113646771Y-92680200D01*
X114000000Y-92456000D01*
X114000000Y-91075000D01*
X116000000Y-91075000D01*
X116000000Y-92456000D01*
X116353229Y-92680200D01*
X117179802Y-92375261D01*
X117826760Y-91777219D01*
X118045294Y-91406733D01*
X117906151Y-91075000D01*
X116000000Y-91075000D01*
X114000000Y-91075000D01*
X112093849Y-91075000D01*
X111954706Y-91406733D01*
X104386000Y-91406733D01*
X104386000Y-89493267D01*
X111954706Y-89493267D01*
X112093849Y-89825000D01*
X114000000Y-89825000D01*
X114000000Y-88444000D01*
X116000000Y-88444000D01*
X116000000Y-89825000D01*
X117906151Y-89825000D01*
X118045294Y-89493267D01*
X117826760Y-89122781D01*
X117179802Y-88524739D01*
X116353229Y-88219800D01*
X116000000Y-88444000D01*
X114000000Y-88444000D01*
X113646771Y-88219800D01*
X112820198Y-88524739D01*
X112173240Y-89122781D01*
X111954706Y-89493267D01*
X104386000Y-89493267D01*
X104386000Y-83750000D01*
X111220614Y-83750000D01*
X111220614Y-86250000D01*
X111325207Y-86805867D01*
X111653724Y-87316396D01*
X112154983Y-87658892D01*
X112750000Y-87779386D01*
X117250000Y-87779386D01*
X117805867Y-87674793D01*
X118316396Y-87346276D01*
X118426109Y-87185706D01*
X119268581Y-87535530D01*
X120342707Y-87536468D01*
X121335429Y-87126283D01*
X122095614Y-86367424D01*
X122507530Y-85375419D01*
X122508468Y-84301293D01*
X122098283Y-83308571D01*
X121339424Y-82548386D01*
X120546663Y-82219203D01*
X120853914Y-82158087D01*
X121697415Y-81594478D01*
X122261024Y-80750977D01*
X122458937Y-79756000D01*
X122261024Y-78761023D01*
X121697415Y-77917522D01*
X120853914Y-77353913D01*
X119858937Y-77156000D01*
X119757063Y-77156000D01*
X118762086Y-77353913D01*
X117918585Y-77917522D01*
X117354976Y-78761023D01*
X117157063Y-79756000D01*
X117354976Y-80750977D01*
X117918585Y-81594478D01*
X118762086Y-82158087D01*
X119070321Y-82219399D01*
X118280571Y-82545717D01*
X118225269Y-82600923D01*
X117845017Y-82341108D01*
X117250000Y-82220614D01*
X112750000Y-82220614D01*
X112194133Y-82325207D01*
X111683604Y-82653724D01*
X111341108Y-83154983D01*
X111220614Y-83750000D01*
X104386000Y-83750000D01*
X104386000Y-81534000D01*
X104346607Y-81339472D01*
X104234635Y-81175596D01*
X104067729Y-81068195D01*
X103872187Y-81034191D01*
X103764732Y-81048929D01*
X103377682Y-81145691D01*
X103440130Y-75900000D01*
X111176533Y-75900000D01*
X111385864Y-76952379D01*
X111981989Y-77844544D01*
X112874154Y-78440669D01*
X113926533Y-78650000D01*
X116073467Y-78650000D01*
X117125846Y-78440669D01*
X118018011Y-77844544D01*
X118614136Y-76952379D01*
X118823467Y-75900000D01*
X118614136Y-74847621D01*
X118018011Y-73955456D01*
X117125846Y-73359331D01*
X116073467Y-73150000D01*
X113926533Y-73150000D01*
X112874154Y-73359331D01*
X111981989Y-73955456D01*
X111385864Y-74847621D01*
X111176533Y-75900000D01*
X103440130Y-75900000D01*
X103493621Y-71406733D01*
X111954706Y-71406733D01*
X112173240Y-71777219D01*
X112820198Y-72375261D01*
X113646771Y-72680200D01*
X114000000Y-72456000D01*
X114000000Y-71075000D01*
X116000000Y-71075000D01*
X116000000Y-72456000D01*
X116353229Y-72680200D01*
X117179802Y-72375261D01*
X117826760Y-71777219D01*
X118045294Y-71406733D01*
X117906151Y-71075000D01*
X116000000Y-71075000D01*
X114000000Y-71075000D01*
X112093849Y-71075000D01*
X111954706Y-71406733D01*
X103493621Y-71406733D01*
X103516400Y-69493267D01*
X111954706Y-69493267D01*
X112093849Y-69825000D01*
X114000000Y-69825000D01*
X114000000Y-68444000D01*
X116000000Y-68444000D01*
X116000000Y-69825000D01*
X117906151Y-69825000D01*
X118045294Y-69493267D01*
X117826760Y-69122781D01*
X117179802Y-68524739D01*
X116353229Y-68219800D01*
X116000000Y-68444000D01*
X114000000Y-68444000D01*
X113646771Y-68219800D01*
X112820198Y-68524739D01*
X112173240Y-69122781D01*
X111954706Y-69493267D01*
X103516400Y-69493267D01*
X103584773Y-63750000D01*
X111220614Y-63750000D01*
X111220614Y-66250000D01*
X111325207Y-66805867D01*
X111653724Y-67316396D01*
X112154983Y-67658892D01*
X112750000Y-67779386D01*
X117250000Y-67779386D01*
X117805867Y-67674793D01*
X118316396Y-67346276D01*
X118596432Y-66936430D01*
X119268581Y-67215530D01*
X120342707Y-67216468D01*
X121335429Y-66806283D01*
X122095614Y-66047424D01*
X122507530Y-65055419D01*
X122508468Y-63981293D01*
X122098283Y-62988571D01*
X121339424Y-62228386D01*
X121305283Y-62214209D01*
X121951415Y-61782478D01*
X122515024Y-60938977D01*
X122712937Y-59944000D01*
X122515024Y-58949023D01*
X121951415Y-58105522D01*
X121107914Y-57541913D01*
X120112937Y-57344000D01*
X120011063Y-57344000D01*
X119016086Y-57541913D01*
X118172585Y-58105522D01*
X117608976Y-58949023D01*
X117411063Y-59944000D01*
X117608976Y-60938977D01*
X118172585Y-61782478D01*
X118623733Y-62083925D01*
X118280571Y-62225717D01*
X118034965Y-62470894D01*
X117845017Y-62341108D01*
X117250000Y-62220614D01*
X112750000Y-62220614D01*
X112194133Y-62325207D01*
X111683604Y-62653724D01*
X111341108Y-63154983D01*
X111220614Y-63750000D01*
X103584773Y-63750000D01*
X103623965Y-60457952D01*
X103586890Y-60262969D01*
X103476877Y-60097772D01*
X103311261Y-59988391D01*
X103139617Y-59952244D01*
X95223696Y-59704871D01*
X93803547Y-58139808D01*
X94912406Y-58139808D01*
X95554719Y-58817104D01*
X97859536Y-59449992D01*
X100231105Y-59152690D01*
X101041281Y-58817104D01*
X101683594Y-58139808D01*
X98298000Y-54754214D01*
X94912406Y-58139808D01*
X93803547Y-58139808D01*
X89050300Y-52901536D01*
X92188008Y-52901536D01*
X92485310Y-55273105D01*
X92820896Y-56083281D01*
X93498192Y-56725594D01*
X96883786Y-53340000D01*
X99712214Y-53340000D01*
X103097808Y-56725594D01*
X103775104Y-56083281D01*
X104407992Y-53778464D01*
X104110690Y-51406895D01*
X103775104Y-50596719D01*
X103333580Y-50178000D01*
X109960000Y-50178000D01*
X109960000Y-50776503D01*
X110113459Y-51146986D01*
X110397014Y-51430541D01*
X110767496Y-51584000D01*
X111366000Y-51584000D01*
X111618000Y-51332000D01*
X111618000Y-49926000D01*
X112918000Y-49926000D01*
X112918000Y-51332000D01*
X113170000Y-51584000D01*
X113768504Y-51584000D01*
X114138986Y-51430541D01*
X114422541Y-51146986D01*
X114576000Y-50776503D01*
X114576000Y-50178000D01*
X114324000Y-49926000D01*
X112918000Y-49926000D01*
X111618000Y-49926000D01*
X110212000Y-49926000D01*
X109960000Y-50178000D01*
X103333580Y-50178000D01*
X103097808Y-49954406D01*
X99712214Y-53340000D01*
X96883786Y-53340000D01*
X93498192Y-49954406D01*
X92820896Y-50596719D01*
X92188008Y-52901536D01*
X89050300Y-52901536D01*
X83962887Y-47295000D01*
X98218025Y-47295000D01*
X96364895Y-47527310D01*
X96364895Y-47527310D01*
G37*
X96364895Y-47527310D02*
X95554719Y-47862896D01*
X94912406Y-48540192D01*
X98298000Y-51925786D01*
X101683594Y-48540192D01*
X101041281Y-47862896D01*
X98973148Y-47295000D01*
X110223473Y-47295000D01*
X110113459Y-47405014D01*
X109960000Y-47775497D01*
X109960000Y-48374000D01*
X110212000Y-48626000D01*
X111618000Y-48626000D01*
X111618000Y-48256000D01*
X112918000Y-48256000D01*
X112918000Y-48626000D01*
X114324000Y-48626000D01*
X114576000Y-48374000D01*
X114576000Y-47775497D01*
X114422541Y-47405014D01*
X114312527Y-47295000D01*
X125474894Y-47295000D01*
X125473246Y-47296101D01*
X124866282Y-48204486D01*
X124653145Y-49276000D01*
X124866282Y-50347514D01*
X125473246Y-51255899D01*
X126381631Y-51862863D01*
X127453145Y-52076000D01*
X127562855Y-52076000D01*
X128634369Y-51862863D01*
X129542754Y-51255899D01*
X130149718Y-50347514D01*
X130362855Y-49276000D01*
X130149718Y-48204486D01*
X129542754Y-47296101D01*
X129541106Y-47295000D01*
X133358000Y-47295000D01*
X133358000Y-47498000D01*
X133397393Y-47692528D01*
X133509365Y-47856404D01*
X133612000Y-47922448D01*
X133612000Y-57314614D01*
X131662000Y-57314614D01*
X131106133Y-57419207D01*
X130595604Y-57747724D01*
X130253108Y-58248983D01*
X130132614Y-58844000D01*
X130132614Y-61044000D01*
X130237207Y-61599867D01*
X130262000Y-61638396D01*
X130262000Y-63031722D01*
X129960629Y-63482755D01*
X129755104Y-64516000D01*
X129960629Y-65549245D01*
X130008000Y-65620141D01*
X130008000Y-78047969D01*
X129999108Y-78060983D01*
X129878614Y-78656000D01*
X129878614Y-80856000D01*
X129983207Y-81411867D01*
X130008000Y-81450396D01*
X130008000Y-83731859D01*
X129960629Y-83802755D01*
X129755104Y-84836000D01*
X129960629Y-85869245D01*
X130545916Y-86745188D01*
X131421859Y-87330475D01*
X132455104Y-87536000D01*
X132560896Y-87536000D01*
X133594141Y-87330475D01*
X134470084Y-86745188D01*
X134931211Y-86055063D01*
X136592000Y-86055063D01*
X136592000Y-86156937D01*
X136789913Y-87151914D01*
X137353522Y-87995415D01*
X138197023Y-88559024D01*
X139192000Y-88756937D01*
X140186977Y-88559024D01*
X141030478Y-87995415D01*
X141594087Y-87151914D01*
X141792000Y-86156937D01*
X141792000Y-86055063D01*
X141594087Y-85060086D01*
X141030478Y-84216585D01*
X140186977Y-83652976D01*
X139192000Y-83455063D01*
X138197023Y-83652976D01*
X137353522Y-84216585D01*
X136789913Y-85060086D01*
X136592000Y-86055063D01*
X134931211Y-86055063D01*
X135055371Y-85869245D01*
X135260896Y-84836000D01*
X135055371Y-83802755D01*
X135008000Y-83731859D01*
X135008000Y-81464031D01*
X135016892Y-81451017D01*
X135137386Y-80856000D01*
X135137386Y-78954000D01*
X138684000Y-78954000D01*
X139640709Y-78763699D01*
X139922539Y-78575386D01*
X140292000Y-78575386D01*
X140847867Y-78470793D01*
X141358396Y-78142276D01*
X141700892Y-77641017D01*
X141821386Y-77046000D01*
X141821386Y-74846000D01*
X141716793Y-74290133D01*
X141388276Y-73779604D01*
X140887017Y-73437108D01*
X140292000Y-73316614D01*
X140052123Y-73316614D01*
X140231867Y-73282793D01*
X140742396Y-72954276D01*
X141084892Y-72453017D01*
X141205386Y-71858000D01*
X141205386Y-68858000D01*
X141100793Y-68302133D01*
X140772276Y-67791604D01*
X140271017Y-67449108D01*
X140251422Y-67445140D01*
X140717793Y-66979582D01*
X141175478Y-65877355D01*
X141176519Y-64683881D01*
X140720759Y-63580857D01*
X139877582Y-62736207D01*
X138775355Y-62278522D01*
X137581881Y-62277481D01*
X136478857Y-62733241D01*
X135634207Y-63576418D01*
X135255443Y-64488583D01*
X135236186Y-64391775D01*
X135262000Y-64262000D01*
X135262000Y-61652031D01*
X135270892Y-61639017D01*
X135391386Y-61044000D01*
X135391386Y-58844000D01*
X135286793Y-58288133D01*
X135203055Y-58158000D01*
X142443000Y-58158000D01*
X142443000Y-63201286D01*
X142256134Y-80766681D01*
X142293456Y-80961617D01*
X142403678Y-81126675D01*
X142443000Y-81152574D01*
X142443000Y-93226000D01*
X141374882Y-93226000D01*
X141375126Y-92946742D01*
X140387645Y-90556856D01*
X138560762Y-88726781D01*
X136172602Y-87735130D01*
X133586742Y-87732874D01*
X131196856Y-88720355D01*
X129366781Y-90547238D01*
X128375130Y-92935398D01*
X128374876Y-93226000D01*
X116455545Y-93226000D01*
X116073467Y-93150000D01*
X113926533Y-93150000D01*
X113544455Y-93226000D01*
X104386000Y-93226000D01*
X104386000Y-91406733D01*
X111954706Y-91406733D01*
X112173240Y-91777219D01*
X112820198Y-92375261D01*
X113646771Y-92680200D01*
X114000000Y-92456000D01*
X114000000Y-91075000D01*
X116000000Y-91075000D01*
X116000000Y-92456000D01*
X116353229Y-92680200D01*
X117179802Y-92375261D01*
X117826760Y-91777219D01*
X118045294Y-91406733D01*
X117906151Y-91075000D01*
X116000000Y-91075000D01*
X114000000Y-91075000D01*
X112093849Y-91075000D01*
X111954706Y-91406733D01*
X104386000Y-91406733D01*
X104386000Y-89493267D01*
X111954706Y-89493267D01*
X112093849Y-89825000D01*
X114000000Y-89825000D01*
X114000000Y-88444000D01*
X116000000Y-88444000D01*
X116000000Y-89825000D01*
X117906151Y-89825000D01*
X118045294Y-89493267D01*
X117826760Y-89122781D01*
X117179802Y-88524739D01*
X116353229Y-88219800D01*
X116000000Y-88444000D01*
X114000000Y-88444000D01*
X113646771Y-88219800D01*
X112820198Y-88524739D01*
X112173240Y-89122781D01*
X111954706Y-89493267D01*
X104386000Y-89493267D01*
X104386000Y-83750000D01*
X111220614Y-83750000D01*
X111220614Y-86250000D01*
X111325207Y-86805867D01*
X111653724Y-87316396D01*
X112154983Y-87658892D01*
X112750000Y-87779386D01*
X117250000Y-87779386D01*
X117805867Y-87674793D01*
X118316396Y-87346276D01*
X118426109Y-87185706D01*
X119268581Y-87535530D01*
X120342707Y-87536468D01*
X121335429Y-87126283D01*
X122095614Y-86367424D01*
X122507530Y-85375419D01*
X122508468Y-84301293D01*
X122098283Y-83308571D01*
X121339424Y-82548386D01*
X120546663Y-82219203D01*
X120853914Y-82158087D01*
X121697415Y-81594478D01*
X122261024Y-80750977D01*
X122458937Y-79756000D01*
X122261024Y-78761023D01*
X121697415Y-77917522D01*
X120853914Y-77353913D01*
X119858937Y-77156000D01*
X119757063Y-77156000D01*
X118762086Y-77353913D01*
X117918585Y-77917522D01*
X117354976Y-78761023D01*
X117157063Y-79756000D01*
X117354976Y-80750977D01*
X117918585Y-81594478D01*
X118762086Y-82158087D01*
X119070321Y-82219399D01*
X118280571Y-82545717D01*
X118225269Y-82600923D01*
X117845017Y-82341108D01*
X117250000Y-82220614D01*
X112750000Y-82220614D01*
X112194133Y-82325207D01*
X111683604Y-82653724D01*
X111341108Y-83154983D01*
X111220614Y-83750000D01*
X104386000Y-83750000D01*
X104386000Y-81534000D01*
X104346607Y-81339472D01*
X104234635Y-81175596D01*
X104067729Y-81068195D01*
X103872187Y-81034191D01*
X103764732Y-81048929D01*
X103377682Y-81145691D01*
X103440130Y-75900000D01*
X111176533Y-75900000D01*
X111385864Y-76952379D01*
X111981989Y-77844544D01*
X112874154Y-78440669D01*
X113926533Y-78650000D01*
X116073467Y-78650000D01*
X117125846Y-78440669D01*
X118018011Y-77844544D01*
X118614136Y-76952379D01*
X118823467Y-75900000D01*
X118614136Y-74847621D01*
X118018011Y-73955456D01*
X117125846Y-73359331D01*
X116073467Y-73150000D01*
X113926533Y-73150000D01*
X112874154Y-73359331D01*
X111981989Y-73955456D01*
X111385864Y-74847621D01*
X111176533Y-75900000D01*
X103440130Y-75900000D01*
X103493621Y-71406733D01*
X111954706Y-71406733D01*
X112173240Y-71777219D01*
X112820198Y-72375261D01*
X113646771Y-72680200D01*
X114000000Y-72456000D01*
X114000000Y-71075000D01*
X116000000Y-71075000D01*
X116000000Y-72456000D01*
X116353229Y-72680200D01*
X117179802Y-72375261D01*
X117826760Y-71777219D01*
X118045294Y-71406733D01*
X117906151Y-71075000D01*
X116000000Y-71075000D01*
X114000000Y-71075000D01*
X112093849Y-71075000D01*
X111954706Y-71406733D01*
X103493621Y-71406733D01*
X103516400Y-69493267D01*
X111954706Y-69493267D01*
X112093849Y-69825000D01*
X114000000Y-69825000D01*
X114000000Y-68444000D01*
X116000000Y-68444000D01*
X116000000Y-69825000D01*
X117906151Y-69825000D01*
X118045294Y-69493267D01*
X117826760Y-69122781D01*
X117179802Y-68524739D01*
X116353229Y-68219800D01*
X116000000Y-68444000D01*
X114000000Y-68444000D01*
X113646771Y-68219800D01*
X112820198Y-68524739D01*
X112173240Y-69122781D01*
X111954706Y-69493267D01*
X103516400Y-69493267D01*
X103584773Y-63750000D01*
X111220614Y-63750000D01*
X111220614Y-66250000D01*
X111325207Y-66805867D01*
X111653724Y-67316396D01*
X112154983Y-67658892D01*
X112750000Y-67779386D01*
X117250000Y-67779386D01*
X117805867Y-67674793D01*
X118316396Y-67346276D01*
X118596432Y-66936430D01*
X119268581Y-67215530D01*
X120342707Y-67216468D01*
X121335429Y-66806283D01*
X122095614Y-66047424D01*
X122507530Y-65055419D01*
X122508468Y-63981293D01*
X122098283Y-62988571D01*
X121339424Y-62228386D01*
X121305283Y-62214209D01*
X121951415Y-61782478D01*
X122515024Y-60938977D01*
X122712937Y-59944000D01*
X122515024Y-58949023D01*
X121951415Y-58105522D01*
X121107914Y-57541913D01*
X120112937Y-57344000D01*
X120011063Y-57344000D01*
X119016086Y-57541913D01*
X118172585Y-58105522D01*
X117608976Y-58949023D01*
X117411063Y-59944000D01*
X117608976Y-60938977D01*
X118172585Y-61782478D01*
X118623733Y-62083925D01*
X118280571Y-62225717D01*
X118034965Y-62470894D01*
X117845017Y-62341108D01*
X117250000Y-62220614D01*
X112750000Y-62220614D01*
X112194133Y-62325207D01*
X111683604Y-62653724D01*
X111341108Y-63154983D01*
X111220614Y-63750000D01*
X103584773Y-63750000D01*
X103623965Y-60457952D01*
X103586890Y-60262969D01*
X103476877Y-60097772D01*
X103311261Y-59988391D01*
X103139617Y-59952244D01*
X95223696Y-59704871D01*
X93803547Y-58139808D01*
X94912406Y-58139808D01*
X95554719Y-58817104D01*
X97859536Y-59449992D01*
X100231105Y-59152690D01*
X101041281Y-58817104D01*
X101683594Y-58139808D01*
X98298000Y-54754214D01*
X94912406Y-58139808D01*
X93803547Y-58139808D01*
X89050300Y-52901536D01*
X92188008Y-52901536D01*
X92485310Y-55273105D01*
X92820896Y-56083281D01*
X93498192Y-56725594D01*
X96883786Y-53340000D01*
X99712214Y-53340000D01*
X103097808Y-56725594D01*
X103775104Y-56083281D01*
X104407992Y-53778464D01*
X104110690Y-51406895D01*
X103775104Y-50596719D01*
X103333580Y-50178000D01*
X109960000Y-50178000D01*
X109960000Y-50776503D01*
X110113459Y-51146986D01*
X110397014Y-51430541D01*
X110767496Y-51584000D01*
X111366000Y-51584000D01*
X111618000Y-51332000D01*
X111618000Y-49926000D01*
X112918000Y-49926000D01*
X112918000Y-51332000D01*
X113170000Y-51584000D01*
X113768504Y-51584000D01*
X114138986Y-51430541D01*
X114422541Y-51146986D01*
X114576000Y-50776503D01*
X114576000Y-50178000D01*
X114324000Y-49926000D01*
X112918000Y-49926000D01*
X111618000Y-49926000D01*
X110212000Y-49926000D01*
X109960000Y-50178000D01*
X103333580Y-50178000D01*
X103097808Y-49954406D01*
X99712214Y-53340000D01*
X96883786Y-53340000D01*
X93498192Y-49954406D01*
X92820896Y-50596719D01*
X92188008Y-52901536D01*
X89050300Y-52901536D01*
X83962887Y-47295000D01*
X98218025Y-47295000D01*
X96364895Y-47527310D01*
G36*
X118427933Y-101683877D02*
X118026571Y-101849717D01*
X117586719Y-102288801D01*
X117250000Y-102220614D01*
X112750000Y-102220614D01*
X112194133Y-102325207D01*
X111683604Y-102653724D01*
X111341108Y-103154983D01*
X111220614Y-103750000D01*
X111220614Y-106250000D01*
X111325207Y-106805867D01*
X111653724Y-107316396D01*
X112154983Y-107658892D01*
X112750000Y-107779386D01*
X116784048Y-107779386D01*
X116672980Y-108337762D01*
X116353229Y-108219800D01*
X116000000Y-108444000D01*
X116000000Y-109825000D01*
X116020000Y-109825000D01*
X116020000Y-111075000D01*
X116000000Y-111075000D01*
X116000000Y-112456000D01*
X116353229Y-112680200D01*
X117179802Y-112375261D01*
X117826760Y-111777219D01*
X118019771Y-111450002D01*
X118258000Y-111450002D01*
X118258000Y-110860866D01*
X119249063Y-111058000D01*
X119350937Y-111058000D01*
X120345914Y-110860087D01*
X121189415Y-110296478D01*
X121753024Y-109452977D01*
X121950937Y-108458000D01*
X121753024Y-107463023D01*
X121189415Y-106619522D01*
X120973154Y-106475021D01*
X121081429Y-106430283D01*
X121841614Y-105671424D01*
X122253530Y-104679419D01*
X122254468Y-103605293D01*
X121844283Y-102612571D01*
X121085424Y-101852386D01*
X120716350Y-101699133D01*
X130985173Y-101767592D01*
X130291916Y-102230812D01*
X129706629Y-103106755D01*
X129501104Y-104140000D01*
X129706629Y-105173245D01*
X129754000Y-105244141D01*
X129754000Y-106378228D01*
X129491108Y-106762983D01*
X129370614Y-107358000D01*
X129370614Y-109558000D01*
X129475207Y-110113867D01*
X129500000Y-110152396D01*
X129500000Y-119634000D01*
X129624614Y-120260478D01*
X129624614Y-120988000D01*
X129729207Y-121543867D01*
X129754000Y-121582396D01*
X129754000Y-123101859D01*
X129706629Y-123172755D01*
X129501104Y-124206000D01*
X129706629Y-125239245D01*
X130291916Y-126115188D01*
X131167859Y-126700475D01*
X132201104Y-126906000D01*
X132306896Y-126906000D01*
X133340141Y-126700475D01*
X134216084Y-126115188D01*
X134801371Y-125239245D01*
X135006896Y-124206000D01*
X134801371Y-123172755D01*
X134754000Y-123101859D01*
X134754000Y-121596031D01*
X134762892Y-121583017D01*
X134883386Y-120988000D01*
X134883386Y-118788000D01*
X134778793Y-118232133D01*
X134674463Y-118070000D01*
X136044999Y-118070000D01*
X136087724Y-118136396D01*
X136184000Y-118202179D01*
X136184000Y-119703969D01*
X136175108Y-119716983D01*
X136054614Y-120312000D01*
X136054614Y-122512000D01*
X136159207Y-123067867D01*
X136487724Y-123578396D01*
X136988983Y-123920892D01*
X137584000Y-124041386D01*
X139784000Y-124041386D01*
X140339867Y-123936793D01*
X140850396Y-123608276D01*
X141192892Y-123107017D01*
X141313386Y-122512000D01*
X141313386Y-120312000D01*
X141208793Y-119756133D01*
X141184000Y-119717604D01*
X141184000Y-118209001D01*
X141250396Y-118166276D01*
X141592892Y-117665017D01*
X141713386Y-117070000D01*
X141713386Y-114070000D01*
X141608793Y-113514133D01*
X141280276Y-113003604D01*
X140779017Y-112661108D01*
X140759422Y-112657140D01*
X141225793Y-112191582D01*
X141683478Y-111089355D01*
X141684519Y-109895881D01*
X141228759Y-108792857D01*
X140385582Y-107948207D01*
X139283355Y-107490522D01*
X138089881Y-107489481D01*
X136986857Y-107945241D01*
X136142207Y-108788418D01*
X135684522Y-109890645D01*
X135683481Y-111084119D01*
X136139241Y-112187143D01*
X136608876Y-112657599D01*
X136117604Y-112973724D01*
X136051821Y-113070000D01*
X134500000Y-113070000D01*
X134500000Y-110166031D01*
X134508892Y-110153017D01*
X134629386Y-109558000D01*
X134629386Y-108830478D01*
X134754000Y-108204000D01*
X134754000Y-105244141D01*
X134801371Y-105173245D01*
X135006896Y-104140000D01*
X134801371Y-103106755D01*
X134216084Y-102230812D01*
X133548402Y-101784681D01*
X142244104Y-101842652D01*
X141997891Y-133358000D01*
X140591578Y-133358000D01*
X141086087Y-132617914D01*
X141284000Y-131622937D01*
X141284000Y-131521063D01*
X141086087Y-130526086D01*
X140522478Y-129682585D01*
X139678977Y-129118976D01*
X138684000Y-128921063D01*
X137689023Y-129118976D01*
X136845522Y-129682585D01*
X136281913Y-130526086D01*
X136084000Y-131521063D01*
X136084000Y-131622937D01*
X136281913Y-132617914D01*
X136776422Y-133358000D01*
X133350000Y-133358000D01*
X133155472Y-133397393D01*
X132991596Y-133509365D01*
X132884195Y-133676271D01*
X132850000Y-133858000D01*
X132850000Y-138569889D01*
X132190369Y-138129137D01*
X131118855Y-137916000D01*
X131009145Y-137916000D01*
X129937631Y-138129137D01*
X129029246Y-138736101D01*
X128422282Y-139644486D01*
X128209145Y-140716000D01*
X128422282Y-141787514D01*
X128899687Y-142502000D01*
X118013743Y-142502000D01*
X118132000Y-142216503D01*
X118132000Y-141618000D01*
X117880000Y-141366000D01*
X116474000Y-141366000D01*
X116474000Y-141736000D01*
X115174000Y-141736000D01*
X115174000Y-141366000D01*
X113768000Y-141366000D01*
X113516000Y-141618000D01*
X113516000Y-142216503D01*
X113634257Y-142502000D01*
X97393484Y-142502000D01*
X97691105Y-142464690D01*
X98501281Y-142129104D01*
X99143594Y-141451808D01*
X95758000Y-138066214D01*
X92372406Y-141451808D01*
X93014719Y-142129104D01*
X94372712Y-142502000D01*
X83249106Y-142502000D01*
X89689813Y-136061293D01*
X89648008Y-136213536D01*
X89945310Y-138585105D01*
X90280896Y-139395281D01*
X90958192Y-140037594D01*
X94343786Y-136652000D01*
X97172214Y-136652000D01*
X100557808Y-140037594D01*
X101235104Y-139395281D01*
X101867992Y-137090464D01*
X101718755Y-135900000D01*
X111176533Y-135900000D01*
X111385864Y-136952379D01*
X111981989Y-137844544D01*
X112874154Y-138440669D01*
X113874769Y-138639704D01*
X113669459Y-138845014D01*
X113516000Y-139215497D01*
X113516000Y-139814000D01*
X113768000Y-140066000D01*
X115174000Y-140066000D01*
X115174000Y-139696000D01*
X116474000Y-139696000D01*
X116474000Y-140066000D01*
X117880000Y-140066000D01*
X118132000Y-139814000D01*
X118132000Y-139215497D01*
X117978541Y-138845014D01*
X117694986Y-138561459D01*
X117324504Y-138408000D01*
X117174739Y-138408000D01*
X118018011Y-137844544D01*
X118614136Y-136952379D01*
X118823467Y-135900000D01*
X118614136Y-134847621D01*
X118018011Y-133955456D01*
X117125846Y-133359331D01*
X116073467Y-133150000D01*
X113926533Y-133150000D01*
X112874154Y-133359331D01*
X111981989Y-133955456D01*
X111385864Y-134847621D01*
X111176533Y-135900000D01*
X101718755Y-135900000D01*
X101570690Y-134718895D01*
X101235104Y-133908719D01*
X100557808Y-133266406D01*
X97172214Y-136652000D01*
X94343786Y-136652000D01*
X94329644Y-136637858D01*
X95743858Y-135223644D01*
X95758000Y-135237786D01*
X99143594Y-131852192D01*
X98721144Y-131406733D01*
X111954706Y-131406733D01*
X112173240Y-131777219D01*
X112820198Y-132375261D01*
X113646771Y-132680200D01*
X114000000Y-132456000D01*
X114000000Y-131075000D01*
X116000000Y-131075000D01*
X116000000Y-132456000D01*
X116353229Y-132680200D01*
X117179802Y-132375261D01*
X117826760Y-131777219D01*
X118045294Y-131406733D01*
X117906151Y-131075000D01*
X116000000Y-131075000D01*
X114000000Y-131075000D01*
X112093849Y-131075000D01*
X111954706Y-131406733D01*
X98721144Y-131406733D01*
X98501281Y-131174896D01*
X96196464Y-130542008D01*
X95067580Y-130683526D01*
X96257839Y-129493267D01*
X111954706Y-129493267D01*
X112093849Y-129825000D01*
X114000000Y-129825000D01*
X114000000Y-128444000D01*
X116000000Y-128444000D01*
X116000000Y-129825000D01*
X117906151Y-129825000D01*
X118045294Y-129493267D01*
X117826760Y-129122781D01*
X117179802Y-128524739D01*
X116353229Y-128219800D01*
X116000000Y-128444000D01*
X114000000Y-128444000D01*
X113646771Y-128219800D01*
X112820198Y-128524739D01*
X112173240Y-129122781D01*
X111954706Y-129493267D01*
X96257839Y-129493267D01*
X96733741Y-129017365D01*
X104410121Y-128769740D01*
X104603277Y-128724096D01*
X104763458Y-128606899D01*
X104865422Y-128436616D01*
X104893978Y-128274673D01*
X105009629Y-115900000D01*
X111176533Y-115900000D01*
X111385864Y-116952379D01*
X111981989Y-117844544D01*
X112874154Y-118440669D01*
X113926533Y-118650000D01*
X116073467Y-118650000D01*
X117125846Y-118440669D01*
X117626955Y-118105839D01*
X117100976Y-118893023D01*
X116903063Y-119888000D01*
X117100976Y-120882977D01*
X117664585Y-121726478D01*
X117994987Y-121947246D01*
X117641685Y-122299932D01*
X117250000Y-122220614D01*
X112750000Y-122220614D01*
X112194133Y-122325207D01*
X111683604Y-122653724D01*
X111341108Y-123154983D01*
X111220614Y-123750000D01*
X111220614Y-126250000D01*
X111325207Y-126805867D01*
X111653724Y-127316396D01*
X112154983Y-127658892D01*
X112750000Y-127779386D01*
X117250000Y-127779386D01*
X117805867Y-127674793D01*
X118316396Y-127346276D01*
X118658892Y-126845017D01*
X118675177Y-126764597D01*
X119014581Y-126905530D01*
X120088707Y-126906468D01*
X121081429Y-126496283D01*
X121841614Y-125737424D01*
X122253530Y-124745419D01*
X122254468Y-123671293D01*
X121844283Y-122678571D01*
X121113745Y-121946756D01*
X121443415Y-121726478D01*
X122007024Y-120882977D01*
X122204937Y-119888000D01*
X122007024Y-118893023D01*
X121443415Y-118049522D01*
X120599914Y-117485913D01*
X119604937Y-117288000D01*
X119503063Y-117288000D01*
X118508086Y-117485913D01*
X118055641Y-117788227D01*
X118614136Y-116952379D01*
X118823467Y-115900000D01*
X118614136Y-114847621D01*
X118018011Y-113955456D01*
X117125846Y-113359331D01*
X116073467Y-113150000D01*
X113926533Y-113150000D01*
X112874154Y-113359331D01*
X111981989Y-113955456D01*
X111385864Y-114847621D01*
X111176533Y-115900000D01*
X105009629Y-115900000D01*
X105051622Y-111406733D01*
X111954706Y-111406733D01*
X112173240Y-111777219D01*
X112820198Y-112375261D01*
X113646771Y-112680200D01*
X114000000Y-112456000D01*
X114000000Y-111075000D01*
X112093849Y-111075000D01*
X111954706Y-111406733D01*
X105051622Y-111406733D01*
X105069504Y-109493267D01*
X111954706Y-109493267D01*
X112093849Y-109825000D01*
X114000000Y-109825000D01*
X114000000Y-108444000D01*
X113646771Y-108219800D01*
X112820198Y-108524739D01*
X112173240Y-109122781D01*
X111954706Y-109493267D01*
X105069504Y-109493267D01*
X105143318Y-101595313D01*
X118427933Y-101683877D01*
X118427933Y-101683877D01*
G37*
X118427933Y-101683877D02*
X118026571Y-101849717D01*
X117586719Y-102288801D01*
X117250000Y-102220614D01*
X112750000Y-102220614D01*
X112194133Y-102325207D01*
X111683604Y-102653724D01*
X111341108Y-103154983D01*
X111220614Y-103750000D01*
X111220614Y-106250000D01*
X111325207Y-106805867D01*
X111653724Y-107316396D01*
X112154983Y-107658892D01*
X112750000Y-107779386D01*
X116784048Y-107779386D01*
X116672980Y-108337762D01*
X116353229Y-108219800D01*
X116000000Y-108444000D01*
X116000000Y-109825000D01*
X116020000Y-109825000D01*
X116020000Y-111075000D01*
X116000000Y-111075000D01*
X116000000Y-112456000D01*
X116353229Y-112680200D01*
X117179802Y-112375261D01*
X117826760Y-111777219D01*
X118019771Y-111450002D01*
X118258000Y-111450002D01*
X118258000Y-110860866D01*
X119249063Y-111058000D01*
X119350937Y-111058000D01*
X120345914Y-110860087D01*
X121189415Y-110296478D01*
X121753024Y-109452977D01*
X121950937Y-108458000D01*
X121753024Y-107463023D01*
X121189415Y-106619522D01*
X120973154Y-106475021D01*
X121081429Y-106430283D01*
X121841614Y-105671424D01*
X122253530Y-104679419D01*
X122254468Y-103605293D01*
X121844283Y-102612571D01*
X121085424Y-101852386D01*
X120716350Y-101699133D01*
X130985173Y-101767592D01*
X130291916Y-102230812D01*
X129706629Y-103106755D01*
X129501104Y-104140000D01*
X129706629Y-105173245D01*
X129754000Y-105244141D01*
X129754000Y-106378228D01*
X129491108Y-106762983D01*
X129370614Y-107358000D01*
X129370614Y-109558000D01*
X129475207Y-110113867D01*
X129500000Y-110152396D01*
X129500000Y-119634000D01*
X129624614Y-120260478D01*
X129624614Y-120988000D01*
X129729207Y-121543867D01*
X129754000Y-121582396D01*
X129754000Y-123101859D01*
X129706629Y-123172755D01*
X129501104Y-124206000D01*
X129706629Y-125239245D01*
X130291916Y-126115188D01*
X131167859Y-126700475D01*
X132201104Y-126906000D01*
X132306896Y-126906000D01*
X133340141Y-126700475D01*
X134216084Y-126115188D01*
X134801371Y-125239245D01*
X135006896Y-124206000D01*
X134801371Y-123172755D01*
X134754000Y-123101859D01*
X134754000Y-121596031D01*
X134762892Y-121583017D01*
X134883386Y-120988000D01*
X134883386Y-118788000D01*
X134778793Y-118232133D01*
X134674463Y-118070000D01*
X136044999Y-118070000D01*
X136087724Y-118136396D01*
X136184000Y-118202179D01*
X136184000Y-119703969D01*
X136175108Y-119716983D01*
X136054614Y-120312000D01*
X136054614Y-122512000D01*
X136159207Y-123067867D01*
X136487724Y-123578396D01*
X136988983Y-123920892D01*
X137584000Y-124041386D01*
X139784000Y-124041386D01*
X140339867Y-123936793D01*
X140850396Y-123608276D01*
X141192892Y-123107017D01*
X141313386Y-122512000D01*
X141313386Y-120312000D01*
X141208793Y-119756133D01*
X141184000Y-119717604D01*
X141184000Y-118209001D01*
X141250396Y-118166276D01*
X141592892Y-117665017D01*
X141713386Y-117070000D01*
X141713386Y-114070000D01*
X141608793Y-113514133D01*
X141280276Y-113003604D01*
X140779017Y-112661108D01*
X140759422Y-112657140D01*
X141225793Y-112191582D01*
X141683478Y-111089355D01*
X141684519Y-109895881D01*
X141228759Y-108792857D01*
X140385582Y-107948207D01*
X139283355Y-107490522D01*
X138089881Y-107489481D01*
X136986857Y-107945241D01*
X136142207Y-108788418D01*
X135684522Y-109890645D01*
X135683481Y-111084119D01*
X136139241Y-112187143D01*
X136608876Y-112657599D01*
X136117604Y-112973724D01*
X136051821Y-113070000D01*
X134500000Y-113070000D01*
X134500000Y-110166031D01*
X134508892Y-110153017D01*
X134629386Y-109558000D01*
X134629386Y-108830478D01*
X134754000Y-108204000D01*
X134754000Y-105244141D01*
X134801371Y-105173245D01*
X135006896Y-104140000D01*
X134801371Y-103106755D01*
X134216084Y-102230812D01*
X133548402Y-101784681D01*
X142244104Y-101842652D01*
X141997891Y-133358000D01*
X140591578Y-133358000D01*
X141086087Y-132617914D01*
X141284000Y-131622937D01*
X141284000Y-131521063D01*
X141086087Y-130526086D01*
X140522478Y-129682585D01*
X139678977Y-129118976D01*
X138684000Y-128921063D01*
X137689023Y-129118976D01*
X136845522Y-129682585D01*
X136281913Y-130526086D01*
X136084000Y-131521063D01*
X136084000Y-131622937D01*
X136281913Y-132617914D01*
X136776422Y-133358000D01*
X133350000Y-133358000D01*
X133155472Y-133397393D01*
X132991596Y-133509365D01*
X132884195Y-133676271D01*
X132850000Y-133858000D01*
X132850000Y-138569889D01*
X132190369Y-138129137D01*
X131118855Y-137916000D01*
X131009145Y-137916000D01*
X129937631Y-138129137D01*
X129029246Y-138736101D01*
X128422282Y-139644486D01*
X128209145Y-140716000D01*
X128422282Y-141787514D01*
X128899687Y-142502000D01*
X118013743Y-142502000D01*
X118132000Y-142216503D01*
X118132000Y-141618000D01*
X117880000Y-141366000D01*
X116474000Y-141366000D01*
X116474000Y-141736000D01*
X115174000Y-141736000D01*
X115174000Y-141366000D01*
X113768000Y-141366000D01*
X113516000Y-141618000D01*
X113516000Y-142216503D01*
X113634257Y-142502000D01*
X97393484Y-142502000D01*
X97691105Y-142464690D01*
X98501281Y-142129104D01*
X99143594Y-141451808D01*
X95758000Y-138066214D01*
X92372406Y-141451808D01*
X93014719Y-142129104D01*
X94372712Y-142502000D01*
X83249106Y-142502000D01*
X89689813Y-136061293D01*
X89648008Y-136213536D01*
X89945310Y-138585105D01*
X90280896Y-139395281D01*
X90958192Y-140037594D01*
X94343786Y-136652000D01*
X97172214Y-136652000D01*
X100557808Y-140037594D01*
X101235104Y-139395281D01*
X101867992Y-137090464D01*
X101718755Y-135900000D01*
X111176533Y-135900000D01*
X111385864Y-136952379D01*
X111981989Y-137844544D01*
X112874154Y-138440669D01*
X113874769Y-138639704D01*
X113669459Y-138845014D01*
X113516000Y-139215497D01*
X113516000Y-139814000D01*
X113768000Y-140066000D01*
X115174000Y-140066000D01*
X115174000Y-139696000D01*
X116474000Y-139696000D01*
X116474000Y-140066000D01*
X117880000Y-140066000D01*
X118132000Y-139814000D01*
X118132000Y-139215497D01*
X117978541Y-138845014D01*
X117694986Y-138561459D01*
X117324504Y-138408000D01*
X117174739Y-138408000D01*
X118018011Y-137844544D01*
X118614136Y-136952379D01*
X118823467Y-135900000D01*
X118614136Y-134847621D01*
X118018011Y-133955456D01*
X117125846Y-133359331D01*
X116073467Y-133150000D01*
X113926533Y-133150000D01*
X112874154Y-133359331D01*
X111981989Y-133955456D01*
X111385864Y-134847621D01*
X111176533Y-135900000D01*
X101718755Y-135900000D01*
X101570690Y-134718895D01*
X101235104Y-133908719D01*
X100557808Y-133266406D01*
X97172214Y-136652000D01*
X94343786Y-136652000D01*
X94329644Y-136637858D01*
X95743858Y-135223644D01*
X95758000Y-135237786D01*
X99143594Y-131852192D01*
X98721144Y-131406733D01*
X111954706Y-131406733D01*
X112173240Y-131777219D01*
X112820198Y-132375261D01*
X113646771Y-132680200D01*
X114000000Y-132456000D01*
X114000000Y-131075000D01*
X116000000Y-131075000D01*
X116000000Y-132456000D01*
X116353229Y-132680200D01*
X117179802Y-132375261D01*
X117826760Y-131777219D01*
X118045294Y-131406733D01*
X117906151Y-131075000D01*
X116000000Y-131075000D01*
X114000000Y-131075000D01*
X112093849Y-131075000D01*
X111954706Y-131406733D01*
X98721144Y-131406733D01*
X98501281Y-131174896D01*
X96196464Y-130542008D01*
X95067580Y-130683526D01*
X96257839Y-129493267D01*
X111954706Y-129493267D01*
X112093849Y-129825000D01*
X114000000Y-129825000D01*
X114000000Y-128444000D01*
X116000000Y-128444000D01*
X116000000Y-129825000D01*
X117906151Y-129825000D01*
X118045294Y-129493267D01*
X117826760Y-129122781D01*
X117179802Y-128524739D01*
X116353229Y-128219800D01*
X116000000Y-128444000D01*
X114000000Y-128444000D01*
X113646771Y-128219800D01*
X112820198Y-128524739D01*
X112173240Y-129122781D01*
X111954706Y-129493267D01*
X96257839Y-129493267D01*
X96733741Y-129017365D01*
X104410121Y-128769740D01*
X104603277Y-128724096D01*
X104763458Y-128606899D01*
X104865422Y-128436616D01*
X104893978Y-128274673D01*
X105009629Y-115900000D01*
X111176533Y-115900000D01*
X111385864Y-116952379D01*
X111981989Y-117844544D01*
X112874154Y-118440669D01*
X113926533Y-118650000D01*
X116073467Y-118650000D01*
X117125846Y-118440669D01*
X117626955Y-118105839D01*
X117100976Y-118893023D01*
X116903063Y-119888000D01*
X117100976Y-120882977D01*
X117664585Y-121726478D01*
X117994987Y-121947246D01*
X117641685Y-122299932D01*
X117250000Y-122220614D01*
X112750000Y-122220614D01*
X112194133Y-122325207D01*
X111683604Y-122653724D01*
X111341108Y-123154983D01*
X111220614Y-123750000D01*
X111220614Y-126250000D01*
X111325207Y-126805867D01*
X111653724Y-127316396D01*
X112154983Y-127658892D01*
X112750000Y-127779386D01*
X117250000Y-127779386D01*
X117805867Y-127674793D01*
X118316396Y-127346276D01*
X118658892Y-126845017D01*
X118675177Y-126764597D01*
X119014581Y-126905530D01*
X120088707Y-126906468D01*
X121081429Y-126496283D01*
X121841614Y-125737424D01*
X122253530Y-124745419D01*
X122254468Y-123671293D01*
X121844283Y-122678571D01*
X121113745Y-121946756D01*
X121443415Y-121726478D01*
X122007024Y-120882977D01*
X122204937Y-119888000D01*
X122007024Y-118893023D01*
X121443415Y-118049522D01*
X120599914Y-117485913D01*
X119604937Y-117288000D01*
X119503063Y-117288000D01*
X118508086Y-117485913D01*
X118055641Y-117788227D01*
X118614136Y-116952379D01*
X118823467Y-115900000D01*
X118614136Y-114847621D01*
X118018011Y-113955456D01*
X117125846Y-113359331D01*
X116073467Y-113150000D01*
X113926533Y-113150000D01*
X112874154Y-113359331D01*
X111981989Y-113955456D01*
X111385864Y-114847621D01*
X111176533Y-115900000D01*
X105009629Y-115900000D01*
X105051622Y-111406733D01*
X111954706Y-111406733D01*
X112173240Y-111777219D01*
X112820198Y-112375261D01*
X113646771Y-112680200D01*
X114000000Y-112456000D01*
X114000000Y-111075000D01*
X112093849Y-111075000D01*
X111954706Y-111406733D01*
X105051622Y-111406733D01*
X105069504Y-109493267D01*
X111954706Y-109493267D01*
X112093849Y-109825000D01*
X114000000Y-109825000D01*
X114000000Y-108444000D01*
X113646771Y-108219800D01*
X112820198Y-108524739D01*
X112173240Y-109122781D01*
X111954706Y-109493267D01*
X105069504Y-109493267D01*
X105143318Y-101595313D01*
X118427933Y-101683877D01*
M02*
