G04 #@! TF.FileFunction,Copper,L1,Top,Signal*
%FSLAX46Y46*%
G04 Gerber Fmt 4.6, Leading zero omitted, Abs format (unit mm)*
G04 Created by KiCad (PCBNEW 4.0.7) date 05/14/18 04:12:04*
%MOMM*%
%LPD*%
G01*
G04 APERTURE LIST*
%ADD10C,0.100000*%
%ADD11C,2.400000*%
%ADD12O,2.400000X2.400000*%
%ADD13R,3.000000X3.000000*%
%ADD14C,3.000000*%
%ADD15R,2.200000X2.200000*%
%ADD16O,2.200000X2.200000*%
%ADD17C,4.064000*%
%ADD18R,4.500000X2.500000*%
%ADD19O,4.500000X2.500000*%
%ADD20C,10.000000*%
%ADD21R,2.600000X2.600000*%
%ADD22O,2.600000X2.600000*%
%ADD23C,2.000000*%
%ADD24C,2.000000*%
%ADD25C,3.000000*%
%ADD26C,1.000000*%
G04 APERTURE END LIST*
D10*
D11*
X119808000Y-64516000D03*
D12*
X132508000Y-64516000D03*
D13*
X138684000Y-115570000D03*
D14*
X138684000Y-110490000D03*
D15*
X65358000Y-114808000D03*
D16*
X78058000Y-114808000D03*
D17*
X50000000Y-50000000D03*
X50000000Y-140000000D03*
D18*
X115000000Y-65000000D03*
D19*
X115000000Y-70450000D03*
X115000000Y-75900000D03*
D18*
X83000000Y-70000000D03*
D19*
X83000000Y-64550000D03*
X83000000Y-59100000D03*
D20*
X134874000Y-94234000D03*
X55880000Y-95758000D03*
D17*
X140000000Y-50000000D03*
X140000000Y-140000000D03*
D13*
X138176000Y-70358000D03*
D14*
X138176000Y-65278000D03*
D13*
X51054000Y-76454000D03*
D14*
X51054000Y-81534000D03*
D18*
X115000000Y-85000000D03*
D19*
X115000000Y-90450000D03*
X115000000Y-95900000D03*
D18*
X83000000Y-90000000D03*
D19*
X83000000Y-84550000D03*
X83000000Y-79100000D03*
D18*
X115000000Y-105000000D03*
D19*
X115000000Y-110450000D03*
X115000000Y-115900000D03*
D18*
X83000000Y-110000000D03*
D19*
X83000000Y-104550000D03*
X83000000Y-99100000D03*
D18*
X115000000Y-125000000D03*
D19*
X115000000Y-130450000D03*
X115000000Y-135900000D03*
D18*
X83000000Y-130000000D03*
D19*
X83000000Y-124550000D03*
X83000000Y-119100000D03*
D20*
X95758000Y-136652000D03*
D15*
X139192000Y-75946000D03*
D16*
X139192000Y-86106000D03*
D15*
X52832000Y-72136000D03*
D16*
X52832000Y-61976000D03*
D15*
X132762000Y-59944000D03*
D16*
X120062000Y-59944000D03*
D15*
X65612000Y-74422000D03*
D16*
X78312000Y-74422000D03*
D15*
X132508000Y-79756000D03*
D16*
X119808000Y-79756000D03*
D15*
X65104000Y-90932000D03*
D16*
X77804000Y-90932000D03*
D15*
X132000000Y-108458000D03*
D16*
X119300000Y-108458000D03*
D15*
X132254000Y-119888000D03*
D16*
X119554000Y-119888000D03*
D15*
X65358000Y-133350000D03*
D16*
X78058000Y-133350000D03*
D11*
X78312000Y-69850000D03*
D12*
X65612000Y-69850000D03*
D11*
X119808000Y-84836000D03*
D12*
X132508000Y-84836000D03*
D11*
X77804000Y-86360000D03*
D12*
X65104000Y-86360000D03*
D11*
X119554000Y-104140000D03*
D12*
X132254000Y-104140000D03*
D11*
X78058000Y-110490000D03*
D12*
X65358000Y-110490000D03*
D11*
X119554000Y-124206000D03*
D12*
X132254000Y-124206000D03*
D11*
X78058000Y-129032000D03*
D12*
X65358000Y-129032000D03*
D21*
X61722000Y-139192000D03*
D22*
X76962000Y-139192000D03*
D21*
X115824000Y-140716000D03*
D22*
X131064000Y-140716000D03*
D11*
X98806000Y-102616000D03*
X98806000Y-125116000D03*
X98806000Y-88392000D03*
X98806000Y-65892000D03*
D13*
X51054000Y-124460000D03*
D14*
X51054000Y-129540000D03*
D20*
X98298000Y-53340000D03*
D15*
X49530000Y-119888000D03*
D16*
X49530000Y-109728000D03*
D15*
X138684000Y-121412000D03*
D16*
X138684000Y-131572000D03*
D21*
X57912000Y-49784000D03*
D22*
X73152000Y-49784000D03*
D21*
X112268000Y-49276000D03*
D22*
X127508000Y-49276000D03*
D23*
X98298000Y-119126000D03*
X99060000Y-109982000D03*
X97790000Y-72390000D03*
X98298000Y-79756000D03*
D24*
X120062000Y-59944000D02*
X120062000Y-64262000D01*
X120062000Y-64262000D02*
X119808000Y-64516000D01*
X119808000Y-64516000D02*
X115484000Y-64516000D01*
X115484000Y-64516000D02*
X115000000Y-65000000D01*
X115062000Y-64262000D02*
X114808000Y-64516000D01*
X52832000Y-72136000D02*
X52832000Y-73406000D01*
X52832000Y-73406000D02*
X56134000Y-76708000D01*
X65612000Y-76708000D02*
X56134000Y-76708000D01*
X56134000Y-76708000D02*
X51308000Y-76708000D01*
X51308000Y-76708000D02*
X51054000Y-76454000D01*
X65104000Y-86360000D02*
X65104000Y-90932000D01*
X65612000Y-74422000D02*
X65612000Y-76708000D01*
X65612000Y-76708000D02*
X65612000Y-85852000D01*
X65612000Y-85852000D02*
X65104000Y-86360000D01*
X65612000Y-69850000D02*
X65612000Y-74422000D01*
X82608000Y-119100000D02*
X98272000Y-119100000D01*
X98272000Y-119100000D02*
X98298000Y-119126000D01*
X82862000Y-99100000D02*
X87104000Y-99100000D01*
X92964000Y-105664000D02*
X99060000Y-109982000D01*
X92964000Y-101346000D02*
X92964000Y-105664000D01*
X87104000Y-99100000D02*
X92964000Y-101346000D01*
D25*
X95758000Y-136652000D02*
X95758000Y-131572000D01*
X95758000Y-131572000D02*
X95504000Y-131318000D01*
X95758000Y-136652000D02*
X90424000Y-136652000D01*
X95758000Y-136652000D02*
X95758000Y-142240000D01*
X95758000Y-136652000D02*
X101600000Y-136652000D01*
D24*
X119808000Y-84836000D02*
X115164000Y-84836000D01*
X115164000Y-84836000D02*
X115000000Y-85000000D01*
X119808000Y-79756000D02*
X119808000Y-84836000D01*
X119554000Y-104140000D02*
X115860000Y-104140000D01*
X115860000Y-104140000D02*
X115000000Y-105000000D01*
X119300000Y-108458000D02*
X119300000Y-104394000D01*
X119300000Y-104394000D02*
X119554000Y-104140000D01*
X119554000Y-124206000D02*
X115794000Y-124206000D01*
X115794000Y-124206000D02*
X115000000Y-125000000D01*
X119554000Y-119888000D02*
X119554000Y-124206000D01*
X132254000Y-108204000D02*
X132000000Y-108458000D01*
D26*
X138684000Y-115316000D02*
X138684000Y-115570000D01*
D24*
X65358000Y-123952000D02*
X51562000Y-123952000D01*
X51562000Y-123952000D02*
X51054000Y-124460000D01*
X49530000Y-119888000D02*
X49530000Y-122936000D01*
X49530000Y-122936000D02*
X51054000Y-124460000D01*
X65358000Y-129032000D02*
X65358000Y-133350000D01*
X65358000Y-114808000D02*
X65358000Y-123952000D01*
X65358000Y-123952000D02*
X65358000Y-129032000D01*
X65358000Y-110490000D02*
X65358000Y-114808000D01*
X83000000Y-79100000D02*
X88000000Y-79100000D01*
X88000000Y-79100000D02*
X88000000Y-77862000D01*
X88000000Y-77862000D02*
X93472000Y-72390000D01*
X93472000Y-72390000D02*
X97790000Y-72390000D01*
X88000000Y-79100000D02*
X97642000Y-79100000D01*
X97642000Y-79100000D02*
X98298000Y-79756000D01*
D25*
X98298000Y-53340000D02*
X91440000Y-53340000D01*
X98298000Y-53340000D02*
X98298000Y-58674000D01*
X98298000Y-58674000D02*
X97790000Y-59182000D01*
X98298000Y-53340000D02*
X104394000Y-53340000D01*
X104394000Y-53340000D02*
X104648000Y-53086000D01*
X98298000Y-53340000D02*
X98298000Y-48260000D01*
X98298000Y-48260000D02*
X98044000Y-48006000D01*
D26*
G36*
X125796652Y-47727356D02*
X125422368Y-48287566D01*
X125557452Y-48626000D01*
X126858000Y-48626000D01*
X126858000Y-48256000D01*
X128158000Y-48256000D01*
X128158000Y-48626000D01*
X129458548Y-48626000D01*
X129593632Y-48287566D01*
X129219348Y-47727356D01*
X128637333Y-47295000D01*
X133866000Y-47295000D01*
X133866000Y-57315424D01*
X133862000Y-57314614D01*
X131662000Y-57314614D01*
X131106133Y-57419207D01*
X130595604Y-57747724D01*
X130253108Y-58248983D01*
X130132614Y-58844000D01*
X130132614Y-61044000D01*
X130237207Y-61599867D01*
X130565724Y-62110396D01*
X130923251Y-62354684D01*
X130545916Y-62606812D01*
X129960629Y-63482755D01*
X129755104Y-64516000D01*
X129960629Y-65549245D01*
X130545916Y-66425188D01*
X131421859Y-67010475D01*
X132455104Y-67216000D01*
X132560896Y-67216000D01*
X133594141Y-67010475D01*
X134470084Y-66425188D01*
X135055371Y-65549245D01*
X135077781Y-65436579D01*
X135623786Y-65436579D01*
X135757377Y-66108182D01*
X136104380Y-66288960D01*
X137115340Y-65278000D01*
X139236660Y-65278000D01*
X140247620Y-66288960D01*
X140594623Y-66108182D01*
X140728214Y-65119421D01*
X140594623Y-64447818D01*
X140247620Y-64267040D01*
X139236660Y-65278000D01*
X137115340Y-65278000D01*
X136104380Y-64267040D01*
X135757377Y-64447818D01*
X135623786Y-65436579D01*
X135077781Y-65436579D01*
X135260896Y-64516000D01*
X135055371Y-63482755D01*
X134870703Y-63206380D01*
X137165040Y-63206380D01*
X138176000Y-64217340D01*
X139186960Y-63206380D01*
X139006182Y-62859377D01*
X138017421Y-62725786D01*
X137345818Y-62859377D01*
X137165040Y-63206380D01*
X134870703Y-63206380D01*
X134470084Y-62606812D01*
X134297438Y-62491453D01*
X134417867Y-62468793D01*
X134928396Y-62140276D01*
X135270892Y-61639017D01*
X135391386Y-61044000D01*
X135391386Y-58844000D01*
X135286793Y-58288133D01*
X135203055Y-58158000D01*
X142248000Y-58158000D01*
X142248000Y-133358000D01*
X139751958Y-133358000D01*
X140131762Y-133104245D01*
X140607922Y-132433575D01*
X140467015Y-132122000D01*
X139234000Y-132122000D01*
X139234000Y-132592000D01*
X138134000Y-132592000D01*
X138134000Y-132122000D01*
X136900985Y-132122000D01*
X136760078Y-132433575D01*
X137236238Y-133104245D01*
X137616042Y-133358000D01*
X133096000Y-133358000D01*
X132901472Y-133397393D01*
X132737596Y-133509365D01*
X132630195Y-133676271D01*
X132596000Y-133858000D01*
X132596000Y-139034125D01*
X132052439Y-138630335D01*
X131714000Y-138753387D01*
X131714000Y-140066000D01*
X132084000Y-140066000D01*
X132084000Y-141366000D01*
X131714000Y-141366000D01*
X131714000Y-141736000D01*
X130414000Y-141736000D01*
X130414000Y-141366000D01*
X129113452Y-141366000D01*
X128978368Y-141704434D01*
X129352652Y-142264644D01*
X129789083Y-142588851D01*
X125679428Y-142697000D01*
X118474142Y-142697000D01*
X118532892Y-142611017D01*
X118653386Y-142016000D01*
X118653386Y-139727566D01*
X128978368Y-139727566D01*
X129113452Y-140066000D01*
X130414000Y-140066000D01*
X130414000Y-138753387D01*
X130075561Y-138630335D01*
X129352652Y-139167356D01*
X128978368Y-139727566D01*
X118653386Y-139727566D01*
X118653386Y-139416000D01*
X118548793Y-138860133D01*
X118220276Y-138349604D01*
X117719017Y-138007108D01*
X117124000Y-137886614D01*
X117013497Y-137886614D01*
X117179802Y-137825261D01*
X117826760Y-137227219D01*
X118045294Y-136856733D01*
X117906151Y-136525000D01*
X116000000Y-136525000D01*
X116000000Y-136920000D01*
X114000000Y-136920000D01*
X114000000Y-136525000D01*
X112093849Y-136525000D01*
X111954706Y-136856733D01*
X112173240Y-137227219D01*
X112820198Y-137825261D01*
X113646771Y-138130200D01*
X113999998Y-137906001D01*
X113999998Y-137985211D01*
X113968133Y-137991207D01*
X113457604Y-138319724D01*
X113115108Y-138820983D01*
X112994614Y-139416000D01*
X112994614Y-142005508D01*
X105932373Y-134943267D01*
X111954706Y-134943267D01*
X112093849Y-135275000D01*
X114000000Y-135275000D01*
X114000000Y-133894000D01*
X116000000Y-133894000D01*
X116000000Y-135275000D01*
X117906151Y-135275000D01*
X118045294Y-134943267D01*
X117826760Y-134572781D01*
X117179802Y-133974739D01*
X116353229Y-133669800D01*
X116000000Y-133894000D01*
X114000000Y-133894000D01*
X113646771Y-133669800D01*
X112820198Y-133974739D01*
X112173240Y-134572781D01*
X111954706Y-134943267D01*
X105932373Y-134943267D01*
X101439106Y-130450000D01*
X111176533Y-130450000D01*
X111385864Y-131502379D01*
X111981989Y-132394544D01*
X112874154Y-132990669D01*
X113926533Y-133200000D01*
X116073467Y-133200000D01*
X117125846Y-132990669D01*
X118018011Y-132394544D01*
X118614136Y-131502379D01*
X118771665Y-130710425D01*
X136760078Y-130710425D01*
X136900985Y-131022000D01*
X138134000Y-131022000D01*
X138134000Y-129799365D01*
X139234000Y-129799365D01*
X139234000Y-131022000D01*
X140467015Y-131022000D01*
X140607922Y-130710425D01*
X140131762Y-130039755D01*
X139545570Y-129648108D01*
X139234000Y-129799365D01*
X138134000Y-129799365D01*
X137822430Y-129648108D01*
X137236238Y-130039755D01*
X136760078Y-130710425D01*
X118771665Y-130710425D01*
X118823467Y-130450000D01*
X118614136Y-129397621D01*
X118018011Y-128505456D01*
X117125846Y-127909331D01*
X116472568Y-127779386D01*
X117250000Y-127779386D01*
X117805867Y-127674793D01*
X118316396Y-127346276D01*
X118658892Y-126845017D01*
X118675177Y-126764597D01*
X119014581Y-126905530D01*
X120088707Y-126906468D01*
X121081429Y-126496283D01*
X121841614Y-125737424D01*
X122253530Y-124745419D01*
X122254001Y-124206000D01*
X129501104Y-124206000D01*
X129706629Y-125239245D01*
X130291916Y-126115188D01*
X131167859Y-126700475D01*
X132201104Y-126906000D01*
X132306896Y-126906000D01*
X133340141Y-126700475D01*
X134216084Y-126115188D01*
X134801371Y-125239245D01*
X135006896Y-124206000D01*
X134801371Y-123172755D01*
X134216084Y-122296812D01*
X134154281Y-122255517D01*
X134420396Y-122084276D01*
X134762892Y-121583017D01*
X134883386Y-120988000D01*
X134883386Y-120312000D01*
X136054614Y-120312000D01*
X136054614Y-122512000D01*
X136159207Y-123067867D01*
X136487724Y-123578396D01*
X136988983Y-123920892D01*
X137584000Y-124041386D01*
X139784000Y-124041386D01*
X140339867Y-123936793D01*
X140850396Y-123608276D01*
X141192892Y-123107017D01*
X141313386Y-122512000D01*
X141313386Y-120312000D01*
X141208793Y-119756133D01*
X140880276Y-119245604D01*
X140379017Y-118903108D01*
X139784000Y-118782614D01*
X137584000Y-118782614D01*
X137028133Y-118887207D01*
X136517604Y-119215724D01*
X136175108Y-119716983D01*
X136054614Y-120312000D01*
X134883386Y-120312000D01*
X134883386Y-118788000D01*
X134778793Y-118232133D01*
X134450276Y-117721604D01*
X133949017Y-117379108D01*
X133354000Y-117258614D01*
X131154000Y-117258614D01*
X130598133Y-117363207D01*
X130087604Y-117691724D01*
X129745108Y-118192983D01*
X129624614Y-118788000D01*
X129624614Y-120988000D01*
X129729207Y-121543867D01*
X130057724Y-122054396D01*
X130352887Y-122256072D01*
X130291916Y-122296812D01*
X129706629Y-123172755D01*
X129501104Y-124206000D01*
X122254001Y-124206000D01*
X122254468Y-123671293D01*
X122054000Y-123186124D01*
X122054000Y-120646812D01*
X122204937Y-119888000D01*
X122007024Y-118893023D01*
X121443415Y-118049522D01*
X120599914Y-117485913D01*
X119604937Y-117288000D01*
X119503063Y-117288000D01*
X118508086Y-117485913D01*
X117664585Y-118049522D01*
X117100976Y-118893023D01*
X116903063Y-119888000D01*
X117054000Y-120646812D01*
X117054000Y-121706000D01*
X115794000Y-121706000D01*
X114837292Y-121896300D01*
X114351922Y-122220614D01*
X112750000Y-122220614D01*
X112194133Y-122325207D01*
X111683604Y-122653724D01*
X111341108Y-123154983D01*
X111220614Y-123750000D01*
X111220614Y-126250000D01*
X111325207Y-126805867D01*
X111653724Y-127316396D01*
X112154983Y-127658892D01*
X112750000Y-127779386D01*
X113527432Y-127779386D01*
X112874154Y-127909331D01*
X111981989Y-128505456D01*
X111385864Y-129397621D01*
X111176533Y-130450000D01*
X101439106Y-130450000D01*
X98251784Y-127262678D01*
X98882886Y-127365944D01*
X99595983Y-127224100D01*
X99730259Y-126888787D01*
X98806000Y-125964528D01*
X98509015Y-126261513D01*
X97843886Y-125596384D01*
X97860668Y-125212804D01*
X97957472Y-125116000D01*
X99654528Y-125116000D01*
X100578787Y-126040259D01*
X100914100Y-125905983D01*
X101055944Y-125039114D01*
X100914100Y-124326017D01*
X100578787Y-124191741D01*
X99654528Y-125116000D01*
X97957472Y-125116000D01*
X97868783Y-125027311D01*
X97887843Y-124591659D01*
X98509015Y-123970487D01*
X98806000Y-124267472D01*
X99730259Y-123343213D01*
X99595983Y-123007900D01*
X98729114Y-122866056D01*
X98096172Y-122991956D01*
X97963629Y-122859413D01*
X98017601Y-121625756D01*
X98793099Y-121626433D01*
X99712286Y-121246633D01*
X100416161Y-120543985D01*
X100607699Y-120082711D01*
X100607700Y-120082709D01*
X100607700Y-120082707D01*
X100797565Y-119625462D01*
X100798433Y-118630901D01*
X100418633Y-117711714D01*
X99715985Y-117007839D01*
X99352081Y-116856733D01*
X111954706Y-116856733D01*
X112173240Y-117227219D01*
X112820198Y-117825261D01*
X113646771Y-118130200D01*
X114000000Y-117906000D01*
X114000000Y-116525000D01*
X116000000Y-116525000D01*
X116000000Y-117906000D01*
X116353229Y-118130200D01*
X117179802Y-117825261D01*
X117826760Y-117227219D01*
X118045294Y-116856733D01*
X117906151Y-116525000D01*
X116000000Y-116525000D01*
X114000000Y-116525000D01*
X112093849Y-116525000D01*
X111954706Y-116856733D01*
X99352081Y-116856733D01*
X99288815Y-116830463D01*
X99228709Y-116790301D01*
X99158429Y-116776321D01*
X98797462Y-116626435D01*
X98403168Y-116626091D01*
X98272000Y-116600000D01*
X98237478Y-116600000D01*
X98309960Y-114943267D01*
X111954706Y-114943267D01*
X112093849Y-115275000D01*
X114000000Y-115275000D01*
X114000000Y-113894000D01*
X116000000Y-113894000D01*
X116000000Y-115275000D01*
X117906151Y-115275000D01*
X118045294Y-114943267D01*
X117826760Y-114572781D01*
X117282855Y-114070000D01*
X135654614Y-114070000D01*
X135654614Y-117070000D01*
X135759207Y-117625867D01*
X136087724Y-118136396D01*
X136588983Y-118478892D01*
X137184000Y-118599386D01*
X140184000Y-118599386D01*
X140739867Y-118494793D01*
X141250396Y-118166276D01*
X141592892Y-117665017D01*
X141713386Y-117070000D01*
X141713386Y-114070000D01*
X141608793Y-113514133D01*
X141280276Y-113003604D01*
X140779017Y-112661108D01*
X140184000Y-112540614D01*
X139673954Y-112540614D01*
X138684000Y-111550660D01*
X137694046Y-112540614D01*
X137184000Y-112540614D01*
X136628133Y-112645207D01*
X136117604Y-112973724D01*
X135775108Y-113474983D01*
X135654614Y-114070000D01*
X117282855Y-114070000D01*
X117179802Y-113974739D01*
X116353229Y-113669800D01*
X116000000Y-113894000D01*
X114000000Y-113894000D01*
X113646771Y-113669800D01*
X112820198Y-113974739D01*
X112173240Y-114572781D01*
X111954706Y-114943267D01*
X98309960Y-114943267D01*
X98420209Y-112423295D01*
X98560538Y-112481565D01*
X99555099Y-112482433D01*
X100474286Y-112102633D01*
X101178161Y-111399985D01*
X101559565Y-110481462D01*
X101559592Y-110450000D01*
X111176533Y-110450000D01*
X111385864Y-111502379D01*
X111981989Y-112394544D01*
X112874154Y-112990669D01*
X113926533Y-113200000D01*
X116073467Y-113200000D01*
X117125846Y-112990669D01*
X118018011Y-112394544D01*
X118614136Y-111502379D01*
X118723330Y-110953425D01*
X119249063Y-111058000D01*
X119350937Y-111058000D01*
X120345914Y-110860087D01*
X121189415Y-110296478D01*
X121753024Y-109452977D01*
X121950937Y-108458000D01*
X121800000Y-107699188D01*
X121800000Y-107358000D01*
X129370614Y-107358000D01*
X129370614Y-109558000D01*
X129475207Y-110113867D01*
X129803724Y-110624396D01*
X130304983Y-110966892D01*
X130900000Y-111087386D01*
X133100000Y-111087386D01*
X133655867Y-110982793D01*
X134166396Y-110654276D01*
X134170288Y-110648579D01*
X136131786Y-110648579D01*
X136265377Y-111320182D01*
X136612380Y-111500960D01*
X137623340Y-110490000D01*
X139744660Y-110490000D01*
X140755620Y-111500960D01*
X141102623Y-111320182D01*
X141236214Y-110331421D01*
X141102623Y-109659818D01*
X140755620Y-109479040D01*
X139744660Y-110490000D01*
X137623340Y-110490000D01*
X136612380Y-109479040D01*
X136265377Y-109659818D01*
X136131786Y-110648579D01*
X134170288Y-110648579D01*
X134508892Y-110153017D01*
X134629386Y-109558000D01*
X134629386Y-108830478D01*
X134711357Y-108418380D01*
X137673040Y-108418380D01*
X138684000Y-109429340D01*
X139694960Y-108418380D01*
X139514182Y-108071377D01*
X138525421Y-107937786D01*
X137853818Y-108071377D01*
X137673040Y-108418380D01*
X134711357Y-108418380D01*
X134754000Y-108204000D01*
X134629386Y-107577523D01*
X134629386Y-107358000D01*
X134524793Y-106802133D01*
X134196276Y-106291604D01*
X134026695Y-106175734D01*
X134216084Y-106049188D01*
X134801371Y-105173245D01*
X135006896Y-104140000D01*
X134801371Y-103106755D01*
X134216084Y-102230812D01*
X133340141Y-101645525D01*
X132306896Y-101440000D01*
X132201104Y-101440000D01*
X131167859Y-101645525D01*
X130291916Y-102230812D01*
X129706629Y-103106755D01*
X129501104Y-104140000D01*
X129706629Y-105173245D01*
X130253422Y-105991578D01*
X129833604Y-106261724D01*
X129491108Y-106762983D01*
X129370614Y-107358000D01*
X121800000Y-107358000D01*
X121800000Y-105712965D01*
X121841614Y-105671424D01*
X122253530Y-104679419D01*
X122254468Y-103605293D01*
X121844283Y-102612571D01*
X121085424Y-101852386D01*
X120093419Y-101440470D01*
X119019293Y-101439532D01*
X118534124Y-101640000D01*
X115860000Y-101640000D01*
X114903291Y-101830301D01*
X114319147Y-102220614D01*
X112750000Y-102220614D01*
X112194133Y-102325207D01*
X111683604Y-102653724D01*
X111341108Y-103154983D01*
X111220614Y-103750000D01*
X111220614Y-106250000D01*
X111325207Y-106805867D01*
X111653724Y-107316396D01*
X112154983Y-107658892D01*
X112750000Y-107779386D01*
X113527432Y-107779386D01*
X112874154Y-107909331D01*
X111981989Y-108505456D01*
X111385864Y-109397621D01*
X111176533Y-110450000D01*
X101559592Y-110450000D01*
X101560433Y-109486901D01*
X101180633Y-108567714D01*
X100477985Y-107863839D01*
X100276912Y-107780346D01*
X98673041Y-106644271D01*
X98731156Y-105315936D01*
X99340707Y-105316468D01*
X100333429Y-104906283D01*
X101093614Y-104147424D01*
X101505530Y-103155419D01*
X101506468Y-102081293D01*
X101096283Y-101088571D01*
X100337424Y-100328386D01*
X99345419Y-99916470D01*
X98967397Y-99916140D01*
X99005999Y-99033808D01*
X131488406Y-99033808D01*
X132130719Y-99711104D01*
X134435536Y-100343992D01*
X136807105Y-100046690D01*
X137617281Y-99711104D01*
X138259594Y-99033808D01*
X134874000Y-95648214D01*
X131488406Y-99033808D01*
X99005999Y-99033808D01*
X99101246Y-96856733D01*
X111954706Y-96856733D01*
X112173240Y-97227219D01*
X112820198Y-97825261D01*
X113646771Y-98130200D01*
X114000000Y-97906000D01*
X114000000Y-96525000D01*
X116000000Y-96525000D01*
X116000000Y-97906000D01*
X116353229Y-98130200D01*
X117179802Y-97825261D01*
X117826760Y-97227219D01*
X118045294Y-96856733D01*
X117906151Y-96525000D01*
X116000000Y-96525000D01*
X114000000Y-96525000D01*
X112093849Y-96525000D01*
X111954706Y-96856733D01*
X99101246Y-96856733D01*
X99184960Y-94943267D01*
X111954706Y-94943267D01*
X112093849Y-95275000D01*
X114000000Y-95275000D01*
X114000000Y-93894000D01*
X116000000Y-93894000D01*
X116000000Y-95275000D01*
X117906151Y-95275000D01*
X118045294Y-94943267D01*
X117826760Y-94572781D01*
X117179802Y-93974739D01*
X116694052Y-93795536D01*
X128764008Y-93795536D01*
X129061310Y-96167105D01*
X129396896Y-96977281D01*
X130074192Y-97619594D01*
X133459786Y-94234000D01*
X136288214Y-94234000D01*
X139673808Y-97619594D01*
X140351104Y-96977281D01*
X140983992Y-94672464D01*
X140686690Y-92300895D01*
X140351104Y-91490719D01*
X139673808Y-90848406D01*
X136288214Y-94234000D01*
X133459786Y-94234000D01*
X130074192Y-90848406D01*
X129396896Y-91490719D01*
X128764008Y-93795536D01*
X116694052Y-93795536D01*
X116353229Y-93669800D01*
X116000000Y-93894000D01*
X114000000Y-93894000D01*
X113646771Y-93669800D01*
X112820198Y-93974739D01*
X112173240Y-94572781D01*
X111954706Y-94943267D01*
X99184960Y-94943267D01*
X99353667Y-91087113D01*
X100333429Y-90682283D01*
X100566117Y-90450000D01*
X111176533Y-90450000D01*
X111385864Y-91502379D01*
X111981989Y-92394544D01*
X112874154Y-92990669D01*
X113926533Y-93200000D01*
X116073467Y-93200000D01*
X117125846Y-92990669D01*
X118018011Y-92394544D01*
X118614136Y-91502379D01*
X118823467Y-90450000D01*
X118621411Y-89434192D01*
X131488406Y-89434192D01*
X134874000Y-92819786D01*
X138259594Y-89434192D01*
X137617281Y-88756896D01*
X135312464Y-88124008D01*
X132940895Y-88421310D01*
X132130719Y-88756896D01*
X131488406Y-89434192D01*
X118621411Y-89434192D01*
X118614136Y-89397621D01*
X118018011Y-88505456D01*
X117125846Y-87909331D01*
X116472568Y-87779386D01*
X117250000Y-87779386D01*
X117805867Y-87674793D01*
X118316396Y-87346276D01*
X118323417Y-87336000D01*
X118788059Y-87336000D01*
X119268581Y-87535530D01*
X120342707Y-87536468D01*
X121335429Y-87126283D01*
X122095614Y-86367424D01*
X122507530Y-85375419D01*
X122508001Y-84836000D01*
X129755104Y-84836000D01*
X129960629Y-85869245D01*
X130545916Y-86745188D01*
X131421859Y-87330475D01*
X132455104Y-87536000D01*
X132560896Y-87536000D01*
X133594141Y-87330475D01*
X134137258Y-86967575D01*
X137268078Y-86967575D01*
X137744238Y-87638245D01*
X138330430Y-88029892D01*
X138642000Y-87878635D01*
X138642000Y-86656000D01*
X139742000Y-86656000D01*
X139742000Y-87878635D01*
X140053570Y-88029892D01*
X140639762Y-87638245D01*
X141115922Y-86967575D01*
X140975015Y-86656000D01*
X139742000Y-86656000D01*
X138642000Y-86656000D01*
X137408985Y-86656000D01*
X137268078Y-86967575D01*
X134137258Y-86967575D01*
X134470084Y-86745188D01*
X135055371Y-85869245D01*
X135179655Y-85244425D01*
X137268078Y-85244425D01*
X137408985Y-85556000D01*
X138642000Y-85556000D01*
X138642000Y-84333365D01*
X139742000Y-84333365D01*
X139742000Y-85556000D01*
X140975015Y-85556000D01*
X141115922Y-85244425D01*
X140639762Y-84573755D01*
X140053570Y-84182108D01*
X139742000Y-84333365D01*
X138642000Y-84333365D01*
X138330430Y-84182108D01*
X137744238Y-84573755D01*
X137268078Y-85244425D01*
X135179655Y-85244425D01*
X135260896Y-84836000D01*
X135055371Y-83802755D01*
X134470084Y-82926812D01*
X133648405Y-82377783D01*
X134163867Y-82280793D01*
X134674396Y-81952276D01*
X135016892Y-81451017D01*
X135137386Y-80856000D01*
X135137386Y-78656000D01*
X135032793Y-78100133D01*
X134704276Y-77589604D01*
X134203017Y-77247108D01*
X133608000Y-77126614D01*
X131408000Y-77126614D01*
X130852133Y-77231207D01*
X130341604Y-77559724D01*
X129999108Y-78060983D01*
X129878614Y-78656000D01*
X129878614Y-80856000D01*
X129983207Y-81411867D01*
X130311724Y-81922396D01*
X130812983Y-82264892D01*
X131368260Y-82377339D01*
X130545916Y-82926812D01*
X129960629Y-83802755D01*
X129755104Y-84836000D01*
X122508001Y-84836000D01*
X122508468Y-84301293D01*
X122308000Y-83816124D01*
X122308000Y-80514812D01*
X122458937Y-79756000D01*
X122261024Y-78761023D01*
X121697415Y-77917522D01*
X120853914Y-77353913D01*
X119858937Y-77156000D01*
X119757063Y-77156000D01*
X118762086Y-77353913D01*
X117918585Y-77917522D01*
X117354976Y-78761023D01*
X117157063Y-79756000D01*
X117308000Y-80514812D01*
X117308000Y-82232359D01*
X117250000Y-82220614D01*
X112750000Y-82220614D01*
X112194133Y-82325207D01*
X111683604Y-82653724D01*
X111341108Y-83154983D01*
X111220614Y-83750000D01*
X111220614Y-86250000D01*
X111325207Y-86805867D01*
X111653724Y-87316396D01*
X112154983Y-87658892D01*
X112750000Y-87779386D01*
X113527432Y-87779386D01*
X112874154Y-87909331D01*
X111981989Y-88505456D01*
X111385864Y-89397621D01*
X111176533Y-90450000D01*
X100566117Y-90450000D01*
X101093614Y-89923424D01*
X101505530Y-88931419D01*
X101506468Y-87857293D01*
X101096283Y-86864571D01*
X100337424Y-86104386D01*
X99419279Y-85723139D01*
X98286690Y-83684478D01*
X98250061Y-82255959D01*
X98793099Y-82256433D01*
X99712286Y-81876633D01*
X100416161Y-81173985D01*
X100797565Y-80255462D01*
X100798433Y-79260901D01*
X100418633Y-78341714D01*
X99715985Y-77637839D01*
X99714938Y-77637404D01*
X99409767Y-77332233D01*
X99295028Y-77255567D01*
X98698132Y-76856733D01*
X111954706Y-76856733D01*
X112173240Y-77227219D01*
X112820198Y-77825261D01*
X113646771Y-78130200D01*
X114000000Y-77906000D01*
X114000000Y-76525000D01*
X116000000Y-76525000D01*
X116000000Y-77906000D01*
X116353229Y-78130200D01*
X117179802Y-77825261D01*
X117826760Y-77227219D01*
X118045294Y-76856733D01*
X117906151Y-76525000D01*
X116000000Y-76525000D01*
X114000000Y-76525000D01*
X112093849Y-76525000D01*
X111954706Y-76856733D01*
X98698132Y-76856733D01*
X98598709Y-76790301D01*
X98107410Y-76692576D01*
X98062557Y-74943267D01*
X111954706Y-74943267D01*
X112093849Y-75275000D01*
X114000000Y-75275000D01*
X114000000Y-73894000D01*
X116000000Y-73894000D01*
X116000000Y-75275000D01*
X117906151Y-75275000D01*
X118045294Y-74943267D01*
X117826760Y-74572781D01*
X117179802Y-73974739D01*
X116353229Y-73669800D01*
X116000000Y-73894000D01*
X114000000Y-73894000D01*
X113646771Y-73669800D01*
X112820198Y-73974739D01*
X112173240Y-74572781D01*
X111954706Y-74943267D01*
X98062557Y-74943267D01*
X98061197Y-74890238D01*
X98285099Y-74890433D01*
X99204286Y-74510633D01*
X99908161Y-73807985D01*
X100289565Y-72889462D01*
X100290433Y-71894901D01*
X99910633Y-70975714D01*
X99385836Y-70450000D01*
X111176533Y-70450000D01*
X111385864Y-71502379D01*
X111981989Y-72394544D01*
X112874154Y-72990669D01*
X113926533Y-73200000D01*
X116073467Y-73200000D01*
X117125846Y-72990669D01*
X118018011Y-72394544D01*
X118614136Y-71502379D01*
X118823467Y-70450000D01*
X118614136Y-69397621D01*
X118253574Y-68858000D01*
X135146614Y-68858000D01*
X135146614Y-71858000D01*
X135251207Y-72413867D01*
X135579724Y-72924396D01*
X136080983Y-73266892D01*
X136676000Y-73387386D01*
X137715877Y-73387386D01*
X137536133Y-73421207D01*
X137025604Y-73749724D01*
X136683108Y-74250983D01*
X136562614Y-74846000D01*
X136562614Y-77046000D01*
X136667207Y-77601867D01*
X136995724Y-78112396D01*
X137496983Y-78454892D01*
X138092000Y-78575386D01*
X140292000Y-78575386D01*
X140847867Y-78470793D01*
X141358396Y-78142276D01*
X141700892Y-77641017D01*
X141821386Y-77046000D01*
X141821386Y-74846000D01*
X141716793Y-74290133D01*
X141388276Y-73779604D01*
X140887017Y-73437108D01*
X140292000Y-73316614D01*
X140052123Y-73316614D01*
X140231867Y-73282793D01*
X140742396Y-72954276D01*
X141084892Y-72453017D01*
X141205386Y-71858000D01*
X141205386Y-68858000D01*
X141100793Y-68302133D01*
X140772276Y-67791604D01*
X140271017Y-67449108D01*
X139676000Y-67328614D01*
X139165954Y-67328614D01*
X138176000Y-66338660D01*
X137186046Y-67328614D01*
X136676000Y-67328614D01*
X136120133Y-67433207D01*
X135609604Y-67761724D01*
X135267108Y-68262983D01*
X135146614Y-68858000D01*
X118253574Y-68858000D01*
X118018011Y-68505456D01*
X117125846Y-67909331D01*
X116472568Y-67779386D01*
X117250000Y-67779386D01*
X117805867Y-67674793D01*
X118316396Y-67346276D01*
X118542064Y-67016000D01*
X118788059Y-67016000D01*
X119268581Y-67215530D01*
X120342707Y-67216468D01*
X121335429Y-66806283D01*
X122095614Y-66047424D01*
X122507530Y-65055419D01*
X122507986Y-64533548D01*
X122562000Y-64262000D01*
X122562000Y-60702812D01*
X122712937Y-59944000D01*
X122515024Y-58949023D01*
X121951415Y-58105522D01*
X121107914Y-57541913D01*
X120112937Y-57344000D01*
X120011063Y-57344000D01*
X119016086Y-57541913D01*
X118172585Y-58105522D01*
X117608976Y-58949023D01*
X117411063Y-59944000D01*
X117562000Y-60702812D01*
X117562000Y-62016000D01*
X116114040Y-62016000D01*
X116018708Y-61952301D01*
X115062000Y-61762000D01*
X114105291Y-61952301D01*
X113703732Y-62220614D01*
X112750000Y-62220614D01*
X112194133Y-62325207D01*
X111683604Y-62653724D01*
X111341108Y-63154983D01*
X111220614Y-63750000D01*
X111220614Y-66250000D01*
X111325207Y-66805867D01*
X111653724Y-67316396D01*
X112154983Y-67658892D01*
X112750000Y-67779386D01*
X113527432Y-67779386D01*
X112874154Y-67909331D01*
X111981989Y-68505456D01*
X111385864Y-69397621D01*
X111176533Y-70450000D01*
X99385836Y-70450000D01*
X99207985Y-70271839D01*
X98289462Y-69890435D01*
X97932988Y-69890124D01*
X97888219Y-68144125D01*
X97928155Y-68184061D01*
X98098603Y-68013613D01*
X98882886Y-68141944D01*
X99595983Y-68000100D01*
X99730259Y-67664787D01*
X98806000Y-66740528D01*
X98509015Y-67037513D01*
X97842761Y-66371259D01*
X97833647Y-66015825D01*
X97957472Y-65892000D01*
X97827130Y-65761658D01*
X97818798Y-65436704D01*
X98509015Y-64746487D01*
X98806000Y-65043472D01*
X99102985Y-64746487D01*
X99951513Y-65595015D01*
X99654528Y-65892000D01*
X100578787Y-66816259D01*
X100914100Y-66681983D01*
X101055944Y-65815114D01*
X100930044Y-65182172D01*
X101098061Y-65014155D01*
X100454446Y-64370540D01*
X103145719Y-64253528D01*
X103338352Y-64205723D01*
X103518364Y-64061372D01*
X112837000Y-52105386D01*
X113568000Y-52105386D01*
X114123867Y-52000793D01*
X114634396Y-51672276D01*
X114976892Y-51171017D01*
X115097386Y-50576000D01*
X115097386Y-50264434D01*
X125422368Y-50264434D01*
X125796652Y-50824644D01*
X126519561Y-51361665D01*
X126858000Y-51238613D01*
X126858000Y-49926000D01*
X128158000Y-49926000D01*
X128158000Y-51238613D01*
X128496439Y-51361665D01*
X129219348Y-50824644D01*
X129593632Y-50264434D01*
X129458548Y-49926000D01*
X128158000Y-49926000D01*
X126858000Y-49926000D01*
X125557452Y-49926000D01*
X125422368Y-50264434D01*
X115097386Y-50264434D01*
X115097386Y-49205269D01*
X116586272Y-47295000D01*
X126378667Y-47295000D01*
X125796652Y-47727356D01*
X125796652Y-47727356D01*
G37*
X125796652Y-47727356D02*
X125422368Y-48287566D01*
X125557452Y-48626000D01*
X126858000Y-48626000D01*
X126858000Y-48256000D01*
X128158000Y-48256000D01*
X128158000Y-48626000D01*
X129458548Y-48626000D01*
X129593632Y-48287566D01*
X129219348Y-47727356D01*
X128637333Y-47295000D01*
X133866000Y-47295000D01*
X133866000Y-57315424D01*
X133862000Y-57314614D01*
X131662000Y-57314614D01*
X131106133Y-57419207D01*
X130595604Y-57747724D01*
X130253108Y-58248983D01*
X130132614Y-58844000D01*
X130132614Y-61044000D01*
X130237207Y-61599867D01*
X130565724Y-62110396D01*
X130923251Y-62354684D01*
X130545916Y-62606812D01*
X129960629Y-63482755D01*
X129755104Y-64516000D01*
X129960629Y-65549245D01*
X130545916Y-66425188D01*
X131421859Y-67010475D01*
X132455104Y-67216000D01*
X132560896Y-67216000D01*
X133594141Y-67010475D01*
X134470084Y-66425188D01*
X135055371Y-65549245D01*
X135077781Y-65436579D01*
X135623786Y-65436579D01*
X135757377Y-66108182D01*
X136104380Y-66288960D01*
X137115340Y-65278000D01*
X139236660Y-65278000D01*
X140247620Y-66288960D01*
X140594623Y-66108182D01*
X140728214Y-65119421D01*
X140594623Y-64447818D01*
X140247620Y-64267040D01*
X139236660Y-65278000D01*
X137115340Y-65278000D01*
X136104380Y-64267040D01*
X135757377Y-64447818D01*
X135623786Y-65436579D01*
X135077781Y-65436579D01*
X135260896Y-64516000D01*
X135055371Y-63482755D01*
X134870703Y-63206380D01*
X137165040Y-63206380D01*
X138176000Y-64217340D01*
X139186960Y-63206380D01*
X139006182Y-62859377D01*
X138017421Y-62725786D01*
X137345818Y-62859377D01*
X137165040Y-63206380D01*
X134870703Y-63206380D01*
X134470084Y-62606812D01*
X134297438Y-62491453D01*
X134417867Y-62468793D01*
X134928396Y-62140276D01*
X135270892Y-61639017D01*
X135391386Y-61044000D01*
X135391386Y-58844000D01*
X135286793Y-58288133D01*
X135203055Y-58158000D01*
X142248000Y-58158000D01*
X142248000Y-133358000D01*
X139751958Y-133358000D01*
X140131762Y-133104245D01*
X140607922Y-132433575D01*
X140467015Y-132122000D01*
X139234000Y-132122000D01*
X139234000Y-132592000D01*
X138134000Y-132592000D01*
X138134000Y-132122000D01*
X136900985Y-132122000D01*
X136760078Y-132433575D01*
X137236238Y-133104245D01*
X137616042Y-133358000D01*
X133096000Y-133358000D01*
X132901472Y-133397393D01*
X132737596Y-133509365D01*
X132630195Y-133676271D01*
X132596000Y-133858000D01*
X132596000Y-139034125D01*
X132052439Y-138630335D01*
X131714000Y-138753387D01*
X131714000Y-140066000D01*
X132084000Y-140066000D01*
X132084000Y-141366000D01*
X131714000Y-141366000D01*
X131714000Y-141736000D01*
X130414000Y-141736000D01*
X130414000Y-141366000D01*
X129113452Y-141366000D01*
X128978368Y-141704434D01*
X129352652Y-142264644D01*
X129789083Y-142588851D01*
X125679428Y-142697000D01*
X118474142Y-142697000D01*
X118532892Y-142611017D01*
X118653386Y-142016000D01*
X118653386Y-139727566D01*
X128978368Y-139727566D01*
X129113452Y-140066000D01*
X130414000Y-140066000D01*
X130414000Y-138753387D01*
X130075561Y-138630335D01*
X129352652Y-139167356D01*
X128978368Y-139727566D01*
X118653386Y-139727566D01*
X118653386Y-139416000D01*
X118548793Y-138860133D01*
X118220276Y-138349604D01*
X117719017Y-138007108D01*
X117124000Y-137886614D01*
X117013497Y-137886614D01*
X117179802Y-137825261D01*
X117826760Y-137227219D01*
X118045294Y-136856733D01*
X117906151Y-136525000D01*
X116000000Y-136525000D01*
X116000000Y-136920000D01*
X114000000Y-136920000D01*
X114000000Y-136525000D01*
X112093849Y-136525000D01*
X111954706Y-136856733D01*
X112173240Y-137227219D01*
X112820198Y-137825261D01*
X113646771Y-138130200D01*
X113999998Y-137906001D01*
X113999998Y-137985211D01*
X113968133Y-137991207D01*
X113457604Y-138319724D01*
X113115108Y-138820983D01*
X112994614Y-139416000D01*
X112994614Y-142005508D01*
X105932373Y-134943267D01*
X111954706Y-134943267D01*
X112093849Y-135275000D01*
X114000000Y-135275000D01*
X114000000Y-133894000D01*
X116000000Y-133894000D01*
X116000000Y-135275000D01*
X117906151Y-135275000D01*
X118045294Y-134943267D01*
X117826760Y-134572781D01*
X117179802Y-133974739D01*
X116353229Y-133669800D01*
X116000000Y-133894000D01*
X114000000Y-133894000D01*
X113646771Y-133669800D01*
X112820198Y-133974739D01*
X112173240Y-134572781D01*
X111954706Y-134943267D01*
X105932373Y-134943267D01*
X101439106Y-130450000D01*
X111176533Y-130450000D01*
X111385864Y-131502379D01*
X111981989Y-132394544D01*
X112874154Y-132990669D01*
X113926533Y-133200000D01*
X116073467Y-133200000D01*
X117125846Y-132990669D01*
X118018011Y-132394544D01*
X118614136Y-131502379D01*
X118771665Y-130710425D01*
X136760078Y-130710425D01*
X136900985Y-131022000D01*
X138134000Y-131022000D01*
X138134000Y-129799365D01*
X139234000Y-129799365D01*
X139234000Y-131022000D01*
X140467015Y-131022000D01*
X140607922Y-130710425D01*
X140131762Y-130039755D01*
X139545570Y-129648108D01*
X139234000Y-129799365D01*
X138134000Y-129799365D01*
X137822430Y-129648108D01*
X137236238Y-130039755D01*
X136760078Y-130710425D01*
X118771665Y-130710425D01*
X118823467Y-130450000D01*
X118614136Y-129397621D01*
X118018011Y-128505456D01*
X117125846Y-127909331D01*
X116472568Y-127779386D01*
X117250000Y-127779386D01*
X117805867Y-127674793D01*
X118316396Y-127346276D01*
X118658892Y-126845017D01*
X118675177Y-126764597D01*
X119014581Y-126905530D01*
X120088707Y-126906468D01*
X121081429Y-126496283D01*
X121841614Y-125737424D01*
X122253530Y-124745419D01*
X122254001Y-124206000D01*
X129501104Y-124206000D01*
X129706629Y-125239245D01*
X130291916Y-126115188D01*
X131167859Y-126700475D01*
X132201104Y-126906000D01*
X132306896Y-126906000D01*
X133340141Y-126700475D01*
X134216084Y-126115188D01*
X134801371Y-125239245D01*
X135006896Y-124206000D01*
X134801371Y-123172755D01*
X134216084Y-122296812D01*
X134154281Y-122255517D01*
X134420396Y-122084276D01*
X134762892Y-121583017D01*
X134883386Y-120988000D01*
X134883386Y-120312000D01*
X136054614Y-120312000D01*
X136054614Y-122512000D01*
X136159207Y-123067867D01*
X136487724Y-123578396D01*
X136988983Y-123920892D01*
X137584000Y-124041386D01*
X139784000Y-124041386D01*
X140339867Y-123936793D01*
X140850396Y-123608276D01*
X141192892Y-123107017D01*
X141313386Y-122512000D01*
X141313386Y-120312000D01*
X141208793Y-119756133D01*
X140880276Y-119245604D01*
X140379017Y-118903108D01*
X139784000Y-118782614D01*
X137584000Y-118782614D01*
X137028133Y-118887207D01*
X136517604Y-119215724D01*
X136175108Y-119716983D01*
X136054614Y-120312000D01*
X134883386Y-120312000D01*
X134883386Y-118788000D01*
X134778793Y-118232133D01*
X134450276Y-117721604D01*
X133949017Y-117379108D01*
X133354000Y-117258614D01*
X131154000Y-117258614D01*
X130598133Y-117363207D01*
X130087604Y-117691724D01*
X129745108Y-118192983D01*
X129624614Y-118788000D01*
X129624614Y-120988000D01*
X129729207Y-121543867D01*
X130057724Y-122054396D01*
X130352887Y-122256072D01*
X130291916Y-122296812D01*
X129706629Y-123172755D01*
X129501104Y-124206000D01*
X122254001Y-124206000D01*
X122254468Y-123671293D01*
X122054000Y-123186124D01*
X122054000Y-120646812D01*
X122204937Y-119888000D01*
X122007024Y-118893023D01*
X121443415Y-118049522D01*
X120599914Y-117485913D01*
X119604937Y-117288000D01*
X119503063Y-117288000D01*
X118508086Y-117485913D01*
X117664585Y-118049522D01*
X117100976Y-118893023D01*
X116903063Y-119888000D01*
X117054000Y-120646812D01*
X117054000Y-121706000D01*
X115794000Y-121706000D01*
X114837292Y-121896300D01*
X114351922Y-122220614D01*
X112750000Y-122220614D01*
X112194133Y-122325207D01*
X111683604Y-122653724D01*
X111341108Y-123154983D01*
X111220614Y-123750000D01*
X111220614Y-126250000D01*
X111325207Y-126805867D01*
X111653724Y-127316396D01*
X112154983Y-127658892D01*
X112750000Y-127779386D01*
X113527432Y-127779386D01*
X112874154Y-127909331D01*
X111981989Y-128505456D01*
X111385864Y-129397621D01*
X111176533Y-130450000D01*
X101439106Y-130450000D01*
X98251784Y-127262678D01*
X98882886Y-127365944D01*
X99595983Y-127224100D01*
X99730259Y-126888787D01*
X98806000Y-125964528D01*
X98509015Y-126261513D01*
X97843886Y-125596384D01*
X97860668Y-125212804D01*
X97957472Y-125116000D01*
X99654528Y-125116000D01*
X100578787Y-126040259D01*
X100914100Y-125905983D01*
X101055944Y-125039114D01*
X100914100Y-124326017D01*
X100578787Y-124191741D01*
X99654528Y-125116000D01*
X97957472Y-125116000D01*
X97868783Y-125027311D01*
X97887843Y-124591659D01*
X98509015Y-123970487D01*
X98806000Y-124267472D01*
X99730259Y-123343213D01*
X99595983Y-123007900D01*
X98729114Y-122866056D01*
X98096172Y-122991956D01*
X97963629Y-122859413D01*
X98017601Y-121625756D01*
X98793099Y-121626433D01*
X99712286Y-121246633D01*
X100416161Y-120543985D01*
X100607699Y-120082711D01*
X100607700Y-120082709D01*
X100607700Y-120082707D01*
X100797565Y-119625462D01*
X100798433Y-118630901D01*
X100418633Y-117711714D01*
X99715985Y-117007839D01*
X99352081Y-116856733D01*
X111954706Y-116856733D01*
X112173240Y-117227219D01*
X112820198Y-117825261D01*
X113646771Y-118130200D01*
X114000000Y-117906000D01*
X114000000Y-116525000D01*
X116000000Y-116525000D01*
X116000000Y-117906000D01*
X116353229Y-118130200D01*
X117179802Y-117825261D01*
X117826760Y-117227219D01*
X118045294Y-116856733D01*
X117906151Y-116525000D01*
X116000000Y-116525000D01*
X114000000Y-116525000D01*
X112093849Y-116525000D01*
X111954706Y-116856733D01*
X99352081Y-116856733D01*
X99288815Y-116830463D01*
X99228709Y-116790301D01*
X99158429Y-116776321D01*
X98797462Y-116626435D01*
X98403168Y-116626091D01*
X98272000Y-116600000D01*
X98237478Y-116600000D01*
X98309960Y-114943267D01*
X111954706Y-114943267D01*
X112093849Y-115275000D01*
X114000000Y-115275000D01*
X114000000Y-113894000D01*
X116000000Y-113894000D01*
X116000000Y-115275000D01*
X117906151Y-115275000D01*
X118045294Y-114943267D01*
X117826760Y-114572781D01*
X117282855Y-114070000D01*
X135654614Y-114070000D01*
X135654614Y-117070000D01*
X135759207Y-117625867D01*
X136087724Y-118136396D01*
X136588983Y-118478892D01*
X137184000Y-118599386D01*
X140184000Y-118599386D01*
X140739867Y-118494793D01*
X141250396Y-118166276D01*
X141592892Y-117665017D01*
X141713386Y-117070000D01*
X141713386Y-114070000D01*
X141608793Y-113514133D01*
X141280276Y-113003604D01*
X140779017Y-112661108D01*
X140184000Y-112540614D01*
X139673954Y-112540614D01*
X138684000Y-111550660D01*
X137694046Y-112540614D01*
X137184000Y-112540614D01*
X136628133Y-112645207D01*
X136117604Y-112973724D01*
X135775108Y-113474983D01*
X135654614Y-114070000D01*
X117282855Y-114070000D01*
X117179802Y-113974739D01*
X116353229Y-113669800D01*
X116000000Y-113894000D01*
X114000000Y-113894000D01*
X113646771Y-113669800D01*
X112820198Y-113974739D01*
X112173240Y-114572781D01*
X111954706Y-114943267D01*
X98309960Y-114943267D01*
X98420209Y-112423295D01*
X98560538Y-112481565D01*
X99555099Y-112482433D01*
X100474286Y-112102633D01*
X101178161Y-111399985D01*
X101559565Y-110481462D01*
X101559592Y-110450000D01*
X111176533Y-110450000D01*
X111385864Y-111502379D01*
X111981989Y-112394544D01*
X112874154Y-112990669D01*
X113926533Y-113200000D01*
X116073467Y-113200000D01*
X117125846Y-112990669D01*
X118018011Y-112394544D01*
X118614136Y-111502379D01*
X118723330Y-110953425D01*
X119249063Y-111058000D01*
X119350937Y-111058000D01*
X120345914Y-110860087D01*
X121189415Y-110296478D01*
X121753024Y-109452977D01*
X121950937Y-108458000D01*
X121800000Y-107699188D01*
X121800000Y-107358000D01*
X129370614Y-107358000D01*
X129370614Y-109558000D01*
X129475207Y-110113867D01*
X129803724Y-110624396D01*
X130304983Y-110966892D01*
X130900000Y-111087386D01*
X133100000Y-111087386D01*
X133655867Y-110982793D01*
X134166396Y-110654276D01*
X134170288Y-110648579D01*
X136131786Y-110648579D01*
X136265377Y-111320182D01*
X136612380Y-111500960D01*
X137623340Y-110490000D01*
X139744660Y-110490000D01*
X140755620Y-111500960D01*
X141102623Y-111320182D01*
X141236214Y-110331421D01*
X141102623Y-109659818D01*
X140755620Y-109479040D01*
X139744660Y-110490000D01*
X137623340Y-110490000D01*
X136612380Y-109479040D01*
X136265377Y-109659818D01*
X136131786Y-110648579D01*
X134170288Y-110648579D01*
X134508892Y-110153017D01*
X134629386Y-109558000D01*
X134629386Y-108830478D01*
X134711357Y-108418380D01*
X137673040Y-108418380D01*
X138684000Y-109429340D01*
X139694960Y-108418380D01*
X139514182Y-108071377D01*
X138525421Y-107937786D01*
X137853818Y-108071377D01*
X137673040Y-108418380D01*
X134711357Y-108418380D01*
X134754000Y-108204000D01*
X134629386Y-107577523D01*
X134629386Y-107358000D01*
X134524793Y-106802133D01*
X134196276Y-106291604D01*
X134026695Y-106175734D01*
X134216084Y-106049188D01*
X134801371Y-105173245D01*
X135006896Y-104140000D01*
X134801371Y-103106755D01*
X134216084Y-102230812D01*
X133340141Y-101645525D01*
X132306896Y-101440000D01*
X132201104Y-101440000D01*
X131167859Y-101645525D01*
X130291916Y-102230812D01*
X129706629Y-103106755D01*
X129501104Y-104140000D01*
X129706629Y-105173245D01*
X130253422Y-105991578D01*
X129833604Y-106261724D01*
X129491108Y-106762983D01*
X129370614Y-107358000D01*
X121800000Y-107358000D01*
X121800000Y-105712965D01*
X121841614Y-105671424D01*
X122253530Y-104679419D01*
X122254468Y-103605293D01*
X121844283Y-102612571D01*
X121085424Y-101852386D01*
X120093419Y-101440470D01*
X119019293Y-101439532D01*
X118534124Y-101640000D01*
X115860000Y-101640000D01*
X114903291Y-101830301D01*
X114319147Y-102220614D01*
X112750000Y-102220614D01*
X112194133Y-102325207D01*
X111683604Y-102653724D01*
X111341108Y-103154983D01*
X111220614Y-103750000D01*
X111220614Y-106250000D01*
X111325207Y-106805867D01*
X111653724Y-107316396D01*
X112154983Y-107658892D01*
X112750000Y-107779386D01*
X113527432Y-107779386D01*
X112874154Y-107909331D01*
X111981989Y-108505456D01*
X111385864Y-109397621D01*
X111176533Y-110450000D01*
X101559592Y-110450000D01*
X101560433Y-109486901D01*
X101180633Y-108567714D01*
X100477985Y-107863839D01*
X100276912Y-107780346D01*
X98673041Y-106644271D01*
X98731156Y-105315936D01*
X99340707Y-105316468D01*
X100333429Y-104906283D01*
X101093614Y-104147424D01*
X101505530Y-103155419D01*
X101506468Y-102081293D01*
X101096283Y-101088571D01*
X100337424Y-100328386D01*
X99345419Y-99916470D01*
X98967397Y-99916140D01*
X99005999Y-99033808D01*
X131488406Y-99033808D01*
X132130719Y-99711104D01*
X134435536Y-100343992D01*
X136807105Y-100046690D01*
X137617281Y-99711104D01*
X138259594Y-99033808D01*
X134874000Y-95648214D01*
X131488406Y-99033808D01*
X99005999Y-99033808D01*
X99101246Y-96856733D01*
X111954706Y-96856733D01*
X112173240Y-97227219D01*
X112820198Y-97825261D01*
X113646771Y-98130200D01*
X114000000Y-97906000D01*
X114000000Y-96525000D01*
X116000000Y-96525000D01*
X116000000Y-97906000D01*
X116353229Y-98130200D01*
X117179802Y-97825261D01*
X117826760Y-97227219D01*
X118045294Y-96856733D01*
X117906151Y-96525000D01*
X116000000Y-96525000D01*
X114000000Y-96525000D01*
X112093849Y-96525000D01*
X111954706Y-96856733D01*
X99101246Y-96856733D01*
X99184960Y-94943267D01*
X111954706Y-94943267D01*
X112093849Y-95275000D01*
X114000000Y-95275000D01*
X114000000Y-93894000D01*
X116000000Y-93894000D01*
X116000000Y-95275000D01*
X117906151Y-95275000D01*
X118045294Y-94943267D01*
X117826760Y-94572781D01*
X117179802Y-93974739D01*
X116694052Y-93795536D01*
X128764008Y-93795536D01*
X129061310Y-96167105D01*
X129396896Y-96977281D01*
X130074192Y-97619594D01*
X133459786Y-94234000D01*
X136288214Y-94234000D01*
X139673808Y-97619594D01*
X140351104Y-96977281D01*
X140983992Y-94672464D01*
X140686690Y-92300895D01*
X140351104Y-91490719D01*
X139673808Y-90848406D01*
X136288214Y-94234000D01*
X133459786Y-94234000D01*
X130074192Y-90848406D01*
X129396896Y-91490719D01*
X128764008Y-93795536D01*
X116694052Y-93795536D01*
X116353229Y-93669800D01*
X116000000Y-93894000D01*
X114000000Y-93894000D01*
X113646771Y-93669800D01*
X112820198Y-93974739D01*
X112173240Y-94572781D01*
X111954706Y-94943267D01*
X99184960Y-94943267D01*
X99353667Y-91087113D01*
X100333429Y-90682283D01*
X100566117Y-90450000D01*
X111176533Y-90450000D01*
X111385864Y-91502379D01*
X111981989Y-92394544D01*
X112874154Y-92990669D01*
X113926533Y-93200000D01*
X116073467Y-93200000D01*
X117125846Y-92990669D01*
X118018011Y-92394544D01*
X118614136Y-91502379D01*
X118823467Y-90450000D01*
X118621411Y-89434192D01*
X131488406Y-89434192D01*
X134874000Y-92819786D01*
X138259594Y-89434192D01*
X137617281Y-88756896D01*
X135312464Y-88124008D01*
X132940895Y-88421310D01*
X132130719Y-88756896D01*
X131488406Y-89434192D01*
X118621411Y-89434192D01*
X118614136Y-89397621D01*
X118018011Y-88505456D01*
X117125846Y-87909331D01*
X116472568Y-87779386D01*
X117250000Y-87779386D01*
X117805867Y-87674793D01*
X118316396Y-87346276D01*
X118323417Y-87336000D01*
X118788059Y-87336000D01*
X119268581Y-87535530D01*
X120342707Y-87536468D01*
X121335429Y-87126283D01*
X122095614Y-86367424D01*
X122507530Y-85375419D01*
X122508001Y-84836000D01*
X129755104Y-84836000D01*
X129960629Y-85869245D01*
X130545916Y-86745188D01*
X131421859Y-87330475D01*
X132455104Y-87536000D01*
X132560896Y-87536000D01*
X133594141Y-87330475D01*
X134137258Y-86967575D01*
X137268078Y-86967575D01*
X137744238Y-87638245D01*
X138330430Y-88029892D01*
X138642000Y-87878635D01*
X138642000Y-86656000D01*
X139742000Y-86656000D01*
X139742000Y-87878635D01*
X140053570Y-88029892D01*
X140639762Y-87638245D01*
X141115922Y-86967575D01*
X140975015Y-86656000D01*
X139742000Y-86656000D01*
X138642000Y-86656000D01*
X137408985Y-86656000D01*
X137268078Y-86967575D01*
X134137258Y-86967575D01*
X134470084Y-86745188D01*
X135055371Y-85869245D01*
X135179655Y-85244425D01*
X137268078Y-85244425D01*
X137408985Y-85556000D01*
X138642000Y-85556000D01*
X138642000Y-84333365D01*
X139742000Y-84333365D01*
X139742000Y-85556000D01*
X140975015Y-85556000D01*
X141115922Y-85244425D01*
X140639762Y-84573755D01*
X140053570Y-84182108D01*
X139742000Y-84333365D01*
X138642000Y-84333365D01*
X138330430Y-84182108D01*
X137744238Y-84573755D01*
X137268078Y-85244425D01*
X135179655Y-85244425D01*
X135260896Y-84836000D01*
X135055371Y-83802755D01*
X134470084Y-82926812D01*
X133648405Y-82377783D01*
X134163867Y-82280793D01*
X134674396Y-81952276D01*
X135016892Y-81451017D01*
X135137386Y-80856000D01*
X135137386Y-78656000D01*
X135032793Y-78100133D01*
X134704276Y-77589604D01*
X134203017Y-77247108D01*
X133608000Y-77126614D01*
X131408000Y-77126614D01*
X130852133Y-77231207D01*
X130341604Y-77559724D01*
X129999108Y-78060983D01*
X129878614Y-78656000D01*
X129878614Y-80856000D01*
X129983207Y-81411867D01*
X130311724Y-81922396D01*
X130812983Y-82264892D01*
X131368260Y-82377339D01*
X130545916Y-82926812D01*
X129960629Y-83802755D01*
X129755104Y-84836000D01*
X122508001Y-84836000D01*
X122508468Y-84301293D01*
X122308000Y-83816124D01*
X122308000Y-80514812D01*
X122458937Y-79756000D01*
X122261024Y-78761023D01*
X121697415Y-77917522D01*
X120853914Y-77353913D01*
X119858937Y-77156000D01*
X119757063Y-77156000D01*
X118762086Y-77353913D01*
X117918585Y-77917522D01*
X117354976Y-78761023D01*
X117157063Y-79756000D01*
X117308000Y-80514812D01*
X117308000Y-82232359D01*
X117250000Y-82220614D01*
X112750000Y-82220614D01*
X112194133Y-82325207D01*
X111683604Y-82653724D01*
X111341108Y-83154983D01*
X111220614Y-83750000D01*
X111220614Y-86250000D01*
X111325207Y-86805867D01*
X111653724Y-87316396D01*
X112154983Y-87658892D01*
X112750000Y-87779386D01*
X113527432Y-87779386D01*
X112874154Y-87909331D01*
X111981989Y-88505456D01*
X111385864Y-89397621D01*
X111176533Y-90450000D01*
X100566117Y-90450000D01*
X101093614Y-89923424D01*
X101505530Y-88931419D01*
X101506468Y-87857293D01*
X101096283Y-86864571D01*
X100337424Y-86104386D01*
X99419279Y-85723139D01*
X98286690Y-83684478D01*
X98250061Y-82255959D01*
X98793099Y-82256433D01*
X99712286Y-81876633D01*
X100416161Y-81173985D01*
X100797565Y-80255462D01*
X100798433Y-79260901D01*
X100418633Y-78341714D01*
X99715985Y-77637839D01*
X99714938Y-77637404D01*
X99409767Y-77332233D01*
X99295028Y-77255567D01*
X98698132Y-76856733D01*
X111954706Y-76856733D01*
X112173240Y-77227219D01*
X112820198Y-77825261D01*
X113646771Y-78130200D01*
X114000000Y-77906000D01*
X114000000Y-76525000D01*
X116000000Y-76525000D01*
X116000000Y-77906000D01*
X116353229Y-78130200D01*
X117179802Y-77825261D01*
X117826760Y-77227219D01*
X118045294Y-76856733D01*
X117906151Y-76525000D01*
X116000000Y-76525000D01*
X114000000Y-76525000D01*
X112093849Y-76525000D01*
X111954706Y-76856733D01*
X98698132Y-76856733D01*
X98598709Y-76790301D01*
X98107410Y-76692576D01*
X98062557Y-74943267D01*
X111954706Y-74943267D01*
X112093849Y-75275000D01*
X114000000Y-75275000D01*
X114000000Y-73894000D01*
X116000000Y-73894000D01*
X116000000Y-75275000D01*
X117906151Y-75275000D01*
X118045294Y-74943267D01*
X117826760Y-74572781D01*
X117179802Y-73974739D01*
X116353229Y-73669800D01*
X116000000Y-73894000D01*
X114000000Y-73894000D01*
X113646771Y-73669800D01*
X112820198Y-73974739D01*
X112173240Y-74572781D01*
X111954706Y-74943267D01*
X98062557Y-74943267D01*
X98061197Y-74890238D01*
X98285099Y-74890433D01*
X99204286Y-74510633D01*
X99908161Y-73807985D01*
X100289565Y-72889462D01*
X100290433Y-71894901D01*
X99910633Y-70975714D01*
X99385836Y-70450000D01*
X111176533Y-70450000D01*
X111385864Y-71502379D01*
X111981989Y-72394544D01*
X112874154Y-72990669D01*
X113926533Y-73200000D01*
X116073467Y-73200000D01*
X117125846Y-72990669D01*
X118018011Y-72394544D01*
X118614136Y-71502379D01*
X118823467Y-70450000D01*
X118614136Y-69397621D01*
X118253574Y-68858000D01*
X135146614Y-68858000D01*
X135146614Y-71858000D01*
X135251207Y-72413867D01*
X135579724Y-72924396D01*
X136080983Y-73266892D01*
X136676000Y-73387386D01*
X137715877Y-73387386D01*
X137536133Y-73421207D01*
X137025604Y-73749724D01*
X136683108Y-74250983D01*
X136562614Y-74846000D01*
X136562614Y-77046000D01*
X136667207Y-77601867D01*
X136995724Y-78112396D01*
X137496983Y-78454892D01*
X138092000Y-78575386D01*
X140292000Y-78575386D01*
X140847867Y-78470793D01*
X141358396Y-78142276D01*
X141700892Y-77641017D01*
X141821386Y-77046000D01*
X141821386Y-74846000D01*
X141716793Y-74290133D01*
X141388276Y-73779604D01*
X140887017Y-73437108D01*
X140292000Y-73316614D01*
X140052123Y-73316614D01*
X140231867Y-73282793D01*
X140742396Y-72954276D01*
X141084892Y-72453017D01*
X141205386Y-71858000D01*
X141205386Y-68858000D01*
X141100793Y-68302133D01*
X140772276Y-67791604D01*
X140271017Y-67449108D01*
X139676000Y-67328614D01*
X139165954Y-67328614D01*
X138176000Y-66338660D01*
X137186046Y-67328614D01*
X136676000Y-67328614D01*
X136120133Y-67433207D01*
X135609604Y-67761724D01*
X135267108Y-68262983D01*
X135146614Y-68858000D01*
X118253574Y-68858000D01*
X118018011Y-68505456D01*
X117125846Y-67909331D01*
X116472568Y-67779386D01*
X117250000Y-67779386D01*
X117805867Y-67674793D01*
X118316396Y-67346276D01*
X118542064Y-67016000D01*
X118788059Y-67016000D01*
X119268581Y-67215530D01*
X120342707Y-67216468D01*
X121335429Y-66806283D01*
X122095614Y-66047424D01*
X122507530Y-65055419D01*
X122507986Y-64533548D01*
X122562000Y-64262000D01*
X122562000Y-60702812D01*
X122712937Y-59944000D01*
X122515024Y-58949023D01*
X121951415Y-58105522D01*
X121107914Y-57541913D01*
X120112937Y-57344000D01*
X120011063Y-57344000D01*
X119016086Y-57541913D01*
X118172585Y-58105522D01*
X117608976Y-58949023D01*
X117411063Y-59944000D01*
X117562000Y-60702812D01*
X117562000Y-62016000D01*
X116114040Y-62016000D01*
X116018708Y-61952301D01*
X115062000Y-61762000D01*
X114105291Y-61952301D01*
X113703732Y-62220614D01*
X112750000Y-62220614D01*
X112194133Y-62325207D01*
X111683604Y-62653724D01*
X111341108Y-63154983D01*
X111220614Y-63750000D01*
X111220614Y-66250000D01*
X111325207Y-66805867D01*
X111653724Y-67316396D01*
X112154983Y-67658892D01*
X112750000Y-67779386D01*
X113527432Y-67779386D01*
X112874154Y-67909331D01*
X111981989Y-68505456D01*
X111385864Y-69397621D01*
X111176533Y-70450000D01*
X99385836Y-70450000D01*
X99207985Y-70271839D01*
X98289462Y-69890435D01*
X97932988Y-69890124D01*
X97888219Y-68144125D01*
X97928155Y-68184061D01*
X98098603Y-68013613D01*
X98882886Y-68141944D01*
X99595983Y-68000100D01*
X99730259Y-67664787D01*
X98806000Y-66740528D01*
X98509015Y-67037513D01*
X97842761Y-66371259D01*
X97833647Y-66015825D01*
X97957472Y-65892000D01*
X97827130Y-65761658D01*
X97818798Y-65436704D01*
X98509015Y-64746487D01*
X98806000Y-65043472D01*
X99102985Y-64746487D01*
X99951513Y-65595015D01*
X99654528Y-65892000D01*
X100578787Y-66816259D01*
X100914100Y-66681983D01*
X101055944Y-65815114D01*
X100930044Y-65182172D01*
X101098061Y-65014155D01*
X100454446Y-64370540D01*
X103145719Y-64253528D01*
X103338352Y-64205723D01*
X103518364Y-64061372D01*
X112837000Y-52105386D01*
X113568000Y-52105386D01*
X114123867Y-52000793D01*
X114634396Y-51672276D01*
X114976892Y-51171017D01*
X115097386Y-50576000D01*
X115097386Y-50264434D01*
X125422368Y-50264434D01*
X125796652Y-50824644D01*
X126519561Y-51361665D01*
X126858000Y-51238613D01*
X126858000Y-49926000D01*
X128158000Y-49926000D01*
X128158000Y-51238613D01*
X128496439Y-51361665D01*
X129219348Y-50824644D01*
X129593632Y-50264434D01*
X129458548Y-49926000D01*
X128158000Y-49926000D01*
X126858000Y-49926000D01*
X125557452Y-49926000D01*
X125422368Y-50264434D01*
X115097386Y-50264434D01*
X115097386Y-49205269D01*
X116586272Y-47295000D01*
X126378667Y-47295000D01*
X125796652Y-47727356D01*
G36*
X96364895Y-47527310D02*
X95554719Y-47862896D01*
X94912406Y-48540192D01*
X98298000Y-51925786D01*
X101683594Y-48540192D01*
X101041281Y-47862896D01*
X98973148Y-47295000D01*
X107450000Y-47295000D01*
X107450000Y-52189365D01*
X103081706Y-59712537D01*
X93446393Y-60206656D01*
X93254137Y-60255960D01*
X93096211Y-60376178D01*
X92997499Y-60548366D01*
X92972083Y-60696911D01*
X92470945Y-88259513D01*
X86779386Y-89769518D01*
X86779386Y-88750000D01*
X86674793Y-88194133D01*
X86346276Y-87683604D01*
X85845017Y-87341108D01*
X85250000Y-87220614D01*
X84472568Y-87220614D01*
X85125846Y-87090669D01*
X86018011Y-86494544D01*
X86614136Y-85602379D01*
X86823467Y-84550000D01*
X86614136Y-83497621D01*
X86018011Y-82605456D01*
X85125846Y-82009331D01*
X84073467Y-81800000D01*
X81926533Y-81800000D01*
X80874154Y-82009331D01*
X79981989Y-82605456D01*
X79385864Y-83497621D01*
X79276410Y-84047881D01*
X78343419Y-83660470D01*
X77269293Y-83659532D01*
X76276571Y-84069717D01*
X75516386Y-84828576D01*
X75104470Y-85820581D01*
X75103532Y-86894707D01*
X75513717Y-87887429D01*
X76272576Y-88647614D01*
X76463368Y-88726837D01*
X75914585Y-89093522D01*
X75350976Y-89937023D01*
X75153063Y-90932000D01*
X75255702Y-91448000D01*
X67733386Y-91448000D01*
X67733386Y-89832000D01*
X67628793Y-89276133D01*
X67604000Y-89237604D01*
X67604000Y-87464141D01*
X67651371Y-87393245D01*
X67702341Y-87137001D01*
X67921699Y-86808709D01*
X68112000Y-85852000D01*
X68112000Y-80056733D01*
X79954706Y-80056733D01*
X80173240Y-80427219D01*
X80820198Y-81025261D01*
X81646771Y-81330200D01*
X82000000Y-81106000D01*
X82000000Y-79725000D01*
X84000000Y-79725000D01*
X84000000Y-81106000D01*
X84353229Y-81330200D01*
X85179802Y-81025261D01*
X85826760Y-80427219D01*
X86045294Y-80056733D01*
X85906151Y-79725000D01*
X84000000Y-79725000D01*
X82000000Y-79725000D01*
X80093849Y-79725000D01*
X79954706Y-80056733D01*
X68112000Y-80056733D01*
X68112000Y-78143267D01*
X79954706Y-78143267D01*
X80093849Y-78475000D01*
X82000000Y-78475000D01*
X82000000Y-77094000D01*
X84000000Y-77094000D01*
X84000000Y-78475000D01*
X85906151Y-78475000D01*
X86045294Y-78143267D01*
X85826760Y-77772781D01*
X85179802Y-77174739D01*
X84353229Y-76869800D01*
X84000000Y-77094000D01*
X82000000Y-77094000D01*
X81646771Y-76869800D01*
X80820198Y-77174739D01*
X80173240Y-77772781D01*
X79954706Y-78143267D01*
X68112000Y-78143267D01*
X68112000Y-76130031D01*
X68120892Y-76117017D01*
X68241386Y-75522000D01*
X68241386Y-73322000D01*
X68136793Y-72766133D01*
X68112000Y-72727604D01*
X68112000Y-70954141D01*
X68159371Y-70883245D01*
X68258536Y-70384707D01*
X75611532Y-70384707D01*
X76021717Y-71377429D01*
X76780576Y-72137614D01*
X76971368Y-72216837D01*
X76422585Y-72583522D01*
X75858976Y-73427023D01*
X75661063Y-74422000D01*
X75858976Y-75416977D01*
X76422585Y-76260478D01*
X77266086Y-76824087D01*
X78261063Y-77022000D01*
X78362937Y-77022000D01*
X79357914Y-76824087D01*
X80201415Y-76260478D01*
X80765024Y-75416977D01*
X80962937Y-74422000D01*
X80765024Y-73427023D01*
X80266922Y-72681560D01*
X80750000Y-72779386D01*
X85250000Y-72779386D01*
X85805867Y-72674793D01*
X86316396Y-72346276D01*
X86658892Y-71845017D01*
X86779386Y-71250000D01*
X86779386Y-68750000D01*
X86674793Y-68194133D01*
X86346276Y-67683604D01*
X85845017Y-67341108D01*
X85250000Y-67220614D01*
X84472568Y-67220614D01*
X85125846Y-67090669D01*
X86018011Y-66494544D01*
X86614136Y-65602379D01*
X86823467Y-64550000D01*
X86614136Y-63497621D01*
X86018011Y-62605456D01*
X85125846Y-62009331D01*
X84073467Y-61800000D01*
X81926533Y-61800000D01*
X80874154Y-62009331D01*
X79981989Y-62605456D01*
X79385864Y-63497621D01*
X79176533Y-64550000D01*
X79385864Y-65602379D01*
X79981989Y-66494544D01*
X80874154Y-67090669D01*
X81527432Y-67220614D01*
X80750000Y-67220614D01*
X80194133Y-67325207D01*
X79832558Y-67557874D01*
X78851419Y-67150470D01*
X77777293Y-67149532D01*
X76784571Y-67559717D01*
X76024386Y-68318576D01*
X75612470Y-69310581D01*
X75611532Y-70384707D01*
X68258536Y-70384707D01*
X68364896Y-69850000D01*
X68159371Y-68816755D01*
X67574084Y-67940812D01*
X66698141Y-67355525D01*
X65664896Y-67150000D01*
X65559104Y-67150000D01*
X64525859Y-67355525D01*
X63649916Y-67940812D01*
X63064629Y-68816755D01*
X62859104Y-69850000D01*
X63064629Y-70883245D01*
X63112000Y-70954141D01*
X63112000Y-72713969D01*
X63103108Y-72726983D01*
X62982614Y-73322000D01*
X62982614Y-74208000D01*
X57169534Y-74208000D01*
X55461386Y-72499852D01*
X55461386Y-71036000D01*
X55356793Y-70480133D01*
X55028276Y-69969604D01*
X54527017Y-69627108D01*
X53932000Y-69506614D01*
X51732000Y-69506614D01*
X51176133Y-69611207D01*
X50665604Y-69939724D01*
X50323108Y-70440983D01*
X50202614Y-71036000D01*
X50202614Y-73236000D01*
X50238104Y-73424614D01*
X49554000Y-73424614D01*
X48998133Y-73529207D01*
X48487604Y-73857724D01*
X48145108Y-74358983D01*
X48024614Y-74954000D01*
X48024614Y-77954000D01*
X48129207Y-78509867D01*
X48457724Y-79020396D01*
X48958983Y-79362892D01*
X49554000Y-79483386D01*
X50064046Y-79483386D01*
X51054000Y-80473340D01*
X52043954Y-79483386D01*
X52554000Y-79483386D01*
X53109867Y-79378793D01*
X53375286Y-79208000D01*
X63112000Y-79208000D01*
X63112000Y-84495584D01*
X62556629Y-85326755D01*
X62351104Y-86360000D01*
X62556629Y-87393245D01*
X62604000Y-87464141D01*
X62604000Y-89223969D01*
X62595108Y-89236983D01*
X62474614Y-89832000D01*
X62474614Y-91448000D01*
X60761893Y-91448000D01*
X59566762Y-90250781D01*
X57178602Y-89259130D01*
X54592742Y-89256874D01*
X52202856Y-90244355D01*
X50997108Y-91448000D01*
X47998000Y-91448000D01*
X47998000Y-83605620D01*
X50043040Y-83605620D01*
X50223818Y-83952623D01*
X51212579Y-84086214D01*
X51884182Y-83952623D01*
X52064960Y-83605620D01*
X51054000Y-82594660D01*
X50043040Y-83605620D01*
X47998000Y-83605620D01*
X47998000Y-81692579D01*
X48501786Y-81692579D01*
X48635377Y-82364182D01*
X48982380Y-82544960D01*
X49993340Y-81534000D01*
X52114660Y-81534000D01*
X53125620Y-82544960D01*
X53472623Y-82364182D01*
X53606214Y-81375421D01*
X53472623Y-80703818D01*
X53125620Y-80523040D01*
X52114660Y-81534000D01*
X49993340Y-81534000D01*
X48982380Y-80523040D01*
X48635377Y-80703818D01*
X48501786Y-81692579D01*
X47998000Y-81692579D01*
X47998000Y-62837575D01*
X50908078Y-62837575D01*
X51384238Y-63508245D01*
X51970430Y-63899892D01*
X52282000Y-63748635D01*
X52282000Y-62526000D01*
X53382000Y-62526000D01*
X53382000Y-63748635D01*
X53693570Y-63899892D01*
X54279762Y-63508245D01*
X54755922Y-62837575D01*
X54615015Y-62526000D01*
X53382000Y-62526000D01*
X52282000Y-62526000D01*
X51048985Y-62526000D01*
X50908078Y-62837575D01*
X47998000Y-62837575D01*
X47998000Y-61114425D01*
X50908078Y-61114425D01*
X51048985Y-61426000D01*
X52282000Y-61426000D01*
X52282000Y-60203365D01*
X53382000Y-60203365D01*
X53382000Y-61426000D01*
X54615015Y-61426000D01*
X54755922Y-61114425D01*
X54279762Y-60443755D01*
X53700493Y-60056733D01*
X79954706Y-60056733D01*
X80173240Y-60427219D01*
X80820198Y-61025261D01*
X81646771Y-61330200D01*
X82000000Y-61106000D01*
X82000000Y-59725000D01*
X84000000Y-59725000D01*
X84000000Y-61106000D01*
X84353229Y-61330200D01*
X85179802Y-61025261D01*
X85826760Y-60427219D01*
X86045294Y-60056733D01*
X85906151Y-59725000D01*
X84000000Y-59725000D01*
X82000000Y-59725000D01*
X80093849Y-59725000D01*
X79954706Y-60056733D01*
X53700493Y-60056733D01*
X53693570Y-60052108D01*
X53382000Y-60203365D01*
X52282000Y-60203365D01*
X51970430Y-60052108D01*
X51384238Y-60443755D01*
X50908078Y-61114425D01*
X47998000Y-61114425D01*
X47998000Y-58143267D01*
X79954706Y-58143267D01*
X80093849Y-58475000D01*
X82000000Y-58475000D01*
X82000000Y-57094000D01*
X84000000Y-57094000D01*
X84000000Y-58475000D01*
X85906151Y-58475000D01*
X86045294Y-58143267D01*
X86043254Y-58139808D01*
X94912406Y-58139808D01*
X95554719Y-58817104D01*
X97859536Y-59449992D01*
X100231105Y-59152690D01*
X101041281Y-58817104D01*
X101683594Y-58139808D01*
X98298000Y-54754214D01*
X94912406Y-58139808D01*
X86043254Y-58139808D01*
X85826760Y-57772781D01*
X85179802Y-57174739D01*
X84353229Y-56869800D01*
X84000000Y-57094000D01*
X82000000Y-57094000D01*
X81646771Y-56869800D01*
X80820198Y-57174739D01*
X80173240Y-57772781D01*
X79954706Y-58143267D01*
X47998000Y-58143267D01*
X47998000Y-55872000D01*
X56134000Y-55872000D01*
X56328528Y-55832607D01*
X56492404Y-55720635D01*
X56599805Y-55553729D01*
X56634000Y-55372000D01*
X56634000Y-52901536D01*
X92188008Y-52901536D01*
X92485310Y-55273105D01*
X92820896Y-56083281D01*
X93498192Y-56725594D01*
X96883786Y-53340000D01*
X99712214Y-53340000D01*
X103097808Y-56725594D01*
X103775104Y-56083281D01*
X104407992Y-53778464D01*
X104110690Y-51406895D01*
X103775104Y-50596719D01*
X103097808Y-49954406D01*
X99712214Y-53340000D01*
X96883786Y-53340000D01*
X93498192Y-49954406D01*
X92820896Y-50596719D01*
X92188008Y-52901536D01*
X56634000Y-52901536D01*
X56634000Y-52613386D01*
X59212000Y-52613386D01*
X59767867Y-52508793D01*
X60278396Y-52180276D01*
X60620892Y-51679017D01*
X60741386Y-51084000D01*
X60741386Y-50772434D01*
X71066368Y-50772434D01*
X71440652Y-51332644D01*
X72163561Y-51869665D01*
X72502000Y-51746613D01*
X72502000Y-50434000D01*
X73802000Y-50434000D01*
X73802000Y-51746613D01*
X74140439Y-51869665D01*
X74863348Y-51332644D01*
X75237632Y-50772434D01*
X75102548Y-50434000D01*
X73802000Y-50434000D01*
X72502000Y-50434000D01*
X71201452Y-50434000D01*
X71066368Y-50772434D01*
X60741386Y-50772434D01*
X60741386Y-48795566D01*
X71066368Y-48795566D01*
X71201452Y-49134000D01*
X72502000Y-49134000D01*
X72502000Y-47821387D01*
X73802000Y-47821387D01*
X73802000Y-49134000D01*
X75102548Y-49134000D01*
X75237632Y-48795566D01*
X74863348Y-48235356D01*
X74140439Y-47698335D01*
X73802000Y-47821387D01*
X72502000Y-47821387D01*
X72163561Y-47698335D01*
X71440652Y-48235356D01*
X71066368Y-48795566D01*
X60741386Y-48795566D01*
X60741386Y-48484000D01*
X60636793Y-47928133D01*
X60308276Y-47417604D01*
X60128839Y-47295000D01*
X98218025Y-47295000D01*
X96364895Y-47527310D01*
X96364895Y-47527310D01*
G37*
X96364895Y-47527310D02*
X95554719Y-47862896D01*
X94912406Y-48540192D01*
X98298000Y-51925786D01*
X101683594Y-48540192D01*
X101041281Y-47862896D01*
X98973148Y-47295000D01*
X107450000Y-47295000D01*
X107450000Y-52189365D01*
X103081706Y-59712537D01*
X93446393Y-60206656D01*
X93254137Y-60255960D01*
X93096211Y-60376178D01*
X92997499Y-60548366D01*
X92972083Y-60696911D01*
X92470945Y-88259513D01*
X86779386Y-89769518D01*
X86779386Y-88750000D01*
X86674793Y-88194133D01*
X86346276Y-87683604D01*
X85845017Y-87341108D01*
X85250000Y-87220614D01*
X84472568Y-87220614D01*
X85125846Y-87090669D01*
X86018011Y-86494544D01*
X86614136Y-85602379D01*
X86823467Y-84550000D01*
X86614136Y-83497621D01*
X86018011Y-82605456D01*
X85125846Y-82009331D01*
X84073467Y-81800000D01*
X81926533Y-81800000D01*
X80874154Y-82009331D01*
X79981989Y-82605456D01*
X79385864Y-83497621D01*
X79276410Y-84047881D01*
X78343419Y-83660470D01*
X77269293Y-83659532D01*
X76276571Y-84069717D01*
X75516386Y-84828576D01*
X75104470Y-85820581D01*
X75103532Y-86894707D01*
X75513717Y-87887429D01*
X76272576Y-88647614D01*
X76463368Y-88726837D01*
X75914585Y-89093522D01*
X75350976Y-89937023D01*
X75153063Y-90932000D01*
X75255702Y-91448000D01*
X67733386Y-91448000D01*
X67733386Y-89832000D01*
X67628793Y-89276133D01*
X67604000Y-89237604D01*
X67604000Y-87464141D01*
X67651371Y-87393245D01*
X67702341Y-87137001D01*
X67921699Y-86808709D01*
X68112000Y-85852000D01*
X68112000Y-80056733D01*
X79954706Y-80056733D01*
X80173240Y-80427219D01*
X80820198Y-81025261D01*
X81646771Y-81330200D01*
X82000000Y-81106000D01*
X82000000Y-79725000D01*
X84000000Y-79725000D01*
X84000000Y-81106000D01*
X84353229Y-81330200D01*
X85179802Y-81025261D01*
X85826760Y-80427219D01*
X86045294Y-80056733D01*
X85906151Y-79725000D01*
X84000000Y-79725000D01*
X82000000Y-79725000D01*
X80093849Y-79725000D01*
X79954706Y-80056733D01*
X68112000Y-80056733D01*
X68112000Y-78143267D01*
X79954706Y-78143267D01*
X80093849Y-78475000D01*
X82000000Y-78475000D01*
X82000000Y-77094000D01*
X84000000Y-77094000D01*
X84000000Y-78475000D01*
X85906151Y-78475000D01*
X86045294Y-78143267D01*
X85826760Y-77772781D01*
X85179802Y-77174739D01*
X84353229Y-76869800D01*
X84000000Y-77094000D01*
X82000000Y-77094000D01*
X81646771Y-76869800D01*
X80820198Y-77174739D01*
X80173240Y-77772781D01*
X79954706Y-78143267D01*
X68112000Y-78143267D01*
X68112000Y-76130031D01*
X68120892Y-76117017D01*
X68241386Y-75522000D01*
X68241386Y-73322000D01*
X68136793Y-72766133D01*
X68112000Y-72727604D01*
X68112000Y-70954141D01*
X68159371Y-70883245D01*
X68258536Y-70384707D01*
X75611532Y-70384707D01*
X76021717Y-71377429D01*
X76780576Y-72137614D01*
X76971368Y-72216837D01*
X76422585Y-72583522D01*
X75858976Y-73427023D01*
X75661063Y-74422000D01*
X75858976Y-75416977D01*
X76422585Y-76260478D01*
X77266086Y-76824087D01*
X78261063Y-77022000D01*
X78362937Y-77022000D01*
X79357914Y-76824087D01*
X80201415Y-76260478D01*
X80765024Y-75416977D01*
X80962937Y-74422000D01*
X80765024Y-73427023D01*
X80266922Y-72681560D01*
X80750000Y-72779386D01*
X85250000Y-72779386D01*
X85805867Y-72674793D01*
X86316396Y-72346276D01*
X86658892Y-71845017D01*
X86779386Y-71250000D01*
X86779386Y-68750000D01*
X86674793Y-68194133D01*
X86346276Y-67683604D01*
X85845017Y-67341108D01*
X85250000Y-67220614D01*
X84472568Y-67220614D01*
X85125846Y-67090669D01*
X86018011Y-66494544D01*
X86614136Y-65602379D01*
X86823467Y-64550000D01*
X86614136Y-63497621D01*
X86018011Y-62605456D01*
X85125846Y-62009331D01*
X84073467Y-61800000D01*
X81926533Y-61800000D01*
X80874154Y-62009331D01*
X79981989Y-62605456D01*
X79385864Y-63497621D01*
X79176533Y-64550000D01*
X79385864Y-65602379D01*
X79981989Y-66494544D01*
X80874154Y-67090669D01*
X81527432Y-67220614D01*
X80750000Y-67220614D01*
X80194133Y-67325207D01*
X79832558Y-67557874D01*
X78851419Y-67150470D01*
X77777293Y-67149532D01*
X76784571Y-67559717D01*
X76024386Y-68318576D01*
X75612470Y-69310581D01*
X75611532Y-70384707D01*
X68258536Y-70384707D01*
X68364896Y-69850000D01*
X68159371Y-68816755D01*
X67574084Y-67940812D01*
X66698141Y-67355525D01*
X65664896Y-67150000D01*
X65559104Y-67150000D01*
X64525859Y-67355525D01*
X63649916Y-67940812D01*
X63064629Y-68816755D01*
X62859104Y-69850000D01*
X63064629Y-70883245D01*
X63112000Y-70954141D01*
X63112000Y-72713969D01*
X63103108Y-72726983D01*
X62982614Y-73322000D01*
X62982614Y-74208000D01*
X57169534Y-74208000D01*
X55461386Y-72499852D01*
X55461386Y-71036000D01*
X55356793Y-70480133D01*
X55028276Y-69969604D01*
X54527017Y-69627108D01*
X53932000Y-69506614D01*
X51732000Y-69506614D01*
X51176133Y-69611207D01*
X50665604Y-69939724D01*
X50323108Y-70440983D01*
X50202614Y-71036000D01*
X50202614Y-73236000D01*
X50238104Y-73424614D01*
X49554000Y-73424614D01*
X48998133Y-73529207D01*
X48487604Y-73857724D01*
X48145108Y-74358983D01*
X48024614Y-74954000D01*
X48024614Y-77954000D01*
X48129207Y-78509867D01*
X48457724Y-79020396D01*
X48958983Y-79362892D01*
X49554000Y-79483386D01*
X50064046Y-79483386D01*
X51054000Y-80473340D01*
X52043954Y-79483386D01*
X52554000Y-79483386D01*
X53109867Y-79378793D01*
X53375286Y-79208000D01*
X63112000Y-79208000D01*
X63112000Y-84495584D01*
X62556629Y-85326755D01*
X62351104Y-86360000D01*
X62556629Y-87393245D01*
X62604000Y-87464141D01*
X62604000Y-89223969D01*
X62595108Y-89236983D01*
X62474614Y-89832000D01*
X62474614Y-91448000D01*
X60761893Y-91448000D01*
X59566762Y-90250781D01*
X57178602Y-89259130D01*
X54592742Y-89256874D01*
X52202856Y-90244355D01*
X50997108Y-91448000D01*
X47998000Y-91448000D01*
X47998000Y-83605620D01*
X50043040Y-83605620D01*
X50223818Y-83952623D01*
X51212579Y-84086214D01*
X51884182Y-83952623D01*
X52064960Y-83605620D01*
X51054000Y-82594660D01*
X50043040Y-83605620D01*
X47998000Y-83605620D01*
X47998000Y-81692579D01*
X48501786Y-81692579D01*
X48635377Y-82364182D01*
X48982380Y-82544960D01*
X49993340Y-81534000D01*
X52114660Y-81534000D01*
X53125620Y-82544960D01*
X53472623Y-82364182D01*
X53606214Y-81375421D01*
X53472623Y-80703818D01*
X53125620Y-80523040D01*
X52114660Y-81534000D01*
X49993340Y-81534000D01*
X48982380Y-80523040D01*
X48635377Y-80703818D01*
X48501786Y-81692579D01*
X47998000Y-81692579D01*
X47998000Y-62837575D01*
X50908078Y-62837575D01*
X51384238Y-63508245D01*
X51970430Y-63899892D01*
X52282000Y-63748635D01*
X52282000Y-62526000D01*
X53382000Y-62526000D01*
X53382000Y-63748635D01*
X53693570Y-63899892D01*
X54279762Y-63508245D01*
X54755922Y-62837575D01*
X54615015Y-62526000D01*
X53382000Y-62526000D01*
X52282000Y-62526000D01*
X51048985Y-62526000D01*
X50908078Y-62837575D01*
X47998000Y-62837575D01*
X47998000Y-61114425D01*
X50908078Y-61114425D01*
X51048985Y-61426000D01*
X52282000Y-61426000D01*
X52282000Y-60203365D01*
X53382000Y-60203365D01*
X53382000Y-61426000D01*
X54615015Y-61426000D01*
X54755922Y-61114425D01*
X54279762Y-60443755D01*
X53700493Y-60056733D01*
X79954706Y-60056733D01*
X80173240Y-60427219D01*
X80820198Y-61025261D01*
X81646771Y-61330200D01*
X82000000Y-61106000D01*
X82000000Y-59725000D01*
X84000000Y-59725000D01*
X84000000Y-61106000D01*
X84353229Y-61330200D01*
X85179802Y-61025261D01*
X85826760Y-60427219D01*
X86045294Y-60056733D01*
X85906151Y-59725000D01*
X84000000Y-59725000D01*
X82000000Y-59725000D01*
X80093849Y-59725000D01*
X79954706Y-60056733D01*
X53700493Y-60056733D01*
X53693570Y-60052108D01*
X53382000Y-60203365D01*
X52282000Y-60203365D01*
X51970430Y-60052108D01*
X51384238Y-60443755D01*
X50908078Y-61114425D01*
X47998000Y-61114425D01*
X47998000Y-58143267D01*
X79954706Y-58143267D01*
X80093849Y-58475000D01*
X82000000Y-58475000D01*
X82000000Y-57094000D01*
X84000000Y-57094000D01*
X84000000Y-58475000D01*
X85906151Y-58475000D01*
X86045294Y-58143267D01*
X86043254Y-58139808D01*
X94912406Y-58139808D01*
X95554719Y-58817104D01*
X97859536Y-59449992D01*
X100231105Y-59152690D01*
X101041281Y-58817104D01*
X101683594Y-58139808D01*
X98298000Y-54754214D01*
X94912406Y-58139808D01*
X86043254Y-58139808D01*
X85826760Y-57772781D01*
X85179802Y-57174739D01*
X84353229Y-56869800D01*
X84000000Y-57094000D01*
X82000000Y-57094000D01*
X81646771Y-56869800D01*
X80820198Y-57174739D01*
X80173240Y-57772781D01*
X79954706Y-58143267D01*
X47998000Y-58143267D01*
X47998000Y-55872000D01*
X56134000Y-55872000D01*
X56328528Y-55832607D01*
X56492404Y-55720635D01*
X56599805Y-55553729D01*
X56634000Y-55372000D01*
X56634000Y-52901536D01*
X92188008Y-52901536D01*
X92485310Y-55273105D01*
X92820896Y-56083281D01*
X93498192Y-56725594D01*
X96883786Y-53340000D01*
X99712214Y-53340000D01*
X103097808Y-56725594D01*
X103775104Y-56083281D01*
X104407992Y-53778464D01*
X104110690Y-51406895D01*
X103775104Y-50596719D01*
X103097808Y-49954406D01*
X99712214Y-53340000D01*
X96883786Y-53340000D01*
X93498192Y-49954406D01*
X92820896Y-50596719D01*
X92188008Y-52901536D01*
X56634000Y-52901536D01*
X56634000Y-52613386D01*
X59212000Y-52613386D01*
X59767867Y-52508793D01*
X60278396Y-52180276D01*
X60620892Y-51679017D01*
X60741386Y-51084000D01*
X60741386Y-50772434D01*
X71066368Y-50772434D01*
X71440652Y-51332644D01*
X72163561Y-51869665D01*
X72502000Y-51746613D01*
X72502000Y-50434000D01*
X73802000Y-50434000D01*
X73802000Y-51746613D01*
X74140439Y-51869665D01*
X74863348Y-51332644D01*
X75237632Y-50772434D01*
X75102548Y-50434000D01*
X73802000Y-50434000D01*
X72502000Y-50434000D01*
X71201452Y-50434000D01*
X71066368Y-50772434D01*
X60741386Y-50772434D01*
X60741386Y-48795566D01*
X71066368Y-48795566D01*
X71201452Y-49134000D01*
X72502000Y-49134000D01*
X72502000Y-47821387D01*
X73802000Y-47821387D01*
X73802000Y-49134000D01*
X75102548Y-49134000D01*
X75237632Y-48795566D01*
X74863348Y-48235356D01*
X74140439Y-47698335D01*
X73802000Y-47821387D01*
X72502000Y-47821387D01*
X72163561Y-47698335D01*
X71440652Y-48235356D01*
X71066368Y-48795566D01*
X60741386Y-48795566D01*
X60741386Y-48484000D01*
X60636793Y-47928133D01*
X60308276Y-47417604D01*
X60128839Y-47295000D01*
X98218025Y-47295000D01*
X96364895Y-47527310D01*
G36*
X91956000Y-128270000D02*
X91995393Y-128464528D01*
X92107365Y-128628404D01*
X92274271Y-128735805D01*
X92456000Y-128770000D01*
X95797075Y-128770000D01*
X97928410Y-131017589D01*
X96196464Y-130542008D01*
X93824895Y-130839310D01*
X93014719Y-131174896D01*
X92372406Y-131852192D01*
X95758000Y-135237786D01*
X95772142Y-135223644D01*
X97186356Y-136637858D01*
X97172214Y-136652000D01*
X100557808Y-140037594D01*
X101235104Y-139395281D01*
X101867992Y-137090464D01*
X101590863Y-134879812D01*
X108824229Y-142507725D01*
X96875981Y-142566875D01*
X97691105Y-142464690D01*
X98501281Y-142129104D01*
X99143594Y-141451808D01*
X95758000Y-138066214D01*
X92372406Y-141451808D01*
X93014719Y-142129104D01*
X94649116Y-142577899D01*
X70590657Y-142697000D01*
X59160514Y-142697000D01*
X59125140Y-141246681D01*
X59325724Y-141558396D01*
X59826983Y-141900892D01*
X60422000Y-142021386D01*
X63022000Y-142021386D01*
X63577867Y-141916793D01*
X64088396Y-141588276D01*
X64430892Y-141087017D01*
X64551386Y-140492000D01*
X64551386Y-140180434D01*
X74876368Y-140180434D01*
X75250652Y-140740644D01*
X75973561Y-141277665D01*
X76312000Y-141154613D01*
X76312000Y-139842000D01*
X77612000Y-139842000D01*
X77612000Y-141154613D01*
X77950439Y-141277665D01*
X78673348Y-140740644D01*
X79047632Y-140180434D01*
X78912548Y-139842000D01*
X77612000Y-139842000D01*
X76312000Y-139842000D01*
X75011452Y-139842000D01*
X74876368Y-140180434D01*
X64551386Y-140180434D01*
X64551386Y-138203566D01*
X74876368Y-138203566D01*
X75011452Y-138542000D01*
X76312000Y-138542000D01*
X76312000Y-137229387D01*
X77612000Y-137229387D01*
X77612000Y-138542000D01*
X78912548Y-138542000D01*
X79047632Y-138203566D01*
X78673348Y-137643356D01*
X77950439Y-137106335D01*
X77612000Y-137229387D01*
X76312000Y-137229387D01*
X75973561Y-137106335D01*
X75250652Y-137643356D01*
X74876368Y-138203566D01*
X64551386Y-138203566D01*
X64551386Y-137892000D01*
X64446793Y-137336133D01*
X64118276Y-136825604D01*
X63617017Y-136483108D01*
X63022000Y-136362614D01*
X60422000Y-136362614D01*
X59866133Y-136467207D01*
X59355604Y-136795724D01*
X59028265Y-137274800D01*
X59002381Y-136213536D01*
X89648008Y-136213536D01*
X89945310Y-138585105D01*
X90280896Y-139395281D01*
X90958192Y-140037594D01*
X94343786Y-136652000D01*
X90958192Y-133266406D01*
X90280896Y-133908719D01*
X89648008Y-136213536D01*
X59002381Y-136213536D01*
X58919851Y-132829809D01*
X58875727Y-132636299D01*
X58759793Y-132475202D01*
X58590317Y-132371902D01*
X58420000Y-132342000D01*
X47998000Y-132342000D01*
X47998000Y-131611620D01*
X50043040Y-131611620D01*
X50223818Y-131958623D01*
X51212579Y-132092214D01*
X51884182Y-131958623D01*
X52064960Y-131611620D01*
X51054000Y-130600660D01*
X50043040Y-131611620D01*
X47998000Y-131611620D01*
X47998000Y-129698579D01*
X48501786Y-129698579D01*
X48635377Y-130370182D01*
X48982380Y-130550960D01*
X49993340Y-129540000D01*
X52114660Y-129540000D01*
X53125620Y-130550960D01*
X53472623Y-130370182D01*
X53606214Y-129381421D01*
X53472623Y-128709818D01*
X53125620Y-128529040D01*
X52114660Y-129540000D01*
X49993340Y-129540000D01*
X48982380Y-128529040D01*
X48635377Y-128709818D01*
X48501786Y-129698579D01*
X47998000Y-129698579D01*
X47998000Y-124939534D01*
X48024614Y-124966148D01*
X48024614Y-125960000D01*
X48129207Y-126515867D01*
X48457724Y-127026396D01*
X48958983Y-127368892D01*
X49554000Y-127489386D01*
X50064046Y-127489386D01*
X51054000Y-128479340D01*
X52043954Y-127489386D01*
X52554000Y-127489386D01*
X53109867Y-127384793D01*
X53620396Y-127056276D01*
X53962892Y-126555017D01*
X53983753Y-126452000D01*
X62858000Y-126452000D01*
X62858000Y-127927859D01*
X62810629Y-127998755D01*
X62605104Y-129032000D01*
X62810629Y-130065245D01*
X62858000Y-130136141D01*
X62858000Y-131641969D01*
X62849108Y-131654983D01*
X62728614Y-132250000D01*
X62728614Y-134450000D01*
X62833207Y-135005867D01*
X63161724Y-135516396D01*
X63662983Y-135858892D01*
X64258000Y-135979386D01*
X66458000Y-135979386D01*
X67013867Y-135874793D01*
X67524396Y-135546276D01*
X67866892Y-135045017D01*
X67987386Y-134450000D01*
X67987386Y-132250000D01*
X67882793Y-131694133D01*
X67858000Y-131655604D01*
X67858000Y-130136141D01*
X67905371Y-130065245D01*
X68004536Y-129566707D01*
X75357532Y-129566707D01*
X75767717Y-130559429D01*
X76498255Y-131291244D01*
X76168585Y-131511522D01*
X75604976Y-132355023D01*
X75407063Y-133350000D01*
X75604976Y-134344977D01*
X76168585Y-135188478D01*
X77012086Y-135752087D01*
X78007063Y-135950000D01*
X78108937Y-135950000D01*
X79103914Y-135752087D01*
X79947415Y-135188478D01*
X80511024Y-134344977D01*
X80708937Y-133350000D01*
X80588948Y-132746772D01*
X80750000Y-132779386D01*
X85250000Y-132779386D01*
X85805867Y-132674793D01*
X86316396Y-132346276D01*
X86658892Y-131845017D01*
X86779386Y-131250000D01*
X86779386Y-128750000D01*
X86674793Y-128194133D01*
X86346276Y-127683604D01*
X85845017Y-127341108D01*
X85250000Y-127220614D01*
X84472568Y-127220614D01*
X85125846Y-127090669D01*
X86018011Y-126494544D01*
X86614136Y-125602379D01*
X86823467Y-124550000D01*
X86614136Y-123497621D01*
X86018011Y-122605456D01*
X85125846Y-122009331D01*
X84073467Y-121800000D01*
X81926533Y-121800000D01*
X80874154Y-122009331D01*
X79981989Y-122605456D01*
X79385864Y-123497621D01*
X79176533Y-124550000D01*
X79385864Y-125602379D01*
X79981989Y-126494544D01*
X80874154Y-127090669D01*
X81527432Y-127220614D01*
X80750000Y-127220614D01*
X80194133Y-127325207D01*
X80178971Y-127334963D01*
X79589424Y-126744386D01*
X78597419Y-126332470D01*
X77523293Y-126331532D01*
X76530571Y-126741717D01*
X75770386Y-127500576D01*
X75358470Y-128492581D01*
X75357532Y-129566707D01*
X68004536Y-129566707D01*
X68110896Y-129032000D01*
X67905371Y-127998755D01*
X67858000Y-127927859D01*
X67858000Y-120056733D01*
X79954706Y-120056733D01*
X80173240Y-120427219D01*
X80820198Y-121025261D01*
X81646771Y-121330200D01*
X82000000Y-121106000D01*
X82000000Y-119725000D01*
X84000000Y-119725000D01*
X84000000Y-121106000D01*
X84353229Y-121330200D01*
X85179802Y-121025261D01*
X85826760Y-120427219D01*
X86045294Y-120056733D01*
X85906151Y-119725000D01*
X84000000Y-119725000D01*
X82000000Y-119725000D01*
X80093849Y-119725000D01*
X79954706Y-120056733D01*
X67858000Y-120056733D01*
X67858000Y-118143267D01*
X79954706Y-118143267D01*
X80093849Y-118475000D01*
X82000000Y-118475000D01*
X82000000Y-117094000D01*
X84000000Y-117094000D01*
X84000000Y-118475000D01*
X85906151Y-118475000D01*
X86045294Y-118143267D01*
X85826760Y-117772781D01*
X85179802Y-117174739D01*
X84353229Y-116869800D01*
X84000000Y-117094000D01*
X82000000Y-117094000D01*
X81646771Y-116869800D01*
X80820198Y-117174739D01*
X80173240Y-117772781D01*
X79954706Y-118143267D01*
X67858000Y-118143267D01*
X67858000Y-116516031D01*
X67866892Y-116503017D01*
X67987386Y-115908000D01*
X67987386Y-113708000D01*
X67882793Y-113152133D01*
X67858000Y-113113604D01*
X67858000Y-111594141D01*
X67905371Y-111523245D01*
X68004536Y-111024707D01*
X75357532Y-111024707D01*
X75767717Y-112017429D01*
X76498255Y-112749244D01*
X76168585Y-112969522D01*
X75604976Y-113813023D01*
X75407063Y-114808000D01*
X75604976Y-115802977D01*
X76168585Y-116646478D01*
X77012086Y-117210087D01*
X78007063Y-117408000D01*
X78108937Y-117408000D01*
X79103914Y-117210087D01*
X79947415Y-116646478D01*
X80511024Y-115802977D01*
X80708937Y-114808000D01*
X80511024Y-113813023D01*
X79947415Y-112969522D01*
X79617013Y-112748754D01*
X79889052Y-112477189D01*
X80154983Y-112658892D01*
X80750000Y-112779386D01*
X85250000Y-112779386D01*
X85805867Y-112674793D01*
X86316396Y-112346276D01*
X86658892Y-111845017D01*
X86779386Y-111250000D01*
X86779386Y-108750000D01*
X86674793Y-108194133D01*
X86346276Y-107683604D01*
X85845017Y-107341108D01*
X85250000Y-107220614D01*
X84472568Y-107220614D01*
X85125846Y-107090669D01*
X86018011Y-106494544D01*
X86614136Y-105602379D01*
X86823467Y-104550000D01*
X86614136Y-103497621D01*
X86018011Y-102605456D01*
X85125846Y-102009331D01*
X84073467Y-101800000D01*
X81926533Y-101800000D01*
X80874154Y-102009331D01*
X79981989Y-102605456D01*
X79385864Y-103497621D01*
X79176533Y-104550000D01*
X79385864Y-105602379D01*
X79981989Y-106494544D01*
X80874154Y-107090669D01*
X81527432Y-107220614D01*
X80750000Y-107220614D01*
X80194133Y-107325207D01*
X79683604Y-107653724D01*
X79370758Y-108111588D01*
X78597419Y-107790470D01*
X77523293Y-107789532D01*
X76530571Y-108199717D01*
X75770386Y-108958576D01*
X75358470Y-109950581D01*
X75357532Y-111024707D01*
X68004536Y-111024707D01*
X68110896Y-110490000D01*
X67905371Y-109456755D01*
X67320084Y-108580812D01*
X66444141Y-107995525D01*
X65410896Y-107790000D01*
X65305104Y-107790000D01*
X64271859Y-107995525D01*
X63395916Y-108580812D01*
X62810629Y-109456755D01*
X62605104Y-110490000D01*
X62810629Y-111523245D01*
X62858000Y-111594141D01*
X62858000Y-113099969D01*
X62849108Y-113112983D01*
X62728614Y-113708000D01*
X62728614Y-115908000D01*
X62833207Y-116463867D01*
X62858000Y-116502396D01*
X62858000Y-121452000D01*
X52659607Y-121452000D01*
X52554000Y-121430614D01*
X52069754Y-121430614D01*
X52159386Y-120988000D01*
X52159386Y-118788000D01*
X52054793Y-118232133D01*
X51726276Y-117721604D01*
X51225017Y-117379108D01*
X50630000Y-117258614D01*
X48430000Y-117258614D01*
X47998000Y-117339900D01*
X47998000Y-111141596D01*
X48082238Y-111260245D01*
X48668430Y-111651892D01*
X48980000Y-111500635D01*
X48980000Y-110278000D01*
X50080000Y-110278000D01*
X50080000Y-111500635D01*
X50391570Y-111651892D01*
X50977762Y-111260245D01*
X51453922Y-110589575D01*
X51313015Y-110278000D01*
X50080000Y-110278000D01*
X48980000Y-110278000D01*
X48510000Y-110278000D01*
X48510000Y-109178000D01*
X48980000Y-109178000D01*
X48980000Y-107955365D01*
X50080000Y-107955365D01*
X50080000Y-109178000D01*
X51313015Y-109178000D01*
X51453922Y-108866425D01*
X50977762Y-108195755D01*
X50391570Y-107804108D01*
X50080000Y-107955365D01*
X48980000Y-107955365D01*
X48668430Y-107804108D01*
X48082238Y-108195755D01*
X47998000Y-108314404D01*
X47998000Y-96763183D01*
X49379127Y-96755380D01*
X49378874Y-97045258D01*
X50366355Y-99435144D01*
X52193238Y-101265219D01*
X54581398Y-102256870D01*
X57167258Y-102259126D01*
X59557144Y-101271645D01*
X60774178Y-100056733D01*
X79954706Y-100056733D01*
X80173240Y-100427219D01*
X80820198Y-101025261D01*
X81646771Y-101330200D01*
X82000000Y-101106000D01*
X82000000Y-99725000D01*
X84000000Y-99725000D01*
X84000000Y-101106000D01*
X84353229Y-101330200D01*
X85179802Y-101025261D01*
X85826760Y-100427219D01*
X86045294Y-100056733D01*
X85906151Y-99725000D01*
X84000000Y-99725000D01*
X82000000Y-99725000D01*
X80093849Y-99725000D01*
X79954706Y-100056733D01*
X60774178Y-100056733D01*
X61387219Y-99444762D01*
X61927647Y-98143267D01*
X79954706Y-98143267D01*
X80093849Y-98475000D01*
X82000000Y-98475000D01*
X82000000Y-97094000D01*
X84000000Y-97094000D01*
X84000000Y-98475000D01*
X85906151Y-98475000D01*
X86045294Y-98143267D01*
X85826760Y-97772781D01*
X85179802Y-97174739D01*
X84353229Y-96869800D01*
X84000000Y-97094000D01*
X82000000Y-97094000D01*
X81646771Y-96869800D01*
X80820198Y-97174739D01*
X80173240Y-97772781D01*
X79954706Y-98143267D01*
X61927647Y-98143267D01*
X62378870Y-97056602D01*
X62379197Y-96681933D01*
X91956000Y-96514833D01*
X91956000Y-128270000D01*
X91956000Y-128270000D01*
G37*
X91956000Y-128270000D02*
X91995393Y-128464528D01*
X92107365Y-128628404D01*
X92274271Y-128735805D01*
X92456000Y-128770000D01*
X95797075Y-128770000D01*
X97928410Y-131017589D01*
X96196464Y-130542008D01*
X93824895Y-130839310D01*
X93014719Y-131174896D01*
X92372406Y-131852192D01*
X95758000Y-135237786D01*
X95772142Y-135223644D01*
X97186356Y-136637858D01*
X97172214Y-136652000D01*
X100557808Y-140037594D01*
X101235104Y-139395281D01*
X101867992Y-137090464D01*
X101590863Y-134879812D01*
X108824229Y-142507725D01*
X96875981Y-142566875D01*
X97691105Y-142464690D01*
X98501281Y-142129104D01*
X99143594Y-141451808D01*
X95758000Y-138066214D01*
X92372406Y-141451808D01*
X93014719Y-142129104D01*
X94649116Y-142577899D01*
X70590657Y-142697000D01*
X59160514Y-142697000D01*
X59125140Y-141246681D01*
X59325724Y-141558396D01*
X59826983Y-141900892D01*
X60422000Y-142021386D01*
X63022000Y-142021386D01*
X63577867Y-141916793D01*
X64088396Y-141588276D01*
X64430892Y-141087017D01*
X64551386Y-140492000D01*
X64551386Y-140180434D01*
X74876368Y-140180434D01*
X75250652Y-140740644D01*
X75973561Y-141277665D01*
X76312000Y-141154613D01*
X76312000Y-139842000D01*
X77612000Y-139842000D01*
X77612000Y-141154613D01*
X77950439Y-141277665D01*
X78673348Y-140740644D01*
X79047632Y-140180434D01*
X78912548Y-139842000D01*
X77612000Y-139842000D01*
X76312000Y-139842000D01*
X75011452Y-139842000D01*
X74876368Y-140180434D01*
X64551386Y-140180434D01*
X64551386Y-138203566D01*
X74876368Y-138203566D01*
X75011452Y-138542000D01*
X76312000Y-138542000D01*
X76312000Y-137229387D01*
X77612000Y-137229387D01*
X77612000Y-138542000D01*
X78912548Y-138542000D01*
X79047632Y-138203566D01*
X78673348Y-137643356D01*
X77950439Y-137106335D01*
X77612000Y-137229387D01*
X76312000Y-137229387D01*
X75973561Y-137106335D01*
X75250652Y-137643356D01*
X74876368Y-138203566D01*
X64551386Y-138203566D01*
X64551386Y-137892000D01*
X64446793Y-137336133D01*
X64118276Y-136825604D01*
X63617017Y-136483108D01*
X63022000Y-136362614D01*
X60422000Y-136362614D01*
X59866133Y-136467207D01*
X59355604Y-136795724D01*
X59028265Y-137274800D01*
X59002381Y-136213536D01*
X89648008Y-136213536D01*
X89945310Y-138585105D01*
X90280896Y-139395281D01*
X90958192Y-140037594D01*
X94343786Y-136652000D01*
X90958192Y-133266406D01*
X90280896Y-133908719D01*
X89648008Y-136213536D01*
X59002381Y-136213536D01*
X58919851Y-132829809D01*
X58875727Y-132636299D01*
X58759793Y-132475202D01*
X58590317Y-132371902D01*
X58420000Y-132342000D01*
X47998000Y-132342000D01*
X47998000Y-131611620D01*
X50043040Y-131611620D01*
X50223818Y-131958623D01*
X51212579Y-132092214D01*
X51884182Y-131958623D01*
X52064960Y-131611620D01*
X51054000Y-130600660D01*
X50043040Y-131611620D01*
X47998000Y-131611620D01*
X47998000Y-129698579D01*
X48501786Y-129698579D01*
X48635377Y-130370182D01*
X48982380Y-130550960D01*
X49993340Y-129540000D01*
X52114660Y-129540000D01*
X53125620Y-130550960D01*
X53472623Y-130370182D01*
X53606214Y-129381421D01*
X53472623Y-128709818D01*
X53125620Y-128529040D01*
X52114660Y-129540000D01*
X49993340Y-129540000D01*
X48982380Y-128529040D01*
X48635377Y-128709818D01*
X48501786Y-129698579D01*
X47998000Y-129698579D01*
X47998000Y-124939534D01*
X48024614Y-124966148D01*
X48024614Y-125960000D01*
X48129207Y-126515867D01*
X48457724Y-127026396D01*
X48958983Y-127368892D01*
X49554000Y-127489386D01*
X50064046Y-127489386D01*
X51054000Y-128479340D01*
X52043954Y-127489386D01*
X52554000Y-127489386D01*
X53109867Y-127384793D01*
X53620396Y-127056276D01*
X53962892Y-126555017D01*
X53983753Y-126452000D01*
X62858000Y-126452000D01*
X62858000Y-127927859D01*
X62810629Y-127998755D01*
X62605104Y-129032000D01*
X62810629Y-130065245D01*
X62858000Y-130136141D01*
X62858000Y-131641969D01*
X62849108Y-131654983D01*
X62728614Y-132250000D01*
X62728614Y-134450000D01*
X62833207Y-135005867D01*
X63161724Y-135516396D01*
X63662983Y-135858892D01*
X64258000Y-135979386D01*
X66458000Y-135979386D01*
X67013867Y-135874793D01*
X67524396Y-135546276D01*
X67866892Y-135045017D01*
X67987386Y-134450000D01*
X67987386Y-132250000D01*
X67882793Y-131694133D01*
X67858000Y-131655604D01*
X67858000Y-130136141D01*
X67905371Y-130065245D01*
X68004536Y-129566707D01*
X75357532Y-129566707D01*
X75767717Y-130559429D01*
X76498255Y-131291244D01*
X76168585Y-131511522D01*
X75604976Y-132355023D01*
X75407063Y-133350000D01*
X75604976Y-134344977D01*
X76168585Y-135188478D01*
X77012086Y-135752087D01*
X78007063Y-135950000D01*
X78108937Y-135950000D01*
X79103914Y-135752087D01*
X79947415Y-135188478D01*
X80511024Y-134344977D01*
X80708937Y-133350000D01*
X80588948Y-132746772D01*
X80750000Y-132779386D01*
X85250000Y-132779386D01*
X85805867Y-132674793D01*
X86316396Y-132346276D01*
X86658892Y-131845017D01*
X86779386Y-131250000D01*
X86779386Y-128750000D01*
X86674793Y-128194133D01*
X86346276Y-127683604D01*
X85845017Y-127341108D01*
X85250000Y-127220614D01*
X84472568Y-127220614D01*
X85125846Y-127090669D01*
X86018011Y-126494544D01*
X86614136Y-125602379D01*
X86823467Y-124550000D01*
X86614136Y-123497621D01*
X86018011Y-122605456D01*
X85125846Y-122009331D01*
X84073467Y-121800000D01*
X81926533Y-121800000D01*
X80874154Y-122009331D01*
X79981989Y-122605456D01*
X79385864Y-123497621D01*
X79176533Y-124550000D01*
X79385864Y-125602379D01*
X79981989Y-126494544D01*
X80874154Y-127090669D01*
X81527432Y-127220614D01*
X80750000Y-127220614D01*
X80194133Y-127325207D01*
X80178971Y-127334963D01*
X79589424Y-126744386D01*
X78597419Y-126332470D01*
X77523293Y-126331532D01*
X76530571Y-126741717D01*
X75770386Y-127500576D01*
X75358470Y-128492581D01*
X75357532Y-129566707D01*
X68004536Y-129566707D01*
X68110896Y-129032000D01*
X67905371Y-127998755D01*
X67858000Y-127927859D01*
X67858000Y-120056733D01*
X79954706Y-120056733D01*
X80173240Y-120427219D01*
X80820198Y-121025261D01*
X81646771Y-121330200D01*
X82000000Y-121106000D01*
X82000000Y-119725000D01*
X84000000Y-119725000D01*
X84000000Y-121106000D01*
X84353229Y-121330200D01*
X85179802Y-121025261D01*
X85826760Y-120427219D01*
X86045294Y-120056733D01*
X85906151Y-119725000D01*
X84000000Y-119725000D01*
X82000000Y-119725000D01*
X80093849Y-119725000D01*
X79954706Y-120056733D01*
X67858000Y-120056733D01*
X67858000Y-118143267D01*
X79954706Y-118143267D01*
X80093849Y-118475000D01*
X82000000Y-118475000D01*
X82000000Y-117094000D01*
X84000000Y-117094000D01*
X84000000Y-118475000D01*
X85906151Y-118475000D01*
X86045294Y-118143267D01*
X85826760Y-117772781D01*
X85179802Y-117174739D01*
X84353229Y-116869800D01*
X84000000Y-117094000D01*
X82000000Y-117094000D01*
X81646771Y-116869800D01*
X80820198Y-117174739D01*
X80173240Y-117772781D01*
X79954706Y-118143267D01*
X67858000Y-118143267D01*
X67858000Y-116516031D01*
X67866892Y-116503017D01*
X67987386Y-115908000D01*
X67987386Y-113708000D01*
X67882793Y-113152133D01*
X67858000Y-113113604D01*
X67858000Y-111594141D01*
X67905371Y-111523245D01*
X68004536Y-111024707D01*
X75357532Y-111024707D01*
X75767717Y-112017429D01*
X76498255Y-112749244D01*
X76168585Y-112969522D01*
X75604976Y-113813023D01*
X75407063Y-114808000D01*
X75604976Y-115802977D01*
X76168585Y-116646478D01*
X77012086Y-117210087D01*
X78007063Y-117408000D01*
X78108937Y-117408000D01*
X79103914Y-117210087D01*
X79947415Y-116646478D01*
X80511024Y-115802977D01*
X80708937Y-114808000D01*
X80511024Y-113813023D01*
X79947415Y-112969522D01*
X79617013Y-112748754D01*
X79889052Y-112477189D01*
X80154983Y-112658892D01*
X80750000Y-112779386D01*
X85250000Y-112779386D01*
X85805867Y-112674793D01*
X86316396Y-112346276D01*
X86658892Y-111845017D01*
X86779386Y-111250000D01*
X86779386Y-108750000D01*
X86674793Y-108194133D01*
X86346276Y-107683604D01*
X85845017Y-107341108D01*
X85250000Y-107220614D01*
X84472568Y-107220614D01*
X85125846Y-107090669D01*
X86018011Y-106494544D01*
X86614136Y-105602379D01*
X86823467Y-104550000D01*
X86614136Y-103497621D01*
X86018011Y-102605456D01*
X85125846Y-102009331D01*
X84073467Y-101800000D01*
X81926533Y-101800000D01*
X80874154Y-102009331D01*
X79981989Y-102605456D01*
X79385864Y-103497621D01*
X79176533Y-104550000D01*
X79385864Y-105602379D01*
X79981989Y-106494544D01*
X80874154Y-107090669D01*
X81527432Y-107220614D01*
X80750000Y-107220614D01*
X80194133Y-107325207D01*
X79683604Y-107653724D01*
X79370758Y-108111588D01*
X78597419Y-107790470D01*
X77523293Y-107789532D01*
X76530571Y-108199717D01*
X75770386Y-108958576D01*
X75358470Y-109950581D01*
X75357532Y-111024707D01*
X68004536Y-111024707D01*
X68110896Y-110490000D01*
X67905371Y-109456755D01*
X67320084Y-108580812D01*
X66444141Y-107995525D01*
X65410896Y-107790000D01*
X65305104Y-107790000D01*
X64271859Y-107995525D01*
X63395916Y-108580812D01*
X62810629Y-109456755D01*
X62605104Y-110490000D01*
X62810629Y-111523245D01*
X62858000Y-111594141D01*
X62858000Y-113099969D01*
X62849108Y-113112983D01*
X62728614Y-113708000D01*
X62728614Y-115908000D01*
X62833207Y-116463867D01*
X62858000Y-116502396D01*
X62858000Y-121452000D01*
X52659607Y-121452000D01*
X52554000Y-121430614D01*
X52069754Y-121430614D01*
X52159386Y-120988000D01*
X52159386Y-118788000D01*
X52054793Y-118232133D01*
X51726276Y-117721604D01*
X51225017Y-117379108D01*
X50630000Y-117258614D01*
X48430000Y-117258614D01*
X47998000Y-117339900D01*
X47998000Y-111141596D01*
X48082238Y-111260245D01*
X48668430Y-111651892D01*
X48980000Y-111500635D01*
X48980000Y-110278000D01*
X50080000Y-110278000D01*
X50080000Y-111500635D01*
X50391570Y-111651892D01*
X50977762Y-111260245D01*
X51453922Y-110589575D01*
X51313015Y-110278000D01*
X50080000Y-110278000D01*
X48980000Y-110278000D01*
X48510000Y-110278000D01*
X48510000Y-109178000D01*
X48980000Y-109178000D01*
X48980000Y-107955365D01*
X50080000Y-107955365D01*
X50080000Y-109178000D01*
X51313015Y-109178000D01*
X51453922Y-108866425D01*
X50977762Y-108195755D01*
X50391570Y-107804108D01*
X50080000Y-107955365D01*
X48980000Y-107955365D01*
X48668430Y-107804108D01*
X48082238Y-108195755D01*
X47998000Y-108314404D01*
X47998000Y-96763183D01*
X49379127Y-96755380D01*
X49378874Y-97045258D01*
X50366355Y-99435144D01*
X52193238Y-101265219D01*
X54581398Y-102256870D01*
X57167258Y-102259126D01*
X59557144Y-101271645D01*
X60774178Y-100056733D01*
X79954706Y-100056733D01*
X80173240Y-100427219D01*
X80820198Y-101025261D01*
X81646771Y-101330200D01*
X82000000Y-101106000D01*
X82000000Y-99725000D01*
X84000000Y-99725000D01*
X84000000Y-101106000D01*
X84353229Y-101330200D01*
X85179802Y-101025261D01*
X85826760Y-100427219D01*
X86045294Y-100056733D01*
X85906151Y-99725000D01*
X84000000Y-99725000D01*
X82000000Y-99725000D01*
X80093849Y-99725000D01*
X79954706Y-100056733D01*
X60774178Y-100056733D01*
X61387219Y-99444762D01*
X61927647Y-98143267D01*
X79954706Y-98143267D01*
X80093849Y-98475000D01*
X82000000Y-98475000D01*
X82000000Y-97094000D01*
X84000000Y-97094000D01*
X84000000Y-98475000D01*
X85906151Y-98475000D01*
X86045294Y-98143267D01*
X85826760Y-97772781D01*
X85179802Y-97174739D01*
X84353229Y-96869800D01*
X84000000Y-97094000D01*
X82000000Y-97094000D01*
X81646771Y-96869800D01*
X80820198Y-97174739D01*
X80173240Y-97772781D01*
X79954706Y-98143267D01*
X61927647Y-98143267D01*
X62378870Y-97056602D01*
X62379197Y-96681933D01*
X91956000Y-96514833D01*
X91956000Y-128270000D01*
M02*
