G04 #@! TF.FileFunction,Soldermask,Top*
%FSLAX46Y46*%
G04 Gerber Fmt 4.6, Leading zero omitted, Abs format (unit mm)*
G04 Created by KiCad (PCBNEW 4.0.7) date 05/14/18 04:12:04*
%MOMM*%
%LPD*%
G01*
G04 APERTURE LIST*
%ADD10C,0.100000*%
%ADD11C,2.800000*%
%ADD12O,2.800000X2.800000*%
%ADD13R,3.400000X3.400000*%
%ADD14C,3.400000*%
%ADD15R,2.600000X2.600000*%
%ADD16O,2.600000X2.600000*%
%ADD17C,4.464000*%
%ADD18R,4.900000X2.900000*%
%ADD19O,4.900000X2.900000*%
%ADD20C,10.400000*%
%ADD21R,3.000000X3.000000*%
%ADD22O,3.000000X3.000000*%
G04 APERTURE END LIST*
D10*
D11*
X119808000Y-64516000D03*
D12*
X132508000Y-64516000D03*
D13*
X138684000Y-115570000D03*
D14*
X138684000Y-110490000D03*
D15*
X65358000Y-114808000D03*
D16*
X78058000Y-114808000D03*
D17*
X50000000Y-50000000D03*
X50000000Y-140000000D03*
D18*
X115000000Y-65000000D03*
D19*
X115000000Y-70450000D03*
X115000000Y-75900000D03*
D18*
X83000000Y-70000000D03*
D19*
X83000000Y-64550000D03*
X83000000Y-59100000D03*
D20*
X134874000Y-94234000D03*
X55880000Y-95758000D03*
D17*
X140000000Y-50000000D03*
X140000000Y-140000000D03*
D13*
X138176000Y-70358000D03*
D14*
X138176000Y-65278000D03*
D13*
X51054000Y-76454000D03*
D14*
X51054000Y-81534000D03*
D18*
X115000000Y-85000000D03*
D19*
X115000000Y-90450000D03*
X115000000Y-95900000D03*
D18*
X83000000Y-90000000D03*
D19*
X83000000Y-84550000D03*
X83000000Y-79100000D03*
D18*
X115000000Y-105000000D03*
D19*
X115000000Y-110450000D03*
X115000000Y-115900000D03*
D18*
X83000000Y-110000000D03*
D19*
X83000000Y-104550000D03*
X83000000Y-99100000D03*
D18*
X115000000Y-125000000D03*
D19*
X115000000Y-130450000D03*
X115000000Y-135900000D03*
D18*
X83000000Y-130000000D03*
D19*
X83000000Y-124550000D03*
X83000000Y-119100000D03*
D20*
X95758000Y-136652000D03*
D15*
X139192000Y-75946000D03*
D16*
X139192000Y-86106000D03*
D15*
X52832000Y-72136000D03*
D16*
X52832000Y-61976000D03*
D15*
X132762000Y-59944000D03*
D16*
X120062000Y-59944000D03*
D15*
X65612000Y-74422000D03*
D16*
X78312000Y-74422000D03*
D15*
X132508000Y-79756000D03*
D16*
X119808000Y-79756000D03*
D15*
X65104000Y-90932000D03*
D16*
X77804000Y-90932000D03*
D15*
X132000000Y-108458000D03*
D16*
X119300000Y-108458000D03*
D15*
X132254000Y-119888000D03*
D16*
X119554000Y-119888000D03*
D15*
X65358000Y-133350000D03*
D16*
X78058000Y-133350000D03*
D11*
X78312000Y-69850000D03*
D12*
X65612000Y-69850000D03*
D11*
X119808000Y-84836000D03*
D12*
X132508000Y-84836000D03*
D11*
X77804000Y-86360000D03*
D12*
X65104000Y-86360000D03*
D11*
X119554000Y-104140000D03*
D12*
X132254000Y-104140000D03*
D11*
X78058000Y-110490000D03*
D12*
X65358000Y-110490000D03*
D11*
X119554000Y-124206000D03*
D12*
X132254000Y-124206000D03*
D11*
X78058000Y-129032000D03*
D12*
X65358000Y-129032000D03*
D21*
X61722000Y-139192000D03*
D22*
X76962000Y-139192000D03*
D21*
X115824000Y-140716000D03*
D22*
X131064000Y-140716000D03*
D11*
X98806000Y-102616000D03*
X98806000Y-125116000D03*
X98806000Y-88392000D03*
X98806000Y-65892000D03*
D13*
X51054000Y-124460000D03*
D14*
X51054000Y-129540000D03*
D20*
X98298000Y-53340000D03*
D15*
X49530000Y-119888000D03*
D16*
X49530000Y-109728000D03*
D15*
X138684000Y-121412000D03*
D16*
X138684000Y-131572000D03*
D21*
X57912000Y-49784000D03*
D22*
X73152000Y-49784000D03*
D21*
X112268000Y-49276000D03*
D22*
X127508000Y-49276000D03*
M02*
