M48
;DRILL file {KiCad 4.0.7} date 05/14/18 04:12:06
;FORMAT={-:-/ absolute / metric / decimal}
FMAT,2
METRIC,TZ
T1C1.100
T2C1.200
T3C1.300
T4C1.500
T5C1.520
T6C1.800
T7C3.048
T8C5.000
%
G90
G05
M71
T1
X49.53Y-109.728
X49.53Y-119.888
X52.832Y-61.976
X52.832Y-72.136
X65.104Y-90.932
X65.358Y-114.808
X65.358Y-133.35
X65.612Y-74.422
X77.804Y-90.932
X78.058Y-114.808
X78.058Y-133.35
X78.312Y-74.422
X119.3Y-108.458
X119.554Y-119.888
X119.808Y-79.756
X120.062Y-59.944
X132.Y-108.458
X132.254Y-119.888
X132.508Y-79.756
X132.762Y-59.944
X138.684Y-121.412
X138.684Y-131.572
X139.192Y-75.946
X139.192Y-86.106
T2
X65.104Y-86.36
X65.358Y-110.49
X65.358Y-129.032
X65.612Y-69.85
X77.804Y-86.36
X78.058Y-110.49
X78.058Y-129.032
X78.312Y-69.85
X98.806Y-65.892
X98.806Y-88.392
X98.806Y-102.616
X98.806Y-125.116
X119.554Y-104.14
X119.554Y-124.206
X119.808Y-64.516
X119.808Y-84.836
X132.254Y-104.14
X132.254Y-124.206
X132.508Y-64.516
X132.508Y-84.836
T3
X57.912Y-49.784
X61.722Y-139.192
X73.152Y-49.784
X76.962Y-139.192
X112.268Y-49.276
X115.824Y-140.716
X127.508Y-49.276
X131.064Y-140.716
T4
X83.Y-59.1
X83.Y-64.55
X83.Y-70.
X83.Y-79.1
X83.Y-84.55
X83.Y-90.
X83.Y-99.1
X83.Y-104.55
X83.Y-110.
X83.Y-119.1
X83.Y-124.55
X83.Y-130.
X115.Y-65.
X115.Y-70.45
X115.Y-75.9
X115.Y-85.
X115.Y-90.45
X115.Y-95.9
X115.Y-105.
X115.Y-110.45
X115.Y-115.9
X115.Y-125.
X115.Y-130.45
X115.Y-135.9
T5
X51.054Y-76.454
X51.054Y-81.534
X51.054Y-124.46
X51.054Y-129.54
X138.176Y-65.278
X138.176Y-70.358
X138.684Y-110.49
X138.684Y-115.57
T6
X97.79Y-72.39
X98.298Y-79.756
X98.298Y-119.126
X99.06Y-109.982
T7
X50.Y-50.
X50.Y-140.
X140.Y-50.
X140.Y-140.
T8
X55.88Y-95.758
X95.758Y-136.652
X98.298Y-53.34
X134.874Y-94.234
T0
M30
