G04 #@! TF.FileFunction,Legend,Top*
%FSLAX46Y46*%
G04 Gerber Fmt 4.6, Leading zero omitted, Abs format (unit mm)*
G04 Created by KiCad (PCBNEW 4.0.7) date 07/12/19 11:54:22*
%MOMM*%
%LPD*%
G01*
G04 APERTURE LIST*
%ADD10C,0.100000*%
%ADD11C,0.300000*%
%ADD12C,0.120000*%
%ADD13C,0.150000*%
G04 APERTURE END LIST*
D10*
D11*
X129222572Y-89515143D02*
X130365429Y-89515143D01*
X55054572Y-88753143D02*
X56197429Y-88753143D01*
X55626000Y-89324571D02*
X55626000Y-88181714D01*
X61150572Y-88753143D02*
X62293429Y-88753143D01*
X134556572Y-89515143D02*
X135699429Y-89515143D01*
X135128000Y-90086571D02*
X135128000Y-88943714D01*
X98980572Y-82974571D02*
X98123429Y-82974571D01*
X98552001Y-82974571D02*
X98552001Y-81474571D01*
X98409144Y-81688857D01*
X98266286Y-81831714D01*
X98123429Y-81903143D01*
X72818572Y-82466571D02*
X71961429Y-82466571D01*
X72390001Y-82466571D02*
X72390001Y-80966571D01*
X72247144Y-81180857D01*
X72104286Y-81323714D01*
X71961429Y-81395143D01*
X112498286Y-76878571D02*
X112498286Y-75378571D01*
X112498286Y-76092857D02*
X113355429Y-76092857D01*
X113355429Y-76878571D02*
X113355429Y-75378571D01*
X114069715Y-76878571D02*
X114069715Y-75378571D01*
X74862572Y-76878571D02*
X74148286Y-76878571D01*
X74148286Y-75378571D01*
X75648286Y-75378571D02*
X75934000Y-75378571D01*
X76076858Y-75450000D01*
X76219715Y-75592857D01*
X76291143Y-75878571D01*
X76291143Y-76378571D01*
X76219715Y-76664286D01*
X76076858Y-76807143D01*
X75934000Y-76878571D01*
X75648286Y-76878571D01*
X75505429Y-76807143D01*
X75362572Y-76664286D01*
X75291143Y-76378571D01*
X75291143Y-75878571D01*
X75362572Y-75592857D01*
X75505429Y-75450000D01*
X75648286Y-75378571D01*
X89412858Y-127027714D02*
X89341429Y-127099143D01*
X89127143Y-127170571D01*
X88984286Y-127170571D01*
X88770001Y-127099143D01*
X88627143Y-126956286D01*
X88555715Y-126813429D01*
X88484286Y-126527714D01*
X88484286Y-126313429D01*
X88555715Y-126027714D01*
X88627143Y-125884857D01*
X88770001Y-125742000D01*
X88984286Y-125670571D01*
X89127143Y-125670571D01*
X89341429Y-125742000D01*
X89412858Y-125813429D01*
X90698572Y-126170571D02*
X90698572Y-127170571D01*
X90055715Y-126170571D02*
X90055715Y-126956286D01*
X90127143Y-127099143D01*
X90270001Y-127170571D01*
X90484286Y-127170571D01*
X90627143Y-127099143D01*
X90698572Y-127027714D01*
X91412858Y-127170571D02*
X91412858Y-126170571D01*
X91412858Y-126456286D02*
X91484286Y-126313429D01*
X91555715Y-126242000D01*
X91698572Y-126170571D01*
X91841429Y-126170571D01*
X92341429Y-127170571D02*
X92341429Y-126170571D01*
X92341429Y-126456286D02*
X92412857Y-126313429D01*
X92484286Y-126242000D01*
X92627143Y-126170571D01*
X92770000Y-126170571D01*
X93841428Y-127099143D02*
X93698571Y-127170571D01*
X93412857Y-127170571D01*
X93270000Y-127099143D01*
X93198571Y-126956286D01*
X93198571Y-126384857D01*
X93270000Y-126242000D01*
X93412857Y-126170571D01*
X93698571Y-126170571D01*
X93841428Y-126242000D01*
X93912857Y-126384857D01*
X93912857Y-126527714D01*
X93198571Y-126670571D01*
X94555714Y-126170571D02*
X94555714Y-127170571D01*
X94555714Y-126313429D02*
X94627142Y-126242000D01*
X94770000Y-126170571D01*
X94984285Y-126170571D01*
X95127142Y-126242000D01*
X95198571Y-126384857D01*
X95198571Y-127170571D01*
X95698571Y-126170571D02*
X96270000Y-126170571D01*
X95912857Y-125670571D02*
X95912857Y-126956286D01*
X95984285Y-127099143D01*
X96127143Y-127170571D01*
X96270000Y-127170571D01*
X98770000Y-127170571D02*
X98270000Y-126456286D01*
X97912857Y-127170571D02*
X97912857Y-125670571D01*
X98484285Y-125670571D01*
X98627143Y-125742000D01*
X98698571Y-125813429D01*
X98770000Y-125956286D01*
X98770000Y-126170571D01*
X98698571Y-126313429D01*
X98627143Y-126384857D01*
X98484285Y-126456286D01*
X97912857Y-126456286D01*
X99984285Y-127099143D02*
X99841428Y-127170571D01*
X99555714Y-127170571D01*
X99412857Y-127099143D01*
X99341428Y-126956286D01*
X99341428Y-126384857D01*
X99412857Y-126242000D01*
X99555714Y-126170571D01*
X99841428Y-126170571D01*
X99984285Y-126242000D01*
X100055714Y-126384857D01*
X100055714Y-126527714D01*
X99341428Y-126670571D01*
X100484285Y-126170571D02*
X101055714Y-126170571D01*
X100698571Y-125670571D02*
X100698571Y-126956286D01*
X100769999Y-127099143D01*
X100912857Y-127170571D01*
X101055714Y-127170571D01*
X102198571Y-126170571D02*
X102198571Y-127170571D01*
X101555714Y-126170571D02*
X101555714Y-126956286D01*
X101627142Y-127099143D01*
X101770000Y-127170571D01*
X101984285Y-127170571D01*
X102127142Y-127099143D01*
X102198571Y-127027714D01*
X102912857Y-127170571D02*
X102912857Y-126170571D01*
X102912857Y-126456286D02*
X102984285Y-126313429D01*
X103055714Y-126242000D01*
X103198571Y-126170571D01*
X103341428Y-126170571D01*
X103841428Y-126170571D02*
X103841428Y-127170571D01*
X103841428Y-126313429D02*
X103912856Y-126242000D01*
X104055714Y-126170571D01*
X104269999Y-126170571D01*
X104412856Y-126242000D01*
X104484285Y-126384857D01*
X104484285Y-127170571D01*
X88924572Y-69258571D02*
X88924572Y-67758571D01*
X88924572Y-68472857D02*
X89781715Y-68472857D01*
X89781715Y-69258571D02*
X89781715Y-67758571D01*
X91138858Y-69258571D02*
X91138858Y-68472857D01*
X91067429Y-68330000D01*
X90924572Y-68258571D01*
X90638858Y-68258571D01*
X90496001Y-68330000D01*
X91138858Y-69187143D02*
X90996001Y-69258571D01*
X90638858Y-69258571D01*
X90496001Y-69187143D01*
X90424572Y-69044286D01*
X90424572Y-68901429D01*
X90496001Y-68758571D01*
X90638858Y-68687143D01*
X90996001Y-68687143D01*
X91138858Y-68615714D01*
X92067430Y-69258571D02*
X91924572Y-69187143D01*
X91853144Y-69044286D01*
X91853144Y-67758571D01*
X92424572Y-68258571D02*
X92996001Y-68258571D01*
X92638858Y-69258571D02*
X92638858Y-67972857D01*
X92710286Y-67830000D01*
X92853144Y-67758571D01*
X92996001Y-67758571D01*
X95138858Y-68472857D02*
X95353144Y-68544286D01*
X95424572Y-68615714D01*
X95496001Y-68758571D01*
X95496001Y-68972857D01*
X95424572Y-69115714D01*
X95353144Y-69187143D01*
X95210286Y-69258571D01*
X94638858Y-69258571D01*
X94638858Y-67758571D01*
X95138858Y-67758571D01*
X95281715Y-67830000D01*
X95353144Y-67901429D01*
X95424572Y-68044286D01*
X95424572Y-68187143D01*
X95353144Y-68330000D01*
X95281715Y-68401429D01*
X95138858Y-68472857D01*
X94638858Y-68472857D01*
X96138858Y-69258571D02*
X96138858Y-68258571D01*
X96138858Y-68544286D02*
X96210286Y-68401429D01*
X96281715Y-68330000D01*
X96424572Y-68258571D01*
X96567429Y-68258571D01*
X97067429Y-69258571D02*
X97067429Y-68258571D01*
X97067429Y-67758571D02*
X96996000Y-67830000D01*
X97067429Y-67901429D01*
X97138857Y-67830000D01*
X97067429Y-67758571D01*
X97067429Y-67901429D01*
X98424572Y-69258571D02*
X98424572Y-67758571D01*
X98424572Y-69187143D02*
X98281715Y-69258571D01*
X97996001Y-69258571D01*
X97853143Y-69187143D01*
X97781715Y-69115714D01*
X97710286Y-68972857D01*
X97710286Y-68544286D01*
X97781715Y-68401429D01*
X97853143Y-68330000D01*
X97996001Y-68258571D01*
X98281715Y-68258571D01*
X98424572Y-68330000D01*
X99781715Y-68258571D02*
X99781715Y-69472857D01*
X99710286Y-69615714D01*
X99638858Y-69687143D01*
X99496001Y-69758571D01*
X99281715Y-69758571D01*
X99138858Y-69687143D01*
X99781715Y-69187143D02*
X99638858Y-69258571D01*
X99353144Y-69258571D01*
X99210286Y-69187143D01*
X99138858Y-69115714D01*
X99067429Y-68972857D01*
X99067429Y-68544286D01*
X99138858Y-68401429D01*
X99210286Y-68330000D01*
X99353144Y-68258571D01*
X99638858Y-68258571D01*
X99781715Y-68330000D01*
X101067429Y-69187143D02*
X100924572Y-69258571D01*
X100638858Y-69258571D01*
X100496001Y-69187143D01*
X100424572Y-69044286D01*
X100424572Y-68472857D01*
X100496001Y-68330000D01*
X100638858Y-68258571D01*
X100924572Y-68258571D01*
X101067429Y-68330000D01*
X101138858Y-68472857D01*
X101138858Y-68615714D01*
X100424572Y-68758571D01*
X139357571Y-123672514D02*
X137857571Y-123672514D01*
X139357571Y-122815371D01*
X137857571Y-122815371D01*
X139286143Y-121529657D02*
X139357571Y-121672514D01*
X139357571Y-121958228D01*
X139286143Y-122101085D01*
X139143286Y-122172514D01*
X138571857Y-122172514D01*
X138429000Y-122101085D01*
X138357571Y-121958228D01*
X138357571Y-121672514D01*
X138429000Y-121529657D01*
X138571857Y-121458228D01*
X138714714Y-121458228D01*
X138857571Y-122172514D01*
X138357571Y-120172514D02*
X139571857Y-120172514D01*
X139714714Y-120243943D01*
X139786143Y-120315371D01*
X139857571Y-120458228D01*
X139857571Y-120672514D01*
X139786143Y-120815371D01*
X139286143Y-120172514D02*
X139357571Y-120315371D01*
X139357571Y-120601085D01*
X139286143Y-120743943D01*
X139214714Y-120815371D01*
X139071857Y-120886800D01*
X138643286Y-120886800D01*
X138500429Y-120815371D01*
X138429000Y-120743943D01*
X138357571Y-120601085D01*
X138357571Y-120315371D01*
X138429000Y-120172514D01*
X139357571Y-118815371D02*
X138571857Y-118815371D01*
X138429000Y-118886800D01*
X138357571Y-119029657D01*
X138357571Y-119315371D01*
X138429000Y-119458228D01*
X139286143Y-118815371D02*
X139357571Y-118958228D01*
X139357571Y-119315371D01*
X139286143Y-119458228D01*
X139143286Y-119529657D01*
X139000429Y-119529657D01*
X138857571Y-119458228D01*
X138786143Y-119315371D01*
X138786143Y-118958228D01*
X138714714Y-118815371D01*
X138357571Y-118315371D02*
X138357571Y-117743942D01*
X137857571Y-118101085D02*
X139143286Y-118101085D01*
X139286143Y-118029657D01*
X139357571Y-117886799D01*
X139357571Y-117743942D01*
X139357571Y-117243942D02*
X138357571Y-117243942D01*
X137857571Y-117243942D02*
X137929000Y-117315371D01*
X138000429Y-117243942D01*
X137929000Y-117172514D01*
X137857571Y-117243942D01*
X138000429Y-117243942D01*
X138357571Y-116672513D02*
X139357571Y-116315370D01*
X138357571Y-115958228D01*
X139286143Y-114815371D02*
X139357571Y-114958228D01*
X139357571Y-115243942D01*
X139286143Y-115386799D01*
X139143286Y-115458228D01*
X138571857Y-115458228D01*
X138429000Y-115386799D01*
X138357571Y-115243942D01*
X138357571Y-114958228D01*
X138429000Y-114815371D01*
X138571857Y-114743942D01*
X138714714Y-114743942D01*
X138857571Y-115458228D01*
X138571857Y-112458228D02*
X138643286Y-112243942D01*
X138714714Y-112172514D01*
X138857571Y-112101085D01*
X139071857Y-112101085D01*
X139214714Y-112172514D01*
X139286143Y-112243942D01*
X139357571Y-112386800D01*
X139357571Y-112958228D01*
X137857571Y-112958228D01*
X137857571Y-112458228D01*
X137929000Y-112315371D01*
X138000429Y-112243942D01*
X138143286Y-112172514D01*
X138286143Y-112172514D01*
X138429000Y-112243942D01*
X138500429Y-112315371D01*
X138571857Y-112458228D01*
X138571857Y-112958228D01*
X138357571Y-110815371D02*
X139357571Y-110815371D01*
X138357571Y-111458228D02*
X139143286Y-111458228D01*
X139286143Y-111386800D01*
X139357571Y-111243942D01*
X139357571Y-111029657D01*
X139286143Y-110886800D01*
X139214714Y-110815371D01*
X139286143Y-110172514D02*
X139357571Y-110029657D01*
X139357571Y-109743942D01*
X139286143Y-109601085D01*
X139143286Y-109529657D01*
X139071857Y-109529657D01*
X138929000Y-109601085D01*
X138857571Y-109743942D01*
X138857571Y-109958228D01*
X138786143Y-110101085D01*
X138643286Y-110172514D01*
X138571857Y-110172514D01*
X138429000Y-110101085D01*
X138357571Y-109958228D01*
X138357571Y-109743942D01*
X138429000Y-109601085D01*
X140407571Y-120636800D02*
X141907571Y-120136800D01*
X140407571Y-119636800D01*
X141907571Y-118922514D02*
X141836143Y-119065372D01*
X141764714Y-119136800D01*
X141621857Y-119208229D01*
X141193286Y-119208229D01*
X141050429Y-119136800D01*
X140979000Y-119065372D01*
X140907571Y-118922514D01*
X140907571Y-118708229D01*
X140979000Y-118565372D01*
X141050429Y-118493943D01*
X141193286Y-118422514D01*
X141621857Y-118422514D01*
X141764714Y-118493943D01*
X141836143Y-118565372D01*
X141907571Y-118708229D01*
X141907571Y-118922514D01*
X141907571Y-117565371D02*
X141836143Y-117708229D01*
X141693286Y-117779657D01*
X140407571Y-117779657D01*
X140907571Y-117208229D02*
X140907571Y-116636800D01*
X140407571Y-116993943D02*
X141693286Y-116993943D01*
X141836143Y-116922515D01*
X141907571Y-116779657D01*
X141907571Y-116636800D01*
X141907571Y-115493943D02*
X141121857Y-115493943D01*
X140979000Y-115565372D01*
X140907571Y-115708229D01*
X140907571Y-115993943D01*
X140979000Y-116136800D01*
X141836143Y-115493943D02*
X141907571Y-115636800D01*
X141907571Y-115993943D01*
X141836143Y-116136800D01*
X141693286Y-116208229D01*
X141550429Y-116208229D01*
X141407571Y-116136800D01*
X141336143Y-115993943D01*
X141336143Y-115636800D01*
X141264714Y-115493943D01*
X140907571Y-114136800D02*
X142121857Y-114136800D01*
X142264714Y-114208229D01*
X142336143Y-114279657D01*
X142407571Y-114422514D01*
X142407571Y-114636800D01*
X142336143Y-114779657D01*
X141836143Y-114136800D02*
X141907571Y-114279657D01*
X141907571Y-114565371D01*
X141836143Y-114708229D01*
X141764714Y-114779657D01*
X141621857Y-114851086D01*
X141193286Y-114851086D01*
X141050429Y-114779657D01*
X140979000Y-114708229D01*
X140907571Y-114565371D01*
X140907571Y-114279657D01*
X140979000Y-114136800D01*
X141836143Y-112851086D02*
X141907571Y-112993943D01*
X141907571Y-113279657D01*
X141836143Y-113422514D01*
X141693286Y-113493943D01*
X141121857Y-113493943D01*
X140979000Y-113422514D01*
X140907571Y-113279657D01*
X140907571Y-112993943D01*
X140979000Y-112851086D01*
X141121857Y-112779657D01*
X141264714Y-112779657D01*
X141407571Y-113493943D01*
X49770829Y-109536743D02*
X51270829Y-109536743D01*
X51270829Y-110108171D01*
X51199400Y-110251029D01*
X51127971Y-110322457D01*
X50985114Y-110393886D01*
X50770829Y-110393886D01*
X50627971Y-110322457D01*
X50556543Y-110251029D01*
X50485114Y-110108171D01*
X50485114Y-109536743D01*
X49770829Y-111251029D02*
X49842257Y-111108171D01*
X49913686Y-111036743D01*
X50056543Y-110965314D01*
X50485114Y-110965314D01*
X50627971Y-111036743D01*
X50699400Y-111108171D01*
X50770829Y-111251029D01*
X50770829Y-111465314D01*
X50699400Y-111608171D01*
X50627971Y-111679600D01*
X50485114Y-111751029D01*
X50056543Y-111751029D01*
X49913686Y-111679600D01*
X49842257Y-111608171D01*
X49770829Y-111465314D01*
X49770829Y-111251029D01*
X49842257Y-112322457D02*
X49770829Y-112465314D01*
X49770829Y-112751029D01*
X49842257Y-112893886D01*
X49985114Y-112965314D01*
X50056543Y-112965314D01*
X50199400Y-112893886D01*
X50270829Y-112751029D01*
X50270829Y-112536743D01*
X50342257Y-112393886D01*
X50485114Y-112322457D01*
X50556543Y-112322457D01*
X50699400Y-112393886D01*
X50770829Y-112536743D01*
X50770829Y-112751029D01*
X50699400Y-112893886D01*
X49770829Y-113608172D02*
X50770829Y-113608172D01*
X51270829Y-113608172D02*
X51199400Y-113536743D01*
X51127971Y-113608172D01*
X51199400Y-113679600D01*
X51270829Y-113608172D01*
X51127971Y-113608172D01*
X50770829Y-114108172D02*
X50770829Y-114679601D01*
X51270829Y-114322458D02*
X49985114Y-114322458D01*
X49842257Y-114393886D01*
X49770829Y-114536744D01*
X49770829Y-114679601D01*
X49770829Y-115179601D02*
X50770829Y-115179601D01*
X51270829Y-115179601D02*
X51199400Y-115108172D01*
X51127971Y-115179601D01*
X51199400Y-115251029D01*
X51270829Y-115179601D01*
X51127971Y-115179601D01*
X50770829Y-115751030D02*
X49770829Y-116108173D01*
X50770829Y-116465315D01*
X49842257Y-117608172D02*
X49770829Y-117465315D01*
X49770829Y-117179601D01*
X49842257Y-117036744D01*
X49985114Y-116965315D01*
X50556543Y-116965315D01*
X50699400Y-117036744D01*
X50770829Y-117179601D01*
X50770829Y-117465315D01*
X50699400Y-117608172D01*
X50556543Y-117679601D01*
X50413686Y-117679601D01*
X50270829Y-116965315D01*
X50556543Y-119965315D02*
X50485114Y-120179601D01*
X50413686Y-120251029D01*
X50270829Y-120322458D01*
X50056543Y-120322458D01*
X49913686Y-120251029D01*
X49842257Y-120179601D01*
X49770829Y-120036743D01*
X49770829Y-119465315D01*
X51270829Y-119465315D01*
X51270829Y-119965315D01*
X51199400Y-120108172D01*
X51127971Y-120179601D01*
X50985114Y-120251029D01*
X50842257Y-120251029D01*
X50699400Y-120179601D01*
X50627971Y-120108172D01*
X50556543Y-119965315D01*
X50556543Y-119465315D01*
X50770829Y-121608172D02*
X49770829Y-121608172D01*
X50770829Y-120965315D02*
X49985114Y-120965315D01*
X49842257Y-121036743D01*
X49770829Y-121179601D01*
X49770829Y-121393886D01*
X49842257Y-121536743D01*
X49913686Y-121608172D01*
X49842257Y-122251029D02*
X49770829Y-122393886D01*
X49770829Y-122679601D01*
X49842257Y-122822458D01*
X49985114Y-122893886D01*
X50056543Y-122893886D01*
X50199400Y-122822458D01*
X50270829Y-122679601D01*
X50270829Y-122465315D01*
X50342257Y-122322458D01*
X50485114Y-122251029D01*
X50556543Y-122251029D01*
X50699400Y-122322458D01*
X50770829Y-122465315D01*
X50770829Y-122679601D01*
X50699400Y-122822458D01*
X48720829Y-112179600D02*
X47220829Y-112679600D01*
X48720829Y-113179600D01*
X47220829Y-113893886D02*
X47292257Y-113751028D01*
X47363686Y-113679600D01*
X47506543Y-113608171D01*
X47935114Y-113608171D01*
X48077971Y-113679600D01*
X48149400Y-113751028D01*
X48220829Y-113893886D01*
X48220829Y-114108171D01*
X48149400Y-114251028D01*
X48077971Y-114322457D01*
X47935114Y-114393886D01*
X47506543Y-114393886D01*
X47363686Y-114322457D01*
X47292257Y-114251028D01*
X47220829Y-114108171D01*
X47220829Y-113893886D01*
X47220829Y-115251029D02*
X47292257Y-115108171D01*
X47435114Y-115036743D01*
X48720829Y-115036743D01*
X48220829Y-115608171D02*
X48220829Y-116179600D01*
X48720829Y-115822457D02*
X47435114Y-115822457D01*
X47292257Y-115893885D01*
X47220829Y-116036743D01*
X47220829Y-116179600D01*
X47220829Y-117322457D02*
X48006543Y-117322457D01*
X48149400Y-117251028D01*
X48220829Y-117108171D01*
X48220829Y-116822457D01*
X48149400Y-116679600D01*
X47292257Y-117322457D02*
X47220829Y-117179600D01*
X47220829Y-116822457D01*
X47292257Y-116679600D01*
X47435114Y-116608171D01*
X47577971Y-116608171D01*
X47720829Y-116679600D01*
X47792257Y-116822457D01*
X47792257Y-117179600D01*
X47863686Y-117322457D01*
X48220829Y-118679600D02*
X47006543Y-118679600D01*
X46863686Y-118608171D01*
X46792257Y-118536743D01*
X46720829Y-118393886D01*
X46720829Y-118179600D01*
X46792257Y-118036743D01*
X47292257Y-118679600D02*
X47220829Y-118536743D01*
X47220829Y-118251029D01*
X47292257Y-118108171D01*
X47363686Y-118036743D01*
X47506543Y-117965314D01*
X47935114Y-117965314D01*
X48077971Y-118036743D01*
X48149400Y-118108171D01*
X48220829Y-118251029D01*
X48220829Y-118536743D01*
X48149400Y-118679600D01*
X47292257Y-119965314D02*
X47220829Y-119822457D01*
X47220829Y-119536743D01*
X47292257Y-119393886D01*
X47435114Y-119322457D01*
X48006543Y-119322457D01*
X48149400Y-119393886D01*
X48220829Y-119536743D01*
X48220829Y-119822457D01*
X48149400Y-119965314D01*
X48006543Y-120036743D01*
X47863686Y-120036743D01*
X47720829Y-119322457D01*
D12*
X127254000Y-81280000D02*
X137414000Y-81280000D01*
X127254000Y-80010000D02*
X127254000Y-87630000D01*
X127254000Y-87630000D02*
X137414000Y-87630000D01*
X137414000Y-87630000D02*
X137414000Y-80010000D01*
X137414000Y-80010000D02*
X127254000Y-80010000D01*
X111552000Y-99362000D02*
X111552000Y-87742000D01*
X118572000Y-99362000D02*
X118572000Y-87742000D01*
X111552000Y-99362000D02*
X114312000Y-99362000D01*
X115812000Y-99362000D02*
X118572000Y-99362000D01*
X111552000Y-87742000D02*
X114312000Y-87742000D01*
X115812000Y-87742000D02*
X118572000Y-87742000D01*
X107306000Y-99704000D02*
X83186000Y-99704000D01*
X107306000Y-87384000D02*
X83186000Y-87384000D01*
X107306000Y-99704000D02*
X107306000Y-94939000D01*
X107306000Y-92149000D02*
X107306000Y-87384000D01*
X83186000Y-99704000D02*
X83186000Y-94939000D01*
X83186000Y-92149000D02*
X83186000Y-87384000D01*
X71166000Y-99616000D02*
X71166000Y-87996000D01*
X78186000Y-99616000D02*
X78186000Y-87996000D01*
X71166000Y-99616000D02*
X73926000Y-99616000D01*
X75426000Y-99616000D02*
X78186000Y-99616000D01*
X71166000Y-87996000D02*
X73926000Y-87996000D01*
X75426000Y-87996000D02*
X78186000Y-87996000D01*
X63500000Y-86360000D02*
X53340000Y-86360000D01*
X63500000Y-87630000D02*
X63500000Y-80010000D01*
X63500000Y-80010000D02*
X53340000Y-80010000D01*
X53340000Y-80010000D02*
X53340000Y-87630000D01*
X53340000Y-87630000D02*
X63500000Y-87630000D01*
X97282000Y-54610000D02*
G75*
G03X97282000Y-54610000I-2286000J0D01*
G01*
X98552000Y-133858000D02*
G75*
G03X98552000Y-133858000I-2286000J0D01*
G01*
X137160000Y-101346000D02*
G75*
G03X137160000Y-101346000I-2286000J0D01*
G01*
X57658000Y-101092000D02*
G75*
G03X57658000Y-101092000I-2286000J0D01*
G01*
X99996000Y-78829000D02*
X116136000Y-78829000D01*
X99996000Y-84100000D02*
X116136000Y-84100000D01*
X99996000Y-78829000D02*
X99996000Y-84100000D01*
X116136000Y-78829000D02*
X116136000Y-84100000D01*
X106262000Y-78829000D02*
X106262000Y-84100000D01*
X109871000Y-78829000D02*
X109871000Y-84100000D01*
X73580000Y-79083000D02*
X89720000Y-79083000D01*
X73580000Y-84354000D02*
X89720000Y-84354000D01*
X73580000Y-79083000D02*
X73580000Y-84354000D01*
X89720000Y-79083000D02*
X89720000Y-84354000D01*
X79846000Y-79083000D02*
X79846000Y-84354000D01*
X83455000Y-79083000D02*
X83455000Y-84354000D01*
X120118000Y-96688000D02*
X124738000Y-96688000D01*
X124738000Y-96688000D02*
X124738000Y-84668000D01*
X124738000Y-84668000D02*
X120118000Y-84668000D01*
X120118000Y-84668000D02*
X120118000Y-96688000D01*
X122428000Y-96918000D02*
X122428000Y-96688000D01*
X122428000Y-84438000D02*
X122428000Y-84668000D01*
X65254000Y-96942000D02*
X69874000Y-96942000D01*
X69874000Y-96942000D02*
X69874000Y-84922000D01*
X69874000Y-84922000D02*
X65254000Y-84922000D01*
X65254000Y-84922000D02*
X65254000Y-96942000D01*
X67564000Y-97172000D02*
X67564000Y-96942000D01*
X67564000Y-84692000D02*
X67564000Y-84922000D01*
X52286000Y-50000000D02*
G75*
G03X52286000Y-50000000I-2286000J0D01*
G01*
X142286000Y-50000000D02*
G75*
G03X142286000Y-50000000I-2286000J0D01*
G01*
X52286000Y-140000000D02*
G75*
G03X52286000Y-140000000I-2286000J0D01*
G01*
X142286000Y-140000000D02*
G75*
G03X142286000Y-140000000I-2286000J0D01*
G01*
X54750000Y-70238000D02*
X51930000Y-70238000D01*
X51930000Y-70238000D02*
X51930000Y-75558000D01*
X51930000Y-75558000D02*
X54750000Y-75558000D01*
X54750000Y-75558000D02*
X54750000Y-70238000D01*
X53340000Y-69098000D02*
X53340000Y-70238000D01*
X53340000Y-76698000D02*
X53340000Y-75558000D01*
X54750000Y-71078000D02*
X51930000Y-71078000D01*
X137554000Y-69984000D02*
X134734000Y-69984000D01*
X134734000Y-69984000D02*
X134734000Y-75304000D01*
X134734000Y-75304000D02*
X137554000Y-75304000D01*
X137554000Y-75304000D02*
X137554000Y-69984000D01*
X136144000Y-68844000D02*
X136144000Y-69984000D01*
X136144000Y-76444000D02*
X136144000Y-75304000D01*
X137554000Y-70824000D02*
X134734000Y-70824000D01*
X107490000Y-113602000D02*
X83370000Y-113602000D01*
X107490000Y-101282000D02*
X83370000Y-101282000D01*
X107490000Y-113602000D02*
X107490000Y-108837000D01*
X107490000Y-106047000D02*
X107490000Y-101282000D01*
X83370000Y-113602000D02*
X83370000Y-108837000D01*
X83370000Y-106047000D02*
X83370000Y-101282000D01*
X126866000Y-74054000D02*
X126866000Y-71234000D01*
X126866000Y-71234000D02*
X121546000Y-71234000D01*
X121546000Y-71234000D02*
X121546000Y-74054000D01*
X121546000Y-74054000D02*
X126866000Y-74054000D01*
X128006000Y-72644000D02*
X126866000Y-72644000D01*
X120406000Y-72644000D02*
X121546000Y-72644000D01*
X126026000Y-74054000D02*
X126026000Y-71234000D01*
X62110000Y-71996000D02*
X62110000Y-74816000D01*
X62110000Y-74816000D02*
X67430000Y-74816000D01*
X67430000Y-74816000D02*
X67430000Y-71996000D01*
X67430000Y-71996000D02*
X62110000Y-71996000D01*
X60970000Y-73406000D02*
X62110000Y-73406000D01*
X68570000Y-73406000D02*
X67430000Y-73406000D01*
X62950000Y-71996000D02*
X62950000Y-74816000D01*
X120466000Y-75836000D02*
X120466000Y-75356000D01*
X120466000Y-75356000D02*
X130486000Y-75356000D01*
X130486000Y-75356000D02*
X130486000Y-75836000D01*
X120466000Y-78596000D02*
X120466000Y-79076000D01*
X120466000Y-79076000D02*
X130486000Y-79076000D01*
X130486000Y-79076000D02*
X130486000Y-78596000D01*
X68764000Y-79104000D02*
X68764000Y-79584000D01*
X68764000Y-79584000D02*
X58744000Y-79584000D01*
X58744000Y-79584000D02*
X58744000Y-79104000D01*
X68764000Y-76344000D02*
X68764000Y-75864000D01*
X68764000Y-75864000D02*
X58744000Y-75864000D01*
X58744000Y-75864000D02*
X58744000Y-76344000D01*
X67028000Y-110462000D02*
X67028000Y-142082000D01*
X55908000Y-110462000D02*
X55908000Y-142082000D01*
X67028000Y-110462000D02*
X55908000Y-110462000D01*
X67028000Y-142082000D02*
X55908000Y-142082000D01*
X110264000Y-141760000D02*
X110264000Y-110140000D01*
X121384000Y-141760000D02*
X121384000Y-110140000D01*
X110264000Y-141760000D02*
X121384000Y-141760000D01*
X110264000Y-110140000D02*
X121384000Y-110140000D01*
X80744000Y-110716000D02*
X80744000Y-142336000D01*
X69624000Y-110716000D02*
X69624000Y-142336000D01*
X80744000Y-110716000D02*
X69624000Y-110716000D01*
X80744000Y-142336000D02*
X69624000Y-142336000D01*
X123726000Y-141760000D02*
X123726000Y-110140000D01*
X134846000Y-141760000D02*
X134846000Y-110140000D01*
X123726000Y-141760000D02*
X134846000Y-141760000D01*
X123726000Y-110140000D02*
X134846000Y-110140000D01*
X130047000Y-68705000D02*
X130047000Y-63375000D01*
X130047000Y-63375000D02*
X120397000Y-63375000D01*
X120397000Y-63375000D02*
X120397000Y-68705000D01*
X120397000Y-68705000D02*
X130047000Y-68705000D01*
X130092000Y-66040000D02*
X130047000Y-66040000D01*
X120352000Y-66040000D02*
X120397000Y-66040000D01*
X128557500Y-68705000D02*
X128557500Y-63375000D01*
X69087000Y-69467000D02*
X69087000Y-64137000D01*
X69087000Y-64137000D02*
X59437000Y-64137000D01*
X59437000Y-64137000D02*
X59437000Y-69467000D01*
X59437000Y-69467000D02*
X69087000Y-69467000D01*
X69132000Y-66802000D02*
X69087000Y-66802000D01*
X59392000Y-66802000D02*
X59437000Y-66802000D01*
X67597500Y-69467000D02*
X67597500Y-64137000D01*
D13*
X138009381Y-84343833D02*
X138723667Y-84343833D01*
X138866524Y-84391453D01*
X138961762Y-84486691D01*
X139009381Y-84629548D01*
X139009381Y-84724786D01*
X139009381Y-83343833D02*
X139009381Y-83915262D01*
X139009381Y-83629548D02*
X138009381Y-83629548D01*
X138152238Y-83724786D01*
X138247476Y-83820024D01*
X138295095Y-83915262D01*
X115292143Y-93765666D02*
X115339762Y-93813285D01*
X115387381Y-93956142D01*
X115387381Y-94051380D01*
X115339762Y-94194238D01*
X115244524Y-94289476D01*
X115149286Y-94337095D01*
X114958810Y-94384714D01*
X114815952Y-94384714D01*
X114625476Y-94337095D01*
X114530238Y-94289476D01*
X114435000Y-94194238D01*
X114387381Y-94051380D01*
X114387381Y-93956142D01*
X114435000Y-93813285D01*
X114482619Y-93765666D01*
X115387381Y-92813285D02*
X115387381Y-93384714D01*
X115387381Y-93099000D02*
X114387381Y-93099000D01*
X114530238Y-93194238D01*
X114625476Y-93289476D01*
X114673095Y-93384714D01*
X95019834Y-93765643D02*
X94972215Y-93813262D01*
X94829358Y-93860881D01*
X94734120Y-93860881D01*
X94591262Y-93813262D01*
X94496024Y-93718024D01*
X94448405Y-93622786D01*
X94400786Y-93432310D01*
X94400786Y-93289452D01*
X94448405Y-93098976D01*
X94496024Y-93003738D01*
X94591262Y-92908500D01*
X94734120Y-92860881D01*
X94829358Y-92860881D01*
X94972215Y-92908500D01*
X95019834Y-92956119D01*
X95400786Y-92956119D02*
X95448405Y-92908500D01*
X95543643Y-92860881D01*
X95781739Y-92860881D01*
X95876977Y-92908500D01*
X95924596Y-92956119D01*
X95972215Y-93051357D01*
X95972215Y-93146595D01*
X95924596Y-93289452D01*
X95353167Y-93860881D01*
X95972215Y-93860881D01*
X74906143Y-94019666D02*
X74953762Y-94067285D01*
X75001381Y-94210142D01*
X75001381Y-94305380D01*
X74953762Y-94448238D01*
X74858524Y-94543476D01*
X74763286Y-94591095D01*
X74572810Y-94638714D01*
X74429952Y-94638714D01*
X74239476Y-94591095D01*
X74144238Y-94543476D01*
X74049000Y-94448238D01*
X74001381Y-94305380D01*
X74001381Y-94210142D01*
X74049000Y-94067285D01*
X74096619Y-94019666D01*
X74001381Y-93686333D02*
X74001381Y-93067285D01*
X74382333Y-93400619D01*
X74382333Y-93257761D01*
X74429952Y-93162523D01*
X74477571Y-93114904D01*
X74572810Y-93067285D01*
X74810905Y-93067285D01*
X74906143Y-93114904D01*
X74953762Y-93162523D01*
X75001381Y-93257761D01*
X75001381Y-93543476D01*
X74953762Y-93638714D01*
X74906143Y-93686333D01*
X51014381Y-84343833D02*
X51728667Y-84343833D01*
X51871524Y-84391453D01*
X51966762Y-84486691D01*
X52014381Y-84629548D01*
X52014381Y-84724786D01*
X51109619Y-83915262D02*
X51062000Y-83867643D01*
X51014381Y-83772405D01*
X51014381Y-83534309D01*
X51062000Y-83439071D01*
X51109619Y-83391452D01*
X51204857Y-83343833D01*
X51300095Y-83343833D01*
X51442952Y-83391452D01*
X52014381Y-83962881D01*
X52014381Y-83343833D01*
X94662667Y-51014381D02*
X94662667Y-51728667D01*
X94615047Y-51871524D01*
X94519809Y-51966762D01*
X94376952Y-52014381D01*
X94281714Y-52014381D01*
X95043619Y-51014381D02*
X95662667Y-51014381D01*
X95329333Y-51395333D01*
X95472191Y-51395333D01*
X95567429Y-51442952D01*
X95615048Y-51490571D01*
X95662667Y-51585810D01*
X95662667Y-51823905D01*
X95615048Y-51919143D01*
X95567429Y-51966762D01*
X95472191Y-52014381D01*
X95186476Y-52014381D01*
X95091238Y-51966762D01*
X95043619Y-51919143D01*
X95678667Y-128484381D02*
X95678667Y-129198667D01*
X95631047Y-129341524D01*
X95535809Y-129436762D01*
X95392952Y-129484381D01*
X95297714Y-129484381D01*
X96583429Y-128484381D02*
X96392952Y-128484381D01*
X96297714Y-128532000D01*
X96250095Y-128579619D01*
X96154857Y-128722476D01*
X96107238Y-128912952D01*
X96107238Y-129293905D01*
X96154857Y-129389143D01*
X96202476Y-129436762D01*
X96297714Y-129484381D01*
X96488191Y-129484381D01*
X96583429Y-129436762D01*
X96631048Y-129389143D01*
X96678667Y-129293905D01*
X96678667Y-129055810D01*
X96631048Y-128960571D01*
X96583429Y-128912952D01*
X96488191Y-128865333D01*
X96297714Y-128865333D01*
X96202476Y-128912952D01*
X96154857Y-128960571D01*
X96107238Y-129055810D01*
X134540667Y-97750381D02*
X134540667Y-98464667D01*
X134493047Y-98607524D01*
X134397809Y-98702762D01*
X134254952Y-98750381D01*
X134159714Y-98750381D01*
X134921619Y-97750381D02*
X135588286Y-97750381D01*
X135159714Y-98750381D01*
X55038667Y-97496381D02*
X55038667Y-98210667D01*
X54991047Y-98353524D01*
X54895809Y-98448762D01*
X54752952Y-98496381D01*
X54657714Y-98496381D01*
X55657714Y-97924952D02*
X55562476Y-97877333D01*
X55514857Y-97829714D01*
X55467238Y-97734476D01*
X55467238Y-97686857D01*
X55514857Y-97591619D01*
X55562476Y-97544000D01*
X55657714Y-97496381D01*
X55848191Y-97496381D01*
X55943429Y-97544000D01*
X55991048Y-97591619D01*
X56038667Y-97686857D01*
X56038667Y-97734476D01*
X55991048Y-97829714D01*
X55943429Y-97877333D01*
X55848191Y-97924952D01*
X55657714Y-97924952D01*
X55562476Y-97972571D01*
X55514857Y-98020190D01*
X55467238Y-98115429D01*
X55467238Y-98305905D01*
X55514857Y-98401143D01*
X55562476Y-98448762D01*
X55657714Y-98496381D01*
X55848191Y-98496381D01*
X55943429Y-98448762D01*
X55991048Y-98401143D01*
X56038667Y-98305905D01*
X56038667Y-98115429D01*
X55991048Y-98020190D01*
X55943429Y-97972571D01*
X55848191Y-97924952D01*
X107970762Y-78377619D02*
X107875524Y-78330000D01*
X107780286Y-78234762D01*
X107637429Y-78091905D01*
X107542190Y-78044286D01*
X107446952Y-78044286D01*
X107494571Y-78282381D02*
X107399333Y-78234762D01*
X107304095Y-78139524D01*
X107256476Y-77949048D01*
X107256476Y-77615714D01*
X107304095Y-77425238D01*
X107399333Y-77330000D01*
X107494571Y-77282381D01*
X107685048Y-77282381D01*
X107780286Y-77330000D01*
X107875524Y-77425238D01*
X107923143Y-77615714D01*
X107923143Y-77949048D01*
X107875524Y-78139524D01*
X107780286Y-78234762D01*
X107685048Y-78282381D01*
X107494571Y-78282381D01*
X108875524Y-78282381D02*
X108304095Y-78282381D01*
X108589809Y-78282381D02*
X108589809Y-77282381D01*
X108494571Y-77425238D01*
X108399333Y-77520476D01*
X108304095Y-77568095D01*
X81554762Y-78631619D02*
X81459524Y-78584000D01*
X81364286Y-78488762D01*
X81221429Y-78345905D01*
X81126190Y-78298286D01*
X81030952Y-78298286D01*
X81078571Y-78536381D02*
X80983333Y-78488762D01*
X80888095Y-78393524D01*
X80840476Y-78203048D01*
X80840476Y-77869714D01*
X80888095Y-77679238D01*
X80983333Y-77584000D01*
X81078571Y-77536381D01*
X81269048Y-77536381D01*
X81364286Y-77584000D01*
X81459524Y-77679238D01*
X81507143Y-77869714D01*
X81507143Y-78203048D01*
X81459524Y-78393524D01*
X81364286Y-78488762D01*
X81269048Y-78536381D01*
X81078571Y-78536381D01*
X81888095Y-77631619D02*
X81935714Y-77584000D01*
X82030952Y-77536381D01*
X82269048Y-77536381D01*
X82364286Y-77584000D01*
X82411905Y-77631619D01*
X82459524Y-77726857D01*
X82459524Y-77822095D01*
X82411905Y-77964952D01*
X81840476Y-78536381D01*
X82459524Y-78536381D01*
X122435881Y-91162166D02*
X121959690Y-91495500D01*
X122435881Y-91733595D02*
X121435881Y-91733595D01*
X121435881Y-91352642D01*
X121483500Y-91257404D01*
X121531119Y-91209785D01*
X121626357Y-91162166D01*
X121769214Y-91162166D01*
X121864452Y-91209785D01*
X121912071Y-91257404D01*
X121959690Y-91352642D01*
X121959690Y-91733595D01*
X121531119Y-90781214D02*
X121483500Y-90733595D01*
X121435881Y-90638357D01*
X121435881Y-90400261D01*
X121483500Y-90305023D01*
X121531119Y-90257404D01*
X121626357Y-90209785D01*
X121721595Y-90209785D01*
X121864452Y-90257404D01*
X122435881Y-90828833D01*
X122435881Y-90209785D01*
X68016381Y-91162166D02*
X67540190Y-91495500D01*
X68016381Y-91733595D02*
X67016381Y-91733595D01*
X67016381Y-91352642D01*
X67064000Y-91257404D01*
X67111619Y-91209785D01*
X67206857Y-91162166D01*
X67349714Y-91162166D01*
X67444952Y-91209785D01*
X67492571Y-91257404D01*
X67540190Y-91352642D01*
X67540190Y-91733595D01*
X67349714Y-90305023D02*
X68016381Y-90305023D01*
X66968762Y-90543119D02*
X67683048Y-90781214D01*
X67683048Y-90162166D01*
X49666667Y-46404381D02*
X49666667Y-47118667D01*
X49619047Y-47261524D01*
X49523809Y-47356762D01*
X49380952Y-47404381D01*
X49285714Y-47404381D01*
X50190476Y-47404381D02*
X50380952Y-47404381D01*
X50476191Y-47356762D01*
X50523810Y-47309143D01*
X50619048Y-47166286D01*
X50666667Y-46975810D01*
X50666667Y-46594857D01*
X50619048Y-46499619D01*
X50571429Y-46452000D01*
X50476191Y-46404381D01*
X50285714Y-46404381D01*
X50190476Y-46452000D01*
X50142857Y-46499619D01*
X50095238Y-46594857D01*
X50095238Y-46832952D01*
X50142857Y-46928190D01*
X50190476Y-46975810D01*
X50285714Y-47023429D01*
X50476191Y-47023429D01*
X50571429Y-46975810D01*
X50619048Y-46928190D01*
X50666667Y-46832952D01*
X139190477Y-46404381D02*
X139190477Y-47118667D01*
X139142857Y-47261524D01*
X139047619Y-47356762D01*
X138904762Y-47404381D01*
X138809524Y-47404381D01*
X140190477Y-47404381D02*
X139619048Y-47404381D01*
X139904762Y-47404381D02*
X139904762Y-46404381D01*
X139809524Y-46547238D01*
X139714286Y-46642476D01*
X139619048Y-46690095D01*
X140809524Y-46404381D02*
X140904763Y-46404381D01*
X141000001Y-46452000D01*
X141047620Y-46499619D01*
X141095239Y-46594857D01*
X141142858Y-46785333D01*
X141142858Y-47023429D01*
X141095239Y-47213905D01*
X141047620Y-47309143D01*
X141000001Y-47356762D01*
X140904763Y-47404381D01*
X140809524Y-47404381D01*
X140714286Y-47356762D01*
X140666667Y-47309143D01*
X140619048Y-47213905D01*
X140571429Y-47023429D01*
X140571429Y-46785333D01*
X140619048Y-46594857D01*
X140666667Y-46499619D01*
X140714286Y-46452000D01*
X140809524Y-46404381D01*
X49190477Y-136404381D02*
X49190477Y-137118667D01*
X49142857Y-137261524D01*
X49047619Y-137356762D01*
X48904762Y-137404381D01*
X48809524Y-137404381D01*
X50190477Y-137404381D02*
X49619048Y-137404381D01*
X49904762Y-137404381D02*
X49904762Y-136404381D01*
X49809524Y-136547238D01*
X49714286Y-136642476D01*
X49619048Y-136690095D01*
X51142858Y-137404381D02*
X50571429Y-137404381D01*
X50857143Y-137404381D02*
X50857143Y-136404381D01*
X50761905Y-136547238D01*
X50666667Y-136642476D01*
X50571429Y-136690095D01*
X139190477Y-136404381D02*
X139190477Y-137118667D01*
X139142857Y-137261524D01*
X139047619Y-137356762D01*
X138904762Y-137404381D01*
X138809524Y-137404381D01*
X140190477Y-137404381D02*
X139619048Y-137404381D01*
X139904762Y-137404381D02*
X139904762Y-136404381D01*
X139809524Y-136547238D01*
X139714286Y-136642476D01*
X139619048Y-136690095D01*
X140571429Y-136499619D02*
X140619048Y-136452000D01*
X140714286Y-136404381D01*
X140952382Y-136404381D01*
X141047620Y-136452000D01*
X141095239Y-136499619D01*
X141142858Y-136594857D01*
X141142858Y-136690095D01*
X141095239Y-136832952D01*
X140523810Y-137404381D01*
X141142858Y-137404381D01*
X53855881Y-73636095D02*
X52855881Y-73636095D01*
X52855881Y-73398000D01*
X52903500Y-73255142D01*
X52998738Y-73159904D01*
X53093976Y-73112285D01*
X53284452Y-73064666D01*
X53427310Y-73064666D01*
X53617786Y-73112285D01*
X53713024Y-73159904D01*
X53808262Y-73255142D01*
X53855881Y-73398000D01*
X53855881Y-73636095D01*
X52855881Y-72207523D02*
X52855881Y-72398000D01*
X52903500Y-72493238D01*
X52951119Y-72540857D01*
X53093976Y-72636095D01*
X53284452Y-72683714D01*
X53665405Y-72683714D01*
X53760643Y-72636095D01*
X53808262Y-72588476D01*
X53855881Y-72493238D01*
X53855881Y-72302761D01*
X53808262Y-72207523D01*
X53760643Y-72159904D01*
X53665405Y-72112285D01*
X53427310Y-72112285D01*
X53332071Y-72159904D01*
X53284452Y-72207523D01*
X53236833Y-72302761D01*
X53236833Y-72493238D01*
X53284452Y-72588476D01*
X53332071Y-72636095D01*
X53427310Y-72683714D01*
X136659881Y-73318595D02*
X135659881Y-73318595D01*
X135659881Y-73080500D01*
X135707500Y-72937642D01*
X135802738Y-72842404D01*
X135897976Y-72794785D01*
X136088452Y-72747166D01*
X136231310Y-72747166D01*
X136421786Y-72794785D01*
X136517024Y-72842404D01*
X136612262Y-72937642D01*
X136659881Y-73080500D01*
X136659881Y-73318595D01*
X135659881Y-71842404D02*
X135659881Y-72318595D01*
X136136071Y-72366214D01*
X136088452Y-72318595D01*
X136040833Y-72223357D01*
X136040833Y-71985261D01*
X136088452Y-71890023D01*
X136136071Y-71842404D01*
X136231310Y-71794785D01*
X136469405Y-71794785D01*
X136564643Y-71842404D01*
X136612262Y-71890023D01*
X136659881Y-71985261D01*
X136659881Y-72223357D01*
X136612262Y-72318595D01*
X136564643Y-72366214D01*
X95210334Y-107862643D02*
X95162715Y-107910262D01*
X95019858Y-107957881D01*
X94924620Y-107957881D01*
X94781762Y-107910262D01*
X94686524Y-107815024D01*
X94638905Y-107719786D01*
X94591286Y-107529310D01*
X94591286Y-107386452D01*
X94638905Y-107195976D01*
X94686524Y-107100738D01*
X94781762Y-107005500D01*
X94924620Y-106957881D01*
X95019858Y-106957881D01*
X95162715Y-107005500D01*
X95210334Y-107053119D01*
X95781762Y-107386452D02*
X95686524Y-107338833D01*
X95638905Y-107291214D01*
X95591286Y-107195976D01*
X95591286Y-107148357D01*
X95638905Y-107053119D01*
X95686524Y-107005500D01*
X95781762Y-106957881D01*
X95972239Y-106957881D01*
X96067477Y-107005500D01*
X96115096Y-107053119D01*
X96162715Y-107148357D01*
X96162715Y-107195976D01*
X96115096Y-107291214D01*
X96067477Y-107338833D01*
X95972239Y-107386452D01*
X95781762Y-107386452D01*
X95686524Y-107434071D01*
X95638905Y-107481690D01*
X95591286Y-107576929D01*
X95591286Y-107767405D01*
X95638905Y-107862643D01*
X95686524Y-107910262D01*
X95781762Y-107957881D01*
X95972239Y-107957881D01*
X96067477Y-107910262D01*
X96115096Y-107862643D01*
X96162715Y-107767405D01*
X96162715Y-107576929D01*
X96115096Y-107481690D01*
X96067477Y-107434071D01*
X95972239Y-107386452D01*
X123531405Y-72905881D02*
X123531405Y-71905881D01*
X123769500Y-71905881D01*
X123912358Y-71953500D01*
X124007596Y-72048738D01*
X124055215Y-72143976D01*
X124102834Y-72334452D01*
X124102834Y-72477310D01*
X124055215Y-72667786D01*
X124007596Y-72763024D01*
X123912358Y-72858262D01*
X123769500Y-72905881D01*
X123531405Y-72905881D01*
X125055215Y-72905881D02*
X124483786Y-72905881D01*
X124769500Y-72905881D02*
X124769500Y-71905881D01*
X124674262Y-72048738D01*
X124579024Y-72143976D01*
X124483786Y-72191595D01*
X64031905Y-73858381D02*
X64031905Y-72858381D01*
X64270000Y-72858381D01*
X64412858Y-72906000D01*
X64508096Y-73001238D01*
X64555715Y-73096476D01*
X64603334Y-73286952D01*
X64603334Y-73429810D01*
X64555715Y-73620286D01*
X64508096Y-73715524D01*
X64412858Y-73810762D01*
X64270000Y-73858381D01*
X64031905Y-73858381D01*
X64984286Y-72953619D02*
X65031905Y-72906000D01*
X65127143Y-72858381D01*
X65365239Y-72858381D01*
X65460477Y-72906000D01*
X65508096Y-72953619D01*
X65555715Y-73048857D01*
X65555715Y-73144095D01*
X65508096Y-73286952D01*
X64936667Y-73858381D01*
X65555715Y-73858381D01*
X125436334Y-77731881D02*
X125103000Y-77255690D01*
X124864905Y-77731881D02*
X124864905Y-76731881D01*
X125245858Y-76731881D01*
X125341096Y-76779500D01*
X125388715Y-76827119D01*
X125436334Y-76922357D01*
X125436334Y-77065214D01*
X125388715Y-77160452D01*
X125341096Y-77208071D01*
X125245858Y-77255690D01*
X124864905Y-77255690D01*
X126388715Y-77731881D02*
X125817286Y-77731881D01*
X126103000Y-77731881D02*
X126103000Y-76731881D01*
X126007762Y-76874738D01*
X125912524Y-76969976D01*
X125817286Y-77017595D01*
X64095334Y-78239881D02*
X63762000Y-77763690D01*
X63523905Y-78239881D02*
X63523905Y-77239881D01*
X63904858Y-77239881D01*
X64000096Y-77287500D01*
X64047715Y-77335119D01*
X64095334Y-77430357D01*
X64095334Y-77573214D01*
X64047715Y-77668452D01*
X64000096Y-77716071D01*
X63904858Y-77763690D01*
X63523905Y-77763690D01*
X64428667Y-77239881D02*
X65047715Y-77239881D01*
X64714381Y-77620833D01*
X64857239Y-77620833D01*
X64952477Y-77668452D01*
X65000096Y-77716071D01*
X65047715Y-77811310D01*
X65047715Y-78049405D01*
X65000096Y-78144643D01*
X64952477Y-78192262D01*
X64857239Y-78239881D01*
X64571524Y-78239881D01*
X64476286Y-78192262D01*
X64428667Y-78144643D01*
X61875943Y-126455466D02*
X61923562Y-126503085D01*
X61971181Y-126645942D01*
X61971181Y-126741180D01*
X61923562Y-126884038D01*
X61828324Y-126979276D01*
X61733086Y-127026895D01*
X61542610Y-127074514D01*
X61399752Y-127074514D01*
X61209276Y-127026895D01*
X61114038Y-126979276D01*
X61018800Y-126884038D01*
X60971181Y-126741180D01*
X60971181Y-126645942D01*
X61018800Y-126503085D01*
X61066419Y-126455466D01*
X61304514Y-125598323D02*
X61971181Y-125598323D01*
X60923562Y-125836419D02*
X61637848Y-126074514D01*
X61637848Y-125455466D01*
X116181143Y-126201466D02*
X116228762Y-126249085D01*
X116276381Y-126391942D01*
X116276381Y-126487180D01*
X116228762Y-126630038D01*
X116133524Y-126725276D01*
X116038286Y-126772895D01*
X115847810Y-126820514D01*
X115704952Y-126820514D01*
X115514476Y-126772895D01*
X115419238Y-126725276D01*
X115324000Y-126630038D01*
X115276381Y-126487180D01*
X115276381Y-126391942D01*
X115324000Y-126249085D01*
X115371619Y-126201466D01*
X115276381Y-125296704D02*
X115276381Y-125772895D01*
X115752571Y-125820514D01*
X115704952Y-125772895D01*
X115657333Y-125677657D01*
X115657333Y-125439561D01*
X115704952Y-125344323D01*
X115752571Y-125296704D01*
X115847810Y-125249085D01*
X116085905Y-125249085D01*
X116181143Y-125296704D01*
X116228762Y-125344323D01*
X116276381Y-125439561D01*
X116276381Y-125677657D01*
X116228762Y-125772895D01*
X116181143Y-125820514D01*
X75642743Y-126607866D02*
X75690362Y-126655485D01*
X75737981Y-126798342D01*
X75737981Y-126893580D01*
X75690362Y-127036438D01*
X75595124Y-127131676D01*
X75499886Y-127179295D01*
X75309410Y-127226914D01*
X75166552Y-127226914D01*
X74976076Y-127179295D01*
X74880838Y-127131676D01*
X74785600Y-127036438D01*
X74737981Y-126893580D01*
X74737981Y-126798342D01*
X74785600Y-126655485D01*
X74833219Y-126607866D01*
X74737981Y-125750723D02*
X74737981Y-125941200D01*
X74785600Y-126036438D01*
X74833219Y-126084057D01*
X74976076Y-126179295D01*
X75166552Y-126226914D01*
X75547505Y-126226914D01*
X75642743Y-126179295D01*
X75690362Y-126131676D01*
X75737981Y-126036438D01*
X75737981Y-125845961D01*
X75690362Y-125750723D01*
X75642743Y-125703104D01*
X75547505Y-125655485D01*
X75309410Y-125655485D01*
X75214171Y-125703104D01*
X75166552Y-125750723D01*
X75118933Y-125845961D01*
X75118933Y-126036438D01*
X75166552Y-126131676D01*
X75214171Y-126179295D01*
X75309410Y-126226914D01*
X129795543Y-126049066D02*
X129843162Y-126096685D01*
X129890781Y-126239542D01*
X129890781Y-126334780D01*
X129843162Y-126477638D01*
X129747924Y-126572876D01*
X129652686Y-126620495D01*
X129462210Y-126668114D01*
X129319352Y-126668114D01*
X129128876Y-126620495D01*
X129033638Y-126572876D01*
X128938400Y-126477638D01*
X128890781Y-126334780D01*
X128890781Y-126239542D01*
X128938400Y-126096685D01*
X128986019Y-126049066D01*
X128890781Y-125715733D02*
X128890781Y-125049066D01*
X129890781Y-125477638D01*
X124610905Y-66365381D02*
X124610905Y-65365381D01*
X124849000Y-65365381D01*
X124991858Y-65413000D01*
X125087096Y-65508238D01*
X125134715Y-65603476D01*
X125182334Y-65793952D01*
X125182334Y-65936810D01*
X125134715Y-66127286D01*
X125087096Y-66222524D01*
X124991858Y-66317762D01*
X124849000Y-66365381D01*
X124610905Y-66365381D01*
X125515667Y-65365381D02*
X126134715Y-65365381D01*
X125801381Y-65746333D01*
X125944239Y-65746333D01*
X126039477Y-65793952D01*
X126087096Y-65841571D01*
X126134715Y-65936810D01*
X126134715Y-66174905D01*
X126087096Y-66270143D01*
X126039477Y-66317762D01*
X125944239Y-66365381D01*
X125658524Y-66365381D01*
X125563286Y-66317762D01*
X125515667Y-66270143D01*
X63396905Y-67190881D02*
X63396905Y-66190881D01*
X63635000Y-66190881D01*
X63777858Y-66238500D01*
X63873096Y-66333738D01*
X63920715Y-66428976D01*
X63968334Y-66619452D01*
X63968334Y-66762310D01*
X63920715Y-66952786D01*
X63873096Y-67048024D01*
X63777858Y-67143262D01*
X63635000Y-67190881D01*
X63396905Y-67190881D01*
X64825477Y-66524214D02*
X64825477Y-67190881D01*
X64587381Y-66143262D02*
X64349286Y-66857548D01*
X64968334Y-66857548D01*
M02*
