G04 #@! TF.FileFunction,Soldermask,Top*
%FSLAX46Y46*%
G04 Gerber Fmt 4.6, Leading zero omitted, Abs format (unit mm)*
G04 Created by KiCad (PCBNEW 4.0.7) date 07/12/19 11:54:22*
%MOMM*%
%LPD*%
G01*
G04 APERTURE LIST*
%ADD10C,0.100000*%
%ADD11R,3.400000X3.400000*%
%ADD12C,3.400000*%
%ADD13C,2.800000*%
%ADD14C,11.100000*%
%ADD15C,9.900000*%
%ADD16C,16.000000*%
%ADD17C,18.000000*%
%ADD18R,2.900000X4.900000*%
%ADD19O,2.900000X4.900000*%
%ADD20O,2.800000X2.800000*%
%ADD21C,4.464000*%
%ADD22R,2.600000X2.600000*%
%ADD23O,2.600000X2.600000*%
%ADD24R,3.000000X3.000000*%
%ADD25O,3.000000X3.000000*%
%ADD26C,2.500000*%
G04 APERTURE END LIST*
D10*
D11*
X134874000Y-83820000D03*
D12*
X129794000Y-83820000D03*
D13*
X115062000Y-98552000D03*
X115062000Y-88552000D03*
X106496000Y-93544000D03*
X83996000Y-93544000D03*
X74676000Y-98806000D03*
X74676000Y-88806000D03*
D11*
X55880000Y-83820000D03*
D12*
X60960000Y-83820000D03*
D14*
X94996000Y-54610000D03*
D15*
X96266000Y-133858000D03*
D16*
X134874000Y-101346000D03*
D17*
X55372000Y-101092000D03*
D18*
X102616000Y-81280000D03*
D19*
X108066000Y-81280000D03*
X113516000Y-81280000D03*
D18*
X76200000Y-81534000D03*
D19*
X81650000Y-81534000D03*
X87100000Y-81534000D03*
D13*
X122428000Y-98298000D03*
D20*
X122428000Y-83058000D03*
D13*
X67564000Y-98552000D03*
D20*
X67564000Y-83312000D03*
D21*
X50000000Y-50000000D03*
X140000000Y-50000000D03*
X50000000Y-140000000D03*
X140000000Y-140000000D03*
D22*
X53340000Y-67818000D03*
D23*
X53340000Y-77978000D03*
D22*
X136144000Y-67564000D03*
D23*
X136144000Y-77724000D03*
D13*
X106680000Y-107442000D03*
X84180000Y-107442000D03*
D22*
X129286000Y-72644000D03*
D23*
X119126000Y-72644000D03*
D22*
X59690000Y-73406000D03*
D23*
X69850000Y-73406000D03*
D13*
X119126000Y-77216000D03*
D20*
X131826000Y-77216000D03*
D13*
X70104000Y-77724000D03*
D20*
X57404000Y-77724000D03*
D13*
X61468000Y-112522000D03*
X61468000Y-140022000D03*
X115824000Y-139700000D03*
X115824000Y-112200000D03*
X75184000Y-112776000D03*
X75184000Y-140276000D03*
X129286000Y-139700000D03*
X129286000Y-112200000D03*
D24*
X131572000Y-66040000D03*
D25*
X118872000Y-66040000D03*
D24*
X70612000Y-66802000D03*
D25*
X57912000Y-66802000D03*
D26*
G36*
X99357784Y-60242764D02*
X89413776Y-60445703D01*
X89624112Y-49928912D01*
X90118847Y-49764000D01*
X99563250Y-49764000D01*
X99357784Y-60242764D01*
X99357784Y-60242764D01*
G37*
X99357784Y-60242764D02*
X89413776Y-60445703D01*
X89624112Y-49928912D01*
X90118847Y-49764000D01*
X99563250Y-49764000D01*
X99357784Y-60242764D01*
G36*
X102128000Y-139466000D02*
X90658000Y-139466000D01*
X90658000Y-129266000D01*
X102128000Y-129266000D01*
X102128000Y-139466000D01*
X102128000Y-139466000D01*
G37*
X102128000Y-139466000D02*
X90658000Y-139466000D01*
X90658000Y-129266000D01*
X102128000Y-129266000D01*
X102128000Y-139466000D01*
M02*
