M48
;DRILL file {KiCad 4.0.7} date 02/11/18 22:43:31
;FORMAT={-:-/ absolute / metric / decimal}
FMAT,2
METRIC,TZ
T1C1.100
T2C1.200
T3C1.300
T4C1.500
T5C1.520
T6C3.048
T7C3.800
%
G90
G05
M71
T1
X53.34Y-67.818
X53.34Y-77.978
X59.69Y-73.406
X69.85Y-73.406
X119.126Y-72.644
X129.286Y-72.644
X136.144Y-67.564
X136.144Y-77.724
T2
X57.404Y-77.724
X61.468Y-112.522
X61.468Y-140.022
X67.564Y-83.312
X67.564Y-98.552
X70.104Y-77.724
X74.676Y-88.806
X74.676Y-98.806
X75.184Y-112.776
X75.184Y-140.276
X83.996Y-93.544
X84.18Y-107.442
X106.496Y-93.544
X106.68Y-107.442
X115.062Y-88.552
X115.062Y-98.552
X115.824Y-112.2
X115.824Y-139.7
X119.126Y-77.216
X122.428Y-83.058
X122.428Y-98.298
X129.286Y-112.2
X129.286Y-139.7
X131.826Y-77.216
T3
X57.912Y-66.802
X70.612Y-66.802
X118.872Y-66.04
X131.572Y-66.04
T4
X76.2Y-81.534
X81.65Y-81.534
X87.1Y-81.534
X102.616Y-81.28
X108.066Y-81.28
X113.516Y-81.28
T5
X55.88Y-83.82
X60.96Y-83.82
X129.794Y-83.82
X134.874Y-83.82
T6
X50.Y-50.
X50.Y-140.
X140.Y-50.
X140.Y-140.
T7
X55.372Y-101.092
X94.996Y-54.61
X96.266Y-133.858
X134.874Y-101.346
T0
M30
