G04 #@! TF.FileFunction,Copper,L2,Bot,Signal*
%FSLAX46Y46*%
G04 Gerber Fmt 4.6, Leading zero omitted, Abs format (unit mm)*
G04 Created by KiCad (PCBNEW 4.0.7) date 07/12/19 11:54:22*
%MOMM*%
%LPD*%
G01*
G04 APERTURE LIST*
%ADD10C,0.100000*%
%ADD11R,3.000000X3.000000*%
%ADD12C,3.000000*%
%ADD13C,2.400000*%
%ADD14C,5.100000*%
%ADD15C,3.900000*%
%ADD16C,10.000000*%
%ADD17C,12.000000*%
%ADD18R,2.500000X4.500000*%
%ADD19O,2.500000X4.500000*%
%ADD20O,2.400000X2.400000*%
%ADD21C,4.064000*%
%ADD22R,2.200000X2.200000*%
%ADD23O,2.200000X2.200000*%
%ADD24R,2.600000X2.600000*%
%ADD25O,2.600000X2.600000*%
%ADD26C,2.000000*%
%ADD27C,3.000000*%
%ADD28C,6.000000*%
%ADD29C,2.500000*%
G04 APERTURE END LIST*
D10*
D11*
X134874000Y-83820000D03*
D12*
X129794000Y-83820000D03*
D13*
X115062000Y-98552000D03*
X115062000Y-88552000D03*
X106496000Y-93544000D03*
X83996000Y-93544000D03*
X74676000Y-98806000D03*
X74676000Y-88806000D03*
D11*
X55880000Y-83820000D03*
D12*
X60960000Y-83820000D03*
D14*
X94996000Y-54610000D03*
D15*
X96266000Y-133858000D03*
D16*
X134874000Y-101346000D03*
D17*
X55372000Y-101092000D03*
D18*
X102616000Y-81280000D03*
D19*
X108066000Y-81280000D03*
X113516000Y-81280000D03*
D18*
X76200000Y-81534000D03*
D19*
X81650000Y-81534000D03*
X87100000Y-81534000D03*
D13*
X122428000Y-98298000D03*
D20*
X122428000Y-83058000D03*
D13*
X67564000Y-98552000D03*
D20*
X67564000Y-83312000D03*
D21*
X50000000Y-50000000D03*
X140000000Y-50000000D03*
X50000000Y-140000000D03*
X140000000Y-140000000D03*
D22*
X53340000Y-67818000D03*
D23*
X53340000Y-77978000D03*
D22*
X136144000Y-67564000D03*
D23*
X136144000Y-77724000D03*
D13*
X106680000Y-107442000D03*
X84180000Y-107442000D03*
D22*
X129286000Y-72644000D03*
D23*
X119126000Y-72644000D03*
D22*
X59690000Y-73406000D03*
D23*
X69850000Y-73406000D03*
D13*
X119126000Y-77216000D03*
D20*
X131826000Y-77216000D03*
D13*
X70104000Y-77724000D03*
D20*
X57404000Y-77724000D03*
D13*
X61468000Y-112522000D03*
X61468000Y-140022000D03*
X115824000Y-139700000D03*
X115824000Y-112200000D03*
X75184000Y-112776000D03*
X75184000Y-140276000D03*
X129286000Y-139700000D03*
X129286000Y-112200000D03*
D24*
X131572000Y-66040000D03*
D25*
X118872000Y-66040000D03*
D24*
X70612000Y-66802000D03*
D25*
X57912000Y-66802000D03*
D26*
X136144000Y-77724000D02*
X135636000Y-77724000D01*
X135636000Y-77724000D02*
X132842000Y-80518000D01*
X132842000Y-80518000D02*
X130302000Y-80518000D01*
X130302000Y-80518000D02*
X129794000Y-81026000D01*
X129794000Y-81026000D02*
X129794000Y-83820000D01*
X70612000Y-66802000D02*
X81650000Y-66802000D01*
X81650000Y-66802000D02*
X81650000Y-65924000D01*
X113516000Y-81280000D02*
X113516000Y-83544000D01*
X115062000Y-85090000D02*
X115062000Y-88552000D01*
X113516000Y-83544000D02*
X115062000Y-85090000D01*
X129794000Y-83820000D02*
X130048000Y-83820000D01*
X113516000Y-81280000D02*
X118364000Y-81280000D01*
X125984000Y-80010000D02*
X129794000Y-83820000D01*
X119634000Y-80010000D02*
X125984000Y-80010000D01*
X118364000Y-81280000D02*
X119634000Y-80010000D01*
D27*
X113516000Y-71606000D02*
X94996000Y-54610000D01*
X113516000Y-81280000D02*
X113516000Y-71606000D01*
D28*
X81650000Y-81534000D02*
X81650000Y-65924000D01*
X81650000Y-65924000D02*
X94996000Y-54610000D01*
X55372000Y-101092000D02*
X55372000Y-110439200D01*
X57454800Y-112522000D02*
X61468000Y-112522000D01*
X55372000Y-110439200D02*
X57454800Y-112522000D01*
X55372000Y-101092000D02*
X60096400Y-101092000D01*
X60096400Y-101092000D02*
X65278000Y-106273600D01*
X68681600Y-106273600D02*
X75184000Y-112776000D01*
X65278000Y-106273600D02*
X68681600Y-106273600D01*
X55372000Y-101092000D02*
X57810400Y-101092000D01*
X57810400Y-101092000D02*
X60807600Y-98094800D01*
X60807600Y-98094800D02*
X60807600Y-97028000D01*
X55372000Y-101092000D02*
X61620400Y-107340400D01*
X61620400Y-107340400D02*
X61620400Y-112369600D01*
X61620400Y-112369600D02*
X61468000Y-112522000D01*
D26*
X122428000Y-83058000D02*
X122428000Y-86360000D01*
X116840000Y-91948000D02*
X106496000Y-91948000D01*
X122428000Y-86360000D02*
X116840000Y-91948000D01*
D28*
X106496000Y-93544000D02*
X106496000Y-91948000D01*
X106496000Y-91948000D02*
X106496000Y-88576000D01*
X108066000Y-87006000D02*
X108066000Y-81280000D01*
X106496000Y-88576000D02*
X108066000Y-87006000D01*
X55372000Y-101092000D02*
X56134000Y-101092000D01*
X106496000Y-93656000D02*
X106496000Y-93544000D01*
D26*
X57912000Y-66802000D02*
X60706000Y-66802000D01*
X64262000Y-80518000D02*
X60960000Y-83820000D01*
X64262000Y-70358000D02*
X64262000Y-80518000D01*
X60706000Y-66802000D02*
X64262000Y-70358000D01*
X53340000Y-77978000D02*
X53340000Y-78740000D01*
X53340000Y-78740000D02*
X55880000Y-80772000D01*
X55880000Y-80772000D02*
X57912000Y-80772000D01*
X57912000Y-80772000D02*
X60960000Y-83820000D01*
X136144000Y-67564000D02*
X135890000Y-67564000D01*
X135890000Y-67564000D02*
X134112000Y-69342000D01*
X134112000Y-69342000D02*
X122174000Y-69342000D01*
X122174000Y-69342000D02*
X119126000Y-72390000D01*
X119126000Y-72390000D02*
X119126000Y-72644000D01*
X70104000Y-77724000D02*
X72390000Y-77724000D01*
X72390000Y-77724000D02*
X76200000Y-81534000D01*
D29*
G36*
X102185867Y-128244948D02*
X102766917Y-140447000D01*
X78152310Y-140447000D01*
X78113460Y-139558903D01*
X77762505Y-138711623D01*
X77174006Y-138639548D01*
X75537553Y-140276000D01*
X75551696Y-140290143D01*
X75394838Y-140447000D01*
X74973162Y-140447000D01*
X74816305Y-140290143D01*
X74830447Y-140276000D01*
X73193994Y-138639548D01*
X72605495Y-138711623D01*
X72203111Y-139817455D01*
X72230651Y-140447000D01*
X64447422Y-140447000D01*
X64397460Y-139304903D01*
X64046505Y-138457623D01*
X63458006Y-138385548D01*
X61821553Y-140022000D01*
X61835696Y-140036143D01*
X61482143Y-140389696D01*
X61468000Y-140375553D01*
X61453858Y-140389696D01*
X61100305Y-140036143D01*
X61114447Y-140022000D01*
X59477994Y-138385548D01*
X58889495Y-138457623D01*
X58487111Y-139563455D01*
X58525762Y-140447000D01*
X58037845Y-140447000D01*
X57922845Y-138031994D01*
X59831548Y-138031994D01*
X61468000Y-139668447D01*
X62850452Y-138285994D01*
X73547548Y-138285994D01*
X75184000Y-139922447D01*
X76820452Y-138285994D01*
X76748377Y-137697495D01*
X75642545Y-137295111D01*
X74466903Y-137346540D01*
X73619623Y-137697495D01*
X73547548Y-138285994D01*
X62850452Y-138285994D01*
X63104452Y-138031994D01*
X63032377Y-137443495D01*
X61926545Y-137041111D01*
X60750903Y-137092540D01*
X59903623Y-137443495D01*
X59831548Y-138031994D01*
X57922845Y-138031994D01*
X57844689Y-136390700D01*
X94086854Y-136390700D01*
X94250912Y-137056857D01*
X95628451Y-137584499D01*
X97103051Y-137544816D01*
X98281088Y-137056857D01*
X98445146Y-136390700D01*
X96266000Y-134211553D01*
X94086854Y-136390700D01*
X57844689Y-136390700D01*
X57693724Y-133220451D01*
X92539501Y-133220451D01*
X92579184Y-134695051D01*
X93067143Y-135873088D01*
X93733300Y-136037146D01*
X95912447Y-133858000D01*
X96619553Y-133858000D01*
X98798700Y-136037146D01*
X99464857Y-135873088D01*
X99992499Y-134495549D01*
X99952816Y-133020949D01*
X99464857Y-131842912D01*
X98798700Y-131678854D01*
X96619553Y-133858000D01*
X95912447Y-133858000D01*
X93733300Y-131678854D01*
X93067143Y-131842912D01*
X92539501Y-133220451D01*
X57693724Y-133220451D01*
X57603479Y-131325300D01*
X94086854Y-131325300D01*
X96266000Y-133504447D01*
X98445146Y-131325300D01*
X98281088Y-130659143D01*
X96903549Y-130131501D01*
X95428949Y-130171184D01*
X94250912Y-130659143D01*
X94086854Y-131325300D01*
X57603479Y-131325300D01*
X57445278Y-128003107D01*
X102185867Y-128244948D01*
X102185867Y-128244948D01*
G37*
X102185867Y-128244948D02*
X102766917Y-140447000D01*
X78152310Y-140447000D01*
X78113460Y-139558903D01*
X77762505Y-138711623D01*
X77174006Y-138639548D01*
X75537553Y-140276000D01*
X75551696Y-140290143D01*
X75394838Y-140447000D01*
X74973162Y-140447000D01*
X74816305Y-140290143D01*
X74830447Y-140276000D01*
X73193994Y-138639548D01*
X72605495Y-138711623D01*
X72203111Y-139817455D01*
X72230651Y-140447000D01*
X64447422Y-140447000D01*
X64397460Y-139304903D01*
X64046505Y-138457623D01*
X63458006Y-138385548D01*
X61821553Y-140022000D01*
X61835696Y-140036143D01*
X61482143Y-140389696D01*
X61468000Y-140375553D01*
X61453858Y-140389696D01*
X61100305Y-140036143D01*
X61114447Y-140022000D01*
X59477994Y-138385548D01*
X58889495Y-138457623D01*
X58487111Y-139563455D01*
X58525762Y-140447000D01*
X58037845Y-140447000D01*
X57922845Y-138031994D01*
X59831548Y-138031994D01*
X61468000Y-139668447D01*
X62850452Y-138285994D01*
X73547548Y-138285994D01*
X75184000Y-139922447D01*
X76820452Y-138285994D01*
X76748377Y-137697495D01*
X75642545Y-137295111D01*
X74466903Y-137346540D01*
X73619623Y-137697495D01*
X73547548Y-138285994D01*
X62850452Y-138285994D01*
X63104452Y-138031994D01*
X63032377Y-137443495D01*
X61926545Y-137041111D01*
X60750903Y-137092540D01*
X59903623Y-137443495D01*
X59831548Y-138031994D01*
X57922845Y-138031994D01*
X57844689Y-136390700D01*
X94086854Y-136390700D01*
X94250912Y-137056857D01*
X95628451Y-137584499D01*
X97103051Y-137544816D01*
X98281088Y-137056857D01*
X98445146Y-136390700D01*
X96266000Y-134211553D01*
X94086854Y-136390700D01*
X57844689Y-136390700D01*
X57693724Y-133220451D01*
X92539501Y-133220451D01*
X92579184Y-134695051D01*
X93067143Y-135873088D01*
X93733300Y-136037146D01*
X95912447Y-133858000D01*
X96619553Y-133858000D01*
X98798700Y-136037146D01*
X99464857Y-135873088D01*
X99992499Y-134495549D01*
X99952816Y-133020949D01*
X99464857Y-131842912D01*
X98798700Y-131678854D01*
X96619553Y-133858000D01*
X95912447Y-133858000D01*
X93733300Y-131678854D01*
X93067143Y-131842912D01*
X92539501Y-133220451D01*
X57693724Y-133220451D01*
X57603479Y-131325300D01*
X94086854Y-131325300D01*
X96266000Y-133504447D01*
X98445146Y-131325300D01*
X98281088Y-130659143D01*
X96903549Y-130131501D01*
X95428949Y-130171184D01*
X94250912Y-130659143D01*
X94086854Y-131325300D01*
X57603479Y-131325300D01*
X57445278Y-128003107D01*
X102185867Y-128244948D01*
G36*
X114959102Y-70175970D02*
X114550167Y-70787985D01*
X114180983Y-72644000D01*
X114550167Y-74500015D01*
X114762217Y-74817370D01*
X114176861Y-76227065D01*
X114176646Y-76474000D01*
X112789540Y-76474000D01*
X110649113Y-75043813D01*
X108066000Y-74530000D01*
X105482887Y-75043813D01*
X104919940Y-75419962D01*
X103866000Y-75206534D01*
X101366000Y-75206534D01*
X99976333Y-75468018D01*
X98700009Y-76289310D01*
X98573816Y-76474000D01*
X90026537Y-76474000D01*
X89013417Y-75797055D01*
X87100000Y-75416453D01*
X85186583Y-75797055D01*
X84173463Y-76474000D01*
X79979926Y-76474000D01*
X79482000Y-76133781D01*
X79482000Y-57576302D01*
X92383251Y-57576302D01*
X92620652Y-58304711D01*
X94215370Y-58932474D01*
X95928931Y-58902180D01*
X97371348Y-58304711D01*
X97608749Y-57576302D01*
X94996000Y-54963553D01*
X92383251Y-57576302D01*
X79482000Y-57576302D01*
X79482000Y-53829370D01*
X90673526Y-53829370D01*
X90703820Y-55542931D01*
X91301289Y-56985348D01*
X92029698Y-57222749D01*
X94642447Y-54610000D01*
X95349553Y-54610000D01*
X97962302Y-57222749D01*
X98690711Y-56985348D01*
X99318474Y-55390630D01*
X99288180Y-53677069D01*
X98690711Y-52234652D01*
X97962302Y-51997251D01*
X95349553Y-54610000D01*
X94642447Y-54610000D01*
X92029698Y-51997251D01*
X91301289Y-52234652D01*
X90673526Y-53829370D01*
X79482000Y-53829370D01*
X79482000Y-52324000D01*
X79480820Y-52269703D01*
X79453603Y-51643698D01*
X92383251Y-51643698D01*
X94996000Y-54256447D01*
X97608749Y-51643698D01*
X97371348Y-50915289D01*
X95776630Y-50287526D01*
X94063069Y-50317820D01*
X92620652Y-50915289D01*
X92383251Y-51643698D01*
X79453603Y-51643698D01*
X79362355Y-49545000D01*
X114623640Y-49545000D01*
X114959102Y-70175970D01*
X114959102Y-70175970D01*
G37*
X114959102Y-70175970D02*
X114550167Y-70787985D01*
X114180983Y-72644000D01*
X114550167Y-74500015D01*
X114762217Y-74817370D01*
X114176861Y-76227065D01*
X114176646Y-76474000D01*
X112789540Y-76474000D01*
X110649113Y-75043813D01*
X108066000Y-74530000D01*
X105482887Y-75043813D01*
X104919940Y-75419962D01*
X103866000Y-75206534D01*
X101366000Y-75206534D01*
X99976333Y-75468018D01*
X98700009Y-76289310D01*
X98573816Y-76474000D01*
X90026537Y-76474000D01*
X89013417Y-75797055D01*
X87100000Y-75416453D01*
X85186583Y-75797055D01*
X84173463Y-76474000D01*
X79979926Y-76474000D01*
X79482000Y-76133781D01*
X79482000Y-57576302D01*
X92383251Y-57576302D01*
X92620652Y-58304711D01*
X94215370Y-58932474D01*
X95928931Y-58902180D01*
X97371348Y-58304711D01*
X97608749Y-57576302D01*
X94996000Y-54963553D01*
X92383251Y-57576302D01*
X79482000Y-57576302D01*
X79482000Y-53829370D01*
X90673526Y-53829370D01*
X90703820Y-55542931D01*
X91301289Y-56985348D01*
X92029698Y-57222749D01*
X94642447Y-54610000D01*
X95349553Y-54610000D01*
X97962302Y-57222749D01*
X98690711Y-56985348D01*
X99318474Y-55390630D01*
X99288180Y-53677069D01*
X98690711Y-52234652D01*
X97962302Y-51997251D01*
X95349553Y-54610000D01*
X94642447Y-54610000D01*
X92029698Y-51997251D01*
X91301289Y-52234652D01*
X90673526Y-53829370D01*
X79482000Y-53829370D01*
X79482000Y-52324000D01*
X79480820Y-52269703D01*
X79453603Y-51643698D01*
X92383251Y-51643698D01*
X94996000Y-54256447D01*
X97608749Y-51643698D01*
X97371348Y-50915289D01*
X95776630Y-50287526D01*
X94063069Y-50317820D01*
X92620652Y-50915289D01*
X92383251Y-51643698D01*
X79453603Y-51643698D01*
X79362355Y-49545000D01*
X114623640Y-49545000D01*
X114959102Y-70175970D01*
G36*
X97542534Y-83530000D02*
X97804018Y-84919667D01*
X98625310Y-86195991D01*
X99878458Y-87052231D01*
X101366000Y-87353466D01*
X103866000Y-87353466D01*
X105255667Y-87091982D01*
X106531991Y-86270690D01*
X107274366Y-85184189D01*
X107350151Y-85201579D01*
X107816000Y-84836304D01*
X107816000Y-82022000D01*
X108316000Y-82022000D01*
X108316000Y-84836304D01*
X108781849Y-85201579D01*
X108986142Y-85154701D01*
X109076433Y-85104654D01*
X109127572Y-85361747D01*
X110157243Y-86902757D01*
X110312000Y-87057514D01*
X110312000Y-87083485D01*
X110112861Y-87563065D01*
X110111143Y-89532296D01*
X110863148Y-91352287D01*
X112254389Y-92745959D01*
X114073065Y-93501139D01*
X115336000Y-93502241D01*
X115336000Y-93602237D01*
X114081704Y-93601143D01*
X112261713Y-94353148D01*
X110868041Y-95744389D01*
X110112861Y-97563065D01*
X110111143Y-99532296D01*
X110863148Y-101352287D01*
X112254389Y-102745959D01*
X114073065Y-103501139D01*
X114320000Y-103501354D01*
X114320000Y-107465533D01*
X113023713Y-108001148D01*
X111630041Y-109392389D01*
X110874861Y-111211065D01*
X110873143Y-113180296D01*
X111625148Y-115000287D01*
X113016389Y-116393959D01*
X114320000Y-116935265D01*
X114320000Y-121686000D01*
X64372001Y-121686000D01*
X56876000Y-116915818D01*
X56876000Y-114512006D01*
X59831548Y-114512006D01*
X59903623Y-115100505D01*
X61009455Y-115502889D01*
X62185097Y-115451460D01*
X63032377Y-115100505D01*
X63073343Y-114766006D01*
X73547548Y-114766006D01*
X73619623Y-115354505D01*
X74725455Y-115756889D01*
X75901097Y-115705460D01*
X76748377Y-115354505D01*
X76820452Y-114766006D01*
X75184000Y-113129553D01*
X73547548Y-114766006D01*
X63073343Y-114766006D01*
X63104452Y-114512006D01*
X61468000Y-112875553D01*
X59831548Y-114512006D01*
X56876000Y-114512006D01*
X56876000Y-112063455D01*
X58487111Y-112063455D01*
X58538540Y-113239097D01*
X58889495Y-114086377D01*
X59477994Y-114158452D01*
X61114447Y-112522000D01*
X61821553Y-112522000D01*
X63458006Y-114158452D01*
X64046505Y-114086377D01*
X64448889Y-112980545D01*
X64419882Y-112317455D01*
X72203111Y-112317455D01*
X72254540Y-113493097D01*
X72605495Y-114340377D01*
X73193994Y-114412452D01*
X74830447Y-112776000D01*
X75537553Y-112776000D01*
X77174006Y-114412452D01*
X77762505Y-114340377D01*
X78164889Y-113234545D01*
X78113460Y-112058903D01*
X77762505Y-111211623D01*
X77174006Y-111139548D01*
X75537553Y-112776000D01*
X74830447Y-112776000D01*
X73193994Y-111139548D01*
X72605495Y-111211623D01*
X72203111Y-112317455D01*
X64419882Y-112317455D01*
X64397460Y-111804903D01*
X64046505Y-110957623D01*
X63458006Y-110885548D01*
X61821553Y-112522000D01*
X61114447Y-112522000D01*
X59477994Y-110885548D01*
X58889495Y-110957623D01*
X58487111Y-112063455D01*
X56876000Y-112063455D01*
X56876000Y-110531994D01*
X59831548Y-110531994D01*
X61468000Y-112168447D01*
X62850452Y-110785994D01*
X73547548Y-110785994D01*
X75184000Y-112422447D01*
X76820452Y-110785994D01*
X76748377Y-110197495D01*
X75642545Y-109795111D01*
X74466903Y-109846540D01*
X73619623Y-110197495D01*
X73547548Y-110785994D01*
X62850452Y-110785994D01*
X63104452Y-110531994D01*
X63032377Y-109943495D01*
X61926545Y-109541111D01*
X60750903Y-109592540D01*
X59903623Y-109943495D01*
X59831548Y-110531994D01*
X56876000Y-110531994D01*
X56876000Y-108853364D01*
X57939659Y-108422296D01*
X79229143Y-108422296D01*
X79981148Y-110242287D01*
X81372389Y-111635959D01*
X83191065Y-112391139D01*
X85160296Y-112392857D01*
X86980287Y-111640852D01*
X88373959Y-110249611D01*
X88713458Y-109432006D01*
X105043548Y-109432006D01*
X105115623Y-110020505D01*
X106221455Y-110422889D01*
X107397097Y-110371460D01*
X108244377Y-110020505D01*
X108316452Y-109432006D01*
X106680000Y-107795553D01*
X105043548Y-109432006D01*
X88713458Y-109432006D01*
X89129139Y-108430935D01*
X89130401Y-106983455D01*
X103699111Y-106983455D01*
X103750540Y-108159097D01*
X104101495Y-109006377D01*
X104689994Y-109078452D01*
X106326447Y-107442000D01*
X107033553Y-107442000D01*
X108670006Y-109078452D01*
X109258505Y-109006377D01*
X109660889Y-107900545D01*
X109609460Y-106724903D01*
X109258505Y-105877623D01*
X108670006Y-105805548D01*
X107033553Y-107442000D01*
X106326447Y-107442000D01*
X104689994Y-105805548D01*
X104101495Y-105877623D01*
X103699111Y-106983455D01*
X89130401Y-106983455D01*
X89130857Y-106461704D01*
X88713654Y-105451994D01*
X105043548Y-105451994D01*
X106680000Y-107088447D01*
X108316452Y-105451994D01*
X108244377Y-104863495D01*
X107138545Y-104461111D01*
X105962903Y-104512540D01*
X105115623Y-104863495D01*
X105043548Y-105451994D01*
X88713654Y-105451994D01*
X88378852Y-104641713D01*
X86987611Y-103248041D01*
X85168935Y-102492861D01*
X83199704Y-102491143D01*
X81379713Y-103243148D01*
X79986041Y-104634389D01*
X79230861Y-106453065D01*
X79229143Y-108422296D01*
X57939659Y-108422296D01*
X59716053Y-107702379D01*
X59816797Y-107635064D01*
X60474697Y-106548251D01*
X55372000Y-101445553D01*
X55357858Y-101459696D01*
X55004304Y-101106142D01*
X55018447Y-101092000D01*
X55004304Y-101077858D01*
X55357858Y-100724304D01*
X55372000Y-100738447D01*
X60474697Y-95635749D01*
X60229078Y-95230000D01*
X63885329Y-95230000D01*
X63370041Y-95744389D01*
X62614861Y-97563065D01*
X62614212Y-98306994D01*
X61982379Y-96747947D01*
X61915064Y-96647203D01*
X60828251Y-95989303D01*
X55725553Y-101092000D01*
X60828251Y-106194697D01*
X61915064Y-105536797D01*
X63117953Y-102694534D01*
X63132545Y-100789345D01*
X63365148Y-101352287D01*
X64756389Y-102745959D01*
X66575065Y-103501139D01*
X68544296Y-103502857D01*
X70364287Y-102750852D01*
X70993098Y-102123138D01*
X71868389Y-102999959D01*
X73687065Y-103755139D01*
X75656296Y-103756857D01*
X77476287Y-103004852D01*
X78869959Y-101613611D01*
X79625139Y-99794935D01*
X79626857Y-97825704D01*
X78874852Y-96005713D01*
X77483611Y-94612041D01*
X77272298Y-94524296D01*
X79045143Y-94524296D01*
X79797148Y-96344287D01*
X81188389Y-97737959D01*
X83007065Y-98493139D01*
X84976296Y-98494857D01*
X86796287Y-97742852D01*
X88189959Y-96351611D01*
X88529458Y-95534006D01*
X104859548Y-95534006D01*
X104931623Y-96122505D01*
X106037455Y-96524889D01*
X107213097Y-96473460D01*
X108060377Y-96122505D01*
X108132452Y-95534006D01*
X106496000Y-93897553D01*
X104859548Y-95534006D01*
X88529458Y-95534006D01*
X88945139Y-94532935D01*
X88946401Y-93085455D01*
X103515111Y-93085455D01*
X103566540Y-94261097D01*
X103917495Y-95108377D01*
X104505994Y-95180452D01*
X106142447Y-93544000D01*
X106849553Y-93544000D01*
X108486006Y-95180452D01*
X109074505Y-95108377D01*
X109476889Y-94002545D01*
X109425460Y-92826903D01*
X109074505Y-91979623D01*
X108486006Y-91907548D01*
X106849553Y-93544000D01*
X106142447Y-93544000D01*
X104505994Y-91907548D01*
X103917495Y-91979623D01*
X103515111Y-93085455D01*
X88946401Y-93085455D01*
X88946857Y-92563704D01*
X88529654Y-91553994D01*
X104859548Y-91553994D01*
X106496000Y-93190447D01*
X108132452Y-91553994D01*
X108060377Y-90965495D01*
X106954545Y-90563111D01*
X105778903Y-90614540D01*
X104931623Y-90965495D01*
X104859548Y-91553994D01*
X88529654Y-91553994D01*
X88194852Y-90743713D01*
X86803611Y-89350041D01*
X84984935Y-88594861D01*
X83015704Y-88593143D01*
X81195713Y-89345148D01*
X79802041Y-90736389D01*
X79046861Y-92555065D01*
X79045143Y-94524296D01*
X77272298Y-94524296D01*
X75664935Y-93856861D01*
X75418000Y-93856646D01*
X75418000Y-93756649D01*
X75656296Y-93756857D01*
X77476287Y-93004852D01*
X78869959Y-91613611D01*
X79625139Y-89794935D01*
X79626808Y-87881562D01*
X81650000Y-88284000D01*
X84233113Y-87770187D01*
X85083432Y-87202022D01*
X85186583Y-87270945D01*
X87100000Y-87651547D01*
X89013417Y-87270945D01*
X90635534Y-86187081D01*
X91719398Y-84564964D01*
X92100000Y-82651547D01*
X92100000Y-82022000D01*
X97542534Y-82022000D01*
X97542534Y-83530000D01*
X97542534Y-83530000D01*
G37*
X97542534Y-83530000D02*
X97804018Y-84919667D01*
X98625310Y-86195991D01*
X99878458Y-87052231D01*
X101366000Y-87353466D01*
X103866000Y-87353466D01*
X105255667Y-87091982D01*
X106531991Y-86270690D01*
X107274366Y-85184189D01*
X107350151Y-85201579D01*
X107816000Y-84836304D01*
X107816000Y-82022000D01*
X108316000Y-82022000D01*
X108316000Y-84836304D01*
X108781849Y-85201579D01*
X108986142Y-85154701D01*
X109076433Y-85104654D01*
X109127572Y-85361747D01*
X110157243Y-86902757D01*
X110312000Y-87057514D01*
X110312000Y-87083485D01*
X110112861Y-87563065D01*
X110111143Y-89532296D01*
X110863148Y-91352287D01*
X112254389Y-92745959D01*
X114073065Y-93501139D01*
X115336000Y-93502241D01*
X115336000Y-93602237D01*
X114081704Y-93601143D01*
X112261713Y-94353148D01*
X110868041Y-95744389D01*
X110112861Y-97563065D01*
X110111143Y-99532296D01*
X110863148Y-101352287D01*
X112254389Y-102745959D01*
X114073065Y-103501139D01*
X114320000Y-103501354D01*
X114320000Y-107465533D01*
X113023713Y-108001148D01*
X111630041Y-109392389D01*
X110874861Y-111211065D01*
X110873143Y-113180296D01*
X111625148Y-115000287D01*
X113016389Y-116393959D01*
X114320000Y-116935265D01*
X114320000Y-121686000D01*
X64372001Y-121686000D01*
X56876000Y-116915818D01*
X56876000Y-114512006D01*
X59831548Y-114512006D01*
X59903623Y-115100505D01*
X61009455Y-115502889D01*
X62185097Y-115451460D01*
X63032377Y-115100505D01*
X63073343Y-114766006D01*
X73547548Y-114766006D01*
X73619623Y-115354505D01*
X74725455Y-115756889D01*
X75901097Y-115705460D01*
X76748377Y-115354505D01*
X76820452Y-114766006D01*
X75184000Y-113129553D01*
X73547548Y-114766006D01*
X63073343Y-114766006D01*
X63104452Y-114512006D01*
X61468000Y-112875553D01*
X59831548Y-114512006D01*
X56876000Y-114512006D01*
X56876000Y-112063455D01*
X58487111Y-112063455D01*
X58538540Y-113239097D01*
X58889495Y-114086377D01*
X59477994Y-114158452D01*
X61114447Y-112522000D01*
X61821553Y-112522000D01*
X63458006Y-114158452D01*
X64046505Y-114086377D01*
X64448889Y-112980545D01*
X64419882Y-112317455D01*
X72203111Y-112317455D01*
X72254540Y-113493097D01*
X72605495Y-114340377D01*
X73193994Y-114412452D01*
X74830447Y-112776000D01*
X75537553Y-112776000D01*
X77174006Y-114412452D01*
X77762505Y-114340377D01*
X78164889Y-113234545D01*
X78113460Y-112058903D01*
X77762505Y-111211623D01*
X77174006Y-111139548D01*
X75537553Y-112776000D01*
X74830447Y-112776000D01*
X73193994Y-111139548D01*
X72605495Y-111211623D01*
X72203111Y-112317455D01*
X64419882Y-112317455D01*
X64397460Y-111804903D01*
X64046505Y-110957623D01*
X63458006Y-110885548D01*
X61821553Y-112522000D01*
X61114447Y-112522000D01*
X59477994Y-110885548D01*
X58889495Y-110957623D01*
X58487111Y-112063455D01*
X56876000Y-112063455D01*
X56876000Y-110531994D01*
X59831548Y-110531994D01*
X61468000Y-112168447D01*
X62850452Y-110785994D01*
X73547548Y-110785994D01*
X75184000Y-112422447D01*
X76820452Y-110785994D01*
X76748377Y-110197495D01*
X75642545Y-109795111D01*
X74466903Y-109846540D01*
X73619623Y-110197495D01*
X73547548Y-110785994D01*
X62850452Y-110785994D01*
X63104452Y-110531994D01*
X63032377Y-109943495D01*
X61926545Y-109541111D01*
X60750903Y-109592540D01*
X59903623Y-109943495D01*
X59831548Y-110531994D01*
X56876000Y-110531994D01*
X56876000Y-108853364D01*
X57939659Y-108422296D01*
X79229143Y-108422296D01*
X79981148Y-110242287D01*
X81372389Y-111635959D01*
X83191065Y-112391139D01*
X85160296Y-112392857D01*
X86980287Y-111640852D01*
X88373959Y-110249611D01*
X88713458Y-109432006D01*
X105043548Y-109432006D01*
X105115623Y-110020505D01*
X106221455Y-110422889D01*
X107397097Y-110371460D01*
X108244377Y-110020505D01*
X108316452Y-109432006D01*
X106680000Y-107795553D01*
X105043548Y-109432006D01*
X88713458Y-109432006D01*
X89129139Y-108430935D01*
X89130401Y-106983455D01*
X103699111Y-106983455D01*
X103750540Y-108159097D01*
X104101495Y-109006377D01*
X104689994Y-109078452D01*
X106326447Y-107442000D01*
X107033553Y-107442000D01*
X108670006Y-109078452D01*
X109258505Y-109006377D01*
X109660889Y-107900545D01*
X109609460Y-106724903D01*
X109258505Y-105877623D01*
X108670006Y-105805548D01*
X107033553Y-107442000D01*
X106326447Y-107442000D01*
X104689994Y-105805548D01*
X104101495Y-105877623D01*
X103699111Y-106983455D01*
X89130401Y-106983455D01*
X89130857Y-106461704D01*
X88713654Y-105451994D01*
X105043548Y-105451994D01*
X106680000Y-107088447D01*
X108316452Y-105451994D01*
X108244377Y-104863495D01*
X107138545Y-104461111D01*
X105962903Y-104512540D01*
X105115623Y-104863495D01*
X105043548Y-105451994D01*
X88713654Y-105451994D01*
X88378852Y-104641713D01*
X86987611Y-103248041D01*
X85168935Y-102492861D01*
X83199704Y-102491143D01*
X81379713Y-103243148D01*
X79986041Y-104634389D01*
X79230861Y-106453065D01*
X79229143Y-108422296D01*
X57939659Y-108422296D01*
X59716053Y-107702379D01*
X59816797Y-107635064D01*
X60474697Y-106548251D01*
X55372000Y-101445553D01*
X55357858Y-101459696D01*
X55004304Y-101106142D01*
X55018447Y-101092000D01*
X55004304Y-101077858D01*
X55357858Y-100724304D01*
X55372000Y-100738447D01*
X60474697Y-95635749D01*
X60229078Y-95230000D01*
X63885329Y-95230000D01*
X63370041Y-95744389D01*
X62614861Y-97563065D01*
X62614212Y-98306994D01*
X61982379Y-96747947D01*
X61915064Y-96647203D01*
X60828251Y-95989303D01*
X55725553Y-101092000D01*
X60828251Y-106194697D01*
X61915064Y-105536797D01*
X63117953Y-102694534D01*
X63132545Y-100789345D01*
X63365148Y-101352287D01*
X64756389Y-102745959D01*
X66575065Y-103501139D01*
X68544296Y-103502857D01*
X70364287Y-102750852D01*
X70993098Y-102123138D01*
X71868389Y-102999959D01*
X73687065Y-103755139D01*
X75656296Y-103756857D01*
X77476287Y-103004852D01*
X78869959Y-101613611D01*
X79625139Y-99794935D01*
X79626857Y-97825704D01*
X78874852Y-96005713D01*
X77483611Y-94612041D01*
X77272298Y-94524296D01*
X79045143Y-94524296D01*
X79797148Y-96344287D01*
X81188389Y-97737959D01*
X83007065Y-98493139D01*
X84976296Y-98494857D01*
X86796287Y-97742852D01*
X88189959Y-96351611D01*
X88529458Y-95534006D01*
X104859548Y-95534006D01*
X104931623Y-96122505D01*
X106037455Y-96524889D01*
X107213097Y-96473460D01*
X108060377Y-96122505D01*
X108132452Y-95534006D01*
X106496000Y-93897553D01*
X104859548Y-95534006D01*
X88529458Y-95534006D01*
X88945139Y-94532935D01*
X88946401Y-93085455D01*
X103515111Y-93085455D01*
X103566540Y-94261097D01*
X103917495Y-95108377D01*
X104505994Y-95180452D01*
X106142447Y-93544000D01*
X106849553Y-93544000D01*
X108486006Y-95180452D01*
X109074505Y-95108377D01*
X109476889Y-94002545D01*
X109425460Y-92826903D01*
X109074505Y-91979623D01*
X108486006Y-91907548D01*
X106849553Y-93544000D01*
X106142447Y-93544000D01*
X104505994Y-91907548D01*
X103917495Y-91979623D01*
X103515111Y-93085455D01*
X88946401Y-93085455D01*
X88946857Y-92563704D01*
X88529654Y-91553994D01*
X104859548Y-91553994D01*
X106496000Y-93190447D01*
X108132452Y-91553994D01*
X108060377Y-90965495D01*
X106954545Y-90563111D01*
X105778903Y-90614540D01*
X104931623Y-90965495D01*
X104859548Y-91553994D01*
X88529654Y-91553994D01*
X88194852Y-90743713D01*
X86803611Y-89350041D01*
X84984935Y-88594861D01*
X83015704Y-88593143D01*
X81195713Y-89345148D01*
X79802041Y-90736389D01*
X79046861Y-92555065D01*
X79045143Y-94524296D01*
X77272298Y-94524296D01*
X75664935Y-93856861D01*
X75418000Y-93856646D01*
X75418000Y-93756649D01*
X75656296Y-93756857D01*
X77476287Y-93004852D01*
X78869959Y-91613611D01*
X79625139Y-89794935D01*
X79626808Y-87881562D01*
X81650000Y-88284000D01*
X84233113Y-87770187D01*
X85083432Y-87202022D01*
X85186583Y-87270945D01*
X87100000Y-87651547D01*
X89013417Y-87270945D01*
X90635534Y-86187081D01*
X91719398Y-84564964D01*
X92100000Y-82651547D01*
X92100000Y-82022000D01*
X97542534Y-82022000D01*
X97542534Y-83530000D01*
M02*
