G04 #@! TF.FileFunction,Copper,L1,Top,Signal*
%FSLAX46Y46*%
G04 Gerber Fmt 4.6, Leading zero omitted, Abs format (unit mm)*
G04 Created by KiCad (PCBNEW 4.0.7) date 02/11/18 22:43:29*
%MOMM*%
%LPD*%
G01*
G04 APERTURE LIST*
%ADD10C,0.100000*%
%ADD11R,3.000000X3.000000*%
%ADD12C,3.000000*%
%ADD13C,2.400000*%
%ADD14C,3.900000*%
%ADD15R,2.500000X4.500000*%
%ADD16O,2.500000X4.500000*%
%ADD17O,2.400000X2.400000*%
%ADD18C,4.064000*%
%ADD19R,2.200000X2.200000*%
%ADD20O,2.200000X2.200000*%
%ADD21R,2.600000X2.600000*%
%ADD22O,2.600000X2.600000*%
%ADD23C,2.000000*%
%ADD24C,1.000000*%
%ADD25C,3.000000*%
%ADD26C,6.000000*%
%ADD27C,2.500000*%
G04 APERTURE END LIST*
D10*
D11*
X134874000Y-83820000D03*
D12*
X129794000Y-83820000D03*
D13*
X115062000Y-98552000D03*
X115062000Y-88552000D03*
X106496000Y-93544000D03*
X83996000Y-93544000D03*
X74676000Y-98806000D03*
X74676000Y-88806000D03*
D11*
X55880000Y-83820000D03*
D12*
X60960000Y-83820000D03*
D14*
X94996000Y-54610000D03*
X96266000Y-133858000D03*
X134874000Y-101346000D03*
X55372000Y-101092000D03*
D15*
X102616000Y-81280000D03*
D16*
X108066000Y-81280000D03*
X113516000Y-81280000D03*
D15*
X76200000Y-81534000D03*
D16*
X81650000Y-81534000D03*
X87100000Y-81534000D03*
D13*
X122428000Y-98298000D03*
D17*
X122428000Y-83058000D03*
D13*
X67564000Y-98552000D03*
D17*
X67564000Y-83312000D03*
D18*
X50000000Y-50000000D03*
X140000000Y-50000000D03*
X50000000Y-140000000D03*
X140000000Y-140000000D03*
D19*
X53340000Y-67818000D03*
D20*
X53340000Y-77978000D03*
D19*
X136144000Y-67564000D03*
D20*
X136144000Y-77724000D03*
D13*
X106680000Y-107442000D03*
X84180000Y-107442000D03*
D19*
X129286000Y-72644000D03*
D20*
X119126000Y-72644000D03*
D19*
X59690000Y-73406000D03*
D20*
X69850000Y-73406000D03*
D13*
X119126000Y-77216000D03*
D17*
X131826000Y-77216000D03*
D13*
X70104000Y-77724000D03*
D17*
X57404000Y-77724000D03*
D13*
X61468000Y-112522000D03*
X61468000Y-140022000D03*
X115824000Y-139700000D03*
X115824000Y-112200000D03*
X75184000Y-112776000D03*
X75184000Y-140276000D03*
X129286000Y-139700000D03*
X129286000Y-112200000D03*
D21*
X131572000Y-66040000D03*
D22*
X118872000Y-66040000D03*
D21*
X70612000Y-66802000D03*
D22*
X57912000Y-66802000D03*
D23*
X115062000Y-98552000D02*
X122182000Y-98544000D01*
X122182000Y-98544000D02*
X122428000Y-98298000D01*
D24*
X129794000Y-83820000D02*
X129286000Y-83820000D01*
X129794000Y-83820000D02*
X129794000Y-84074000D01*
X129794000Y-83820000D02*
X128778000Y-83820000D01*
D23*
X118872000Y-66040000D02*
X114046000Y-66040000D01*
X113516000Y-66570000D02*
X113516000Y-71606000D01*
X114046000Y-66040000D02*
X113516000Y-66570000D01*
X118872000Y-66040000D02*
X118872000Y-66250000D01*
D25*
X81650000Y-81534000D02*
X81650000Y-66156000D01*
X81650000Y-66156000D02*
X94996000Y-54842000D01*
X94996000Y-54842000D02*
X94996000Y-54610000D01*
D26*
X113516000Y-81280000D02*
X113516000Y-71606000D01*
X113516000Y-71606000D02*
X94996000Y-54610000D01*
D24*
X115062000Y-89450000D02*
X115062000Y-88552000D01*
D23*
X67564000Y-83312000D02*
X69596000Y-83312000D01*
X81650000Y-85228000D02*
X81650000Y-81534000D01*
X81026000Y-85852000D02*
X81650000Y-85228000D01*
X72136000Y-85852000D02*
X81026000Y-85852000D01*
X69596000Y-83312000D02*
X72136000Y-85852000D01*
X131572000Y-66040000D02*
X125730000Y-66040000D01*
X123190000Y-68580000D02*
X123190000Y-82296000D01*
X125730000Y-66040000D02*
X123190000Y-68580000D01*
X123190000Y-82296000D02*
X122428000Y-83058000D01*
X74676000Y-88806000D02*
X67208000Y-88544000D01*
X62484000Y-83820000D02*
X60960000Y-83820000D01*
X67208000Y-88544000D02*
X62484000Y-83820000D01*
X74676000Y-88806000D02*
X78996000Y-88544000D01*
X78996000Y-88544000D02*
X83996000Y-93544000D01*
X83996000Y-93544000D02*
X83240000Y-93544000D01*
X83240000Y-93544000D02*
X82804000Y-93980000D01*
X82804000Y-93980000D02*
X83996000Y-93980000D01*
D26*
X83996000Y-93544000D02*
X83996000Y-93980000D01*
X83996000Y-93980000D02*
X83996000Y-91264000D01*
X87100000Y-88160000D02*
X87100000Y-81534000D01*
X83996000Y-91264000D02*
X87100000Y-88160000D01*
X134874000Y-101346000D02*
X133448000Y-101346000D01*
D23*
X74896000Y-88586000D02*
X74676000Y-88806000D01*
D24*
X74676000Y-88146000D02*
X74676000Y-88806000D01*
D23*
X87320000Y-81754000D02*
X87100000Y-81534000D01*
X74676000Y-98806000D02*
X67572000Y-98544000D01*
X67572000Y-98544000D02*
X67564000Y-98552000D01*
X67572000Y-98544000D02*
X67564000Y-98552000D01*
X131826000Y-77216000D02*
X131826000Y-79502000D01*
X131826000Y-79502000D02*
X134874000Y-82550000D01*
X134874000Y-82550000D02*
X134874000Y-83820000D01*
X129286000Y-72644000D02*
X129286000Y-74676000D01*
X129286000Y-74676000D02*
X131826000Y-77216000D01*
D24*
X129540000Y-72898000D02*
X129286000Y-72644000D01*
X129540000Y-72898000D02*
X129286000Y-72644000D01*
X135128000Y-83566000D02*
X134874000Y-83820000D01*
D23*
X119126000Y-72136000D02*
X119126000Y-72644000D01*
X119126000Y-77216000D02*
X119126000Y-72644000D01*
X119126000Y-77216000D02*
X119126000Y-83566000D01*
X102616000Y-85344000D02*
X102616000Y-81280000D01*
X103124000Y-85852000D02*
X102616000Y-85344000D01*
X116840000Y-85852000D02*
X103124000Y-85852000D01*
X119126000Y-83566000D02*
X116840000Y-85852000D01*
D24*
X102362000Y-81534000D02*
X102616000Y-81280000D01*
X118872000Y-76962000D02*
X119126000Y-77216000D01*
D23*
X57404000Y-77724000D02*
X57404000Y-75692000D01*
X57404000Y-75692000D02*
X59690000Y-73406000D01*
X55880000Y-83820000D02*
X55880000Y-81534000D01*
X57404000Y-80010000D02*
X57404000Y-77724000D01*
X55880000Y-81534000D02*
X57404000Y-80010000D01*
X53340000Y-67818000D02*
X53594000Y-67818000D01*
X53594000Y-67818000D02*
X56134000Y-69850000D01*
X56134000Y-69850000D02*
X66548000Y-69850000D01*
X66548000Y-69850000D02*
X69850000Y-73152000D01*
X69850000Y-73152000D02*
X69850000Y-73406000D01*
X69850000Y-73406000D02*
X69850000Y-77470000D01*
X69850000Y-77470000D02*
X70104000Y-77724000D01*
D24*
X75692000Y-82042000D02*
X76200000Y-81534000D01*
D27*
G36*
X87350000Y-85090304D02*
X87815849Y-85455579D01*
X88020142Y-85408701D01*
X89050201Y-84837754D01*
X89783359Y-83916082D01*
X90035162Y-83038000D01*
X97542534Y-83038000D01*
X97542534Y-83530000D01*
X97804018Y-84919667D01*
X97866000Y-85015990D01*
X97866000Y-85344000D01*
X98227572Y-87161747D01*
X99257243Y-88702757D01*
X99765242Y-89210757D01*
X100662842Y-89810514D01*
X101306254Y-90240428D01*
X102550867Y-90487997D01*
X102302041Y-90736389D01*
X101546861Y-92555065D01*
X101545143Y-94524296D01*
X102297148Y-96344287D01*
X103688389Y-97737959D01*
X105507065Y-98493139D01*
X107476296Y-98494857D01*
X109296287Y-97742852D01*
X110563469Y-96477881D01*
X110112861Y-97563065D01*
X110111143Y-99532296D01*
X110863148Y-101352287D01*
X112254389Y-102745959D01*
X114073065Y-103501139D01*
X116042296Y-103502857D01*
X116532398Y-103300351D01*
X122187337Y-103293997D01*
X122417267Y-103247992D01*
X123408296Y-103248857D01*
X125228287Y-102496852D01*
X126621959Y-101105611D01*
X126786874Y-100708451D01*
X131147501Y-100708451D01*
X131187184Y-102183051D01*
X131675143Y-103361088D01*
X132341300Y-103525146D01*
X134520447Y-101346000D01*
X135227553Y-101346000D01*
X137406700Y-103525146D01*
X138072857Y-103361088D01*
X138600499Y-101983549D01*
X138560816Y-100508949D01*
X138072857Y-99330912D01*
X137406700Y-99166854D01*
X135227553Y-101346000D01*
X134520447Y-101346000D01*
X132341300Y-99166854D01*
X131675143Y-99330912D01*
X131147501Y-100708451D01*
X126786874Y-100708451D01*
X127377139Y-99286935D01*
X127377552Y-98813300D01*
X132694854Y-98813300D01*
X134874000Y-100992447D01*
X137053146Y-98813300D01*
X136889088Y-98147143D01*
X135511549Y-97619501D01*
X134036949Y-97659184D01*
X132858912Y-98147143D01*
X132694854Y-98813300D01*
X127377552Y-98813300D01*
X127378857Y-97317704D01*
X126626852Y-95497713D01*
X125235611Y-94104041D01*
X123416935Y-93348861D01*
X121447704Y-93347143D01*
X120361284Y-93796043D01*
X116526545Y-93800351D01*
X116050935Y-93602861D01*
X115552537Y-93602426D01*
X116688405Y-93376488D01*
X117239797Y-93008060D01*
X117862287Y-92750852D01*
X119255959Y-91359611D01*
X120011139Y-89540935D01*
X120011318Y-89336000D01*
X120198757Y-89210757D01*
X121092874Y-88316640D01*
X126624117Y-93847883D01*
X127037634Y-94122126D01*
X127508000Y-94214000D01*
X138958000Y-94214000D01*
X138958000Y-98044000D01*
X139056482Y-98530320D01*
X139336411Y-98940010D01*
X139753678Y-99208514D01*
X140193000Y-99291178D01*
X140193000Y-103792774D01*
X140012016Y-107412449D01*
X138124983Y-108355966D01*
X137745287Y-108648580D01*
X125178365Y-122940373D01*
X80779628Y-121720628D01*
X80948854Y-114190006D01*
X114187548Y-114190006D01*
X114259623Y-114778505D01*
X115365455Y-115180889D01*
X116541097Y-115129460D01*
X117388377Y-114778505D01*
X117460452Y-114190006D01*
X127649548Y-114190006D01*
X127721623Y-114778505D01*
X128827455Y-115180889D01*
X130003097Y-115129460D01*
X130850377Y-114778505D01*
X130922452Y-114190006D01*
X129286000Y-112553553D01*
X127649548Y-114190006D01*
X117460452Y-114190006D01*
X115824000Y-112553553D01*
X114187548Y-114190006D01*
X80948854Y-114190006D01*
X81055776Y-109432006D01*
X82543548Y-109432006D01*
X82615623Y-110020505D01*
X83721455Y-110422889D01*
X84897097Y-110371460D01*
X85744377Y-110020505D01*
X85816452Y-109432006D01*
X84180000Y-107795553D01*
X82543548Y-109432006D01*
X81055776Y-109432006D01*
X81110800Y-106983455D01*
X81199111Y-106983455D01*
X81250540Y-108159097D01*
X81601495Y-109006377D01*
X82189994Y-109078452D01*
X83826447Y-107442000D01*
X84533553Y-107442000D01*
X86170006Y-109078452D01*
X86758505Y-109006377D01*
X86971037Y-108422296D01*
X101729143Y-108422296D01*
X102481148Y-110242287D01*
X103872389Y-111635959D01*
X105691065Y-112391139D01*
X107660296Y-112392857D01*
X109236809Y-111741455D01*
X112843111Y-111741455D01*
X112894540Y-112917097D01*
X113245495Y-113764377D01*
X113833994Y-113836452D01*
X115470447Y-112200000D01*
X116177553Y-112200000D01*
X117814006Y-113836452D01*
X118402505Y-113764377D01*
X118804889Y-112658545D01*
X118764771Y-111741455D01*
X126305111Y-111741455D01*
X126356540Y-112917097D01*
X126707495Y-113764377D01*
X127295994Y-113836452D01*
X128932447Y-112200000D01*
X129639553Y-112200000D01*
X131276006Y-113836452D01*
X131864505Y-113764377D01*
X132266889Y-112658545D01*
X132215460Y-111482903D01*
X131864505Y-110635623D01*
X131276006Y-110563548D01*
X129639553Y-112200000D01*
X128932447Y-112200000D01*
X127295994Y-110563548D01*
X126707495Y-110635623D01*
X126305111Y-111741455D01*
X118764771Y-111741455D01*
X118753460Y-111482903D01*
X118402505Y-110635623D01*
X117814006Y-110563548D01*
X116177553Y-112200000D01*
X115470447Y-112200000D01*
X113833994Y-110563548D01*
X113245495Y-110635623D01*
X112843111Y-111741455D01*
X109236809Y-111741455D01*
X109480287Y-111640852D01*
X110873959Y-110249611D01*
X110890409Y-110209994D01*
X114187548Y-110209994D01*
X115824000Y-111846447D01*
X117460452Y-110209994D01*
X127649548Y-110209994D01*
X129286000Y-111846447D01*
X130922452Y-110209994D01*
X130850377Y-109621495D01*
X129744545Y-109219111D01*
X128568903Y-109270540D01*
X127721623Y-109621495D01*
X127649548Y-110209994D01*
X117460452Y-110209994D01*
X117388377Y-109621495D01*
X116282545Y-109219111D01*
X115106903Y-109270540D01*
X114259623Y-109621495D01*
X114187548Y-110209994D01*
X110890409Y-110209994D01*
X111629139Y-108430935D01*
X111630857Y-106461704D01*
X110878852Y-104641713D01*
X110117170Y-103878700D01*
X132694854Y-103878700D01*
X132858912Y-104544857D01*
X134236451Y-105072499D01*
X135711051Y-105032816D01*
X136889088Y-104544857D01*
X137053146Y-103878700D01*
X134874000Y-101699553D01*
X132694854Y-103878700D01*
X110117170Y-103878700D01*
X109487611Y-103248041D01*
X107668935Y-102492861D01*
X105699704Y-102491143D01*
X103879713Y-103243148D01*
X102486041Y-104634389D01*
X101730861Y-106453065D01*
X101729143Y-108422296D01*
X86971037Y-108422296D01*
X87160889Y-107900545D01*
X87109460Y-106724903D01*
X86758505Y-105877623D01*
X86170006Y-105805548D01*
X84533553Y-107442000D01*
X83826447Y-107442000D01*
X82189994Y-105805548D01*
X81601495Y-105877623D01*
X81199111Y-106983455D01*
X81110800Y-106983455D01*
X81145214Y-105451994D01*
X82543548Y-105451994D01*
X84180000Y-107088447D01*
X85816452Y-105451994D01*
X85744377Y-104863495D01*
X84638545Y-104461111D01*
X83462903Y-104512540D01*
X82615623Y-104863495D01*
X82543548Y-105451994D01*
X81145214Y-105451994D01*
X81232226Y-101580000D01*
X84836000Y-101580000D01*
X85322320Y-101481518D01*
X85732010Y-101201589D01*
X86000514Y-100784322D01*
X86085523Y-100295467D01*
X85973643Y-99812053D01*
X85719883Y-99446117D01*
X82083661Y-95809895D01*
X82359548Y-95534008D01*
X82431623Y-96122505D01*
X83537455Y-96524889D01*
X84713097Y-96473460D01*
X85560377Y-96122505D01*
X85632452Y-95534006D01*
X83996000Y-93897553D01*
X83981858Y-93911696D01*
X83628304Y-93558142D01*
X83642447Y-93544000D01*
X84349553Y-93544000D01*
X85986006Y-95180452D01*
X86574505Y-95108377D01*
X86976889Y-94002545D01*
X86925460Y-92826903D01*
X86574505Y-91979623D01*
X85986006Y-91907548D01*
X84349553Y-93544000D01*
X83642447Y-93544000D01*
X82005994Y-91907548D01*
X81417495Y-91979623D01*
X81015111Y-93085455D01*
X81066540Y-94261097D01*
X81417495Y-95108377D01*
X82005992Y-95180452D01*
X81730105Y-95456339D01*
X77827760Y-91553994D01*
X82359548Y-91553994D01*
X83996000Y-93190447D01*
X85632452Y-91553994D01*
X85560377Y-90965495D01*
X84454545Y-90563111D01*
X83278903Y-90614540D01*
X82431623Y-90965495D01*
X82359548Y-91553994D01*
X77827760Y-91553994D01*
X76875766Y-90602000D01*
X81026000Y-90602000D01*
X82843747Y-90240428D01*
X84384757Y-89210757D01*
X85008757Y-88586757D01*
X86038428Y-87045747D01*
X86356016Y-85449123D01*
X86384151Y-85455579D01*
X86850000Y-85090304D01*
X86850000Y-83038000D01*
X87350000Y-83038000D01*
X87350000Y-85090304D01*
X87350000Y-85090304D01*
G37*
X87350000Y-85090304D02*
X87815849Y-85455579D01*
X88020142Y-85408701D01*
X89050201Y-84837754D01*
X89783359Y-83916082D01*
X90035162Y-83038000D01*
X97542534Y-83038000D01*
X97542534Y-83530000D01*
X97804018Y-84919667D01*
X97866000Y-85015990D01*
X97866000Y-85344000D01*
X98227572Y-87161747D01*
X99257243Y-88702757D01*
X99765242Y-89210757D01*
X100662842Y-89810514D01*
X101306254Y-90240428D01*
X102550867Y-90487997D01*
X102302041Y-90736389D01*
X101546861Y-92555065D01*
X101545143Y-94524296D01*
X102297148Y-96344287D01*
X103688389Y-97737959D01*
X105507065Y-98493139D01*
X107476296Y-98494857D01*
X109296287Y-97742852D01*
X110563469Y-96477881D01*
X110112861Y-97563065D01*
X110111143Y-99532296D01*
X110863148Y-101352287D01*
X112254389Y-102745959D01*
X114073065Y-103501139D01*
X116042296Y-103502857D01*
X116532398Y-103300351D01*
X122187337Y-103293997D01*
X122417267Y-103247992D01*
X123408296Y-103248857D01*
X125228287Y-102496852D01*
X126621959Y-101105611D01*
X126786874Y-100708451D01*
X131147501Y-100708451D01*
X131187184Y-102183051D01*
X131675143Y-103361088D01*
X132341300Y-103525146D01*
X134520447Y-101346000D01*
X135227553Y-101346000D01*
X137406700Y-103525146D01*
X138072857Y-103361088D01*
X138600499Y-101983549D01*
X138560816Y-100508949D01*
X138072857Y-99330912D01*
X137406700Y-99166854D01*
X135227553Y-101346000D01*
X134520447Y-101346000D01*
X132341300Y-99166854D01*
X131675143Y-99330912D01*
X131147501Y-100708451D01*
X126786874Y-100708451D01*
X127377139Y-99286935D01*
X127377552Y-98813300D01*
X132694854Y-98813300D01*
X134874000Y-100992447D01*
X137053146Y-98813300D01*
X136889088Y-98147143D01*
X135511549Y-97619501D01*
X134036949Y-97659184D01*
X132858912Y-98147143D01*
X132694854Y-98813300D01*
X127377552Y-98813300D01*
X127378857Y-97317704D01*
X126626852Y-95497713D01*
X125235611Y-94104041D01*
X123416935Y-93348861D01*
X121447704Y-93347143D01*
X120361284Y-93796043D01*
X116526545Y-93800351D01*
X116050935Y-93602861D01*
X115552537Y-93602426D01*
X116688405Y-93376488D01*
X117239797Y-93008060D01*
X117862287Y-92750852D01*
X119255959Y-91359611D01*
X120011139Y-89540935D01*
X120011318Y-89336000D01*
X120198757Y-89210757D01*
X121092874Y-88316640D01*
X126624117Y-93847883D01*
X127037634Y-94122126D01*
X127508000Y-94214000D01*
X138958000Y-94214000D01*
X138958000Y-98044000D01*
X139056482Y-98530320D01*
X139336411Y-98940010D01*
X139753678Y-99208514D01*
X140193000Y-99291178D01*
X140193000Y-103792774D01*
X140012016Y-107412449D01*
X138124983Y-108355966D01*
X137745287Y-108648580D01*
X125178365Y-122940373D01*
X80779628Y-121720628D01*
X80948854Y-114190006D01*
X114187548Y-114190006D01*
X114259623Y-114778505D01*
X115365455Y-115180889D01*
X116541097Y-115129460D01*
X117388377Y-114778505D01*
X117460452Y-114190006D01*
X127649548Y-114190006D01*
X127721623Y-114778505D01*
X128827455Y-115180889D01*
X130003097Y-115129460D01*
X130850377Y-114778505D01*
X130922452Y-114190006D01*
X129286000Y-112553553D01*
X127649548Y-114190006D01*
X117460452Y-114190006D01*
X115824000Y-112553553D01*
X114187548Y-114190006D01*
X80948854Y-114190006D01*
X81055776Y-109432006D01*
X82543548Y-109432006D01*
X82615623Y-110020505D01*
X83721455Y-110422889D01*
X84897097Y-110371460D01*
X85744377Y-110020505D01*
X85816452Y-109432006D01*
X84180000Y-107795553D01*
X82543548Y-109432006D01*
X81055776Y-109432006D01*
X81110800Y-106983455D01*
X81199111Y-106983455D01*
X81250540Y-108159097D01*
X81601495Y-109006377D01*
X82189994Y-109078452D01*
X83826447Y-107442000D01*
X84533553Y-107442000D01*
X86170006Y-109078452D01*
X86758505Y-109006377D01*
X86971037Y-108422296D01*
X101729143Y-108422296D01*
X102481148Y-110242287D01*
X103872389Y-111635959D01*
X105691065Y-112391139D01*
X107660296Y-112392857D01*
X109236809Y-111741455D01*
X112843111Y-111741455D01*
X112894540Y-112917097D01*
X113245495Y-113764377D01*
X113833994Y-113836452D01*
X115470447Y-112200000D01*
X116177553Y-112200000D01*
X117814006Y-113836452D01*
X118402505Y-113764377D01*
X118804889Y-112658545D01*
X118764771Y-111741455D01*
X126305111Y-111741455D01*
X126356540Y-112917097D01*
X126707495Y-113764377D01*
X127295994Y-113836452D01*
X128932447Y-112200000D01*
X129639553Y-112200000D01*
X131276006Y-113836452D01*
X131864505Y-113764377D01*
X132266889Y-112658545D01*
X132215460Y-111482903D01*
X131864505Y-110635623D01*
X131276006Y-110563548D01*
X129639553Y-112200000D01*
X128932447Y-112200000D01*
X127295994Y-110563548D01*
X126707495Y-110635623D01*
X126305111Y-111741455D01*
X118764771Y-111741455D01*
X118753460Y-111482903D01*
X118402505Y-110635623D01*
X117814006Y-110563548D01*
X116177553Y-112200000D01*
X115470447Y-112200000D01*
X113833994Y-110563548D01*
X113245495Y-110635623D01*
X112843111Y-111741455D01*
X109236809Y-111741455D01*
X109480287Y-111640852D01*
X110873959Y-110249611D01*
X110890409Y-110209994D01*
X114187548Y-110209994D01*
X115824000Y-111846447D01*
X117460452Y-110209994D01*
X127649548Y-110209994D01*
X129286000Y-111846447D01*
X130922452Y-110209994D01*
X130850377Y-109621495D01*
X129744545Y-109219111D01*
X128568903Y-109270540D01*
X127721623Y-109621495D01*
X127649548Y-110209994D01*
X117460452Y-110209994D01*
X117388377Y-109621495D01*
X116282545Y-109219111D01*
X115106903Y-109270540D01*
X114259623Y-109621495D01*
X114187548Y-110209994D01*
X110890409Y-110209994D01*
X111629139Y-108430935D01*
X111630857Y-106461704D01*
X110878852Y-104641713D01*
X110117170Y-103878700D01*
X132694854Y-103878700D01*
X132858912Y-104544857D01*
X134236451Y-105072499D01*
X135711051Y-105032816D01*
X136889088Y-104544857D01*
X137053146Y-103878700D01*
X134874000Y-101699553D01*
X132694854Y-103878700D01*
X110117170Y-103878700D01*
X109487611Y-103248041D01*
X107668935Y-102492861D01*
X105699704Y-102491143D01*
X103879713Y-103243148D01*
X102486041Y-104634389D01*
X101730861Y-106453065D01*
X101729143Y-108422296D01*
X86971037Y-108422296D01*
X87160889Y-107900545D01*
X87109460Y-106724903D01*
X86758505Y-105877623D01*
X86170006Y-105805548D01*
X84533553Y-107442000D01*
X83826447Y-107442000D01*
X82189994Y-105805548D01*
X81601495Y-105877623D01*
X81199111Y-106983455D01*
X81110800Y-106983455D01*
X81145214Y-105451994D01*
X82543548Y-105451994D01*
X84180000Y-107088447D01*
X85816452Y-105451994D01*
X85744377Y-104863495D01*
X84638545Y-104461111D01*
X83462903Y-104512540D01*
X82615623Y-104863495D01*
X82543548Y-105451994D01*
X81145214Y-105451994D01*
X81232226Y-101580000D01*
X84836000Y-101580000D01*
X85322320Y-101481518D01*
X85732010Y-101201589D01*
X86000514Y-100784322D01*
X86085523Y-100295467D01*
X85973643Y-99812053D01*
X85719883Y-99446117D01*
X82083661Y-95809895D01*
X82359548Y-95534008D01*
X82431623Y-96122505D01*
X83537455Y-96524889D01*
X84713097Y-96473460D01*
X85560377Y-96122505D01*
X85632452Y-95534006D01*
X83996000Y-93897553D01*
X83981858Y-93911696D01*
X83628304Y-93558142D01*
X83642447Y-93544000D01*
X84349553Y-93544000D01*
X85986006Y-95180452D01*
X86574505Y-95108377D01*
X86976889Y-94002545D01*
X86925460Y-92826903D01*
X86574505Y-91979623D01*
X85986006Y-91907548D01*
X84349553Y-93544000D01*
X83642447Y-93544000D01*
X82005994Y-91907548D01*
X81417495Y-91979623D01*
X81015111Y-93085455D01*
X81066540Y-94261097D01*
X81417495Y-95108377D01*
X82005992Y-95180452D01*
X81730105Y-95456339D01*
X77827760Y-91553994D01*
X82359548Y-91553994D01*
X83996000Y-93190447D01*
X85632452Y-91553994D01*
X85560377Y-90965495D01*
X84454545Y-90563111D01*
X83278903Y-90614540D01*
X82431623Y-90965495D01*
X82359548Y-91553994D01*
X77827760Y-91553994D01*
X76875766Y-90602000D01*
X81026000Y-90602000D01*
X82843747Y-90240428D01*
X84384757Y-89210757D01*
X85008757Y-88586757D01*
X86038428Y-87045747D01*
X86356016Y-85449123D01*
X86384151Y-85455579D01*
X86850000Y-85090304D01*
X86850000Y-83038000D01*
X87350000Y-83038000D01*
X87350000Y-85090304D01*
G36*
X132354000Y-128242754D02*
X132354000Y-140447000D01*
X132161928Y-140447000D01*
X132266889Y-140158545D01*
X132215460Y-138982903D01*
X131864505Y-138135623D01*
X131276006Y-138063548D01*
X129639553Y-139700000D01*
X129653696Y-139714143D01*
X129300143Y-140067696D01*
X129286000Y-140053553D01*
X129271858Y-140067696D01*
X128918305Y-139714143D01*
X128932447Y-139700000D01*
X127295994Y-138063548D01*
X126707495Y-138135623D01*
X126305111Y-139241455D01*
X126356540Y-140417097D01*
X126368926Y-140447000D01*
X118699928Y-140447000D01*
X118804889Y-140158545D01*
X118753460Y-138982903D01*
X118402505Y-138135623D01*
X117814006Y-138063548D01*
X116177553Y-139700000D01*
X116191696Y-139714143D01*
X115838143Y-140067696D01*
X115824000Y-140053553D01*
X115809858Y-140067696D01*
X115456305Y-139714143D01*
X115470447Y-139700000D01*
X113833994Y-138063548D01*
X113245495Y-138135623D01*
X112843111Y-139241455D01*
X112894540Y-140417097D01*
X112906926Y-140447000D01*
X91166000Y-140447000D01*
X91166000Y-137709994D01*
X114187548Y-137709994D01*
X115824000Y-139346447D01*
X117460452Y-137709994D01*
X127649548Y-137709994D01*
X129286000Y-139346447D01*
X130922452Y-137709994D01*
X130850377Y-137121495D01*
X129744545Y-136719111D01*
X128568903Y-136770540D01*
X127721623Y-137121495D01*
X127649548Y-137709994D01*
X117460452Y-137709994D01*
X117388377Y-137121495D01*
X116282545Y-136719111D01*
X115106903Y-136770540D01*
X114259623Y-137121495D01*
X114187548Y-137709994D01*
X91166000Y-137709994D01*
X91166000Y-136390700D01*
X94086854Y-136390700D01*
X94250912Y-137056857D01*
X95628451Y-137584499D01*
X97103051Y-137544816D01*
X98281088Y-137056857D01*
X98445146Y-136390700D01*
X96266000Y-134211553D01*
X94086854Y-136390700D01*
X91166000Y-136390700D01*
X91166000Y-133220451D01*
X92539501Y-133220451D01*
X92579184Y-134695051D01*
X93067143Y-135873088D01*
X93733300Y-136037146D01*
X95912447Y-133858000D01*
X96619553Y-133858000D01*
X98798700Y-136037146D01*
X99464857Y-135873088D01*
X99992499Y-134495549D01*
X99952816Y-133020949D01*
X99464857Y-131842912D01*
X98798700Y-131678854D01*
X96619553Y-133858000D01*
X95912447Y-133858000D01*
X93733300Y-131678854D01*
X93067143Y-131842912D01*
X92539501Y-133220451D01*
X91166000Y-133220451D01*
X91166000Y-131325300D01*
X94086854Y-131325300D01*
X96266000Y-133504447D01*
X98445146Y-131325300D01*
X98281088Y-130659143D01*
X96903549Y-130131501D01*
X95428949Y-130171184D01*
X94250912Y-130659143D01*
X94086854Y-131325300D01*
X91166000Y-131325300D01*
X91166000Y-128003289D01*
X132354000Y-128242754D01*
X132354000Y-128242754D01*
G37*
X132354000Y-128242754D02*
X132354000Y-140447000D01*
X132161928Y-140447000D01*
X132266889Y-140158545D01*
X132215460Y-138982903D01*
X131864505Y-138135623D01*
X131276006Y-138063548D01*
X129639553Y-139700000D01*
X129653696Y-139714143D01*
X129300143Y-140067696D01*
X129286000Y-140053553D01*
X129271858Y-140067696D01*
X128918305Y-139714143D01*
X128932447Y-139700000D01*
X127295994Y-138063548D01*
X126707495Y-138135623D01*
X126305111Y-139241455D01*
X126356540Y-140417097D01*
X126368926Y-140447000D01*
X118699928Y-140447000D01*
X118804889Y-140158545D01*
X118753460Y-138982903D01*
X118402505Y-138135623D01*
X117814006Y-138063548D01*
X116177553Y-139700000D01*
X116191696Y-139714143D01*
X115838143Y-140067696D01*
X115824000Y-140053553D01*
X115809858Y-140067696D01*
X115456305Y-139714143D01*
X115470447Y-139700000D01*
X113833994Y-138063548D01*
X113245495Y-138135623D01*
X112843111Y-139241455D01*
X112894540Y-140417097D01*
X112906926Y-140447000D01*
X91166000Y-140447000D01*
X91166000Y-137709994D01*
X114187548Y-137709994D01*
X115824000Y-139346447D01*
X117460452Y-137709994D01*
X127649548Y-137709994D01*
X129286000Y-139346447D01*
X130922452Y-137709994D01*
X130850377Y-137121495D01*
X129744545Y-136719111D01*
X128568903Y-136770540D01*
X127721623Y-137121495D01*
X127649548Y-137709994D01*
X117460452Y-137709994D01*
X117388377Y-137121495D01*
X116282545Y-136719111D01*
X115106903Y-136770540D01*
X114259623Y-137121495D01*
X114187548Y-137709994D01*
X91166000Y-137709994D01*
X91166000Y-136390700D01*
X94086854Y-136390700D01*
X94250912Y-137056857D01*
X95628451Y-137584499D01*
X97103051Y-137544816D01*
X98281088Y-137056857D01*
X98445146Y-136390700D01*
X96266000Y-134211553D01*
X94086854Y-136390700D01*
X91166000Y-136390700D01*
X91166000Y-133220451D01*
X92539501Y-133220451D01*
X92579184Y-134695051D01*
X93067143Y-135873088D01*
X93733300Y-136037146D01*
X95912447Y-133858000D01*
X96619553Y-133858000D01*
X98798700Y-136037146D01*
X99464857Y-135873088D01*
X99992499Y-134495549D01*
X99952816Y-133020949D01*
X99464857Y-131842912D01*
X98798700Y-131678854D01*
X96619553Y-133858000D01*
X95912447Y-133858000D01*
X93733300Y-131678854D01*
X93067143Y-131842912D01*
X92539501Y-133220451D01*
X91166000Y-133220451D01*
X91166000Y-131325300D01*
X94086854Y-131325300D01*
X96266000Y-133504447D01*
X98445146Y-131325300D01*
X98281088Y-130659143D01*
X96903549Y-130131501D01*
X95428949Y-130171184D01*
X94250912Y-130659143D01*
X94086854Y-131325300D01*
X91166000Y-131325300D01*
X91166000Y-128003289D01*
X132354000Y-128242754D01*
G36*
X114956098Y-69991207D02*
X114737572Y-70318254D01*
X114683969Y-70587737D01*
X114550167Y-70787985D01*
X114180983Y-72644000D01*
X114376000Y-73624418D01*
X114376000Y-75747485D01*
X114176861Y-76227065D01*
X114176646Y-76474000D01*
X111372675Y-76474000D01*
X109979417Y-75543055D01*
X108066000Y-75162453D01*
X106152583Y-75543055D01*
X105774711Y-75795541D01*
X105353542Y-75507769D01*
X103866000Y-75206534D01*
X101366000Y-75206534D01*
X99976333Y-75468018D01*
X98700009Y-76289310D01*
X98573816Y-76474000D01*
X91443402Y-76474000D01*
X89683113Y-75297813D01*
X87100000Y-74784000D01*
X84516887Y-75297813D01*
X82756598Y-76474000D01*
X79979926Y-76474000D01*
X79482000Y-76133781D01*
X79482000Y-57142700D01*
X92816854Y-57142700D01*
X92980912Y-57808857D01*
X94358451Y-58336499D01*
X95833051Y-58296816D01*
X97011088Y-57808857D01*
X97175146Y-57142700D01*
X94996000Y-54963553D01*
X92816854Y-57142700D01*
X79482000Y-57142700D01*
X79482000Y-53972451D01*
X91269501Y-53972451D01*
X91309184Y-55447051D01*
X91797143Y-56625088D01*
X92463300Y-56789146D01*
X94642447Y-54610000D01*
X95349553Y-54610000D01*
X97528700Y-56789146D01*
X98194857Y-56625088D01*
X98722499Y-55247549D01*
X98682816Y-53772949D01*
X98194857Y-52594912D01*
X97528700Y-52430854D01*
X95349553Y-54610000D01*
X94642447Y-54610000D01*
X92463300Y-52430854D01*
X91797143Y-52594912D01*
X91269501Y-53972451D01*
X79482000Y-53972451D01*
X79482000Y-52324000D01*
X79480820Y-52269703D01*
X79472455Y-52077300D01*
X92816854Y-52077300D01*
X94996000Y-54256447D01*
X97175146Y-52077300D01*
X97011088Y-51411143D01*
X95633549Y-50883501D01*
X94158949Y-50923184D01*
X92980912Y-51411143D01*
X92816854Y-52077300D01*
X79472455Y-52077300D01*
X79362355Y-49545000D01*
X114623640Y-49545000D01*
X114956098Y-69991207D01*
X114956098Y-69991207D01*
G37*
X114956098Y-69991207D02*
X114737572Y-70318254D01*
X114683969Y-70587737D01*
X114550167Y-70787985D01*
X114180983Y-72644000D01*
X114376000Y-73624418D01*
X114376000Y-75747485D01*
X114176861Y-76227065D01*
X114176646Y-76474000D01*
X111372675Y-76474000D01*
X109979417Y-75543055D01*
X108066000Y-75162453D01*
X106152583Y-75543055D01*
X105774711Y-75795541D01*
X105353542Y-75507769D01*
X103866000Y-75206534D01*
X101366000Y-75206534D01*
X99976333Y-75468018D01*
X98700009Y-76289310D01*
X98573816Y-76474000D01*
X91443402Y-76474000D01*
X89683113Y-75297813D01*
X87100000Y-74784000D01*
X84516887Y-75297813D01*
X82756598Y-76474000D01*
X79979926Y-76474000D01*
X79482000Y-76133781D01*
X79482000Y-57142700D01*
X92816854Y-57142700D01*
X92980912Y-57808857D01*
X94358451Y-58336499D01*
X95833051Y-58296816D01*
X97011088Y-57808857D01*
X97175146Y-57142700D01*
X94996000Y-54963553D01*
X92816854Y-57142700D01*
X79482000Y-57142700D01*
X79482000Y-53972451D01*
X91269501Y-53972451D01*
X91309184Y-55447051D01*
X91797143Y-56625088D01*
X92463300Y-56789146D01*
X94642447Y-54610000D01*
X95349553Y-54610000D01*
X97528700Y-56789146D01*
X98194857Y-56625088D01*
X98722499Y-55247549D01*
X98682816Y-53772949D01*
X98194857Y-52594912D01*
X97528700Y-52430854D01*
X95349553Y-54610000D01*
X94642447Y-54610000D01*
X92463300Y-52430854D01*
X91797143Y-52594912D01*
X91269501Y-53972451D01*
X79482000Y-53972451D01*
X79482000Y-52324000D01*
X79480820Y-52269703D01*
X79472455Y-52077300D01*
X92816854Y-52077300D01*
X94996000Y-54256447D01*
X97175146Y-52077300D01*
X97011088Y-51411143D01*
X95633549Y-50883501D01*
X94158949Y-50923184D01*
X92980912Y-51411143D01*
X92816854Y-52077300D01*
X79472455Y-52077300D01*
X79362355Y-49545000D01*
X114623640Y-49545000D01*
X114956098Y-69991207D01*
M02*
