G04 #@! TF.FileFunction,Soldermask,Bot*
%FSLAX46Y46*%
G04 Gerber Fmt 4.6, Leading zero omitted, Abs format (unit mm)*
G04 Created by KiCad (PCBNEW 4.0.7) date 05/17/18 11:27:15*
%MOMM*%
%LPD*%
G01*
G04 APERTURE LIST*
%ADD10C,0.100000*%
%ADD11C,2.000000*%
%ADD12O,2.000000X2.000000*%
%ADD13R,3.400000X3.400000*%
%ADD14C,3.400000*%
%ADD15C,2.900000*%
%ADD16R,3.900000X3.900000*%
%ADD17R,2.200000X2.200000*%
%ADD18C,2.200000*%
%ADD19C,2.400000*%
%ADD20O,2.900000X3.900000*%
%ADD21C,1.924000*%
%ADD22O,5.400000X5.400000*%
%ADD23R,2.000000X2.000000*%
%ADD24C,4.464000*%
%ADD25R,2.600000X2.600000*%
%ADD26O,2.600000X2.600000*%
%ADD27C,1.920000*%
%ADD28C,3.100000*%
%ADD29R,2.100000X2.100000*%
%ADD30O,2.100000X2.100000*%
G04 APERTURE END LIST*
D10*
D11*
X54610000Y-75438000D03*
D12*
X41910000Y-75438000D03*
D13*
X26416000Y-113284000D03*
D14*
X26416000Y-118364000D03*
D11*
X59436000Y-56388000D03*
X59436000Y-61388000D03*
X80010000Y-128016000D03*
D12*
X80010000Y-115316000D03*
D15*
X47578000Y-121920000D03*
X42578000Y-121920000D03*
X52578000Y-121920000D03*
D11*
X53340000Y-99568000D03*
X53340000Y-104568000D03*
D16*
X35560000Y-71882000D03*
X29560000Y-71882000D03*
X32560000Y-76582000D03*
D17*
X82042000Y-37592000D03*
D18*
X82042000Y-40132000D03*
D19*
X58420000Y-69850000D03*
X58420000Y-76200000D03*
X65278000Y-58674000D03*
X70358000Y-58674000D03*
D20*
X19812000Y-88138000D03*
D21*
X22352000Y-84328000D03*
X22352000Y-86868000D03*
D20*
X19812000Y-83058000D03*
D22*
X27432000Y-85598000D03*
D11*
X79248000Y-48514000D03*
D12*
X79248000Y-61214000D03*
D11*
X75438000Y-48514000D03*
D12*
X75438000Y-61214000D03*
D11*
X79248000Y-107188000D03*
D12*
X79248000Y-94488000D03*
D11*
X79248000Y-78232000D03*
D12*
X79248000Y-90932000D03*
D11*
X75184000Y-86106000D03*
D12*
X75184000Y-73406000D03*
D11*
X35052000Y-88138000D03*
D12*
X35052000Y-100838000D03*
D15*
X88138000Y-50974000D03*
X88138000Y-55974000D03*
X88138000Y-45974000D03*
X88138000Y-68246000D03*
X88138000Y-73246000D03*
X88138000Y-63246000D03*
X87884000Y-102536000D03*
X87884000Y-107536000D03*
X87884000Y-97536000D03*
X88138000Y-85518000D03*
X88138000Y-90518000D03*
X88138000Y-80518000D03*
D23*
X58674000Y-52832000D03*
D12*
X66294000Y-45212000D03*
X61214000Y-52832000D03*
X63754000Y-45212000D03*
X63754000Y-52832000D03*
X61214000Y-45212000D03*
X66294000Y-52832000D03*
X58674000Y-45212000D03*
D23*
X59182000Y-100584000D03*
D12*
X66802000Y-92964000D03*
X61722000Y-100584000D03*
X64262000Y-92964000D03*
X64262000Y-100584000D03*
X61722000Y-92964000D03*
X66802000Y-100584000D03*
X59182000Y-92964000D03*
D23*
X63500000Y-78994000D03*
D12*
X71120000Y-71374000D03*
X66040000Y-78994000D03*
X68580000Y-71374000D03*
X68580000Y-78994000D03*
X66040000Y-71374000D03*
X71120000Y-78994000D03*
X63500000Y-71374000D03*
D24*
X19050000Y-126746000D03*
X91440000Y-127254000D03*
X91186000Y-38100000D03*
X19050000Y-37846000D03*
D19*
X90678000Y-111506000D03*
X85344000Y-111506000D03*
X79756000Y-111506000D03*
D11*
X43942000Y-88392000D03*
D12*
X43942000Y-101092000D03*
D11*
X84074000Y-115316000D03*
D12*
X84074000Y-128016000D03*
D11*
X38608000Y-103632000D03*
D12*
X38608000Y-116332000D03*
D11*
X48260000Y-88392000D03*
D12*
X48260000Y-101092000D03*
D13*
X47498000Y-40640000D03*
D14*
X42418000Y-40640000D03*
D23*
X52070000Y-116840000D03*
D12*
X67310000Y-109220000D03*
X54610000Y-116840000D03*
X64770000Y-109220000D03*
X57150000Y-116840000D03*
X62230000Y-109220000D03*
X59690000Y-116840000D03*
X59690000Y-109220000D03*
X62230000Y-116840000D03*
X57150000Y-109220000D03*
X64770000Y-116840000D03*
X54610000Y-109220000D03*
X67310000Y-116840000D03*
X52070000Y-109220000D03*
D11*
X39624000Y-88138000D03*
D12*
X39624000Y-100838000D03*
D13*
X26416000Y-96520000D03*
D14*
X26416000Y-101600000D03*
X26416000Y-106680000D03*
D11*
X76200000Y-40386000D03*
X76200000Y-45386000D03*
X73406000Y-93218000D03*
X73406000Y-98218000D03*
X66040000Y-105156000D03*
X61040000Y-105156000D03*
X69596000Y-105410000D03*
X74596000Y-105410000D03*
X70866000Y-84074000D03*
X65866000Y-84074000D03*
X76708000Y-70104000D03*
X76708000Y-65104000D03*
X62992000Y-66040000D03*
X67992000Y-66040000D03*
X88138000Y-117602000D03*
X93138000Y-117602000D03*
X67056000Y-40640000D03*
X72056000Y-40640000D03*
X39370000Y-120142000D03*
X34370000Y-120142000D03*
X34290000Y-103632000D03*
D12*
X34290000Y-116332000D03*
D11*
X71120000Y-114554000D03*
X71120000Y-109554000D03*
X25654000Y-125222000D03*
D12*
X38354000Y-125222000D03*
D23*
X40132000Y-84582000D03*
D11*
X40132000Y-79582000D03*
X58928000Y-89154000D03*
X58928000Y-84154000D03*
X83312000Y-93218000D03*
D12*
X83312000Y-80518000D03*
D11*
X58420000Y-124968000D03*
X58420000Y-119968000D03*
X42672000Y-116586000D03*
D12*
X42672000Y-103886000D03*
D11*
X46736000Y-116586000D03*
D12*
X46736000Y-103886000D03*
D25*
X83058000Y-48768000D03*
D26*
X83058000Y-56388000D03*
D25*
X83312000Y-65532000D03*
D26*
X83312000Y-73152000D03*
D25*
X72644000Y-88900000D03*
D26*
X65024000Y-88900000D03*
D25*
X52832000Y-96266000D03*
D26*
X52832000Y-88646000D03*
D25*
X74930000Y-121158000D03*
D26*
X67310000Y-121158000D03*
D25*
X74930000Y-124714000D03*
D26*
X67310000Y-124714000D03*
D23*
X49022000Y-49276000D03*
D11*
X54022000Y-49276000D03*
D25*
X46736000Y-81534000D03*
D26*
X54356000Y-81534000D03*
D25*
X46482000Y-85344000D03*
D26*
X54102000Y-85344000D03*
D25*
X43434000Y-68072000D03*
D26*
X53594000Y-68072000D03*
D25*
X43434000Y-71628000D03*
D26*
X53594000Y-71628000D03*
D19*
X57658000Y-40894000D03*
X52578000Y-40894000D03*
D27*
X36830000Y-53086000D03*
X36830000Y-55626000D03*
X34830000Y-55626000D03*
X34830000Y-53086000D03*
D28*
X32130000Y-48356000D03*
X32130000Y-60356000D03*
D11*
X37592000Y-44450000D03*
D12*
X24892000Y-44450000D03*
D11*
X25654000Y-64008000D03*
D12*
X38354000Y-64008000D03*
D11*
X41656000Y-48514000D03*
D12*
X41656000Y-61214000D03*
D29*
X32766000Y-36830000D03*
D30*
X32766000Y-39370000D03*
X30226000Y-36830000D03*
X30226000Y-39370000D03*
X27686000Y-36830000D03*
X27686000Y-39370000D03*
D19*
X62738000Y-40894000D03*
D23*
X45720000Y-64262000D03*
D12*
X53340000Y-56642000D03*
X48260000Y-64262000D03*
X50800000Y-56642000D03*
X50800000Y-64262000D03*
X48260000Y-56642000D03*
X53340000Y-64262000D03*
X45720000Y-56642000D03*
M02*
