G04 #@! TF.FileFunction,Copper,L2,Bot,Signal*
%FSLAX46Y46*%
G04 Gerber Fmt 4.6, Leading zero omitted, Abs format (unit mm)*
G04 Created by KiCad (PCBNEW 4.0.7) date 05/17/18 11:27:15*
%MOMM*%
%LPD*%
G01*
G04 APERTURE LIST*
%ADD10C,0.100000*%
%ADD11C,1.600000*%
%ADD12O,1.600000X1.600000*%
%ADD13R,3.000000X3.000000*%
%ADD14C,3.000000*%
%ADD15C,2.500000*%
%ADD16R,3.500000X3.500000*%
%ADD17R,1.800000X1.800000*%
%ADD18C,1.800000*%
%ADD19C,2.000000*%
%ADD20O,2.500000X3.500000*%
%ADD21C,1.524000*%
%ADD22O,5.000000X5.000000*%
%ADD23R,1.600000X1.600000*%
%ADD24C,4.064000*%
%ADD25R,2.200000X2.200000*%
%ADD26O,2.200000X2.200000*%
%ADD27C,1.520000*%
%ADD28C,2.700000*%
%ADD29R,1.700000X1.700000*%
%ADD30O,1.700000X1.700000*%
%ADD31C,0.600000*%
%ADD32C,0.500000*%
%ADD33C,1.000000*%
G04 APERTURE END LIST*
D10*
D11*
X54610000Y-75438000D03*
D12*
X41910000Y-75438000D03*
D13*
X26416000Y-113284000D03*
D14*
X26416000Y-118364000D03*
D11*
X59436000Y-56388000D03*
X59436000Y-61388000D03*
X80010000Y-128016000D03*
D12*
X80010000Y-115316000D03*
D15*
X47578000Y-121920000D03*
X42578000Y-121920000D03*
X52578000Y-121920000D03*
D11*
X53340000Y-99568000D03*
X53340000Y-104568000D03*
D16*
X35560000Y-71882000D03*
X29560000Y-71882000D03*
X32560000Y-76582000D03*
D17*
X82042000Y-37592000D03*
D18*
X82042000Y-40132000D03*
D19*
X58420000Y-69850000D03*
X58420000Y-76200000D03*
X65278000Y-58674000D03*
X70358000Y-58674000D03*
D20*
X19812000Y-88138000D03*
D21*
X22352000Y-84328000D03*
X22352000Y-86868000D03*
D20*
X19812000Y-83058000D03*
D22*
X27432000Y-85598000D03*
D11*
X79248000Y-48514000D03*
D12*
X79248000Y-61214000D03*
D11*
X75438000Y-48514000D03*
D12*
X75438000Y-61214000D03*
D11*
X79248000Y-107188000D03*
D12*
X79248000Y-94488000D03*
D11*
X79248000Y-78232000D03*
D12*
X79248000Y-90932000D03*
D11*
X75184000Y-86106000D03*
D12*
X75184000Y-73406000D03*
D11*
X35052000Y-88138000D03*
D12*
X35052000Y-100838000D03*
D15*
X88138000Y-50974000D03*
X88138000Y-55974000D03*
X88138000Y-45974000D03*
X88138000Y-68246000D03*
X88138000Y-73246000D03*
X88138000Y-63246000D03*
X87884000Y-102536000D03*
X87884000Y-107536000D03*
X87884000Y-97536000D03*
X88138000Y-85518000D03*
X88138000Y-90518000D03*
X88138000Y-80518000D03*
D23*
X58674000Y-52832000D03*
D12*
X66294000Y-45212000D03*
X61214000Y-52832000D03*
X63754000Y-45212000D03*
X63754000Y-52832000D03*
X61214000Y-45212000D03*
X66294000Y-52832000D03*
X58674000Y-45212000D03*
D23*
X59182000Y-100584000D03*
D12*
X66802000Y-92964000D03*
X61722000Y-100584000D03*
X64262000Y-92964000D03*
X64262000Y-100584000D03*
X61722000Y-92964000D03*
X66802000Y-100584000D03*
X59182000Y-92964000D03*
D23*
X63500000Y-78994000D03*
D12*
X71120000Y-71374000D03*
X66040000Y-78994000D03*
X68580000Y-71374000D03*
X68580000Y-78994000D03*
X66040000Y-71374000D03*
X71120000Y-78994000D03*
X63500000Y-71374000D03*
D24*
X19050000Y-126746000D03*
X91440000Y-127254000D03*
X91186000Y-38100000D03*
X19050000Y-37846000D03*
D19*
X90678000Y-111506000D03*
X85344000Y-111506000D03*
X79756000Y-111506000D03*
D11*
X43942000Y-88392000D03*
D12*
X43942000Y-101092000D03*
D11*
X84074000Y-115316000D03*
D12*
X84074000Y-128016000D03*
D11*
X38608000Y-103632000D03*
D12*
X38608000Y-116332000D03*
D11*
X48260000Y-88392000D03*
D12*
X48260000Y-101092000D03*
D13*
X47498000Y-40640000D03*
D14*
X42418000Y-40640000D03*
D23*
X52070000Y-116840000D03*
D12*
X67310000Y-109220000D03*
X54610000Y-116840000D03*
X64770000Y-109220000D03*
X57150000Y-116840000D03*
X62230000Y-109220000D03*
X59690000Y-116840000D03*
X59690000Y-109220000D03*
X62230000Y-116840000D03*
X57150000Y-109220000D03*
X64770000Y-116840000D03*
X54610000Y-109220000D03*
X67310000Y-116840000D03*
X52070000Y-109220000D03*
D11*
X39624000Y-88138000D03*
D12*
X39624000Y-100838000D03*
D13*
X26416000Y-96520000D03*
D14*
X26416000Y-101600000D03*
X26416000Y-106680000D03*
D11*
X76200000Y-40386000D03*
X76200000Y-45386000D03*
X73406000Y-93218000D03*
X73406000Y-98218000D03*
X66040000Y-105156000D03*
X61040000Y-105156000D03*
X69596000Y-105410000D03*
X74596000Y-105410000D03*
X70866000Y-84074000D03*
X65866000Y-84074000D03*
X76708000Y-70104000D03*
X76708000Y-65104000D03*
X62992000Y-66040000D03*
X67992000Y-66040000D03*
X88138000Y-117602000D03*
X93138000Y-117602000D03*
X67056000Y-40640000D03*
X72056000Y-40640000D03*
X39370000Y-120142000D03*
X34370000Y-120142000D03*
X34290000Y-103632000D03*
D12*
X34290000Y-116332000D03*
D11*
X71120000Y-114554000D03*
X71120000Y-109554000D03*
X25654000Y-125222000D03*
D12*
X38354000Y-125222000D03*
D23*
X40132000Y-84582000D03*
D11*
X40132000Y-79582000D03*
X58928000Y-89154000D03*
X58928000Y-84154000D03*
X83312000Y-93218000D03*
D12*
X83312000Y-80518000D03*
D11*
X58420000Y-124968000D03*
X58420000Y-119968000D03*
X42672000Y-116586000D03*
D12*
X42672000Y-103886000D03*
D11*
X46736000Y-116586000D03*
D12*
X46736000Y-103886000D03*
D25*
X83058000Y-48768000D03*
D26*
X83058000Y-56388000D03*
D25*
X83312000Y-65532000D03*
D26*
X83312000Y-73152000D03*
D25*
X72644000Y-88900000D03*
D26*
X65024000Y-88900000D03*
D25*
X52832000Y-96266000D03*
D26*
X52832000Y-88646000D03*
D25*
X74930000Y-121158000D03*
D26*
X67310000Y-121158000D03*
D25*
X74930000Y-124714000D03*
D26*
X67310000Y-124714000D03*
D23*
X49022000Y-49276000D03*
D11*
X54022000Y-49276000D03*
D25*
X46736000Y-81534000D03*
D26*
X54356000Y-81534000D03*
D25*
X46482000Y-85344000D03*
D26*
X54102000Y-85344000D03*
D25*
X43434000Y-68072000D03*
D26*
X53594000Y-68072000D03*
D25*
X43434000Y-71628000D03*
D26*
X53594000Y-71628000D03*
D19*
X57658000Y-40894000D03*
X52578000Y-40894000D03*
D27*
X36830000Y-53086000D03*
X36830000Y-55626000D03*
X34830000Y-55626000D03*
X34830000Y-53086000D03*
D28*
X32130000Y-48356000D03*
X32130000Y-60356000D03*
D11*
X37592000Y-44450000D03*
D12*
X24892000Y-44450000D03*
D11*
X25654000Y-64008000D03*
D12*
X38354000Y-64008000D03*
D11*
X41656000Y-48514000D03*
D12*
X41656000Y-61214000D03*
D29*
X32766000Y-36830000D03*
D30*
X32766000Y-39370000D03*
X30226000Y-36830000D03*
X30226000Y-39370000D03*
X27686000Y-36830000D03*
X27686000Y-39370000D03*
D19*
X62738000Y-40894000D03*
D23*
X45720000Y-64262000D03*
D12*
X53340000Y-56642000D03*
X48260000Y-64262000D03*
X50800000Y-56642000D03*
X50800000Y-64262000D03*
X48260000Y-56642000D03*
X53340000Y-64262000D03*
X45720000Y-56642000D03*
D31*
X71374000Y-101092000D03*
X58928000Y-112014000D03*
X51054000Y-111760000D03*
X70104000Y-118110000D03*
X56896000Y-107188000D03*
X29210000Y-51308000D03*
X51816000Y-51816000D03*
X36830000Y-66548000D03*
X33274000Y-62992000D03*
D32*
X53340000Y-104568000D02*
X57738000Y-104568000D01*
X58326000Y-105156000D02*
X61040000Y-105156000D01*
X57738000Y-104568000D02*
X58326000Y-105156000D01*
X66294000Y-45212000D02*
X70866000Y-45212000D01*
X70866000Y-45212000D02*
X76200000Y-40640000D01*
X76200000Y-40640000D02*
X76200000Y-40386000D01*
X66294000Y-45212000D02*
X66294000Y-44704000D01*
X27432000Y-88900000D02*
X25400000Y-88900000D01*
X25400000Y-88900000D02*
X22352000Y-86868000D01*
X41910000Y-75438000D02*
X38608000Y-75438000D01*
X32512000Y-86868000D02*
X30480000Y-88900000D01*
X32512000Y-81534000D02*
X32512000Y-86868000D01*
X38608000Y-75438000D02*
X32512000Y-81534000D01*
X35052000Y-93472000D02*
X35052000Y-100838000D01*
X30480000Y-88900000D02*
X35052000Y-93472000D01*
X27432000Y-88900000D02*
X30480000Y-88900000D01*
X39624000Y-100838000D02*
X39116000Y-100838000D01*
X82042000Y-40132000D02*
X78740000Y-40132000D01*
X78740000Y-40132000D02*
X78486000Y-40386000D01*
X67310000Y-116840000D02*
X67310000Y-117094000D01*
X67310000Y-117094000D02*
X65532000Y-118872000D01*
X58420000Y-118110000D02*
X57150000Y-116840000D01*
X59182000Y-118110000D02*
X58420000Y-118110000D01*
X59944000Y-118872000D02*
X59182000Y-118110000D01*
X65532000Y-118872000D02*
X59944000Y-118872000D01*
X71120000Y-114554000D02*
X71120000Y-115062000D01*
X71120000Y-115062000D02*
X69342000Y-116840000D01*
X69342000Y-116840000D02*
X67310000Y-116840000D01*
X78486000Y-40386000D02*
X77470000Y-41402000D01*
X77470000Y-41402000D02*
X77724000Y-41402000D01*
X59182000Y-93218000D02*
X59182000Y-92964000D01*
X56896000Y-117094000D02*
X57150000Y-116840000D01*
X77470000Y-41402000D02*
X77724000Y-41402000D01*
X66294000Y-52832000D02*
X67564000Y-52832000D01*
X69596000Y-49276000D02*
X77470000Y-41402000D01*
X69596000Y-50800000D02*
X69596000Y-49276000D01*
X67564000Y-52832000D02*
X69596000Y-50800000D01*
X66294000Y-52832000D02*
X66294000Y-51562000D01*
X58674000Y-47752000D02*
X58674000Y-45212000D01*
X59690000Y-48768000D02*
X58674000Y-47752000D01*
X63500000Y-48768000D02*
X59690000Y-48768000D01*
X66294000Y-51562000D02*
X63500000Y-48768000D01*
X66040000Y-105156000D02*
X66040000Y-104394000D01*
X66040000Y-104394000D02*
X66802000Y-103632000D01*
X66802000Y-103632000D02*
X66802000Y-100584000D01*
X53340000Y-99568000D02*
X55372000Y-99568000D01*
X64770000Y-98552000D02*
X66802000Y-100584000D01*
X56388000Y-98552000D02*
X64770000Y-98552000D01*
X55372000Y-99568000D02*
X56388000Y-98552000D01*
X53340000Y-99568000D02*
X53340000Y-99060000D01*
X53340000Y-99060000D02*
X59182000Y-93218000D01*
X88138000Y-84328000D02*
X88138000Y-85518000D01*
X75184000Y-86106000D02*
X75692000Y-86106000D01*
D33*
X70866000Y-84074000D02*
X72136000Y-84074000D01*
X74168000Y-86106000D02*
X75184000Y-86106000D01*
X72136000Y-84074000D02*
X74168000Y-86106000D01*
X58420000Y-76200000D02*
X58928000Y-76200000D01*
D32*
X42418000Y-40640000D02*
X41910000Y-35052000D01*
X32004000Y-68326000D02*
X35560000Y-71882000D01*
X25146000Y-68326000D02*
X32004000Y-68326000D01*
X22352000Y-65532000D02*
X25146000Y-68326000D01*
X22352000Y-43434000D02*
X22352000Y-65532000D01*
X23114000Y-42672000D02*
X22352000Y-43434000D01*
X23114000Y-35052000D02*
X23114000Y-42672000D01*
X23622000Y-34544000D02*
X23114000Y-35052000D01*
X41402000Y-34544000D02*
X23622000Y-34544000D01*
X41910000Y-35052000D02*
X41402000Y-34544000D01*
X42418000Y-41901672D02*
X42418000Y-40640000D01*
X58420000Y-69850000D02*
X54864000Y-73406000D01*
X37338000Y-73406000D02*
X35814000Y-71882000D01*
X54864000Y-73406000D02*
X37338000Y-73406000D01*
X35814000Y-71882000D02*
X35560000Y-71882000D01*
X36068000Y-72390000D02*
X35560000Y-71882000D01*
X88138000Y-50974000D02*
X87964000Y-50974000D01*
X87964000Y-50974000D02*
X85852000Y-53086000D01*
X85852000Y-65960000D02*
X88138000Y-68246000D01*
X85852000Y-53086000D02*
X85852000Y-65960000D01*
X61214000Y-52832000D02*
X61214000Y-53086000D01*
X61214000Y-53086000D02*
X63246000Y-55118000D01*
X72978000Y-50974000D02*
X88138000Y-50974000D01*
X68834000Y-55118000D02*
X72978000Y-50974000D01*
X63246000Y-55118000D02*
X68834000Y-55118000D01*
X88138000Y-68246000D02*
X88138000Y-67056000D01*
X88138000Y-68246000D02*
X87296000Y-68246000D01*
X87804000Y-68246000D02*
X88138000Y-68246000D01*
X66040000Y-78994000D02*
X66040000Y-79756000D01*
X66040000Y-79756000D02*
X63754000Y-82042000D01*
X63754000Y-82042000D02*
X63754000Y-87630000D01*
X63754000Y-87630000D02*
X65024000Y-88900000D01*
X79248000Y-90932000D02*
X70358000Y-90932000D01*
X70358000Y-90932000D02*
X69596000Y-91694000D01*
X65024000Y-88900000D02*
X67056000Y-88900000D01*
X67056000Y-88900000D02*
X69596000Y-91440000D01*
X69596000Y-91440000D02*
X69596000Y-91694000D01*
X69596000Y-91694000D02*
X69596000Y-105410000D01*
X78994000Y-91186000D02*
X79248000Y-90932000D01*
X85344000Y-111506000D02*
X84836000Y-111506000D01*
X84836000Y-111506000D02*
X82042000Y-108712000D01*
X82042000Y-108712000D02*
X76454000Y-108712000D01*
X76454000Y-108712000D02*
X75692000Y-107950000D01*
X75692000Y-107950000D02*
X75692000Y-106506000D01*
X75692000Y-106506000D02*
X74596000Y-105410000D01*
X75184000Y-73406000D02*
X75184000Y-71120000D01*
X73152000Y-61468000D02*
X70358000Y-58674000D01*
X73152000Y-69088000D02*
X73152000Y-61468000D01*
X75184000Y-71120000D02*
X73152000Y-69088000D01*
D33*
X71120000Y-78994000D02*
X74168000Y-78994000D01*
X75184000Y-77978000D02*
X75184000Y-73406000D01*
X74168000Y-78994000D02*
X75184000Y-77978000D01*
D32*
X43942000Y-88392000D02*
X43942000Y-93726000D01*
X48514000Y-98298000D02*
X48514000Y-100838000D01*
X43942000Y-93726000D02*
X48514000Y-98298000D01*
X48514000Y-100838000D02*
X48260000Y-101092000D01*
X48260000Y-101092000D02*
X48260000Y-102108000D01*
X49530000Y-113030000D02*
X51054000Y-114554000D01*
X49530000Y-103378000D02*
X49530000Y-113030000D01*
X48260000Y-102108000D02*
X49530000Y-103378000D01*
X51054000Y-114554000D02*
X59690000Y-114554000D01*
X68072000Y-114554000D02*
X68580000Y-114554000D01*
X77216000Y-117602000D02*
X88138000Y-117602000D01*
X72644000Y-113030000D02*
X77216000Y-117602000D01*
X70104000Y-113030000D02*
X72644000Y-113030000D01*
X68580000Y-114554000D02*
X70104000Y-113030000D01*
X59690000Y-114554000D02*
X68072000Y-114554000D01*
X87630000Y-117602000D02*
X88138000Y-117602000D01*
X59690000Y-114554000D02*
X59690000Y-116840000D01*
X62230000Y-116840000D02*
X62484000Y-116840000D01*
X62230000Y-116840000D02*
X62230000Y-117094000D01*
X43942000Y-101092000D02*
X43688000Y-101092000D01*
X43688000Y-101092000D02*
X42418000Y-102362000D01*
X42418000Y-102362000D02*
X31496000Y-102362000D01*
X29464000Y-116332000D02*
X26416000Y-118364000D01*
X31242000Y-114554000D02*
X29464000Y-116332000D01*
X31242000Y-102616000D02*
X31242000Y-114554000D01*
X31496000Y-102362000D02*
X31242000Y-102616000D01*
X26924000Y-118364000D02*
X26416000Y-118364000D01*
X26670000Y-118618000D02*
X26416000Y-118364000D01*
X90678000Y-111506000D02*
X90678000Y-109220000D01*
X89582000Y-102536000D02*
X87884000Y-102536000D01*
X91694000Y-104648000D02*
X89582000Y-102536000D01*
X91694000Y-108204000D02*
X91694000Y-104648000D01*
X90678000Y-109220000D02*
X91694000Y-108204000D01*
X71374000Y-101092000D02*
X72818000Y-102536000D01*
X72818000Y-102536000D02*
X87884000Y-102536000D01*
X90678000Y-111506000D02*
X89916000Y-111506000D01*
X79756000Y-111506000D02*
X61468000Y-111506000D01*
X60706000Y-110744000D02*
X60452000Y-110744000D01*
X61468000Y-111506000D02*
X60706000Y-110744000D01*
X79756000Y-111506000D02*
X79248000Y-111506000D01*
X60452000Y-110744000D02*
X56134000Y-110744000D01*
X56134000Y-110744000D02*
X54610000Y-109220000D01*
X25654000Y-125222000D02*
X27686000Y-125222000D01*
X37084000Y-122428000D02*
X39370000Y-120142000D01*
X30480000Y-122428000D02*
X37084000Y-122428000D01*
X27686000Y-125222000D02*
X30480000Y-122428000D01*
X51308000Y-112014000D02*
X58928000Y-112014000D01*
X51054000Y-111760000D02*
X51308000Y-112014000D01*
X39370000Y-120142000D02*
X39116000Y-120142000D01*
X39116000Y-120142000D02*
X36830000Y-117856000D01*
X34290000Y-104902000D02*
X34290000Y-103632000D01*
X36830000Y-107442000D02*
X34290000Y-104902000D01*
X36830000Y-117856000D02*
X36830000Y-107442000D01*
X38354000Y-125222000D02*
X39276000Y-125222000D01*
X39276000Y-125222000D02*
X42578000Y-121920000D01*
X38354000Y-124714000D02*
X38354000Y-125222000D01*
X42578000Y-121920000D02*
X43434000Y-122174000D01*
X43434000Y-122174000D02*
X42672000Y-121412000D01*
X67310000Y-124714000D02*
X68326000Y-124714000D01*
X68326000Y-124714000D02*
X70104000Y-122936000D01*
X70104000Y-122936000D02*
X70104000Y-118110000D01*
X64262000Y-107950000D02*
X64262000Y-108712000D01*
X63500000Y-107188000D02*
X64262000Y-107950000D01*
X56896000Y-107188000D02*
X63500000Y-107188000D01*
X64262000Y-108712000D02*
X64770000Y-109220000D01*
X42672000Y-103886000D02*
X42672000Y-104648000D01*
X42672000Y-104648000D02*
X44450000Y-106426000D01*
X44450000Y-106426000D02*
X44450000Y-117348000D01*
X44450000Y-117348000D02*
X46482000Y-119380000D01*
X46482000Y-119380000D02*
X54102000Y-119380000D01*
X54102000Y-119380000D02*
X54610000Y-118872000D01*
X54610000Y-118872000D02*
X54610000Y-116840000D01*
X54610000Y-116840000D02*
X54610000Y-117348000D01*
X46736000Y-81534000D02*
X48514000Y-81534000D01*
X48514000Y-81534000D02*
X54610000Y-75438000D01*
X68580000Y-78994000D02*
X68580000Y-78232000D01*
X68580000Y-78232000D02*
X67564000Y-77216000D01*
X57150000Y-82296000D02*
X54102000Y-85344000D01*
X57912000Y-82296000D02*
X57150000Y-82296000D01*
X62992000Y-77216000D02*
X57912000Y-82296000D01*
X67564000Y-77216000D02*
X62992000Y-77216000D01*
X68580000Y-78740000D02*
X68580000Y-78994000D01*
X36830000Y-53086000D02*
X36830000Y-52832000D01*
X36830000Y-52832000D02*
X35306000Y-51308000D01*
X35306000Y-51308000D02*
X29210000Y-51308000D01*
X36830000Y-53086000D02*
X38862000Y-53086000D01*
X41656000Y-55880000D02*
X41656000Y-61214000D01*
X38862000Y-53086000D02*
X41656000Y-55880000D01*
X41656000Y-61214000D02*
X41656000Y-66294000D01*
X41656000Y-66294000D02*
X43434000Y-68072000D01*
X34830000Y-53086000D02*
X34036000Y-53086000D01*
X38354000Y-62992000D02*
X38354000Y-64008000D01*
X33020000Y-57658000D02*
X38354000Y-62992000D01*
X33020000Y-54102000D02*
X33020000Y-57658000D01*
X34036000Y-53086000D02*
X33020000Y-54102000D01*
X38354000Y-64008000D02*
X38354000Y-66548000D01*
X38354000Y-66548000D02*
X43434000Y-71628000D01*
X32766000Y-36830000D02*
X34290000Y-36830000D01*
X34290000Y-36830000D02*
X40386000Y-42926000D01*
X40386000Y-42926000D02*
X43180000Y-42926000D01*
X51816000Y-49022000D02*
X51816000Y-51816000D01*
X49530000Y-46736000D02*
X51816000Y-49022000D01*
X46990000Y-46736000D02*
X49530000Y-46736000D01*
X43180000Y-42926000D02*
X46990000Y-46736000D01*
X25654000Y-64008000D02*
X26670000Y-64008000D01*
X29210000Y-66548000D02*
X36830000Y-66548000D01*
X26670000Y-64008000D02*
X29210000Y-66548000D01*
X37592000Y-42164000D02*
X37846000Y-42164000D01*
X39624000Y-43942000D02*
X41910000Y-43942000D01*
X37846000Y-42164000D02*
X39624000Y-43942000D01*
X50546000Y-59436000D02*
X53340000Y-56642000D01*
X44196000Y-59436000D02*
X50546000Y-59436000D01*
X43688000Y-58928000D02*
X44196000Y-59436000D01*
X43688000Y-54610000D02*
X43688000Y-58928000D01*
X41656000Y-52578000D02*
X43688000Y-54610000D01*
X41656000Y-48514000D02*
X41656000Y-52578000D01*
X30226000Y-39370000D02*
X30226000Y-40386000D01*
X53340000Y-54610000D02*
X53340000Y-56642000D01*
X51816000Y-53086000D02*
X53340000Y-54610000D01*
X49022000Y-53086000D02*
X51816000Y-53086000D01*
X46990000Y-51054000D02*
X49022000Y-53086000D01*
X46990000Y-49022000D02*
X46990000Y-51054000D01*
X41910000Y-43942000D02*
X46990000Y-49022000D01*
X32004000Y-42164000D02*
X37592000Y-42164000D01*
X30226000Y-40386000D02*
X32004000Y-42164000D01*
X27686000Y-36830000D02*
X27178000Y-36830000D01*
X27178000Y-36830000D02*
X26162000Y-37846000D01*
X26162000Y-37846000D02*
X26162000Y-60198000D01*
X26162000Y-60198000D02*
X28956000Y-62992000D01*
X28956000Y-62992000D02*
X33274000Y-62992000D01*
G36*
X80377307Y-38492000D02*
X80429604Y-38769933D01*
X80593862Y-39025198D01*
X80695547Y-39094677D01*
X79966227Y-39823997D01*
X80357720Y-40215490D01*
X80459214Y-40725731D01*
X80711269Y-40826335D01*
X81405604Y-40132000D01*
X81087406Y-39813802D01*
X81644515Y-39256693D01*
X81803089Y-39256693D01*
X82042000Y-39495604D01*
X82280911Y-39256693D01*
X82439485Y-39256693D01*
X82996594Y-39813802D01*
X82678396Y-40132000D01*
X83372731Y-40826335D01*
X83624786Y-40725731D01*
X83704954Y-40236816D01*
X84117773Y-39823997D01*
X83389232Y-39095456D01*
X83475198Y-39040138D01*
X83646446Y-38789508D01*
X83706693Y-38492000D01*
X83706693Y-37588000D01*
X83970446Y-37588000D01*
X92460000Y-46077554D01*
X92460000Y-104029032D01*
X92401107Y-103940893D01*
X90289107Y-101828893D01*
X89964684Y-101612120D01*
X89639540Y-101547445D01*
X89580506Y-101404571D01*
X89018388Y-100841471D01*
X88283570Y-100536348D01*
X87487921Y-100535654D01*
X86752571Y-100839494D01*
X86189471Y-101401612D01*
X86133668Y-101536000D01*
X73232214Y-101536000D01*
X72314274Y-100618060D01*
X72264666Y-100498000D01*
X71969554Y-100202372D01*
X71583774Y-100042182D01*
X71166058Y-100041818D01*
X70780000Y-100201334D01*
X70596000Y-100385013D01*
X70596000Y-98524961D01*
X71855732Y-98524961D01*
X72091208Y-99094857D01*
X72526849Y-99531260D01*
X73096333Y-99767730D01*
X73712961Y-99768268D01*
X74282857Y-99532792D01*
X74719260Y-99097151D01*
X74955730Y-98527667D01*
X74956249Y-97932079D01*
X85883654Y-97932079D01*
X86187494Y-98667429D01*
X86749612Y-99230529D01*
X87484430Y-99535652D01*
X88280079Y-99536346D01*
X89015429Y-99232506D01*
X89578529Y-98670388D01*
X89883652Y-97935570D01*
X89884346Y-97139921D01*
X89580506Y-96404571D01*
X89018388Y-95841471D01*
X88283570Y-95536348D01*
X87487921Y-95535654D01*
X86752571Y-95839494D01*
X86189471Y-96401612D01*
X85884348Y-97136430D01*
X85883654Y-97932079D01*
X74956249Y-97932079D01*
X74956268Y-97911039D01*
X74720792Y-97341143D01*
X74285151Y-96904740D01*
X73715667Y-96668270D01*
X73099039Y-96667732D01*
X72529143Y-96903208D01*
X72092740Y-97338849D01*
X71856270Y-97908333D01*
X71855732Y-98524961D01*
X70596000Y-98524961D01*
X70596000Y-92108214D01*
X70772214Y-91932000D01*
X72500301Y-91932000D01*
X72092740Y-92338849D01*
X71856270Y-92908333D01*
X71855732Y-93524961D01*
X72091208Y-94094857D01*
X72526849Y-94531260D01*
X73096333Y-94767730D01*
X73712961Y-94768268D01*
X74282857Y-94532792D01*
X74358146Y-94457634D01*
X77698000Y-94457634D01*
X77698000Y-94518366D01*
X77815987Y-95111525D01*
X78151984Y-95614382D01*
X78654841Y-95950379D01*
X79248000Y-96068366D01*
X79841159Y-95950379D01*
X80344016Y-95614382D01*
X80680013Y-95111525D01*
X80798000Y-94518366D01*
X80798000Y-94457634D01*
X80680013Y-93864475D01*
X80453158Y-93524961D01*
X81761732Y-93524961D01*
X81997208Y-94094857D01*
X82432849Y-94531260D01*
X83002333Y-94767730D01*
X83618961Y-94768268D01*
X84188857Y-94532792D01*
X84625260Y-94097151D01*
X84861730Y-93527667D01*
X84862268Y-92911039D01*
X84626792Y-92341143D01*
X84191151Y-91904740D01*
X83621667Y-91668270D01*
X83005039Y-91667732D01*
X82435143Y-91903208D01*
X81998740Y-92338849D01*
X81762270Y-92908333D01*
X81761732Y-93524961D01*
X80453158Y-93524961D01*
X80344016Y-93361618D01*
X79841159Y-93025621D01*
X79248000Y-92907634D01*
X78654841Y-93025621D01*
X78151984Y-93361618D01*
X77815987Y-93864475D01*
X77698000Y-94457634D01*
X74358146Y-94457634D01*
X74719260Y-94097151D01*
X74955730Y-93527667D01*
X74956268Y-92911039D01*
X74720792Y-92341143D01*
X74312363Y-91932000D01*
X78067539Y-91932000D01*
X78151984Y-92058382D01*
X78654841Y-92394379D01*
X79248000Y-92512366D01*
X79841159Y-92394379D01*
X80344016Y-92058382D01*
X80680013Y-91555525D01*
X80798000Y-90962366D01*
X80798000Y-90914079D01*
X86137654Y-90914079D01*
X86441494Y-91649429D01*
X87003612Y-92212529D01*
X87738430Y-92517652D01*
X88534079Y-92518346D01*
X89269429Y-92214506D01*
X89832529Y-91652388D01*
X90137652Y-90917570D01*
X90138346Y-90121921D01*
X89834506Y-89386571D01*
X89272388Y-88823471D01*
X88537570Y-88518348D01*
X87741921Y-88517654D01*
X87006571Y-88821494D01*
X86443471Y-89383612D01*
X86138348Y-90118430D01*
X86137654Y-90914079D01*
X80798000Y-90914079D01*
X80798000Y-90901634D01*
X80680013Y-90308475D01*
X80344016Y-89805618D01*
X79841159Y-89469621D01*
X79248000Y-89351634D01*
X78654841Y-89469621D01*
X78151984Y-89805618D01*
X78067539Y-89932000D01*
X74502000Y-89932000D01*
X74502000Y-89639500D01*
X74312500Y-89450000D01*
X73194000Y-89450000D01*
X73194000Y-89932000D01*
X72094000Y-89932000D01*
X72094000Y-89450000D01*
X70975500Y-89450000D01*
X70786000Y-89639500D01*
X70786000Y-89932000D01*
X70358000Y-89932000D01*
X69975316Y-90008120D01*
X69737342Y-90167129D01*
X67763107Y-88192893D01*
X67438684Y-87976120D01*
X67056000Y-87900000D01*
X66574289Y-87900000D01*
X66406728Y-87649225D01*
X70786000Y-87649225D01*
X70786000Y-88160500D01*
X70975500Y-88350000D01*
X72094000Y-88350000D01*
X72094000Y-87231500D01*
X71904500Y-87042000D01*
X71393224Y-87042000D01*
X71114627Y-87157399D01*
X70901398Y-87370628D01*
X70786000Y-87649225D01*
X66406728Y-87649225D01*
X66368392Y-87591852D01*
X65768208Y-87190823D01*
X65060244Y-87050000D01*
X64987756Y-87050000D01*
X64754000Y-87096497D01*
X64754000Y-86341907D01*
X73180323Y-86341907D01*
X73880416Y-87042000D01*
X73383500Y-87042000D01*
X73194000Y-87231500D01*
X73194000Y-88350000D01*
X74312500Y-88350000D01*
X74502000Y-88160500D01*
X74502000Y-87663584D01*
X74948093Y-88109677D01*
X75400643Y-87657126D01*
X75764017Y-87584846D01*
X75849119Y-87336805D01*
X75709378Y-87197063D01*
X87342820Y-87197063D01*
X87497684Y-87462632D01*
X88290604Y-87559644D01*
X88778316Y-87462632D01*
X88933180Y-87197063D01*
X88138000Y-86401883D01*
X87342820Y-87197063D01*
X75709378Y-87197063D01*
X75184000Y-86671685D01*
X74901157Y-86954528D01*
X74335472Y-86388843D01*
X74618315Y-86106000D01*
X75749685Y-86106000D01*
X76414805Y-86771119D01*
X76662846Y-86686017D01*
X76772239Y-86075936D01*
X76691614Y-85670604D01*
X86096356Y-85670604D01*
X86193368Y-86158316D01*
X86458937Y-86313180D01*
X87254117Y-85518000D01*
X89021883Y-85518000D01*
X89817063Y-86313180D01*
X90082632Y-86158316D01*
X90179644Y-85365396D01*
X90082632Y-84877684D01*
X89817063Y-84722820D01*
X89021883Y-85518000D01*
X87254117Y-85518000D01*
X86458937Y-84722820D01*
X86193368Y-84877684D01*
X86096356Y-85670604D01*
X76691614Y-85670604D01*
X76662846Y-85525983D01*
X76414805Y-85440881D01*
X75749685Y-86106000D01*
X74618315Y-86106000D01*
X73953195Y-85440881D01*
X73705154Y-85525983D01*
X73641554Y-85880677D01*
X73180323Y-86341907D01*
X64754000Y-86341907D01*
X64754000Y-85154004D01*
X64986849Y-85387260D01*
X65556333Y-85623730D01*
X66172961Y-85624268D01*
X66742857Y-85388792D01*
X66826990Y-85304805D01*
X70200881Y-85304805D01*
X70285983Y-85552846D01*
X70896064Y-85662239D01*
X71446017Y-85552846D01*
X71531119Y-85304805D01*
X71101510Y-84875195D01*
X74518881Y-84875195D01*
X75184000Y-85540315D01*
X75849119Y-84875195D01*
X75764017Y-84627154D01*
X75153936Y-84517761D01*
X74603983Y-84627154D01*
X74518881Y-84875195D01*
X71101510Y-84875195D01*
X70866000Y-84639685D01*
X70200881Y-85304805D01*
X66826990Y-85304805D01*
X67179260Y-84953151D01*
X67415730Y-84383667D01*
X67415973Y-84104064D01*
X69277761Y-84104064D01*
X69387154Y-84654017D01*
X69635195Y-84739119D01*
X70300315Y-84074000D01*
X71431685Y-84074000D01*
X72096805Y-84739119D01*
X72344846Y-84654017D01*
X72454239Y-84043936D01*
X72413462Y-83838937D01*
X87342820Y-83838937D01*
X88138000Y-84634117D01*
X88933180Y-83838937D01*
X88778316Y-83573368D01*
X87985396Y-83476356D01*
X87497684Y-83573368D01*
X87342820Y-83838937D01*
X72413462Y-83838937D01*
X72344846Y-83493983D01*
X72096805Y-83408881D01*
X71431685Y-84074000D01*
X70300315Y-84074000D01*
X69635195Y-83408881D01*
X69387154Y-83493983D01*
X69277761Y-84104064D01*
X67415973Y-84104064D01*
X67416268Y-83767039D01*
X67180792Y-83197143D01*
X66827463Y-82843195D01*
X70200881Y-82843195D01*
X70866000Y-83508315D01*
X71531119Y-82843195D01*
X71446017Y-82595154D01*
X70835936Y-82485761D01*
X70285983Y-82595154D01*
X70200881Y-82843195D01*
X66827463Y-82843195D01*
X66745151Y-82760740D01*
X66175667Y-82524270D01*
X65559039Y-82523732D01*
X64989143Y-82759208D01*
X64754000Y-82993940D01*
X64754000Y-82456214D01*
X66747107Y-80463107D01*
X66749947Y-80458857D01*
X66847134Y-80313406D01*
X67136016Y-80120382D01*
X67310000Y-79859996D01*
X67483984Y-80120382D01*
X67986841Y-80456379D01*
X68580000Y-80574366D01*
X69173159Y-80456379D01*
X69676016Y-80120382D01*
X69850000Y-79859996D01*
X70023984Y-80120382D01*
X70526841Y-80456379D01*
X71120000Y-80574366D01*
X71556029Y-80487634D01*
X81762000Y-80487634D01*
X81762000Y-80548366D01*
X81879987Y-81141525D01*
X82215984Y-81644382D01*
X82718841Y-81980379D01*
X83312000Y-82098366D01*
X83905159Y-81980379D01*
X84408016Y-81644382D01*
X84744013Y-81141525D01*
X84789254Y-80914079D01*
X86137654Y-80914079D01*
X86441494Y-81649429D01*
X87003612Y-82212529D01*
X87738430Y-82517652D01*
X88534079Y-82518346D01*
X89269429Y-82214506D01*
X89832529Y-81652388D01*
X90137652Y-80917570D01*
X90138346Y-80121921D01*
X89834506Y-79386571D01*
X89272388Y-78823471D01*
X88537570Y-78518348D01*
X87741921Y-78517654D01*
X87006571Y-78821494D01*
X86443471Y-79383612D01*
X86138348Y-80118430D01*
X86137654Y-80914079D01*
X84789254Y-80914079D01*
X84862000Y-80548366D01*
X84862000Y-80487634D01*
X84744013Y-79894475D01*
X84408016Y-79391618D01*
X83905159Y-79055621D01*
X83312000Y-78937634D01*
X82718841Y-79055621D01*
X82215984Y-79391618D01*
X81879987Y-79894475D01*
X81762000Y-80487634D01*
X71556029Y-80487634D01*
X71713159Y-80456379D01*
X72031008Y-80244000D01*
X74168000Y-80244000D01*
X74646354Y-80148849D01*
X75051883Y-79877883D01*
X75466961Y-79462805D01*
X78582881Y-79462805D01*
X78667983Y-79710846D01*
X79278064Y-79820239D01*
X79828017Y-79710846D01*
X79913119Y-79462805D01*
X79248000Y-78797685D01*
X78582881Y-79462805D01*
X75466961Y-79462805D01*
X76067883Y-78861883D01*
X76338849Y-78456354D01*
X76358549Y-78357317D01*
X76377496Y-78262064D01*
X77659761Y-78262064D01*
X77769154Y-78812017D01*
X78017195Y-78897119D01*
X78682315Y-78232000D01*
X79813685Y-78232000D01*
X80478805Y-78897119D01*
X80726846Y-78812017D01*
X80836239Y-78201936D01*
X80726846Y-77651983D01*
X80478805Y-77566881D01*
X79813685Y-78232000D01*
X78682315Y-78232000D01*
X78017195Y-77566881D01*
X77769154Y-77651983D01*
X77659761Y-78262064D01*
X76377496Y-78262064D01*
X76434000Y-77978000D01*
X76434000Y-77001195D01*
X78582881Y-77001195D01*
X79248000Y-77666315D01*
X79913119Y-77001195D01*
X79828017Y-76753154D01*
X79217936Y-76643761D01*
X78667983Y-76753154D01*
X78582881Y-77001195D01*
X76434000Y-77001195D01*
X76434000Y-74301928D01*
X76616013Y-74029525D01*
X76734000Y-73436366D01*
X76734000Y-73375634D01*
X76682307Y-73115756D01*
X81462000Y-73115756D01*
X81462000Y-73188244D01*
X81602823Y-73896208D01*
X82003852Y-74496392D01*
X82604036Y-74897421D01*
X83312000Y-75038244D01*
X84019964Y-74897421D01*
X84620148Y-74496392D01*
X85021177Y-73896208D01*
X85071726Y-73642079D01*
X86137654Y-73642079D01*
X86441494Y-74377429D01*
X87003612Y-74940529D01*
X87738430Y-75245652D01*
X88534079Y-75246346D01*
X89269429Y-74942506D01*
X89832529Y-74380388D01*
X90137652Y-73645570D01*
X90138346Y-72849921D01*
X89834506Y-72114571D01*
X89272388Y-71551471D01*
X88537570Y-71246348D01*
X87741921Y-71245654D01*
X87006571Y-71549494D01*
X86443471Y-72111612D01*
X86138348Y-72846430D01*
X86137654Y-73642079D01*
X85071726Y-73642079D01*
X85162000Y-73188244D01*
X85162000Y-73115756D01*
X85021177Y-72407792D01*
X84620148Y-71807608D01*
X84019964Y-71406579D01*
X83312000Y-71265756D01*
X82604036Y-71406579D01*
X82003852Y-71807608D01*
X81602823Y-72407792D01*
X81462000Y-73115756D01*
X76682307Y-73115756D01*
X76616013Y-72782475D01*
X76280016Y-72279618D01*
X76184000Y-72215462D01*
X76184000Y-71564731D01*
X76398333Y-71653730D01*
X77014961Y-71654268D01*
X77584857Y-71418792D01*
X78021260Y-70983151D01*
X78257730Y-70413667D01*
X78258268Y-69797039D01*
X78022792Y-69227143D01*
X77587151Y-68790740D01*
X77017667Y-68554270D01*
X76401039Y-68553732D01*
X75831143Y-68789208D01*
X75394740Y-69224849D01*
X75191799Y-69713585D01*
X74152000Y-68673786D01*
X74152000Y-65410961D01*
X75157732Y-65410961D01*
X75393208Y-65980857D01*
X75828849Y-66417260D01*
X76398333Y-66653730D01*
X77014961Y-66654268D01*
X77584857Y-66418792D01*
X78021260Y-65983151D01*
X78257730Y-65413667D01*
X78258268Y-64797039D01*
X78022792Y-64227143D01*
X77587151Y-63790740D01*
X77017667Y-63554270D01*
X76401039Y-63553732D01*
X75831143Y-63789208D01*
X75394740Y-64224849D01*
X75158270Y-64794333D01*
X75157732Y-65410961D01*
X74152000Y-65410961D01*
X74152000Y-62056050D01*
X74341984Y-62340382D01*
X74844841Y-62676379D01*
X75438000Y-62794366D01*
X76031159Y-62676379D01*
X76534016Y-62340382D01*
X76870013Y-61837525D01*
X76988000Y-61244366D01*
X76988000Y-61183634D01*
X77698000Y-61183634D01*
X77698000Y-61244366D01*
X77815987Y-61837525D01*
X78151984Y-62340382D01*
X78654841Y-62676379D01*
X79248000Y-62794366D01*
X79841159Y-62676379D01*
X80344016Y-62340382D01*
X80680013Y-61837525D01*
X80798000Y-61244366D01*
X80798000Y-61183634D01*
X80680013Y-60590475D01*
X80344016Y-60087618D01*
X79841159Y-59751621D01*
X79248000Y-59633634D01*
X78654841Y-59751621D01*
X78151984Y-60087618D01*
X77815987Y-60590475D01*
X77698000Y-61183634D01*
X76988000Y-61183634D01*
X76870013Y-60590475D01*
X76534016Y-60087618D01*
X76031159Y-59751621D01*
X75438000Y-59633634D01*
X74844841Y-59751621D01*
X74341984Y-60087618D01*
X74005987Y-60590475D01*
X73946170Y-60891192D01*
X73859107Y-60760893D01*
X72107708Y-59009494D01*
X72108304Y-58327431D01*
X71842443Y-57683999D01*
X71350590Y-57191287D01*
X70707624Y-56924304D01*
X70011431Y-56923696D01*
X69367999Y-57189557D01*
X68875287Y-57681410D01*
X68608304Y-58324376D01*
X68607696Y-59020569D01*
X68873557Y-59664001D01*
X69365410Y-60156713D01*
X70008376Y-60423696D01*
X70694081Y-60424295D01*
X72152000Y-61882214D01*
X72152000Y-69088000D01*
X72228120Y-69470684D01*
X72444893Y-69795107D01*
X74184000Y-71534214D01*
X74184000Y-72215462D01*
X74087984Y-72279618D01*
X73751987Y-72782475D01*
X73634000Y-73375634D01*
X73634000Y-73436366D01*
X73751987Y-74029525D01*
X73934000Y-74301928D01*
X73934000Y-77460234D01*
X73650234Y-77744000D01*
X72031008Y-77744000D01*
X71713159Y-77531621D01*
X71120000Y-77413634D01*
X70526841Y-77531621D01*
X70023984Y-77867618D01*
X69850000Y-78128004D01*
X69676016Y-77867618D01*
X69387134Y-77674594D01*
X69287107Y-77524893D01*
X68271107Y-76508893D01*
X67946684Y-76292120D01*
X67564000Y-76216000D01*
X62992000Y-76216000D01*
X62609316Y-76292120D01*
X62284893Y-76508893D01*
X57497786Y-81296000D01*
X57150000Y-81296000D01*
X56767316Y-81372120D01*
X56442893Y-81588893D01*
X56178792Y-81852994D01*
X56242244Y-81534000D01*
X56101421Y-80826036D01*
X55700392Y-80225852D01*
X55100208Y-79824823D01*
X54392244Y-79684000D01*
X54319756Y-79684000D01*
X53611792Y-79824823D01*
X53011608Y-80225852D01*
X52610579Y-80826036D01*
X52469756Y-81534000D01*
X52610579Y-82241964D01*
X53011608Y-82842148D01*
X53611792Y-83243177D01*
X54319756Y-83384000D01*
X54392244Y-83384000D01*
X54711238Y-83320548D01*
X54471498Y-83560288D01*
X54138244Y-83494000D01*
X54065756Y-83494000D01*
X53357792Y-83634823D01*
X52757608Y-84035852D01*
X52356579Y-84636036D01*
X52215756Y-85344000D01*
X52356579Y-86051964D01*
X52757608Y-86652148D01*
X52955387Y-86784299D01*
X52832000Y-86759756D01*
X52124036Y-86900579D01*
X51523852Y-87301608D01*
X51122823Y-87901792D01*
X50982000Y-88609756D01*
X50982000Y-88682244D01*
X51122823Y-89390208D01*
X51523852Y-89990392D01*
X52124036Y-90391421D01*
X52832000Y-90532244D01*
X53539964Y-90391421D01*
X54140148Y-89990392D01*
X54493901Y-89460961D01*
X57377732Y-89460961D01*
X57613208Y-90030857D01*
X58048849Y-90467260D01*
X58618333Y-90703730D01*
X59234961Y-90704268D01*
X59804857Y-90468792D01*
X60241260Y-90033151D01*
X60477730Y-89463667D01*
X60478268Y-88847039D01*
X60242792Y-88277143D01*
X59807151Y-87840740D01*
X59237667Y-87604270D01*
X58621039Y-87603732D01*
X58051143Y-87839208D01*
X57614740Y-88274849D01*
X57378270Y-88844333D01*
X57377732Y-89460961D01*
X54493901Y-89460961D01*
X54541177Y-89390208D01*
X54682000Y-88682244D01*
X54682000Y-88609756D01*
X54541177Y-87901792D01*
X54140148Y-87301608D01*
X53942369Y-87169457D01*
X54065756Y-87194000D01*
X54138244Y-87194000D01*
X54846208Y-87053177D01*
X55446392Y-86652148D01*
X55847421Y-86051964D01*
X55988244Y-85344000D01*
X55909929Y-84950285D01*
X57564214Y-83296000D01*
X57605957Y-83296000D01*
X57378270Y-83844333D01*
X57377732Y-84460961D01*
X57613208Y-85030857D01*
X58048849Y-85467260D01*
X58618333Y-85703730D01*
X59234961Y-85704268D01*
X59804857Y-85468792D01*
X60241260Y-85033151D01*
X60477730Y-84463667D01*
X60478268Y-83847039D01*
X60242792Y-83277143D01*
X59807151Y-82840740D01*
X59237667Y-82604270D01*
X59018136Y-82604078D01*
X61935307Y-79686907D01*
X61935307Y-79794000D01*
X61987604Y-80071933D01*
X62151862Y-80327198D01*
X62402492Y-80498446D01*
X62700000Y-80558693D01*
X63823093Y-80558693D01*
X63046893Y-81334893D01*
X62830120Y-81659316D01*
X62778927Y-81916683D01*
X62754000Y-82042000D01*
X62754000Y-87630000D01*
X62830120Y-88012684D01*
X63046893Y-88337107D01*
X63216071Y-88506285D01*
X63137756Y-88900000D01*
X63278579Y-89607964D01*
X63679608Y-90208148D01*
X64279792Y-90609177D01*
X64987756Y-90750000D01*
X65060244Y-90750000D01*
X65768208Y-90609177D01*
X66368392Y-90208148D01*
X66574289Y-89900000D01*
X66641786Y-89900000D01*
X68596000Y-91854213D01*
X68596000Y-104218136D01*
X68282740Y-104530849D01*
X68046270Y-105100333D01*
X68045732Y-105716961D01*
X68281208Y-106286857D01*
X68716849Y-106723260D01*
X69286333Y-106959730D01*
X69902961Y-106960268D01*
X70472857Y-106724792D01*
X70909260Y-106289151D01*
X71145730Y-105719667D01*
X71145732Y-105716961D01*
X73045732Y-105716961D01*
X73281208Y-106286857D01*
X73716849Y-106723260D01*
X74286333Y-106959730D01*
X74692000Y-106960084D01*
X74692000Y-107950000D01*
X74768120Y-108332684D01*
X74984893Y-108657107D01*
X75746893Y-109419107D01*
X76071316Y-109635880D01*
X76454000Y-109712000D01*
X81627786Y-109712000D01*
X83593848Y-111678062D01*
X83593696Y-111852569D01*
X83859557Y-112496001D01*
X84351410Y-112988713D01*
X84994376Y-113255696D01*
X85690569Y-113256304D01*
X86334001Y-112990443D01*
X86826713Y-112498590D01*
X87093696Y-111855624D01*
X87094304Y-111159431D01*
X86828443Y-110515999D01*
X86336590Y-110023287D01*
X85693624Y-109756304D01*
X84997431Y-109755696D01*
X84645376Y-109901162D01*
X82749107Y-108004893D01*
X82640134Y-107932079D01*
X85883654Y-107932079D01*
X86187494Y-108667429D01*
X86749612Y-109230529D01*
X87484430Y-109535652D01*
X88280079Y-109536346D01*
X89015429Y-109232506D01*
X89578529Y-108670388D01*
X89883652Y-107935570D01*
X89884346Y-107139921D01*
X89580506Y-106404571D01*
X89018388Y-105841471D01*
X88283570Y-105536348D01*
X87487921Y-105535654D01*
X86752571Y-105839494D01*
X86189471Y-106401612D01*
X85884348Y-107136430D01*
X85883654Y-107932079D01*
X82640134Y-107932079D01*
X82424684Y-107788120D01*
X82042000Y-107712000D01*
X80708731Y-107712000D01*
X80797730Y-107497667D01*
X80798268Y-106881039D01*
X80562792Y-106311143D01*
X80127151Y-105874740D01*
X79557667Y-105638270D01*
X78941039Y-105637732D01*
X78371143Y-105873208D01*
X77934740Y-106308849D01*
X77698270Y-106878333D01*
X77697732Y-107494961D01*
X77787411Y-107712000D01*
X76868214Y-107712000D01*
X76692000Y-107535786D01*
X76692000Y-106506000D01*
X76653241Y-106311143D01*
X76615880Y-106123316D01*
X76399107Y-105798893D01*
X76145882Y-105545668D01*
X76146268Y-105103039D01*
X75910792Y-104533143D01*
X75475151Y-104096740D01*
X74905667Y-103860270D01*
X74289039Y-103859732D01*
X73719143Y-104095208D01*
X73282740Y-104530849D01*
X73046270Y-105100333D01*
X73045732Y-105716961D01*
X71145732Y-105716961D01*
X71146268Y-105103039D01*
X70910792Y-104533143D01*
X70596000Y-104217800D01*
X70596000Y-101798863D01*
X70778446Y-101981628D01*
X70899808Y-102032022D01*
X72110893Y-103243107D01*
X72435317Y-103459880D01*
X72818000Y-103536000D01*
X86133189Y-103536000D01*
X86187494Y-103667429D01*
X86749612Y-104230529D01*
X87484430Y-104535652D01*
X88280079Y-104536346D01*
X89015429Y-104232506D01*
X89440231Y-103808445D01*
X90694000Y-105062214D01*
X90694000Y-107789786D01*
X89970893Y-108512893D01*
X89754120Y-108837316D01*
X89754120Y-108837317D01*
X89678000Y-109220000D01*
X89678000Y-110031539D01*
X89195287Y-110513410D01*
X88928304Y-111156376D01*
X88928052Y-111445412D01*
X88916000Y-111506000D01*
X88927946Y-111566058D01*
X88927696Y-111852569D01*
X89193557Y-112496001D01*
X89685410Y-112988713D01*
X90328376Y-113255696D01*
X91024569Y-113256304D01*
X91668001Y-112990443D01*
X92160713Y-112498590D01*
X92427696Y-111855624D01*
X92428304Y-111159431D01*
X92162443Y-110515999D01*
X91678000Y-110030710D01*
X91678000Y-109634214D01*
X92401107Y-108911107D01*
X92460000Y-108822968D01*
X92460000Y-116205042D01*
X92261143Y-116287208D01*
X91824740Y-116722849D01*
X91588270Y-117292333D01*
X91587732Y-117908961D01*
X91823208Y-118478857D01*
X91973952Y-118629865D01*
X85259278Y-127023208D01*
X85170016Y-126889618D01*
X84667159Y-126553621D01*
X84074000Y-126435634D01*
X83480841Y-126553621D01*
X82977984Y-126889618D01*
X82641987Y-127392475D01*
X82524000Y-127985634D01*
X82524000Y-128046366D01*
X82641987Y-128639525D01*
X82977984Y-129142382D01*
X83198911Y-129290000D01*
X80660299Y-129290000D01*
X80675119Y-129246805D01*
X80010000Y-128581685D01*
X79344881Y-129246805D01*
X79359701Y-129290000D01*
X39184226Y-129290000D01*
X37074944Y-128046064D01*
X78421761Y-128046064D01*
X78531154Y-128596017D01*
X78779195Y-128681119D01*
X79444315Y-128016000D01*
X80575685Y-128016000D01*
X81240805Y-128681119D01*
X81488846Y-128596017D01*
X81598239Y-127985936D01*
X81488846Y-127435983D01*
X81240805Y-127350881D01*
X80575685Y-128016000D01*
X79444315Y-128016000D01*
X78779195Y-127350881D01*
X78531154Y-127435983D01*
X78421761Y-128046064D01*
X37074944Y-128046064D01*
X34936949Y-126785195D01*
X79344881Y-126785195D01*
X80010000Y-127450315D01*
X80675119Y-126785195D01*
X80590017Y-126537154D01*
X79979936Y-126427761D01*
X79429983Y-126537154D01*
X79344881Y-126785195D01*
X34936949Y-126785195D01*
X32286314Y-125222000D01*
X36773634Y-125222000D01*
X36891621Y-125815159D01*
X37227618Y-126318016D01*
X37730475Y-126654013D01*
X38323634Y-126772000D01*
X38384366Y-126772000D01*
X38977525Y-126654013D01*
X39480382Y-126318016D01*
X39585699Y-126160398D01*
X39658684Y-126145880D01*
X39983107Y-125929107D01*
X40637253Y-125274961D01*
X56869732Y-125274961D01*
X57105208Y-125844857D01*
X57540849Y-126281260D01*
X58110333Y-126517730D01*
X58726961Y-126518268D01*
X59296857Y-126282792D01*
X59733260Y-125847151D01*
X59969730Y-125277667D01*
X59970268Y-124661039D01*
X59734792Y-124091143D01*
X59299151Y-123654740D01*
X58729667Y-123418270D01*
X58113039Y-123417732D01*
X57543143Y-123653208D01*
X57106740Y-124088849D01*
X56870270Y-124658333D01*
X56869732Y-125274961D01*
X40637253Y-125274961D01*
X42047096Y-123865118D01*
X42178430Y-123919652D01*
X42974079Y-123920346D01*
X43709429Y-123616506D01*
X43726902Y-123599063D01*
X46782820Y-123599063D01*
X46937684Y-123864632D01*
X47730604Y-123961644D01*
X48218316Y-123864632D01*
X48373180Y-123599063D01*
X47578000Y-122803883D01*
X46782820Y-123599063D01*
X43726902Y-123599063D01*
X44272529Y-123054388D01*
X44577652Y-122319570D01*
X44577867Y-122072604D01*
X45536356Y-122072604D01*
X45633368Y-122560316D01*
X45898937Y-122715180D01*
X46694117Y-121920000D01*
X48461883Y-121920000D01*
X49257063Y-122715180D01*
X49522632Y-122560316D01*
X49619644Y-121767396D01*
X49522632Y-121279684D01*
X49257063Y-121124820D01*
X48461883Y-121920000D01*
X46694117Y-121920000D01*
X45898937Y-121124820D01*
X45633368Y-121279684D01*
X45536356Y-122072604D01*
X44577867Y-122072604D01*
X44578346Y-121523921D01*
X44274506Y-120788571D01*
X43712388Y-120225471D01*
X42977570Y-119920348D01*
X42181921Y-119919654D01*
X41446571Y-120223494D01*
X40883471Y-120785612D01*
X40578348Y-121520430D01*
X40577654Y-122316079D01*
X40633222Y-122450564D01*
X39167118Y-123916668D01*
X38977525Y-123789987D01*
X38384366Y-123672000D01*
X38323634Y-123672000D01*
X37730475Y-123789987D01*
X37227618Y-124125984D01*
X36891621Y-124628841D01*
X36773634Y-125222000D01*
X32286314Y-125222000D01*
X30282154Y-124040060D01*
X30894214Y-123428000D01*
X37084000Y-123428000D01*
X37466684Y-123351880D01*
X37791107Y-123135107D01*
X39234332Y-121691882D01*
X39676961Y-121692268D01*
X40246857Y-121456792D01*
X40683260Y-121021151D01*
X40919730Y-120451667D01*
X40920268Y-119835039D01*
X40684792Y-119265143D01*
X40249151Y-118828740D01*
X39679667Y-118592270D01*
X39063039Y-118591732D01*
X39004241Y-118616027D01*
X38224246Y-117836032D01*
X38608000Y-117912366D01*
X39201159Y-117794379D01*
X39704016Y-117458382D01*
X40040013Y-116955525D01*
X40107536Y-116616064D01*
X41083761Y-116616064D01*
X41193154Y-117166017D01*
X41441195Y-117251119D01*
X42106315Y-116586000D01*
X41441195Y-115920881D01*
X41193154Y-116005983D01*
X41083761Y-116616064D01*
X40107536Y-116616064D01*
X40158000Y-116362366D01*
X40158000Y-116301634D01*
X40040013Y-115708475D01*
X39704016Y-115205618D01*
X39201159Y-114869621D01*
X38608000Y-114751634D01*
X38014841Y-114869621D01*
X37830000Y-114993127D01*
X37830000Y-107442000D01*
X37753880Y-107059317D01*
X37537107Y-106734893D01*
X37537104Y-106734891D01*
X35665019Y-104862805D01*
X37942881Y-104862805D01*
X38027983Y-105110846D01*
X38638064Y-105220239D01*
X39188017Y-105110846D01*
X39273119Y-104862805D01*
X38608000Y-104197685D01*
X37942881Y-104862805D01*
X35665019Y-104862805D01*
X35458186Y-104655972D01*
X35603260Y-104511151D01*
X35839730Y-103941667D01*
X35840236Y-103362000D01*
X36638416Y-103362000D01*
X36604323Y-103396093D01*
X37056874Y-103848643D01*
X37129154Y-104212017D01*
X37377195Y-104297119D01*
X38042315Y-103632000D01*
X37772315Y-103362000D01*
X39443685Y-103362000D01*
X39173685Y-103632000D01*
X39838805Y-104297119D01*
X40086846Y-104212017D01*
X40150446Y-103857323D01*
X40611677Y-103396093D01*
X40577584Y-103362000D01*
X41220190Y-103362000D01*
X41122000Y-103855634D01*
X41122000Y-103916366D01*
X41239987Y-104509525D01*
X41575984Y-105012382D01*
X41864866Y-105205406D01*
X41964893Y-105355107D01*
X43450000Y-106840214D01*
X43450000Y-115124416D01*
X42907907Y-114582323D01*
X42455357Y-115034874D01*
X42091983Y-115107154D01*
X42006881Y-115355195D01*
X42672000Y-116020315D01*
X42954843Y-115737472D01*
X43450000Y-116232629D01*
X43450000Y-116373685D01*
X43237685Y-116586000D01*
X43450000Y-116798315D01*
X43450000Y-116939371D01*
X42954843Y-117434528D01*
X42672000Y-117151685D01*
X42006881Y-117816805D01*
X42091983Y-118064846D01*
X42446677Y-118128446D01*
X42907907Y-118589677D01*
X43622563Y-117875021D01*
X43742893Y-118055107D01*
X45774893Y-120087107D01*
X46099316Y-120303880D01*
X46482000Y-120380000D01*
X46921883Y-120380000D01*
X47578000Y-121036117D01*
X48234117Y-120380000D01*
X51289792Y-120380000D01*
X50883471Y-120785612D01*
X50578348Y-121520430D01*
X50577654Y-122316079D01*
X50881494Y-123051429D01*
X51443612Y-123614529D01*
X52178430Y-123919652D01*
X52974079Y-123920346D01*
X53709429Y-123616506D01*
X54272529Y-123054388D01*
X54577652Y-122319570D01*
X54578346Y-121523921D01*
X54274506Y-120788571D01*
X53866648Y-120380000D01*
X54102000Y-120380000D01*
X54484684Y-120303880D01*
X54527964Y-120274961D01*
X56869732Y-120274961D01*
X57105208Y-120844857D01*
X57540849Y-121281260D01*
X58110333Y-121517730D01*
X58726961Y-121518268D01*
X59296857Y-121282792D01*
X59421867Y-121158000D01*
X65423756Y-121158000D01*
X65564579Y-121865964D01*
X65965608Y-122466148D01*
X66565792Y-122867177D01*
X66911788Y-122936000D01*
X66565792Y-123004823D01*
X65965608Y-123405852D01*
X65564579Y-124006036D01*
X65423756Y-124714000D01*
X65564579Y-125421964D01*
X65965608Y-126022148D01*
X66565792Y-126423177D01*
X67273756Y-126564000D01*
X67346244Y-126564000D01*
X68054208Y-126423177D01*
X68654392Y-126022148D01*
X69034349Y-125453500D01*
X73072000Y-125453500D01*
X73072000Y-125964775D01*
X73187398Y-126243372D01*
X73400627Y-126456601D01*
X73679224Y-126572000D01*
X74190500Y-126572000D01*
X74380000Y-126382500D01*
X74380000Y-125264000D01*
X75480000Y-125264000D01*
X75480000Y-126382500D01*
X75669500Y-126572000D01*
X76180776Y-126572000D01*
X76459373Y-126456601D01*
X76672602Y-126243372D01*
X76788000Y-125964775D01*
X76788000Y-125453500D01*
X76598500Y-125264000D01*
X75480000Y-125264000D01*
X74380000Y-125264000D01*
X73261500Y-125264000D01*
X73072000Y-125453500D01*
X69034349Y-125453500D01*
X69055421Y-125421964D01*
X69061174Y-125393040D01*
X70811107Y-123643107D01*
X71027880Y-123318684D01*
X71104001Y-122936000D01*
X71104000Y-122935995D01*
X71104000Y-120058000D01*
X73065307Y-120058000D01*
X73065307Y-122258000D01*
X73117604Y-122535933D01*
X73281862Y-122791198D01*
X73490881Y-122934014D01*
X73400627Y-122971399D01*
X73187398Y-123184628D01*
X73072000Y-123463225D01*
X73072000Y-123974500D01*
X73261500Y-124164000D01*
X74380000Y-124164000D01*
X74380000Y-123614000D01*
X75480000Y-123614000D01*
X75480000Y-124164000D01*
X76598500Y-124164000D01*
X76788000Y-123974500D01*
X76788000Y-123463225D01*
X76672602Y-123184628D01*
X76459373Y-122971399D01*
X76366292Y-122932843D01*
X76563198Y-122806138D01*
X76734446Y-122555508D01*
X76794693Y-122258000D01*
X76794693Y-120058000D01*
X76742396Y-119780067D01*
X76578138Y-119524802D01*
X76327508Y-119353554D01*
X76030000Y-119293307D01*
X73830000Y-119293307D01*
X73552067Y-119345604D01*
X73296802Y-119509862D01*
X73125554Y-119760492D01*
X73065307Y-120058000D01*
X71104000Y-120058000D01*
X71104000Y-118439749D01*
X71153818Y-118319774D01*
X71154182Y-117902058D01*
X70994666Y-117516000D01*
X70699554Y-117220372D01*
X70313774Y-117060182D01*
X69896058Y-117059818D01*
X69510000Y-117219334D01*
X69214372Y-117514446D01*
X69054182Y-117900226D01*
X69053818Y-118317942D01*
X69104000Y-118439392D01*
X69104000Y-120694259D01*
X69055421Y-120450036D01*
X68654392Y-119849852D01*
X68054208Y-119448823D01*
X67346244Y-119308000D01*
X67273756Y-119308000D01*
X66565792Y-119448823D01*
X65965608Y-119849852D01*
X65564579Y-120450036D01*
X65423756Y-121158000D01*
X59421867Y-121158000D01*
X59733260Y-120847151D01*
X59969730Y-120277667D01*
X59970268Y-119661039D01*
X59734792Y-119091143D01*
X59299151Y-118654740D01*
X58729667Y-118418270D01*
X58113039Y-118417732D01*
X57543143Y-118653208D01*
X57106740Y-119088849D01*
X56870270Y-119658333D01*
X56869732Y-120274961D01*
X54527964Y-120274961D01*
X54809107Y-120087107D01*
X55317104Y-119579109D01*
X55317107Y-119579107D01*
X55533880Y-119254683D01*
X55610000Y-118872000D01*
X55610000Y-118090002D01*
X56257939Y-118090002D01*
X56519369Y-118264665D01*
X56750000Y-118148737D01*
X56750000Y-117240000D01*
X56350000Y-117240000D01*
X56350000Y-116440000D01*
X56750000Y-116440000D01*
X56750000Y-116040000D01*
X57550000Y-116040000D01*
X57550000Y-116440000D01*
X57950000Y-116440000D01*
X57950000Y-117240000D01*
X57550000Y-117240000D01*
X57550000Y-118148737D01*
X57780631Y-118264665D01*
X58042061Y-118090002D01*
X58708000Y-118090002D01*
X58708000Y-118042565D01*
X59096841Y-118302379D01*
X59690000Y-118420366D01*
X60283159Y-118302379D01*
X60786016Y-117966382D01*
X60960000Y-117705996D01*
X61133984Y-117966382D01*
X61636841Y-118302379D01*
X62230000Y-118420366D01*
X62823159Y-118302379D01*
X63326016Y-117966382D01*
X63500000Y-117705996D01*
X63673984Y-117966382D01*
X64176841Y-118302379D01*
X64770000Y-118420366D01*
X65363159Y-118302379D01*
X65752000Y-118042565D01*
X65752000Y-118090002D01*
X66417939Y-118090002D01*
X66679369Y-118264665D01*
X66910000Y-118148737D01*
X66910000Y-117240000D01*
X67710000Y-117240000D01*
X67710000Y-118148737D01*
X67940631Y-118264665D01*
X68384912Y-117967838D01*
X68734694Y-117470635D01*
X68626307Y-117240000D01*
X67710000Y-117240000D01*
X66910000Y-117240000D01*
X66510000Y-117240000D01*
X66510000Y-116440000D01*
X66910000Y-116440000D01*
X66910000Y-116040000D01*
X67710000Y-116040000D01*
X67710000Y-116440000D01*
X68626307Y-116440000D01*
X68734694Y-116209365D01*
X68560002Y-115961046D01*
X68560002Y-115784805D01*
X70454881Y-115784805D01*
X70539983Y-116032846D01*
X71150064Y-116142239D01*
X71700017Y-116032846D01*
X71785119Y-115784805D01*
X71120000Y-115119685D01*
X70454881Y-115784805D01*
X68560002Y-115784805D01*
X68560002Y-115554000D01*
X68580000Y-115554000D01*
X68962684Y-115477880D01*
X69287107Y-115261107D01*
X69603499Y-114944715D01*
X69641154Y-115134017D01*
X69889195Y-115219119D01*
X70554315Y-114554000D01*
X70274264Y-114273949D01*
X70518213Y-114030000D01*
X71727371Y-114030000D01*
X71968528Y-114271157D01*
X71685685Y-114554000D01*
X72350805Y-115219119D01*
X72598846Y-115134017D01*
X72662446Y-114779323D01*
X72820778Y-114620992D01*
X76508891Y-118309104D01*
X76508893Y-118309107D01*
X76833317Y-118525880D01*
X77216000Y-118602000D01*
X86946136Y-118602000D01*
X87258849Y-118915260D01*
X87828333Y-119151730D01*
X88444961Y-119152268D01*
X89014857Y-118916792D01*
X89451260Y-118481151D01*
X89687730Y-117911667D01*
X89688268Y-117295039D01*
X89452792Y-116725143D01*
X89017151Y-116288740D01*
X88447667Y-116052270D01*
X87831039Y-116051732D01*
X87261143Y-116287208D01*
X86945800Y-116602000D01*
X84979699Y-116602000D01*
X85387260Y-116195151D01*
X85623730Y-115625667D01*
X85624268Y-115009039D01*
X85388792Y-114439143D01*
X84953151Y-114002740D01*
X84383667Y-113766270D01*
X83767039Y-113765732D01*
X83197143Y-114001208D01*
X82760740Y-114436849D01*
X82524270Y-115006333D01*
X82523732Y-115622961D01*
X82759208Y-116192857D01*
X83167637Y-116602000D01*
X80867130Y-116602000D01*
X81106016Y-116442382D01*
X81442013Y-115939525D01*
X81560000Y-115346366D01*
X81560000Y-115285634D01*
X81442013Y-114692475D01*
X81106016Y-114189618D01*
X80603159Y-113853621D01*
X80010000Y-113735634D01*
X79416841Y-113853621D01*
X78913984Y-114189618D01*
X78577987Y-114692475D01*
X78460000Y-115285634D01*
X78460000Y-115346366D01*
X78577987Y-115939525D01*
X78913984Y-116442382D01*
X79152870Y-116602000D01*
X77630213Y-116602000D01*
X73534214Y-112506000D01*
X78281539Y-112506000D01*
X78763410Y-112988713D01*
X79406376Y-113255696D01*
X80102569Y-113256304D01*
X80746001Y-112990443D01*
X81238713Y-112498590D01*
X81505696Y-111855624D01*
X81506304Y-111159431D01*
X81240443Y-110515999D01*
X80748590Y-110023287D01*
X80105624Y-109756304D01*
X79409431Y-109755696D01*
X78765999Y-110021557D01*
X78280710Y-110506000D01*
X72360284Y-110506000D01*
X72433260Y-110433151D01*
X72669730Y-109863667D01*
X72670268Y-109247039D01*
X72434792Y-108677143D01*
X71999151Y-108240740D01*
X71429667Y-108004270D01*
X70813039Y-108003732D01*
X70243143Y-108239208D01*
X69806740Y-108674849D01*
X69570270Y-109244333D01*
X69569732Y-109860961D01*
X69805208Y-110430857D01*
X69880220Y-110506000D01*
X68167130Y-110506000D01*
X68406016Y-110346382D01*
X68742013Y-109843525D01*
X68860000Y-109250366D01*
X68860000Y-109189634D01*
X68742013Y-108596475D01*
X68406016Y-108093618D01*
X67903159Y-107757621D01*
X67310000Y-107639634D01*
X66716841Y-107757621D01*
X66213984Y-108093618D01*
X66040000Y-108354004D01*
X65866016Y-108093618D01*
X65363159Y-107757621D01*
X65217990Y-107728745D01*
X65185880Y-107567317D01*
X65185880Y-107567316D01*
X64969107Y-107242893D01*
X64207107Y-106480893D01*
X64066295Y-106386805D01*
X65374881Y-106386805D01*
X65459983Y-106634846D01*
X66070064Y-106744239D01*
X66620017Y-106634846D01*
X66705119Y-106386805D01*
X66040000Y-105721685D01*
X65374881Y-106386805D01*
X64066295Y-106386805D01*
X63882684Y-106264120D01*
X63500000Y-106188000D01*
X62200144Y-106188000D01*
X62353260Y-106035151D01*
X62589730Y-105465667D01*
X62589973Y-105186064D01*
X64451761Y-105186064D01*
X64561154Y-105736017D01*
X64809195Y-105821119D01*
X65474315Y-105156000D01*
X66605685Y-105156000D01*
X67270805Y-105821119D01*
X67518846Y-105736017D01*
X67628239Y-105125936D01*
X67518846Y-104575983D01*
X67270805Y-104490881D01*
X66605685Y-105156000D01*
X65474315Y-105156000D01*
X64809195Y-104490881D01*
X64561154Y-104575983D01*
X64451761Y-105186064D01*
X62589973Y-105186064D01*
X62590268Y-104849039D01*
X62354792Y-104279143D01*
X62001463Y-103925195D01*
X65374881Y-103925195D01*
X66040000Y-104590315D01*
X66705119Y-103925195D01*
X66620017Y-103677154D01*
X66009936Y-103567761D01*
X65459983Y-103677154D01*
X65374881Y-103925195D01*
X62001463Y-103925195D01*
X61919151Y-103842740D01*
X61349667Y-103606270D01*
X60733039Y-103605732D01*
X60163143Y-103841208D01*
X59847800Y-104156000D01*
X58740213Y-104156000D01*
X58445107Y-103860893D01*
X58120684Y-103644120D01*
X57738000Y-103568000D01*
X54531864Y-103568000D01*
X54219151Y-103254740D01*
X53649667Y-103018270D01*
X53033039Y-103017732D01*
X52463143Y-103253208D01*
X52026740Y-103688849D01*
X51790270Y-104258333D01*
X51789732Y-104874961D01*
X52025208Y-105444857D01*
X52460849Y-105881260D01*
X53030333Y-106117730D01*
X53646961Y-106118268D01*
X54216857Y-105882792D01*
X54532200Y-105568000D01*
X57323786Y-105568000D01*
X57618891Y-105863104D01*
X57618893Y-105863107D01*
X57677101Y-105902000D01*
X57943316Y-106079880D01*
X58326000Y-106156001D01*
X58326005Y-106156000D01*
X59848136Y-106156000D01*
X59880080Y-106188000D01*
X57225749Y-106188000D01*
X57105774Y-106138182D01*
X56688058Y-106137818D01*
X56302000Y-106297334D01*
X56006372Y-106592446D01*
X55846182Y-106978226D01*
X55845818Y-107395942D01*
X56005334Y-107782000D01*
X56211406Y-107988432D01*
X56053984Y-108093618D01*
X55880000Y-108354004D01*
X55706016Y-108093618D01*
X55203159Y-107757621D01*
X54610000Y-107639634D01*
X54016841Y-107757621D01*
X53513984Y-108093618D01*
X53340000Y-108354004D01*
X53166016Y-108093618D01*
X52663159Y-107757621D01*
X52070000Y-107639634D01*
X51476841Y-107757621D01*
X50973984Y-108093618D01*
X50637987Y-108596475D01*
X50530000Y-109139361D01*
X50530000Y-103378000D01*
X50453880Y-102995317D01*
X50237107Y-102670893D01*
X49527681Y-101961467D01*
X49692013Y-101715525D01*
X49810000Y-101122366D01*
X49810000Y-101061634D01*
X49757720Y-100798805D01*
X52674881Y-100798805D01*
X52759983Y-101046846D01*
X53370064Y-101156239D01*
X53920017Y-101046846D01*
X54005119Y-100798805D01*
X53340000Y-100133685D01*
X52674881Y-100798805D01*
X49757720Y-100798805D01*
X49692013Y-100468475D01*
X49514000Y-100202059D01*
X49514000Y-99598064D01*
X51751761Y-99598064D01*
X51861154Y-100148017D01*
X52109195Y-100233119D01*
X52774315Y-99568000D01*
X53905685Y-99568000D01*
X54570805Y-100233119D01*
X54818846Y-100148017D01*
X54884117Y-99784000D01*
X57617307Y-99784000D01*
X57617307Y-101384000D01*
X57669604Y-101661933D01*
X57833862Y-101917198D01*
X58084492Y-102088446D01*
X58382000Y-102148693D01*
X59982000Y-102148693D01*
X60259933Y-102096396D01*
X60515198Y-101932138D01*
X60653950Y-101729068D01*
X61128841Y-102046379D01*
X61722000Y-102164366D01*
X62315159Y-102046379D01*
X62818016Y-101710382D01*
X62992000Y-101449996D01*
X63165984Y-101710382D01*
X63668841Y-102046379D01*
X64262000Y-102164366D01*
X64855159Y-102046379D01*
X65244000Y-101786565D01*
X65244000Y-101834002D01*
X65909939Y-101834002D01*
X66171369Y-102008665D01*
X66402000Y-101892737D01*
X66402000Y-100984000D01*
X67202000Y-100984000D01*
X67202000Y-101892737D01*
X67432631Y-102008665D01*
X67876912Y-101711838D01*
X68226694Y-101214635D01*
X68118307Y-100984000D01*
X67202000Y-100984000D01*
X66402000Y-100984000D01*
X66002000Y-100984000D01*
X66002000Y-100184000D01*
X66402000Y-100184000D01*
X66402000Y-99275263D01*
X67202000Y-99275263D01*
X67202000Y-100184000D01*
X68118307Y-100184000D01*
X68226694Y-99953365D01*
X67876912Y-99456162D01*
X67432631Y-99159335D01*
X67202000Y-99275263D01*
X66402000Y-99275263D01*
X66171369Y-99159335D01*
X65909939Y-99333998D01*
X65244000Y-99333998D01*
X65244000Y-99381435D01*
X64855159Y-99121621D01*
X64262000Y-99003634D01*
X63668841Y-99121621D01*
X63165984Y-99457618D01*
X62992000Y-99718004D01*
X62818016Y-99457618D01*
X62315159Y-99121621D01*
X61722000Y-99003634D01*
X61128841Y-99121621D01*
X60652024Y-99440219D01*
X60530138Y-99250802D01*
X60279508Y-99079554D01*
X59982000Y-99019307D01*
X58382000Y-99019307D01*
X58104067Y-99071604D01*
X57848802Y-99235862D01*
X57677554Y-99486492D01*
X57617307Y-99784000D01*
X54884117Y-99784000D01*
X54928239Y-99537936D01*
X54818846Y-98987983D01*
X54570805Y-98902881D01*
X53905685Y-99568000D01*
X52774315Y-99568000D01*
X52109195Y-98902881D01*
X51861154Y-98987983D01*
X51751761Y-99598064D01*
X49514000Y-99598064D01*
X49514000Y-98298000D01*
X49437880Y-97915317D01*
X49221107Y-97590893D01*
X49221104Y-97590891D01*
X46796214Y-95166000D01*
X50967307Y-95166000D01*
X50967307Y-97366000D01*
X51019604Y-97643933D01*
X51183862Y-97899198D01*
X51434492Y-98070446D01*
X51732000Y-98130693D01*
X52745731Y-98130693D01*
X52674881Y-98337195D01*
X53340000Y-99002315D01*
X54005119Y-98337195D01*
X53934131Y-98130292D01*
X54209933Y-98078396D01*
X54465198Y-97914138D01*
X54636446Y-97663508D01*
X54696693Y-97366000D01*
X54696693Y-95166000D01*
X54644396Y-94888067D01*
X54480138Y-94632802D01*
X54229508Y-94461554D01*
X53932000Y-94401307D01*
X51732000Y-94401307D01*
X51454067Y-94453604D01*
X51198802Y-94617862D01*
X51027554Y-94868492D01*
X50967307Y-95166000D01*
X46796214Y-95166000D01*
X45224849Y-93594635D01*
X57757306Y-93594635D01*
X58107088Y-94091838D01*
X58551369Y-94388665D01*
X58782000Y-94272737D01*
X58782000Y-93364000D01*
X57865693Y-93364000D01*
X57757306Y-93594635D01*
X45224849Y-93594635D01*
X44942000Y-93311786D01*
X44942000Y-92333365D01*
X57757306Y-92333365D01*
X57865693Y-92564000D01*
X58782000Y-92564000D01*
X58782000Y-91655263D01*
X59582000Y-91655263D01*
X59582000Y-92564000D01*
X59982000Y-92564000D01*
X59982000Y-93364000D01*
X59582000Y-93364000D01*
X59582000Y-94272737D01*
X59812631Y-94388665D01*
X60074061Y-94214002D01*
X60740000Y-94214002D01*
X60740000Y-94166565D01*
X61128841Y-94426379D01*
X61722000Y-94544366D01*
X62315159Y-94426379D01*
X62818016Y-94090382D01*
X62992000Y-93829996D01*
X63165984Y-94090382D01*
X63668841Y-94426379D01*
X64262000Y-94544366D01*
X64855159Y-94426379D01*
X65358016Y-94090382D01*
X65532000Y-93829996D01*
X65705984Y-94090382D01*
X66208841Y-94426379D01*
X66802000Y-94544366D01*
X67395159Y-94426379D01*
X67898016Y-94090382D01*
X68234013Y-93587525D01*
X68352000Y-92994366D01*
X68352000Y-92933634D01*
X68234013Y-92340475D01*
X67898016Y-91837618D01*
X67395159Y-91501621D01*
X66802000Y-91383634D01*
X66208841Y-91501621D01*
X65705984Y-91837618D01*
X65532000Y-92098004D01*
X65358016Y-91837618D01*
X64855159Y-91501621D01*
X64262000Y-91383634D01*
X63668841Y-91501621D01*
X63165984Y-91837618D01*
X62992000Y-92098004D01*
X62818016Y-91837618D01*
X62315159Y-91501621D01*
X61722000Y-91383634D01*
X61128841Y-91501621D01*
X60740000Y-91761435D01*
X60740000Y-91713998D01*
X60074061Y-91713998D01*
X59812631Y-91539335D01*
X59582000Y-91655263D01*
X58782000Y-91655263D01*
X58551369Y-91539335D01*
X58107088Y-91836162D01*
X57757306Y-92333365D01*
X44942000Y-92333365D01*
X44942000Y-89583864D01*
X45255260Y-89271151D01*
X45491730Y-88701667D01*
X45492268Y-88085039D01*
X45256792Y-87515143D01*
X44821151Y-87078740D01*
X44251667Y-86842270D01*
X43635039Y-86841732D01*
X43065143Y-87077208D01*
X42628740Y-87512849D01*
X42392270Y-88082333D01*
X42391732Y-88698961D01*
X42627208Y-89268857D01*
X42942000Y-89584200D01*
X42942000Y-93726000D01*
X43018120Y-94108684D01*
X43234893Y-94433107D01*
X47514000Y-98712213D01*
X47514000Y-99731746D01*
X47163984Y-99965618D01*
X46827987Y-100468475D01*
X46710000Y-101061634D01*
X46710000Y-101122366D01*
X46827987Y-101715525D01*
X47163984Y-102218382D01*
X47300039Y-102309291D01*
X47322518Y-102422300D01*
X46736000Y-102305634D01*
X46142841Y-102423621D01*
X45639984Y-102759618D01*
X45303987Y-103262475D01*
X45186000Y-103855634D01*
X45186000Y-103916366D01*
X45303987Y-104509525D01*
X45639984Y-105012382D01*
X46142841Y-105348379D01*
X46736000Y-105466366D01*
X47329159Y-105348379D01*
X47832016Y-105012382D01*
X48168013Y-104509525D01*
X48286000Y-103916366D01*
X48286000Y-103855634D01*
X48209666Y-103471880D01*
X48530000Y-103792214D01*
X48530000Y-113030000D01*
X48606120Y-113412684D01*
X48822893Y-113737107D01*
X50346891Y-115261104D01*
X50346893Y-115261107D01*
X50671317Y-115477880D01*
X50737937Y-115491132D01*
X50736802Y-115491862D01*
X50565554Y-115742492D01*
X50505307Y-116040000D01*
X50505307Y-117640000D01*
X50557604Y-117917933D01*
X50721862Y-118173198D01*
X50972492Y-118344446D01*
X51148063Y-118380000D01*
X46896214Y-118380000D01*
X46802992Y-118286778D01*
X46952643Y-118137126D01*
X47316017Y-118064846D01*
X47401119Y-117816805D01*
X46736000Y-117151685D01*
X46453157Y-117434528D01*
X45887472Y-116868843D01*
X46170315Y-116586000D01*
X47301685Y-116586000D01*
X47966805Y-117251119D01*
X48214846Y-117166017D01*
X48324239Y-116555936D01*
X48214846Y-116005983D01*
X47966805Y-115920881D01*
X47301685Y-116586000D01*
X46170315Y-116586000D01*
X45505195Y-115920881D01*
X45450000Y-115939818D01*
X45450000Y-115355195D01*
X46070881Y-115355195D01*
X46736000Y-116020315D01*
X47401119Y-115355195D01*
X47316017Y-115107154D01*
X46705936Y-114997761D01*
X46155983Y-115107154D01*
X46070881Y-115355195D01*
X45450000Y-115355195D01*
X45450000Y-106426005D01*
X45450001Y-106426000D01*
X45373880Y-106043316D01*
X45157107Y-105718893D01*
X44041419Y-104603205D01*
X44104013Y-104509525D01*
X44222000Y-103916366D01*
X44222000Y-103855634D01*
X44104013Y-103262475D01*
X43768016Y-102759618D01*
X43568145Y-102626069D01*
X43591556Y-102602658D01*
X43942000Y-102672366D01*
X44535159Y-102554379D01*
X45038016Y-102218382D01*
X45374013Y-101715525D01*
X45492000Y-101122366D01*
X45492000Y-101061634D01*
X45374013Y-100468475D01*
X45038016Y-99965618D01*
X44535159Y-99629621D01*
X43942000Y-99511634D01*
X43348841Y-99629621D01*
X42845984Y-99965618D01*
X42509987Y-100468475D01*
X42413813Y-100951973D01*
X42003786Y-101362000D01*
X41075810Y-101362000D01*
X41174000Y-100868366D01*
X41174000Y-100807634D01*
X41056013Y-100214475D01*
X40720016Y-99711618D01*
X40217159Y-99375621D01*
X39624000Y-99257634D01*
X39030841Y-99375621D01*
X38527984Y-99711618D01*
X38191987Y-100214475D01*
X38074000Y-100807634D01*
X38074000Y-100868366D01*
X38172190Y-101362000D01*
X36503810Y-101362000D01*
X36602000Y-100868366D01*
X36602000Y-100807634D01*
X36484013Y-100214475D01*
X36148016Y-99711618D01*
X36052000Y-99647462D01*
X36052000Y-93472000D01*
X35975880Y-93089317D01*
X35759107Y-92764893D01*
X35759104Y-92764891D01*
X31894214Y-88900000D01*
X32349253Y-88444961D01*
X33501732Y-88444961D01*
X33737208Y-89014857D01*
X34172849Y-89451260D01*
X34742333Y-89687730D01*
X35358961Y-89688268D01*
X35928857Y-89452792D01*
X36365260Y-89017151D01*
X36601730Y-88447667D01*
X36601732Y-88444961D01*
X38073732Y-88444961D01*
X38309208Y-89014857D01*
X38744849Y-89451260D01*
X39314333Y-89687730D01*
X39930961Y-89688268D01*
X40500857Y-89452792D01*
X40937260Y-89017151D01*
X41173730Y-88447667D01*
X41174268Y-87831039D01*
X40938792Y-87261143D01*
X40503151Y-86824740D01*
X39933667Y-86588270D01*
X39317039Y-86587732D01*
X38747143Y-86823208D01*
X38310740Y-87258849D01*
X38074270Y-87828333D01*
X38073732Y-88444961D01*
X36601732Y-88444961D01*
X36602268Y-87831039D01*
X36366792Y-87261143D01*
X35931151Y-86824740D01*
X35361667Y-86588270D01*
X34745039Y-86587732D01*
X34175143Y-86823208D01*
X33738740Y-87258849D01*
X33502270Y-87828333D01*
X33501732Y-88444961D01*
X32349253Y-88444961D01*
X33219107Y-87575107D01*
X33435880Y-87250684D01*
X33512000Y-86868000D01*
X33512000Y-85171500D01*
X38574000Y-85171500D01*
X38574000Y-85532776D01*
X38689399Y-85811373D01*
X38902628Y-86024602D01*
X39181225Y-86140000D01*
X39542500Y-86140000D01*
X39732000Y-85950500D01*
X39732000Y-84982000D01*
X40532000Y-84982000D01*
X40532000Y-85950500D01*
X40721500Y-86140000D01*
X41082775Y-86140000D01*
X41361372Y-86024602D01*
X41574601Y-85811373D01*
X41690000Y-85532776D01*
X41690000Y-85171500D01*
X41500500Y-84982000D01*
X40532000Y-84982000D01*
X39732000Y-84982000D01*
X38763500Y-84982000D01*
X38574000Y-85171500D01*
X33512000Y-85171500D01*
X33512000Y-84244000D01*
X44617307Y-84244000D01*
X44617307Y-86444000D01*
X44669604Y-86721933D01*
X44833862Y-86977198D01*
X45084492Y-87148446D01*
X45382000Y-87208693D01*
X47251428Y-87208693D01*
X46946740Y-87512849D01*
X46710270Y-88082333D01*
X46709732Y-88698961D01*
X46945208Y-89268857D01*
X47380849Y-89705260D01*
X47950333Y-89941730D01*
X48566961Y-89942268D01*
X49136857Y-89706792D01*
X49573260Y-89271151D01*
X49809730Y-88701667D01*
X49810268Y-88085039D01*
X49574792Y-87515143D01*
X49139151Y-87078740D01*
X48569667Y-86842270D01*
X48217808Y-86841963D01*
X48286446Y-86741508D01*
X48346693Y-86444000D01*
X48346693Y-84244000D01*
X48294396Y-83966067D01*
X48130138Y-83710802D01*
X47879508Y-83539554D01*
X47582000Y-83479307D01*
X45382000Y-83479307D01*
X45104067Y-83531604D01*
X44848802Y-83695862D01*
X44677554Y-83946492D01*
X44617307Y-84244000D01*
X33512000Y-84244000D01*
X33512000Y-83631224D01*
X38574000Y-83631224D01*
X38574000Y-83992500D01*
X38763500Y-84182000D01*
X39732000Y-84182000D01*
X39732000Y-83213500D01*
X40532000Y-83213500D01*
X40532000Y-84182000D01*
X41500500Y-84182000D01*
X41690000Y-83992500D01*
X41690000Y-83631224D01*
X41574601Y-83352627D01*
X41361372Y-83139398D01*
X41082775Y-83024000D01*
X40721500Y-83024000D01*
X40532000Y-83213500D01*
X39732000Y-83213500D01*
X39542500Y-83024000D01*
X39181225Y-83024000D01*
X38902628Y-83139398D01*
X38689399Y-83352627D01*
X38574000Y-83631224D01*
X33512000Y-83631224D01*
X33512000Y-81948214D01*
X35571253Y-79888961D01*
X38581732Y-79888961D01*
X38817208Y-80458857D01*
X39252849Y-80895260D01*
X39822333Y-81131730D01*
X40438961Y-81132268D01*
X41008857Y-80896792D01*
X41445260Y-80461151D01*
X41681730Y-79891667D01*
X41682268Y-79275039D01*
X41446792Y-78705143D01*
X41011151Y-78268740D01*
X40441667Y-78032270D01*
X39825039Y-78031732D01*
X39255143Y-78267208D01*
X38818740Y-78702849D01*
X38582270Y-79272333D01*
X38581732Y-79888961D01*
X35571253Y-79888961D01*
X39022214Y-76438000D01*
X40719462Y-76438000D01*
X40783618Y-76534016D01*
X41286475Y-76870013D01*
X41879634Y-76988000D01*
X41940366Y-76988000D01*
X42533525Y-76870013D01*
X43036382Y-76534016D01*
X43372379Y-76031159D01*
X43490366Y-75438000D01*
X43372379Y-74844841D01*
X43079156Y-74406000D01*
X53449856Y-74406000D01*
X53296740Y-74558849D01*
X53060270Y-75128333D01*
X53059881Y-75573905D01*
X48520723Y-80113063D01*
X48384138Y-79900802D01*
X48133508Y-79729554D01*
X47836000Y-79669307D01*
X45636000Y-79669307D01*
X45358067Y-79721604D01*
X45102802Y-79885862D01*
X44931554Y-80136492D01*
X44871307Y-80434000D01*
X44871307Y-82634000D01*
X44923604Y-82911933D01*
X45087862Y-83167198D01*
X45338492Y-83338446D01*
X45636000Y-83398693D01*
X47836000Y-83398693D01*
X48113933Y-83346396D01*
X48369198Y-83182138D01*
X48540446Y-82931508D01*
X48600693Y-82634000D01*
X48600693Y-82516756D01*
X48896684Y-82457880D01*
X49221107Y-82241107D01*
X53831762Y-77630452D01*
X57696655Y-77630452D01*
X57812759Y-77886448D01*
X58504358Y-77990455D01*
X59027241Y-77886448D01*
X59143345Y-77630452D01*
X58420000Y-76907107D01*
X57696655Y-77630452D01*
X53831762Y-77630452D01*
X54474332Y-76987882D01*
X54916961Y-76988268D01*
X55486857Y-76752792D01*
X55923260Y-76317151D01*
X55936876Y-76284358D01*
X56629545Y-76284358D01*
X56733552Y-76807241D01*
X56989548Y-76923345D01*
X57712893Y-76200000D01*
X59127107Y-76200000D01*
X59850452Y-76923345D01*
X60106448Y-76807241D01*
X60210455Y-76115642D01*
X60106448Y-75592759D01*
X59850452Y-75476655D01*
X59127107Y-76200000D01*
X57712893Y-76200000D01*
X56989548Y-75476655D01*
X56733552Y-75592759D01*
X56629545Y-76284358D01*
X55936876Y-76284358D01*
X56159730Y-75747667D01*
X56160268Y-75131039D01*
X56010904Y-74769548D01*
X57696655Y-74769548D01*
X58420000Y-75492893D01*
X59143345Y-74769548D01*
X59027241Y-74513552D01*
X58335642Y-74409545D01*
X57812759Y-74513552D01*
X57696655Y-74769548D01*
X56010904Y-74769548D01*
X55924792Y-74561143D01*
X55514977Y-74150612D01*
X55571107Y-74113107D01*
X57679578Y-72004635D01*
X62075306Y-72004635D01*
X62425088Y-72501838D01*
X62869369Y-72798665D01*
X63100000Y-72682737D01*
X63100000Y-71774000D01*
X62183693Y-71774000D01*
X62075306Y-72004635D01*
X57679578Y-72004635D01*
X58084505Y-71599708D01*
X58766569Y-71600304D01*
X59410001Y-71334443D01*
X59902713Y-70842590D01*
X59943914Y-70743365D01*
X62075306Y-70743365D01*
X62183693Y-70974000D01*
X63100000Y-70974000D01*
X63100000Y-70065263D01*
X63900000Y-70065263D01*
X63900000Y-70974000D01*
X64300000Y-70974000D01*
X64300000Y-71774000D01*
X63900000Y-71774000D01*
X63900000Y-72682737D01*
X64130631Y-72798665D01*
X64392061Y-72624002D01*
X65058000Y-72624002D01*
X65058000Y-72576565D01*
X65446841Y-72836379D01*
X66040000Y-72954366D01*
X66633159Y-72836379D01*
X67136016Y-72500382D01*
X67310000Y-72239996D01*
X67483984Y-72500382D01*
X67986841Y-72836379D01*
X68580000Y-72954366D01*
X69173159Y-72836379D01*
X69676016Y-72500382D01*
X69850000Y-72239996D01*
X70023984Y-72500382D01*
X70526841Y-72836379D01*
X71120000Y-72954366D01*
X71713159Y-72836379D01*
X72216016Y-72500382D01*
X72552013Y-71997525D01*
X72670000Y-71404366D01*
X72670000Y-71343634D01*
X72552013Y-70750475D01*
X72216016Y-70247618D01*
X71713159Y-69911621D01*
X71120000Y-69793634D01*
X70526841Y-69911621D01*
X70023984Y-70247618D01*
X69850000Y-70508004D01*
X69676016Y-70247618D01*
X69173159Y-69911621D01*
X68580000Y-69793634D01*
X67986841Y-69911621D01*
X67483984Y-70247618D01*
X67310000Y-70508004D01*
X67136016Y-70247618D01*
X66633159Y-69911621D01*
X66040000Y-69793634D01*
X65446841Y-69911621D01*
X65058000Y-70171435D01*
X65058000Y-70123998D01*
X64392061Y-70123998D01*
X64130631Y-69949335D01*
X63900000Y-70065263D01*
X63100000Y-70065263D01*
X62869369Y-69949335D01*
X62425088Y-70246162D01*
X62075306Y-70743365D01*
X59943914Y-70743365D01*
X60169696Y-70199624D01*
X60170304Y-69503431D01*
X59904443Y-68859999D01*
X59412590Y-68367287D01*
X58769624Y-68100304D01*
X58073431Y-68099696D01*
X57429999Y-68365557D01*
X56937287Y-68857410D01*
X56670304Y-69500376D01*
X56669705Y-70186082D01*
X55438359Y-71417428D01*
X55339421Y-70920036D01*
X54938392Y-70319852D01*
X54338208Y-69918823D01*
X53992212Y-69850000D01*
X54338208Y-69781177D01*
X54938392Y-69380148D01*
X55339421Y-68779964D01*
X55480244Y-68072000D01*
X55339421Y-67364036D01*
X54938392Y-66763852D01*
X54338208Y-66362823D01*
X54258465Y-66346961D01*
X61441732Y-66346961D01*
X61677208Y-66916857D01*
X62112849Y-67353260D01*
X62682333Y-67589730D01*
X63298961Y-67590268D01*
X63868857Y-67354792D01*
X64305260Y-66919151D01*
X64541730Y-66349667D01*
X64541732Y-66346961D01*
X66441732Y-66346961D01*
X66677208Y-66916857D01*
X67112849Y-67353260D01*
X67682333Y-67589730D01*
X68298961Y-67590268D01*
X68868857Y-67354792D01*
X69305260Y-66919151D01*
X69541730Y-66349667D01*
X69542268Y-65733039D01*
X69306792Y-65163143D01*
X68871151Y-64726740D01*
X68301667Y-64490270D01*
X67685039Y-64489732D01*
X67115143Y-64725208D01*
X66678740Y-65160849D01*
X66442270Y-65730333D01*
X66441732Y-66346961D01*
X64541732Y-66346961D01*
X64542268Y-65733039D01*
X64306792Y-65163143D01*
X63871151Y-64726740D01*
X63301667Y-64490270D01*
X62685039Y-64489732D01*
X62115143Y-64725208D01*
X61678740Y-65160849D01*
X61442270Y-65730333D01*
X61441732Y-66346961D01*
X54258465Y-66346961D01*
X53630244Y-66222000D01*
X53557756Y-66222000D01*
X52849792Y-66362823D01*
X52249608Y-66763852D01*
X51848579Y-67364036D01*
X51707756Y-68072000D01*
X51848579Y-68779964D01*
X52249608Y-69380148D01*
X52849792Y-69781177D01*
X53195788Y-69850000D01*
X52849792Y-69918823D01*
X52249608Y-70319852D01*
X51848579Y-70920036D01*
X51707756Y-71628000D01*
X51848579Y-72335964D01*
X51895375Y-72406000D01*
X45298693Y-72406000D01*
X45298693Y-70528000D01*
X45246396Y-70250067D01*
X45082138Y-69994802D01*
X44867872Y-69848400D01*
X45067198Y-69720138D01*
X45238446Y-69469508D01*
X45298693Y-69172000D01*
X45298693Y-66972000D01*
X45246396Y-66694067D01*
X45082138Y-66438802D01*
X44831508Y-66267554D01*
X44534000Y-66207307D01*
X42983521Y-66207307D01*
X42656000Y-65879786D01*
X42656000Y-63462000D01*
X44155307Y-63462000D01*
X44155307Y-65062000D01*
X44207604Y-65339933D01*
X44371862Y-65595198D01*
X44622492Y-65766446D01*
X44920000Y-65826693D01*
X46520000Y-65826693D01*
X46797933Y-65774396D01*
X47053198Y-65610138D01*
X47191950Y-65407068D01*
X47666841Y-65724379D01*
X48260000Y-65842366D01*
X48853159Y-65724379D01*
X49356016Y-65388382D01*
X49530000Y-65127996D01*
X49703984Y-65388382D01*
X50206841Y-65724379D01*
X50800000Y-65842366D01*
X51393159Y-65724379D01*
X51896016Y-65388382D01*
X52070000Y-65127996D01*
X52243984Y-65388382D01*
X52746841Y-65724379D01*
X53340000Y-65842366D01*
X53933159Y-65724379D01*
X54436016Y-65388382D01*
X54772013Y-64885525D01*
X54890000Y-64292366D01*
X54890000Y-64231634D01*
X54772013Y-63638475D01*
X54436016Y-63135618D01*
X53933159Y-62799621D01*
X53340000Y-62681634D01*
X52746841Y-62799621D01*
X52243984Y-63135618D01*
X52070000Y-63396004D01*
X51896016Y-63135618D01*
X51393159Y-62799621D01*
X50800000Y-62681634D01*
X50206841Y-62799621D01*
X49703984Y-63135618D01*
X49530000Y-63396004D01*
X49356016Y-63135618D01*
X48853159Y-62799621D01*
X48260000Y-62681634D01*
X47666841Y-62799621D01*
X47190024Y-63118219D01*
X47068138Y-62928802D01*
X46817508Y-62757554D01*
X46520000Y-62697307D01*
X44920000Y-62697307D01*
X44642067Y-62749604D01*
X44386802Y-62913862D01*
X44215554Y-63164492D01*
X44155307Y-63462000D01*
X42656000Y-63462000D01*
X42656000Y-62404538D01*
X42752016Y-62340382D01*
X43088013Y-61837525D01*
X43116370Y-61694961D01*
X57885732Y-61694961D01*
X58121208Y-62264857D01*
X58556849Y-62701260D01*
X59126333Y-62937730D01*
X59742961Y-62938268D01*
X60312857Y-62702792D01*
X60749260Y-62267151D01*
X60985730Y-61697667D01*
X60986268Y-61081039D01*
X60750792Y-60511143D01*
X60315151Y-60074740D01*
X59745667Y-59838270D01*
X59129039Y-59837732D01*
X58559143Y-60073208D01*
X58122740Y-60508849D01*
X57886270Y-61078333D01*
X57885732Y-61694961D01*
X43116370Y-61694961D01*
X43206000Y-61244366D01*
X43206000Y-61183634D01*
X43088013Y-60590475D01*
X42752016Y-60087618D01*
X42656000Y-60023462D01*
X42656000Y-55880005D01*
X42656001Y-55880000D01*
X42579880Y-55497316D01*
X42363107Y-55172893D01*
X39569107Y-52378893D01*
X39244684Y-52162120D01*
X38862000Y-52086000D01*
X37965345Y-52086000D01*
X37686463Y-51806630D01*
X37131675Y-51576262D01*
X36988350Y-51576137D01*
X36013107Y-50600893D01*
X35688684Y-50384120D01*
X35306000Y-50308000D01*
X32904949Y-50308000D01*
X33318000Y-50137331D01*
X33909255Y-49547107D01*
X34229634Y-48775548D01*
X34230363Y-47940117D01*
X33911331Y-47168000D01*
X33321107Y-46576745D01*
X32549548Y-46256366D01*
X31714117Y-46255637D01*
X30942000Y-46574669D01*
X30350745Y-47164893D01*
X30030366Y-47936452D01*
X30029637Y-48771883D01*
X30348669Y-49544000D01*
X30938893Y-50135255D01*
X31354910Y-50308000D01*
X29539749Y-50308000D01*
X29419774Y-50258182D01*
X29002058Y-50257818D01*
X28616000Y-50417334D01*
X28320372Y-50712446D01*
X28160182Y-51098226D01*
X28159818Y-51515942D01*
X28319334Y-51902000D01*
X28614446Y-52197628D01*
X29000226Y-52357818D01*
X29417942Y-52358182D01*
X29539392Y-52308000D01*
X33434992Y-52308000D01*
X33328893Y-52378893D01*
X32312893Y-53394893D01*
X32096120Y-53719316D01*
X32096120Y-53719317D01*
X32020000Y-54102000D01*
X32020000Y-57658000D01*
X32096120Y-58040684D01*
X32240054Y-58256096D01*
X31714117Y-58255637D01*
X30942000Y-58574669D01*
X30350745Y-59164893D01*
X30030366Y-59936452D01*
X30029637Y-60771883D01*
X30348669Y-61544000D01*
X30795888Y-61992000D01*
X29370214Y-61992000D01*
X27162000Y-59783786D01*
X27162000Y-42354882D01*
X29691555Y-41265769D01*
X31296893Y-42871107D01*
X31621316Y-43087880D01*
X32004000Y-43164001D01*
X32004005Y-43164000D01*
X36686301Y-43164000D01*
X36278740Y-43570849D01*
X36042270Y-44140333D01*
X36041732Y-44756961D01*
X36277208Y-45326857D01*
X36712849Y-45763260D01*
X37282333Y-45999730D01*
X37898961Y-46000268D01*
X38468857Y-45764792D01*
X38905260Y-45329151D01*
X39128835Y-44790722D01*
X39241316Y-44865880D01*
X39624000Y-44942001D01*
X39624005Y-44942000D01*
X41495786Y-44942000D01*
X45990000Y-49436214D01*
X45990000Y-51054000D01*
X46066120Y-51436684D01*
X46282893Y-51761107D01*
X48314893Y-53793107D01*
X48639316Y-54009880D01*
X49022000Y-54086000D01*
X51401786Y-54086000D01*
X52340000Y-55024213D01*
X52340000Y-55451462D01*
X52243984Y-55515618D01*
X52070000Y-55776004D01*
X51896016Y-55515618D01*
X51393159Y-55179621D01*
X50800000Y-55061634D01*
X50206841Y-55179621D01*
X49703984Y-55515618D01*
X49530000Y-55776004D01*
X49356016Y-55515618D01*
X48853159Y-55179621D01*
X48260000Y-55061634D01*
X47666841Y-55179621D01*
X47163984Y-55515618D01*
X46990000Y-55776004D01*
X46816016Y-55515618D01*
X46313159Y-55179621D01*
X45720000Y-55061634D01*
X45126841Y-55179621D01*
X44688000Y-55472844D01*
X44688000Y-54610000D01*
X44633587Y-54336446D01*
X44611880Y-54227316D01*
X44395107Y-53902893D01*
X42656000Y-52163786D01*
X42656000Y-49705864D01*
X42969260Y-49393151D01*
X43205730Y-48823667D01*
X43206268Y-48207039D01*
X42970792Y-47637143D01*
X42535151Y-47200740D01*
X41965667Y-46964270D01*
X41349039Y-46963732D01*
X40779143Y-47199208D01*
X40342740Y-47634849D01*
X40106270Y-48204333D01*
X40105732Y-48820961D01*
X40341208Y-49390857D01*
X40656000Y-49706200D01*
X40656000Y-52578000D01*
X40732120Y-52960684D01*
X40948893Y-53285107D01*
X42688000Y-55024214D01*
X42688000Y-58928000D01*
X42764120Y-59310684D01*
X42980893Y-59635107D01*
X43488891Y-60143104D01*
X43488893Y-60143107D01*
X43813317Y-60359880D01*
X44196000Y-60436000D01*
X50546000Y-60436000D01*
X50928684Y-60359880D01*
X51253107Y-60143107D01*
X52375645Y-59020569D01*
X63527696Y-59020569D01*
X63793557Y-59664001D01*
X64285410Y-60156713D01*
X64928376Y-60423696D01*
X65624569Y-60424304D01*
X66268001Y-60158443D01*
X66760713Y-59666590D01*
X67027696Y-59023624D01*
X67028304Y-58327431D01*
X66762443Y-57683999D01*
X66270590Y-57191287D01*
X65627624Y-56924304D01*
X64931431Y-56923696D01*
X64287999Y-57189557D01*
X63795287Y-57681410D01*
X63528304Y-58324376D01*
X63527696Y-59020569D01*
X52375645Y-59020569D01*
X53201414Y-58194800D01*
X53340000Y-58222366D01*
X53933159Y-58104379D01*
X54436016Y-57768382D01*
X54772013Y-57265525D01*
X54885505Y-56694961D01*
X57885732Y-56694961D01*
X58121208Y-57264857D01*
X58556849Y-57701260D01*
X59126333Y-57937730D01*
X59742961Y-57938268D01*
X60312857Y-57702792D01*
X60749260Y-57267151D01*
X60985730Y-56697667D01*
X60986268Y-56081039D01*
X60750792Y-55511143D01*
X60315151Y-55074740D01*
X59745667Y-54838270D01*
X59129039Y-54837732D01*
X58559143Y-55073208D01*
X58122740Y-55508849D01*
X57886270Y-56078333D01*
X57885732Y-56694961D01*
X54885505Y-56694961D01*
X54890000Y-56672366D01*
X54890000Y-56611634D01*
X54772013Y-56018475D01*
X54436016Y-55515618D01*
X54340000Y-55451462D01*
X54340000Y-54610000D01*
X54263880Y-54227317D01*
X54047107Y-53902893D01*
X54047104Y-53902891D01*
X52630633Y-52486419D01*
X52705628Y-52411554D01*
X52863232Y-52032000D01*
X57109307Y-52032000D01*
X57109307Y-53632000D01*
X57161604Y-53909933D01*
X57325862Y-54165198D01*
X57576492Y-54336446D01*
X57874000Y-54396693D01*
X59474000Y-54396693D01*
X59751933Y-54344396D01*
X60007198Y-54180138D01*
X60145950Y-53977068D01*
X60620841Y-54294379D01*
X61104339Y-54390553D01*
X62538893Y-55825107D01*
X62863316Y-56041880D01*
X63246000Y-56118000D01*
X68834000Y-56118000D01*
X69216684Y-56041880D01*
X69541107Y-55825107D01*
X73392214Y-51974000D01*
X85549786Y-51974000D01*
X85144893Y-52378893D01*
X84928120Y-52703316D01*
X84905706Y-52816000D01*
X84852000Y-53086000D01*
X84852000Y-56070225D01*
X84767177Y-55643792D01*
X84366148Y-55043608D01*
X83765964Y-54642579D01*
X83058000Y-54501756D01*
X82350036Y-54642579D01*
X81749852Y-55043608D01*
X81348823Y-55643792D01*
X81208000Y-56351756D01*
X81208000Y-56424244D01*
X81348823Y-57132208D01*
X81749852Y-57732392D01*
X82350036Y-58133421D01*
X83058000Y-58274244D01*
X83765964Y-58133421D01*
X84366148Y-57732392D01*
X84767177Y-57132208D01*
X84852000Y-56705775D01*
X84852000Y-63824915D01*
X84709508Y-63727554D01*
X84412000Y-63667307D01*
X82212000Y-63667307D01*
X81934067Y-63719604D01*
X81678802Y-63883862D01*
X81507554Y-64134492D01*
X81447307Y-64432000D01*
X81447307Y-66632000D01*
X81499604Y-66909933D01*
X81663862Y-67165198D01*
X81914492Y-67336446D01*
X82212000Y-67396693D01*
X84412000Y-67396693D01*
X84689933Y-67344396D01*
X84945198Y-67180138D01*
X85116446Y-66929508D01*
X85165426Y-66687640D01*
X86192882Y-67715096D01*
X86138348Y-67846430D01*
X86137654Y-68642079D01*
X86441494Y-69377429D01*
X87003612Y-69940529D01*
X87738430Y-70245652D01*
X88534079Y-70246346D01*
X89269429Y-69942506D01*
X89832529Y-69380388D01*
X90137652Y-68645570D01*
X90138346Y-67849921D01*
X89834506Y-67114571D01*
X89272388Y-66551471D01*
X88868370Y-66383708D01*
X88845107Y-66348893D01*
X88520683Y-66132120D01*
X88138000Y-66056000D01*
X87755317Y-66132120D01*
X87565300Y-66259086D01*
X86852000Y-65545786D01*
X86852000Y-64788652D01*
X87003612Y-64940529D01*
X87738430Y-65245652D01*
X88534079Y-65246346D01*
X89269429Y-64942506D01*
X89832529Y-64380388D01*
X90137652Y-63645570D01*
X90138346Y-62849921D01*
X89834506Y-62114571D01*
X89272388Y-61551471D01*
X88537570Y-61246348D01*
X87741921Y-61245654D01*
X87006571Y-61549494D01*
X86852000Y-61703795D01*
X86852000Y-57516652D01*
X87003612Y-57668529D01*
X87738430Y-57973652D01*
X88534079Y-57974346D01*
X89269429Y-57670506D01*
X89832529Y-57108388D01*
X90137652Y-56373570D01*
X90138346Y-55577921D01*
X89834506Y-54842571D01*
X89272388Y-54279471D01*
X88537570Y-53974348D01*
X87741921Y-53973654D01*
X87006571Y-54277494D01*
X86852000Y-54431795D01*
X86852000Y-53500214D01*
X87484149Y-52868065D01*
X87738430Y-52973652D01*
X88534079Y-52974346D01*
X89269429Y-52670506D01*
X89832529Y-52108388D01*
X90137652Y-51373570D01*
X90138346Y-50577921D01*
X89834506Y-49842571D01*
X89272388Y-49279471D01*
X88537570Y-48974348D01*
X87741921Y-48973654D01*
X87006571Y-49277494D01*
X86443471Y-49839612D01*
X86387668Y-49974000D01*
X84901227Y-49974000D01*
X84922693Y-49868000D01*
X84922693Y-47668000D01*
X84870396Y-47390067D01*
X84706138Y-47134802D01*
X84455508Y-46963554D01*
X84158000Y-46903307D01*
X81958000Y-46903307D01*
X81680067Y-46955604D01*
X81424802Y-47119862D01*
X81253554Y-47370492D01*
X81193307Y-47668000D01*
X81193307Y-49868000D01*
X81213252Y-49974000D01*
X79773426Y-49974000D01*
X80124857Y-49828792D01*
X80561260Y-49393151D01*
X80797730Y-48823667D01*
X80798268Y-48207039D01*
X80562792Y-47637143D01*
X80127151Y-47200740D01*
X79557667Y-46964270D01*
X78941039Y-46963732D01*
X78371143Y-47199208D01*
X77934740Y-47634849D01*
X77698270Y-48204333D01*
X77697732Y-48820961D01*
X77933208Y-49390857D01*
X78368849Y-49827260D01*
X78722239Y-49974000D01*
X75963426Y-49974000D01*
X76314857Y-49828792D01*
X76751260Y-49393151D01*
X76987730Y-48823667D01*
X76988268Y-48207039D01*
X76752792Y-47637143D01*
X76317151Y-47200740D01*
X75747667Y-46964270D01*
X75131039Y-46963732D01*
X74561143Y-47199208D01*
X74124740Y-47634849D01*
X73888270Y-48204333D01*
X73887732Y-48820961D01*
X74123208Y-49390857D01*
X74558849Y-49827260D01*
X74912239Y-49974000D01*
X72978000Y-49974000D01*
X72595316Y-50050120D01*
X72270893Y-50266893D01*
X68419786Y-54118000D01*
X67544002Y-54118000D01*
X67544002Y-53710954D01*
X67718694Y-53462635D01*
X67610307Y-53232000D01*
X66694000Y-53232000D01*
X66694000Y-53632000D01*
X65894000Y-53632000D01*
X65894000Y-53232000D01*
X65494000Y-53232000D01*
X65494000Y-52432000D01*
X65894000Y-52432000D01*
X65894000Y-51523263D01*
X66694000Y-51523263D01*
X66694000Y-52432000D01*
X67610307Y-52432000D01*
X67718694Y-52201365D01*
X67368912Y-51704162D01*
X66924631Y-51407335D01*
X66694000Y-51523263D01*
X65894000Y-51523263D01*
X65663369Y-51407335D01*
X65401939Y-51581998D01*
X64736000Y-51581998D01*
X64736000Y-51629435D01*
X64347159Y-51369621D01*
X63754000Y-51251634D01*
X63160841Y-51369621D01*
X62657984Y-51705618D01*
X62484000Y-51966004D01*
X62310016Y-51705618D01*
X61807159Y-51369621D01*
X61214000Y-51251634D01*
X60620841Y-51369621D01*
X60144024Y-51688219D01*
X60022138Y-51498802D01*
X59771508Y-51327554D01*
X59474000Y-51267307D01*
X57874000Y-51267307D01*
X57596067Y-51319604D01*
X57340802Y-51483862D01*
X57169554Y-51734492D01*
X57109307Y-52032000D01*
X52863232Y-52032000D01*
X52865818Y-52025774D01*
X52866182Y-51608058D01*
X52816000Y-51486608D01*
X52816000Y-50261839D01*
X53142849Y-50589260D01*
X53712333Y-50825730D01*
X54328961Y-50826268D01*
X54898857Y-50590792D01*
X55335260Y-50155151D01*
X55571730Y-49585667D01*
X55572268Y-48969039D01*
X55336792Y-48399143D01*
X54901151Y-47962740D01*
X54331667Y-47726270D01*
X53715039Y-47725732D01*
X53145143Y-47961208D01*
X52708740Y-48396849D01*
X52658581Y-48517645D01*
X52523107Y-48314893D01*
X50237107Y-46028893D01*
X49958353Y-45842635D01*
X57249306Y-45842635D01*
X57599088Y-46339838D01*
X58043369Y-46636665D01*
X58274000Y-46520737D01*
X58274000Y-45612000D01*
X57357693Y-45612000D01*
X57249306Y-45842635D01*
X49958353Y-45842635D01*
X49912684Y-45812120D01*
X49530000Y-45736000D01*
X47404214Y-45736000D01*
X46249579Y-44581365D01*
X57249306Y-44581365D01*
X57357693Y-44812000D01*
X58274000Y-44812000D01*
X58274000Y-43903263D01*
X59074000Y-43903263D01*
X59074000Y-44812000D01*
X59474000Y-44812000D01*
X59474000Y-45612000D01*
X59074000Y-45612000D01*
X59074000Y-46520737D01*
X59304631Y-46636665D01*
X59566061Y-46462002D01*
X60232000Y-46462002D01*
X60232000Y-46414565D01*
X60620841Y-46674379D01*
X61214000Y-46792366D01*
X61807159Y-46674379D01*
X62310016Y-46338382D01*
X62484000Y-46077996D01*
X62657984Y-46338382D01*
X63160841Y-46674379D01*
X63754000Y-46792366D01*
X64347159Y-46674379D01*
X64850016Y-46338382D01*
X65024000Y-46077996D01*
X65197984Y-46338382D01*
X65700841Y-46674379D01*
X66294000Y-46792366D01*
X66887159Y-46674379D01*
X67390016Y-46338382D01*
X67474461Y-46212000D01*
X70866000Y-46212000D01*
X71020395Y-46181289D01*
X71176699Y-46162509D01*
X71210571Y-46143461D01*
X71248683Y-46135880D01*
X71379574Y-46048421D01*
X71516791Y-45971257D01*
X71841469Y-45692961D01*
X74649732Y-45692961D01*
X74885208Y-46262857D01*
X75320849Y-46699260D01*
X75890333Y-46935730D01*
X76506961Y-46936268D01*
X77076857Y-46700792D01*
X77408148Y-46370079D01*
X86137654Y-46370079D01*
X86441494Y-47105429D01*
X87003612Y-47668529D01*
X87738430Y-47973652D01*
X88534079Y-47974346D01*
X89269429Y-47670506D01*
X89832529Y-47108388D01*
X90137652Y-46373570D01*
X90138346Y-45577921D01*
X89834506Y-44842571D01*
X89272388Y-44279471D01*
X88537570Y-43974348D01*
X87741921Y-43973654D01*
X87006571Y-44277494D01*
X86443471Y-44839612D01*
X86138348Y-45574430D01*
X86137654Y-46370079D01*
X77408148Y-46370079D01*
X77513260Y-46265151D01*
X77749730Y-45695667D01*
X77750268Y-45079039D01*
X77514792Y-44509143D01*
X77079151Y-44072740D01*
X76509667Y-43836270D01*
X75893039Y-43835732D01*
X75323143Y-44071208D01*
X74886740Y-44506849D01*
X74650270Y-45076333D01*
X74649732Y-45692961D01*
X71841469Y-45692961D01*
X76224566Y-41936022D01*
X76506961Y-41936268D01*
X77076857Y-41700792D01*
X77315334Y-41462731D01*
X81347665Y-41462731D01*
X81448269Y-41714786D01*
X82099170Y-41821515D01*
X82635731Y-41714786D01*
X82736335Y-41462731D01*
X82042000Y-40768396D01*
X81347665Y-41462731D01*
X77315334Y-41462731D01*
X77513260Y-41265151D01*
X77749730Y-40695667D01*
X77750268Y-40079039D01*
X77514792Y-39509143D01*
X77079151Y-39072740D01*
X76509667Y-38836270D01*
X75893039Y-38835732D01*
X75323143Y-39071208D01*
X74886740Y-39506849D01*
X74650270Y-40076333D01*
X74649768Y-40651692D01*
X70496076Y-44212000D01*
X67474461Y-44212000D01*
X67390016Y-44085618D01*
X66887159Y-43749621D01*
X66294000Y-43631634D01*
X65700841Y-43749621D01*
X65197984Y-44085618D01*
X65024000Y-44346004D01*
X64850016Y-44085618D01*
X64347159Y-43749621D01*
X63754000Y-43631634D01*
X63160841Y-43749621D01*
X62657984Y-44085618D01*
X62484000Y-44346004D01*
X62310016Y-44085618D01*
X61807159Y-43749621D01*
X61214000Y-43631634D01*
X60620841Y-43749621D01*
X60232000Y-44009435D01*
X60232000Y-43961998D01*
X59566061Y-43961998D01*
X59304631Y-43787335D01*
X59074000Y-43903263D01*
X58274000Y-43903263D01*
X58043369Y-43787335D01*
X57599088Y-44084162D01*
X57249306Y-44581365D01*
X46249579Y-44581365D01*
X43954050Y-42285836D01*
X44324345Y-41916187D01*
X44667608Y-41089516D01*
X44668390Y-40194411D01*
X44326569Y-39367142D01*
X44099824Y-39140000D01*
X45233307Y-39140000D01*
X45233307Y-42140000D01*
X45285604Y-42417933D01*
X45449862Y-42673198D01*
X45700492Y-42844446D01*
X45998000Y-42904693D01*
X48998000Y-42904693D01*
X49275933Y-42852396D01*
X49531198Y-42688138D01*
X49702446Y-42437508D01*
X49762693Y-42140000D01*
X49762693Y-41240569D01*
X50827696Y-41240569D01*
X51093557Y-41884001D01*
X51585410Y-42376713D01*
X52228376Y-42643696D01*
X52924569Y-42644304D01*
X53568001Y-42378443D01*
X54060713Y-41886590D01*
X54327696Y-41243624D01*
X54327698Y-41240569D01*
X55907696Y-41240569D01*
X56173557Y-41884001D01*
X56665410Y-42376713D01*
X57308376Y-42643696D01*
X58004569Y-42644304D01*
X58648001Y-42378443D01*
X59140713Y-41886590D01*
X59407696Y-41243624D01*
X59407698Y-41240569D01*
X60987696Y-41240569D01*
X61253557Y-41884001D01*
X61745410Y-42376713D01*
X62388376Y-42643696D01*
X63084569Y-42644304D01*
X63728001Y-42378443D01*
X64220713Y-41886590D01*
X64227267Y-41870805D01*
X66390881Y-41870805D01*
X66475983Y-42118846D01*
X67086064Y-42228239D01*
X67636017Y-42118846D01*
X67721119Y-41870805D01*
X67056000Y-41205685D01*
X66390881Y-41870805D01*
X64227267Y-41870805D01*
X64487696Y-41243624D01*
X64488196Y-40670064D01*
X65467761Y-40670064D01*
X65577154Y-41220017D01*
X65825195Y-41305119D01*
X66490315Y-40640000D01*
X67621685Y-40640000D01*
X68286805Y-41305119D01*
X68534846Y-41220017D01*
X68583807Y-40946961D01*
X70505732Y-40946961D01*
X70741208Y-41516857D01*
X71176849Y-41953260D01*
X71746333Y-42189730D01*
X72362961Y-42190268D01*
X72932857Y-41954792D01*
X73369260Y-41519151D01*
X73605730Y-40949667D01*
X73606268Y-40333039D01*
X73370792Y-39763143D01*
X72935151Y-39326740D01*
X72365667Y-39090270D01*
X71749039Y-39089732D01*
X71179143Y-39325208D01*
X70742740Y-39760849D01*
X70506270Y-40330333D01*
X70505732Y-40946961D01*
X68583807Y-40946961D01*
X68644239Y-40609936D01*
X68534846Y-40059983D01*
X68286805Y-39974881D01*
X67621685Y-40640000D01*
X66490315Y-40640000D01*
X65825195Y-39974881D01*
X65577154Y-40059983D01*
X65467761Y-40670064D01*
X64488196Y-40670064D01*
X64488304Y-40547431D01*
X64222443Y-39903999D01*
X63730590Y-39411287D01*
X63725552Y-39409195D01*
X66390881Y-39409195D01*
X67056000Y-40074315D01*
X67721119Y-39409195D01*
X67636017Y-39161154D01*
X67025936Y-39051761D01*
X66475983Y-39161154D01*
X66390881Y-39409195D01*
X63725552Y-39409195D01*
X63087624Y-39144304D01*
X62391431Y-39143696D01*
X61747999Y-39409557D01*
X61255287Y-39901410D01*
X60988304Y-40544376D01*
X60987696Y-41240569D01*
X59407698Y-41240569D01*
X59408304Y-40547431D01*
X59142443Y-39903999D01*
X58650590Y-39411287D01*
X58007624Y-39144304D01*
X57311431Y-39143696D01*
X56667999Y-39409557D01*
X56175287Y-39901410D01*
X55908304Y-40544376D01*
X55907696Y-41240569D01*
X54327698Y-41240569D01*
X54328304Y-40547431D01*
X54062443Y-39903999D01*
X53570590Y-39411287D01*
X52927624Y-39144304D01*
X52231431Y-39143696D01*
X51587999Y-39409557D01*
X51095287Y-39901410D01*
X50828304Y-40544376D01*
X50827696Y-41240569D01*
X49762693Y-41240569D01*
X49762693Y-39140000D01*
X49710396Y-38862067D01*
X49546138Y-38606802D01*
X49295508Y-38435554D01*
X48998000Y-38375307D01*
X45998000Y-38375307D01*
X45720067Y-38427604D01*
X45464802Y-38591862D01*
X45293554Y-38842492D01*
X45233307Y-39140000D01*
X44099824Y-39140000D01*
X43694187Y-38733655D01*
X43231348Y-38541468D01*
X43144669Y-37588000D01*
X80377307Y-37588000D01*
X80377307Y-38492000D01*
X80377307Y-38492000D01*
G37*
X80377307Y-38492000D02*
X80429604Y-38769933D01*
X80593862Y-39025198D01*
X80695547Y-39094677D01*
X79966227Y-39823997D01*
X80357720Y-40215490D01*
X80459214Y-40725731D01*
X80711269Y-40826335D01*
X81405604Y-40132000D01*
X81087406Y-39813802D01*
X81644515Y-39256693D01*
X81803089Y-39256693D01*
X82042000Y-39495604D01*
X82280911Y-39256693D01*
X82439485Y-39256693D01*
X82996594Y-39813802D01*
X82678396Y-40132000D01*
X83372731Y-40826335D01*
X83624786Y-40725731D01*
X83704954Y-40236816D01*
X84117773Y-39823997D01*
X83389232Y-39095456D01*
X83475198Y-39040138D01*
X83646446Y-38789508D01*
X83706693Y-38492000D01*
X83706693Y-37588000D01*
X83970446Y-37588000D01*
X92460000Y-46077554D01*
X92460000Y-104029032D01*
X92401107Y-103940893D01*
X90289107Y-101828893D01*
X89964684Y-101612120D01*
X89639540Y-101547445D01*
X89580506Y-101404571D01*
X89018388Y-100841471D01*
X88283570Y-100536348D01*
X87487921Y-100535654D01*
X86752571Y-100839494D01*
X86189471Y-101401612D01*
X86133668Y-101536000D01*
X73232214Y-101536000D01*
X72314274Y-100618060D01*
X72264666Y-100498000D01*
X71969554Y-100202372D01*
X71583774Y-100042182D01*
X71166058Y-100041818D01*
X70780000Y-100201334D01*
X70596000Y-100385013D01*
X70596000Y-98524961D01*
X71855732Y-98524961D01*
X72091208Y-99094857D01*
X72526849Y-99531260D01*
X73096333Y-99767730D01*
X73712961Y-99768268D01*
X74282857Y-99532792D01*
X74719260Y-99097151D01*
X74955730Y-98527667D01*
X74956249Y-97932079D01*
X85883654Y-97932079D01*
X86187494Y-98667429D01*
X86749612Y-99230529D01*
X87484430Y-99535652D01*
X88280079Y-99536346D01*
X89015429Y-99232506D01*
X89578529Y-98670388D01*
X89883652Y-97935570D01*
X89884346Y-97139921D01*
X89580506Y-96404571D01*
X89018388Y-95841471D01*
X88283570Y-95536348D01*
X87487921Y-95535654D01*
X86752571Y-95839494D01*
X86189471Y-96401612D01*
X85884348Y-97136430D01*
X85883654Y-97932079D01*
X74956249Y-97932079D01*
X74956268Y-97911039D01*
X74720792Y-97341143D01*
X74285151Y-96904740D01*
X73715667Y-96668270D01*
X73099039Y-96667732D01*
X72529143Y-96903208D01*
X72092740Y-97338849D01*
X71856270Y-97908333D01*
X71855732Y-98524961D01*
X70596000Y-98524961D01*
X70596000Y-92108214D01*
X70772214Y-91932000D01*
X72500301Y-91932000D01*
X72092740Y-92338849D01*
X71856270Y-92908333D01*
X71855732Y-93524961D01*
X72091208Y-94094857D01*
X72526849Y-94531260D01*
X73096333Y-94767730D01*
X73712961Y-94768268D01*
X74282857Y-94532792D01*
X74358146Y-94457634D01*
X77698000Y-94457634D01*
X77698000Y-94518366D01*
X77815987Y-95111525D01*
X78151984Y-95614382D01*
X78654841Y-95950379D01*
X79248000Y-96068366D01*
X79841159Y-95950379D01*
X80344016Y-95614382D01*
X80680013Y-95111525D01*
X80798000Y-94518366D01*
X80798000Y-94457634D01*
X80680013Y-93864475D01*
X80453158Y-93524961D01*
X81761732Y-93524961D01*
X81997208Y-94094857D01*
X82432849Y-94531260D01*
X83002333Y-94767730D01*
X83618961Y-94768268D01*
X84188857Y-94532792D01*
X84625260Y-94097151D01*
X84861730Y-93527667D01*
X84862268Y-92911039D01*
X84626792Y-92341143D01*
X84191151Y-91904740D01*
X83621667Y-91668270D01*
X83005039Y-91667732D01*
X82435143Y-91903208D01*
X81998740Y-92338849D01*
X81762270Y-92908333D01*
X81761732Y-93524961D01*
X80453158Y-93524961D01*
X80344016Y-93361618D01*
X79841159Y-93025621D01*
X79248000Y-92907634D01*
X78654841Y-93025621D01*
X78151984Y-93361618D01*
X77815987Y-93864475D01*
X77698000Y-94457634D01*
X74358146Y-94457634D01*
X74719260Y-94097151D01*
X74955730Y-93527667D01*
X74956268Y-92911039D01*
X74720792Y-92341143D01*
X74312363Y-91932000D01*
X78067539Y-91932000D01*
X78151984Y-92058382D01*
X78654841Y-92394379D01*
X79248000Y-92512366D01*
X79841159Y-92394379D01*
X80344016Y-92058382D01*
X80680013Y-91555525D01*
X80798000Y-90962366D01*
X80798000Y-90914079D01*
X86137654Y-90914079D01*
X86441494Y-91649429D01*
X87003612Y-92212529D01*
X87738430Y-92517652D01*
X88534079Y-92518346D01*
X89269429Y-92214506D01*
X89832529Y-91652388D01*
X90137652Y-90917570D01*
X90138346Y-90121921D01*
X89834506Y-89386571D01*
X89272388Y-88823471D01*
X88537570Y-88518348D01*
X87741921Y-88517654D01*
X87006571Y-88821494D01*
X86443471Y-89383612D01*
X86138348Y-90118430D01*
X86137654Y-90914079D01*
X80798000Y-90914079D01*
X80798000Y-90901634D01*
X80680013Y-90308475D01*
X80344016Y-89805618D01*
X79841159Y-89469621D01*
X79248000Y-89351634D01*
X78654841Y-89469621D01*
X78151984Y-89805618D01*
X78067539Y-89932000D01*
X74502000Y-89932000D01*
X74502000Y-89639500D01*
X74312500Y-89450000D01*
X73194000Y-89450000D01*
X73194000Y-89932000D01*
X72094000Y-89932000D01*
X72094000Y-89450000D01*
X70975500Y-89450000D01*
X70786000Y-89639500D01*
X70786000Y-89932000D01*
X70358000Y-89932000D01*
X69975316Y-90008120D01*
X69737342Y-90167129D01*
X67763107Y-88192893D01*
X67438684Y-87976120D01*
X67056000Y-87900000D01*
X66574289Y-87900000D01*
X66406728Y-87649225D01*
X70786000Y-87649225D01*
X70786000Y-88160500D01*
X70975500Y-88350000D01*
X72094000Y-88350000D01*
X72094000Y-87231500D01*
X71904500Y-87042000D01*
X71393224Y-87042000D01*
X71114627Y-87157399D01*
X70901398Y-87370628D01*
X70786000Y-87649225D01*
X66406728Y-87649225D01*
X66368392Y-87591852D01*
X65768208Y-87190823D01*
X65060244Y-87050000D01*
X64987756Y-87050000D01*
X64754000Y-87096497D01*
X64754000Y-86341907D01*
X73180323Y-86341907D01*
X73880416Y-87042000D01*
X73383500Y-87042000D01*
X73194000Y-87231500D01*
X73194000Y-88350000D01*
X74312500Y-88350000D01*
X74502000Y-88160500D01*
X74502000Y-87663584D01*
X74948093Y-88109677D01*
X75400643Y-87657126D01*
X75764017Y-87584846D01*
X75849119Y-87336805D01*
X75709378Y-87197063D01*
X87342820Y-87197063D01*
X87497684Y-87462632D01*
X88290604Y-87559644D01*
X88778316Y-87462632D01*
X88933180Y-87197063D01*
X88138000Y-86401883D01*
X87342820Y-87197063D01*
X75709378Y-87197063D01*
X75184000Y-86671685D01*
X74901157Y-86954528D01*
X74335472Y-86388843D01*
X74618315Y-86106000D01*
X75749685Y-86106000D01*
X76414805Y-86771119D01*
X76662846Y-86686017D01*
X76772239Y-86075936D01*
X76691614Y-85670604D01*
X86096356Y-85670604D01*
X86193368Y-86158316D01*
X86458937Y-86313180D01*
X87254117Y-85518000D01*
X89021883Y-85518000D01*
X89817063Y-86313180D01*
X90082632Y-86158316D01*
X90179644Y-85365396D01*
X90082632Y-84877684D01*
X89817063Y-84722820D01*
X89021883Y-85518000D01*
X87254117Y-85518000D01*
X86458937Y-84722820D01*
X86193368Y-84877684D01*
X86096356Y-85670604D01*
X76691614Y-85670604D01*
X76662846Y-85525983D01*
X76414805Y-85440881D01*
X75749685Y-86106000D01*
X74618315Y-86106000D01*
X73953195Y-85440881D01*
X73705154Y-85525983D01*
X73641554Y-85880677D01*
X73180323Y-86341907D01*
X64754000Y-86341907D01*
X64754000Y-85154004D01*
X64986849Y-85387260D01*
X65556333Y-85623730D01*
X66172961Y-85624268D01*
X66742857Y-85388792D01*
X66826990Y-85304805D01*
X70200881Y-85304805D01*
X70285983Y-85552846D01*
X70896064Y-85662239D01*
X71446017Y-85552846D01*
X71531119Y-85304805D01*
X71101510Y-84875195D01*
X74518881Y-84875195D01*
X75184000Y-85540315D01*
X75849119Y-84875195D01*
X75764017Y-84627154D01*
X75153936Y-84517761D01*
X74603983Y-84627154D01*
X74518881Y-84875195D01*
X71101510Y-84875195D01*
X70866000Y-84639685D01*
X70200881Y-85304805D01*
X66826990Y-85304805D01*
X67179260Y-84953151D01*
X67415730Y-84383667D01*
X67415973Y-84104064D01*
X69277761Y-84104064D01*
X69387154Y-84654017D01*
X69635195Y-84739119D01*
X70300315Y-84074000D01*
X71431685Y-84074000D01*
X72096805Y-84739119D01*
X72344846Y-84654017D01*
X72454239Y-84043936D01*
X72413462Y-83838937D01*
X87342820Y-83838937D01*
X88138000Y-84634117D01*
X88933180Y-83838937D01*
X88778316Y-83573368D01*
X87985396Y-83476356D01*
X87497684Y-83573368D01*
X87342820Y-83838937D01*
X72413462Y-83838937D01*
X72344846Y-83493983D01*
X72096805Y-83408881D01*
X71431685Y-84074000D01*
X70300315Y-84074000D01*
X69635195Y-83408881D01*
X69387154Y-83493983D01*
X69277761Y-84104064D01*
X67415973Y-84104064D01*
X67416268Y-83767039D01*
X67180792Y-83197143D01*
X66827463Y-82843195D01*
X70200881Y-82843195D01*
X70866000Y-83508315D01*
X71531119Y-82843195D01*
X71446017Y-82595154D01*
X70835936Y-82485761D01*
X70285983Y-82595154D01*
X70200881Y-82843195D01*
X66827463Y-82843195D01*
X66745151Y-82760740D01*
X66175667Y-82524270D01*
X65559039Y-82523732D01*
X64989143Y-82759208D01*
X64754000Y-82993940D01*
X64754000Y-82456214D01*
X66747107Y-80463107D01*
X66749947Y-80458857D01*
X66847134Y-80313406D01*
X67136016Y-80120382D01*
X67310000Y-79859996D01*
X67483984Y-80120382D01*
X67986841Y-80456379D01*
X68580000Y-80574366D01*
X69173159Y-80456379D01*
X69676016Y-80120382D01*
X69850000Y-79859996D01*
X70023984Y-80120382D01*
X70526841Y-80456379D01*
X71120000Y-80574366D01*
X71556029Y-80487634D01*
X81762000Y-80487634D01*
X81762000Y-80548366D01*
X81879987Y-81141525D01*
X82215984Y-81644382D01*
X82718841Y-81980379D01*
X83312000Y-82098366D01*
X83905159Y-81980379D01*
X84408016Y-81644382D01*
X84744013Y-81141525D01*
X84789254Y-80914079D01*
X86137654Y-80914079D01*
X86441494Y-81649429D01*
X87003612Y-82212529D01*
X87738430Y-82517652D01*
X88534079Y-82518346D01*
X89269429Y-82214506D01*
X89832529Y-81652388D01*
X90137652Y-80917570D01*
X90138346Y-80121921D01*
X89834506Y-79386571D01*
X89272388Y-78823471D01*
X88537570Y-78518348D01*
X87741921Y-78517654D01*
X87006571Y-78821494D01*
X86443471Y-79383612D01*
X86138348Y-80118430D01*
X86137654Y-80914079D01*
X84789254Y-80914079D01*
X84862000Y-80548366D01*
X84862000Y-80487634D01*
X84744013Y-79894475D01*
X84408016Y-79391618D01*
X83905159Y-79055621D01*
X83312000Y-78937634D01*
X82718841Y-79055621D01*
X82215984Y-79391618D01*
X81879987Y-79894475D01*
X81762000Y-80487634D01*
X71556029Y-80487634D01*
X71713159Y-80456379D01*
X72031008Y-80244000D01*
X74168000Y-80244000D01*
X74646354Y-80148849D01*
X75051883Y-79877883D01*
X75466961Y-79462805D01*
X78582881Y-79462805D01*
X78667983Y-79710846D01*
X79278064Y-79820239D01*
X79828017Y-79710846D01*
X79913119Y-79462805D01*
X79248000Y-78797685D01*
X78582881Y-79462805D01*
X75466961Y-79462805D01*
X76067883Y-78861883D01*
X76338849Y-78456354D01*
X76358549Y-78357317D01*
X76377496Y-78262064D01*
X77659761Y-78262064D01*
X77769154Y-78812017D01*
X78017195Y-78897119D01*
X78682315Y-78232000D01*
X79813685Y-78232000D01*
X80478805Y-78897119D01*
X80726846Y-78812017D01*
X80836239Y-78201936D01*
X80726846Y-77651983D01*
X80478805Y-77566881D01*
X79813685Y-78232000D01*
X78682315Y-78232000D01*
X78017195Y-77566881D01*
X77769154Y-77651983D01*
X77659761Y-78262064D01*
X76377496Y-78262064D01*
X76434000Y-77978000D01*
X76434000Y-77001195D01*
X78582881Y-77001195D01*
X79248000Y-77666315D01*
X79913119Y-77001195D01*
X79828017Y-76753154D01*
X79217936Y-76643761D01*
X78667983Y-76753154D01*
X78582881Y-77001195D01*
X76434000Y-77001195D01*
X76434000Y-74301928D01*
X76616013Y-74029525D01*
X76734000Y-73436366D01*
X76734000Y-73375634D01*
X76682307Y-73115756D01*
X81462000Y-73115756D01*
X81462000Y-73188244D01*
X81602823Y-73896208D01*
X82003852Y-74496392D01*
X82604036Y-74897421D01*
X83312000Y-75038244D01*
X84019964Y-74897421D01*
X84620148Y-74496392D01*
X85021177Y-73896208D01*
X85071726Y-73642079D01*
X86137654Y-73642079D01*
X86441494Y-74377429D01*
X87003612Y-74940529D01*
X87738430Y-75245652D01*
X88534079Y-75246346D01*
X89269429Y-74942506D01*
X89832529Y-74380388D01*
X90137652Y-73645570D01*
X90138346Y-72849921D01*
X89834506Y-72114571D01*
X89272388Y-71551471D01*
X88537570Y-71246348D01*
X87741921Y-71245654D01*
X87006571Y-71549494D01*
X86443471Y-72111612D01*
X86138348Y-72846430D01*
X86137654Y-73642079D01*
X85071726Y-73642079D01*
X85162000Y-73188244D01*
X85162000Y-73115756D01*
X85021177Y-72407792D01*
X84620148Y-71807608D01*
X84019964Y-71406579D01*
X83312000Y-71265756D01*
X82604036Y-71406579D01*
X82003852Y-71807608D01*
X81602823Y-72407792D01*
X81462000Y-73115756D01*
X76682307Y-73115756D01*
X76616013Y-72782475D01*
X76280016Y-72279618D01*
X76184000Y-72215462D01*
X76184000Y-71564731D01*
X76398333Y-71653730D01*
X77014961Y-71654268D01*
X77584857Y-71418792D01*
X78021260Y-70983151D01*
X78257730Y-70413667D01*
X78258268Y-69797039D01*
X78022792Y-69227143D01*
X77587151Y-68790740D01*
X77017667Y-68554270D01*
X76401039Y-68553732D01*
X75831143Y-68789208D01*
X75394740Y-69224849D01*
X75191799Y-69713585D01*
X74152000Y-68673786D01*
X74152000Y-65410961D01*
X75157732Y-65410961D01*
X75393208Y-65980857D01*
X75828849Y-66417260D01*
X76398333Y-66653730D01*
X77014961Y-66654268D01*
X77584857Y-66418792D01*
X78021260Y-65983151D01*
X78257730Y-65413667D01*
X78258268Y-64797039D01*
X78022792Y-64227143D01*
X77587151Y-63790740D01*
X77017667Y-63554270D01*
X76401039Y-63553732D01*
X75831143Y-63789208D01*
X75394740Y-64224849D01*
X75158270Y-64794333D01*
X75157732Y-65410961D01*
X74152000Y-65410961D01*
X74152000Y-62056050D01*
X74341984Y-62340382D01*
X74844841Y-62676379D01*
X75438000Y-62794366D01*
X76031159Y-62676379D01*
X76534016Y-62340382D01*
X76870013Y-61837525D01*
X76988000Y-61244366D01*
X76988000Y-61183634D01*
X77698000Y-61183634D01*
X77698000Y-61244366D01*
X77815987Y-61837525D01*
X78151984Y-62340382D01*
X78654841Y-62676379D01*
X79248000Y-62794366D01*
X79841159Y-62676379D01*
X80344016Y-62340382D01*
X80680013Y-61837525D01*
X80798000Y-61244366D01*
X80798000Y-61183634D01*
X80680013Y-60590475D01*
X80344016Y-60087618D01*
X79841159Y-59751621D01*
X79248000Y-59633634D01*
X78654841Y-59751621D01*
X78151984Y-60087618D01*
X77815987Y-60590475D01*
X77698000Y-61183634D01*
X76988000Y-61183634D01*
X76870013Y-60590475D01*
X76534016Y-60087618D01*
X76031159Y-59751621D01*
X75438000Y-59633634D01*
X74844841Y-59751621D01*
X74341984Y-60087618D01*
X74005987Y-60590475D01*
X73946170Y-60891192D01*
X73859107Y-60760893D01*
X72107708Y-59009494D01*
X72108304Y-58327431D01*
X71842443Y-57683999D01*
X71350590Y-57191287D01*
X70707624Y-56924304D01*
X70011431Y-56923696D01*
X69367999Y-57189557D01*
X68875287Y-57681410D01*
X68608304Y-58324376D01*
X68607696Y-59020569D01*
X68873557Y-59664001D01*
X69365410Y-60156713D01*
X70008376Y-60423696D01*
X70694081Y-60424295D01*
X72152000Y-61882214D01*
X72152000Y-69088000D01*
X72228120Y-69470684D01*
X72444893Y-69795107D01*
X74184000Y-71534214D01*
X74184000Y-72215462D01*
X74087984Y-72279618D01*
X73751987Y-72782475D01*
X73634000Y-73375634D01*
X73634000Y-73436366D01*
X73751987Y-74029525D01*
X73934000Y-74301928D01*
X73934000Y-77460234D01*
X73650234Y-77744000D01*
X72031008Y-77744000D01*
X71713159Y-77531621D01*
X71120000Y-77413634D01*
X70526841Y-77531621D01*
X70023984Y-77867618D01*
X69850000Y-78128004D01*
X69676016Y-77867618D01*
X69387134Y-77674594D01*
X69287107Y-77524893D01*
X68271107Y-76508893D01*
X67946684Y-76292120D01*
X67564000Y-76216000D01*
X62992000Y-76216000D01*
X62609316Y-76292120D01*
X62284893Y-76508893D01*
X57497786Y-81296000D01*
X57150000Y-81296000D01*
X56767316Y-81372120D01*
X56442893Y-81588893D01*
X56178792Y-81852994D01*
X56242244Y-81534000D01*
X56101421Y-80826036D01*
X55700392Y-80225852D01*
X55100208Y-79824823D01*
X54392244Y-79684000D01*
X54319756Y-79684000D01*
X53611792Y-79824823D01*
X53011608Y-80225852D01*
X52610579Y-80826036D01*
X52469756Y-81534000D01*
X52610579Y-82241964D01*
X53011608Y-82842148D01*
X53611792Y-83243177D01*
X54319756Y-83384000D01*
X54392244Y-83384000D01*
X54711238Y-83320548D01*
X54471498Y-83560288D01*
X54138244Y-83494000D01*
X54065756Y-83494000D01*
X53357792Y-83634823D01*
X52757608Y-84035852D01*
X52356579Y-84636036D01*
X52215756Y-85344000D01*
X52356579Y-86051964D01*
X52757608Y-86652148D01*
X52955387Y-86784299D01*
X52832000Y-86759756D01*
X52124036Y-86900579D01*
X51523852Y-87301608D01*
X51122823Y-87901792D01*
X50982000Y-88609756D01*
X50982000Y-88682244D01*
X51122823Y-89390208D01*
X51523852Y-89990392D01*
X52124036Y-90391421D01*
X52832000Y-90532244D01*
X53539964Y-90391421D01*
X54140148Y-89990392D01*
X54493901Y-89460961D01*
X57377732Y-89460961D01*
X57613208Y-90030857D01*
X58048849Y-90467260D01*
X58618333Y-90703730D01*
X59234961Y-90704268D01*
X59804857Y-90468792D01*
X60241260Y-90033151D01*
X60477730Y-89463667D01*
X60478268Y-88847039D01*
X60242792Y-88277143D01*
X59807151Y-87840740D01*
X59237667Y-87604270D01*
X58621039Y-87603732D01*
X58051143Y-87839208D01*
X57614740Y-88274849D01*
X57378270Y-88844333D01*
X57377732Y-89460961D01*
X54493901Y-89460961D01*
X54541177Y-89390208D01*
X54682000Y-88682244D01*
X54682000Y-88609756D01*
X54541177Y-87901792D01*
X54140148Y-87301608D01*
X53942369Y-87169457D01*
X54065756Y-87194000D01*
X54138244Y-87194000D01*
X54846208Y-87053177D01*
X55446392Y-86652148D01*
X55847421Y-86051964D01*
X55988244Y-85344000D01*
X55909929Y-84950285D01*
X57564214Y-83296000D01*
X57605957Y-83296000D01*
X57378270Y-83844333D01*
X57377732Y-84460961D01*
X57613208Y-85030857D01*
X58048849Y-85467260D01*
X58618333Y-85703730D01*
X59234961Y-85704268D01*
X59804857Y-85468792D01*
X60241260Y-85033151D01*
X60477730Y-84463667D01*
X60478268Y-83847039D01*
X60242792Y-83277143D01*
X59807151Y-82840740D01*
X59237667Y-82604270D01*
X59018136Y-82604078D01*
X61935307Y-79686907D01*
X61935307Y-79794000D01*
X61987604Y-80071933D01*
X62151862Y-80327198D01*
X62402492Y-80498446D01*
X62700000Y-80558693D01*
X63823093Y-80558693D01*
X63046893Y-81334893D01*
X62830120Y-81659316D01*
X62778927Y-81916683D01*
X62754000Y-82042000D01*
X62754000Y-87630000D01*
X62830120Y-88012684D01*
X63046893Y-88337107D01*
X63216071Y-88506285D01*
X63137756Y-88900000D01*
X63278579Y-89607964D01*
X63679608Y-90208148D01*
X64279792Y-90609177D01*
X64987756Y-90750000D01*
X65060244Y-90750000D01*
X65768208Y-90609177D01*
X66368392Y-90208148D01*
X66574289Y-89900000D01*
X66641786Y-89900000D01*
X68596000Y-91854213D01*
X68596000Y-104218136D01*
X68282740Y-104530849D01*
X68046270Y-105100333D01*
X68045732Y-105716961D01*
X68281208Y-106286857D01*
X68716849Y-106723260D01*
X69286333Y-106959730D01*
X69902961Y-106960268D01*
X70472857Y-106724792D01*
X70909260Y-106289151D01*
X71145730Y-105719667D01*
X71145732Y-105716961D01*
X73045732Y-105716961D01*
X73281208Y-106286857D01*
X73716849Y-106723260D01*
X74286333Y-106959730D01*
X74692000Y-106960084D01*
X74692000Y-107950000D01*
X74768120Y-108332684D01*
X74984893Y-108657107D01*
X75746893Y-109419107D01*
X76071316Y-109635880D01*
X76454000Y-109712000D01*
X81627786Y-109712000D01*
X83593848Y-111678062D01*
X83593696Y-111852569D01*
X83859557Y-112496001D01*
X84351410Y-112988713D01*
X84994376Y-113255696D01*
X85690569Y-113256304D01*
X86334001Y-112990443D01*
X86826713Y-112498590D01*
X87093696Y-111855624D01*
X87094304Y-111159431D01*
X86828443Y-110515999D01*
X86336590Y-110023287D01*
X85693624Y-109756304D01*
X84997431Y-109755696D01*
X84645376Y-109901162D01*
X82749107Y-108004893D01*
X82640134Y-107932079D01*
X85883654Y-107932079D01*
X86187494Y-108667429D01*
X86749612Y-109230529D01*
X87484430Y-109535652D01*
X88280079Y-109536346D01*
X89015429Y-109232506D01*
X89578529Y-108670388D01*
X89883652Y-107935570D01*
X89884346Y-107139921D01*
X89580506Y-106404571D01*
X89018388Y-105841471D01*
X88283570Y-105536348D01*
X87487921Y-105535654D01*
X86752571Y-105839494D01*
X86189471Y-106401612D01*
X85884348Y-107136430D01*
X85883654Y-107932079D01*
X82640134Y-107932079D01*
X82424684Y-107788120D01*
X82042000Y-107712000D01*
X80708731Y-107712000D01*
X80797730Y-107497667D01*
X80798268Y-106881039D01*
X80562792Y-106311143D01*
X80127151Y-105874740D01*
X79557667Y-105638270D01*
X78941039Y-105637732D01*
X78371143Y-105873208D01*
X77934740Y-106308849D01*
X77698270Y-106878333D01*
X77697732Y-107494961D01*
X77787411Y-107712000D01*
X76868214Y-107712000D01*
X76692000Y-107535786D01*
X76692000Y-106506000D01*
X76653241Y-106311143D01*
X76615880Y-106123316D01*
X76399107Y-105798893D01*
X76145882Y-105545668D01*
X76146268Y-105103039D01*
X75910792Y-104533143D01*
X75475151Y-104096740D01*
X74905667Y-103860270D01*
X74289039Y-103859732D01*
X73719143Y-104095208D01*
X73282740Y-104530849D01*
X73046270Y-105100333D01*
X73045732Y-105716961D01*
X71145732Y-105716961D01*
X71146268Y-105103039D01*
X70910792Y-104533143D01*
X70596000Y-104217800D01*
X70596000Y-101798863D01*
X70778446Y-101981628D01*
X70899808Y-102032022D01*
X72110893Y-103243107D01*
X72435317Y-103459880D01*
X72818000Y-103536000D01*
X86133189Y-103536000D01*
X86187494Y-103667429D01*
X86749612Y-104230529D01*
X87484430Y-104535652D01*
X88280079Y-104536346D01*
X89015429Y-104232506D01*
X89440231Y-103808445D01*
X90694000Y-105062214D01*
X90694000Y-107789786D01*
X89970893Y-108512893D01*
X89754120Y-108837316D01*
X89754120Y-108837317D01*
X89678000Y-109220000D01*
X89678000Y-110031539D01*
X89195287Y-110513410D01*
X88928304Y-111156376D01*
X88928052Y-111445412D01*
X88916000Y-111506000D01*
X88927946Y-111566058D01*
X88927696Y-111852569D01*
X89193557Y-112496001D01*
X89685410Y-112988713D01*
X90328376Y-113255696D01*
X91024569Y-113256304D01*
X91668001Y-112990443D01*
X92160713Y-112498590D01*
X92427696Y-111855624D01*
X92428304Y-111159431D01*
X92162443Y-110515999D01*
X91678000Y-110030710D01*
X91678000Y-109634214D01*
X92401107Y-108911107D01*
X92460000Y-108822968D01*
X92460000Y-116205042D01*
X92261143Y-116287208D01*
X91824740Y-116722849D01*
X91588270Y-117292333D01*
X91587732Y-117908961D01*
X91823208Y-118478857D01*
X91973952Y-118629865D01*
X85259278Y-127023208D01*
X85170016Y-126889618D01*
X84667159Y-126553621D01*
X84074000Y-126435634D01*
X83480841Y-126553621D01*
X82977984Y-126889618D01*
X82641987Y-127392475D01*
X82524000Y-127985634D01*
X82524000Y-128046366D01*
X82641987Y-128639525D01*
X82977984Y-129142382D01*
X83198911Y-129290000D01*
X80660299Y-129290000D01*
X80675119Y-129246805D01*
X80010000Y-128581685D01*
X79344881Y-129246805D01*
X79359701Y-129290000D01*
X39184226Y-129290000D01*
X37074944Y-128046064D01*
X78421761Y-128046064D01*
X78531154Y-128596017D01*
X78779195Y-128681119D01*
X79444315Y-128016000D01*
X80575685Y-128016000D01*
X81240805Y-128681119D01*
X81488846Y-128596017D01*
X81598239Y-127985936D01*
X81488846Y-127435983D01*
X81240805Y-127350881D01*
X80575685Y-128016000D01*
X79444315Y-128016000D01*
X78779195Y-127350881D01*
X78531154Y-127435983D01*
X78421761Y-128046064D01*
X37074944Y-128046064D01*
X34936949Y-126785195D01*
X79344881Y-126785195D01*
X80010000Y-127450315D01*
X80675119Y-126785195D01*
X80590017Y-126537154D01*
X79979936Y-126427761D01*
X79429983Y-126537154D01*
X79344881Y-126785195D01*
X34936949Y-126785195D01*
X32286314Y-125222000D01*
X36773634Y-125222000D01*
X36891621Y-125815159D01*
X37227618Y-126318016D01*
X37730475Y-126654013D01*
X38323634Y-126772000D01*
X38384366Y-126772000D01*
X38977525Y-126654013D01*
X39480382Y-126318016D01*
X39585699Y-126160398D01*
X39658684Y-126145880D01*
X39983107Y-125929107D01*
X40637253Y-125274961D01*
X56869732Y-125274961D01*
X57105208Y-125844857D01*
X57540849Y-126281260D01*
X58110333Y-126517730D01*
X58726961Y-126518268D01*
X59296857Y-126282792D01*
X59733260Y-125847151D01*
X59969730Y-125277667D01*
X59970268Y-124661039D01*
X59734792Y-124091143D01*
X59299151Y-123654740D01*
X58729667Y-123418270D01*
X58113039Y-123417732D01*
X57543143Y-123653208D01*
X57106740Y-124088849D01*
X56870270Y-124658333D01*
X56869732Y-125274961D01*
X40637253Y-125274961D01*
X42047096Y-123865118D01*
X42178430Y-123919652D01*
X42974079Y-123920346D01*
X43709429Y-123616506D01*
X43726902Y-123599063D01*
X46782820Y-123599063D01*
X46937684Y-123864632D01*
X47730604Y-123961644D01*
X48218316Y-123864632D01*
X48373180Y-123599063D01*
X47578000Y-122803883D01*
X46782820Y-123599063D01*
X43726902Y-123599063D01*
X44272529Y-123054388D01*
X44577652Y-122319570D01*
X44577867Y-122072604D01*
X45536356Y-122072604D01*
X45633368Y-122560316D01*
X45898937Y-122715180D01*
X46694117Y-121920000D01*
X48461883Y-121920000D01*
X49257063Y-122715180D01*
X49522632Y-122560316D01*
X49619644Y-121767396D01*
X49522632Y-121279684D01*
X49257063Y-121124820D01*
X48461883Y-121920000D01*
X46694117Y-121920000D01*
X45898937Y-121124820D01*
X45633368Y-121279684D01*
X45536356Y-122072604D01*
X44577867Y-122072604D01*
X44578346Y-121523921D01*
X44274506Y-120788571D01*
X43712388Y-120225471D01*
X42977570Y-119920348D01*
X42181921Y-119919654D01*
X41446571Y-120223494D01*
X40883471Y-120785612D01*
X40578348Y-121520430D01*
X40577654Y-122316079D01*
X40633222Y-122450564D01*
X39167118Y-123916668D01*
X38977525Y-123789987D01*
X38384366Y-123672000D01*
X38323634Y-123672000D01*
X37730475Y-123789987D01*
X37227618Y-124125984D01*
X36891621Y-124628841D01*
X36773634Y-125222000D01*
X32286314Y-125222000D01*
X30282154Y-124040060D01*
X30894214Y-123428000D01*
X37084000Y-123428000D01*
X37466684Y-123351880D01*
X37791107Y-123135107D01*
X39234332Y-121691882D01*
X39676961Y-121692268D01*
X40246857Y-121456792D01*
X40683260Y-121021151D01*
X40919730Y-120451667D01*
X40920268Y-119835039D01*
X40684792Y-119265143D01*
X40249151Y-118828740D01*
X39679667Y-118592270D01*
X39063039Y-118591732D01*
X39004241Y-118616027D01*
X38224246Y-117836032D01*
X38608000Y-117912366D01*
X39201159Y-117794379D01*
X39704016Y-117458382D01*
X40040013Y-116955525D01*
X40107536Y-116616064D01*
X41083761Y-116616064D01*
X41193154Y-117166017D01*
X41441195Y-117251119D01*
X42106315Y-116586000D01*
X41441195Y-115920881D01*
X41193154Y-116005983D01*
X41083761Y-116616064D01*
X40107536Y-116616064D01*
X40158000Y-116362366D01*
X40158000Y-116301634D01*
X40040013Y-115708475D01*
X39704016Y-115205618D01*
X39201159Y-114869621D01*
X38608000Y-114751634D01*
X38014841Y-114869621D01*
X37830000Y-114993127D01*
X37830000Y-107442000D01*
X37753880Y-107059317D01*
X37537107Y-106734893D01*
X37537104Y-106734891D01*
X35665019Y-104862805D01*
X37942881Y-104862805D01*
X38027983Y-105110846D01*
X38638064Y-105220239D01*
X39188017Y-105110846D01*
X39273119Y-104862805D01*
X38608000Y-104197685D01*
X37942881Y-104862805D01*
X35665019Y-104862805D01*
X35458186Y-104655972D01*
X35603260Y-104511151D01*
X35839730Y-103941667D01*
X35840236Y-103362000D01*
X36638416Y-103362000D01*
X36604323Y-103396093D01*
X37056874Y-103848643D01*
X37129154Y-104212017D01*
X37377195Y-104297119D01*
X38042315Y-103632000D01*
X37772315Y-103362000D01*
X39443685Y-103362000D01*
X39173685Y-103632000D01*
X39838805Y-104297119D01*
X40086846Y-104212017D01*
X40150446Y-103857323D01*
X40611677Y-103396093D01*
X40577584Y-103362000D01*
X41220190Y-103362000D01*
X41122000Y-103855634D01*
X41122000Y-103916366D01*
X41239987Y-104509525D01*
X41575984Y-105012382D01*
X41864866Y-105205406D01*
X41964893Y-105355107D01*
X43450000Y-106840214D01*
X43450000Y-115124416D01*
X42907907Y-114582323D01*
X42455357Y-115034874D01*
X42091983Y-115107154D01*
X42006881Y-115355195D01*
X42672000Y-116020315D01*
X42954843Y-115737472D01*
X43450000Y-116232629D01*
X43450000Y-116373685D01*
X43237685Y-116586000D01*
X43450000Y-116798315D01*
X43450000Y-116939371D01*
X42954843Y-117434528D01*
X42672000Y-117151685D01*
X42006881Y-117816805D01*
X42091983Y-118064846D01*
X42446677Y-118128446D01*
X42907907Y-118589677D01*
X43622563Y-117875021D01*
X43742893Y-118055107D01*
X45774893Y-120087107D01*
X46099316Y-120303880D01*
X46482000Y-120380000D01*
X46921883Y-120380000D01*
X47578000Y-121036117D01*
X48234117Y-120380000D01*
X51289792Y-120380000D01*
X50883471Y-120785612D01*
X50578348Y-121520430D01*
X50577654Y-122316079D01*
X50881494Y-123051429D01*
X51443612Y-123614529D01*
X52178430Y-123919652D01*
X52974079Y-123920346D01*
X53709429Y-123616506D01*
X54272529Y-123054388D01*
X54577652Y-122319570D01*
X54578346Y-121523921D01*
X54274506Y-120788571D01*
X53866648Y-120380000D01*
X54102000Y-120380000D01*
X54484684Y-120303880D01*
X54527964Y-120274961D01*
X56869732Y-120274961D01*
X57105208Y-120844857D01*
X57540849Y-121281260D01*
X58110333Y-121517730D01*
X58726961Y-121518268D01*
X59296857Y-121282792D01*
X59421867Y-121158000D01*
X65423756Y-121158000D01*
X65564579Y-121865964D01*
X65965608Y-122466148D01*
X66565792Y-122867177D01*
X66911788Y-122936000D01*
X66565792Y-123004823D01*
X65965608Y-123405852D01*
X65564579Y-124006036D01*
X65423756Y-124714000D01*
X65564579Y-125421964D01*
X65965608Y-126022148D01*
X66565792Y-126423177D01*
X67273756Y-126564000D01*
X67346244Y-126564000D01*
X68054208Y-126423177D01*
X68654392Y-126022148D01*
X69034349Y-125453500D01*
X73072000Y-125453500D01*
X73072000Y-125964775D01*
X73187398Y-126243372D01*
X73400627Y-126456601D01*
X73679224Y-126572000D01*
X74190500Y-126572000D01*
X74380000Y-126382500D01*
X74380000Y-125264000D01*
X75480000Y-125264000D01*
X75480000Y-126382500D01*
X75669500Y-126572000D01*
X76180776Y-126572000D01*
X76459373Y-126456601D01*
X76672602Y-126243372D01*
X76788000Y-125964775D01*
X76788000Y-125453500D01*
X76598500Y-125264000D01*
X75480000Y-125264000D01*
X74380000Y-125264000D01*
X73261500Y-125264000D01*
X73072000Y-125453500D01*
X69034349Y-125453500D01*
X69055421Y-125421964D01*
X69061174Y-125393040D01*
X70811107Y-123643107D01*
X71027880Y-123318684D01*
X71104001Y-122936000D01*
X71104000Y-122935995D01*
X71104000Y-120058000D01*
X73065307Y-120058000D01*
X73065307Y-122258000D01*
X73117604Y-122535933D01*
X73281862Y-122791198D01*
X73490881Y-122934014D01*
X73400627Y-122971399D01*
X73187398Y-123184628D01*
X73072000Y-123463225D01*
X73072000Y-123974500D01*
X73261500Y-124164000D01*
X74380000Y-124164000D01*
X74380000Y-123614000D01*
X75480000Y-123614000D01*
X75480000Y-124164000D01*
X76598500Y-124164000D01*
X76788000Y-123974500D01*
X76788000Y-123463225D01*
X76672602Y-123184628D01*
X76459373Y-122971399D01*
X76366292Y-122932843D01*
X76563198Y-122806138D01*
X76734446Y-122555508D01*
X76794693Y-122258000D01*
X76794693Y-120058000D01*
X76742396Y-119780067D01*
X76578138Y-119524802D01*
X76327508Y-119353554D01*
X76030000Y-119293307D01*
X73830000Y-119293307D01*
X73552067Y-119345604D01*
X73296802Y-119509862D01*
X73125554Y-119760492D01*
X73065307Y-120058000D01*
X71104000Y-120058000D01*
X71104000Y-118439749D01*
X71153818Y-118319774D01*
X71154182Y-117902058D01*
X70994666Y-117516000D01*
X70699554Y-117220372D01*
X70313774Y-117060182D01*
X69896058Y-117059818D01*
X69510000Y-117219334D01*
X69214372Y-117514446D01*
X69054182Y-117900226D01*
X69053818Y-118317942D01*
X69104000Y-118439392D01*
X69104000Y-120694259D01*
X69055421Y-120450036D01*
X68654392Y-119849852D01*
X68054208Y-119448823D01*
X67346244Y-119308000D01*
X67273756Y-119308000D01*
X66565792Y-119448823D01*
X65965608Y-119849852D01*
X65564579Y-120450036D01*
X65423756Y-121158000D01*
X59421867Y-121158000D01*
X59733260Y-120847151D01*
X59969730Y-120277667D01*
X59970268Y-119661039D01*
X59734792Y-119091143D01*
X59299151Y-118654740D01*
X58729667Y-118418270D01*
X58113039Y-118417732D01*
X57543143Y-118653208D01*
X57106740Y-119088849D01*
X56870270Y-119658333D01*
X56869732Y-120274961D01*
X54527964Y-120274961D01*
X54809107Y-120087107D01*
X55317104Y-119579109D01*
X55317107Y-119579107D01*
X55533880Y-119254683D01*
X55610000Y-118872000D01*
X55610000Y-118090002D01*
X56257939Y-118090002D01*
X56519369Y-118264665D01*
X56750000Y-118148737D01*
X56750000Y-117240000D01*
X56350000Y-117240000D01*
X56350000Y-116440000D01*
X56750000Y-116440000D01*
X56750000Y-116040000D01*
X57550000Y-116040000D01*
X57550000Y-116440000D01*
X57950000Y-116440000D01*
X57950000Y-117240000D01*
X57550000Y-117240000D01*
X57550000Y-118148737D01*
X57780631Y-118264665D01*
X58042061Y-118090002D01*
X58708000Y-118090002D01*
X58708000Y-118042565D01*
X59096841Y-118302379D01*
X59690000Y-118420366D01*
X60283159Y-118302379D01*
X60786016Y-117966382D01*
X60960000Y-117705996D01*
X61133984Y-117966382D01*
X61636841Y-118302379D01*
X62230000Y-118420366D01*
X62823159Y-118302379D01*
X63326016Y-117966382D01*
X63500000Y-117705996D01*
X63673984Y-117966382D01*
X64176841Y-118302379D01*
X64770000Y-118420366D01*
X65363159Y-118302379D01*
X65752000Y-118042565D01*
X65752000Y-118090002D01*
X66417939Y-118090002D01*
X66679369Y-118264665D01*
X66910000Y-118148737D01*
X66910000Y-117240000D01*
X67710000Y-117240000D01*
X67710000Y-118148737D01*
X67940631Y-118264665D01*
X68384912Y-117967838D01*
X68734694Y-117470635D01*
X68626307Y-117240000D01*
X67710000Y-117240000D01*
X66910000Y-117240000D01*
X66510000Y-117240000D01*
X66510000Y-116440000D01*
X66910000Y-116440000D01*
X66910000Y-116040000D01*
X67710000Y-116040000D01*
X67710000Y-116440000D01*
X68626307Y-116440000D01*
X68734694Y-116209365D01*
X68560002Y-115961046D01*
X68560002Y-115784805D01*
X70454881Y-115784805D01*
X70539983Y-116032846D01*
X71150064Y-116142239D01*
X71700017Y-116032846D01*
X71785119Y-115784805D01*
X71120000Y-115119685D01*
X70454881Y-115784805D01*
X68560002Y-115784805D01*
X68560002Y-115554000D01*
X68580000Y-115554000D01*
X68962684Y-115477880D01*
X69287107Y-115261107D01*
X69603499Y-114944715D01*
X69641154Y-115134017D01*
X69889195Y-115219119D01*
X70554315Y-114554000D01*
X70274264Y-114273949D01*
X70518213Y-114030000D01*
X71727371Y-114030000D01*
X71968528Y-114271157D01*
X71685685Y-114554000D01*
X72350805Y-115219119D01*
X72598846Y-115134017D01*
X72662446Y-114779323D01*
X72820778Y-114620992D01*
X76508891Y-118309104D01*
X76508893Y-118309107D01*
X76833317Y-118525880D01*
X77216000Y-118602000D01*
X86946136Y-118602000D01*
X87258849Y-118915260D01*
X87828333Y-119151730D01*
X88444961Y-119152268D01*
X89014857Y-118916792D01*
X89451260Y-118481151D01*
X89687730Y-117911667D01*
X89688268Y-117295039D01*
X89452792Y-116725143D01*
X89017151Y-116288740D01*
X88447667Y-116052270D01*
X87831039Y-116051732D01*
X87261143Y-116287208D01*
X86945800Y-116602000D01*
X84979699Y-116602000D01*
X85387260Y-116195151D01*
X85623730Y-115625667D01*
X85624268Y-115009039D01*
X85388792Y-114439143D01*
X84953151Y-114002740D01*
X84383667Y-113766270D01*
X83767039Y-113765732D01*
X83197143Y-114001208D01*
X82760740Y-114436849D01*
X82524270Y-115006333D01*
X82523732Y-115622961D01*
X82759208Y-116192857D01*
X83167637Y-116602000D01*
X80867130Y-116602000D01*
X81106016Y-116442382D01*
X81442013Y-115939525D01*
X81560000Y-115346366D01*
X81560000Y-115285634D01*
X81442013Y-114692475D01*
X81106016Y-114189618D01*
X80603159Y-113853621D01*
X80010000Y-113735634D01*
X79416841Y-113853621D01*
X78913984Y-114189618D01*
X78577987Y-114692475D01*
X78460000Y-115285634D01*
X78460000Y-115346366D01*
X78577987Y-115939525D01*
X78913984Y-116442382D01*
X79152870Y-116602000D01*
X77630213Y-116602000D01*
X73534214Y-112506000D01*
X78281539Y-112506000D01*
X78763410Y-112988713D01*
X79406376Y-113255696D01*
X80102569Y-113256304D01*
X80746001Y-112990443D01*
X81238713Y-112498590D01*
X81505696Y-111855624D01*
X81506304Y-111159431D01*
X81240443Y-110515999D01*
X80748590Y-110023287D01*
X80105624Y-109756304D01*
X79409431Y-109755696D01*
X78765999Y-110021557D01*
X78280710Y-110506000D01*
X72360284Y-110506000D01*
X72433260Y-110433151D01*
X72669730Y-109863667D01*
X72670268Y-109247039D01*
X72434792Y-108677143D01*
X71999151Y-108240740D01*
X71429667Y-108004270D01*
X70813039Y-108003732D01*
X70243143Y-108239208D01*
X69806740Y-108674849D01*
X69570270Y-109244333D01*
X69569732Y-109860961D01*
X69805208Y-110430857D01*
X69880220Y-110506000D01*
X68167130Y-110506000D01*
X68406016Y-110346382D01*
X68742013Y-109843525D01*
X68860000Y-109250366D01*
X68860000Y-109189634D01*
X68742013Y-108596475D01*
X68406016Y-108093618D01*
X67903159Y-107757621D01*
X67310000Y-107639634D01*
X66716841Y-107757621D01*
X66213984Y-108093618D01*
X66040000Y-108354004D01*
X65866016Y-108093618D01*
X65363159Y-107757621D01*
X65217990Y-107728745D01*
X65185880Y-107567317D01*
X65185880Y-107567316D01*
X64969107Y-107242893D01*
X64207107Y-106480893D01*
X64066295Y-106386805D01*
X65374881Y-106386805D01*
X65459983Y-106634846D01*
X66070064Y-106744239D01*
X66620017Y-106634846D01*
X66705119Y-106386805D01*
X66040000Y-105721685D01*
X65374881Y-106386805D01*
X64066295Y-106386805D01*
X63882684Y-106264120D01*
X63500000Y-106188000D01*
X62200144Y-106188000D01*
X62353260Y-106035151D01*
X62589730Y-105465667D01*
X62589973Y-105186064D01*
X64451761Y-105186064D01*
X64561154Y-105736017D01*
X64809195Y-105821119D01*
X65474315Y-105156000D01*
X66605685Y-105156000D01*
X67270805Y-105821119D01*
X67518846Y-105736017D01*
X67628239Y-105125936D01*
X67518846Y-104575983D01*
X67270805Y-104490881D01*
X66605685Y-105156000D01*
X65474315Y-105156000D01*
X64809195Y-104490881D01*
X64561154Y-104575983D01*
X64451761Y-105186064D01*
X62589973Y-105186064D01*
X62590268Y-104849039D01*
X62354792Y-104279143D01*
X62001463Y-103925195D01*
X65374881Y-103925195D01*
X66040000Y-104590315D01*
X66705119Y-103925195D01*
X66620017Y-103677154D01*
X66009936Y-103567761D01*
X65459983Y-103677154D01*
X65374881Y-103925195D01*
X62001463Y-103925195D01*
X61919151Y-103842740D01*
X61349667Y-103606270D01*
X60733039Y-103605732D01*
X60163143Y-103841208D01*
X59847800Y-104156000D01*
X58740213Y-104156000D01*
X58445107Y-103860893D01*
X58120684Y-103644120D01*
X57738000Y-103568000D01*
X54531864Y-103568000D01*
X54219151Y-103254740D01*
X53649667Y-103018270D01*
X53033039Y-103017732D01*
X52463143Y-103253208D01*
X52026740Y-103688849D01*
X51790270Y-104258333D01*
X51789732Y-104874961D01*
X52025208Y-105444857D01*
X52460849Y-105881260D01*
X53030333Y-106117730D01*
X53646961Y-106118268D01*
X54216857Y-105882792D01*
X54532200Y-105568000D01*
X57323786Y-105568000D01*
X57618891Y-105863104D01*
X57618893Y-105863107D01*
X57677101Y-105902000D01*
X57943316Y-106079880D01*
X58326000Y-106156001D01*
X58326005Y-106156000D01*
X59848136Y-106156000D01*
X59880080Y-106188000D01*
X57225749Y-106188000D01*
X57105774Y-106138182D01*
X56688058Y-106137818D01*
X56302000Y-106297334D01*
X56006372Y-106592446D01*
X55846182Y-106978226D01*
X55845818Y-107395942D01*
X56005334Y-107782000D01*
X56211406Y-107988432D01*
X56053984Y-108093618D01*
X55880000Y-108354004D01*
X55706016Y-108093618D01*
X55203159Y-107757621D01*
X54610000Y-107639634D01*
X54016841Y-107757621D01*
X53513984Y-108093618D01*
X53340000Y-108354004D01*
X53166016Y-108093618D01*
X52663159Y-107757621D01*
X52070000Y-107639634D01*
X51476841Y-107757621D01*
X50973984Y-108093618D01*
X50637987Y-108596475D01*
X50530000Y-109139361D01*
X50530000Y-103378000D01*
X50453880Y-102995317D01*
X50237107Y-102670893D01*
X49527681Y-101961467D01*
X49692013Y-101715525D01*
X49810000Y-101122366D01*
X49810000Y-101061634D01*
X49757720Y-100798805D01*
X52674881Y-100798805D01*
X52759983Y-101046846D01*
X53370064Y-101156239D01*
X53920017Y-101046846D01*
X54005119Y-100798805D01*
X53340000Y-100133685D01*
X52674881Y-100798805D01*
X49757720Y-100798805D01*
X49692013Y-100468475D01*
X49514000Y-100202059D01*
X49514000Y-99598064D01*
X51751761Y-99598064D01*
X51861154Y-100148017D01*
X52109195Y-100233119D01*
X52774315Y-99568000D01*
X53905685Y-99568000D01*
X54570805Y-100233119D01*
X54818846Y-100148017D01*
X54884117Y-99784000D01*
X57617307Y-99784000D01*
X57617307Y-101384000D01*
X57669604Y-101661933D01*
X57833862Y-101917198D01*
X58084492Y-102088446D01*
X58382000Y-102148693D01*
X59982000Y-102148693D01*
X60259933Y-102096396D01*
X60515198Y-101932138D01*
X60653950Y-101729068D01*
X61128841Y-102046379D01*
X61722000Y-102164366D01*
X62315159Y-102046379D01*
X62818016Y-101710382D01*
X62992000Y-101449996D01*
X63165984Y-101710382D01*
X63668841Y-102046379D01*
X64262000Y-102164366D01*
X64855159Y-102046379D01*
X65244000Y-101786565D01*
X65244000Y-101834002D01*
X65909939Y-101834002D01*
X66171369Y-102008665D01*
X66402000Y-101892737D01*
X66402000Y-100984000D01*
X67202000Y-100984000D01*
X67202000Y-101892737D01*
X67432631Y-102008665D01*
X67876912Y-101711838D01*
X68226694Y-101214635D01*
X68118307Y-100984000D01*
X67202000Y-100984000D01*
X66402000Y-100984000D01*
X66002000Y-100984000D01*
X66002000Y-100184000D01*
X66402000Y-100184000D01*
X66402000Y-99275263D01*
X67202000Y-99275263D01*
X67202000Y-100184000D01*
X68118307Y-100184000D01*
X68226694Y-99953365D01*
X67876912Y-99456162D01*
X67432631Y-99159335D01*
X67202000Y-99275263D01*
X66402000Y-99275263D01*
X66171369Y-99159335D01*
X65909939Y-99333998D01*
X65244000Y-99333998D01*
X65244000Y-99381435D01*
X64855159Y-99121621D01*
X64262000Y-99003634D01*
X63668841Y-99121621D01*
X63165984Y-99457618D01*
X62992000Y-99718004D01*
X62818016Y-99457618D01*
X62315159Y-99121621D01*
X61722000Y-99003634D01*
X61128841Y-99121621D01*
X60652024Y-99440219D01*
X60530138Y-99250802D01*
X60279508Y-99079554D01*
X59982000Y-99019307D01*
X58382000Y-99019307D01*
X58104067Y-99071604D01*
X57848802Y-99235862D01*
X57677554Y-99486492D01*
X57617307Y-99784000D01*
X54884117Y-99784000D01*
X54928239Y-99537936D01*
X54818846Y-98987983D01*
X54570805Y-98902881D01*
X53905685Y-99568000D01*
X52774315Y-99568000D01*
X52109195Y-98902881D01*
X51861154Y-98987983D01*
X51751761Y-99598064D01*
X49514000Y-99598064D01*
X49514000Y-98298000D01*
X49437880Y-97915317D01*
X49221107Y-97590893D01*
X49221104Y-97590891D01*
X46796214Y-95166000D01*
X50967307Y-95166000D01*
X50967307Y-97366000D01*
X51019604Y-97643933D01*
X51183862Y-97899198D01*
X51434492Y-98070446D01*
X51732000Y-98130693D01*
X52745731Y-98130693D01*
X52674881Y-98337195D01*
X53340000Y-99002315D01*
X54005119Y-98337195D01*
X53934131Y-98130292D01*
X54209933Y-98078396D01*
X54465198Y-97914138D01*
X54636446Y-97663508D01*
X54696693Y-97366000D01*
X54696693Y-95166000D01*
X54644396Y-94888067D01*
X54480138Y-94632802D01*
X54229508Y-94461554D01*
X53932000Y-94401307D01*
X51732000Y-94401307D01*
X51454067Y-94453604D01*
X51198802Y-94617862D01*
X51027554Y-94868492D01*
X50967307Y-95166000D01*
X46796214Y-95166000D01*
X45224849Y-93594635D01*
X57757306Y-93594635D01*
X58107088Y-94091838D01*
X58551369Y-94388665D01*
X58782000Y-94272737D01*
X58782000Y-93364000D01*
X57865693Y-93364000D01*
X57757306Y-93594635D01*
X45224849Y-93594635D01*
X44942000Y-93311786D01*
X44942000Y-92333365D01*
X57757306Y-92333365D01*
X57865693Y-92564000D01*
X58782000Y-92564000D01*
X58782000Y-91655263D01*
X59582000Y-91655263D01*
X59582000Y-92564000D01*
X59982000Y-92564000D01*
X59982000Y-93364000D01*
X59582000Y-93364000D01*
X59582000Y-94272737D01*
X59812631Y-94388665D01*
X60074061Y-94214002D01*
X60740000Y-94214002D01*
X60740000Y-94166565D01*
X61128841Y-94426379D01*
X61722000Y-94544366D01*
X62315159Y-94426379D01*
X62818016Y-94090382D01*
X62992000Y-93829996D01*
X63165984Y-94090382D01*
X63668841Y-94426379D01*
X64262000Y-94544366D01*
X64855159Y-94426379D01*
X65358016Y-94090382D01*
X65532000Y-93829996D01*
X65705984Y-94090382D01*
X66208841Y-94426379D01*
X66802000Y-94544366D01*
X67395159Y-94426379D01*
X67898016Y-94090382D01*
X68234013Y-93587525D01*
X68352000Y-92994366D01*
X68352000Y-92933634D01*
X68234013Y-92340475D01*
X67898016Y-91837618D01*
X67395159Y-91501621D01*
X66802000Y-91383634D01*
X66208841Y-91501621D01*
X65705984Y-91837618D01*
X65532000Y-92098004D01*
X65358016Y-91837618D01*
X64855159Y-91501621D01*
X64262000Y-91383634D01*
X63668841Y-91501621D01*
X63165984Y-91837618D01*
X62992000Y-92098004D01*
X62818016Y-91837618D01*
X62315159Y-91501621D01*
X61722000Y-91383634D01*
X61128841Y-91501621D01*
X60740000Y-91761435D01*
X60740000Y-91713998D01*
X60074061Y-91713998D01*
X59812631Y-91539335D01*
X59582000Y-91655263D01*
X58782000Y-91655263D01*
X58551369Y-91539335D01*
X58107088Y-91836162D01*
X57757306Y-92333365D01*
X44942000Y-92333365D01*
X44942000Y-89583864D01*
X45255260Y-89271151D01*
X45491730Y-88701667D01*
X45492268Y-88085039D01*
X45256792Y-87515143D01*
X44821151Y-87078740D01*
X44251667Y-86842270D01*
X43635039Y-86841732D01*
X43065143Y-87077208D01*
X42628740Y-87512849D01*
X42392270Y-88082333D01*
X42391732Y-88698961D01*
X42627208Y-89268857D01*
X42942000Y-89584200D01*
X42942000Y-93726000D01*
X43018120Y-94108684D01*
X43234893Y-94433107D01*
X47514000Y-98712213D01*
X47514000Y-99731746D01*
X47163984Y-99965618D01*
X46827987Y-100468475D01*
X46710000Y-101061634D01*
X46710000Y-101122366D01*
X46827987Y-101715525D01*
X47163984Y-102218382D01*
X47300039Y-102309291D01*
X47322518Y-102422300D01*
X46736000Y-102305634D01*
X46142841Y-102423621D01*
X45639984Y-102759618D01*
X45303987Y-103262475D01*
X45186000Y-103855634D01*
X45186000Y-103916366D01*
X45303987Y-104509525D01*
X45639984Y-105012382D01*
X46142841Y-105348379D01*
X46736000Y-105466366D01*
X47329159Y-105348379D01*
X47832016Y-105012382D01*
X48168013Y-104509525D01*
X48286000Y-103916366D01*
X48286000Y-103855634D01*
X48209666Y-103471880D01*
X48530000Y-103792214D01*
X48530000Y-113030000D01*
X48606120Y-113412684D01*
X48822893Y-113737107D01*
X50346891Y-115261104D01*
X50346893Y-115261107D01*
X50671317Y-115477880D01*
X50737937Y-115491132D01*
X50736802Y-115491862D01*
X50565554Y-115742492D01*
X50505307Y-116040000D01*
X50505307Y-117640000D01*
X50557604Y-117917933D01*
X50721862Y-118173198D01*
X50972492Y-118344446D01*
X51148063Y-118380000D01*
X46896214Y-118380000D01*
X46802992Y-118286778D01*
X46952643Y-118137126D01*
X47316017Y-118064846D01*
X47401119Y-117816805D01*
X46736000Y-117151685D01*
X46453157Y-117434528D01*
X45887472Y-116868843D01*
X46170315Y-116586000D01*
X47301685Y-116586000D01*
X47966805Y-117251119D01*
X48214846Y-117166017D01*
X48324239Y-116555936D01*
X48214846Y-116005983D01*
X47966805Y-115920881D01*
X47301685Y-116586000D01*
X46170315Y-116586000D01*
X45505195Y-115920881D01*
X45450000Y-115939818D01*
X45450000Y-115355195D01*
X46070881Y-115355195D01*
X46736000Y-116020315D01*
X47401119Y-115355195D01*
X47316017Y-115107154D01*
X46705936Y-114997761D01*
X46155983Y-115107154D01*
X46070881Y-115355195D01*
X45450000Y-115355195D01*
X45450000Y-106426005D01*
X45450001Y-106426000D01*
X45373880Y-106043316D01*
X45157107Y-105718893D01*
X44041419Y-104603205D01*
X44104013Y-104509525D01*
X44222000Y-103916366D01*
X44222000Y-103855634D01*
X44104013Y-103262475D01*
X43768016Y-102759618D01*
X43568145Y-102626069D01*
X43591556Y-102602658D01*
X43942000Y-102672366D01*
X44535159Y-102554379D01*
X45038016Y-102218382D01*
X45374013Y-101715525D01*
X45492000Y-101122366D01*
X45492000Y-101061634D01*
X45374013Y-100468475D01*
X45038016Y-99965618D01*
X44535159Y-99629621D01*
X43942000Y-99511634D01*
X43348841Y-99629621D01*
X42845984Y-99965618D01*
X42509987Y-100468475D01*
X42413813Y-100951973D01*
X42003786Y-101362000D01*
X41075810Y-101362000D01*
X41174000Y-100868366D01*
X41174000Y-100807634D01*
X41056013Y-100214475D01*
X40720016Y-99711618D01*
X40217159Y-99375621D01*
X39624000Y-99257634D01*
X39030841Y-99375621D01*
X38527984Y-99711618D01*
X38191987Y-100214475D01*
X38074000Y-100807634D01*
X38074000Y-100868366D01*
X38172190Y-101362000D01*
X36503810Y-101362000D01*
X36602000Y-100868366D01*
X36602000Y-100807634D01*
X36484013Y-100214475D01*
X36148016Y-99711618D01*
X36052000Y-99647462D01*
X36052000Y-93472000D01*
X35975880Y-93089317D01*
X35759107Y-92764893D01*
X35759104Y-92764891D01*
X31894214Y-88900000D01*
X32349253Y-88444961D01*
X33501732Y-88444961D01*
X33737208Y-89014857D01*
X34172849Y-89451260D01*
X34742333Y-89687730D01*
X35358961Y-89688268D01*
X35928857Y-89452792D01*
X36365260Y-89017151D01*
X36601730Y-88447667D01*
X36601732Y-88444961D01*
X38073732Y-88444961D01*
X38309208Y-89014857D01*
X38744849Y-89451260D01*
X39314333Y-89687730D01*
X39930961Y-89688268D01*
X40500857Y-89452792D01*
X40937260Y-89017151D01*
X41173730Y-88447667D01*
X41174268Y-87831039D01*
X40938792Y-87261143D01*
X40503151Y-86824740D01*
X39933667Y-86588270D01*
X39317039Y-86587732D01*
X38747143Y-86823208D01*
X38310740Y-87258849D01*
X38074270Y-87828333D01*
X38073732Y-88444961D01*
X36601732Y-88444961D01*
X36602268Y-87831039D01*
X36366792Y-87261143D01*
X35931151Y-86824740D01*
X35361667Y-86588270D01*
X34745039Y-86587732D01*
X34175143Y-86823208D01*
X33738740Y-87258849D01*
X33502270Y-87828333D01*
X33501732Y-88444961D01*
X32349253Y-88444961D01*
X33219107Y-87575107D01*
X33435880Y-87250684D01*
X33512000Y-86868000D01*
X33512000Y-85171500D01*
X38574000Y-85171500D01*
X38574000Y-85532776D01*
X38689399Y-85811373D01*
X38902628Y-86024602D01*
X39181225Y-86140000D01*
X39542500Y-86140000D01*
X39732000Y-85950500D01*
X39732000Y-84982000D01*
X40532000Y-84982000D01*
X40532000Y-85950500D01*
X40721500Y-86140000D01*
X41082775Y-86140000D01*
X41361372Y-86024602D01*
X41574601Y-85811373D01*
X41690000Y-85532776D01*
X41690000Y-85171500D01*
X41500500Y-84982000D01*
X40532000Y-84982000D01*
X39732000Y-84982000D01*
X38763500Y-84982000D01*
X38574000Y-85171500D01*
X33512000Y-85171500D01*
X33512000Y-84244000D01*
X44617307Y-84244000D01*
X44617307Y-86444000D01*
X44669604Y-86721933D01*
X44833862Y-86977198D01*
X45084492Y-87148446D01*
X45382000Y-87208693D01*
X47251428Y-87208693D01*
X46946740Y-87512849D01*
X46710270Y-88082333D01*
X46709732Y-88698961D01*
X46945208Y-89268857D01*
X47380849Y-89705260D01*
X47950333Y-89941730D01*
X48566961Y-89942268D01*
X49136857Y-89706792D01*
X49573260Y-89271151D01*
X49809730Y-88701667D01*
X49810268Y-88085039D01*
X49574792Y-87515143D01*
X49139151Y-87078740D01*
X48569667Y-86842270D01*
X48217808Y-86841963D01*
X48286446Y-86741508D01*
X48346693Y-86444000D01*
X48346693Y-84244000D01*
X48294396Y-83966067D01*
X48130138Y-83710802D01*
X47879508Y-83539554D01*
X47582000Y-83479307D01*
X45382000Y-83479307D01*
X45104067Y-83531604D01*
X44848802Y-83695862D01*
X44677554Y-83946492D01*
X44617307Y-84244000D01*
X33512000Y-84244000D01*
X33512000Y-83631224D01*
X38574000Y-83631224D01*
X38574000Y-83992500D01*
X38763500Y-84182000D01*
X39732000Y-84182000D01*
X39732000Y-83213500D01*
X40532000Y-83213500D01*
X40532000Y-84182000D01*
X41500500Y-84182000D01*
X41690000Y-83992500D01*
X41690000Y-83631224D01*
X41574601Y-83352627D01*
X41361372Y-83139398D01*
X41082775Y-83024000D01*
X40721500Y-83024000D01*
X40532000Y-83213500D01*
X39732000Y-83213500D01*
X39542500Y-83024000D01*
X39181225Y-83024000D01*
X38902628Y-83139398D01*
X38689399Y-83352627D01*
X38574000Y-83631224D01*
X33512000Y-83631224D01*
X33512000Y-81948214D01*
X35571253Y-79888961D01*
X38581732Y-79888961D01*
X38817208Y-80458857D01*
X39252849Y-80895260D01*
X39822333Y-81131730D01*
X40438961Y-81132268D01*
X41008857Y-80896792D01*
X41445260Y-80461151D01*
X41681730Y-79891667D01*
X41682268Y-79275039D01*
X41446792Y-78705143D01*
X41011151Y-78268740D01*
X40441667Y-78032270D01*
X39825039Y-78031732D01*
X39255143Y-78267208D01*
X38818740Y-78702849D01*
X38582270Y-79272333D01*
X38581732Y-79888961D01*
X35571253Y-79888961D01*
X39022214Y-76438000D01*
X40719462Y-76438000D01*
X40783618Y-76534016D01*
X41286475Y-76870013D01*
X41879634Y-76988000D01*
X41940366Y-76988000D01*
X42533525Y-76870013D01*
X43036382Y-76534016D01*
X43372379Y-76031159D01*
X43490366Y-75438000D01*
X43372379Y-74844841D01*
X43079156Y-74406000D01*
X53449856Y-74406000D01*
X53296740Y-74558849D01*
X53060270Y-75128333D01*
X53059881Y-75573905D01*
X48520723Y-80113063D01*
X48384138Y-79900802D01*
X48133508Y-79729554D01*
X47836000Y-79669307D01*
X45636000Y-79669307D01*
X45358067Y-79721604D01*
X45102802Y-79885862D01*
X44931554Y-80136492D01*
X44871307Y-80434000D01*
X44871307Y-82634000D01*
X44923604Y-82911933D01*
X45087862Y-83167198D01*
X45338492Y-83338446D01*
X45636000Y-83398693D01*
X47836000Y-83398693D01*
X48113933Y-83346396D01*
X48369198Y-83182138D01*
X48540446Y-82931508D01*
X48600693Y-82634000D01*
X48600693Y-82516756D01*
X48896684Y-82457880D01*
X49221107Y-82241107D01*
X53831762Y-77630452D01*
X57696655Y-77630452D01*
X57812759Y-77886448D01*
X58504358Y-77990455D01*
X59027241Y-77886448D01*
X59143345Y-77630452D01*
X58420000Y-76907107D01*
X57696655Y-77630452D01*
X53831762Y-77630452D01*
X54474332Y-76987882D01*
X54916961Y-76988268D01*
X55486857Y-76752792D01*
X55923260Y-76317151D01*
X55936876Y-76284358D01*
X56629545Y-76284358D01*
X56733552Y-76807241D01*
X56989548Y-76923345D01*
X57712893Y-76200000D01*
X59127107Y-76200000D01*
X59850452Y-76923345D01*
X60106448Y-76807241D01*
X60210455Y-76115642D01*
X60106448Y-75592759D01*
X59850452Y-75476655D01*
X59127107Y-76200000D01*
X57712893Y-76200000D01*
X56989548Y-75476655D01*
X56733552Y-75592759D01*
X56629545Y-76284358D01*
X55936876Y-76284358D01*
X56159730Y-75747667D01*
X56160268Y-75131039D01*
X56010904Y-74769548D01*
X57696655Y-74769548D01*
X58420000Y-75492893D01*
X59143345Y-74769548D01*
X59027241Y-74513552D01*
X58335642Y-74409545D01*
X57812759Y-74513552D01*
X57696655Y-74769548D01*
X56010904Y-74769548D01*
X55924792Y-74561143D01*
X55514977Y-74150612D01*
X55571107Y-74113107D01*
X57679578Y-72004635D01*
X62075306Y-72004635D01*
X62425088Y-72501838D01*
X62869369Y-72798665D01*
X63100000Y-72682737D01*
X63100000Y-71774000D01*
X62183693Y-71774000D01*
X62075306Y-72004635D01*
X57679578Y-72004635D01*
X58084505Y-71599708D01*
X58766569Y-71600304D01*
X59410001Y-71334443D01*
X59902713Y-70842590D01*
X59943914Y-70743365D01*
X62075306Y-70743365D01*
X62183693Y-70974000D01*
X63100000Y-70974000D01*
X63100000Y-70065263D01*
X63900000Y-70065263D01*
X63900000Y-70974000D01*
X64300000Y-70974000D01*
X64300000Y-71774000D01*
X63900000Y-71774000D01*
X63900000Y-72682737D01*
X64130631Y-72798665D01*
X64392061Y-72624002D01*
X65058000Y-72624002D01*
X65058000Y-72576565D01*
X65446841Y-72836379D01*
X66040000Y-72954366D01*
X66633159Y-72836379D01*
X67136016Y-72500382D01*
X67310000Y-72239996D01*
X67483984Y-72500382D01*
X67986841Y-72836379D01*
X68580000Y-72954366D01*
X69173159Y-72836379D01*
X69676016Y-72500382D01*
X69850000Y-72239996D01*
X70023984Y-72500382D01*
X70526841Y-72836379D01*
X71120000Y-72954366D01*
X71713159Y-72836379D01*
X72216016Y-72500382D01*
X72552013Y-71997525D01*
X72670000Y-71404366D01*
X72670000Y-71343634D01*
X72552013Y-70750475D01*
X72216016Y-70247618D01*
X71713159Y-69911621D01*
X71120000Y-69793634D01*
X70526841Y-69911621D01*
X70023984Y-70247618D01*
X69850000Y-70508004D01*
X69676016Y-70247618D01*
X69173159Y-69911621D01*
X68580000Y-69793634D01*
X67986841Y-69911621D01*
X67483984Y-70247618D01*
X67310000Y-70508004D01*
X67136016Y-70247618D01*
X66633159Y-69911621D01*
X66040000Y-69793634D01*
X65446841Y-69911621D01*
X65058000Y-70171435D01*
X65058000Y-70123998D01*
X64392061Y-70123998D01*
X64130631Y-69949335D01*
X63900000Y-70065263D01*
X63100000Y-70065263D01*
X62869369Y-69949335D01*
X62425088Y-70246162D01*
X62075306Y-70743365D01*
X59943914Y-70743365D01*
X60169696Y-70199624D01*
X60170304Y-69503431D01*
X59904443Y-68859999D01*
X59412590Y-68367287D01*
X58769624Y-68100304D01*
X58073431Y-68099696D01*
X57429999Y-68365557D01*
X56937287Y-68857410D01*
X56670304Y-69500376D01*
X56669705Y-70186082D01*
X55438359Y-71417428D01*
X55339421Y-70920036D01*
X54938392Y-70319852D01*
X54338208Y-69918823D01*
X53992212Y-69850000D01*
X54338208Y-69781177D01*
X54938392Y-69380148D01*
X55339421Y-68779964D01*
X55480244Y-68072000D01*
X55339421Y-67364036D01*
X54938392Y-66763852D01*
X54338208Y-66362823D01*
X54258465Y-66346961D01*
X61441732Y-66346961D01*
X61677208Y-66916857D01*
X62112849Y-67353260D01*
X62682333Y-67589730D01*
X63298961Y-67590268D01*
X63868857Y-67354792D01*
X64305260Y-66919151D01*
X64541730Y-66349667D01*
X64541732Y-66346961D01*
X66441732Y-66346961D01*
X66677208Y-66916857D01*
X67112849Y-67353260D01*
X67682333Y-67589730D01*
X68298961Y-67590268D01*
X68868857Y-67354792D01*
X69305260Y-66919151D01*
X69541730Y-66349667D01*
X69542268Y-65733039D01*
X69306792Y-65163143D01*
X68871151Y-64726740D01*
X68301667Y-64490270D01*
X67685039Y-64489732D01*
X67115143Y-64725208D01*
X66678740Y-65160849D01*
X66442270Y-65730333D01*
X66441732Y-66346961D01*
X64541732Y-66346961D01*
X64542268Y-65733039D01*
X64306792Y-65163143D01*
X63871151Y-64726740D01*
X63301667Y-64490270D01*
X62685039Y-64489732D01*
X62115143Y-64725208D01*
X61678740Y-65160849D01*
X61442270Y-65730333D01*
X61441732Y-66346961D01*
X54258465Y-66346961D01*
X53630244Y-66222000D01*
X53557756Y-66222000D01*
X52849792Y-66362823D01*
X52249608Y-66763852D01*
X51848579Y-67364036D01*
X51707756Y-68072000D01*
X51848579Y-68779964D01*
X52249608Y-69380148D01*
X52849792Y-69781177D01*
X53195788Y-69850000D01*
X52849792Y-69918823D01*
X52249608Y-70319852D01*
X51848579Y-70920036D01*
X51707756Y-71628000D01*
X51848579Y-72335964D01*
X51895375Y-72406000D01*
X45298693Y-72406000D01*
X45298693Y-70528000D01*
X45246396Y-70250067D01*
X45082138Y-69994802D01*
X44867872Y-69848400D01*
X45067198Y-69720138D01*
X45238446Y-69469508D01*
X45298693Y-69172000D01*
X45298693Y-66972000D01*
X45246396Y-66694067D01*
X45082138Y-66438802D01*
X44831508Y-66267554D01*
X44534000Y-66207307D01*
X42983521Y-66207307D01*
X42656000Y-65879786D01*
X42656000Y-63462000D01*
X44155307Y-63462000D01*
X44155307Y-65062000D01*
X44207604Y-65339933D01*
X44371862Y-65595198D01*
X44622492Y-65766446D01*
X44920000Y-65826693D01*
X46520000Y-65826693D01*
X46797933Y-65774396D01*
X47053198Y-65610138D01*
X47191950Y-65407068D01*
X47666841Y-65724379D01*
X48260000Y-65842366D01*
X48853159Y-65724379D01*
X49356016Y-65388382D01*
X49530000Y-65127996D01*
X49703984Y-65388382D01*
X50206841Y-65724379D01*
X50800000Y-65842366D01*
X51393159Y-65724379D01*
X51896016Y-65388382D01*
X52070000Y-65127996D01*
X52243984Y-65388382D01*
X52746841Y-65724379D01*
X53340000Y-65842366D01*
X53933159Y-65724379D01*
X54436016Y-65388382D01*
X54772013Y-64885525D01*
X54890000Y-64292366D01*
X54890000Y-64231634D01*
X54772013Y-63638475D01*
X54436016Y-63135618D01*
X53933159Y-62799621D01*
X53340000Y-62681634D01*
X52746841Y-62799621D01*
X52243984Y-63135618D01*
X52070000Y-63396004D01*
X51896016Y-63135618D01*
X51393159Y-62799621D01*
X50800000Y-62681634D01*
X50206841Y-62799621D01*
X49703984Y-63135618D01*
X49530000Y-63396004D01*
X49356016Y-63135618D01*
X48853159Y-62799621D01*
X48260000Y-62681634D01*
X47666841Y-62799621D01*
X47190024Y-63118219D01*
X47068138Y-62928802D01*
X46817508Y-62757554D01*
X46520000Y-62697307D01*
X44920000Y-62697307D01*
X44642067Y-62749604D01*
X44386802Y-62913862D01*
X44215554Y-63164492D01*
X44155307Y-63462000D01*
X42656000Y-63462000D01*
X42656000Y-62404538D01*
X42752016Y-62340382D01*
X43088013Y-61837525D01*
X43116370Y-61694961D01*
X57885732Y-61694961D01*
X58121208Y-62264857D01*
X58556849Y-62701260D01*
X59126333Y-62937730D01*
X59742961Y-62938268D01*
X60312857Y-62702792D01*
X60749260Y-62267151D01*
X60985730Y-61697667D01*
X60986268Y-61081039D01*
X60750792Y-60511143D01*
X60315151Y-60074740D01*
X59745667Y-59838270D01*
X59129039Y-59837732D01*
X58559143Y-60073208D01*
X58122740Y-60508849D01*
X57886270Y-61078333D01*
X57885732Y-61694961D01*
X43116370Y-61694961D01*
X43206000Y-61244366D01*
X43206000Y-61183634D01*
X43088013Y-60590475D01*
X42752016Y-60087618D01*
X42656000Y-60023462D01*
X42656000Y-55880005D01*
X42656001Y-55880000D01*
X42579880Y-55497316D01*
X42363107Y-55172893D01*
X39569107Y-52378893D01*
X39244684Y-52162120D01*
X38862000Y-52086000D01*
X37965345Y-52086000D01*
X37686463Y-51806630D01*
X37131675Y-51576262D01*
X36988350Y-51576137D01*
X36013107Y-50600893D01*
X35688684Y-50384120D01*
X35306000Y-50308000D01*
X32904949Y-50308000D01*
X33318000Y-50137331D01*
X33909255Y-49547107D01*
X34229634Y-48775548D01*
X34230363Y-47940117D01*
X33911331Y-47168000D01*
X33321107Y-46576745D01*
X32549548Y-46256366D01*
X31714117Y-46255637D01*
X30942000Y-46574669D01*
X30350745Y-47164893D01*
X30030366Y-47936452D01*
X30029637Y-48771883D01*
X30348669Y-49544000D01*
X30938893Y-50135255D01*
X31354910Y-50308000D01*
X29539749Y-50308000D01*
X29419774Y-50258182D01*
X29002058Y-50257818D01*
X28616000Y-50417334D01*
X28320372Y-50712446D01*
X28160182Y-51098226D01*
X28159818Y-51515942D01*
X28319334Y-51902000D01*
X28614446Y-52197628D01*
X29000226Y-52357818D01*
X29417942Y-52358182D01*
X29539392Y-52308000D01*
X33434992Y-52308000D01*
X33328893Y-52378893D01*
X32312893Y-53394893D01*
X32096120Y-53719316D01*
X32096120Y-53719317D01*
X32020000Y-54102000D01*
X32020000Y-57658000D01*
X32096120Y-58040684D01*
X32240054Y-58256096D01*
X31714117Y-58255637D01*
X30942000Y-58574669D01*
X30350745Y-59164893D01*
X30030366Y-59936452D01*
X30029637Y-60771883D01*
X30348669Y-61544000D01*
X30795888Y-61992000D01*
X29370214Y-61992000D01*
X27162000Y-59783786D01*
X27162000Y-42354882D01*
X29691555Y-41265769D01*
X31296893Y-42871107D01*
X31621316Y-43087880D01*
X32004000Y-43164001D01*
X32004005Y-43164000D01*
X36686301Y-43164000D01*
X36278740Y-43570849D01*
X36042270Y-44140333D01*
X36041732Y-44756961D01*
X36277208Y-45326857D01*
X36712849Y-45763260D01*
X37282333Y-45999730D01*
X37898961Y-46000268D01*
X38468857Y-45764792D01*
X38905260Y-45329151D01*
X39128835Y-44790722D01*
X39241316Y-44865880D01*
X39624000Y-44942001D01*
X39624005Y-44942000D01*
X41495786Y-44942000D01*
X45990000Y-49436214D01*
X45990000Y-51054000D01*
X46066120Y-51436684D01*
X46282893Y-51761107D01*
X48314893Y-53793107D01*
X48639316Y-54009880D01*
X49022000Y-54086000D01*
X51401786Y-54086000D01*
X52340000Y-55024213D01*
X52340000Y-55451462D01*
X52243984Y-55515618D01*
X52070000Y-55776004D01*
X51896016Y-55515618D01*
X51393159Y-55179621D01*
X50800000Y-55061634D01*
X50206841Y-55179621D01*
X49703984Y-55515618D01*
X49530000Y-55776004D01*
X49356016Y-55515618D01*
X48853159Y-55179621D01*
X48260000Y-55061634D01*
X47666841Y-55179621D01*
X47163984Y-55515618D01*
X46990000Y-55776004D01*
X46816016Y-55515618D01*
X46313159Y-55179621D01*
X45720000Y-55061634D01*
X45126841Y-55179621D01*
X44688000Y-55472844D01*
X44688000Y-54610000D01*
X44633587Y-54336446D01*
X44611880Y-54227316D01*
X44395107Y-53902893D01*
X42656000Y-52163786D01*
X42656000Y-49705864D01*
X42969260Y-49393151D01*
X43205730Y-48823667D01*
X43206268Y-48207039D01*
X42970792Y-47637143D01*
X42535151Y-47200740D01*
X41965667Y-46964270D01*
X41349039Y-46963732D01*
X40779143Y-47199208D01*
X40342740Y-47634849D01*
X40106270Y-48204333D01*
X40105732Y-48820961D01*
X40341208Y-49390857D01*
X40656000Y-49706200D01*
X40656000Y-52578000D01*
X40732120Y-52960684D01*
X40948893Y-53285107D01*
X42688000Y-55024214D01*
X42688000Y-58928000D01*
X42764120Y-59310684D01*
X42980893Y-59635107D01*
X43488891Y-60143104D01*
X43488893Y-60143107D01*
X43813317Y-60359880D01*
X44196000Y-60436000D01*
X50546000Y-60436000D01*
X50928684Y-60359880D01*
X51253107Y-60143107D01*
X52375645Y-59020569D01*
X63527696Y-59020569D01*
X63793557Y-59664001D01*
X64285410Y-60156713D01*
X64928376Y-60423696D01*
X65624569Y-60424304D01*
X66268001Y-60158443D01*
X66760713Y-59666590D01*
X67027696Y-59023624D01*
X67028304Y-58327431D01*
X66762443Y-57683999D01*
X66270590Y-57191287D01*
X65627624Y-56924304D01*
X64931431Y-56923696D01*
X64287999Y-57189557D01*
X63795287Y-57681410D01*
X63528304Y-58324376D01*
X63527696Y-59020569D01*
X52375645Y-59020569D01*
X53201414Y-58194800D01*
X53340000Y-58222366D01*
X53933159Y-58104379D01*
X54436016Y-57768382D01*
X54772013Y-57265525D01*
X54885505Y-56694961D01*
X57885732Y-56694961D01*
X58121208Y-57264857D01*
X58556849Y-57701260D01*
X59126333Y-57937730D01*
X59742961Y-57938268D01*
X60312857Y-57702792D01*
X60749260Y-57267151D01*
X60985730Y-56697667D01*
X60986268Y-56081039D01*
X60750792Y-55511143D01*
X60315151Y-55074740D01*
X59745667Y-54838270D01*
X59129039Y-54837732D01*
X58559143Y-55073208D01*
X58122740Y-55508849D01*
X57886270Y-56078333D01*
X57885732Y-56694961D01*
X54885505Y-56694961D01*
X54890000Y-56672366D01*
X54890000Y-56611634D01*
X54772013Y-56018475D01*
X54436016Y-55515618D01*
X54340000Y-55451462D01*
X54340000Y-54610000D01*
X54263880Y-54227317D01*
X54047107Y-53902893D01*
X54047104Y-53902891D01*
X52630633Y-52486419D01*
X52705628Y-52411554D01*
X52863232Y-52032000D01*
X57109307Y-52032000D01*
X57109307Y-53632000D01*
X57161604Y-53909933D01*
X57325862Y-54165198D01*
X57576492Y-54336446D01*
X57874000Y-54396693D01*
X59474000Y-54396693D01*
X59751933Y-54344396D01*
X60007198Y-54180138D01*
X60145950Y-53977068D01*
X60620841Y-54294379D01*
X61104339Y-54390553D01*
X62538893Y-55825107D01*
X62863316Y-56041880D01*
X63246000Y-56118000D01*
X68834000Y-56118000D01*
X69216684Y-56041880D01*
X69541107Y-55825107D01*
X73392214Y-51974000D01*
X85549786Y-51974000D01*
X85144893Y-52378893D01*
X84928120Y-52703316D01*
X84905706Y-52816000D01*
X84852000Y-53086000D01*
X84852000Y-56070225D01*
X84767177Y-55643792D01*
X84366148Y-55043608D01*
X83765964Y-54642579D01*
X83058000Y-54501756D01*
X82350036Y-54642579D01*
X81749852Y-55043608D01*
X81348823Y-55643792D01*
X81208000Y-56351756D01*
X81208000Y-56424244D01*
X81348823Y-57132208D01*
X81749852Y-57732392D01*
X82350036Y-58133421D01*
X83058000Y-58274244D01*
X83765964Y-58133421D01*
X84366148Y-57732392D01*
X84767177Y-57132208D01*
X84852000Y-56705775D01*
X84852000Y-63824915D01*
X84709508Y-63727554D01*
X84412000Y-63667307D01*
X82212000Y-63667307D01*
X81934067Y-63719604D01*
X81678802Y-63883862D01*
X81507554Y-64134492D01*
X81447307Y-64432000D01*
X81447307Y-66632000D01*
X81499604Y-66909933D01*
X81663862Y-67165198D01*
X81914492Y-67336446D01*
X82212000Y-67396693D01*
X84412000Y-67396693D01*
X84689933Y-67344396D01*
X84945198Y-67180138D01*
X85116446Y-66929508D01*
X85165426Y-66687640D01*
X86192882Y-67715096D01*
X86138348Y-67846430D01*
X86137654Y-68642079D01*
X86441494Y-69377429D01*
X87003612Y-69940529D01*
X87738430Y-70245652D01*
X88534079Y-70246346D01*
X89269429Y-69942506D01*
X89832529Y-69380388D01*
X90137652Y-68645570D01*
X90138346Y-67849921D01*
X89834506Y-67114571D01*
X89272388Y-66551471D01*
X88868370Y-66383708D01*
X88845107Y-66348893D01*
X88520683Y-66132120D01*
X88138000Y-66056000D01*
X87755317Y-66132120D01*
X87565300Y-66259086D01*
X86852000Y-65545786D01*
X86852000Y-64788652D01*
X87003612Y-64940529D01*
X87738430Y-65245652D01*
X88534079Y-65246346D01*
X89269429Y-64942506D01*
X89832529Y-64380388D01*
X90137652Y-63645570D01*
X90138346Y-62849921D01*
X89834506Y-62114571D01*
X89272388Y-61551471D01*
X88537570Y-61246348D01*
X87741921Y-61245654D01*
X87006571Y-61549494D01*
X86852000Y-61703795D01*
X86852000Y-57516652D01*
X87003612Y-57668529D01*
X87738430Y-57973652D01*
X88534079Y-57974346D01*
X89269429Y-57670506D01*
X89832529Y-57108388D01*
X90137652Y-56373570D01*
X90138346Y-55577921D01*
X89834506Y-54842571D01*
X89272388Y-54279471D01*
X88537570Y-53974348D01*
X87741921Y-53973654D01*
X87006571Y-54277494D01*
X86852000Y-54431795D01*
X86852000Y-53500214D01*
X87484149Y-52868065D01*
X87738430Y-52973652D01*
X88534079Y-52974346D01*
X89269429Y-52670506D01*
X89832529Y-52108388D01*
X90137652Y-51373570D01*
X90138346Y-50577921D01*
X89834506Y-49842571D01*
X89272388Y-49279471D01*
X88537570Y-48974348D01*
X87741921Y-48973654D01*
X87006571Y-49277494D01*
X86443471Y-49839612D01*
X86387668Y-49974000D01*
X84901227Y-49974000D01*
X84922693Y-49868000D01*
X84922693Y-47668000D01*
X84870396Y-47390067D01*
X84706138Y-47134802D01*
X84455508Y-46963554D01*
X84158000Y-46903307D01*
X81958000Y-46903307D01*
X81680067Y-46955604D01*
X81424802Y-47119862D01*
X81253554Y-47370492D01*
X81193307Y-47668000D01*
X81193307Y-49868000D01*
X81213252Y-49974000D01*
X79773426Y-49974000D01*
X80124857Y-49828792D01*
X80561260Y-49393151D01*
X80797730Y-48823667D01*
X80798268Y-48207039D01*
X80562792Y-47637143D01*
X80127151Y-47200740D01*
X79557667Y-46964270D01*
X78941039Y-46963732D01*
X78371143Y-47199208D01*
X77934740Y-47634849D01*
X77698270Y-48204333D01*
X77697732Y-48820961D01*
X77933208Y-49390857D01*
X78368849Y-49827260D01*
X78722239Y-49974000D01*
X75963426Y-49974000D01*
X76314857Y-49828792D01*
X76751260Y-49393151D01*
X76987730Y-48823667D01*
X76988268Y-48207039D01*
X76752792Y-47637143D01*
X76317151Y-47200740D01*
X75747667Y-46964270D01*
X75131039Y-46963732D01*
X74561143Y-47199208D01*
X74124740Y-47634849D01*
X73888270Y-48204333D01*
X73887732Y-48820961D01*
X74123208Y-49390857D01*
X74558849Y-49827260D01*
X74912239Y-49974000D01*
X72978000Y-49974000D01*
X72595316Y-50050120D01*
X72270893Y-50266893D01*
X68419786Y-54118000D01*
X67544002Y-54118000D01*
X67544002Y-53710954D01*
X67718694Y-53462635D01*
X67610307Y-53232000D01*
X66694000Y-53232000D01*
X66694000Y-53632000D01*
X65894000Y-53632000D01*
X65894000Y-53232000D01*
X65494000Y-53232000D01*
X65494000Y-52432000D01*
X65894000Y-52432000D01*
X65894000Y-51523263D01*
X66694000Y-51523263D01*
X66694000Y-52432000D01*
X67610307Y-52432000D01*
X67718694Y-52201365D01*
X67368912Y-51704162D01*
X66924631Y-51407335D01*
X66694000Y-51523263D01*
X65894000Y-51523263D01*
X65663369Y-51407335D01*
X65401939Y-51581998D01*
X64736000Y-51581998D01*
X64736000Y-51629435D01*
X64347159Y-51369621D01*
X63754000Y-51251634D01*
X63160841Y-51369621D01*
X62657984Y-51705618D01*
X62484000Y-51966004D01*
X62310016Y-51705618D01*
X61807159Y-51369621D01*
X61214000Y-51251634D01*
X60620841Y-51369621D01*
X60144024Y-51688219D01*
X60022138Y-51498802D01*
X59771508Y-51327554D01*
X59474000Y-51267307D01*
X57874000Y-51267307D01*
X57596067Y-51319604D01*
X57340802Y-51483862D01*
X57169554Y-51734492D01*
X57109307Y-52032000D01*
X52863232Y-52032000D01*
X52865818Y-52025774D01*
X52866182Y-51608058D01*
X52816000Y-51486608D01*
X52816000Y-50261839D01*
X53142849Y-50589260D01*
X53712333Y-50825730D01*
X54328961Y-50826268D01*
X54898857Y-50590792D01*
X55335260Y-50155151D01*
X55571730Y-49585667D01*
X55572268Y-48969039D01*
X55336792Y-48399143D01*
X54901151Y-47962740D01*
X54331667Y-47726270D01*
X53715039Y-47725732D01*
X53145143Y-47961208D01*
X52708740Y-48396849D01*
X52658581Y-48517645D01*
X52523107Y-48314893D01*
X50237107Y-46028893D01*
X49958353Y-45842635D01*
X57249306Y-45842635D01*
X57599088Y-46339838D01*
X58043369Y-46636665D01*
X58274000Y-46520737D01*
X58274000Y-45612000D01*
X57357693Y-45612000D01*
X57249306Y-45842635D01*
X49958353Y-45842635D01*
X49912684Y-45812120D01*
X49530000Y-45736000D01*
X47404214Y-45736000D01*
X46249579Y-44581365D01*
X57249306Y-44581365D01*
X57357693Y-44812000D01*
X58274000Y-44812000D01*
X58274000Y-43903263D01*
X59074000Y-43903263D01*
X59074000Y-44812000D01*
X59474000Y-44812000D01*
X59474000Y-45612000D01*
X59074000Y-45612000D01*
X59074000Y-46520737D01*
X59304631Y-46636665D01*
X59566061Y-46462002D01*
X60232000Y-46462002D01*
X60232000Y-46414565D01*
X60620841Y-46674379D01*
X61214000Y-46792366D01*
X61807159Y-46674379D01*
X62310016Y-46338382D01*
X62484000Y-46077996D01*
X62657984Y-46338382D01*
X63160841Y-46674379D01*
X63754000Y-46792366D01*
X64347159Y-46674379D01*
X64850016Y-46338382D01*
X65024000Y-46077996D01*
X65197984Y-46338382D01*
X65700841Y-46674379D01*
X66294000Y-46792366D01*
X66887159Y-46674379D01*
X67390016Y-46338382D01*
X67474461Y-46212000D01*
X70866000Y-46212000D01*
X71020395Y-46181289D01*
X71176699Y-46162509D01*
X71210571Y-46143461D01*
X71248683Y-46135880D01*
X71379574Y-46048421D01*
X71516791Y-45971257D01*
X71841469Y-45692961D01*
X74649732Y-45692961D01*
X74885208Y-46262857D01*
X75320849Y-46699260D01*
X75890333Y-46935730D01*
X76506961Y-46936268D01*
X77076857Y-46700792D01*
X77408148Y-46370079D01*
X86137654Y-46370079D01*
X86441494Y-47105429D01*
X87003612Y-47668529D01*
X87738430Y-47973652D01*
X88534079Y-47974346D01*
X89269429Y-47670506D01*
X89832529Y-47108388D01*
X90137652Y-46373570D01*
X90138346Y-45577921D01*
X89834506Y-44842571D01*
X89272388Y-44279471D01*
X88537570Y-43974348D01*
X87741921Y-43973654D01*
X87006571Y-44277494D01*
X86443471Y-44839612D01*
X86138348Y-45574430D01*
X86137654Y-46370079D01*
X77408148Y-46370079D01*
X77513260Y-46265151D01*
X77749730Y-45695667D01*
X77750268Y-45079039D01*
X77514792Y-44509143D01*
X77079151Y-44072740D01*
X76509667Y-43836270D01*
X75893039Y-43835732D01*
X75323143Y-44071208D01*
X74886740Y-44506849D01*
X74650270Y-45076333D01*
X74649732Y-45692961D01*
X71841469Y-45692961D01*
X76224566Y-41936022D01*
X76506961Y-41936268D01*
X77076857Y-41700792D01*
X77315334Y-41462731D01*
X81347665Y-41462731D01*
X81448269Y-41714786D01*
X82099170Y-41821515D01*
X82635731Y-41714786D01*
X82736335Y-41462731D01*
X82042000Y-40768396D01*
X81347665Y-41462731D01*
X77315334Y-41462731D01*
X77513260Y-41265151D01*
X77749730Y-40695667D01*
X77750268Y-40079039D01*
X77514792Y-39509143D01*
X77079151Y-39072740D01*
X76509667Y-38836270D01*
X75893039Y-38835732D01*
X75323143Y-39071208D01*
X74886740Y-39506849D01*
X74650270Y-40076333D01*
X74649768Y-40651692D01*
X70496076Y-44212000D01*
X67474461Y-44212000D01*
X67390016Y-44085618D01*
X66887159Y-43749621D01*
X66294000Y-43631634D01*
X65700841Y-43749621D01*
X65197984Y-44085618D01*
X65024000Y-44346004D01*
X64850016Y-44085618D01*
X64347159Y-43749621D01*
X63754000Y-43631634D01*
X63160841Y-43749621D01*
X62657984Y-44085618D01*
X62484000Y-44346004D01*
X62310016Y-44085618D01*
X61807159Y-43749621D01*
X61214000Y-43631634D01*
X60620841Y-43749621D01*
X60232000Y-44009435D01*
X60232000Y-43961998D01*
X59566061Y-43961998D01*
X59304631Y-43787335D01*
X59074000Y-43903263D01*
X58274000Y-43903263D01*
X58043369Y-43787335D01*
X57599088Y-44084162D01*
X57249306Y-44581365D01*
X46249579Y-44581365D01*
X43954050Y-42285836D01*
X44324345Y-41916187D01*
X44667608Y-41089516D01*
X44668390Y-40194411D01*
X44326569Y-39367142D01*
X44099824Y-39140000D01*
X45233307Y-39140000D01*
X45233307Y-42140000D01*
X45285604Y-42417933D01*
X45449862Y-42673198D01*
X45700492Y-42844446D01*
X45998000Y-42904693D01*
X48998000Y-42904693D01*
X49275933Y-42852396D01*
X49531198Y-42688138D01*
X49702446Y-42437508D01*
X49762693Y-42140000D01*
X49762693Y-41240569D01*
X50827696Y-41240569D01*
X51093557Y-41884001D01*
X51585410Y-42376713D01*
X52228376Y-42643696D01*
X52924569Y-42644304D01*
X53568001Y-42378443D01*
X54060713Y-41886590D01*
X54327696Y-41243624D01*
X54327698Y-41240569D01*
X55907696Y-41240569D01*
X56173557Y-41884001D01*
X56665410Y-42376713D01*
X57308376Y-42643696D01*
X58004569Y-42644304D01*
X58648001Y-42378443D01*
X59140713Y-41886590D01*
X59407696Y-41243624D01*
X59407698Y-41240569D01*
X60987696Y-41240569D01*
X61253557Y-41884001D01*
X61745410Y-42376713D01*
X62388376Y-42643696D01*
X63084569Y-42644304D01*
X63728001Y-42378443D01*
X64220713Y-41886590D01*
X64227267Y-41870805D01*
X66390881Y-41870805D01*
X66475983Y-42118846D01*
X67086064Y-42228239D01*
X67636017Y-42118846D01*
X67721119Y-41870805D01*
X67056000Y-41205685D01*
X66390881Y-41870805D01*
X64227267Y-41870805D01*
X64487696Y-41243624D01*
X64488196Y-40670064D01*
X65467761Y-40670064D01*
X65577154Y-41220017D01*
X65825195Y-41305119D01*
X66490315Y-40640000D01*
X67621685Y-40640000D01*
X68286805Y-41305119D01*
X68534846Y-41220017D01*
X68583807Y-40946961D01*
X70505732Y-40946961D01*
X70741208Y-41516857D01*
X71176849Y-41953260D01*
X71746333Y-42189730D01*
X72362961Y-42190268D01*
X72932857Y-41954792D01*
X73369260Y-41519151D01*
X73605730Y-40949667D01*
X73606268Y-40333039D01*
X73370792Y-39763143D01*
X72935151Y-39326740D01*
X72365667Y-39090270D01*
X71749039Y-39089732D01*
X71179143Y-39325208D01*
X70742740Y-39760849D01*
X70506270Y-40330333D01*
X70505732Y-40946961D01*
X68583807Y-40946961D01*
X68644239Y-40609936D01*
X68534846Y-40059983D01*
X68286805Y-39974881D01*
X67621685Y-40640000D01*
X66490315Y-40640000D01*
X65825195Y-39974881D01*
X65577154Y-40059983D01*
X65467761Y-40670064D01*
X64488196Y-40670064D01*
X64488304Y-40547431D01*
X64222443Y-39903999D01*
X63730590Y-39411287D01*
X63725552Y-39409195D01*
X66390881Y-39409195D01*
X67056000Y-40074315D01*
X67721119Y-39409195D01*
X67636017Y-39161154D01*
X67025936Y-39051761D01*
X66475983Y-39161154D01*
X66390881Y-39409195D01*
X63725552Y-39409195D01*
X63087624Y-39144304D01*
X62391431Y-39143696D01*
X61747999Y-39409557D01*
X61255287Y-39901410D01*
X60988304Y-40544376D01*
X60987696Y-41240569D01*
X59407698Y-41240569D01*
X59408304Y-40547431D01*
X59142443Y-39903999D01*
X58650590Y-39411287D01*
X58007624Y-39144304D01*
X57311431Y-39143696D01*
X56667999Y-39409557D01*
X56175287Y-39901410D01*
X55908304Y-40544376D01*
X55907696Y-41240569D01*
X54327698Y-41240569D01*
X54328304Y-40547431D01*
X54062443Y-39903999D01*
X53570590Y-39411287D01*
X52927624Y-39144304D01*
X52231431Y-39143696D01*
X51587999Y-39409557D01*
X51095287Y-39901410D01*
X50828304Y-40544376D01*
X50827696Y-41240569D01*
X49762693Y-41240569D01*
X49762693Y-39140000D01*
X49710396Y-38862067D01*
X49546138Y-38606802D01*
X49295508Y-38435554D01*
X48998000Y-38375307D01*
X45998000Y-38375307D01*
X45720067Y-38427604D01*
X45464802Y-38591862D01*
X45293554Y-38842492D01*
X45233307Y-39140000D01*
X44099824Y-39140000D01*
X43694187Y-38733655D01*
X43231348Y-38541468D01*
X43144669Y-37588000D01*
X80377307Y-37588000D01*
X80377307Y-38492000D01*
G36*
X22049925Y-88379737D02*
X22651436Y-88380262D01*
X22754031Y-88337871D01*
X24845300Y-89732050D01*
X24935853Y-89769448D01*
X25017317Y-89823880D01*
X25114424Y-89843196D01*
X25205935Y-89880989D01*
X25303910Y-89880887D01*
X25400000Y-89900000D01*
X30065786Y-89900000D01*
X34052000Y-93886213D01*
X34052000Y-99647462D01*
X33955984Y-99711618D01*
X33619987Y-100214475D01*
X33502000Y-100807634D01*
X33502000Y-100868366D01*
X33600190Y-101362000D01*
X31496000Y-101362000D01*
X31113317Y-101438120D01*
X31113315Y-101438121D01*
X31113316Y-101438121D01*
X30788893Y-101654893D01*
X30534893Y-101908893D01*
X30318120Y-102233316D01*
X30303735Y-102305634D01*
X30242000Y-102616000D01*
X30242000Y-114139786D01*
X28826908Y-115554878D01*
X27556966Y-116401506D01*
X26865516Y-116114392D01*
X25970411Y-116113610D01*
X25143142Y-116455431D01*
X24509655Y-117087813D01*
X24166392Y-117914484D01*
X24165610Y-118809589D01*
X24507431Y-119636858D01*
X25139813Y-120270345D01*
X25966484Y-120613608D01*
X26861589Y-120614390D01*
X27688858Y-120272569D01*
X28322345Y-119640187D01*
X28665608Y-118813516D01*
X28666261Y-118065676D01*
X30018700Y-117164050D01*
X30088781Y-117094115D01*
X30171107Y-117039107D01*
X31949107Y-115261107D01*
X32165880Y-114936684D01*
X32242001Y-114554000D01*
X32242000Y-114553995D01*
X32242000Y-103362000D01*
X32740235Y-103362000D01*
X32739732Y-103938961D01*
X32975208Y-104508857D01*
X33290000Y-104824200D01*
X33290000Y-104902000D01*
X33366120Y-105284684D01*
X33582893Y-105609107D01*
X35830000Y-107856213D01*
X35830000Y-116251361D01*
X35722013Y-115708475D01*
X35386016Y-115205618D01*
X34883159Y-114869621D01*
X34290000Y-114751634D01*
X33696841Y-114869621D01*
X33193984Y-115205618D01*
X32857987Y-115708475D01*
X32740000Y-116301634D01*
X32740000Y-116362366D01*
X32857987Y-116955525D01*
X33193984Y-117458382D01*
X33696841Y-117794379D01*
X34290000Y-117912366D01*
X34883159Y-117794379D01*
X35386016Y-117458382D01*
X35722013Y-116955525D01*
X35830000Y-116412639D01*
X35830000Y-117856000D01*
X35906120Y-118238684D01*
X36122893Y-118563107D01*
X37819897Y-120260111D01*
X37819881Y-120277905D01*
X36669786Y-121428000D01*
X35275699Y-121428000D01*
X35683260Y-121021151D01*
X35919730Y-120451667D01*
X35920268Y-119835039D01*
X35684792Y-119265143D01*
X35249151Y-118828740D01*
X34679667Y-118592270D01*
X34063039Y-118591732D01*
X33493143Y-118827208D01*
X33056740Y-119262849D01*
X32820270Y-119832333D01*
X32819732Y-120448961D01*
X33055208Y-121018857D01*
X33463637Y-121428000D01*
X30480005Y-121428000D01*
X30480000Y-121427999D01*
X30097316Y-121504120D01*
X29772893Y-121720893D01*
X28502982Y-122990804D01*
X19554000Y-117713200D01*
X19554000Y-111784000D01*
X24151307Y-111784000D01*
X24151307Y-114784000D01*
X24203604Y-115061933D01*
X24367862Y-115317198D01*
X24618492Y-115488446D01*
X24916000Y-115548693D01*
X27916000Y-115548693D01*
X28193933Y-115496396D01*
X28449198Y-115332138D01*
X28620446Y-115081508D01*
X28680693Y-114784000D01*
X28680693Y-111784000D01*
X28628396Y-111506067D01*
X28464138Y-111250802D01*
X28213508Y-111079554D01*
X27916000Y-111019307D01*
X24916000Y-111019307D01*
X24638067Y-111071604D01*
X24382802Y-111235862D01*
X24211554Y-111486492D01*
X24151307Y-111784000D01*
X19554000Y-111784000D01*
X19554000Y-108606961D01*
X25549699Y-108606961D01*
X25743361Y-108881784D01*
X26637149Y-108971592D01*
X27088639Y-108881784D01*
X27282301Y-108606961D01*
X26416000Y-107740660D01*
X25549699Y-108606961D01*
X19554000Y-108606961D01*
X19554000Y-106901149D01*
X24124408Y-106901149D01*
X24214216Y-107352639D01*
X24489039Y-107546301D01*
X25355340Y-106680000D01*
X27476660Y-106680000D01*
X28342961Y-107546301D01*
X28617784Y-107352639D01*
X28707592Y-106458851D01*
X28617784Y-106007361D01*
X28342961Y-105813699D01*
X27476660Y-106680000D01*
X25355340Y-106680000D01*
X24489039Y-105813699D01*
X24214216Y-106007361D01*
X24124408Y-106901149D01*
X19554000Y-106901149D01*
X19554000Y-104753039D01*
X25549699Y-104753039D01*
X26416000Y-105619340D01*
X27282301Y-104753039D01*
X27088639Y-104478216D01*
X26194851Y-104388408D01*
X25743361Y-104478216D01*
X25549699Y-104753039D01*
X19554000Y-104753039D01*
X19554000Y-102045589D01*
X24165610Y-102045589D01*
X24507431Y-102872858D01*
X25139813Y-103506345D01*
X25966484Y-103849608D01*
X26861589Y-103850390D01*
X27688858Y-103508569D01*
X28322345Y-102876187D01*
X28665608Y-102049516D01*
X28666390Y-101154411D01*
X28324569Y-100327142D01*
X27692187Y-99693655D01*
X26865516Y-99350392D01*
X25970411Y-99349610D01*
X25143142Y-99691431D01*
X24509655Y-100323813D01*
X24166392Y-101150484D01*
X24165610Y-102045589D01*
X19554000Y-102045589D01*
X19554000Y-95020000D01*
X24151307Y-95020000D01*
X24151307Y-98020000D01*
X24203604Y-98297933D01*
X24367862Y-98553198D01*
X24618492Y-98724446D01*
X24916000Y-98784693D01*
X27916000Y-98784693D01*
X28193933Y-98732396D01*
X28449198Y-98568138D01*
X28620446Y-98317508D01*
X28680693Y-98020000D01*
X28680693Y-95020000D01*
X28628396Y-94742067D01*
X28464138Y-94486802D01*
X28213508Y-94315554D01*
X27916000Y-94255307D01*
X24916000Y-94255307D01*
X24638067Y-94307604D01*
X24382802Y-94471862D01*
X24211554Y-94722492D01*
X24151307Y-95020000D01*
X19554000Y-95020000D01*
X19554000Y-90635659D01*
X19812000Y-90686978D01*
X20577367Y-90534737D01*
X21226214Y-90101192D01*
X21659759Y-89452345D01*
X21812000Y-88686978D01*
X21812000Y-88280942D01*
X22049925Y-88379737D01*
X22049925Y-88379737D01*
G37*
X22049925Y-88379737D02*
X22651436Y-88380262D01*
X22754031Y-88337871D01*
X24845300Y-89732050D01*
X24935853Y-89769448D01*
X25017317Y-89823880D01*
X25114424Y-89843196D01*
X25205935Y-89880989D01*
X25303910Y-89880887D01*
X25400000Y-89900000D01*
X30065786Y-89900000D01*
X34052000Y-93886213D01*
X34052000Y-99647462D01*
X33955984Y-99711618D01*
X33619987Y-100214475D01*
X33502000Y-100807634D01*
X33502000Y-100868366D01*
X33600190Y-101362000D01*
X31496000Y-101362000D01*
X31113317Y-101438120D01*
X31113315Y-101438121D01*
X31113316Y-101438121D01*
X30788893Y-101654893D01*
X30534893Y-101908893D01*
X30318120Y-102233316D01*
X30303735Y-102305634D01*
X30242000Y-102616000D01*
X30242000Y-114139786D01*
X28826908Y-115554878D01*
X27556966Y-116401506D01*
X26865516Y-116114392D01*
X25970411Y-116113610D01*
X25143142Y-116455431D01*
X24509655Y-117087813D01*
X24166392Y-117914484D01*
X24165610Y-118809589D01*
X24507431Y-119636858D01*
X25139813Y-120270345D01*
X25966484Y-120613608D01*
X26861589Y-120614390D01*
X27688858Y-120272569D01*
X28322345Y-119640187D01*
X28665608Y-118813516D01*
X28666261Y-118065676D01*
X30018700Y-117164050D01*
X30088781Y-117094115D01*
X30171107Y-117039107D01*
X31949107Y-115261107D01*
X32165880Y-114936684D01*
X32242001Y-114554000D01*
X32242000Y-114553995D01*
X32242000Y-103362000D01*
X32740235Y-103362000D01*
X32739732Y-103938961D01*
X32975208Y-104508857D01*
X33290000Y-104824200D01*
X33290000Y-104902000D01*
X33366120Y-105284684D01*
X33582893Y-105609107D01*
X35830000Y-107856213D01*
X35830000Y-116251361D01*
X35722013Y-115708475D01*
X35386016Y-115205618D01*
X34883159Y-114869621D01*
X34290000Y-114751634D01*
X33696841Y-114869621D01*
X33193984Y-115205618D01*
X32857987Y-115708475D01*
X32740000Y-116301634D01*
X32740000Y-116362366D01*
X32857987Y-116955525D01*
X33193984Y-117458382D01*
X33696841Y-117794379D01*
X34290000Y-117912366D01*
X34883159Y-117794379D01*
X35386016Y-117458382D01*
X35722013Y-116955525D01*
X35830000Y-116412639D01*
X35830000Y-117856000D01*
X35906120Y-118238684D01*
X36122893Y-118563107D01*
X37819897Y-120260111D01*
X37819881Y-120277905D01*
X36669786Y-121428000D01*
X35275699Y-121428000D01*
X35683260Y-121021151D01*
X35919730Y-120451667D01*
X35920268Y-119835039D01*
X35684792Y-119265143D01*
X35249151Y-118828740D01*
X34679667Y-118592270D01*
X34063039Y-118591732D01*
X33493143Y-118827208D01*
X33056740Y-119262849D01*
X32820270Y-119832333D01*
X32819732Y-120448961D01*
X33055208Y-121018857D01*
X33463637Y-121428000D01*
X30480005Y-121428000D01*
X30480000Y-121427999D01*
X30097316Y-121504120D01*
X29772893Y-121720893D01*
X28502982Y-122990804D01*
X19554000Y-117713200D01*
X19554000Y-111784000D01*
X24151307Y-111784000D01*
X24151307Y-114784000D01*
X24203604Y-115061933D01*
X24367862Y-115317198D01*
X24618492Y-115488446D01*
X24916000Y-115548693D01*
X27916000Y-115548693D01*
X28193933Y-115496396D01*
X28449198Y-115332138D01*
X28620446Y-115081508D01*
X28680693Y-114784000D01*
X28680693Y-111784000D01*
X28628396Y-111506067D01*
X28464138Y-111250802D01*
X28213508Y-111079554D01*
X27916000Y-111019307D01*
X24916000Y-111019307D01*
X24638067Y-111071604D01*
X24382802Y-111235862D01*
X24211554Y-111486492D01*
X24151307Y-111784000D01*
X19554000Y-111784000D01*
X19554000Y-108606961D01*
X25549699Y-108606961D01*
X25743361Y-108881784D01*
X26637149Y-108971592D01*
X27088639Y-108881784D01*
X27282301Y-108606961D01*
X26416000Y-107740660D01*
X25549699Y-108606961D01*
X19554000Y-108606961D01*
X19554000Y-106901149D01*
X24124408Y-106901149D01*
X24214216Y-107352639D01*
X24489039Y-107546301D01*
X25355340Y-106680000D01*
X27476660Y-106680000D01*
X28342961Y-107546301D01*
X28617784Y-107352639D01*
X28707592Y-106458851D01*
X28617784Y-106007361D01*
X28342961Y-105813699D01*
X27476660Y-106680000D01*
X25355340Y-106680000D01*
X24489039Y-105813699D01*
X24214216Y-106007361D01*
X24124408Y-106901149D01*
X19554000Y-106901149D01*
X19554000Y-104753039D01*
X25549699Y-104753039D01*
X26416000Y-105619340D01*
X27282301Y-104753039D01*
X27088639Y-104478216D01*
X26194851Y-104388408D01*
X25743361Y-104478216D01*
X25549699Y-104753039D01*
X19554000Y-104753039D01*
X19554000Y-102045589D01*
X24165610Y-102045589D01*
X24507431Y-102872858D01*
X25139813Y-103506345D01*
X25966484Y-103849608D01*
X26861589Y-103850390D01*
X27688858Y-103508569D01*
X28322345Y-102876187D01*
X28665608Y-102049516D01*
X28666390Y-101154411D01*
X28324569Y-100327142D01*
X27692187Y-99693655D01*
X26865516Y-99350392D01*
X25970411Y-99349610D01*
X25143142Y-99691431D01*
X24509655Y-100323813D01*
X24166392Y-101150484D01*
X24165610Y-102045589D01*
X19554000Y-102045589D01*
X19554000Y-95020000D01*
X24151307Y-95020000D01*
X24151307Y-98020000D01*
X24203604Y-98297933D01*
X24367862Y-98553198D01*
X24618492Y-98724446D01*
X24916000Y-98784693D01*
X27916000Y-98784693D01*
X28193933Y-98732396D01*
X28449198Y-98568138D01*
X28620446Y-98317508D01*
X28680693Y-98020000D01*
X28680693Y-95020000D01*
X28628396Y-94742067D01*
X28464138Y-94486802D01*
X28213508Y-94315554D01*
X27916000Y-94255307D01*
X24916000Y-94255307D01*
X24638067Y-94307604D01*
X24382802Y-94471862D01*
X24211554Y-94722492D01*
X24151307Y-95020000D01*
X19554000Y-95020000D01*
X19554000Y-90635659D01*
X19812000Y-90686978D01*
X20577367Y-90534737D01*
X21226214Y-90101192D01*
X21659759Y-89452345D01*
X21812000Y-88686978D01*
X21812000Y-88280942D01*
X22049925Y-88379737D01*
M02*
