G04 #@! TF.FileFunction,Legend,Top*
%FSLAX46Y46*%
G04 Gerber Fmt 4.6, Leading zero omitted, Abs format (unit mm)*
G04 Created by KiCad (PCBNEW 4.0.7) date 05/17/18 11:27:15*
%MOMM*%
%LPD*%
G01*
G04 APERTURE LIST*
%ADD10C,0.100000*%
%ADD11C,0.300000*%
%ADD12C,0.200000*%
%ADD13C,0.150000*%
%ADD14C,0.120000*%
%ADD15C,0.500000*%
G04 APERTURE END LIST*
D10*
D11*
X44370572Y-64940571D02*
X43513429Y-64940571D01*
X43942001Y-64940571D02*
X43942001Y-63440571D01*
X43799144Y-63654857D01*
X43656286Y-63797714D01*
X43513429Y-63869143D01*
D12*
X47657143Y-59094667D02*
X48133334Y-59094667D01*
X47561905Y-59380381D02*
X47895238Y-58380381D01*
X48228572Y-59380381D01*
X48419048Y-58380381D02*
X48990477Y-58380381D01*
X48704762Y-59380381D02*
X48704762Y-58380381D01*
X49180953Y-58380381D02*
X49752382Y-58380381D01*
X49466667Y-59380381D02*
X49466667Y-58380381D01*
X50085715Y-59380381D02*
X50085715Y-58380381D01*
X50561905Y-59380381D02*
X50561905Y-58380381D01*
X51133334Y-59380381D01*
X51133334Y-58380381D01*
X51800000Y-58904190D02*
X51800000Y-59380381D01*
X51466667Y-58380381D02*
X51800000Y-58904190D01*
X52133334Y-58380381D01*
X52609524Y-58808952D02*
X52514286Y-58761333D01*
X52466667Y-58713714D01*
X52419048Y-58618476D01*
X52419048Y-58570857D01*
X52466667Y-58475619D01*
X52514286Y-58428000D01*
X52609524Y-58380381D01*
X52800001Y-58380381D01*
X52895239Y-58428000D01*
X52942858Y-58475619D01*
X52990477Y-58570857D01*
X52990477Y-58618476D01*
X52942858Y-58713714D01*
X52895239Y-58761333D01*
X52800001Y-58808952D01*
X52609524Y-58808952D01*
X52514286Y-58856571D01*
X52466667Y-58904190D01*
X52419048Y-58999429D01*
X52419048Y-59189905D01*
X52466667Y-59285143D01*
X52514286Y-59332762D01*
X52609524Y-59380381D01*
X52800001Y-59380381D01*
X52895239Y-59332762D01*
X52942858Y-59285143D01*
X52990477Y-59189905D01*
X52990477Y-58999429D01*
X52942858Y-58904190D01*
X52895239Y-58856571D01*
X52800001Y-58808952D01*
X53895239Y-58380381D02*
X53419048Y-58380381D01*
X53371429Y-58856571D01*
X53419048Y-58808952D01*
X53514286Y-58761333D01*
X53752382Y-58761333D01*
X53847620Y-58808952D01*
X53895239Y-58856571D01*
X53942858Y-58951810D01*
X53942858Y-59189905D01*
X53895239Y-59285143D01*
X53847620Y-59332762D01*
X53752382Y-59380381D01*
X53514286Y-59380381D01*
X53419048Y-59332762D01*
X53371429Y-59285143D01*
D11*
X35734572Y-37000571D02*
X34877429Y-37000571D01*
X35306001Y-37000571D02*
X35306001Y-35500571D01*
X35163144Y-35714857D01*
X35020286Y-35857714D01*
X34877429Y-35929143D01*
X23197429Y-35365715D02*
X24697429Y-35365715D01*
X23268857Y-36008572D02*
X23197429Y-36222858D01*
X23197429Y-36580001D01*
X23268857Y-36722858D01*
X23340286Y-36794287D01*
X23483143Y-36865715D01*
X23626000Y-36865715D01*
X23768857Y-36794287D01*
X23840286Y-36722858D01*
X23911714Y-36580001D01*
X23983143Y-36294287D01*
X24054571Y-36151429D01*
X24126000Y-36080001D01*
X24268857Y-36008572D01*
X24411714Y-36008572D01*
X24554571Y-36080001D01*
X24626000Y-36151429D01*
X24697429Y-36294287D01*
X24697429Y-36651429D01*
X24626000Y-36865715D01*
X23197429Y-37508572D02*
X24697429Y-37508572D01*
X24697429Y-38080000D01*
X24626000Y-38222858D01*
X24554571Y-38294286D01*
X24411714Y-38365715D01*
X24197429Y-38365715D01*
X24054571Y-38294286D01*
X23983143Y-38222858D01*
X23911714Y-38080000D01*
X23911714Y-37508572D01*
X19387429Y-49824286D02*
X20887429Y-49824286D01*
X19816000Y-50324286D01*
X20887429Y-50824286D01*
X19387429Y-50824286D01*
X19387429Y-51538572D02*
X20887429Y-51538572D01*
X19387429Y-52252858D02*
X20887429Y-52252858D01*
X20887429Y-52610001D01*
X20816000Y-52824286D01*
X20673143Y-52967144D01*
X20530286Y-53038572D01*
X20244571Y-53110001D01*
X20030286Y-53110001D01*
X19744571Y-53038572D01*
X19601714Y-52967144D01*
X19458857Y-52824286D01*
X19387429Y-52610001D01*
X19387429Y-52252858D01*
X19387429Y-53752858D02*
X20887429Y-53752858D01*
X20887429Y-55610001D02*
X19673143Y-55610001D01*
X19530286Y-55681429D01*
X19458857Y-55752858D01*
X19387429Y-55895715D01*
X19387429Y-56181429D01*
X19458857Y-56324287D01*
X19530286Y-56395715D01*
X19673143Y-56467144D01*
X20887429Y-56467144D01*
X19458857Y-57110001D02*
X19387429Y-57324287D01*
X19387429Y-57681430D01*
X19458857Y-57824287D01*
X19530286Y-57895716D01*
X19673143Y-57967144D01*
X19816000Y-57967144D01*
X19958857Y-57895716D01*
X20030286Y-57824287D01*
X20101714Y-57681430D01*
X20173143Y-57395716D01*
X20244571Y-57252858D01*
X20316000Y-57181430D01*
X20458857Y-57110001D01*
X20601714Y-57110001D01*
X20744571Y-57181430D01*
X20816000Y-57252858D01*
X20887429Y-57395716D01*
X20887429Y-57752858D01*
X20816000Y-57967144D01*
X20173143Y-59110001D02*
X20101714Y-59324287D01*
X20030286Y-59395715D01*
X19887429Y-59467144D01*
X19673143Y-59467144D01*
X19530286Y-59395715D01*
X19458857Y-59324287D01*
X19387429Y-59181429D01*
X19387429Y-58610001D01*
X20887429Y-58610001D01*
X20887429Y-59110001D01*
X20816000Y-59252858D01*
X20744571Y-59324287D01*
X20601714Y-59395715D01*
X20458857Y-59395715D01*
X20316000Y-59324287D01*
X20244571Y-59252858D01*
X20173143Y-59110001D01*
X20173143Y-58610001D01*
X57086572Y-61321143D02*
X58229429Y-61321143D01*
X54555429Y-128694571D02*
X54555429Y-127194571D01*
X55912572Y-127694571D02*
X55912572Y-128908857D01*
X55841143Y-129051714D01*
X55769715Y-129123143D01*
X55626858Y-129194571D01*
X55412572Y-129194571D01*
X55269715Y-129123143D01*
X55912572Y-128623143D02*
X55769715Y-128694571D01*
X55484001Y-128694571D01*
X55341143Y-128623143D01*
X55269715Y-128551714D01*
X55198286Y-128408857D01*
X55198286Y-127980286D01*
X55269715Y-127837429D01*
X55341143Y-127766000D01*
X55484001Y-127694571D01*
X55769715Y-127694571D01*
X55912572Y-127766000D01*
X56626858Y-127694571D02*
X56626858Y-128694571D01*
X56626858Y-127837429D02*
X56698286Y-127766000D01*
X56841144Y-127694571D01*
X57055429Y-127694571D01*
X57198286Y-127766000D01*
X57269715Y-127908857D01*
X57269715Y-128694571D01*
X58198287Y-128694571D02*
X58055429Y-128623143D01*
X57984001Y-128551714D01*
X57912572Y-128408857D01*
X57912572Y-127980286D01*
X57984001Y-127837429D01*
X58055429Y-127766000D01*
X58198287Y-127694571D01*
X58412572Y-127694571D01*
X58555429Y-127766000D01*
X58626858Y-127837429D01*
X58698287Y-127980286D01*
X58698287Y-128408857D01*
X58626858Y-128551714D01*
X58555429Y-128623143D01*
X58412572Y-128694571D01*
X58198287Y-128694571D01*
X59341144Y-128694571D02*
X59341144Y-127694571D01*
X59341144Y-127980286D02*
X59412572Y-127837429D01*
X59484001Y-127766000D01*
X59626858Y-127694571D01*
X59769715Y-127694571D01*
X60841143Y-128623143D02*
X60698286Y-128694571D01*
X60412572Y-128694571D01*
X60269715Y-128623143D01*
X60198286Y-128480286D01*
X60198286Y-127908857D01*
X60269715Y-127766000D01*
X60412572Y-127694571D01*
X60698286Y-127694571D01*
X60841143Y-127766000D01*
X60912572Y-127908857D01*
X60912572Y-128051714D01*
X60198286Y-128194571D01*
X62698286Y-128694571D02*
X62698286Y-127194571D01*
X63412572Y-127694571D02*
X63412572Y-128694571D01*
X63412572Y-127837429D02*
X63484000Y-127766000D01*
X63626858Y-127694571D01*
X63841143Y-127694571D01*
X63984000Y-127766000D01*
X64055429Y-127908857D01*
X64055429Y-128694571D01*
X64555429Y-127694571D02*
X65126858Y-127694571D01*
X64769715Y-127194571D02*
X64769715Y-128480286D01*
X64841143Y-128623143D01*
X64984001Y-128694571D01*
X65126858Y-128694571D01*
X66198286Y-128623143D02*
X66055429Y-128694571D01*
X65769715Y-128694571D01*
X65626858Y-128623143D01*
X65555429Y-128480286D01*
X65555429Y-127908857D01*
X65626858Y-127766000D01*
X65769715Y-127694571D01*
X66055429Y-127694571D01*
X66198286Y-127766000D01*
X66269715Y-127908857D01*
X66269715Y-128051714D01*
X65555429Y-128194571D01*
X66912572Y-128694571D02*
X66912572Y-127694571D01*
X66912572Y-127980286D02*
X66984000Y-127837429D01*
X67055429Y-127766000D01*
X67198286Y-127694571D01*
X67341143Y-127694571D01*
X67698286Y-127694571D02*
X68055429Y-128694571D01*
X68412571Y-127694571D01*
X69626857Y-128694571D02*
X69626857Y-127908857D01*
X69555428Y-127766000D01*
X69412571Y-127694571D01*
X69126857Y-127694571D01*
X68984000Y-127766000D01*
X69626857Y-128623143D02*
X69484000Y-128694571D01*
X69126857Y-128694571D01*
X68984000Y-128623143D01*
X68912571Y-128480286D01*
X68912571Y-128337429D01*
X68984000Y-128194571D01*
X69126857Y-128123143D01*
X69484000Y-128123143D01*
X69626857Y-128051714D01*
X70555429Y-128694571D02*
X70412571Y-128623143D01*
X70341143Y-128480286D01*
X70341143Y-127194571D01*
X20149429Y-92972858D02*
X21649429Y-92972858D01*
X21649429Y-93330001D01*
X21578000Y-93544286D01*
X21435143Y-93687144D01*
X21292286Y-93758572D01*
X21006571Y-93830001D01*
X20792286Y-93830001D01*
X20506571Y-93758572D01*
X20363714Y-93687144D01*
X20220857Y-93544286D01*
X20149429Y-93330001D01*
X20149429Y-92972858D01*
X20149429Y-94472858D02*
X21149429Y-94472858D01*
X21649429Y-94472858D02*
X21578000Y-94401429D01*
X21506571Y-94472858D01*
X21578000Y-94544286D01*
X21649429Y-94472858D01*
X21506571Y-94472858D01*
X21149429Y-95830001D02*
X19935143Y-95830001D01*
X19792286Y-95758572D01*
X19720857Y-95687144D01*
X19649429Y-95544287D01*
X19649429Y-95330001D01*
X19720857Y-95187144D01*
X20220857Y-95830001D02*
X20149429Y-95687144D01*
X20149429Y-95401430D01*
X20220857Y-95258572D01*
X20292286Y-95187144D01*
X20435143Y-95115715D01*
X20863714Y-95115715D01*
X21006571Y-95187144D01*
X21078000Y-95258572D01*
X21149429Y-95401430D01*
X21149429Y-95687144D01*
X21078000Y-95830001D01*
X20149429Y-96544287D02*
X21149429Y-96544287D01*
X21649429Y-96544287D02*
X21578000Y-96472858D01*
X21506571Y-96544287D01*
X21578000Y-96615715D01*
X21649429Y-96544287D01*
X21506571Y-96544287D01*
X21149429Y-97044287D02*
X21149429Y-97615716D01*
X21649429Y-97258573D02*
X20363714Y-97258573D01*
X20220857Y-97330001D01*
X20149429Y-97472859D01*
X20149429Y-97615716D01*
X20149429Y-98758573D02*
X20935143Y-98758573D01*
X21078000Y-98687144D01*
X21149429Y-98544287D01*
X21149429Y-98258573D01*
X21078000Y-98115716D01*
X20220857Y-98758573D02*
X20149429Y-98615716D01*
X20149429Y-98258573D01*
X20220857Y-98115716D01*
X20363714Y-98044287D01*
X20506571Y-98044287D01*
X20649429Y-98115716D01*
X20720857Y-98258573D01*
X20720857Y-98615716D01*
X20792286Y-98758573D01*
X20149429Y-99687145D02*
X20220857Y-99544287D01*
X20363714Y-99472859D01*
X21649429Y-99472859D01*
X21649429Y-101687144D02*
X21649429Y-101830001D01*
X21578000Y-101972858D01*
X21506571Y-102044287D01*
X21363714Y-102115716D01*
X21078000Y-102187144D01*
X20720857Y-102187144D01*
X20435143Y-102115716D01*
X20292286Y-102044287D01*
X20220857Y-101972858D01*
X20149429Y-101830001D01*
X20149429Y-101687144D01*
X20220857Y-101544287D01*
X20292286Y-101472858D01*
X20435143Y-101401430D01*
X20720857Y-101330001D01*
X21078000Y-101330001D01*
X21363714Y-101401430D01*
X21506571Y-101472858D01*
X21578000Y-101544287D01*
X21649429Y-101687144D01*
X21649429Y-102615715D02*
X20149429Y-103115715D01*
X21649429Y-103615715D01*
X20720857Y-105258572D02*
X20720857Y-106401429D01*
X20149429Y-105830000D02*
X21292286Y-105830000D01*
X21649429Y-106901429D02*
X20149429Y-107401429D01*
X21649429Y-107901429D01*
X47410285Y-35706857D02*
X46267428Y-35706857D01*
X42124571Y-35706857D02*
X40981714Y-35706857D01*
X41553143Y-35135429D02*
X41553143Y-36278286D01*
X16593429Y-66016858D02*
X16593429Y-66302573D01*
X16664857Y-66445430D01*
X16736286Y-66516858D01*
X16950571Y-66659716D01*
X17236286Y-66731144D01*
X17807714Y-66731144D01*
X17950571Y-66659716D01*
X18022000Y-66588287D01*
X18093429Y-66445430D01*
X18093429Y-66159716D01*
X18022000Y-66016858D01*
X17950571Y-65945430D01*
X17807714Y-65874001D01*
X17450571Y-65874001D01*
X17307714Y-65945430D01*
X17236286Y-66016858D01*
X17164857Y-66159716D01*
X17164857Y-66445430D01*
X17236286Y-66588287D01*
X17307714Y-66659716D01*
X17450571Y-66731144D01*
X17164857Y-67374001D02*
X17164857Y-68516858D01*
X16593429Y-70016858D02*
X16593429Y-69159715D01*
X16593429Y-69588287D02*
X18093429Y-69588287D01*
X17879143Y-69445430D01*
X17736286Y-69302572D01*
X17664857Y-69159715D01*
X17950571Y-70588286D02*
X18022000Y-70659715D01*
X18093429Y-70802572D01*
X18093429Y-71159715D01*
X18022000Y-71302572D01*
X17950571Y-71374001D01*
X17807714Y-71445429D01*
X17664857Y-71445429D01*
X17450571Y-71374001D01*
X16593429Y-70516858D01*
X16593429Y-71445429D01*
X18093429Y-73016857D02*
X16593429Y-73516857D01*
X18093429Y-74016857D01*
X16593429Y-74516857D02*
X18093429Y-74516857D01*
X18093429Y-74874000D01*
X18022000Y-75088285D01*
X17879143Y-75231143D01*
X17736286Y-75302571D01*
X17450571Y-75374000D01*
X17236286Y-75374000D01*
X16950571Y-75302571D01*
X16807714Y-75231143D01*
X16664857Y-75088285D01*
X16593429Y-74874000D01*
X16593429Y-74516857D01*
X16736286Y-76874000D02*
X16664857Y-76802571D01*
X16593429Y-76588285D01*
X16593429Y-76445428D01*
X16664857Y-76231143D01*
X16807714Y-76088285D01*
X16950571Y-76016857D01*
X17236286Y-75945428D01*
X17450571Y-75945428D01*
X17736286Y-76016857D01*
X17879143Y-76088285D01*
X18022000Y-76231143D01*
X18093429Y-76445428D01*
X18093429Y-76588285D01*
X18022000Y-76802571D01*
X17950571Y-76874000D01*
X20974857Y-109244572D02*
X20974857Y-110387429D01*
X20474857Y-112173143D02*
X20403429Y-112387429D01*
X20403429Y-112744572D01*
X20474857Y-112887429D01*
X20546286Y-112958858D01*
X20689143Y-113030286D01*
X20832000Y-113030286D01*
X20974857Y-112958858D01*
X21046286Y-112887429D01*
X21117714Y-112744572D01*
X21189143Y-112458858D01*
X21260571Y-112316000D01*
X21332000Y-112244572D01*
X21474857Y-112173143D01*
X21617714Y-112173143D01*
X21760571Y-112244572D01*
X21832000Y-112316000D01*
X21903429Y-112458858D01*
X21903429Y-112816000D01*
X21832000Y-113030286D01*
X20403429Y-113887429D02*
X20474857Y-113744571D01*
X20546286Y-113673143D01*
X20689143Y-113601714D01*
X21117714Y-113601714D01*
X21260571Y-113673143D01*
X21332000Y-113744571D01*
X21403429Y-113887429D01*
X21403429Y-114101714D01*
X21332000Y-114244571D01*
X21260571Y-114316000D01*
X21117714Y-114387429D01*
X20689143Y-114387429D01*
X20546286Y-114316000D01*
X20474857Y-114244571D01*
X20403429Y-114101714D01*
X20403429Y-113887429D01*
X21403429Y-115673143D02*
X20403429Y-115673143D01*
X21403429Y-115030286D02*
X20617714Y-115030286D01*
X20474857Y-115101714D01*
X20403429Y-115244572D01*
X20403429Y-115458857D01*
X20474857Y-115601714D01*
X20546286Y-115673143D01*
X21403429Y-116387429D02*
X20403429Y-116387429D01*
X21260571Y-116387429D02*
X21332000Y-116458857D01*
X21403429Y-116601715D01*
X21403429Y-116816000D01*
X21332000Y-116958857D01*
X21189143Y-117030286D01*
X20403429Y-117030286D01*
X20403429Y-118387429D02*
X21903429Y-118387429D01*
X20474857Y-118387429D02*
X20403429Y-118244572D01*
X20403429Y-117958858D01*
X20474857Y-117816000D01*
X20546286Y-117744572D01*
X20689143Y-117673143D01*
X21117714Y-117673143D01*
X21260571Y-117744572D01*
X21332000Y-117816000D01*
X21403429Y-117958858D01*
X21403429Y-118244572D01*
X21332000Y-118387429D01*
X20974857Y-120244572D02*
X20974857Y-121387429D01*
X20403429Y-120816000D02*
X21546286Y-120816000D01*
D13*
X82447381Y-108290572D02*
X82447381Y-107719143D01*
X83447381Y-108004858D02*
X82447381Y-108004858D01*
X82923571Y-107385810D02*
X82923571Y-107052476D01*
X83447381Y-106909619D02*
X83447381Y-107385810D01*
X82447381Y-107385810D01*
X82447381Y-106909619D01*
X83399762Y-106528667D02*
X83447381Y-106385810D01*
X83447381Y-106147714D01*
X83399762Y-106052476D01*
X83352143Y-106004857D01*
X83256905Y-105957238D01*
X83161667Y-105957238D01*
X83066429Y-106004857D01*
X83018810Y-106052476D01*
X82971190Y-106147714D01*
X82923571Y-106338191D01*
X82875952Y-106433429D01*
X82828333Y-106481048D01*
X82733095Y-106528667D01*
X82637857Y-106528667D01*
X82542619Y-106481048D01*
X82495000Y-106433429D01*
X82447381Y-106338191D01*
X82447381Y-106100095D01*
X82495000Y-105957238D01*
X82447381Y-105671524D02*
X82447381Y-105100095D01*
X83447381Y-105385810D02*
X82447381Y-105385810D01*
X82447381Y-103814381D02*
X82447381Y-103623904D01*
X82495000Y-103528666D01*
X82590238Y-103433428D01*
X82780714Y-103385809D01*
X83114048Y-103385809D01*
X83304524Y-103433428D01*
X83399762Y-103528666D01*
X83447381Y-103623904D01*
X83447381Y-103814381D01*
X83399762Y-103909619D01*
X83304524Y-104004857D01*
X83114048Y-104052476D01*
X82780714Y-104052476D01*
X82590238Y-104004857D01*
X82495000Y-103909619D01*
X82447381Y-103814381D01*
X83447381Y-102385809D02*
X82971190Y-102719143D01*
X83447381Y-102957238D02*
X82447381Y-102957238D01*
X82447381Y-102576285D01*
X82495000Y-102481047D01*
X82542619Y-102433428D01*
X82637857Y-102385809D01*
X82780714Y-102385809D01*
X82875952Y-102433428D01*
X82923571Y-102481047D01*
X82971190Y-102576285D01*
X82971190Y-102957238D01*
X83399762Y-101242952D02*
X83447381Y-101100095D01*
X83447381Y-100861999D01*
X83399762Y-100766761D01*
X83352143Y-100719142D01*
X83256905Y-100671523D01*
X83161667Y-100671523D01*
X83066429Y-100719142D01*
X83018810Y-100766761D01*
X82971190Y-100861999D01*
X82923571Y-101052476D01*
X82875952Y-101147714D01*
X82828333Y-101195333D01*
X82733095Y-101242952D01*
X82637857Y-101242952D01*
X82542619Y-101195333D01*
X82495000Y-101147714D01*
X82447381Y-101052476D01*
X82447381Y-100814380D01*
X82495000Y-100671523D01*
X82447381Y-100052476D02*
X82447381Y-99861999D01*
X82495000Y-99766761D01*
X82590238Y-99671523D01*
X82780714Y-99623904D01*
X83114048Y-99623904D01*
X83304524Y-99671523D01*
X83399762Y-99766761D01*
X83447381Y-99861999D01*
X83447381Y-100052476D01*
X83399762Y-100147714D01*
X83304524Y-100242952D01*
X83114048Y-100290571D01*
X82780714Y-100290571D01*
X82590238Y-100242952D01*
X82495000Y-100147714D01*
X82447381Y-100052476D01*
X82447381Y-99195333D02*
X83256905Y-99195333D01*
X83352143Y-99147714D01*
X83399762Y-99100095D01*
X83447381Y-99004857D01*
X83447381Y-98814380D01*
X83399762Y-98719142D01*
X83352143Y-98671523D01*
X83256905Y-98623904D01*
X82447381Y-98623904D01*
X83447381Y-98147714D02*
X82447381Y-98147714D01*
X83447381Y-97576285D01*
X82447381Y-97576285D01*
X83447381Y-97100095D02*
X82447381Y-97100095D01*
X82447381Y-96862000D01*
X82495000Y-96719142D01*
X82590238Y-96623904D01*
X82685476Y-96576285D01*
X82875952Y-96528666D01*
X83018810Y-96528666D01*
X83209286Y-96576285D01*
X83304524Y-96623904D01*
X83399762Y-96719142D01*
X83447381Y-96862000D01*
X83447381Y-97100095D01*
X85049762Y-106862000D02*
X85097381Y-106719143D01*
X85097381Y-106481047D01*
X85049762Y-106385809D01*
X85002143Y-106338190D01*
X84906905Y-106290571D01*
X84811667Y-106290571D01*
X84716429Y-106338190D01*
X84668810Y-106385809D01*
X84621190Y-106481047D01*
X84573571Y-106671524D01*
X84525952Y-106766762D01*
X84478333Y-106814381D01*
X84383095Y-106862000D01*
X84287857Y-106862000D01*
X84192619Y-106814381D01*
X84145000Y-106766762D01*
X84097381Y-106671524D01*
X84097381Y-106433428D01*
X84145000Y-106290571D01*
X84097381Y-105957238D02*
X85097381Y-105719143D01*
X84383095Y-105528666D01*
X85097381Y-105338190D01*
X84097381Y-105100095D01*
X84097381Y-104862000D02*
X84097381Y-104290571D01*
X85097381Y-104576286D02*
X84097381Y-104576286D01*
X85002143Y-103385809D02*
X85049762Y-103433428D01*
X85097381Y-103576285D01*
X85097381Y-103671523D01*
X85049762Y-103814381D01*
X84954524Y-103909619D01*
X84859286Y-103957238D01*
X84668810Y-104004857D01*
X84525952Y-104004857D01*
X84335476Y-103957238D01*
X84240238Y-103909619D01*
X84145000Y-103814381D01*
X84097381Y-103671523D01*
X84097381Y-103576285D01*
X84145000Y-103433428D01*
X84192619Y-103385809D01*
X85097381Y-102957238D02*
X84097381Y-102957238D01*
X84573571Y-102957238D02*
X84573571Y-102385809D01*
X85097381Y-102385809D02*
X84097381Y-102385809D01*
X85049762Y-101195333D02*
X85097381Y-101052476D01*
X85097381Y-100814380D01*
X85049762Y-100719142D01*
X85002143Y-100671523D01*
X84906905Y-100623904D01*
X84811667Y-100623904D01*
X84716429Y-100671523D01*
X84668810Y-100719142D01*
X84621190Y-100814380D01*
X84573571Y-101004857D01*
X84525952Y-101100095D01*
X84478333Y-101147714D01*
X84383095Y-101195333D01*
X84287857Y-101195333D01*
X84192619Y-101147714D01*
X84145000Y-101100095D01*
X84097381Y-101004857D01*
X84097381Y-100766761D01*
X84145000Y-100623904D01*
X85097381Y-100195333D02*
X84097381Y-100195333D01*
X84097381Y-99814380D01*
X84145000Y-99719142D01*
X84192619Y-99671523D01*
X84287857Y-99623904D01*
X84430714Y-99623904D01*
X84525952Y-99671523D01*
X84573571Y-99719142D01*
X84621190Y-99814380D01*
X84621190Y-100195333D01*
X85097381Y-99195333D02*
X84097381Y-99195333D01*
X84097381Y-98957238D01*
X84145000Y-98814380D01*
X84240238Y-98719142D01*
X84335476Y-98671523D01*
X84525952Y-98623904D01*
X84668810Y-98623904D01*
X84859286Y-98671523D01*
X84954524Y-98719142D01*
X85049762Y-98814380D01*
X85097381Y-98957238D01*
X85097381Y-99195333D01*
X84097381Y-98338190D02*
X84097381Y-97766761D01*
X85097381Y-98052476D02*
X84097381Y-98052476D01*
D11*
X50466572Y-118534571D02*
X49609429Y-118534571D01*
X50038001Y-118534571D02*
X50038001Y-117034571D01*
X49895144Y-117248857D01*
X49752286Y-117391714D01*
X49609429Y-117463143D01*
D12*
X62317524Y-113990381D02*
X61841333Y-113990381D01*
X61841333Y-112990381D01*
X62650857Y-113990381D02*
X62650857Y-112990381D01*
X62984191Y-113704667D01*
X63317524Y-112990381D01*
X63317524Y-113990381D01*
X63698476Y-112990381D02*
X64317524Y-112990381D01*
X63984190Y-113371333D01*
X64127048Y-113371333D01*
X64222286Y-113418952D01*
X64269905Y-113466571D01*
X64317524Y-113561810D01*
X64317524Y-113799905D01*
X64269905Y-113895143D01*
X64222286Y-113942762D01*
X64127048Y-113990381D01*
X63841333Y-113990381D01*
X63746095Y-113942762D01*
X63698476Y-113895143D01*
X64650857Y-112990381D02*
X65269905Y-112990381D01*
X64936571Y-113371333D01*
X65079429Y-113371333D01*
X65174667Y-113418952D01*
X65222286Y-113466571D01*
X65269905Y-113561810D01*
X65269905Y-113799905D01*
X65222286Y-113895143D01*
X65174667Y-113942762D01*
X65079429Y-113990381D01*
X64793714Y-113990381D01*
X64698476Y-113942762D01*
X64650857Y-113895143D01*
X65746095Y-113990381D02*
X65936571Y-113990381D01*
X66031810Y-113942762D01*
X66079429Y-113895143D01*
X66174667Y-113752286D01*
X66222286Y-113561810D01*
X66222286Y-113180857D01*
X66174667Y-113085619D01*
X66127048Y-113038000D01*
X66031810Y-112990381D01*
X65841333Y-112990381D01*
X65746095Y-113038000D01*
X65698476Y-113085619D01*
X65650857Y-113180857D01*
X65650857Y-113418952D01*
X65698476Y-113514190D01*
X65746095Y-113561810D01*
X65841333Y-113609429D01*
X66031810Y-113609429D01*
X66127048Y-113561810D01*
X66174667Y-113514190D01*
X66222286Y-113418952D01*
D13*
X90821048Y-54983571D02*
X90963905Y-55031190D01*
X91011524Y-55078810D01*
X91059143Y-55174048D01*
X91059143Y-55316905D01*
X91011524Y-55412143D01*
X90963905Y-55459762D01*
X90868667Y-55507381D01*
X90487714Y-55507381D01*
X90487714Y-54507381D01*
X90821048Y-54507381D01*
X90916286Y-54555000D01*
X90963905Y-54602619D01*
X91011524Y-54697857D01*
X91011524Y-54793095D01*
X90963905Y-54888333D01*
X90916286Y-54935952D01*
X90821048Y-54983571D01*
X90487714Y-54983571D01*
X91916286Y-54840714D02*
X91916286Y-55507381D01*
X91487714Y-54840714D02*
X91487714Y-55364524D01*
X91535333Y-55459762D01*
X91630571Y-55507381D01*
X91773429Y-55507381D01*
X91868667Y-55459762D01*
X91916286Y-55412143D01*
X92392476Y-55507381D02*
X92392476Y-54840714D01*
X92392476Y-55031190D02*
X92440095Y-54935952D01*
X92487714Y-54888333D01*
X92582952Y-54840714D01*
X92678191Y-54840714D01*
X92963905Y-55459762D02*
X93059143Y-55507381D01*
X93249619Y-55507381D01*
X93344858Y-55459762D01*
X93392477Y-55364524D01*
X93392477Y-55316905D01*
X93344858Y-55221667D01*
X93249619Y-55174048D01*
X93106762Y-55174048D01*
X93011524Y-55126429D01*
X92963905Y-55031190D01*
X92963905Y-54983571D01*
X93011524Y-54888333D01*
X93106762Y-54840714D01*
X93249619Y-54840714D01*
X93344858Y-54888333D01*
X93678191Y-54840714D02*
X94059143Y-54840714D01*
X93821048Y-54507381D02*
X93821048Y-55364524D01*
X93868667Y-55459762D01*
X93963905Y-55507381D01*
X94059143Y-55507381D01*
X91654381Y-56157381D02*
X91844858Y-56157381D01*
X91940096Y-56205000D01*
X92035334Y-56300238D01*
X92082953Y-56490714D01*
X92082953Y-56824048D01*
X92035334Y-57014524D01*
X91940096Y-57109762D01*
X91844858Y-57157381D01*
X91654381Y-57157381D01*
X91559143Y-57109762D01*
X91463905Y-57014524D01*
X91416286Y-56824048D01*
X91416286Y-56490714D01*
X91463905Y-56300238D01*
X91559143Y-56205000D01*
X91654381Y-56157381D01*
X92511524Y-56490714D02*
X92511524Y-57157381D01*
X92511524Y-56585952D02*
X92559143Y-56538333D01*
X92654381Y-56490714D01*
X92797239Y-56490714D01*
X92892477Y-56538333D01*
X92940096Y-56633571D01*
X92940096Y-57157381D01*
X90821048Y-70985571D02*
X90963905Y-71033190D01*
X91011524Y-71080810D01*
X91059143Y-71176048D01*
X91059143Y-71318905D01*
X91011524Y-71414143D01*
X90963905Y-71461762D01*
X90868667Y-71509381D01*
X90487714Y-71509381D01*
X90487714Y-70509381D01*
X90821048Y-70509381D01*
X90916286Y-70557000D01*
X90963905Y-70604619D01*
X91011524Y-70699857D01*
X91011524Y-70795095D01*
X90963905Y-70890333D01*
X90916286Y-70937952D01*
X90821048Y-70985571D01*
X90487714Y-70985571D01*
X91916286Y-70842714D02*
X91916286Y-71509381D01*
X91487714Y-70842714D02*
X91487714Y-71366524D01*
X91535333Y-71461762D01*
X91630571Y-71509381D01*
X91773429Y-71509381D01*
X91868667Y-71461762D01*
X91916286Y-71414143D01*
X92392476Y-71509381D02*
X92392476Y-70842714D01*
X92392476Y-71033190D02*
X92440095Y-70937952D01*
X92487714Y-70890333D01*
X92582952Y-70842714D01*
X92678191Y-70842714D01*
X92963905Y-71461762D02*
X93059143Y-71509381D01*
X93249619Y-71509381D01*
X93344858Y-71461762D01*
X93392477Y-71366524D01*
X93392477Y-71318905D01*
X93344858Y-71223667D01*
X93249619Y-71176048D01*
X93106762Y-71176048D01*
X93011524Y-71128429D01*
X92963905Y-71033190D01*
X92963905Y-70985571D01*
X93011524Y-70890333D01*
X93106762Y-70842714D01*
X93249619Y-70842714D01*
X93344858Y-70890333D01*
X93678191Y-70842714D02*
X94059143Y-70842714D01*
X93821048Y-70509381D02*
X93821048Y-71366524D01*
X93868667Y-71461762D01*
X93963905Y-71509381D01*
X94059143Y-71509381D01*
X91535333Y-72159381D02*
X91725810Y-72159381D01*
X91821048Y-72207000D01*
X91916286Y-72302238D01*
X91963905Y-72492714D01*
X91963905Y-72826048D01*
X91916286Y-73016524D01*
X91821048Y-73111762D01*
X91725810Y-73159381D01*
X91535333Y-73159381D01*
X91440095Y-73111762D01*
X91344857Y-73016524D01*
X91297238Y-72826048D01*
X91297238Y-72492714D01*
X91344857Y-72302238D01*
X91440095Y-72207000D01*
X91535333Y-72159381D01*
X92249619Y-72492714D02*
X92630571Y-72492714D01*
X92392476Y-73159381D02*
X92392476Y-72302238D01*
X92440095Y-72207000D01*
X92535333Y-72159381D01*
X92630571Y-72159381D01*
X92821048Y-72492714D02*
X93202000Y-72492714D01*
X92963905Y-73159381D02*
X92963905Y-72302238D01*
X93011524Y-72207000D01*
X93106762Y-72159381D01*
X93202000Y-72159381D01*
X89376476Y-89035381D02*
X89376476Y-88035381D01*
X89757429Y-88035381D01*
X89852667Y-88083000D01*
X89900286Y-88130619D01*
X89947905Y-88225857D01*
X89947905Y-88368714D01*
X89900286Y-88463952D01*
X89852667Y-88511571D01*
X89757429Y-88559190D01*
X89376476Y-88559190D01*
X90805048Y-88368714D02*
X90805048Y-89035381D01*
X90376476Y-88368714D02*
X90376476Y-88892524D01*
X90424095Y-88987762D01*
X90519333Y-89035381D01*
X90662191Y-89035381D01*
X90757429Y-88987762D01*
X90805048Y-88940143D01*
X91424095Y-89035381D02*
X91328857Y-88987762D01*
X91281238Y-88892524D01*
X91281238Y-88035381D01*
X91757429Y-88987762D02*
X91852667Y-89035381D01*
X92043143Y-89035381D01*
X92138382Y-88987762D01*
X92186001Y-88892524D01*
X92186001Y-88844905D01*
X92138382Y-88749667D01*
X92043143Y-88702048D01*
X91900286Y-88702048D01*
X91805048Y-88654429D01*
X91757429Y-88559190D01*
X91757429Y-88511571D01*
X91805048Y-88416333D01*
X91900286Y-88368714D01*
X92043143Y-88368714D01*
X92138382Y-88416333D01*
X92995525Y-88987762D02*
X92900287Y-89035381D01*
X92709810Y-89035381D01*
X92614572Y-88987762D01*
X92566953Y-88892524D01*
X92566953Y-88511571D01*
X92614572Y-88416333D01*
X92709810Y-88368714D01*
X92900287Y-88368714D01*
X92995525Y-88416333D01*
X93043144Y-88511571D01*
X93043144Y-88606810D01*
X92566953Y-88702048D01*
X89328857Y-89685381D02*
X89566952Y-90685381D01*
X89757429Y-89971095D01*
X89947905Y-90685381D01*
X90186000Y-89685381D01*
X90566952Y-90685381D02*
X90566952Y-90018714D01*
X90566952Y-89685381D02*
X90519333Y-89733000D01*
X90566952Y-89780619D01*
X90614571Y-89733000D01*
X90566952Y-89685381D01*
X90566952Y-89780619D01*
X91471714Y-90685381D02*
X91471714Y-89685381D01*
X91471714Y-90637762D02*
X91376476Y-90685381D01*
X91185999Y-90685381D01*
X91090761Y-90637762D01*
X91043142Y-90590143D01*
X90995523Y-90494905D01*
X90995523Y-90209190D01*
X91043142Y-90113952D01*
X91090761Y-90066333D01*
X91185999Y-90018714D01*
X91376476Y-90018714D01*
X91471714Y-90066333D01*
X91805047Y-90018714D02*
X92185999Y-90018714D01*
X91947904Y-89685381D02*
X91947904Y-90542524D01*
X91995523Y-90637762D01*
X92090761Y-90685381D01*
X92185999Y-90685381D01*
X92519333Y-90685381D02*
X92519333Y-89685381D01*
X92947905Y-90685381D02*
X92947905Y-90161571D01*
X92900286Y-90066333D01*
X92805048Y-90018714D01*
X92662190Y-90018714D01*
X92566952Y-90066333D01*
X92519333Y-90113952D01*
X89630476Y-105799381D02*
X89630476Y-104799381D01*
X90011429Y-104799381D01*
X90106667Y-104847000D01*
X90154286Y-104894619D01*
X90201905Y-104989857D01*
X90201905Y-105132714D01*
X90154286Y-105227952D01*
X90106667Y-105275571D01*
X90011429Y-105323190D01*
X89630476Y-105323190D01*
X91059048Y-105132714D02*
X91059048Y-105799381D01*
X90630476Y-105132714D02*
X90630476Y-105656524D01*
X90678095Y-105751762D01*
X90773333Y-105799381D01*
X90916191Y-105799381D01*
X91011429Y-105751762D01*
X91059048Y-105704143D01*
X91678095Y-105799381D02*
X91582857Y-105751762D01*
X91535238Y-105656524D01*
X91535238Y-104799381D01*
X92011429Y-105751762D02*
X92106667Y-105799381D01*
X92297143Y-105799381D01*
X92392382Y-105751762D01*
X92440001Y-105656524D01*
X92440001Y-105608905D01*
X92392382Y-105513667D01*
X92297143Y-105466048D01*
X92154286Y-105466048D01*
X92059048Y-105418429D01*
X92011429Y-105323190D01*
X92011429Y-105275571D01*
X92059048Y-105180333D01*
X92154286Y-105132714D01*
X92297143Y-105132714D01*
X92392382Y-105180333D01*
X93249525Y-105751762D02*
X93154287Y-105799381D01*
X92963810Y-105799381D01*
X92868572Y-105751762D01*
X92820953Y-105656524D01*
X92820953Y-105275571D01*
X92868572Y-105180333D01*
X92963810Y-105132714D01*
X93154287Y-105132714D01*
X93249525Y-105180333D01*
X93297144Y-105275571D01*
X93297144Y-105370810D01*
X92820953Y-105466048D01*
X90582857Y-107449381D02*
X90249523Y-106973190D01*
X90011428Y-107449381D02*
X90011428Y-106449381D01*
X90392381Y-106449381D01*
X90487619Y-106497000D01*
X90535238Y-106544619D01*
X90582857Y-106639857D01*
X90582857Y-106782714D01*
X90535238Y-106877952D01*
X90487619Y-106925571D01*
X90392381Y-106973190D01*
X90011428Y-106973190D01*
X91440000Y-107449381D02*
X91440000Y-106925571D01*
X91392381Y-106830333D01*
X91297143Y-106782714D01*
X91106666Y-106782714D01*
X91011428Y-106830333D01*
X91440000Y-107401762D02*
X91344762Y-107449381D01*
X91106666Y-107449381D01*
X91011428Y-107401762D01*
X90963809Y-107306524D01*
X90963809Y-107211286D01*
X91011428Y-107116048D01*
X91106666Y-107068429D01*
X91344762Y-107068429D01*
X91440000Y-107020810D01*
X91773333Y-106782714D02*
X92154285Y-106782714D01*
X91916190Y-106449381D02*
X91916190Y-107306524D01*
X91963809Y-107401762D01*
X92059047Y-107449381D01*
X92154285Y-107449381D01*
X92868572Y-107401762D02*
X92773334Y-107449381D01*
X92582857Y-107449381D01*
X92487619Y-107401762D01*
X92440000Y-107306524D01*
X92440000Y-106925571D01*
X92487619Y-106830333D01*
X92582857Y-106782714D01*
X92773334Y-106782714D01*
X92868572Y-106830333D01*
X92916191Y-106925571D01*
X92916191Y-107020810D01*
X92440000Y-107116048D01*
D11*
X57086572Y-56241143D02*
X58229429Y-56241143D01*
X57658000Y-56812571D02*
X57658000Y-55669714D01*
X57578572Y-101262571D02*
X56721429Y-101262571D01*
X57150001Y-101262571D02*
X57150001Y-99762571D01*
X57007144Y-99976857D01*
X56864286Y-100119714D01*
X56721429Y-100191143D01*
X61896572Y-79926571D02*
X61039429Y-79926571D01*
X61468001Y-79926571D02*
X61468001Y-78426571D01*
X61325144Y-78640857D01*
X61182286Y-78783714D01*
X61039429Y-78855143D01*
X57070572Y-53510571D02*
X56213429Y-53510571D01*
X56642001Y-53510571D02*
X56642001Y-52010571D01*
X56499144Y-52224857D01*
X56356286Y-52367714D01*
X56213429Y-52439143D01*
D12*
X66921333Y-74874381D02*
X66921333Y-73874381D01*
X67492762Y-74874381D01*
X67492762Y-73874381D01*
X67968952Y-74350571D02*
X68302286Y-74350571D01*
X68445143Y-74874381D02*
X67968952Y-74874381D01*
X67968952Y-73874381D01*
X68445143Y-73874381D01*
X69349905Y-73874381D02*
X68873714Y-73874381D01*
X68826095Y-74350571D01*
X68873714Y-74302952D01*
X68968952Y-74255333D01*
X69207048Y-74255333D01*
X69302286Y-74302952D01*
X69349905Y-74350571D01*
X69397524Y-74445810D01*
X69397524Y-74683905D01*
X69349905Y-74779143D01*
X69302286Y-74826762D01*
X69207048Y-74874381D01*
X68968952Y-74874381D01*
X68873714Y-74826762D01*
X68826095Y-74779143D01*
X70302286Y-73874381D02*
X69826095Y-73874381D01*
X69778476Y-74350571D01*
X69826095Y-74302952D01*
X69921333Y-74255333D01*
X70159429Y-74255333D01*
X70254667Y-74302952D01*
X70302286Y-74350571D01*
X70349905Y-74445810D01*
X70349905Y-74683905D01*
X70302286Y-74779143D01*
X70254667Y-74826762D01*
X70159429Y-74874381D01*
X69921333Y-74874381D01*
X69826095Y-74826762D01*
X69778476Y-74779143D01*
X71254667Y-73874381D02*
X70778476Y-73874381D01*
X70730857Y-74350571D01*
X70778476Y-74302952D01*
X70873714Y-74255333D01*
X71111810Y-74255333D01*
X71207048Y-74302952D01*
X71254667Y-74350571D01*
X71302286Y-74445810D01*
X71302286Y-74683905D01*
X71254667Y-74779143D01*
X71207048Y-74826762D01*
X71111810Y-74874381D01*
X70873714Y-74874381D01*
X70778476Y-74826762D01*
X70730857Y-74779143D01*
D13*
X65500477Y-60825571D02*
X65643334Y-60873190D01*
X65690953Y-60920810D01*
X65738572Y-61016048D01*
X65738572Y-61158905D01*
X65690953Y-61254143D01*
X65643334Y-61301762D01*
X65548096Y-61349381D01*
X65167143Y-61349381D01*
X65167143Y-60349381D01*
X65500477Y-60349381D01*
X65595715Y-60397000D01*
X65643334Y-60444619D01*
X65690953Y-60539857D01*
X65690953Y-60635095D01*
X65643334Y-60730333D01*
X65595715Y-60777952D01*
X65500477Y-60825571D01*
X65167143Y-60825571D01*
X66167143Y-60349381D02*
X66167143Y-61158905D01*
X66214762Y-61254143D01*
X66262381Y-61301762D01*
X66357619Y-61349381D01*
X66548096Y-61349381D01*
X66643334Y-61301762D01*
X66690953Y-61254143D01*
X66738572Y-61158905D01*
X66738572Y-60349381D01*
X67786191Y-61349381D02*
X67452857Y-60873190D01*
X67214762Y-61349381D02*
X67214762Y-60349381D01*
X67595715Y-60349381D01*
X67690953Y-60397000D01*
X67738572Y-60444619D01*
X67786191Y-60539857D01*
X67786191Y-60682714D01*
X67738572Y-60777952D01*
X67690953Y-60825571D01*
X67595715Y-60873190D01*
X67214762Y-60873190D01*
X68167143Y-61301762D02*
X68310000Y-61349381D01*
X68548096Y-61349381D01*
X68643334Y-61301762D01*
X68690953Y-61254143D01*
X68738572Y-61158905D01*
X68738572Y-61063667D01*
X68690953Y-60968429D01*
X68643334Y-60920810D01*
X68548096Y-60873190D01*
X68357619Y-60825571D01*
X68262381Y-60777952D01*
X68214762Y-60730333D01*
X68167143Y-60635095D01*
X68167143Y-60539857D01*
X68214762Y-60444619D01*
X68262381Y-60397000D01*
X68357619Y-60349381D01*
X68595715Y-60349381D01*
X68738572Y-60397000D01*
X69024286Y-60349381D02*
X69595715Y-60349381D01*
X69310000Y-61349381D02*
X69310000Y-60349381D01*
X65048095Y-62951762D02*
X65190952Y-62999381D01*
X65429048Y-62999381D01*
X65524286Y-62951762D01*
X65571905Y-62904143D01*
X65619524Y-62808905D01*
X65619524Y-62713667D01*
X65571905Y-62618429D01*
X65524286Y-62570810D01*
X65429048Y-62523190D01*
X65238571Y-62475571D01*
X65143333Y-62427952D01*
X65095714Y-62380333D01*
X65048095Y-62285095D01*
X65048095Y-62189857D01*
X65095714Y-62094619D01*
X65143333Y-62047000D01*
X65238571Y-61999381D01*
X65476667Y-61999381D01*
X65619524Y-62047000D01*
X65952857Y-61999381D02*
X66190952Y-62999381D01*
X66381429Y-62285095D01*
X66571905Y-62999381D01*
X66810000Y-61999381D01*
X67048095Y-61999381D02*
X67619524Y-61999381D01*
X67333809Y-62999381D02*
X67333809Y-61999381D01*
X68524286Y-62904143D02*
X68476667Y-62951762D01*
X68333810Y-62999381D01*
X68238572Y-62999381D01*
X68095714Y-62951762D01*
X68000476Y-62856524D01*
X67952857Y-62761286D01*
X67905238Y-62570810D01*
X67905238Y-62427952D01*
X67952857Y-62237476D01*
X68000476Y-62142238D01*
X68095714Y-62047000D01*
X68238572Y-61999381D01*
X68333810Y-61999381D01*
X68476667Y-62047000D01*
X68524286Y-62094619D01*
X68952857Y-62999381D02*
X68952857Y-61999381D01*
X68952857Y-62475571D02*
X69524286Y-62475571D01*
X69524286Y-62999381D02*
X69524286Y-61999381D01*
X56364476Y-64143381D02*
X56364476Y-63143381D01*
X56745429Y-63143381D01*
X56840667Y-63191000D01*
X56888286Y-63238619D01*
X56935905Y-63333857D01*
X56935905Y-63476714D01*
X56888286Y-63571952D01*
X56840667Y-63619571D01*
X56745429Y-63667190D01*
X56364476Y-63667190D01*
X57554952Y-63143381D02*
X57745429Y-63143381D01*
X57840667Y-63191000D01*
X57935905Y-63286238D01*
X57983524Y-63476714D01*
X57983524Y-63810048D01*
X57935905Y-64000524D01*
X57840667Y-64095762D01*
X57745429Y-64143381D01*
X57554952Y-64143381D01*
X57459714Y-64095762D01*
X57364476Y-64000524D01*
X57316857Y-63810048D01*
X57316857Y-63476714D01*
X57364476Y-63286238D01*
X57459714Y-63191000D01*
X57554952Y-63143381D01*
X58316857Y-63143381D02*
X58554952Y-64143381D01*
X58745429Y-63429095D01*
X58935905Y-64143381D01*
X59174000Y-63143381D01*
X59554952Y-63619571D02*
X59888286Y-63619571D01*
X60031143Y-64143381D02*
X59554952Y-64143381D01*
X59554952Y-63143381D01*
X60031143Y-63143381D01*
X61031143Y-64143381D02*
X60697809Y-63667190D01*
X60459714Y-64143381D02*
X60459714Y-63143381D01*
X60840667Y-63143381D01*
X60935905Y-63191000D01*
X60983524Y-63238619D01*
X61031143Y-63333857D01*
X61031143Y-63476714D01*
X60983524Y-63571952D01*
X60935905Y-63619571D01*
X60840667Y-63667190D01*
X60459714Y-63667190D01*
X56412095Y-65745762D02*
X56554952Y-65793381D01*
X56793048Y-65793381D01*
X56888286Y-65745762D01*
X56935905Y-65698143D01*
X56983524Y-65602905D01*
X56983524Y-65507667D01*
X56935905Y-65412429D01*
X56888286Y-65364810D01*
X56793048Y-65317190D01*
X56602571Y-65269571D01*
X56507333Y-65221952D01*
X56459714Y-65174333D01*
X56412095Y-65079095D01*
X56412095Y-64983857D01*
X56459714Y-64888619D01*
X56507333Y-64841000D01*
X56602571Y-64793381D01*
X56840667Y-64793381D01*
X56983524Y-64841000D01*
X57316857Y-64793381D02*
X57554952Y-65793381D01*
X57745429Y-65079095D01*
X57935905Y-65793381D01*
X58174000Y-64793381D01*
X58412095Y-64793381D02*
X58983524Y-64793381D01*
X58697809Y-65793381D02*
X58697809Y-64793381D01*
X59888286Y-65698143D02*
X59840667Y-65745762D01*
X59697810Y-65793381D01*
X59602572Y-65793381D01*
X59459714Y-65745762D01*
X59364476Y-65650524D01*
X59316857Y-65555286D01*
X59269238Y-65364810D01*
X59269238Y-65221952D01*
X59316857Y-65031476D01*
X59364476Y-64936238D01*
X59459714Y-64841000D01*
X59602572Y-64793381D01*
X59697810Y-64793381D01*
X59840667Y-64841000D01*
X59888286Y-64888619D01*
X60316857Y-65793381D02*
X60316857Y-64793381D01*
X60316857Y-65269571D02*
X60888286Y-65269571D01*
X60888286Y-65793381D02*
X60888286Y-64793381D01*
D11*
X19530286Y-68306572D02*
X19458857Y-68235143D01*
X19387429Y-68020857D01*
X19387429Y-67878000D01*
X19458857Y-67663715D01*
X19601714Y-67520857D01*
X19744571Y-67449429D01*
X20030286Y-67378000D01*
X20244571Y-67378000D01*
X20530286Y-67449429D01*
X20673143Y-67520857D01*
X20816000Y-67663715D01*
X20887429Y-67878000D01*
X20887429Y-68020857D01*
X20816000Y-68235143D01*
X20744571Y-68306572D01*
X19458857Y-69520857D02*
X19387429Y-69378000D01*
X19387429Y-69092286D01*
X19458857Y-68949429D01*
X19601714Y-68878000D01*
X20173143Y-68878000D01*
X20316000Y-68949429D01*
X20387429Y-69092286D01*
X20387429Y-69378000D01*
X20316000Y-69520857D01*
X20173143Y-69592286D01*
X20030286Y-69592286D01*
X19887429Y-68878000D01*
X20387429Y-70235143D02*
X19387429Y-70235143D01*
X20244571Y-70235143D02*
X20316000Y-70306571D01*
X20387429Y-70449429D01*
X20387429Y-70663714D01*
X20316000Y-70806571D01*
X20173143Y-70878000D01*
X19387429Y-70878000D01*
X20387429Y-71378000D02*
X20387429Y-71949429D01*
X20887429Y-71592286D02*
X19601714Y-71592286D01*
X19458857Y-71663714D01*
X19387429Y-71806572D01*
X19387429Y-71949429D01*
X19458857Y-73020857D02*
X19387429Y-72878000D01*
X19387429Y-72592286D01*
X19458857Y-72449429D01*
X19601714Y-72378000D01*
X20173143Y-72378000D01*
X20316000Y-72449429D01*
X20387429Y-72592286D01*
X20387429Y-72878000D01*
X20316000Y-73020857D01*
X20173143Y-73092286D01*
X20030286Y-73092286D01*
X19887429Y-72378000D01*
X19387429Y-73735143D02*
X20387429Y-73735143D01*
X20101714Y-73735143D02*
X20244571Y-73806571D01*
X20316000Y-73878000D01*
X20387429Y-74020857D01*
X20387429Y-74163714D01*
X19958857Y-74663714D02*
X19958857Y-75806571D01*
X19387429Y-75235142D02*
X20530286Y-75235142D01*
X50202572Y-36492571D02*
X50202572Y-34992571D01*
X50559715Y-34992571D01*
X50774000Y-35064000D01*
X50916858Y-35206857D01*
X50988286Y-35349714D01*
X51059715Y-35635429D01*
X51059715Y-35849714D01*
X50988286Y-36135429D01*
X50916858Y-36278286D01*
X50774000Y-36421143D01*
X50559715Y-36492571D01*
X50202572Y-36492571D01*
X52559715Y-36492571D02*
X52059715Y-35778286D01*
X51702572Y-36492571D02*
X51702572Y-34992571D01*
X52274000Y-34992571D01*
X52416858Y-35064000D01*
X52488286Y-35135429D01*
X52559715Y-35278286D01*
X52559715Y-35492571D01*
X52488286Y-35635429D01*
X52416858Y-35706857D01*
X52274000Y-35778286D01*
X51702572Y-35778286D01*
X53131143Y-36421143D02*
X53345429Y-36492571D01*
X53702572Y-36492571D01*
X53845429Y-36421143D01*
X53916858Y-36349714D01*
X53988286Y-36206857D01*
X53988286Y-36064000D01*
X53916858Y-35921143D01*
X53845429Y-35849714D01*
X53702572Y-35778286D01*
X53416858Y-35706857D01*
X53274000Y-35635429D01*
X53202572Y-35564000D01*
X53131143Y-35421143D01*
X53131143Y-35278286D01*
X53202572Y-35135429D01*
X53274000Y-35064000D01*
X53416858Y-34992571D01*
X53774000Y-34992571D01*
X53988286Y-35064000D01*
X54559714Y-36421143D02*
X54774000Y-36492571D01*
X55131143Y-36492571D01*
X55274000Y-36421143D01*
X55345429Y-36349714D01*
X55416857Y-36206857D01*
X55416857Y-36064000D01*
X55345429Y-35921143D01*
X55274000Y-35849714D01*
X55131143Y-35778286D01*
X54845429Y-35706857D01*
X54702571Y-35635429D01*
X54631143Y-35564000D01*
X54559714Y-35421143D01*
X54559714Y-35278286D01*
X54631143Y-35135429D01*
X54702571Y-35064000D01*
X54845429Y-34992571D01*
X55202571Y-34992571D01*
X55416857Y-35064000D01*
X55845428Y-34992571D02*
X56702571Y-34992571D01*
X56274000Y-36492571D02*
X56274000Y-34992571D01*
X58059714Y-36349714D02*
X57988285Y-36421143D01*
X57773999Y-36492571D01*
X57631142Y-36492571D01*
X57416857Y-36421143D01*
X57273999Y-36278286D01*
X57202571Y-36135429D01*
X57131142Y-35849714D01*
X57131142Y-35635429D01*
X57202571Y-35349714D01*
X57273999Y-35206857D01*
X57416857Y-35064000D01*
X57631142Y-34992571D01*
X57773999Y-34992571D01*
X57988285Y-35064000D01*
X58059714Y-35135429D01*
X59845428Y-36492571D02*
X59845428Y-34992571D01*
X60559714Y-36492571D02*
X60559714Y-34992571D01*
X61416857Y-36492571D01*
X61416857Y-34992571D01*
X61916857Y-34992571D02*
X62774000Y-34992571D01*
X62345429Y-36492571D02*
X62345429Y-34992571D01*
X63274000Y-35706857D02*
X63774000Y-35706857D01*
X63988286Y-36492571D02*
X63274000Y-36492571D01*
X63274000Y-34992571D01*
X63988286Y-34992571D01*
X65488286Y-36492571D02*
X64988286Y-35778286D01*
X64631143Y-36492571D02*
X64631143Y-34992571D01*
X65202571Y-34992571D01*
X65345429Y-35064000D01*
X65416857Y-35135429D01*
X65488286Y-35278286D01*
X65488286Y-35492571D01*
X65416857Y-35635429D01*
X65345429Y-35706857D01*
X65202571Y-35778286D01*
X64631143Y-35778286D01*
X66988286Y-36492571D02*
X66488286Y-35778286D01*
X66131143Y-36492571D02*
X66131143Y-34992571D01*
X66702571Y-34992571D01*
X66845429Y-35064000D01*
X66916857Y-35135429D01*
X66988286Y-35278286D01*
X66988286Y-35492571D01*
X66916857Y-35635429D01*
X66845429Y-35706857D01*
X66702571Y-35778286D01*
X66131143Y-35778286D01*
X67631143Y-34992571D02*
X67631143Y-36206857D01*
X67702571Y-36349714D01*
X67774000Y-36421143D01*
X67916857Y-36492571D01*
X68202571Y-36492571D01*
X68345429Y-36421143D01*
X68416857Y-36349714D01*
X68488286Y-36206857D01*
X68488286Y-34992571D01*
X69202572Y-36492571D02*
X69202572Y-34992571D01*
X69774000Y-34992571D01*
X69916858Y-35064000D01*
X69988286Y-35135429D01*
X70059715Y-35278286D01*
X70059715Y-35492571D01*
X69988286Y-35635429D01*
X69916858Y-35706857D01*
X69774000Y-35778286D01*
X69202572Y-35778286D01*
X70488286Y-34992571D02*
X71345429Y-34992571D01*
X70916858Y-36492571D02*
X70916858Y-34992571D01*
X71845429Y-35706857D02*
X72345429Y-35706857D01*
X72559715Y-36492571D02*
X71845429Y-36492571D01*
X71845429Y-34992571D01*
X72559715Y-34992571D01*
X74059715Y-36492571D02*
X73559715Y-35778286D01*
X73202572Y-36492571D02*
X73202572Y-34992571D01*
X73774000Y-34992571D01*
X73916858Y-35064000D01*
X73988286Y-35135429D01*
X74059715Y-35278286D01*
X74059715Y-35492571D01*
X73988286Y-35635429D01*
X73916858Y-35706857D01*
X73774000Y-35778286D01*
X73202572Y-35778286D01*
X75702572Y-35492571D02*
X76059715Y-36492571D01*
X76416857Y-35492571D01*
X77774000Y-36492571D02*
X76916857Y-36492571D01*
X77345429Y-36492571D02*
X77345429Y-34992571D01*
X77202572Y-35206857D01*
X77059714Y-35349714D01*
X76916857Y-35421143D01*
X78416857Y-36349714D02*
X78488285Y-36421143D01*
X78416857Y-36492571D01*
X78345428Y-36421143D01*
X78416857Y-36349714D01*
X78416857Y-36492571D01*
X79059714Y-35135429D02*
X79131143Y-35064000D01*
X79274000Y-34992571D01*
X79631143Y-34992571D01*
X79774000Y-35064000D01*
X79845429Y-35135429D01*
X79916857Y-35278286D01*
X79916857Y-35421143D01*
X79845429Y-35635429D01*
X78988286Y-36492571D01*
X79916857Y-36492571D01*
D12*
X63365333Y-97226381D02*
X63365333Y-96226381D01*
X63936762Y-97226381D01*
X63936762Y-96226381D01*
X64412952Y-96702571D02*
X64746286Y-96702571D01*
X64889143Y-97226381D02*
X64412952Y-97226381D01*
X64412952Y-96226381D01*
X64889143Y-96226381D01*
X65793905Y-96226381D02*
X65317714Y-96226381D01*
X65270095Y-96702571D01*
X65317714Y-96654952D01*
X65412952Y-96607333D01*
X65651048Y-96607333D01*
X65746286Y-96654952D01*
X65793905Y-96702571D01*
X65841524Y-96797810D01*
X65841524Y-97035905D01*
X65793905Y-97131143D01*
X65746286Y-97178762D01*
X65651048Y-97226381D01*
X65412952Y-97226381D01*
X65317714Y-97178762D01*
X65270095Y-97131143D01*
X66746286Y-96226381D02*
X66270095Y-96226381D01*
X66222476Y-96702571D01*
X66270095Y-96654952D01*
X66365333Y-96607333D01*
X66603429Y-96607333D01*
X66698667Y-96654952D01*
X66746286Y-96702571D01*
X66793905Y-96797810D01*
X66793905Y-97035905D01*
X66746286Y-97131143D01*
X66698667Y-97178762D01*
X66603429Y-97226381D01*
X66365333Y-97226381D01*
X66270095Y-97178762D01*
X66222476Y-97131143D01*
X67698667Y-96226381D02*
X67222476Y-96226381D01*
X67174857Y-96702571D01*
X67222476Y-96654952D01*
X67317714Y-96607333D01*
X67555810Y-96607333D01*
X67651048Y-96654952D01*
X67698667Y-96702571D01*
X67746286Y-96797810D01*
X67746286Y-97035905D01*
X67698667Y-97131143D01*
X67651048Y-97178762D01*
X67555810Y-97226381D01*
X67317714Y-97226381D01*
X67222476Y-97178762D01*
X67174857Y-97131143D01*
X30281619Y-80462667D02*
X31281619Y-80462667D01*
X30805429Y-81272191D02*
X30805429Y-80938857D01*
X30281619Y-80938857D02*
X31281619Y-80938857D01*
X31281619Y-81415048D01*
X30805429Y-81796000D02*
X30805429Y-82129334D01*
X30281619Y-82272191D02*
X30281619Y-81796000D01*
X31281619Y-81796000D01*
X31281619Y-82272191D01*
X30281619Y-82748381D02*
X30281619Y-82938857D01*
X30329238Y-83034096D01*
X30376857Y-83081715D01*
X30519714Y-83176953D01*
X30710190Y-83224572D01*
X31091143Y-83224572D01*
X31186381Y-83176953D01*
X31234000Y-83129334D01*
X31281619Y-83034096D01*
X31281619Y-82843619D01*
X31234000Y-82748381D01*
X31186381Y-82700762D01*
X31091143Y-82653143D01*
X30853048Y-82653143D01*
X30757810Y-82700762D01*
X30710190Y-82748381D01*
X30662571Y-82843619D01*
X30662571Y-83034096D01*
X30710190Y-83129334D01*
X30757810Y-83176953D01*
X30853048Y-83224572D01*
X31281619Y-83557905D02*
X31281619Y-84224572D01*
X30281619Y-83796000D01*
X61587333Y-48458381D02*
X61587333Y-47458381D01*
X62158762Y-48458381D01*
X62158762Y-47458381D01*
X62634952Y-47934571D02*
X62968286Y-47934571D01*
X63111143Y-48458381D02*
X62634952Y-48458381D01*
X62634952Y-47458381D01*
X63111143Y-47458381D01*
X64015905Y-47458381D02*
X63539714Y-47458381D01*
X63492095Y-47934571D01*
X63539714Y-47886952D01*
X63634952Y-47839333D01*
X63873048Y-47839333D01*
X63968286Y-47886952D01*
X64015905Y-47934571D01*
X64063524Y-48029810D01*
X64063524Y-48267905D01*
X64015905Y-48363143D01*
X63968286Y-48410762D01*
X63873048Y-48458381D01*
X63634952Y-48458381D01*
X63539714Y-48410762D01*
X63492095Y-48363143D01*
X64968286Y-47458381D02*
X64492095Y-47458381D01*
X64444476Y-47934571D01*
X64492095Y-47886952D01*
X64587333Y-47839333D01*
X64825429Y-47839333D01*
X64920667Y-47886952D01*
X64968286Y-47934571D01*
X65015905Y-48029810D01*
X65015905Y-48267905D01*
X64968286Y-48363143D01*
X64920667Y-48410762D01*
X64825429Y-48458381D01*
X64587333Y-48458381D01*
X64492095Y-48410762D01*
X64444476Y-48363143D01*
X65920667Y-47458381D02*
X65444476Y-47458381D01*
X65396857Y-47934571D01*
X65444476Y-47886952D01*
X65539714Y-47839333D01*
X65777810Y-47839333D01*
X65873048Y-47886952D01*
X65920667Y-47934571D01*
X65968286Y-48029810D01*
X65968286Y-48267905D01*
X65920667Y-48363143D01*
X65873048Y-48410762D01*
X65777810Y-48458381D01*
X65539714Y-48458381D01*
X65444476Y-48410762D01*
X65396857Y-48363143D01*
D14*
X52820000Y-77098000D02*
X52820000Y-73778000D01*
X52820000Y-73778000D02*
X43700000Y-73778000D01*
X43700000Y-73778000D02*
X43700000Y-77098000D01*
X43700000Y-77098000D02*
X52820000Y-77098000D01*
X53630000Y-75438000D02*
X52820000Y-75438000D01*
X42890000Y-75438000D02*
X43700000Y-75438000D01*
X23876000Y-120904000D02*
X23876000Y-110744000D01*
X22606000Y-120904000D02*
X30226000Y-120904000D01*
X30226000Y-120904000D02*
X30226000Y-110744000D01*
X30226000Y-110744000D02*
X22606000Y-110744000D01*
X22606000Y-110744000D02*
X22606000Y-120904000D01*
X61696000Y-55078000D02*
X61696000Y-62698000D01*
X57176000Y-55078000D02*
X57176000Y-62698000D01*
X61696000Y-55078000D02*
X57176000Y-55078000D01*
X61696000Y-62698000D02*
X57176000Y-62698000D01*
X78350000Y-126226000D02*
X81670000Y-126226000D01*
X81670000Y-126226000D02*
X81670000Y-117106000D01*
X81670000Y-117106000D02*
X78350000Y-117106000D01*
X78350000Y-117106000D02*
X78350000Y-126226000D01*
X80010000Y-127036000D02*
X80010000Y-126226000D01*
X80010000Y-116296000D02*
X80010000Y-117106000D01*
X47578000Y-125970000D02*
X47578000Y-123620000D01*
X42528000Y-127420000D02*
X42528000Y-123870000D01*
X44278000Y-127420000D02*
X42528000Y-127420000D01*
X50878000Y-127420000D02*
X52628000Y-127420000D01*
X52628000Y-127420000D02*
X52628000Y-123820000D01*
X47578000Y-126020000D02*
X46628000Y-125020000D01*
X47528000Y-126020000D02*
X48528000Y-125070000D01*
X50878000Y-126020000D02*
X50878000Y-128720000D01*
X50878000Y-128720000D02*
X44278000Y-128720000D01*
X44278000Y-128720000D02*
X44278000Y-126020000D01*
X44278000Y-126020000D02*
X50878000Y-126020000D01*
X55600000Y-98258000D02*
X55600000Y-105878000D01*
X51080000Y-98258000D02*
X51080000Y-105878000D01*
X55600000Y-98258000D02*
X51080000Y-98258000D01*
X55600000Y-105878000D02*
X51080000Y-105878000D01*
X30560000Y-76482000D02*
X21760000Y-76482000D01*
X21760000Y-76482000D02*
X21760000Y-67282000D01*
X36460000Y-73782000D02*
X36460000Y-76482000D01*
X36460000Y-76482000D02*
X34560000Y-76482000D01*
X21760000Y-67282000D02*
X36460000Y-67282000D01*
X36460000Y-67282000D02*
X36460000Y-69882000D01*
X82041538Y-41852000D02*
G75*
G03X83586830Y-36302000I462J2990000D01*
G01*
X82042462Y-41852000D02*
G75*
G02X80497170Y-36302000I-462J2990000D01*
G01*
X84542000Y-38862000D02*
G75*
G03X84542000Y-38862000I-2500000J0D01*
G01*
X83587000Y-36302000D02*
X80497000Y-36302000D01*
X60706000Y-69850000D02*
G75*
G03X60706000Y-69850000I-2286000J0D01*
G01*
X60706000Y-76200000D02*
G75*
G03X60706000Y-76200000I-2286000J0D01*
G01*
X67564000Y-58674000D02*
G75*
G03X67564000Y-58674000I-2286000J0D01*
G01*
X72644000Y-58674000D02*
G75*
G03X72644000Y-58674000I-2286000J0D01*
G01*
D15*
X19812000Y-79248000D02*
X32512000Y-79248000D01*
X19812000Y-91948000D02*
X32512000Y-91948000D01*
X19812000Y-90678000D02*
X19812000Y-79248000D01*
X32512000Y-79248000D02*
X32512000Y-91948000D01*
X19812000Y-91948000D02*
X19812000Y-90678000D01*
X27432000Y-85598000D02*
X26162000Y-85598000D01*
X26162000Y-85598000D02*
X27432000Y-86868000D01*
X26162000Y-85598000D02*
X27432000Y-84328000D01*
D14*
X80908000Y-50304000D02*
X77588000Y-50304000D01*
X77588000Y-50304000D02*
X77588000Y-59424000D01*
X77588000Y-59424000D02*
X80908000Y-59424000D01*
X80908000Y-59424000D02*
X80908000Y-50304000D01*
X79248000Y-49494000D02*
X79248000Y-50304000D01*
X79248000Y-60234000D02*
X79248000Y-59424000D01*
X77098000Y-50304000D02*
X73778000Y-50304000D01*
X73778000Y-50304000D02*
X73778000Y-59424000D01*
X73778000Y-59424000D02*
X77098000Y-59424000D01*
X77098000Y-59424000D02*
X77098000Y-50304000D01*
X75438000Y-49494000D02*
X75438000Y-50304000D01*
X75438000Y-60234000D02*
X75438000Y-59424000D01*
X77588000Y-105398000D02*
X80908000Y-105398000D01*
X80908000Y-105398000D02*
X80908000Y-96278000D01*
X80908000Y-96278000D02*
X77588000Y-96278000D01*
X77588000Y-96278000D02*
X77588000Y-105398000D01*
X79248000Y-106208000D02*
X79248000Y-105398000D01*
X79248000Y-95468000D02*
X79248000Y-96278000D01*
X80908000Y-80022000D02*
X77588000Y-80022000D01*
X77588000Y-80022000D02*
X77588000Y-89142000D01*
X77588000Y-89142000D02*
X80908000Y-89142000D01*
X80908000Y-89142000D02*
X80908000Y-80022000D01*
X79248000Y-79212000D02*
X79248000Y-80022000D01*
X79248000Y-89952000D02*
X79248000Y-89142000D01*
X73524000Y-84316000D02*
X76844000Y-84316000D01*
X76844000Y-84316000D02*
X76844000Y-75196000D01*
X76844000Y-75196000D02*
X73524000Y-75196000D01*
X73524000Y-75196000D02*
X73524000Y-84316000D01*
X75184000Y-85126000D02*
X75184000Y-84316000D01*
X75184000Y-74386000D02*
X75184000Y-75196000D01*
X36712000Y-89928000D02*
X33392000Y-89928000D01*
X33392000Y-89928000D02*
X33392000Y-99048000D01*
X33392000Y-99048000D02*
X36712000Y-99048000D01*
X36712000Y-99048000D02*
X36712000Y-89928000D01*
X35052000Y-89118000D02*
X35052000Y-89928000D01*
X35052000Y-99858000D02*
X35052000Y-99048000D01*
X92188000Y-50974000D02*
X89838000Y-50974000D01*
X93638000Y-56024000D02*
X90088000Y-56024000D01*
X93638000Y-54274000D02*
X93638000Y-56024000D01*
X93638000Y-47674000D02*
X93638000Y-45924000D01*
X93638000Y-45924000D02*
X90038000Y-45924000D01*
X92238000Y-50974000D02*
X91238000Y-51924000D01*
X92238000Y-51024000D02*
X91288000Y-50024000D01*
X92238000Y-47674000D02*
X94938000Y-47674000D01*
X94938000Y-47674000D02*
X94938000Y-54274000D01*
X94938000Y-54274000D02*
X92238000Y-54274000D01*
X92238000Y-54274000D02*
X92238000Y-47674000D01*
X92188000Y-68246000D02*
X89838000Y-68246000D01*
X93638000Y-73296000D02*
X90088000Y-73296000D01*
X93638000Y-71546000D02*
X93638000Y-73296000D01*
X93638000Y-64946000D02*
X93638000Y-63196000D01*
X93638000Y-63196000D02*
X90038000Y-63196000D01*
X92238000Y-68246000D02*
X91238000Y-69196000D01*
X92238000Y-68296000D02*
X91288000Y-67296000D01*
X92238000Y-64946000D02*
X94938000Y-64946000D01*
X94938000Y-64946000D02*
X94938000Y-71546000D01*
X94938000Y-71546000D02*
X92238000Y-71546000D01*
X92238000Y-71546000D02*
X92238000Y-64946000D01*
X91934000Y-102536000D02*
X89584000Y-102536000D01*
X93384000Y-107586000D02*
X89834000Y-107586000D01*
X93384000Y-105836000D02*
X93384000Y-107586000D01*
X93384000Y-99236000D02*
X93384000Y-97486000D01*
X93384000Y-97486000D02*
X89784000Y-97486000D01*
X91984000Y-102536000D02*
X90984000Y-103486000D01*
X91984000Y-102586000D02*
X91034000Y-101586000D01*
X91984000Y-99236000D02*
X94684000Y-99236000D01*
X94684000Y-99236000D02*
X94684000Y-105836000D01*
X94684000Y-105836000D02*
X91984000Y-105836000D01*
X91984000Y-105836000D02*
X91984000Y-99236000D01*
X92188000Y-85518000D02*
X89838000Y-85518000D01*
X93638000Y-90568000D02*
X90088000Y-90568000D01*
X93638000Y-88818000D02*
X93638000Y-90568000D01*
X93638000Y-82218000D02*
X93638000Y-80468000D01*
X93638000Y-80468000D02*
X90038000Y-80468000D01*
X92238000Y-85518000D02*
X91238000Y-86468000D01*
X92238000Y-85568000D02*
X91288000Y-84568000D01*
X92238000Y-82218000D02*
X94938000Y-82218000D01*
X94938000Y-82218000D02*
X94938000Y-88818000D01*
X94938000Y-88818000D02*
X92238000Y-88818000D01*
X92238000Y-88818000D02*
X92238000Y-82218000D01*
X57344000Y-48022000D02*
G75*
G02X57344000Y-50022000I0J-1000000D01*
G01*
X57344000Y-50022000D02*
X57344000Y-51672000D01*
X57344000Y-51672000D02*
X67624000Y-51672000D01*
X67624000Y-51672000D02*
X67624000Y-46372000D01*
X67624000Y-46372000D02*
X57344000Y-46372000D01*
X57344000Y-46372000D02*
X57344000Y-48022000D01*
X57284000Y-54162000D02*
X67684000Y-54162000D01*
X67684000Y-54162000D02*
X67684000Y-43882000D01*
X67684000Y-43882000D02*
X57284000Y-43882000D01*
X57284000Y-43882000D02*
X57284000Y-54162000D01*
X57852000Y-95774000D02*
G75*
G02X57852000Y-97774000I0J-1000000D01*
G01*
X57852000Y-97774000D02*
X57852000Y-99424000D01*
X57852000Y-99424000D02*
X68132000Y-99424000D01*
X68132000Y-99424000D02*
X68132000Y-94124000D01*
X68132000Y-94124000D02*
X57852000Y-94124000D01*
X57852000Y-94124000D02*
X57852000Y-95774000D01*
X57792000Y-101914000D02*
X68192000Y-101914000D01*
X68192000Y-101914000D02*
X68192000Y-91634000D01*
X68192000Y-91634000D02*
X57792000Y-91634000D01*
X57792000Y-91634000D02*
X57792000Y-101914000D01*
X62170000Y-74184000D02*
G75*
G02X62170000Y-76184000I0J-1000000D01*
G01*
X62170000Y-76184000D02*
X62170000Y-77834000D01*
X62170000Y-77834000D02*
X72450000Y-77834000D01*
X72450000Y-77834000D02*
X72450000Y-72534000D01*
X72450000Y-72534000D02*
X62170000Y-72534000D01*
X62170000Y-72534000D02*
X62170000Y-74184000D01*
X62110000Y-80324000D02*
X72510000Y-80324000D01*
X72510000Y-80324000D02*
X72510000Y-70044000D01*
X72510000Y-70044000D02*
X62110000Y-70044000D01*
X62110000Y-70044000D02*
X62110000Y-80324000D01*
X21336000Y-126746000D02*
G75*
G03X21336000Y-126746000I-2286000J0D01*
G01*
X93726000Y-127254000D02*
G75*
G03X93726000Y-127254000I-2286000J0D01*
G01*
X93472000Y-38100000D02*
G75*
G03X93472000Y-38100000I-2286000J0D01*
G01*
X21336000Y-37846000D02*
G75*
G03X21336000Y-37846000I-2286000J0D01*
G01*
X92964000Y-111506000D02*
G75*
G03X92964000Y-111506000I-2286000J0D01*
G01*
X87630000Y-111506000D02*
G75*
G03X87630000Y-111506000I-2286000J0D01*
G01*
X82042000Y-111506000D02*
G75*
G03X82042000Y-111506000I-2286000J0D01*
G01*
X45602000Y-90182000D02*
X42282000Y-90182000D01*
X42282000Y-90182000D02*
X42282000Y-99302000D01*
X42282000Y-99302000D02*
X45602000Y-99302000D01*
X45602000Y-99302000D02*
X45602000Y-90182000D01*
X43942000Y-89372000D02*
X43942000Y-90182000D01*
X43942000Y-100112000D02*
X43942000Y-99302000D01*
X85734000Y-117106000D02*
X82414000Y-117106000D01*
X82414000Y-117106000D02*
X82414000Y-126226000D01*
X82414000Y-126226000D02*
X85734000Y-126226000D01*
X85734000Y-126226000D02*
X85734000Y-117106000D01*
X84074000Y-116296000D02*
X84074000Y-117106000D01*
X84074000Y-127036000D02*
X84074000Y-126226000D01*
X40268000Y-105422000D02*
X36948000Y-105422000D01*
X36948000Y-105422000D02*
X36948000Y-114542000D01*
X36948000Y-114542000D02*
X40268000Y-114542000D01*
X40268000Y-114542000D02*
X40268000Y-105422000D01*
X38608000Y-104612000D02*
X38608000Y-105422000D01*
X38608000Y-115352000D02*
X38608000Y-114542000D01*
X49920000Y-90182000D02*
X46600000Y-90182000D01*
X46600000Y-90182000D02*
X46600000Y-99302000D01*
X46600000Y-99302000D02*
X49920000Y-99302000D01*
X49920000Y-99302000D02*
X49920000Y-90182000D01*
X48260000Y-89372000D02*
X48260000Y-90182000D01*
X48260000Y-100112000D02*
X48260000Y-99302000D01*
X39878000Y-38100000D02*
X50038000Y-38100000D01*
X39878000Y-36830000D02*
X39878000Y-44450000D01*
X39878000Y-44450000D02*
X50038000Y-44450000D01*
X50038000Y-44450000D02*
X50038000Y-36830000D01*
X50038000Y-36830000D02*
X39878000Y-36830000D01*
X50740000Y-112030000D02*
G75*
G02X50740000Y-114030000I0J-1000000D01*
G01*
X50740000Y-114030000D02*
X50740000Y-115680000D01*
X50740000Y-115680000D02*
X68640000Y-115680000D01*
X68640000Y-115680000D02*
X68640000Y-110380000D01*
X68640000Y-110380000D02*
X50740000Y-110380000D01*
X50740000Y-110380000D02*
X50740000Y-112030000D01*
X50680000Y-118170000D02*
X68700000Y-118170000D01*
X68700000Y-118170000D02*
X68700000Y-107890000D01*
X68700000Y-107890000D02*
X50680000Y-107890000D01*
X50680000Y-107890000D02*
X50680000Y-118170000D01*
X41284000Y-89928000D02*
X37964000Y-89928000D01*
X37964000Y-89928000D02*
X37964000Y-99048000D01*
X37964000Y-99048000D02*
X41284000Y-99048000D01*
X41284000Y-99048000D02*
X41284000Y-89928000D01*
X39624000Y-89118000D02*
X39624000Y-89928000D01*
X39624000Y-99858000D02*
X39624000Y-99048000D01*
X22606000Y-93980000D02*
X30226000Y-93980000D01*
X22606000Y-109220000D02*
X30226000Y-109220000D01*
X23876000Y-93980000D02*
X23876000Y-109220000D01*
X30226000Y-93980000D02*
X30226000Y-109220000D01*
X22606000Y-93980000D02*
X22606000Y-109220000D01*
X78460000Y-39076000D02*
X78460000Y-46696000D01*
X73940000Y-39076000D02*
X73940000Y-46696000D01*
X78460000Y-39076000D02*
X73940000Y-39076000D01*
X78460000Y-46696000D02*
X73940000Y-46696000D01*
X75666000Y-91908000D02*
X75666000Y-99528000D01*
X71146000Y-91908000D02*
X71146000Y-99528000D01*
X75666000Y-91908000D02*
X71146000Y-91908000D01*
X75666000Y-99528000D02*
X71146000Y-99528000D01*
X67350000Y-107416000D02*
X59730000Y-107416000D01*
X67350000Y-102896000D02*
X59730000Y-102896000D01*
X67350000Y-107416000D02*
X67350000Y-102896000D01*
X59730000Y-107416000D02*
X59730000Y-102896000D01*
X68286000Y-103150000D02*
X75906000Y-103150000D01*
X68286000Y-107670000D02*
X75906000Y-107670000D01*
X68286000Y-103150000D02*
X68286000Y-107670000D01*
X75906000Y-103150000D02*
X75906000Y-107670000D01*
X72176000Y-86334000D02*
X64556000Y-86334000D01*
X72176000Y-81814000D02*
X64556000Y-81814000D01*
X72176000Y-86334000D02*
X72176000Y-81814000D01*
X64556000Y-86334000D02*
X64556000Y-81814000D01*
X74448000Y-71414000D02*
X74448000Y-63794000D01*
X78968000Y-71414000D02*
X78968000Y-63794000D01*
X74448000Y-71414000D02*
X78968000Y-71414000D01*
X74448000Y-63794000D02*
X78968000Y-63794000D01*
X61682000Y-63780000D02*
X69302000Y-63780000D01*
X61682000Y-68300000D02*
X69302000Y-68300000D01*
X61682000Y-63780000D02*
X61682000Y-68300000D01*
X69302000Y-63780000D02*
X69302000Y-68300000D01*
X86828000Y-115342000D02*
X94448000Y-115342000D01*
X86828000Y-119862000D02*
X94448000Y-119862000D01*
X86828000Y-115342000D02*
X86828000Y-119862000D01*
X94448000Y-115342000D02*
X94448000Y-119862000D01*
X65746000Y-38380000D02*
X73366000Y-38380000D01*
X65746000Y-42900000D02*
X73366000Y-42900000D01*
X65746000Y-38380000D02*
X65746000Y-42900000D01*
X73366000Y-38380000D02*
X73366000Y-42900000D01*
X40680000Y-122402000D02*
X33060000Y-122402000D01*
X40680000Y-117882000D02*
X33060000Y-117882000D01*
X40680000Y-122402000D02*
X40680000Y-117882000D01*
X33060000Y-122402000D02*
X33060000Y-117882000D01*
X35950000Y-105422000D02*
X32630000Y-105422000D01*
X32630000Y-105422000D02*
X32630000Y-114542000D01*
X32630000Y-114542000D02*
X35950000Y-114542000D01*
X35950000Y-114542000D02*
X35950000Y-105422000D01*
X34290000Y-104612000D02*
X34290000Y-105422000D01*
X34290000Y-115352000D02*
X34290000Y-114542000D01*
X68860000Y-115864000D02*
X68860000Y-108244000D01*
X73380000Y-115864000D02*
X73380000Y-108244000D01*
X68860000Y-115864000D02*
X73380000Y-115864000D01*
X68860000Y-108244000D02*
X73380000Y-108244000D01*
X27444000Y-123562000D02*
X27444000Y-126882000D01*
X27444000Y-126882000D02*
X36564000Y-126882000D01*
X36564000Y-126882000D02*
X36564000Y-123562000D01*
X36564000Y-123562000D02*
X27444000Y-123562000D01*
X26634000Y-125222000D02*
X27444000Y-125222000D01*
X37374000Y-125222000D02*
X36564000Y-125222000D01*
X38954555Y-78165149D02*
G75*
G03X38952000Y-85998082I1177445J-3916851D01*
G01*
X41309445Y-78165149D02*
G75*
G02X41312000Y-85998082I-1177445J-3916851D01*
G01*
X41309445Y-78165149D02*
G75*
G03X38952000Y-78165918I-1177445J-3916851D01*
G01*
X36082000Y-82082000D02*
X44182000Y-82082000D01*
X36082000Y-82042000D02*
X44182000Y-82042000D01*
X36082000Y-82002000D02*
X44182000Y-82002000D01*
X36083000Y-81962000D02*
X44181000Y-81962000D01*
X36085000Y-81922000D02*
X44179000Y-81922000D01*
X36086000Y-81882000D02*
X44178000Y-81882000D01*
X36089000Y-81842000D02*
X44175000Y-81842000D01*
X36091000Y-81802000D02*
X44173000Y-81802000D01*
X36094000Y-81762000D02*
X44170000Y-81762000D01*
X36097000Y-81722000D02*
X44167000Y-81722000D01*
X36101000Y-81682000D02*
X44163000Y-81682000D01*
X36105000Y-81642000D02*
X44159000Y-81642000D01*
X36110000Y-81602000D02*
X44154000Y-81602000D01*
X36115000Y-81562000D02*
X44149000Y-81562000D01*
X36120000Y-81522000D02*
X44144000Y-81522000D01*
X36126000Y-81482000D02*
X44138000Y-81482000D01*
X36132000Y-81442000D02*
X44132000Y-81442000D01*
X36138000Y-81402000D02*
X44126000Y-81402000D01*
X36145000Y-81361000D02*
X44119000Y-81361000D01*
X36153000Y-81321000D02*
X44111000Y-81321000D01*
X36161000Y-81281000D02*
X44103000Y-81281000D01*
X36169000Y-81241000D02*
X44095000Y-81241000D01*
X36177000Y-81201000D02*
X44087000Y-81201000D01*
X36186000Y-81161000D02*
X44078000Y-81161000D01*
X36196000Y-81121000D02*
X44068000Y-81121000D01*
X36206000Y-81081000D02*
X44058000Y-81081000D01*
X36216000Y-81041000D02*
X44048000Y-81041000D01*
X36227000Y-81001000D02*
X44037000Y-81001000D01*
X36238000Y-80961000D02*
X44026000Y-80961000D01*
X36249000Y-80921000D02*
X44015000Y-80921000D01*
X36262000Y-80881000D02*
X44002000Y-80881000D01*
X36274000Y-80841000D02*
X43990000Y-80841000D01*
X36287000Y-80801000D02*
X43977000Y-80801000D01*
X36300000Y-80761000D02*
X43964000Y-80761000D01*
X36314000Y-80721000D02*
X43950000Y-80721000D01*
X36329000Y-80681000D02*
X43935000Y-80681000D01*
X36343000Y-80641000D02*
X43921000Y-80641000D01*
X36359000Y-80601000D02*
X43905000Y-80601000D01*
X36374000Y-80561000D02*
X39152000Y-80561000D01*
X41112000Y-80561000D02*
X43890000Y-80561000D01*
X36391000Y-80521000D02*
X39152000Y-80521000D01*
X41112000Y-80521000D02*
X43873000Y-80521000D01*
X36407000Y-80481000D02*
X39152000Y-80481000D01*
X41112000Y-80481000D02*
X43857000Y-80481000D01*
X36425000Y-80441000D02*
X39152000Y-80441000D01*
X41112000Y-80441000D02*
X43839000Y-80441000D01*
X36442000Y-80401000D02*
X39152000Y-80401000D01*
X41112000Y-80401000D02*
X43822000Y-80401000D01*
X36461000Y-80361000D02*
X39152000Y-80361000D01*
X41112000Y-80361000D02*
X43803000Y-80361000D01*
X36480000Y-80321000D02*
X39152000Y-80321000D01*
X41112000Y-80321000D02*
X43784000Y-80321000D01*
X36499000Y-80281000D02*
X39152000Y-80281000D01*
X41112000Y-80281000D02*
X43765000Y-80281000D01*
X36519000Y-80241000D02*
X39152000Y-80241000D01*
X41112000Y-80241000D02*
X43745000Y-80241000D01*
X36539000Y-80201000D02*
X39152000Y-80201000D01*
X41112000Y-80201000D02*
X43725000Y-80201000D01*
X36560000Y-80161000D02*
X39152000Y-80161000D01*
X41112000Y-80161000D02*
X43704000Y-80161000D01*
X36582000Y-80121000D02*
X39152000Y-80121000D01*
X41112000Y-80121000D02*
X43682000Y-80121000D01*
X36604000Y-80081000D02*
X39152000Y-80081000D01*
X41112000Y-80081000D02*
X43660000Y-80081000D01*
X36627000Y-80041000D02*
X39152000Y-80041000D01*
X41112000Y-80041000D02*
X43637000Y-80041000D01*
X36650000Y-80001000D02*
X39152000Y-80001000D01*
X41112000Y-80001000D02*
X43614000Y-80001000D01*
X36674000Y-79961000D02*
X39152000Y-79961000D01*
X41112000Y-79961000D02*
X43590000Y-79961000D01*
X36698000Y-79921000D02*
X39152000Y-79921000D01*
X41112000Y-79921000D02*
X43566000Y-79921000D01*
X36724000Y-79881000D02*
X39152000Y-79881000D01*
X41112000Y-79881000D02*
X43540000Y-79881000D01*
X36749000Y-79841000D02*
X39152000Y-79841000D01*
X41112000Y-79841000D02*
X43515000Y-79841000D01*
X36776000Y-79801000D02*
X39152000Y-79801000D01*
X41112000Y-79801000D02*
X43488000Y-79801000D01*
X36803000Y-79761000D02*
X39152000Y-79761000D01*
X41112000Y-79761000D02*
X43461000Y-79761000D01*
X36831000Y-79721000D02*
X39152000Y-79721000D01*
X41112000Y-79721000D02*
X43433000Y-79721000D01*
X36860000Y-79681000D02*
X39152000Y-79681000D01*
X41112000Y-79681000D02*
X43404000Y-79681000D01*
X36889000Y-79641000D02*
X39152000Y-79641000D01*
X41112000Y-79641000D02*
X43375000Y-79641000D01*
X36919000Y-79601000D02*
X39152000Y-79601000D01*
X41112000Y-79601000D02*
X43345000Y-79601000D01*
X36950000Y-79561000D02*
X39152000Y-79561000D01*
X41112000Y-79561000D02*
X43314000Y-79561000D01*
X36982000Y-79521000D02*
X39152000Y-79521000D01*
X41112000Y-79521000D02*
X43282000Y-79521000D01*
X37014000Y-79481000D02*
X39152000Y-79481000D01*
X41112000Y-79481000D02*
X43250000Y-79481000D01*
X37048000Y-79441000D02*
X39152000Y-79441000D01*
X41112000Y-79441000D02*
X43216000Y-79441000D01*
X37082000Y-79401000D02*
X39152000Y-79401000D01*
X41112000Y-79401000D02*
X43182000Y-79401000D01*
X37117000Y-79361000D02*
X39152000Y-79361000D01*
X41112000Y-79361000D02*
X43147000Y-79361000D01*
X37153000Y-79321000D02*
X39152000Y-79321000D01*
X41112000Y-79321000D02*
X43111000Y-79321000D01*
X37190000Y-79281000D02*
X39152000Y-79281000D01*
X41112000Y-79281000D02*
X43074000Y-79281000D01*
X37228000Y-79241000D02*
X39152000Y-79241000D01*
X41112000Y-79241000D02*
X43036000Y-79241000D01*
X37267000Y-79201000D02*
X39152000Y-79201000D01*
X41112000Y-79201000D02*
X42997000Y-79201000D01*
X37308000Y-79161000D02*
X39152000Y-79161000D01*
X41112000Y-79161000D02*
X42956000Y-79161000D01*
X37349000Y-79121000D02*
X39152000Y-79121000D01*
X41112000Y-79121000D02*
X42915000Y-79121000D01*
X37392000Y-79081000D02*
X39152000Y-79081000D01*
X41112000Y-79081000D02*
X42872000Y-79081000D01*
X37435000Y-79041000D02*
X39152000Y-79041000D01*
X41112000Y-79041000D02*
X42829000Y-79041000D01*
X37480000Y-79001000D02*
X39152000Y-79001000D01*
X41112000Y-79001000D02*
X42784000Y-79001000D01*
X37527000Y-78961000D02*
X39152000Y-78961000D01*
X41112000Y-78961000D02*
X42737000Y-78961000D01*
X37575000Y-78921000D02*
X39152000Y-78921000D01*
X41112000Y-78921000D02*
X42689000Y-78921000D01*
X37624000Y-78881000D02*
X39152000Y-78881000D01*
X41112000Y-78881000D02*
X42640000Y-78881000D01*
X37675000Y-78841000D02*
X39152000Y-78841000D01*
X41112000Y-78841000D02*
X42589000Y-78841000D01*
X37728000Y-78801000D02*
X39152000Y-78801000D01*
X41112000Y-78801000D02*
X42536000Y-78801000D01*
X37783000Y-78761000D02*
X39152000Y-78761000D01*
X41112000Y-78761000D02*
X42481000Y-78761000D01*
X37839000Y-78721000D02*
X39152000Y-78721000D01*
X41112000Y-78721000D02*
X42425000Y-78721000D01*
X37898000Y-78681000D02*
X39152000Y-78681000D01*
X41112000Y-78681000D02*
X42366000Y-78681000D01*
X37959000Y-78641000D02*
X39152000Y-78641000D01*
X41112000Y-78641000D02*
X42305000Y-78641000D01*
X38023000Y-78601000D02*
X42241000Y-78601000D01*
X38089000Y-78561000D02*
X42175000Y-78561000D01*
X38158000Y-78521000D02*
X42106000Y-78521000D01*
X38230000Y-78481000D02*
X42034000Y-78481000D01*
X38306000Y-78441000D02*
X41958000Y-78441000D01*
X38387000Y-78401000D02*
X41877000Y-78401000D01*
X38472000Y-78361000D02*
X41792000Y-78361000D01*
X38562000Y-78321000D02*
X41702000Y-78321000D01*
X38659000Y-78281000D02*
X41605000Y-78281000D01*
X38763000Y-78241000D02*
X41501000Y-78241000D01*
X38878000Y-78201000D02*
X41386000Y-78201000D01*
X39005000Y-78161000D02*
X41259000Y-78161000D01*
X39149000Y-78121000D02*
X41115000Y-78121000D01*
X39318000Y-78081000D02*
X40946000Y-78081000D01*
X39534000Y-78041000D02*
X40730000Y-78041000D01*
X39886000Y-78001000D02*
X40378000Y-78001000D01*
X40132000Y-86782000D02*
X40132000Y-85582000D01*
X39482000Y-86182000D02*
X40782000Y-86182000D01*
X56668000Y-90464000D02*
X56668000Y-82844000D01*
X61188000Y-90464000D02*
X61188000Y-82844000D01*
X56668000Y-90464000D02*
X61188000Y-90464000D01*
X56668000Y-82844000D02*
X61188000Y-82844000D01*
X81652000Y-91428000D02*
X84972000Y-91428000D01*
X84972000Y-91428000D02*
X84972000Y-82308000D01*
X84972000Y-82308000D02*
X81652000Y-82308000D01*
X81652000Y-82308000D02*
X81652000Y-91428000D01*
X83312000Y-92238000D02*
X83312000Y-91428000D01*
X83312000Y-81498000D02*
X83312000Y-82308000D01*
X56160000Y-126278000D02*
X56160000Y-118658000D01*
X60680000Y-126278000D02*
X60680000Y-118658000D01*
X56160000Y-126278000D02*
X60680000Y-126278000D01*
X56160000Y-118658000D02*
X60680000Y-118658000D01*
X41012000Y-114796000D02*
X44332000Y-114796000D01*
X44332000Y-114796000D02*
X44332000Y-105676000D01*
X44332000Y-105676000D02*
X41012000Y-105676000D01*
X41012000Y-105676000D02*
X41012000Y-114796000D01*
X42672000Y-115606000D02*
X42672000Y-114796000D01*
X42672000Y-104866000D02*
X42672000Y-105676000D01*
X45076000Y-114796000D02*
X48396000Y-114796000D01*
X48396000Y-114796000D02*
X48396000Y-105676000D01*
X48396000Y-105676000D02*
X45076000Y-105676000D01*
X45076000Y-105676000D02*
X45076000Y-114796000D01*
X46736000Y-115606000D02*
X46736000Y-114796000D01*
X46736000Y-104866000D02*
X46736000Y-105676000D01*
X84338000Y-49918000D02*
X84468000Y-49918000D01*
X84468000Y-49918000D02*
X84468000Y-55238000D01*
X84468000Y-55238000D02*
X84338000Y-55238000D01*
X81778000Y-49918000D02*
X81648000Y-49918000D01*
X81648000Y-49918000D02*
X81648000Y-55238000D01*
X81648000Y-55238000D02*
X81778000Y-55238000D01*
X84468000Y-50758000D02*
X81648000Y-50758000D01*
X84592000Y-66682000D02*
X84722000Y-66682000D01*
X84722000Y-66682000D02*
X84722000Y-72002000D01*
X84722000Y-72002000D02*
X84592000Y-72002000D01*
X82032000Y-66682000D02*
X81902000Y-66682000D01*
X81902000Y-66682000D02*
X81902000Y-72002000D01*
X81902000Y-72002000D02*
X82032000Y-72002000D01*
X84722000Y-67522000D02*
X81902000Y-67522000D01*
X71494000Y-90180000D02*
X71494000Y-90310000D01*
X71494000Y-90310000D02*
X66174000Y-90310000D01*
X66174000Y-90310000D02*
X66174000Y-90180000D01*
X71494000Y-87620000D02*
X71494000Y-87490000D01*
X71494000Y-87490000D02*
X66174000Y-87490000D01*
X66174000Y-87490000D02*
X66174000Y-87620000D01*
X70654000Y-90310000D02*
X70654000Y-87490000D01*
X51552000Y-95116000D02*
X51422000Y-95116000D01*
X51422000Y-95116000D02*
X51422000Y-89796000D01*
X51422000Y-89796000D02*
X51552000Y-89796000D01*
X54112000Y-95116000D02*
X54242000Y-95116000D01*
X54242000Y-95116000D02*
X54242000Y-89796000D01*
X54242000Y-89796000D02*
X54112000Y-89796000D01*
X51422000Y-94276000D02*
X54242000Y-94276000D01*
X73780000Y-122438000D02*
X73780000Y-122568000D01*
X73780000Y-122568000D02*
X68460000Y-122568000D01*
X68460000Y-122568000D02*
X68460000Y-122438000D01*
X73780000Y-119878000D02*
X73780000Y-119748000D01*
X73780000Y-119748000D02*
X68460000Y-119748000D01*
X68460000Y-119748000D02*
X68460000Y-119878000D01*
X72940000Y-122568000D02*
X72940000Y-119748000D01*
X73780000Y-125994000D02*
X73780000Y-126124000D01*
X73780000Y-126124000D02*
X68460000Y-126124000D01*
X68460000Y-126124000D02*
X68460000Y-125994000D01*
X73780000Y-123434000D02*
X73780000Y-123304000D01*
X73780000Y-123304000D02*
X68460000Y-123304000D01*
X68460000Y-123304000D02*
X68460000Y-123434000D01*
X72940000Y-126124000D02*
X72940000Y-123304000D01*
X55438851Y-48098555D02*
G75*
G03X47605918Y-48096000I-3916851J-1177445D01*
G01*
X55438851Y-50453445D02*
G75*
G02X47605918Y-50456000I-3916851J1177445D01*
G01*
X55438851Y-50453445D02*
G75*
G03X55438082Y-48096000I-3916851J1177445D01*
G01*
X51522000Y-45226000D02*
X51522000Y-53326000D01*
X51562000Y-45226000D02*
X51562000Y-53326000D01*
X51602000Y-45226000D02*
X51602000Y-53326000D01*
X51642000Y-45227000D02*
X51642000Y-53325000D01*
X51682000Y-45229000D02*
X51682000Y-53323000D01*
X51722000Y-45230000D02*
X51722000Y-53322000D01*
X51762000Y-45233000D02*
X51762000Y-53319000D01*
X51802000Y-45235000D02*
X51802000Y-53317000D01*
X51842000Y-45238000D02*
X51842000Y-53314000D01*
X51882000Y-45241000D02*
X51882000Y-53311000D01*
X51922000Y-45245000D02*
X51922000Y-53307000D01*
X51962000Y-45249000D02*
X51962000Y-53303000D01*
X52002000Y-45254000D02*
X52002000Y-53298000D01*
X52042000Y-45259000D02*
X52042000Y-53293000D01*
X52082000Y-45264000D02*
X52082000Y-53288000D01*
X52122000Y-45270000D02*
X52122000Y-53282000D01*
X52162000Y-45276000D02*
X52162000Y-53276000D01*
X52202000Y-45282000D02*
X52202000Y-53270000D01*
X52243000Y-45289000D02*
X52243000Y-53263000D01*
X52283000Y-45297000D02*
X52283000Y-53255000D01*
X52323000Y-45305000D02*
X52323000Y-53247000D01*
X52363000Y-45313000D02*
X52363000Y-53239000D01*
X52403000Y-45321000D02*
X52403000Y-53231000D01*
X52443000Y-45330000D02*
X52443000Y-53222000D01*
X52483000Y-45340000D02*
X52483000Y-53212000D01*
X52523000Y-45350000D02*
X52523000Y-53202000D01*
X52563000Y-45360000D02*
X52563000Y-53192000D01*
X52603000Y-45371000D02*
X52603000Y-53181000D01*
X52643000Y-45382000D02*
X52643000Y-53170000D01*
X52683000Y-45393000D02*
X52683000Y-53159000D01*
X52723000Y-45406000D02*
X52723000Y-53146000D01*
X52763000Y-45418000D02*
X52763000Y-53134000D01*
X52803000Y-45431000D02*
X52803000Y-53121000D01*
X52843000Y-45444000D02*
X52843000Y-53108000D01*
X52883000Y-45458000D02*
X52883000Y-53094000D01*
X52923000Y-45473000D02*
X52923000Y-53079000D01*
X52963000Y-45487000D02*
X52963000Y-53065000D01*
X53003000Y-45503000D02*
X53003000Y-53049000D01*
X53043000Y-45518000D02*
X53043000Y-48296000D01*
X53043000Y-50256000D02*
X53043000Y-53034000D01*
X53083000Y-45535000D02*
X53083000Y-48296000D01*
X53083000Y-50256000D02*
X53083000Y-53017000D01*
X53123000Y-45551000D02*
X53123000Y-48296000D01*
X53123000Y-50256000D02*
X53123000Y-53001000D01*
X53163000Y-45569000D02*
X53163000Y-48296000D01*
X53163000Y-50256000D02*
X53163000Y-52983000D01*
X53203000Y-45586000D02*
X53203000Y-48296000D01*
X53203000Y-50256000D02*
X53203000Y-52966000D01*
X53243000Y-45605000D02*
X53243000Y-48296000D01*
X53243000Y-50256000D02*
X53243000Y-52947000D01*
X53283000Y-45624000D02*
X53283000Y-48296000D01*
X53283000Y-50256000D02*
X53283000Y-52928000D01*
X53323000Y-45643000D02*
X53323000Y-48296000D01*
X53323000Y-50256000D02*
X53323000Y-52909000D01*
X53363000Y-45663000D02*
X53363000Y-48296000D01*
X53363000Y-50256000D02*
X53363000Y-52889000D01*
X53403000Y-45683000D02*
X53403000Y-48296000D01*
X53403000Y-50256000D02*
X53403000Y-52869000D01*
X53443000Y-45704000D02*
X53443000Y-48296000D01*
X53443000Y-50256000D02*
X53443000Y-52848000D01*
X53483000Y-45726000D02*
X53483000Y-48296000D01*
X53483000Y-50256000D02*
X53483000Y-52826000D01*
X53523000Y-45748000D02*
X53523000Y-48296000D01*
X53523000Y-50256000D02*
X53523000Y-52804000D01*
X53563000Y-45771000D02*
X53563000Y-48296000D01*
X53563000Y-50256000D02*
X53563000Y-52781000D01*
X53603000Y-45794000D02*
X53603000Y-48296000D01*
X53603000Y-50256000D02*
X53603000Y-52758000D01*
X53643000Y-45818000D02*
X53643000Y-48296000D01*
X53643000Y-50256000D02*
X53643000Y-52734000D01*
X53683000Y-45842000D02*
X53683000Y-48296000D01*
X53683000Y-50256000D02*
X53683000Y-52710000D01*
X53723000Y-45868000D02*
X53723000Y-48296000D01*
X53723000Y-50256000D02*
X53723000Y-52684000D01*
X53763000Y-45893000D02*
X53763000Y-48296000D01*
X53763000Y-50256000D02*
X53763000Y-52659000D01*
X53803000Y-45920000D02*
X53803000Y-48296000D01*
X53803000Y-50256000D02*
X53803000Y-52632000D01*
X53843000Y-45947000D02*
X53843000Y-48296000D01*
X53843000Y-50256000D02*
X53843000Y-52605000D01*
X53883000Y-45975000D02*
X53883000Y-48296000D01*
X53883000Y-50256000D02*
X53883000Y-52577000D01*
X53923000Y-46004000D02*
X53923000Y-48296000D01*
X53923000Y-50256000D02*
X53923000Y-52548000D01*
X53963000Y-46033000D02*
X53963000Y-48296000D01*
X53963000Y-50256000D02*
X53963000Y-52519000D01*
X54003000Y-46063000D02*
X54003000Y-48296000D01*
X54003000Y-50256000D02*
X54003000Y-52489000D01*
X54043000Y-46094000D02*
X54043000Y-48296000D01*
X54043000Y-50256000D02*
X54043000Y-52458000D01*
X54083000Y-46126000D02*
X54083000Y-48296000D01*
X54083000Y-50256000D02*
X54083000Y-52426000D01*
X54123000Y-46158000D02*
X54123000Y-48296000D01*
X54123000Y-50256000D02*
X54123000Y-52394000D01*
X54163000Y-46192000D02*
X54163000Y-48296000D01*
X54163000Y-50256000D02*
X54163000Y-52360000D01*
X54203000Y-46226000D02*
X54203000Y-48296000D01*
X54203000Y-50256000D02*
X54203000Y-52326000D01*
X54243000Y-46261000D02*
X54243000Y-48296000D01*
X54243000Y-50256000D02*
X54243000Y-52291000D01*
X54283000Y-46297000D02*
X54283000Y-48296000D01*
X54283000Y-50256000D02*
X54283000Y-52255000D01*
X54323000Y-46334000D02*
X54323000Y-48296000D01*
X54323000Y-50256000D02*
X54323000Y-52218000D01*
X54363000Y-46372000D02*
X54363000Y-48296000D01*
X54363000Y-50256000D02*
X54363000Y-52180000D01*
X54403000Y-46411000D02*
X54403000Y-48296000D01*
X54403000Y-50256000D02*
X54403000Y-52141000D01*
X54443000Y-46452000D02*
X54443000Y-48296000D01*
X54443000Y-50256000D02*
X54443000Y-52100000D01*
X54483000Y-46493000D02*
X54483000Y-48296000D01*
X54483000Y-50256000D02*
X54483000Y-52059000D01*
X54523000Y-46536000D02*
X54523000Y-48296000D01*
X54523000Y-50256000D02*
X54523000Y-52016000D01*
X54563000Y-46579000D02*
X54563000Y-48296000D01*
X54563000Y-50256000D02*
X54563000Y-51973000D01*
X54603000Y-46624000D02*
X54603000Y-48296000D01*
X54603000Y-50256000D02*
X54603000Y-51928000D01*
X54643000Y-46671000D02*
X54643000Y-48296000D01*
X54643000Y-50256000D02*
X54643000Y-51881000D01*
X54683000Y-46719000D02*
X54683000Y-48296000D01*
X54683000Y-50256000D02*
X54683000Y-51833000D01*
X54723000Y-46768000D02*
X54723000Y-48296000D01*
X54723000Y-50256000D02*
X54723000Y-51784000D01*
X54763000Y-46819000D02*
X54763000Y-48296000D01*
X54763000Y-50256000D02*
X54763000Y-51733000D01*
X54803000Y-46872000D02*
X54803000Y-48296000D01*
X54803000Y-50256000D02*
X54803000Y-51680000D01*
X54843000Y-46927000D02*
X54843000Y-48296000D01*
X54843000Y-50256000D02*
X54843000Y-51625000D01*
X54883000Y-46983000D02*
X54883000Y-48296000D01*
X54883000Y-50256000D02*
X54883000Y-51569000D01*
X54923000Y-47042000D02*
X54923000Y-48296000D01*
X54923000Y-50256000D02*
X54923000Y-51510000D01*
X54963000Y-47103000D02*
X54963000Y-48296000D01*
X54963000Y-50256000D02*
X54963000Y-51449000D01*
X55003000Y-47167000D02*
X55003000Y-51385000D01*
X55043000Y-47233000D02*
X55043000Y-51319000D01*
X55083000Y-47302000D02*
X55083000Y-51250000D01*
X55123000Y-47374000D02*
X55123000Y-51178000D01*
X55163000Y-47450000D02*
X55163000Y-51102000D01*
X55203000Y-47531000D02*
X55203000Y-51021000D01*
X55243000Y-47616000D02*
X55243000Y-50936000D01*
X55283000Y-47706000D02*
X55283000Y-50846000D01*
X55323000Y-47803000D02*
X55323000Y-50749000D01*
X55363000Y-47907000D02*
X55363000Y-50645000D01*
X55403000Y-48022000D02*
X55403000Y-50530000D01*
X55443000Y-48149000D02*
X55443000Y-50403000D01*
X55483000Y-48293000D02*
X55483000Y-50259000D01*
X55523000Y-48462000D02*
X55523000Y-50090000D01*
X55563000Y-48678000D02*
X55563000Y-49874000D01*
X55603000Y-49030000D02*
X55603000Y-49522000D01*
X46822000Y-49276000D02*
X48022000Y-49276000D01*
X47422000Y-48626000D02*
X47422000Y-49926000D01*
X47886000Y-80254000D02*
X47886000Y-80124000D01*
X47886000Y-80124000D02*
X53206000Y-80124000D01*
X53206000Y-80124000D02*
X53206000Y-80254000D01*
X47886000Y-82814000D02*
X47886000Y-82944000D01*
X47886000Y-82944000D02*
X53206000Y-82944000D01*
X53206000Y-82944000D02*
X53206000Y-82814000D01*
X48726000Y-80124000D02*
X48726000Y-82944000D01*
X47632000Y-84064000D02*
X47632000Y-83934000D01*
X47632000Y-83934000D02*
X52952000Y-83934000D01*
X52952000Y-83934000D02*
X52952000Y-84064000D01*
X47632000Y-86624000D02*
X47632000Y-86754000D01*
X47632000Y-86754000D02*
X52952000Y-86754000D01*
X52952000Y-86754000D02*
X52952000Y-86624000D01*
X48472000Y-83934000D02*
X48472000Y-86754000D01*
X45854000Y-66662000D02*
X45854000Y-69482000D01*
X45854000Y-69482000D02*
X51174000Y-69482000D01*
X51174000Y-69482000D02*
X51174000Y-66662000D01*
X51174000Y-66662000D02*
X45854000Y-66662000D01*
X44714000Y-68072000D02*
X45854000Y-68072000D01*
X52314000Y-68072000D02*
X51174000Y-68072000D01*
X46694000Y-66662000D02*
X46694000Y-69482000D01*
X45854000Y-70218000D02*
X45854000Y-73038000D01*
X45854000Y-73038000D02*
X51174000Y-73038000D01*
X51174000Y-73038000D02*
X51174000Y-70218000D01*
X51174000Y-70218000D02*
X45854000Y-70218000D01*
X44714000Y-71628000D02*
X45854000Y-71628000D01*
X52314000Y-71628000D02*
X51174000Y-71628000D01*
X46694000Y-70218000D02*
X46694000Y-73038000D01*
X59944000Y-40894000D02*
G75*
G03X59944000Y-40894000I-2286000J0D01*
G01*
X54864000Y-40894000D02*
G75*
G03X54864000Y-40894000I-2286000J0D01*
G01*
X30480000Y-48256000D02*
X21840000Y-48256000D01*
X38860000Y-48256000D02*
X33780000Y-48256000D01*
X30480000Y-60456000D02*
X21840000Y-60456000D01*
X38860000Y-60456000D02*
X33780000Y-60456000D01*
X21840000Y-60456000D02*
X21840000Y-48256000D01*
X38860000Y-48256000D02*
X38860000Y-60456000D01*
X35802000Y-46110000D02*
X35802000Y-42790000D01*
X35802000Y-42790000D02*
X26682000Y-42790000D01*
X26682000Y-42790000D02*
X26682000Y-46110000D01*
X26682000Y-46110000D02*
X35802000Y-46110000D01*
X36612000Y-44450000D02*
X35802000Y-44450000D01*
X25872000Y-44450000D02*
X26682000Y-44450000D01*
X27444000Y-62348000D02*
X27444000Y-65668000D01*
X27444000Y-65668000D02*
X36564000Y-65668000D01*
X36564000Y-65668000D02*
X36564000Y-62348000D01*
X36564000Y-62348000D02*
X27444000Y-62348000D01*
X26634000Y-64008000D02*
X27444000Y-64008000D01*
X37374000Y-64008000D02*
X36564000Y-64008000D01*
X43316000Y-50304000D02*
X39996000Y-50304000D01*
X39996000Y-50304000D02*
X39996000Y-59424000D01*
X39996000Y-59424000D02*
X43316000Y-59424000D01*
X43316000Y-59424000D02*
X43316000Y-50304000D01*
X41656000Y-49494000D02*
X41656000Y-50304000D01*
X41656000Y-60234000D02*
X41656000Y-59424000D01*
X26356000Y-35500000D02*
X26356000Y-40700000D01*
X31496000Y-35500000D02*
X26356000Y-35500000D01*
X34096000Y-40700000D02*
X26356000Y-40700000D01*
X31496000Y-35500000D02*
X31496000Y-38100000D01*
X31496000Y-38100000D02*
X34096000Y-38100000D01*
X34096000Y-38100000D02*
X34096000Y-40700000D01*
X32766000Y-35500000D02*
X34096000Y-35500000D01*
X34096000Y-35500000D02*
X34096000Y-36830000D01*
X65024000Y-40894000D02*
G75*
G03X65024000Y-40894000I-2286000J0D01*
G01*
X44390000Y-59452000D02*
G75*
G02X44390000Y-61452000I0J-1000000D01*
G01*
X44390000Y-61452000D02*
X44390000Y-63102000D01*
X44390000Y-63102000D02*
X54670000Y-63102000D01*
X54670000Y-63102000D02*
X54670000Y-57802000D01*
X54670000Y-57802000D02*
X44390000Y-57802000D01*
X44390000Y-57802000D02*
X44390000Y-59452000D01*
X44330000Y-65592000D02*
X54730000Y-65592000D01*
X54730000Y-65592000D02*
X54730000Y-55312000D01*
X54730000Y-55312000D02*
X44330000Y-55312000D01*
X44330000Y-55312000D02*
X44330000Y-65592000D01*
D13*
X47617143Y-76144381D02*
X47283809Y-75668190D01*
X47045714Y-76144381D02*
X47045714Y-75144381D01*
X47426667Y-75144381D01*
X47521905Y-75192000D01*
X47569524Y-75239619D01*
X47617143Y-75334857D01*
X47617143Y-75477714D01*
X47569524Y-75572952D01*
X47521905Y-75620571D01*
X47426667Y-75668190D01*
X47045714Y-75668190D01*
X48569524Y-76144381D02*
X47998095Y-76144381D01*
X48283809Y-76144381D02*
X48283809Y-75144381D01*
X48188571Y-75287238D01*
X48093333Y-75382476D01*
X47998095Y-75430095D01*
X49140952Y-75572952D02*
X49045714Y-75525333D01*
X48998095Y-75477714D01*
X48950476Y-75382476D01*
X48950476Y-75334857D01*
X48998095Y-75239619D01*
X49045714Y-75192000D01*
X49140952Y-75144381D01*
X49331429Y-75144381D01*
X49426667Y-75192000D01*
X49474286Y-75239619D01*
X49521905Y-75334857D01*
X49521905Y-75382476D01*
X49474286Y-75477714D01*
X49426667Y-75525333D01*
X49331429Y-75572952D01*
X49140952Y-75572952D01*
X49045714Y-75620571D01*
X48998095Y-75668190D01*
X48950476Y-75763429D01*
X48950476Y-75953905D01*
X48998095Y-76049143D01*
X49045714Y-76096762D01*
X49140952Y-76144381D01*
X49331429Y-76144381D01*
X49426667Y-76096762D01*
X49474286Y-76049143D01*
X49521905Y-75953905D01*
X49521905Y-75763429D01*
X49474286Y-75668190D01*
X49426667Y-75620571D01*
X49331429Y-75572952D01*
X30948381Y-116633523D02*
X31662667Y-116633523D01*
X31805524Y-116681143D01*
X31900762Y-116776381D01*
X31948381Y-116919238D01*
X31948381Y-117014476D01*
X31948381Y-115633523D02*
X31948381Y-116204952D01*
X31948381Y-115919238D02*
X30948381Y-115919238D01*
X31091238Y-116014476D01*
X31186476Y-116109714D01*
X31234095Y-116204952D01*
X30948381Y-115014476D02*
X30948381Y-114919237D01*
X30996000Y-114823999D01*
X31043619Y-114776380D01*
X31138857Y-114728761D01*
X31329333Y-114681142D01*
X31567429Y-114681142D01*
X31757905Y-114728761D01*
X31853143Y-114776380D01*
X31900762Y-114823999D01*
X31948381Y-114919237D01*
X31948381Y-115014476D01*
X31900762Y-115109714D01*
X31853143Y-115157333D01*
X31757905Y-115204952D01*
X31567429Y-115252571D01*
X31329333Y-115252571D01*
X31138857Y-115204952D01*
X31043619Y-115157333D01*
X30996000Y-115109714D01*
X30948381Y-115014476D01*
X59793143Y-59094666D02*
X59840762Y-59142285D01*
X59888381Y-59285142D01*
X59888381Y-59380380D01*
X59840762Y-59523238D01*
X59745524Y-59618476D01*
X59650286Y-59666095D01*
X59459810Y-59713714D01*
X59316952Y-59713714D01*
X59126476Y-59666095D01*
X59031238Y-59618476D01*
X58936000Y-59523238D01*
X58888381Y-59380380D01*
X58888381Y-59285142D01*
X58936000Y-59142285D01*
X58983619Y-59094666D01*
X59221714Y-58237523D02*
X59888381Y-58237523D01*
X58840762Y-58475619D02*
X59555048Y-58713714D01*
X59555048Y-58094666D01*
X80462381Y-122562857D02*
X79986190Y-122896191D01*
X80462381Y-123134286D02*
X79462381Y-123134286D01*
X79462381Y-122753333D01*
X79510000Y-122658095D01*
X79557619Y-122610476D01*
X79652857Y-122562857D01*
X79795714Y-122562857D01*
X79890952Y-122610476D01*
X79938571Y-122658095D01*
X79986190Y-122753333D01*
X79986190Y-123134286D01*
X80462381Y-121610476D02*
X80462381Y-122181905D01*
X80462381Y-121896191D02*
X79462381Y-121896191D01*
X79605238Y-121991429D01*
X79700476Y-122086667D01*
X79748095Y-122181905D01*
X79557619Y-121229524D02*
X79510000Y-121181905D01*
X79462381Y-121086667D01*
X79462381Y-120848571D01*
X79510000Y-120753333D01*
X79557619Y-120705714D01*
X79652857Y-120658095D01*
X79748095Y-120658095D01*
X79890952Y-120705714D01*
X80462381Y-121277143D01*
X80462381Y-120658095D01*
X45156381Y-125309238D02*
X44680190Y-125642572D01*
X45156381Y-125880667D02*
X44156381Y-125880667D01*
X44156381Y-125499714D01*
X44204000Y-125404476D01*
X44251619Y-125356857D01*
X44346857Y-125309238D01*
X44489714Y-125309238D01*
X44584952Y-125356857D01*
X44632571Y-125404476D01*
X44680190Y-125499714D01*
X44680190Y-125880667D01*
X44156381Y-125023524D02*
X45156381Y-124690191D01*
X44156381Y-124356857D01*
X44156381Y-123547333D02*
X44156381Y-124023524D01*
X44632571Y-124071143D01*
X44584952Y-124023524D01*
X44537333Y-123928286D01*
X44537333Y-123690190D01*
X44584952Y-123594952D01*
X44632571Y-123547333D01*
X44727810Y-123499714D01*
X44965905Y-123499714D01*
X45061143Y-123547333D01*
X45108762Y-123594952D01*
X45156381Y-123690190D01*
X45156381Y-123928286D01*
X45108762Y-124023524D01*
X45061143Y-124071143D01*
X53697143Y-102274666D02*
X53744762Y-102322285D01*
X53792381Y-102465142D01*
X53792381Y-102560380D01*
X53744762Y-102703238D01*
X53649524Y-102798476D01*
X53554286Y-102846095D01*
X53363810Y-102893714D01*
X53220952Y-102893714D01*
X53030476Y-102846095D01*
X52935238Y-102798476D01*
X52840000Y-102703238D01*
X52792381Y-102560380D01*
X52792381Y-102465142D01*
X52840000Y-102322285D01*
X52887619Y-102274666D01*
X53792381Y-101322285D02*
X53792381Y-101893714D01*
X53792381Y-101608000D02*
X52792381Y-101608000D01*
X52935238Y-101703238D01*
X53030476Y-101798476D01*
X53078095Y-101893714D01*
X22312381Y-72215333D02*
X23026667Y-72215333D01*
X23169524Y-72262953D01*
X23264762Y-72358191D01*
X23312381Y-72501048D01*
X23312381Y-72596286D01*
X23312381Y-71215333D02*
X23312381Y-71786762D01*
X23312381Y-71501048D02*
X22312381Y-71501048D01*
X22455238Y-71596286D01*
X22550476Y-71691524D01*
X22598095Y-71786762D01*
X85288381Y-42648095D02*
X84288381Y-42648095D01*
X84288381Y-42410000D01*
X84336000Y-42267142D01*
X84431238Y-42171904D01*
X84526476Y-42124285D01*
X84716952Y-42076666D01*
X84859810Y-42076666D01*
X85050286Y-42124285D01*
X85145524Y-42171904D01*
X85240762Y-42267142D01*
X85288381Y-42410000D01*
X85288381Y-42648095D01*
X85288381Y-41124285D02*
X85288381Y-41695714D01*
X85288381Y-41410000D02*
X84288381Y-41410000D01*
X84431238Y-41505238D01*
X84526476Y-41600476D01*
X84574095Y-41695714D01*
X58086667Y-66254381D02*
X58086667Y-66968667D01*
X58039047Y-67111524D01*
X57943809Y-67206762D01*
X57800952Y-67254381D01*
X57705714Y-67254381D01*
X58515238Y-66349619D02*
X58562857Y-66302000D01*
X58658095Y-66254381D01*
X58896191Y-66254381D01*
X58991429Y-66302000D01*
X59039048Y-66349619D01*
X59086667Y-66444857D01*
X59086667Y-66540095D01*
X59039048Y-66682952D01*
X58467619Y-67254381D01*
X59086667Y-67254381D01*
X58086667Y-72604381D02*
X58086667Y-73318667D01*
X58039047Y-73461524D01*
X57943809Y-73556762D01*
X57800952Y-73604381D01*
X57705714Y-73604381D01*
X58467619Y-72604381D02*
X59086667Y-72604381D01*
X58753333Y-72985333D01*
X58896191Y-72985333D01*
X58991429Y-73032952D01*
X59039048Y-73080571D01*
X59086667Y-73175810D01*
X59086667Y-73413905D01*
X59039048Y-73509143D01*
X58991429Y-73556762D01*
X58896191Y-73604381D01*
X58610476Y-73604381D01*
X58515238Y-73556762D01*
X58467619Y-73509143D01*
X64944667Y-55078381D02*
X64944667Y-55792667D01*
X64897047Y-55935524D01*
X64801809Y-56030762D01*
X64658952Y-56078381D01*
X64563714Y-56078381D01*
X65849429Y-55411714D02*
X65849429Y-56078381D01*
X65611333Y-55030762D02*
X65373238Y-55745048D01*
X65992286Y-55745048D01*
X70024667Y-55078381D02*
X70024667Y-55792667D01*
X69977047Y-55935524D01*
X69881809Y-56030762D01*
X69738952Y-56078381D01*
X69643714Y-56078381D01*
X70977048Y-55078381D02*
X70500857Y-55078381D01*
X70453238Y-55554571D01*
X70500857Y-55506952D01*
X70596095Y-55459333D01*
X70834191Y-55459333D01*
X70929429Y-55506952D01*
X70977048Y-55554571D01*
X71024667Y-55649810D01*
X71024667Y-55887905D01*
X70977048Y-55983143D01*
X70929429Y-56030762D01*
X70834191Y-56078381D01*
X70596095Y-56078381D01*
X70500857Y-56030762D01*
X70453238Y-55983143D01*
X21280571Y-79970381D02*
X21471048Y-79970381D01*
X21566286Y-80018000D01*
X21661524Y-80113238D01*
X21709143Y-80303714D01*
X21709143Y-80637048D01*
X21661524Y-80827524D01*
X21566286Y-80922762D01*
X21471048Y-80970381D01*
X21280571Y-80970381D01*
X21185333Y-80922762D01*
X21090095Y-80827524D01*
X21042476Y-80637048D01*
X21042476Y-80303714D01*
X21090095Y-80113238D01*
X21185333Y-80018000D01*
X21280571Y-79970381D01*
X22137714Y-80970381D02*
X22137714Y-79970381D01*
X22518667Y-79970381D01*
X22613905Y-80018000D01*
X22661524Y-80065619D01*
X22709143Y-80160857D01*
X22709143Y-80303714D01*
X22661524Y-80398952D01*
X22613905Y-80446571D01*
X22518667Y-80494190D01*
X22137714Y-80494190D01*
X23661524Y-80970381D02*
X23090095Y-80970381D01*
X23375809Y-80970381D02*
X23375809Y-79970381D01*
X23280571Y-80113238D01*
X23185333Y-80208476D01*
X23090095Y-80256095D01*
X79954381Y-54522666D02*
X79478190Y-54856000D01*
X79954381Y-55094095D02*
X78954381Y-55094095D01*
X78954381Y-54713142D01*
X79002000Y-54617904D01*
X79049619Y-54570285D01*
X79144857Y-54522666D01*
X79287714Y-54522666D01*
X79382952Y-54570285D01*
X79430571Y-54617904D01*
X79478190Y-54713142D01*
X79478190Y-55094095D01*
X79954381Y-53570285D02*
X79954381Y-54141714D01*
X79954381Y-53856000D02*
X78954381Y-53856000D01*
X79097238Y-53951238D01*
X79192476Y-54046476D01*
X79240095Y-54141714D01*
X76144381Y-55030666D02*
X75668190Y-55364000D01*
X76144381Y-55602095D02*
X75144381Y-55602095D01*
X75144381Y-55221142D01*
X75192000Y-55125904D01*
X75239619Y-55078285D01*
X75334857Y-55030666D01*
X75477714Y-55030666D01*
X75572952Y-55078285D01*
X75620571Y-55125904D01*
X75668190Y-55221142D01*
X75668190Y-55602095D01*
X75239619Y-54649714D02*
X75192000Y-54602095D01*
X75144381Y-54506857D01*
X75144381Y-54268761D01*
X75192000Y-54173523D01*
X75239619Y-54125904D01*
X75334857Y-54078285D01*
X75430095Y-54078285D01*
X75572952Y-54125904D01*
X76144381Y-54697333D01*
X76144381Y-54078285D01*
X79700381Y-100750666D02*
X79224190Y-101084000D01*
X79700381Y-101322095D02*
X78700381Y-101322095D01*
X78700381Y-100941142D01*
X78748000Y-100845904D01*
X78795619Y-100798285D01*
X78890857Y-100750666D01*
X79033714Y-100750666D01*
X79128952Y-100798285D01*
X79176571Y-100845904D01*
X79224190Y-100941142D01*
X79224190Y-101322095D01*
X78700381Y-100417333D02*
X78700381Y-99798285D01*
X79081333Y-100131619D01*
X79081333Y-99988761D01*
X79128952Y-99893523D01*
X79176571Y-99845904D01*
X79271810Y-99798285D01*
X79509905Y-99798285D01*
X79605143Y-99845904D01*
X79652762Y-99893523D01*
X79700381Y-99988761D01*
X79700381Y-100274476D01*
X79652762Y-100369714D01*
X79605143Y-100417333D01*
X79954381Y-84748666D02*
X79478190Y-85082000D01*
X79954381Y-85320095D02*
X78954381Y-85320095D01*
X78954381Y-84939142D01*
X79002000Y-84843904D01*
X79049619Y-84796285D01*
X79144857Y-84748666D01*
X79287714Y-84748666D01*
X79382952Y-84796285D01*
X79430571Y-84843904D01*
X79478190Y-84939142D01*
X79478190Y-85320095D01*
X79287714Y-83891523D02*
X79954381Y-83891523D01*
X78906762Y-84129619D02*
X79621048Y-84367714D01*
X79621048Y-83748666D01*
X75636381Y-79922666D02*
X75160190Y-80256000D01*
X75636381Y-80494095D02*
X74636381Y-80494095D01*
X74636381Y-80113142D01*
X74684000Y-80017904D01*
X74731619Y-79970285D01*
X74826857Y-79922666D01*
X74969714Y-79922666D01*
X75064952Y-79970285D01*
X75112571Y-80017904D01*
X75160190Y-80113142D01*
X75160190Y-80494095D01*
X74636381Y-79017904D02*
X74636381Y-79494095D01*
X75112571Y-79541714D01*
X75064952Y-79494095D01*
X75017333Y-79398857D01*
X75017333Y-79160761D01*
X75064952Y-79065523D01*
X75112571Y-79017904D01*
X75207810Y-78970285D01*
X75445905Y-78970285D01*
X75541143Y-79017904D01*
X75588762Y-79065523D01*
X75636381Y-79160761D01*
X75636381Y-79398857D01*
X75588762Y-79494095D01*
X75541143Y-79541714D01*
X35504381Y-94654666D02*
X35028190Y-94988000D01*
X35504381Y-95226095D02*
X34504381Y-95226095D01*
X34504381Y-94845142D01*
X34552000Y-94749904D01*
X34599619Y-94702285D01*
X34694857Y-94654666D01*
X34837714Y-94654666D01*
X34932952Y-94702285D01*
X34980571Y-94749904D01*
X35028190Y-94845142D01*
X35028190Y-95226095D01*
X34504381Y-93797523D02*
X34504381Y-93988000D01*
X34552000Y-94083238D01*
X34599619Y-94130857D01*
X34742476Y-94226095D01*
X34932952Y-94273714D01*
X35313905Y-94273714D01*
X35409143Y-94226095D01*
X35456762Y-94178476D01*
X35504381Y-94083238D01*
X35504381Y-93892761D01*
X35456762Y-93797523D01*
X35409143Y-93749904D01*
X35313905Y-93702285D01*
X35075810Y-93702285D01*
X34980571Y-93749904D01*
X34932952Y-93797523D01*
X34885333Y-93892761D01*
X34885333Y-94083238D01*
X34932952Y-94178476D01*
X34980571Y-94226095D01*
X35075810Y-94273714D01*
X89828762Y-48712381D02*
X89495428Y-48236190D01*
X89257333Y-48712381D02*
X89257333Y-47712381D01*
X89638286Y-47712381D01*
X89733524Y-47760000D01*
X89781143Y-47807619D01*
X89828762Y-47902857D01*
X89828762Y-48045714D01*
X89781143Y-48140952D01*
X89733524Y-48188571D01*
X89638286Y-48236190D01*
X89257333Y-48236190D01*
X90114476Y-47712381D02*
X90447809Y-48712381D01*
X90781143Y-47712381D01*
X91638286Y-48712381D02*
X91066857Y-48712381D01*
X91352571Y-48712381D02*
X91352571Y-47712381D01*
X91257333Y-47855238D01*
X91162095Y-47950476D01*
X91066857Y-47998095D01*
X89574762Y-66238381D02*
X89241428Y-65762190D01*
X89003333Y-66238381D02*
X89003333Y-65238381D01*
X89384286Y-65238381D01*
X89479524Y-65286000D01*
X89527143Y-65333619D01*
X89574762Y-65428857D01*
X89574762Y-65571714D01*
X89527143Y-65666952D01*
X89479524Y-65714571D01*
X89384286Y-65762190D01*
X89003333Y-65762190D01*
X89860476Y-65238381D02*
X90193809Y-66238381D01*
X90527143Y-65238381D01*
X90812857Y-65333619D02*
X90860476Y-65286000D01*
X90955714Y-65238381D01*
X91193810Y-65238381D01*
X91289048Y-65286000D01*
X91336667Y-65333619D01*
X91384286Y-65428857D01*
X91384286Y-65524095D01*
X91336667Y-65666952D01*
X90765238Y-66238381D01*
X91384286Y-66238381D01*
X90082762Y-99004381D02*
X89749428Y-98528190D01*
X89511333Y-99004381D02*
X89511333Y-98004381D01*
X89892286Y-98004381D01*
X89987524Y-98052000D01*
X90035143Y-98099619D01*
X90082762Y-98194857D01*
X90082762Y-98337714D01*
X90035143Y-98432952D01*
X89987524Y-98480571D01*
X89892286Y-98528190D01*
X89511333Y-98528190D01*
X90368476Y-98004381D02*
X90701809Y-99004381D01*
X91035143Y-98004381D01*
X91273238Y-98004381D02*
X91892286Y-98004381D01*
X91558952Y-98385333D01*
X91701810Y-98385333D01*
X91797048Y-98432952D01*
X91844667Y-98480571D01*
X91892286Y-98575810D01*
X91892286Y-98813905D01*
X91844667Y-98909143D01*
X91797048Y-98956762D01*
X91701810Y-99004381D01*
X91416095Y-99004381D01*
X91320857Y-98956762D01*
X91273238Y-98909143D01*
X90336762Y-81986381D02*
X90003428Y-81510190D01*
X89765333Y-81986381D02*
X89765333Y-80986381D01*
X90146286Y-80986381D01*
X90241524Y-81034000D01*
X90289143Y-81081619D01*
X90336762Y-81176857D01*
X90336762Y-81319714D01*
X90289143Y-81414952D01*
X90241524Y-81462571D01*
X90146286Y-81510190D01*
X89765333Y-81510190D01*
X90622476Y-80986381D02*
X90955809Y-81986381D01*
X91289143Y-80986381D01*
X92051048Y-81319714D02*
X92051048Y-81986381D01*
X91812952Y-80938762D02*
X91574857Y-81653048D01*
X92193905Y-81653048D01*
X58888381Y-51307905D02*
X59697905Y-51307905D01*
X59793143Y-51260286D01*
X59840762Y-51212667D01*
X59888381Y-51117429D01*
X59888381Y-50926952D01*
X59840762Y-50831714D01*
X59793143Y-50784095D01*
X59697905Y-50736476D01*
X58888381Y-50736476D01*
X59888381Y-49736476D02*
X59888381Y-50307905D01*
X59888381Y-50022191D02*
X58888381Y-50022191D01*
X59031238Y-50117429D01*
X59126476Y-50212667D01*
X59174095Y-50307905D01*
X59396381Y-97535905D02*
X60205905Y-97535905D01*
X60301143Y-97488286D01*
X60348762Y-97440667D01*
X60396381Y-97345429D01*
X60396381Y-97154952D01*
X60348762Y-97059714D01*
X60301143Y-97012095D01*
X60205905Y-96964476D01*
X59396381Y-96964476D01*
X59491619Y-96535905D02*
X59444000Y-96488286D01*
X59396381Y-96393048D01*
X59396381Y-96154952D01*
X59444000Y-96059714D01*
X59491619Y-96012095D01*
X59586857Y-95964476D01*
X59682095Y-95964476D01*
X59824952Y-96012095D01*
X60396381Y-96583524D01*
X60396381Y-95964476D01*
X63460381Y-75945905D02*
X64269905Y-75945905D01*
X64365143Y-75898286D01*
X64412762Y-75850667D01*
X64460381Y-75755429D01*
X64460381Y-75564952D01*
X64412762Y-75469714D01*
X64365143Y-75422095D01*
X64269905Y-75374476D01*
X63460381Y-75374476D01*
X63460381Y-74993524D02*
X63460381Y-74374476D01*
X63841333Y-74707810D01*
X63841333Y-74564952D01*
X63888952Y-74469714D01*
X63936571Y-74422095D01*
X64031810Y-74374476D01*
X64269905Y-74374476D01*
X64365143Y-74422095D01*
X64412762Y-74469714D01*
X64460381Y-74564952D01*
X64460381Y-74850667D01*
X64412762Y-74945905D01*
X64365143Y-74993524D01*
X18716667Y-123150381D02*
X18716667Y-123864667D01*
X18669047Y-124007524D01*
X18573809Y-124102762D01*
X18430952Y-124150381D01*
X18335714Y-124150381D01*
X19621429Y-123150381D02*
X19430952Y-123150381D01*
X19335714Y-123198000D01*
X19288095Y-123245619D01*
X19192857Y-123388476D01*
X19145238Y-123578952D01*
X19145238Y-123959905D01*
X19192857Y-124055143D01*
X19240476Y-124102762D01*
X19335714Y-124150381D01*
X19526191Y-124150381D01*
X19621429Y-124102762D01*
X19669048Y-124055143D01*
X19716667Y-123959905D01*
X19716667Y-123721810D01*
X19669048Y-123626571D01*
X19621429Y-123578952D01*
X19526191Y-123531333D01*
X19335714Y-123531333D01*
X19240476Y-123578952D01*
X19192857Y-123626571D01*
X19145238Y-123721810D01*
X91106667Y-123658381D02*
X91106667Y-124372667D01*
X91059047Y-124515524D01*
X90963809Y-124610762D01*
X90820952Y-124658381D01*
X90725714Y-124658381D01*
X91487619Y-123658381D02*
X92154286Y-123658381D01*
X91725714Y-124658381D01*
X90852667Y-34504381D02*
X90852667Y-35218667D01*
X90805047Y-35361524D01*
X90709809Y-35456762D01*
X90566952Y-35504381D01*
X90471714Y-35504381D01*
X91471714Y-34932952D02*
X91376476Y-34885333D01*
X91328857Y-34837714D01*
X91281238Y-34742476D01*
X91281238Y-34694857D01*
X91328857Y-34599619D01*
X91376476Y-34552000D01*
X91471714Y-34504381D01*
X91662191Y-34504381D01*
X91757429Y-34552000D01*
X91805048Y-34599619D01*
X91852667Y-34694857D01*
X91852667Y-34742476D01*
X91805048Y-34837714D01*
X91757429Y-34885333D01*
X91662191Y-34932952D01*
X91471714Y-34932952D01*
X91376476Y-34980571D01*
X91328857Y-35028190D01*
X91281238Y-35123429D01*
X91281238Y-35313905D01*
X91328857Y-35409143D01*
X91376476Y-35456762D01*
X91471714Y-35504381D01*
X91662191Y-35504381D01*
X91757429Y-35456762D01*
X91805048Y-35409143D01*
X91852667Y-35313905D01*
X91852667Y-35123429D01*
X91805048Y-35028190D01*
X91757429Y-34980571D01*
X91662191Y-34932952D01*
X18716667Y-34250381D02*
X18716667Y-34964667D01*
X18669047Y-35107524D01*
X18573809Y-35202762D01*
X18430952Y-35250381D01*
X18335714Y-35250381D01*
X19240476Y-35250381D02*
X19430952Y-35250381D01*
X19526191Y-35202762D01*
X19573810Y-35155143D01*
X19669048Y-35012286D01*
X19716667Y-34821810D01*
X19716667Y-34440857D01*
X19669048Y-34345619D01*
X19621429Y-34298000D01*
X19526191Y-34250381D01*
X19335714Y-34250381D01*
X19240476Y-34298000D01*
X19192857Y-34345619D01*
X19145238Y-34440857D01*
X19145238Y-34678952D01*
X19192857Y-34774190D01*
X19240476Y-34821810D01*
X19335714Y-34869429D01*
X19526191Y-34869429D01*
X19621429Y-34821810D01*
X19669048Y-34774190D01*
X19716667Y-34678952D01*
X90122477Y-108164381D02*
X90122477Y-108878667D01*
X90074857Y-109021524D01*
X89979619Y-109116762D01*
X89836762Y-109164381D01*
X89741524Y-109164381D01*
X91122477Y-109164381D02*
X90551048Y-109164381D01*
X90836762Y-109164381D02*
X90836762Y-108164381D01*
X90741524Y-108307238D01*
X90646286Y-108402476D01*
X90551048Y-108450095D01*
X92074858Y-109164381D02*
X91503429Y-109164381D01*
X91789143Y-109164381D02*
X91789143Y-108164381D01*
X91693905Y-108307238D01*
X91598667Y-108402476D01*
X91503429Y-108450095D01*
X84534477Y-108164381D02*
X84534477Y-108878667D01*
X84486857Y-109021524D01*
X84391619Y-109116762D01*
X84248762Y-109164381D01*
X84153524Y-109164381D01*
X85534477Y-109164381D02*
X84963048Y-109164381D01*
X85248762Y-109164381D02*
X85248762Y-108164381D01*
X85153524Y-108307238D01*
X85058286Y-108402476D01*
X84963048Y-108450095D01*
X85915429Y-108259619D02*
X85963048Y-108212000D01*
X86058286Y-108164381D01*
X86296382Y-108164381D01*
X86391620Y-108212000D01*
X86439239Y-108259619D01*
X86486858Y-108354857D01*
X86486858Y-108450095D01*
X86439239Y-108592952D01*
X85867810Y-109164381D01*
X86486858Y-109164381D01*
X78946477Y-108164381D02*
X78946477Y-108878667D01*
X78898857Y-109021524D01*
X78803619Y-109116762D01*
X78660762Y-109164381D01*
X78565524Y-109164381D01*
X79946477Y-109164381D02*
X79375048Y-109164381D01*
X79660762Y-109164381D02*
X79660762Y-108164381D01*
X79565524Y-108307238D01*
X79470286Y-108402476D01*
X79375048Y-108450095D01*
X80279810Y-108164381D02*
X80898858Y-108164381D01*
X80565524Y-108545333D01*
X80708382Y-108545333D01*
X80803620Y-108592952D01*
X80851239Y-108640571D01*
X80898858Y-108735810D01*
X80898858Y-108973905D01*
X80851239Y-109069143D01*
X80803620Y-109116762D01*
X80708382Y-109164381D01*
X80422667Y-109164381D01*
X80327429Y-109116762D01*
X80279810Y-109069143D01*
X44394381Y-94908666D02*
X43918190Y-95242000D01*
X44394381Y-95480095D02*
X43394381Y-95480095D01*
X43394381Y-95099142D01*
X43442000Y-95003904D01*
X43489619Y-94956285D01*
X43584857Y-94908666D01*
X43727714Y-94908666D01*
X43822952Y-94956285D01*
X43870571Y-95003904D01*
X43918190Y-95099142D01*
X43918190Y-95480095D01*
X43394381Y-94575333D02*
X43394381Y-93908666D01*
X44394381Y-94337238D01*
X84526381Y-122086666D02*
X84050190Y-122420000D01*
X84526381Y-122658095D02*
X83526381Y-122658095D01*
X83526381Y-122277142D01*
X83574000Y-122181904D01*
X83621619Y-122134285D01*
X83716857Y-122086666D01*
X83859714Y-122086666D01*
X83954952Y-122134285D01*
X84002571Y-122181904D01*
X84050190Y-122277142D01*
X84050190Y-122658095D01*
X83954952Y-121515238D02*
X83907333Y-121610476D01*
X83859714Y-121658095D01*
X83764476Y-121705714D01*
X83716857Y-121705714D01*
X83621619Y-121658095D01*
X83574000Y-121610476D01*
X83526381Y-121515238D01*
X83526381Y-121324761D01*
X83574000Y-121229523D01*
X83621619Y-121181904D01*
X83716857Y-121134285D01*
X83764476Y-121134285D01*
X83859714Y-121181904D01*
X83907333Y-121229523D01*
X83954952Y-121324761D01*
X83954952Y-121515238D01*
X84002571Y-121610476D01*
X84050190Y-121658095D01*
X84145429Y-121705714D01*
X84335905Y-121705714D01*
X84431143Y-121658095D01*
X84478762Y-121610476D01*
X84526381Y-121515238D01*
X84526381Y-121324761D01*
X84478762Y-121229523D01*
X84431143Y-121181904D01*
X84335905Y-121134285D01*
X84145429Y-121134285D01*
X84050190Y-121181904D01*
X84002571Y-121229523D01*
X83954952Y-121324761D01*
X38806381Y-110402666D02*
X38330190Y-110736000D01*
X38806381Y-110974095D02*
X37806381Y-110974095D01*
X37806381Y-110593142D01*
X37854000Y-110497904D01*
X37901619Y-110450285D01*
X37996857Y-110402666D01*
X38139714Y-110402666D01*
X38234952Y-110450285D01*
X38282571Y-110497904D01*
X38330190Y-110593142D01*
X38330190Y-110974095D01*
X38806381Y-109926476D02*
X38806381Y-109736000D01*
X38758762Y-109640761D01*
X38711143Y-109593142D01*
X38568286Y-109497904D01*
X38377810Y-109450285D01*
X37996857Y-109450285D01*
X37901619Y-109497904D01*
X37854000Y-109545523D01*
X37806381Y-109640761D01*
X37806381Y-109831238D01*
X37854000Y-109926476D01*
X37901619Y-109974095D01*
X37996857Y-110021714D01*
X38234952Y-110021714D01*
X38330190Y-109974095D01*
X38377810Y-109926476D01*
X38425429Y-109831238D01*
X38425429Y-109640761D01*
X38377810Y-109545523D01*
X38330190Y-109497904D01*
X38234952Y-109450285D01*
X48712381Y-95638857D02*
X48236190Y-95972191D01*
X48712381Y-96210286D02*
X47712381Y-96210286D01*
X47712381Y-95829333D01*
X47760000Y-95734095D01*
X47807619Y-95686476D01*
X47902857Y-95638857D01*
X48045714Y-95638857D01*
X48140952Y-95686476D01*
X48188571Y-95734095D01*
X48236190Y-95829333D01*
X48236190Y-96210286D01*
X48712381Y-94686476D02*
X48712381Y-95257905D01*
X48712381Y-94972191D02*
X47712381Y-94972191D01*
X47855238Y-95067429D01*
X47950476Y-95162667D01*
X47998095Y-95257905D01*
X47712381Y-94067429D02*
X47712381Y-93972190D01*
X47760000Y-93876952D01*
X47807619Y-93829333D01*
X47902857Y-93781714D01*
X48093333Y-93734095D01*
X48331429Y-93734095D01*
X48521905Y-93781714D01*
X48617143Y-93829333D01*
X48664762Y-93876952D01*
X48712381Y-93972190D01*
X48712381Y-94067429D01*
X48664762Y-94162667D01*
X48617143Y-94210286D01*
X48521905Y-94257905D01*
X48331429Y-94305524D01*
X48093333Y-94305524D01*
X47902857Y-94257905D01*
X47807619Y-94210286D01*
X47760000Y-94162667D01*
X47712381Y-94067429D01*
X44148477Y-44918381D02*
X44148477Y-45632667D01*
X44100857Y-45775524D01*
X44005619Y-45870762D01*
X43862762Y-45918381D01*
X43767524Y-45918381D01*
X45148477Y-45918381D02*
X44577048Y-45918381D01*
X44862762Y-45918381D02*
X44862762Y-44918381D01*
X44767524Y-45061238D01*
X44672286Y-45156476D01*
X44577048Y-45204095D01*
X46005620Y-45251714D02*
X46005620Y-45918381D01*
X45767524Y-44870762D02*
X45529429Y-45585048D01*
X46148477Y-45585048D01*
X53046381Y-113537905D02*
X53855905Y-113537905D01*
X53951143Y-113490286D01*
X53998762Y-113442667D01*
X54046381Y-113347429D01*
X54046381Y-113156952D01*
X53998762Y-113061714D01*
X53951143Y-113014095D01*
X53855905Y-112966476D01*
X53046381Y-112966476D01*
X53379714Y-112061714D02*
X54046381Y-112061714D01*
X52998762Y-112299810D02*
X53713048Y-112537905D01*
X53713048Y-111918857D01*
X40076381Y-95384857D02*
X39600190Y-95718191D01*
X40076381Y-95956286D02*
X39076381Y-95956286D01*
X39076381Y-95575333D01*
X39124000Y-95480095D01*
X39171619Y-95432476D01*
X39266857Y-95384857D01*
X39409714Y-95384857D01*
X39504952Y-95432476D01*
X39552571Y-95480095D01*
X39600190Y-95575333D01*
X39600190Y-95956286D01*
X40076381Y-94432476D02*
X40076381Y-95003905D01*
X40076381Y-94718191D02*
X39076381Y-94718191D01*
X39219238Y-94813429D01*
X39314476Y-94908667D01*
X39362095Y-95003905D01*
X40076381Y-93480095D02*
X40076381Y-94051524D01*
X40076381Y-93765810D02*
X39076381Y-93765810D01*
X39219238Y-93861048D01*
X39314476Y-93956286D01*
X39362095Y-94051524D01*
X30518381Y-102379523D02*
X31232667Y-102379523D01*
X31375524Y-102427143D01*
X31470762Y-102522381D01*
X31518381Y-102665238D01*
X31518381Y-102760476D01*
X31518381Y-101379523D02*
X31518381Y-101950952D01*
X31518381Y-101665238D02*
X30518381Y-101665238D01*
X30661238Y-101760476D01*
X30756476Y-101855714D01*
X30804095Y-101950952D01*
X30518381Y-100474761D02*
X30518381Y-100950952D01*
X30994571Y-100998571D01*
X30946952Y-100950952D01*
X30899333Y-100855714D01*
X30899333Y-100617618D01*
X30946952Y-100522380D01*
X30994571Y-100474761D01*
X31089810Y-100427142D01*
X31327905Y-100427142D01*
X31423143Y-100474761D01*
X31470762Y-100522380D01*
X31518381Y-100617618D01*
X31518381Y-100855714D01*
X31470762Y-100950952D01*
X31423143Y-100998571D01*
X76557143Y-43092666D02*
X76604762Y-43140285D01*
X76652381Y-43283142D01*
X76652381Y-43378380D01*
X76604762Y-43521238D01*
X76509524Y-43616476D01*
X76414286Y-43664095D01*
X76223810Y-43711714D01*
X76080952Y-43711714D01*
X75890476Y-43664095D01*
X75795238Y-43616476D01*
X75700000Y-43521238D01*
X75652381Y-43378380D01*
X75652381Y-43283142D01*
X75700000Y-43140285D01*
X75747619Y-43092666D01*
X75747619Y-42711714D02*
X75700000Y-42664095D01*
X75652381Y-42568857D01*
X75652381Y-42330761D01*
X75700000Y-42235523D01*
X75747619Y-42187904D01*
X75842857Y-42140285D01*
X75938095Y-42140285D01*
X76080952Y-42187904D01*
X76652381Y-42759333D01*
X76652381Y-42140285D01*
X73763143Y-95924666D02*
X73810762Y-95972285D01*
X73858381Y-96115142D01*
X73858381Y-96210380D01*
X73810762Y-96353238D01*
X73715524Y-96448476D01*
X73620286Y-96496095D01*
X73429810Y-96543714D01*
X73286952Y-96543714D01*
X73096476Y-96496095D01*
X73001238Y-96448476D01*
X72906000Y-96353238D01*
X72858381Y-96210380D01*
X72858381Y-96115142D01*
X72906000Y-95972285D01*
X72953619Y-95924666D01*
X72858381Y-95591333D02*
X72858381Y-94972285D01*
X73239333Y-95305619D01*
X73239333Y-95162761D01*
X73286952Y-95067523D01*
X73334571Y-95019904D01*
X73429810Y-94972285D01*
X73667905Y-94972285D01*
X73763143Y-95019904D01*
X73810762Y-95067523D01*
X73858381Y-95162761D01*
X73858381Y-95448476D01*
X73810762Y-95543714D01*
X73763143Y-95591333D01*
X63333334Y-105513143D02*
X63285715Y-105560762D01*
X63142858Y-105608381D01*
X63047620Y-105608381D01*
X62904762Y-105560762D01*
X62809524Y-105465524D01*
X62761905Y-105370286D01*
X62714286Y-105179810D01*
X62714286Y-105036952D01*
X62761905Y-104846476D01*
X62809524Y-104751238D01*
X62904762Y-104656000D01*
X63047620Y-104608381D01*
X63142858Y-104608381D01*
X63285715Y-104656000D01*
X63333334Y-104703619D01*
X64238096Y-104608381D02*
X63761905Y-104608381D01*
X63714286Y-105084571D01*
X63761905Y-105036952D01*
X63857143Y-104989333D01*
X64095239Y-104989333D01*
X64190477Y-105036952D01*
X64238096Y-105084571D01*
X64285715Y-105179810D01*
X64285715Y-105417905D01*
X64238096Y-105513143D01*
X64190477Y-105560762D01*
X64095239Y-105608381D01*
X63857143Y-105608381D01*
X63761905Y-105560762D01*
X63714286Y-105513143D01*
X71969334Y-105767143D02*
X71921715Y-105814762D01*
X71778858Y-105862381D01*
X71683620Y-105862381D01*
X71540762Y-105814762D01*
X71445524Y-105719524D01*
X71397905Y-105624286D01*
X71350286Y-105433810D01*
X71350286Y-105290952D01*
X71397905Y-105100476D01*
X71445524Y-105005238D01*
X71540762Y-104910000D01*
X71683620Y-104862381D01*
X71778858Y-104862381D01*
X71921715Y-104910000D01*
X71969334Y-104957619D01*
X72826477Y-104862381D02*
X72636000Y-104862381D01*
X72540762Y-104910000D01*
X72493143Y-104957619D01*
X72397905Y-105100476D01*
X72350286Y-105290952D01*
X72350286Y-105671905D01*
X72397905Y-105767143D01*
X72445524Y-105814762D01*
X72540762Y-105862381D01*
X72731239Y-105862381D01*
X72826477Y-105814762D01*
X72874096Y-105767143D01*
X72921715Y-105671905D01*
X72921715Y-105433810D01*
X72874096Y-105338571D01*
X72826477Y-105290952D01*
X72731239Y-105243333D01*
X72540762Y-105243333D01*
X72445524Y-105290952D01*
X72397905Y-105338571D01*
X72350286Y-105433810D01*
X68159334Y-84431143D02*
X68111715Y-84478762D01*
X67968858Y-84526381D01*
X67873620Y-84526381D01*
X67730762Y-84478762D01*
X67635524Y-84383524D01*
X67587905Y-84288286D01*
X67540286Y-84097810D01*
X67540286Y-83954952D01*
X67587905Y-83764476D01*
X67635524Y-83669238D01*
X67730762Y-83574000D01*
X67873620Y-83526381D01*
X67968858Y-83526381D01*
X68111715Y-83574000D01*
X68159334Y-83621619D01*
X68492667Y-83526381D02*
X69159334Y-83526381D01*
X68730762Y-84526381D01*
X77065143Y-67730666D02*
X77112762Y-67778285D01*
X77160381Y-67921142D01*
X77160381Y-68016380D01*
X77112762Y-68159238D01*
X77017524Y-68254476D01*
X76922286Y-68302095D01*
X76731810Y-68349714D01*
X76588952Y-68349714D01*
X76398476Y-68302095D01*
X76303238Y-68254476D01*
X76208000Y-68159238D01*
X76160381Y-68016380D01*
X76160381Y-67921142D01*
X76208000Y-67778285D01*
X76255619Y-67730666D01*
X76588952Y-67159238D02*
X76541333Y-67254476D01*
X76493714Y-67302095D01*
X76398476Y-67349714D01*
X76350857Y-67349714D01*
X76255619Y-67302095D01*
X76208000Y-67254476D01*
X76160381Y-67159238D01*
X76160381Y-66968761D01*
X76208000Y-66873523D01*
X76255619Y-66825904D01*
X76350857Y-66778285D01*
X76398476Y-66778285D01*
X76493714Y-66825904D01*
X76541333Y-66873523D01*
X76588952Y-66968761D01*
X76588952Y-67159238D01*
X76636571Y-67254476D01*
X76684190Y-67302095D01*
X76779429Y-67349714D01*
X76969905Y-67349714D01*
X77065143Y-67302095D01*
X77112762Y-67254476D01*
X77160381Y-67159238D01*
X77160381Y-66968761D01*
X77112762Y-66873523D01*
X77065143Y-66825904D01*
X76969905Y-66778285D01*
X76779429Y-66778285D01*
X76684190Y-66825904D01*
X76636571Y-66873523D01*
X76588952Y-66968761D01*
X65365334Y-66397143D02*
X65317715Y-66444762D01*
X65174858Y-66492381D01*
X65079620Y-66492381D01*
X64936762Y-66444762D01*
X64841524Y-66349524D01*
X64793905Y-66254286D01*
X64746286Y-66063810D01*
X64746286Y-65920952D01*
X64793905Y-65730476D01*
X64841524Y-65635238D01*
X64936762Y-65540000D01*
X65079620Y-65492381D01*
X65174858Y-65492381D01*
X65317715Y-65540000D01*
X65365334Y-65587619D01*
X65841524Y-66492381D02*
X66032000Y-66492381D01*
X66127239Y-66444762D01*
X66174858Y-66397143D01*
X66270096Y-66254286D01*
X66317715Y-66063810D01*
X66317715Y-65682857D01*
X66270096Y-65587619D01*
X66222477Y-65540000D01*
X66127239Y-65492381D01*
X65936762Y-65492381D01*
X65841524Y-65540000D01*
X65793905Y-65587619D01*
X65746286Y-65682857D01*
X65746286Y-65920952D01*
X65793905Y-66016190D01*
X65841524Y-66063810D01*
X65936762Y-66111429D01*
X66127239Y-66111429D01*
X66222477Y-66063810D01*
X66270096Y-66016190D01*
X66317715Y-65920952D01*
X90035143Y-117959143D02*
X89987524Y-118006762D01*
X89844667Y-118054381D01*
X89749429Y-118054381D01*
X89606571Y-118006762D01*
X89511333Y-117911524D01*
X89463714Y-117816286D01*
X89416095Y-117625810D01*
X89416095Y-117482952D01*
X89463714Y-117292476D01*
X89511333Y-117197238D01*
X89606571Y-117102000D01*
X89749429Y-117054381D01*
X89844667Y-117054381D01*
X89987524Y-117102000D01*
X90035143Y-117149619D01*
X90987524Y-118054381D02*
X90416095Y-118054381D01*
X90701809Y-118054381D02*
X90701809Y-117054381D01*
X90606571Y-117197238D01*
X90511333Y-117292476D01*
X90416095Y-117340095D01*
X91606571Y-117054381D02*
X91701810Y-117054381D01*
X91797048Y-117102000D01*
X91844667Y-117149619D01*
X91892286Y-117244857D01*
X91939905Y-117435333D01*
X91939905Y-117673429D01*
X91892286Y-117863905D01*
X91844667Y-117959143D01*
X91797048Y-118006762D01*
X91701810Y-118054381D01*
X91606571Y-118054381D01*
X91511333Y-118006762D01*
X91463714Y-117959143D01*
X91416095Y-117863905D01*
X91368476Y-117673429D01*
X91368476Y-117435333D01*
X91416095Y-117244857D01*
X91463714Y-117149619D01*
X91511333Y-117102000D01*
X91606571Y-117054381D01*
X68953143Y-40997143D02*
X68905524Y-41044762D01*
X68762667Y-41092381D01*
X68667429Y-41092381D01*
X68524571Y-41044762D01*
X68429333Y-40949524D01*
X68381714Y-40854286D01*
X68334095Y-40663810D01*
X68334095Y-40520952D01*
X68381714Y-40330476D01*
X68429333Y-40235238D01*
X68524571Y-40140000D01*
X68667429Y-40092381D01*
X68762667Y-40092381D01*
X68905524Y-40140000D01*
X68953143Y-40187619D01*
X69905524Y-41092381D02*
X69334095Y-41092381D01*
X69619809Y-41092381D02*
X69619809Y-40092381D01*
X69524571Y-40235238D01*
X69429333Y-40330476D01*
X69334095Y-40378095D01*
X70286476Y-40187619D02*
X70334095Y-40140000D01*
X70429333Y-40092381D01*
X70667429Y-40092381D01*
X70762667Y-40140000D01*
X70810286Y-40187619D01*
X70857905Y-40282857D01*
X70857905Y-40378095D01*
X70810286Y-40520952D01*
X70238857Y-41092381D01*
X70857905Y-41092381D01*
X36187143Y-120499143D02*
X36139524Y-120546762D01*
X35996667Y-120594381D01*
X35901429Y-120594381D01*
X35758571Y-120546762D01*
X35663333Y-120451524D01*
X35615714Y-120356286D01*
X35568095Y-120165810D01*
X35568095Y-120022952D01*
X35615714Y-119832476D01*
X35663333Y-119737238D01*
X35758571Y-119642000D01*
X35901429Y-119594381D01*
X35996667Y-119594381D01*
X36139524Y-119642000D01*
X36187143Y-119689619D01*
X37139524Y-120594381D02*
X36568095Y-120594381D01*
X36853809Y-120594381D02*
X36853809Y-119594381D01*
X36758571Y-119737238D01*
X36663333Y-119832476D01*
X36568095Y-119880095D01*
X37472857Y-119594381D02*
X38091905Y-119594381D01*
X37758571Y-119975333D01*
X37901429Y-119975333D01*
X37996667Y-120022952D01*
X38044286Y-120070571D01*
X38091905Y-120165810D01*
X38091905Y-120403905D01*
X38044286Y-120499143D01*
X37996667Y-120546762D01*
X37901429Y-120594381D01*
X37615714Y-120594381D01*
X37520476Y-120546762D01*
X37472857Y-120499143D01*
X34996381Y-110624857D02*
X34520190Y-110958191D01*
X34996381Y-111196286D02*
X33996381Y-111196286D01*
X33996381Y-110815333D01*
X34044000Y-110720095D01*
X34091619Y-110672476D01*
X34186857Y-110624857D01*
X34329714Y-110624857D01*
X34424952Y-110672476D01*
X34472571Y-110720095D01*
X34520190Y-110815333D01*
X34520190Y-111196286D01*
X34996381Y-109672476D02*
X34996381Y-110243905D01*
X34996381Y-109958191D02*
X33996381Y-109958191D01*
X34139238Y-110053429D01*
X34234476Y-110148667D01*
X34282095Y-110243905D01*
X33996381Y-109339143D02*
X33996381Y-108720095D01*
X34377333Y-109053429D01*
X34377333Y-108910571D01*
X34424952Y-108815333D01*
X34472571Y-108767714D01*
X34567810Y-108720095D01*
X34805905Y-108720095D01*
X34901143Y-108767714D01*
X34948762Y-108815333D01*
X34996381Y-108910571D01*
X34996381Y-109196286D01*
X34948762Y-109291524D01*
X34901143Y-109339143D01*
X71477143Y-112656857D02*
X71524762Y-112704476D01*
X71572381Y-112847333D01*
X71572381Y-112942571D01*
X71524762Y-113085429D01*
X71429524Y-113180667D01*
X71334286Y-113228286D01*
X71143810Y-113275905D01*
X71000952Y-113275905D01*
X70810476Y-113228286D01*
X70715238Y-113180667D01*
X70620000Y-113085429D01*
X70572381Y-112942571D01*
X70572381Y-112847333D01*
X70620000Y-112704476D01*
X70667619Y-112656857D01*
X71572381Y-111704476D02*
X71572381Y-112275905D01*
X71572381Y-111990191D02*
X70572381Y-111990191D01*
X70715238Y-112085429D01*
X70810476Y-112180667D01*
X70858095Y-112275905D01*
X71572381Y-110752095D02*
X71572381Y-111323524D01*
X71572381Y-111037810D02*
X70572381Y-111037810D01*
X70715238Y-111133048D01*
X70810476Y-111228286D01*
X70858095Y-111323524D01*
X31361143Y-125674381D02*
X31027809Y-125198190D01*
X30789714Y-125674381D02*
X30789714Y-124674381D01*
X31170667Y-124674381D01*
X31265905Y-124722000D01*
X31313524Y-124769619D01*
X31361143Y-124864857D01*
X31361143Y-125007714D01*
X31313524Y-125102952D01*
X31265905Y-125150571D01*
X31170667Y-125198190D01*
X30789714Y-125198190D01*
X32313524Y-125674381D02*
X31742095Y-125674381D01*
X32027809Y-125674381D02*
X32027809Y-124674381D01*
X31932571Y-124817238D01*
X31837333Y-124912476D01*
X31742095Y-124960095D01*
X33170667Y-125007714D02*
X33170667Y-125674381D01*
X32932571Y-124626762D02*
X32694476Y-125341048D01*
X33313524Y-125341048D01*
X37187143Y-85478857D02*
X37234762Y-85526476D01*
X37282381Y-85669333D01*
X37282381Y-85764571D01*
X37234762Y-85907429D01*
X37139524Y-86002667D01*
X37044286Y-86050286D01*
X36853810Y-86097905D01*
X36710952Y-86097905D01*
X36520476Y-86050286D01*
X36425238Y-86002667D01*
X36330000Y-85907429D01*
X36282381Y-85764571D01*
X36282381Y-85669333D01*
X36330000Y-85526476D01*
X36377619Y-85478857D01*
X37282381Y-84526476D02*
X37282381Y-85097905D01*
X37282381Y-84812191D02*
X36282381Y-84812191D01*
X36425238Y-84907429D01*
X36520476Y-85002667D01*
X36568095Y-85097905D01*
X36615714Y-83669333D02*
X37282381Y-83669333D01*
X36234762Y-83907429D02*
X36949048Y-84145524D01*
X36949048Y-83526476D01*
X59285143Y-87256857D02*
X59332762Y-87304476D01*
X59380381Y-87447333D01*
X59380381Y-87542571D01*
X59332762Y-87685429D01*
X59237524Y-87780667D01*
X59142286Y-87828286D01*
X58951810Y-87875905D01*
X58808952Y-87875905D01*
X58618476Y-87828286D01*
X58523238Y-87780667D01*
X58428000Y-87685429D01*
X58380381Y-87542571D01*
X58380381Y-87447333D01*
X58428000Y-87304476D01*
X58475619Y-87256857D01*
X59380381Y-86304476D02*
X59380381Y-86875905D01*
X59380381Y-86590191D02*
X58380381Y-86590191D01*
X58523238Y-86685429D01*
X58618476Y-86780667D01*
X58666095Y-86875905D01*
X58380381Y-85399714D02*
X58380381Y-85875905D01*
X58856571Y-85923524D01*
X58808952Y-85875905D01*
X58761333Y-85780667D01*
X58761333Y-85542571D01*
X58808952Y-85447333D01*
X58856571Y-85399714D01*
X58951810Y-85352095D01*
X59189905Y-85352095D01*
X59285143Y-85399714D01*
X59332762Y-85447333D01*
X59380381Y-85542571D01*
X59380381Y-85780667D01*
X59332762Y-85875905D01*
X59285143Y-85923524D01*
X83510381Y-87256857D02*
X83034190Y-87590191D01*
X83510381Y-87828286D02*
X82510381Y-87828286D01*
X82510381Y-87447333D01*
X82558000Y-87352095D01*
X82605619Y-87304476D01*
X82700857Y-87256857D01*
X82843714Y-87256857D01*
X82938952Y-87304476D01*
X82986571Y-87352095D01*
X83034190Y-87447333D01*
X83034190Y-87828286D01*
X83510381Y-86304476D02*
X83510381Y-86875905D01*
X83510381Y-86590191D02*
X82510381Y-86590191D01*
X82653238Y-86685429D01*
X82748476Y-86780667D01*
X82796095Y-86875905D01*
X82510381Y-85399714D02*
X82510381Y-85875905D01*
X82986571Y-85923524D01*
X82938952Y-85875905D01*
X82891333Y-85780667D01*
X82891333Y-85542571D01*
X82938952Y-85447333D01*
X82986571Y-85399714D01*
X83081810Y-85352095D01*
X83319905Y-85352095D01*
X83415143Y-85399714D01*
X83462762Y-85447333D01*
X83510381Y-85542571D01*
X83510381Y-85780667D01*
X83462762Y-85875905D01*
X83415143Y-85923524D01*
X58523143Y-123070857D02*
X58570762Y-123118476D01*
X58618381Y-123261333D01*
X58618381Y-123356571D01*
X58570762Y-123499429D01*
X58475524Y-123594667D01*
X58380286Y-123642286D01*
X58189810Y-123689905D01*
X58046952Y-123689905D01*
X57856476Y-123642286D01*
X57761238Y-123594667D01*
X57666000Y-123499429D01*
X57618381Y-123356571D01*
X57618381Y-123261333D01*
X57666000Y-123118476D01*
X57713619Y-123070857D01*
X58618381Y-122118476D02*
X58618381Y-122689905D01*
X58618381Y-122404191D02*
X57618381Y-122404191D01*
X57761238Y-122499429D01*
X57856476Y-122594667D01*
X57904095Y-122689905D01*
X57618381Y-121261333D02*
X57618381Y-121451810D01*
X57666000Y-121547048D01*
X57713619Y-121594667D01*
X57856476Y-121689905D01*
X58046952Y-121737524D01*
X58427905Y-121737524D01*
X58523143Y-121689905D01*
X58570762Y-121642286D01*
X58618381Y-121547048D01*
X58618381Y-121356571D01*
X58570762Y-121261333D01*
X58523143Y-121213714D01*
X58427905Y-121166095D01*
X58189810Y-121166095D01*
X58094571Y-121213714D01*
X58046952Y-121261333D01*
X57999333Y-121356571D01*
X57999333Y-121547048D01*
X58046952Y-121642286D01*
X58094571Y-121689905D01*
X58189810Y-121737524D01*
X43124381Y-110878857D02*
X42648190Y-111212191D01*
X43124381Y-111450286D02*
X42124381Y-111450286D01*
X42124381Y-111069333D01*
X42172000Y-110974095D01*
X42219619Y-110926476D01*
X42314857Y-110878857D01*
X42457714Y-110878857D01*
X42552952Y-110926476D01*
X42600571Y-110974095D01*
X42648190Y-111069333D01*
X42648190Y-111450286D01*
X43124381Y-109926476D02*
X43124381Y-110497905D01*
X43124381Y-110212191D02*
X42124381Y-110212191D01*
X42267238Y-110307429D01*
X42362476Y-110402667D01*
X42410095Y-110497905D01*
X42124381Y-109069333D02*
X42124381Y-109259810D01*
X42172000Y-109355048D01*
X42219619Y-109402667D01*
X42362476Y-109497905D01*
X42552952Y-109545524D01*
X42933905Y-109545524D01*
X43029143Y-109497905D01*
X43076762Y-109450286D01*
X43124381Y-109355048D01*
X43124381Y-109164571D01*
X43076762Y-109069333D01*
X43029143Y-109021714D01*
X42933905Y-108974095D01*
X42695810Y-108974095D01*
X42600571Y-109021714D01*
X42552952Y-109069333D01*
X42505333Y-109164571D01*
X42505333Y-109355048D01*
X42552952Y-109450286D01*
X42600571Y-109497905D01*
X42695810Y-109545524D01*
X47188381Y-110878857D02*
X46712190Y-111212191D01*
X47188381Y-111450286D02*
X46188381Y-111450286D01*
X46188381Y-111069333D01*
X46236000Y-110974095D01*
X46283619Y-110926476D01*
X46378857Y-110878857D01*
X46521714Y-110878857D01*
X46616952Y-110926476D01*
X46664571Y-110974095D01*
X46712190Y-111069333D01*
X46712190Y-111450286D01*
X47188381Y-109926476D02*
X47188381Y-110497905D01*
X47188381Y-110212191D02*
X46188381Y-110212191D01*
X46331238Y-110307429D01*
X46426476Y-110402667D01*
X46474095Y-110497905D01*
X46188381Y-109593143D02*
X46188381Y-108926476D01*
X47188381Y-109355048D01*
X83510381Y-53316095D02*
X82510381Y-53316095D01*
X82510381Y-53078000D01*
X82558000Y-52935142D01*
X82653238Y-52839904D01*
X82748476Y-52792285D01*
X82938952Y-52744666D01*
X83081810Y-52744666D01*
X83272286Y-52792285D01*
X83367524Y-52839904D01*
X83462762Y-52935142D01*
X83510381Y-53078000D01*
X83510381Y-53316095D01*
X82605619Y-52363714D02*
X82558000Y-52316095D01*
X82510381Y-52220857D01*
X82510381Y-51982761D01*
X82558000Y-51887523D01*
X82605619Y-51839904D01*
X82700857Y-51792285D01*
X82796095Y-51792285D01*
X82938952Y-51839904D01*
X83510381Y-52411333D01*
X83510381Y-51792285D01*
X83764381Y-70080095D02*
X82764381Y-70080095D01*
X82764381Y-69842000D01*
X82812000Y-69699142D01*
X82907238Y-69603904D01*
X83002476Y-69556285D01*
X83192952Y-69508666D01*
X83335810Y-69508666D01*
X83526286Y-69556285D01*
X83621524Y-69603904D01*
X83716762Y-69699142D01*
X83764381Y-69842000D01*
X83764381Y-70080095D01*
X82764381Y-69175333D02*
X82764381Y-68556285D01*
X83145333Y-68889619D01*
X83145333Y-68746761D01*
X83192952Y-68651523D01*
X83240571Y-68603904D01*
X83335810Y-68556285D01*
X83573905Y-68556285D01*
X83669143Y-68603904D01*
X83716762Y-68651523D01*
X83764381Y-68746761D01*
X83764381Y-69032476D01*
X83716762Y-69127714D01*
X83669143Y-69175333D01*
X68095905Y-89352381D02*
X68095905Y-88352381D01*
X68334000Y-88352381D01*
X68476858Y-88400000D01*
X68572096Y-88495238D01*
X68619715Y-88590476D01*
X68667334Y-88780952D01*
X68667334Y-88923810D01*
X68619715Y-89114286D01*
X68572096Y-89209524D01*
X68476858Y-89304762D01*
X68334000Y-89352381D01*
X68095905Y-89352381D01*
X69524477Y-88685714D02*
X69524477Y-89352381D01*
X69286381Y-88304762D02*
X69048286Y-89019048D01*
X69667334Y-89019048D01*
X53284381Y-93194095D02*
X52284381Y-93194095D01*
X52284381Y-92956000D01*
X52332000Y-92813142D01*
X52427238Y-92717904D01*
X52522476Y-92670285D01*
X52712952Y-92622666D01*
X52855810Y-92622666D01*
X53046286Y-92670285D01*
X53141524Y-92717904D01*
X53236762Y-92813142D01*
X53284381Y-92956000D01*
X53284381Y-93194095D01*
X52284381Y-91717904D02*
X52284381Y-92194095D01*
X52760571Y-92241714D01*
X52712952Y-92194095D01*
X52665333Y-92098857D01*
X52665333Y-91860761D01*
X52712952Y-91765523D01*
X52760571Y-91717904D01*
X52855810Y-91670285D01*
X53093905Y-91670285D01*
X53189143Y-91717904D01*
X53236762Y-91765523D01*
X53284381Y-91860761D01*
X53284381Y-92098857D01*
X53236762Y-92194095D01*
X53189143Y-92241714D01*
X70381905Y-121610381D02*
X70381905Y-120610381D01*
X70620000Y-120610381D01*
X70762858Y-120658000D01*
X70858096Y-120753238D01*
X70905715Y-120848476D01*
X70953334Y-121038952D01*
X70953334Y-121181810D01*
X70905715Y-121372286D01*
X70858096Y-121467524D01*
X70762858Y-121562762D01*
X70620000Y-121610381D01*
X70381905Y-121610381D01*
X71810477Y-120610381D02*
X71620000Y-120610381D01*
X71524762Y-120658000D01*
X71477143Y-120705619D01*
X71381905Y-120848476D01*
X71334286Y-121038952D01*
X71334286Y-121419905D01*
X71381905Y-121515143D01*
X71429524Y-121562762D01*
X71524762Y-121610381D01*
X71715239Y-121610381D01*
X71810477Y-121562762D01*
X71858096Y-121515143D01*
X71905715Y-121419905D01*
X71905715Y-121181810D01*
X71858096Y-121086571D01*
X71810477Y-121038952D01*
X71715239Y-120991333D01*
X71524762Y-120991333D01*
X71429524Y-121038952D01*
X71381905Y-121086571D01*
X71334286Y-121181810D01*
X70381905Y-125166381D02*
X70381905Y-124166381D01*
X70620000Y-124166381D01*
X70762858Y-124214000D01*
X70858096Y-124309238D01*
X70905715Y-124404476D01*
X70953334Y-124594952D01*
X70953334Y-124737810D01*
X70905715Y-124928286D01*
X70858096Y-125023524D01*
X70762858Y-125118762D01*
X70620000Y-125166381D01*
X70381905Y-125166381D01*
X71286667Y-124166381D02*
X71953334Y-124166381D01*
X71524762Y-125166381D01*
X48125143Y-52681143D02*
X48077524Y-52728762D01*
X47934667Y-52776381D01*
X47839429Y-52776381D01*
X47696571Y-52728762D01*
X47601333Y-52633524D01*
X47553714Y-52538286D01*
X47506095Y-52347810D01*
X47506095Y-52204952D01*
X47553714Y-52014476D01*
X47601333Y-51919238D01*
X47696571Y-51824000D01*
X47839429Y-51776381D01*
X47934667Y-51776381D01*
X48077524Y-51824000D01*
X48125143Y-51871619D01*
X49077524Y-52776381D02*
X48506095Y-52776381D01*
X48791809Y-52776381D02*
X48791809Y-51776381D01*
X48696571Y-51919238D01*
X48601333Y-52014476D01*
X48506095Y-52062095D01*
X49410857Y-51776381D02*
X50077524Y-51776381D01*
X49648952Y-52776381D01*
X49807905Y-81986381D02*
X49807905Y-80986381D01*
X50046000Y-80986381D01*
X50188858Y-81034000D01*
X50284096Y-81129238D01*
X50331715Y-81224476D01*
X50379334Y-81414952D01*
X50379334Y-81557810D01*
X50331715Y-81748286D01*
X50284096Y-81843524D01*
X50188858Y-81938762D01*
X50046000Y-81986381D01*
X49807905Y-81986381D01*
X50950762Y-81414952D02*
X50855524Y-81367333D01*
X50807905Y-81319714D01*
X50760286Y-81224476D01*
X50760286Y-81176857D01*
X50807905Y-81081619D01*
X50855524Y-81034000D01*
X50950762Y-80986381D01*
X51141239Y-80986381D01*
X51236477Y-81034000D01*
X51284096Y-81081619D01*
X51331715Y-81176857D01*
X51331715Y-81224476D01*
X51284096Y-81319714D01*
X51236477Y-81367333D01*
X51141239Y-81414952D01*
X50950762Y-81414952D01*
X50855524Y-81462571D01*
X50807905Y-81510190D01*
X50760286Y-81605429D01*
X50760286Y-81795905D01*
X50807905Y-81891143D01*
X50855524Y-81938762D01*
X50950762Y-81986381D01*
X51141239Y-81986381D01*
X51236477Y-81938762D01*
X51284096Y-81891143D01*
X51331715Y-81795905D01*
X51331715Y-81605429D01*
X51284096Y-81510190D01*
X51236477Y-81462571D01*
X51141239Y-81414952D01*
X49553905Y-85796381D02*
X49553905Y-84796381D01*
X49792000Y-84796381D01*
X49934858Y-84844000D01*
X50030096Y-84939238D01*
X50077715Y-85034476D01*
X50125334Y-85224952D01*
X50125334Y-85367810D01*
X50077715Y-85558286D01*
X50030096Y-85653524D01*
X49934858Y-85748762D01*
X49792000Y-85796381D01*
X49553905Y-85796381D01*
X50601524Y-85796381D02*
X50792000Y-85796381D01*
X50887239Y-85748762D01*
X50934858Y-85701143D01*
X51030096Y-85558286D01*
X51077715Y-85367810D01*
X51077715Y-84986857D01*
X51030096Y-84891619D01*
X50982477Y-84844000D01*
X50887239Y-84796381D01*
X50696762Y-84796381D01*
X50601524Y-84844000D01*
X50553905Y-84891619D01*
X50506286Y-84986857D01*
X50506286Y-85224952D01*
X50553905Y-85320190D01*
X50601524Y-85367810D01*
X50696762Y-85415429D01*
X50887239Y-85415429D01*
X50982477Y-85367810D01*
X51030096Y-85320190D01*
X51077715Y-85224952D01*
X47299714Y-68524381D02*
X47299714Y-67524381D01*
X47537809Y-67524381D01*
X47680667Y-67572000D01*
X47775905Y-67667238D01*
X47823524Y-67762476D01*
X47871143Y-67952952D01*
X47871143Y-68095810D01*
X47823524Y-68286286D01*
X47775905Y-68381524D01*
X47680667Y-68476762D01*
X47537809Y-68524381D01*
X47299714Y-68524381D01*
X48823524Y-68524381D02*
X48252095Y-68524381D01*
X48537809Y-68524381D02*
X48537809Y-67524381D01*
X48442571Y-67667238D01*
X48347333Y-67762476D01*
X48252095Y-67810095D01*
X49442571Y-67524381D02*
X49537810Y-67524381D01*
X49633048Y-67572000D01*
X49680667Y-67619619D01*
X49728286Y-67714857D01*
X49775905Y-67905333D01*
X49775905Y-68143429D01*
X49728286Y-68333905D01*
X49680667Y-68429143D01*
X49633048Y-68476762D01*
X49537810Y-68524381D01*
X49442571Y-68524381D01*
X49347333Y-68476762D01*
X49299714Y-68429143D01*
X49252095Y-68333905D01*
X49204476Y-68143429D01*
X49204476Y-67905333D01*
X49252095Y-67714857D01*
X49299714Y-67619619D01*
X49347333Y-67572000D01*
X49442571Y-67524381D01*
X47299714Y-72080381D02*
X47299714Y-71080381D01*
X47537809Y-71080381D01*
X47680667Y-71128000D01*
X47775905Y-71223238D01*
X47823524Y-71318476D01*
X47871143Y-71508952D01*
X47871143Y-71651810D01*
X47823524Y-71842286D01*
X47775905Y-71937524D01*
X47680667Y-72032762D01*
X47537809Y-72080381D01*
X47299714Y-72080381D01*
X48823524Y-72080381D02*
X48252095Y-72080381D01*
X48537809Y-72080381D02*
X48537809Y-71080381D01*
X48442571Y-71223238D01*
X48347333Y-71318476D01*
X48252095Y-71366095D01*
X49775905Y-72080381D02*
X49204476Y-72080381D01*
X49490190Y-72080381D02*
X49490190Y-71080381D01*
X49394952Y-71223238D01*
X49299714Y-71318476D01*
X49204476Y-71366095D01*
X56848477Y-37298381D02*
X56848477Y-38012667D01*
X56800857Y-38155524D01*
X56705619Y-38250762D01*
X56562762Y-38298381D01*
X56467524Y-38298381D01*
X57848477Y-38298381D02*
X57277048Y-38298381D01*
X57562762Y-38298381D02*
X57562762Y-37298381D01*
X57467524Y-37441238D01*
X57372286Y-37536476D01*
X57277048Y-37584095D01*
X58419905Y-37726952D02*
X58324667Y-37679333D01*
X58277048Y-37631714D01*
X58229429Y-37536476D01*
X58229429Y-37488857D01*
X58277048Y-37393619D01*
X58324667Y-37346000D01*
X58419905Y-37298381D01*
X58610382Y-37298381D01*
X58705620Y-37346000D01*
X58753239Y-37393619D01*
X58800858Y-37488857D01*
X58800858Y-37536476D01*
X58753239Y-37631714D01*
X58705620Y-37679333D01*
X58610382Y-37726952D01*
X58419905Y-37726952D01*
X58324667Y-37774571D01*
X58277048Y-37822190D01*
X58229429Y-37917429D01*
X58229429Y-38107905D01*
X58277048Y-38203143D01*
X58324667Y-38250762D01*
X58419905Y-38298381D01*
X58610382Y-38298381D01*
X58705620Y-38250762D01*
X58753239Y-38203143D01*
X58800858Y-38107905D01*
X58800858Y-37917429D01*
X58753239Y-37822190D01*
X58705620Y-37774571D01*
X58610382Y-37726952D01*
X51768477Y-37298381D02*
X51768477Y-38012667D01*
X51720857Y-38155524D01*
X51625619Y-38250762D01*
X51482762Y-38298381D01*
X51387524Y-38298381D01*
X52768477Y-38298381D02*
X52197048Y-38298381D01*
X52482762Y-38298381D02*
X52482762Y-37298381D01*
X52387524Y-37441238D01*
X52292286Y-37536476D01*
X52197048Y-37584095D01*
X53244667Y-38298381D02*
X53435143Y-38298381D01*
X53530382Y-38250762D01*
X53578001Y-38203143D01*
X53673239Y-38060286D01*
X53720858Y-37869810D01*
X53720858Y-37488857D01*
X53673239Y-37393619D01*
X53625620Y-37346000D01*
X53530382Y-37298381D01*
X53339905Y-37298381D01*
X53244667Y-37346000D01*
X53197048Y-37393619D01*
X53149429Y-37488857D01*
X53149429Y-37726952D01*
X53197048Y-37822190D01*
X53244667Y-37869810D01*
X53339905Y-37917429D01*
X53530382Y-37917429D01*
X53625620Y-37869810D01*
X53673239Y-37822190D01*
X53720858Y-37726952D01*
X25232381Y-55165523D02*
X25946667Y-55165523D01*
X26089524Y-55213143D01*
X26184762Y-55308381D01*
X26232381Y-55451238D01*
X26232381Y-55546476D01*
X25327619Y-54736952D02*
X25280000Y-54689333D01*
X25232381Y-54594095D01*
X25232381Y-54355999D01*
X25280000Y-54260761D01*
X25327619Y-54213142D01*
X25422857Y-54165523D01*
X25518095Y-54165523D01*
X25660952Y-54213142D01*
X26232381Y-54784571D01*
X26232381Y-54165523D01*
X25232381Y-53546476D02*
X25232381Y-53451237D01*
X25280000Y-53355999D01*
X25327619Y-53308380D01*
X25422857Y-53260761D01*
X25613333Y-53213142D01*
X25851429Y-53213142D01*
X26041905Y-53260761D01*
X26137143Y-53308380D01*
X26184762Y-53355999D01*
X26232381Y-53451237D01*
X26232381Y-53546476D01*
X26184762Y-53641714D01*
X26137143Y-53689333D01*
X26041905Y-53736952D01*
X25851429Y-53784571D01*
X25613333Y-53784571D01*
X25422857Y-53736952D01*
X25327619Y-53689333D01*
X25280000Y-53641714D01*
X25232381Y-53546476D01*
X30599143Y-44902381D02*
X30265809Y-44426190D01*
X30027714Y-44902381D02*
X30027714Y-43902381D01*
X30408667Y-43902381D01*
X30503905Y-43950000D01*
X30551524Y-43997619D01*
X30599143Y-44092857D01*
X30599143Y-44235714D01*
X30551524Y-44330952D01*
X30503905Y-44378571D01*
X30408667Y-44426190D01*
X30027714Y-44426190D01*
X31551524Y-44902381D02*
X30980095Y-44902381D01*
X31265809Y-44902381D02*
X31265809Y-43902381D01*
X31170571Y-44045238D01*
X31075333Y-44140476D01*
X30980095Y-44188095D01*
X32027714Y-44902381D02*
X32218190Y-44902381D01*
X32313429Y-44854762D01*
X32361048Y-44807143D01*
X32456286Y-44664286D01*
X32503905Y-44473810D01*
X32503905Y-44092857D01*
X32456286Y-43997619D01*
X32408667Y-43950000D01*
X32313429Y-43902381D01*
X32122952Y-43902381D01*
X32027714Y-43950000D01*
X31980095Y-43997619D01*
X31932476Y-44092857D01*
X31932476Y-44330952D01*
X31980095Y-44426190D01*
X32027714Y-44473810D01*
X32122952Y-44521429D01*
X32313429Y-44521429D01*
X32408667Y-44473810D01*
X32456286Y-44426190D01*
X32503905Y-44330952D01*
X31361143Y-64460381D02*
X31027809Y-63984190D01*
X30789714Y-64460381D02*
X30789714Y-63460381D01*
X31170667Y-63460381D01*
X31265905Y-63508000D01*
X31313524Y-63555619D01*
X31361143Y-63650857D01*
X31361143Y-63793714D01*
X31313524Y-63888952D01*
X31265905Y-63936571D01*
X31170667Y-63984190D01*
X30789714Y-63984190D01*
X31742095Y-63555619D02*
X31789714Y-63508000D01*
X31884952Y-63460381D01*
X32123048Y-63460381D01*
X32218286Y-63508000D01*
X32265905Y-63555619D01*
X32313524Y-63650857D01*
X32313524Y-63746095D01*
X32265905Y-63888952D01*
X31694476Y-64460381D01*
X32313524Y-64460381D01*
X32932571Y-63460381D02*
X33027810Y-63460381D01*
X33123048Y-63508000D01*
X33170667Y-63555619D01*
X33218286Y-63650857D01*
X33265905Y-63841333D01*
X33265905Y-64079429D01*
X33218286Y-64269905D01*
X33170667Y-64365143D01*
X33123048Y-64412762D01*
X33027810Y-64460381D01*
X32932571Y-64460381D01*
X32837333Y-64412762D01*
X32789714Y-64365143D01*
X32742095Y-64269905D01*
X32694476Y-64079429D01*
X32694476Y-63841333D01*
X32742095Y-63650857D01*
X32789714Y-63555619D01*
X32837333Y-63508000D01*
X32932571Y-63460381D01*
X42108381Y-55506857D02*
X41632190Y-55840191D01*
X42108381Y-56078286D02*
X41108381Y-56078286D01*
X41108381Y-55697333D01*
X41156000Y-55602095D01*
X41203619Y-55554476D01*
X41298857Y-55506857D01*
X41441714Y-55506857D01*
X41536952Y-55554476D01*
X41584571Y-55602095D01*
X41632190Y-55697333D01*
X41632190Y-56078286D01*
X41203619Y-55125905D02*
X41156000Y-55078286D01*
X41108381Y-54983048D01*
X41108381Y-54744952D01*
X41156000Y-54649714D01*
X41203619Y-54602095D01*
X41298857Y-54554476D01*
X41394095Y-54554476D01*
X41536952Y-54602095D01*
X42108381Y-55173524D01*
X42108381Y-54554476D01*
X42108381Y-53602095D02*
X42108381Y-54173524D01*
X42108381Y-53887810D02*
X41108381Y-53887810D01*
X41251238Y-53983048D01*
X41346476Y-54078286D01*
X41394095Y-54173524D01*
X35012381Y-40941523D02*
X35726667Y-40941523D01*
X35869524Y-40989143D01*
X35964762Y-41084381D01*
X36012381Y-41227238D01*
X36012381Y-41322476D01*
X36012381Y-39941523D02*
X36012381Y-40512952D01*
X36012381Y-40227238D02*
X35012381Y-40227238D01*
X35155238Y-40322476D01*
X35250476Y-40417714D01*
X35298095Y-40512952D01*
X35012381Y-39084380D02*
X35012381Y-39274857D01*
X35060000Y-39370095D01*
X35107619Y-39417714D01*
X35250476Y-39512952D01*
X35440952Y-39560571D01*
X35821905Y-39560571D01*
X35917143Y-39512952D01*
X35964762Y-39465333D01*
X36012381Y-39370095D01*
X36012381Y-39179618D01*
X35964762Y-39084380D01*
X35917143Y-39036761D01*
X35821905Y-38989142D01*
X35583810Y-38989142D01*
X35488571Y-39036761D01*
X35440952Y-39084380D01*
X35393333Y-39179618D01*
X35393333Y-39370095D01*
X35440952Y-39465333D01*
X35488571Y-39512952D01*
X35583810Y-39560571D01*
X61928477Y-37298381D02*
X61928477Y-38012667D01*
X61880857Y-38155524D01*
X61785619Y-38250762D01*
X61642762Y-38298381D01*
X61547524Y-38298381D01*
X62928477Y-38298381D02*
X62357048Y-38298381D01*
X62642762Y-38298381D02*
X62642762Y-37298381D01*
X62547524Y-37441238D01*
X62452286Y-37536476D01*
X62357048Y-37584095D01*
X63261810Y-37298381D02*
X63928477Y-37298381D01*
X63499905Y-38298381D01*
X45934381Y-61213905D02*
X46743905Y-61213905D01*
X46839143Y-61166286D01*
X46886762Y-61118667D01*
X46934381Y-61023429D01*
X46934381Y-60832952D01*
X46886762Y-60737714D01*
X46839143Y-60690095D01*
X46743905Y-60642476D01*
X45934381Y-60642476D01*
X45934381Y-59690095D02*
X45934381Y-60166286D01*
X46410571Y-60213905D01*
X46362952Y-60166286D01*
X46315333Y-60071048D01*
X46315333Y-59832952D01*
X46362952Y-59737714D01*
X46410571Y-59690095D01*
X46505810Y-59642476D01*
X46743905Y-59642476D01*
X46839143Y-59690095D01*
X46886762Y-59737714D01*
X46934381Y-59832952D01*
X46934381Y-60071048D01*
X46886762Y-60166286D01*
X46839143Y-60213905D01*
M02*
