M48
;DRILL file {KiCad 4.0.7} date 05/17/18 11:27:16
;FORMAT={-:-/ absolute / metric / decimal}
FMAT,2
METRIC,TZ
T1C0.400
T2C0.762
T3C0.800
T4C0.810
T5C0.900
T6C1.000
T7C1.100
T8C1.200
T9C1.500
T10C1.520
T11C1.800
T12C2.300
T13C3.300
T14C4.000
%
G90
G05
M71
T1
X29.21Y-51.308
X33.274Y-62.992
X36.83Y-66.548
X51.054Y-111.76
X51.816Y-51.816
X56.896Y-107.188
X58.928Y-112.014
X70.104Y-118.11
X71.374Y-101.092
T2
X22.352Y-84.328
X22.352Y-86.868
T3
X24.892Y-44.45
X25.654Y-64.008
X25.654Y-125.222
X34.29Y-103.632
X34.29Y-116.332
X34.37Y-120.142
X35.052Y-88.138
X35.052Y-100.838
X37.592Y-44.45
X38.354Y-64.008
X38.354Y-125.222
X38.608Y-103.632
X38.608Y-116.332
X39.37Y-120.142
X39.624Y-88.138
X39.624Y-100.838
X40.132Y-79.582
X40.132Y-84.582
X41.656Y-48.514
X41.656Y-61.214
X41.91Y-75.438
X42.672Y-103.886
X42.672Y-116.586
X43.942Y-88.392
X43.942Y-101.092
X45.72Y-56.642
X45.72Y-64.262
X46.736Y-103.886
X46.736Y-116.586
X48.26Y-56.642
X48.26Y-64.262
X48.26Y-88.392
X48.26Y-101.092
X49.022Y-49.276
X50.8Y-56.642
X50.8Y-64.262
X52.07Y-109.22
X52.07Y-116.84
X53.34Y-56.642
X53.34Y-64.262
X53.34Y-99.568
X53.34Y-104.568
X54.022Y-49.276
X54.61Y-75.438
X54.61Y-109.22
X54.61Y-116.84
X57.15Y-109.22
X57.15Y-116.84
X58.42Y-119.968
X58.42Y-124.968
X58.674Y-45.212
X58.674Y-52.832
X58.928Y-84.154
X58.928Y-89.154
X59.182Y-92.964
X59.182Y-100.584
X59.436Y-56.388
X59.436Y-61.388
X59.69Y-109.22
X59.69Y-116.84
X61.04Y-105.156
X61.214Y-45.212
X61.214Y-52.832
X61.722Y-92.964
X61.722Y-100.584
X62.23Y-109.22
X62.23Y-116.84
X62.992Y-66.04
X63.5Y-71.374
X63.5Y-78.994
X63.754Y-45.212
X63.754Y-52.832
X64.262Y-92.964
X64.262Y-100.584
X64.77Y-109.22
X64.77Y-116.84
X65.866Y-84.074
X66.04Y-71.374
X66.04Y-78.994
X66.04Y-105.156
X66.294Y-45.212
X66.294Y-52.832
X66.802Y-92.964
X66.802Y-100.584
X67.056Y-40.64
X67.31Y-109.22
X67.31Y-116.84
X67.992Y-66.04
X68.58Y-71.374
X68.58Y-78.994
X69.596Y-105.41
X70.866Y-84.074
X71.12Y-71.374
X71.12Y-78.994
X71.12Y-109.554
X71.12Y-114.554
X72.056Y-40.64
X73.406Y-93.218
X73.406Y-98.218
X74.596Y-105.41
X75.184Y-73.406
X75.184Y-86.106
X75.438Y-48.514
X75.438Y-61.214
X76.2Y-40.386
X76.2Y-45.386
X76.708Y-65.104
X76.708Y-70.104
X79.248Y-48.514
X79.248Y-61.214
X79.248Y-78.232
X79.248Y-90.932
X79.248Y-94.488
X79.248Y-107.188
X80.01Y-115.316
X80.01Y-128.016
X83.312Y-80.518
X83.312Y-93.218
X84.074Y-115.316
X84.074Y-128.016
X88.138Y-117.602
X93.138Y-117.602
T4
X34.83Y-53.086
X34.83Y-55.626
X36.83Y-53.086
X36.83Y-55.626
T5
X82.042Y-37.592
X82.042Y-40.132
T6
X27.686Y-36.83
X27.686Y-39.37
X30.226Y-36.83
X30.226Y-39.37
X32.766Y-36.83
X32.766Y-39.37
T7
X43.434Y-68.072
X43.434Y-71.628
X46.482Y-85.344
X46.736Y-81.534
X52.832Y-88.646
X52.832Y-96.266
X53.594Y-68.072
X53.594Y-71.628
X54.102Y-85.344
X54.356Y-81.534
X65.024Y-88.9
X67.31Y-121.158
X67.31Y-124.714
X72.644Y-88.9
X74.93Y-121.158
X74.93Y-124.714
X83.058Y-48.768
X83.058Y-56.388
X83.312Y-65.532
X83.312Y-73.152
T8
X42.578Y-121.92
X47.578Y-121.92
X52.578Y-121.92
X87.884Y-97.536
X87.884Y-102.536
X87.884Y-107.536
X88.138Y-45.974
X88.138Y-50.974
X88.138Y-55.974
X88.138Y-63.246
X88.138Y-68.246
X88.138Y-73.246
X88.138Y-80.518
X88.138Y-85.518
X88.138Y-90.518
T9
X52.578Y-40.894
X57.658Y-40.894
X58.42Y-69.85
X58.42Y-76.2
X62.738Y-40.894
X65.278Y-58.674
X70.358Y-58.674
X79.756Y-111.506
X85.344Y-111.506
X90.678Y-111.506
T10
X26.416Y-96.52
X26.416Y-101.6
X26.416Y-106.68
X26.416Y-113.284
X26.416Y-118.364
X42.418Y-40.64
X47.498Y-40.64
T12
X32.13Y-48.356
X32.13Y-60.356
T13
X19.05Y-37.846
X19.05Y-126.746
X91.186Y-38.1
X91.44Y-127.254
T6
X29.56Y-70.882G85X29.56Y-72.882
G05
X31.56Y-76.582G85X33.56Y-76.582
G05
X35.56Y-70.882G85X35.56Y-72.882
G05
T11
X19.812Y-83.408G85X19.812Y-82.708
G05
X19.812Y-88.488G85X19.812Y-87.788
G05
T14
X27.432Y-85.598G85X27.432Y-85.598
G05
T0
M30
