G04 #@! TF.FileFunction,Soldermask,Bot*
%FSLAX46Y46*%
G04 Gerber Fmt 4.6, Leading zero omitted, Abs format (unit mm)*
G04 Created by KiCad (PCBNEW 4.0.7) date 04/02/19 10:32:40*
%MOMM*%
%LPD*%
G01*
G04 APERTURE LIST*
%ADD10C,0.100000*%
%ADD11C,2.000000*%
%ADD12O,2.000000X2.000000*%
%ADD13R,2.000000X2.000000*%
%ADD14R,2.900000X2.900000*%
%ADD15C,2.900000*%
%ADD16R,2.800000X2.800000*%
%ADD17C,2.800000*%
%ADD18R,2.600000X2.600000*%
%ADD19O,2.600000X2.600000*%
%ADD20R,2.500000X2.500000*%
%ADD21C,2.500000*%
%ADD22R,3.900000X3.900000*%
%ADD23R,2.100000X2.100000*%
%ADD24O,2.100000X2.100000*%
%ADD25R,2.200000X2.200000*%
%ADD26O,2.200000X2.200000*%
%ADD27C,2.400000*%
%ADD28C,2.200000*%
%ADD29C,2.000000*%
%ADD30C,4.464000*%
%ADD31O,2.800000X2.800000*%
G04 APERTURE END LIST*
D10*
D11*
X135636000Y-93472000D03*
D12*
X125476000Y-93472000D03*
D11*
X82550000Y-88392000D03*
D12*
X82550000Y-78232000D03*
D13*
X94488000Y-58166000D03*
D12*
X102108000Y-63246000D03*
X94488000Y-60706000D03*
X102108000Y-60706000D03*
X94488000Y-63246000D03*
X102108000Y-58166000D03*
D14*
X96774000Y-133858000D03*
D15*
X101774000Y-133858000D03*
D16*
X72898000Y-112776000D03*
D17*
X80398000Y-112776000D03*
D13*
X74676000Y-65532000D03*
D12*
X67056000Y-57912000D03*
X74676000Y-62992000D03*
X67056000Y-60452000D03*
X74676000Y-60452000D03*
X67056000Y-62992000D03*
X74676000Y-57912000D03*
X67056000Y-65532000D03*
D13*
X74168000Y-88138000D03*
D12*
X66548000Y-80518000D03*
X74168000Y-85598000D03*
X66548000Y-83058000D03*
X74168000Y-83058000D03*
X66548000Y-85598000D03*
X74168000Y-80518000D03*
X66548000Y-88138000D03*
D11*
X104394000Y-73914000D03*
X104394000Y-78914000D03*
X132588000Y-100838000D03*
X132588000Y-105838000D03*
D18*
X124968000Y-112268000D03*
D19*
X124968000Y-104648000D03*
D18*
X124968000Y-128778000D03*
D19*
X124968000Y-121158000D03*
D18*
X121158000Y-117348000D03*
D19*
X121158000Y-109728000D03*
D18*
X121158000Y-131318000D03*
D19*
X121158000Y-123698000D03*
D18*
X128778000Y-83058000D03*
D19*
X136398000Y-83058000D03*
D18*
X128778000Y-79248000D03*
D19*
X136398000Y-79248000D03*
D20*
X64008000Y-132648000D03*
D21*
X64008000Y-127548000D03*
X64008000Y-117348000D03*
X64008000Y-122448000D03*
D18*
X62484000Y-84074000D03*
D19*
X62484000Y-91694000D03*
D18*
X62484000Y-72898000D03*
D19*
X62484000Y-80518000D03*
D18*
X62738000Y-61468000D03*
D19*
X62738000Y-69088000D03*
D18*
X62738000Y-50038000D03*
D19*
X62738000Y-57658000D03*
D14*
X132588000Y-117348000D03*
D15*
X132588000Y-112348000D03*
D14*
X55118000Y-122428000D03*
D15*
X55118000Y-127428000D03*
D14*
X55118000Y-65786000D03*
D15*
X55118000Y-70786000D03*
D14*
X132588000Y-128778000D03*
D15*
X132588000Y-123778000D03*
X129167900Y-52641500D03*
X134167900Y-52641500D03*
X124167900Y-52641500D03*
X109609900Y-52806600D03*
X114609900Y-52806600D03*
X104609900Y-52806600D03*
D11*
X121158000Y-136398000D03*
D12*
X131318000Y-136398000D03*
D11*
X118618000Y-97028000D03*
D12*
X128778000Y-97028000D03*
D11*
X117348000Y-100838000D03*
D12*
X127508000Y-100838000D03*
D11*
X128778000Y-65278000D03*
D12*
X128778000Y-75438000D03*
D11*
X113284000Y-58166000D03*
D12*
X113284000Y-68326000D03*
D11*
X105664000Y-58166000D03*
D12*
X105664000Y-68326000D03*
D22*
X62738000Y-108458000D03*
X56738000Y-108458000D03*
X59738000Y-113158000D03*
D23*
X84582000Y-124714000D03*
D24*
X82042000Y-124714000D03*
X79502000Y-124714000D03*
D13*
X123698000Y-86868000D03*
D12*
X116078000Y-71628000D03*
X123698000Y-84328000D03*
X116078000Y-74168000D03*
X123698000Y-81788000D03*
X116078000Y-76708000D03*
X123698000Y-79248000D03*
X116078000Y-79248000D03*
X123698000Y-76708000D03*
X116078000Y-81788000D03*
X123698000Y-74168000D03*
X116078000Y-84328000D03*
X123698000Y-71628000D03*
X116078000Y-86868000D03*
D25*
X86614000Y-135382000D03*
D26*
X84074000Y-135382000D03*
X81534000Y-135382000D03*
D27*
X57658000Y-60706000D03*
X57658000Y-53206000D03*
D25*
X69342000Y-48514000D03*
D28*
X66802000Y-48514000D03*
D25*
X137744200Y-56324500D03*
D28*
X140284200Y-56324500D03*
D11*
X65786000Y-53848000D03*
D12*
X75946000Y-53848000D03*
D11*
X133997700Y-62141100D03*
D12*
X123837700Y-62141100D03*
D23*
X133858000Y-75438000D03*
D24*
X133858000Y-72898000D03*
X133858000Y-70358000D03*
D14*
X86106000Y-50800000D03*
D15*
X91106000Y-50800000D03*
D11*
X78486000Y-88392000D03*
D12*
X78486000Y-78232000D03*
D11*
X86106000Y-108458000D03*
D12*
X86106000Y-118618000D03*
D13*
X72644000Y-127508000D03*
D11*
X72644000Y-122508000D03*
D13*
X81026000Y-92964000D03*
D11*
X81026000Y-97964000D03*
D13*
X76708000Y-72390000D03*
D11*
X81708000Y-72390000D03*
X97028000Y-125222000D03*
X102028000Y-125222000D03*
D18*
X102108000Y-113030000D03*
D19*
X102108000Y-120650000D03*
D18*
X98044000Y-120650000D03*
D19*
X98044000Y-113030000D03*
D23*
X89662000Y-94234000D03*
D24*
X92202000Y-94234000D03*
X94742000Y-94234000D03*
D11*
X90932000Y-64262000D03*
D29*
X83747795Y-57077795D02*
X83747795Y-57077795D01*
D11*
X98552000Y-92456000D03*
D12*
X98552000Y-102616000D03*
D13*
X91948000Y-73914000D03*
D12*
X99568000Y-89154000D03*
X91948000Y-76454000D03*
X99568000Y-86614000D03*
X91948000Y-78994000D03*
X99568000Y-84074000D03*
X91948000Y-81534000D03*
X99568000Y-81534000D03*
X91948000Y-84074000D03*
X99568000Y-78994000D03*
X91948000Y-86614000D03*
X99568000Y-76454000D03*
X91948000Y-89154000D03*
X99568000Y-73914000D03*
D11*
X138569700Y-66903600D03*
X138569700Y-61903600D03*
X87630000Y-73914000D03*
X87630000Y-78914000D03*
D18*
X94996000Y-102108000D03*
D19*
X87376000Y-102108000D03*
D18*
X94996000Y-98298000D03*
D19*
X87376000Y-98298000D03*
D11*
X104394000Y-87122000D03*
X104394000Y-82122000D03*
D30*
X50000000Y-50000000D03*
X50000000Y-140000000D03*
X140000000Y-50000000D03*
X140000000Y-140000000D03*
D11*
X132588000Y-88900000D03*
X127588000Y-88900000D03*
D18*
X76454000Y-131318000D03*
D19*
X84074000Y-131318000D03*
D23*
X104140000Y-90678000D03*
D24*
X106680000Y-90678000D03*
D11*
X109474000Y-58166000D03*
D12*
X109474000Y-68326000D03*
D27*
X66548000Y-93218000D03*
X74048000Y-93218000D03*
X73406000Y-70612000D03*
X65906000Y-70612000D03*
D17*
X55880000Y-90678000D03*
D31*
X55880000Y-75438000D03*
D17*
X109982000Y-121666000D03*
D31*
X109982000Y-136906000D03*
D17*
X116332000Y-121412000D03*
D31*
X116332000Y-136652000D03*
D27*
X117094000Y-116586000D03*
X109594000Y-116586000D03*
D11*
X112014000Y-95504000D03*
D12*
X101854000Y-95504000D03*
M02*
