G04 #@! TF.FileFunction,Copper,L2,Bot,Signal*
%FSLAX46Y46*%
G04 Gerber Fmt 4.6, Leading zero omitted, Abs format (unit mm)*
G04 Created by KiCad (PCBNEW 4.0.7) date 11/09/20 07:12:09*
%MOMM*%
%LPD*%
G01*
G04 APERTURE LIST*
%ADD10C,0.100000*%
%ADD11R,1.600000X1.600000*%
%ADD12O,1.600000X1.600000*%
%ADD13C,1.600000*%
%ADD14R,2.500000X2.500000*%
%ADD15C,2.500000*%
%ADD16R,2.400000X2.400000*%
%ADD17C,2.400000*%
%ADD18R,2.200000X2.200000*%
%ADD19O,2.200000X2.200000*%
%ADD20R,2.100000X2.100000*%
%ADD21C,2.100000*%
%ADD22R,3.500000X3.500000*%
%ADD23R,1.700000X1.700000*%
%ADD24O,1.700000X1.700000*%
%ADD25R,1.800000X1.800000*%
%ADD26O,1.800000X1.800000*%
%ADD27C,2.000000*%
%ADD28C,1.800000*%
%ADD29C,1.600000*%
%ADD30C,4.064000*%
%ADD31O,2.400000X2.400000*%
%ADD32C,0.600000*%
%ADD33C,0.350000*%
%ADD34C,0.500000*%
%ADD35C,1.000000*%
G04 APERTURE END LIST*
D10*
D11*
X94488000Y-58166000D03*
D12*
X102108000Y-63246000D03*
X94488000Y-60706000D03*
X102108000Y-60706000D03*
X94488000Y-63246000D03*
X102108000Y-58166000D03*
D13*
X136710000Y-71300000D03*
D12*
X136710000Y-81460000D03*
D13*
X141500000Y-97000000D03*
D12*
X131340000Y-97000000D03*
D13*
X82550000Y-88392000D03*
D12*
X82550000Y-78232000D03*
D14*
X96774000Y-133858000D03*
D15*
X101774000Y-133858000D03*
D16*
X72898000Y-112776000D03*
D17*
X80398000Y-112776000D03*
D11*
X74676000Y-65532000D03*
D12*
X67056000Y-57912000D03*
X74676000Y-62992000D03*
X67056000Y-60452000D03*
X74676000Y-60452000D03*
X67056000Y-62992000D03*
X74676000Y-57912000D03*
X67056000Y-65532000D03*
D11*
X74168000Y-88138000D03*
D12*
X66548000Y-80518000D03*
X74168000Y-85598000D03*
X66548000Y-83058000D03*
X74168000Y-83058000D03*
X66548000Y-85598000D03*
X74168000Y-80518000D03*
X66548000Y-88138000D03*
D13*
X107460000Y-57560000D03*
X107460000Y-62560000D03*
X131290000Y-93000000D03*
X126290000Y-93000000D03*
D18*
X124840000Y-117290000D03*
D19*
X124840000Y-109670000D03*
D18*
X124968000Y-128778000D03*
D19*
X124968000Y-121158000D03*
D18*
X121158000Y-117348000D03*
D19*
X121158000Y-109728000D03*
D18*
X121158000Y-131318000D03*
D19*
X121158000Y-123698000D03*
D18*
X140370000Y-92420000D03*
D19*
X140370000Y-84800000D03*
D18*
X136830000Y-84780000D03*
D19*
X136830000Y-92400000D03*
D20*
X64008000Y-132648000D03*
D21*
X64008000Y-127548000D03*
X64008000Y-117348000D03*
X64008000Y-122448000D03*
D18*
X62484000Y-84074000D03*
D19*
X62484000Y-91694000D03*
D18*
X62484000Y-72898000D03*
D19*
X62484000Y-80518000D03*
D18*
X62738000Y-61468000D03*
D19*
X62738000Y-69088000D03*
D18*
X62738000Y-50038000D03*
D19*
X62738000Y-57658000D03*
D14*
X132588000Y-117348000D03*
D15*
X132588000Y-112348000D03*
D14*
X55118000Y-122428000D03*
D15*
X55118000Y-127428000D03*
D14*
X55118000Y-65786000D03*
D15*
X55118000Y-70786000D03*
D14*
X132588000Y-128778000D03*
D15*
X132588000Y-123778000D03*
X129167900Y-52641500D03*
X134167900Y-52641500D03*
X124167900Y-52641500D03*
X109609900Y-52806600D03*
X114609900Y-52806600D03*
X104609900Y-52806600D03*
D13*
X121158000Y-136398000D03*
D12*
X131318000Y-136398000D03*
D13*
X118250000Y-97000000D03*
D12*
X128410000Y-97000000D03*
D13*
X118250000Y-100750000D03*
D12*
X128410000Y-100750000D03*
D13*
X139950000Y-71330000D03*
D12*
X139950000Y-81490000D03*
D13*
X118220000Y-57910000D03*
D12*
X118220000Y-68070000D03*
D13*
X111520000Y-57800000D03*
D12*
X111520000Y-67960000D03*
D22*
X62738000Y-108458000D03*
X56738000Y-108458000D03*
X59738000Y-113158000D03*
D23*
X85500000Y-125750000D03*
D24*
X82960000Y-125750000D03*
X80420000Y-125750000D03*
D11*
X133000000Y-88500000D03*
D12*
X125380000Y-73260000D03*
X133000000Y-85960000D03*
X125380000Y-75800000D03*
X133000000Y-83420000D03*
X125380000Y-78340000D03*
X133000000Y-80880000D03*
X125380000Y-80880000D03*
X133000000Y-78340000D03*
X125380000Y-83420000D03*
X133000000Y-75800000D03*
X125380000Y-85960000D03*
X133000000Y-73260000D03*
X125380000Y-88500000D03*
D25*
X86614000Y-135382000D03*
D26*
X84074000Y-135382000D03*
X81534000Y-135382000D03*
D27*
X57658000Y-60706000D03*
X57658000Y-53206000D03*
D25*
X69342000Y-48514000D03*
D28*
X66802000Y-48514000D03*
D25*
X137744200Y-56324500D03*
D28*
X140284200Y-56324500D03*
D13*
X65786000Y-53848000D03*
D12*
X75946000Y-53848000D03*
D23*
X136020000Y-68080000D03*
D24*
X136020000Y-65540000D03*
X136020000Y-63000000D03*
D14*
X86106000Y-50800000D03*
D15*
X91106000Y-50800000D03*
D13*
X78486000Y-88392000D03*
D12*
X78486000Y-78232000D03*
D13*
X86106000Y-108458000D03*
D12*
X86106000Y-118618000D03*
D11*
X72644000Y-127508000D03*
D13*
X72644000Y-122508000D03*
D11*
X81026000Y-92964000D03*
D13*
X81026000Y-97964000D03*
D11*
X76708000Y-72390000D03*
D13*
X81708000Y-72390000D03*
X97028000Y-125222000D03*
X102028000Y-125222000D03*
D18*
X102108000Y-113030000D03*
D19*
X102108000Y-120650000D03*
D18*
X98044000Y-120650000D03*
D19*
X98044000Y-113030000D03*
D23*
X88770000Y-74870000D03*
D24*
X88770000Y-77410000D03*
X88770000Y-79950000D03*
D13*
X90932000Y-64262000D03*
D29*
X83747795Y-57077795D02*
X83747795Y-57077795D01*
D13*
X92620000Y-94370000D03*
D12*
X102780000Y-94370000D03*
D11*
X92850000Y-73990000D03*
D12*
X100470000Y-89230000D03*
X92850000Y-76530000D03*
X100470000Y-86690000D03*
X92850000Y-79070000D03*
X100470000Y-84150000D03*
X92850000Y-81610000D03*
X100470000Y-81610000D03*
X92850000Y-84150000D03*
X100470000Y-79070000D03*
X92850000Y-86690000D03*
X100470000Y-76530000D03*
X92850000Y-89230000D03*
X100470000Y-73990000D03*
D13*
X131370000Y-64160000D03*
X126370000Y-64160000D03*
X102640000Y-69800000D03*
X107640000Y-69800000D03*
D18*
X105950000Y-101310000D03*
D19*
X98330000Y-101310000D03*
D18*
X106060000Y-98070000D03*
D19*
X98440000Y-98070000D03*
D13*
X104394000Y-87122000D03*
X104394000Y-82122000D03*
D30*
X50000000Y-50000000D03*
X50000000Y-140000000D03*
X140000000Y-50000000D03*
X140000000Y-140000000D03*
D13*
X126230000Y-69010000D03*
X131230000Y-69010000D03*
D18*
X76454000Y-131318000D03*
D19*
X84074000Y-131318000D03*
D23*
X104140000Y-90678000D03*
D24*
X106680000Y-90678000D03*
D13*
X114870000Y-57840000D03*
D12*
X114870000Y-68000000D03*
D27*
X66548000Y-93218000D03*
X74048000Y-93218000D03*
X73406000Y-70612000D03*
X65906000Y-70612000D03*
D17*
X55880000Y-90678000D03*
D31*
X55880000Y-75438000D03*
D17*
X109982000Y-121666000D03*
D31*
X109982000Y-136906000D03*
D17*
X116332000Y-121412000D03*
D31*
X116332000Y-136652000D03*
D27*
X117094000Y-116586000D03*
X109594000Y-116586000D03*
D13*
X89310000Y-94790000D03*
D12*
X89310000Y-84630000D03*
D13*
X113740000Y-94860000D03*
X113740000Y-99860000D03*
D23*
X109360000Y-84550000D03*
D24*
X109360000Y-82010000D03*
X109360000Y-79470000D03*
D11*
X121500000Y-90910000D03*
D12*
X113880000Y-73130000D03*
X121500000Y-88370000D03*
X113880000Y-75670000D03*
X121500000Y-85830000D03*
X113880000Y-78210000D03*
X121500000Y-83290000D03*
X113880000Y-80750000D03*
X121500000Y-80750000D03*
X113880000Y-83290000D03*
X121500000Y-78210000D03*
X113880000Y-85830000D03*
X121500000Y-75670000D03*
X113880000Y-88370000D03*
X121500000Y-73130000D03*
X113880000Y-90910000D03*
D32*
X95020000Y-81580000D03*
D33*
X107460000Y-57560000D02*
X107460000Y-54956500D01*
X107460000Y-54956500D02*
X109609900Y-52806600D01*
X109609900Y-52806600D02*
X109609900Y-52240100D01*
X109609900Y-52240100D02*
X111620000Y-50230000D01*
X118220000Y-52000000D02*
X118220000Y-57910000D01*
X116450000Y-50230000D02*
X118220000Y-52000000D01*
X111620000Y-50230000D02*
X116450000Y-50230000D01*
X118220000Y-57910000D02*
X114940000Y-57910000D01*
X114940000Y-57910000D02*
X114870000Y-57840000D01*
D34*
X109609900Y-52806600D02*
X104609900Y-52806600D01*
X105308400Y-53035200D02*
X104466400Y-53035200D01*
X104466400Y-53035200D02*
X104466400Y-52955200D01*
D33*
X131340000Y-97000000D02*
X131340000Y-102850000D01*
X117094000Y-109556000D02*
X117094000Y-116586000D01*
X120650000Y-106000000D02*
X117094000Y-109556000D01*
X128190000Y-106000000D02*
X120650000Y-106000000D01*
X131340000Y-102850000D02*
X128190000Y-106000000D01*
X131340000Y-97000000D02*
X130840000Y-97000000D01*
D35*
X121158000Y-131318000D02*
X121158000Y-136398000D01*
X124968000Y-128778000D02*
X124968000Y-129682000D01*
X124968000Y-129682000D02*
X123332000Y-131318000D01*
X123332000Y-131318000D02*
X121158000Y-131318000D01*
X116332000Y-121412000D02*
X116332000Y-127282000D01*
X116332000Y-127282000D02*
X120368000Y-131318000D01*
X120368000Y-131318000D02*
X121158000Y-131318000D01*
X117094000Y-116586000D02*
X117094000Y-116876000D01*
X117094000Y-116876000D02*
X116332000Y-117638000D01*
X116332000Y-117638000D02*
X116332000Y-121412000D01*
X116332000Y-121412000D02*
X110236000Y-121412000D01*
X110236000Y-121412000D02*
X109982000Y-121666000D01*
D33*
X131290000Y-93000000D02*
X131290000Y-92230000D01*
X131290000Y-92230000D02*
X130950000Y-91890000D01*
X131480000Y-81910000D02*
X131480000Y-78340000D01*
X131690000Y-82120000D02*
X131480000Y-81910000D01*
X134230000Y-82120000D02*
X131690000Y-82120000D01*
X134340000Y-82230000D02*
X134230000Y-82120000D01*
X134340000Y-84169998D02*
X134340000Y-82230000D01*
X133849998Y-84660000D02*
X134340000Y-84169998D01*
X131620000Y-84660000D02*
X133849998Y-84660000D01*
X130950000Y-85330000D02*
X131620000Y-84660000D01*
X130950000Y-91890000D02*
X130950000Y-85330000D01*
X131290000Y-93000000D02*
X129050000Y-93000000D01*
X129050000Y-93000000D02*
X123140000Y-98910000D01*
X125380000Y-75800000D02*
X125980000Y-75800000D01*
X125980000Y-75800000D02*
X128520000Y-78340000D01*
X128520000Y-78340000D02*
X131480000Y-78340000D01*
X131480000Y-78340000D02*
X133000000Y-78340000D01*
X128498000Y-100838000D02*
X128410000Y-100750000D01*
D35*
X118250000Y-97000000D02*
X121230000Y-97000000D01*
X124980000Y-100750000D02*
X128410000Y-100750000D01*
X121230000Y-97000000D02*
X123140000Y-98910000D01*
X123140000Y-98910000D02*
X124980000Y-100750000D01*
D34*
X127902000Y-100750000D02*
X128410000Y-100750000D01*
D35*
X68750000Y-56050000D02*
X76550000Y-56050000D01*
X99670000Y-71170000D02*
X100470000Y-71970000D01*
X84740000Y-71170000D02*
X99670000Y-71170000D01*
X83860000Y-70290000D02*
X84740000Y-71170000D01*
X82410000Y-70290000D02*
X83860000Y-70290000D01*
X80920000Y-68800000D02*
X82410000Y-70290000D01*
X80920000Y-65190000D02*
X80920000Y-68800000D01*
X77110000Y-61380000D02*
X80920000Y-65190000D01*
X77110000Y-56610000D02*
X77110000Y-61380000D01*
X76550000Y-56050000D02*
X77110000Y-56610000D01*
X100470000Y-71970000D02*
X100470000Y-73990000D01*
X86106000Y-108458000D02*
X98668000Y-108458000D01*
X102108000Y-111898000D02*
X102108000Y-113030000D01*
X98668000Y-108458000D02*
X102108000Y-111898000D01*
X120630000Y-64470000D02*
X120670000Y-64470000D01*
X107320000Y-64470000D02*
X120630000Y-64470000D01*
X102640000Y-69150000D02*
X107320000Y-64470000D01*
X116170000Y-75020000D02*
X116820000Y-75670000D01*
X116170000Y-73490000D02*
X116170000Y-75020000D01*
X121040000Y-68620000D02*
X116170000Y-73490000D01*
X121040000Y-64840000D02*
X121040000Y-68620000D01*
X120670000Y-64470000D02*
X121040000Y-64840000D01*
D33*
X125380000Y-80880000D02*
X126370000Y-80880000D01*
X126370000Y-80880000D02*
X128910000Y-83420000D01*
X128910000Y-83420000D02*
X133000000Y-83420000D01*
X139950000Y-71330000D02*
X139950000Y-56658700D01*
X139950000Y-56658700D02*
X140284200Y-56324500D01*
X140370000Y-92420000D02*
X140370000Y-91460000D01*
X140370000Y-91460000D02*
X142300000Y-89530000D01*
X142300000Y-89530000D02*
X142300000Y-73680000D01*
X142300000Y-73680000D02*
X139950000Y-71330000D01*
X140470000Y-56510300D02*
X140284200Y-56324500D01*
X140284200Y-56324500D02*
X140284200Y-54404200D01*
X126629400Y-50180000D02*
X124167900Y-52641500D01*
X135140000Y-50180000D02*
X126629400Y-50180000D01*
X138380000Y-53420000D02*
X135140000Y-50180000D01*
X139300000Y-53420000D02*
X138380000Y-53420000D01*
X140284200Y-54404200D02*
X139300000Y-53420000D01*
X126230000Y-69010000D02*
X126230000Y-68290000D01*
X126230000Y-68290000D02*
X124000000Y-66060000D01*
X124000000Y-66060000D02*
X124000000Y-52809400D01*
X124000000Y-52809400D02*
X124167900Y-52641500D01*
X121500000Y-75670000D02*
X121540000Y-75670000D01*
D35*
X113740000Y-94860000D02*
X114040000Y-94860000D01*
X114040000Y-94860000D02*
X115970000Y-96790000D01*
X116980000Y-100750000D02*
X118250000Y-100750000D01*
X115970000Y-99740000D02*
X116980000Y-100750000D01*
X115970000Y-96790000D02*
X115970000Y-99740000D01*
X113880000Y-94720000D02*
X113740000Y-94860000D01*
X113880000Y-90910000D02*
X114980000Y-90910000D01*
X115320000Y-78210000D02*
X113880000Y-78210000D01*
X116230000Y-79120000D02*
X115320000Y-78210000D01*
X116230000Y-89660000D02*
X116230000Y-79120000D01*
X114980000Y-90910000D02*
X116230000Y-89660000D01*
X113880000Y-75670000D02*
X113880000Y-78210000D01*
X119650000Y-75670000D02*
X116820000Y-75670000D01*
X119650000Y-75670000D02*
X121500000Y-75670000D01*
X116820000Y-75670000D02*
X113880000Y-75670000D01*
X102640000Y-69800000D02*
X102640000Y-69150000D01*
X100470000Y-73990000D02*
X100470000Y-71970000D01*
X100470000Y-71970000D02*
X102640000Y-69800000D01*
X73406000Y-70612000D02*
X73406000Y-70786000D01*
X73406000Y-70786000D02*
X75010000Y-72390000D01*
X75010000Y-72390000D02*
X76708000Y-72390000D01*
D33*
X113740000Y-94860000D02*
X113740000Y-95100000D01*
X117480000Y-100750000D02*
X118250000Y-100750000D01*
X113880000Y-94720000D02*
X113740000Y-94860000D01*
D35*
X62738000Y-50038000D02*
X62738000Y-49512000D01*
X62738000Y-49512000D02*
X63736000Y-48514000D01*
X63736000Y-48514000D02*
X66802000Y-48514000D01*
X67056000Y-65532000D02*
X67968000Y-65532000D01*
X66802000Y-51052000D02*
X66802000Y-48514000D01*
X68750000Y-53000000D02*
X66802000Y-51052000D01*
X68750000Y-64750000D02*
X68750000Y-56050000D01*
X68750000Y-56050000D02*
X68750000Y-56000000D01*
X68750000Y-56000000D02*
X68750000Y-53000000D01*
X67968000Y-65532000D02*
X68750000Y-64750000D01*
X73406000Y-70612000D02*
X73406000Y-66802000D01*
X73406000Y-66802000D02*
X74676000Y-65532000D01*
X86106000Y-108458000D02*
X82458000Y-108458000D01*
X78500000Y-104500000D02*
X78500000Y-92964000D01*
X82458000Y-108458000D02*
X78500000Y-104500000D01*
X69000000Y-88138000D02*
X69000000Y-73148000D01*
X69000000Y-73148000D02*
X68750000Y-72898000D01*
X67056000Y-65532000D02*
X67282000Y-65532000D01*
X67282000Y-65532000D02*
X68750000Y-67000000D01*
X68750000Y-67000000D02*
X68750000Y-72898000D01*
X73406000Y-70612000D02*
X72888000Y-70612000D01*
X72888000Y-70612000D02*
X70602000Y-72898000D01*
X70602000Y-72898000D02*
X68750000Y-72898000D01*
X68750000Y-72898000D02*
X62484000Y-72898000D01*
X74168000Y-88138000D02*
X69000000Y-88138000D01*
X69000000Y-88138000D02*
X66548000Y-88138000D01*
X66548000Y-88138000D02*
X66548000Y-93218000D01*
X81026000Y-92964000D02*
X78500000Y-92964000D01*
X78500000Y-92964000D02*
X78214000Y-92964000D01*
X78214000Y-92964000D02*
X74168000Y-88918000D01*
X74168000Y-88918000D02*
X74168000Y-88138000D01*
X81026000Y-92964000D02*
X81214000Y-92964000D01*
X86106000Y-108106000D02*
X86106000Y-108458000D01*
X72898000Y-112776000D02*
X73776000Y-112776000D01*
X73776000Y-112776000D02*
X76750000Y-115750000D01*
X76750000Y-115750000D02*
X82960000Y-115750000D01*
X86106000Y-108458000D02*
X86106000Y-111644000D01*
X82960000Y-114790000D02*
X82960000Y-115750000D01*
X82960000Y-115750000D02*
X82960000Y-125750000D01*
X86106000Y-111644000D02*
X82960000Y-114790000D01*
D34*
X74422000Y-65532000D02*
X74676000Y-65532000D01*
X62738000Y-49784000D02*
X62738000Y-50038000D01*
X100470000Y-73990000D02*
X100978000Y-73990000D01*
D35*
X86614000Y-135382000D02*
X86614000Y-137136000D01*
X76454000Y-136204000D02*
X76454000Y-131318000D01*
X78250000Y-138000000D02*
X76454000Y-136204000D01*
X85750000Y-138000000D02*
X78250000Y-138000000D01*
X86614000Y-137136000D02*
X85750000Y-138000000D01*
X72644000Y-127508000D02*
X76454000Y-131318000D01*
X72644000Y-127508000D02*
X70992000Y-127508000D01*
X65852000Y-132648000D02*
X64008000Y-132648000D01*
X70992000Y-127508000D02*
X65852000Y-132648000D01*
X62738000Y-61468000D02*
X65532000Y-61468000D01*
X65532000Y-61468000D02*
X67056000Y-62992000D01*
X67056000Y-60452000D02*
X67056000Y-62992000D01*
X62738000Y-57658000D02*
X62738000Y-61468000D01*
X62738000Y-61468000D02*
X58420000Y-61468000D01*
X58420000Y-61468000D02*
X57658000Y-60706000D01*
X55118000Y-65786000D02*
X55118000Y-55746000D01*
X55118000Y-55746000D02*
X57658000Y-53206000D01*
D33*
X133620000Y-65760000D02*
X135800000Y-65760000D01*
X135800000Y-65760000D02*
X136020000Y-65540000D01*
X131370000Y-64160000D02*
X131370000Y-54843600D01*
X131370000Y-54843600D02*
X129167900Y-52641500D01*
X131370000Y-64160000D02*
X132440000Y-64160000D01*
X133620000Y-72640000D02*
X133000000Y-73260000D01*
X133620000Y-65340000D02*
X133620000Y-65760000D01*
X133620000Y-65760000D02*
X133620000Y-72640000D01*
X132440000Y-64160000D02*
X133620000Y-65340000D01*
X133000000Y-73260000D02*
X133000000Y-72780000D01*
D35*
X124840000Y-117290000D02*
X124840000Y-117060000D01*
X124840000Y-117060000D02*
X129552000Y-112348000D01*
X129552000Y-112348000D02*
X132588000Y-112348000D01*
X124840000Y-117290000D02*
X124840000Y-121030000D01*
X124840000Y-121030000D02*
X124968000Y-121158000D01*
X124920000Y-117370000D02*
X124840000Y-117290000D01*
X121158000Y-117348000D02*
X121158000Y-117122000D01*
X121158000Y-117122000D02*
X129090000Y-109190000D01*
X134782000Y-117348000D02*
X132588000Y-117348000D01*
X135290000Y-116840000D02*
X134782000Y-117348000D01*
X135290000Y-109530000D02*
X135290000Y-116840000D01*
X134950000Y-109190000D02*
X135290000Y-109530000D01*
X129090000Y-109190000D02*
X134950000Y-109190000D01*
X121158000Y-117348000D02*
X121158000Y-123698000D01*
D33*
X141500000Y-97000000D02*
X140580000Y-97000000D01*
X138570000Y-86600000D02*
X140370000Y-84800000D01*
X138570000Y-94990000D02*
X138570000Y-86600000D01*
X140580000Y-97000000D02*
X138570000Y-94990000D01*
X140370000Y-84800000D02*
X140650000Y-84800000D01*
X140650000Y-84800000D02*
X141540000Y-83910000D01*
X135780000Y-74230000D02*
X134570000Y-74230000D01*
X141540000Y-79990000D02*
X135780000Y-74230000D01*
X141540000Y-83910000D02*
X141540000Y-79990000D01*
X140370000Y-84800000D02*
X140530000Y-84800000D01*
X136020000Y-68080000D02*
X136020000Y-68390000D01*
X136020000Y-68390000D02*
X134570000Y-69840000D01*
X134570000Y-69840000D02*
X134570000Y-74230000D01*
X134570000Y-74230000D02*
X133000000Y-75800000D01*
X133000000Y-75800000D02*
X133780000Y-75800000D01*
X138050000Y-78900000D02*
X134530000Y-78900000D01*
X139950000Y-81490000D02*
X139950000Y-80800000D01*
X139950000Y-80800000D02*
X138050000Y-78900000D01*
X136830000Y-84780000D02*
X137100000Y-84780000D01*
X137100000Y-84780000D02*
X139950000Y-81490000D01*
X133000000Y-80880000D02*
X134000000Y-80880000D01*
X126790000Y-73260000D02*
X125380000Y-73260000D01*
X130590000Y-77060000D02*
X126790000Y-73260000D01*
X134140000Y-77060000D02*
X130590000Y-77060000D01*
X134530000Y-77450000D02*
X134140000Y-77060000D01*
X134530000Y-80350000D02*
X134530000Y-78900000D01*
X134530000Y-78900000D02*
X134530000Y-77950000D01*
X134530000Y-77950000D02*
X134530000Y-77450000D01*
X134000000Y-80880000D02*
X134530000Y-80350000D01*
D35*
X64008000Y-127548000D02*
X55238000Y-127548000D01*
X55238000Y-127548000D02*
X55118000Y-127428000D01*
X66548000Y-83058000D02*
X63500000Y-83058000D01*
X63500000Y-83058000D02*
X62484000Y-84074000D01*
X62484000Y-84074000D02*
X55880000Y-90678000D01*
X62484000Y-80518000D02*
X62484000Y-84074000D01*
X66548000Y-85598000D02*
X66548000Y-83058000D01*
X132588000Y-128778000D02*
X132588000Y-135128000D01*
X132588000Y-135128000D02*
X131318000Y-136398000D01*
D33*
X114609900Y-52806600D02*
X114503400Y-52806600D01*
X114503400Y-52806600D02*
X111520000Y-55790000D01*
X111520000Y-55790000D02*
X111520000Y-57800000D01*
X128410000Y-97000000D02*
X128670000Y-97000000D01*
X128670000Y-97000000D02*
X130880000Y-94790000D01*
X130880000Y-94790000D02*
X132930000Y-94790000D01*
X132930000Y-94790000D02*
X133920000Y-93800000D01*
X133920000Y-93800000D02*
X133920000Y-89420000D01*
X133920000Y-89420000D02*
X133000000Y-88500000D01*
D35*
X80420000Y-125750000D02*
X79502000Y-123752000D01*
X66750000Y-112470000D02*
X62738000Y-108458000D01*
X66750000Y-114250000D02*
X66750000Y-112470000D01*
X71000000Y-118500000D02*
X66750000Y-114250000D01*
X74250000Y-118500000D02*
X71000000Y-118500000D01*
X79502000Y-123752000D02*
X74250000Y-118500000D01*
D34*
X62738000Y-108458000D02*
X62738000Y-108738000D01*
X62738000Y-108458000D02*
X62738000Y-109728000D01*
D35*
X55118000Y-70786000D02*
X55118000Y-71368000D01*
X55118000Y-71368000D02*
X55880000Y-72130000D01*
X55880000Y-72130000D02*
X55880000Y-75438000D01*
X64008000Y-122448000D02*
X55138000Y-122448000D01*
X55138000Y-122448000D02*
X55118000Y-122428000D01*
X69342000Y-48514000D02*
X70612000Y-48514000D01*
X70612000Y-48514000D02*
X75946000Y-53848000D01*
D33*
X136710000Y-71300000D02*
X137080000Y-70290000D01*
X138640000Y-68730000D02*
X138640000Y-57220300D01*
X137080000Y-70290000D02*
X138640000Y-68730000D01*
X138640000Y-57220300D02*
X137744200Y-56324500D01*
D35*
X98044000Y-120650000D02*
X98044000Y-124206000D01*
X98044000Y-124206000D02*
X97028000Y-125222000D01*
X102108000Y-120650000D02*
X98044000Y-120650000D01*
D33*
X102780000Y-94370000D02*
X102780000Y-107300000D01*
X103820000Y-120650000D02*
X102108000Y-120650000D01*
X105280000Y-119190000D02*
X103820000Y-120650000D01*
X105280000Y-109800000D02*
X105280000Y-119190000D01*
X102780000Y-107300000D02*
X105280000Y-109800000D01*
D35*
X96774000Y-133858000D02*
X96774000Y-132246000D01*
X102028000Y-126992000D02*
X102028000Y-125222000D01*
X96774000Y-132246000D02*
X102028000Y-126992000D01*
D33*
X88770000Y-79950000D02*
X88770000Y-80420000D01*
X88770000Y-80420000D02*
X91190000Y-82840000D01*
X98110000Y-87360000D02*
X99980000Y-89230000D01*
X98110000Y-84170000D02*
X98110000Y-87360000D01*
X96780000Y-82840000D02*
X98110000Y-84170000D01*
X91190000Y-82840000D02*
X96780000Y-82840000D01*
X99980000Y-89230000D02*
X100470000Y-89230000D01*
D34*
X100470000Y-89230000D02*
X101092000Y-89154000D01*
X101092000Y-89154000D02*
X103124000Y-87122000D01*
X103124000Y-87122000D02*
X104394000Y-87122000D01*
D33*
X88770000Y-79950000D02*
X89340000Y-79950000D01*
D35*
X91106000Y-50800000D02*
X91106000Y-53894000D01*
X87922205Y-57077795D02*
X83747795Y-57077795D01*
X91106000Y-53894000D02*
X87922205Y-57077795D01*
D33*
X92850000Y-76530000D02*
X93270000Y-76530000D01*
X93270000Y-76530000D02*
X94550000Y-77810000D01*
X116500000Y-69790000D02*
X118220000Y-68070000D01*
X115420000Y-69790000D02*
X116500000Y-69790000D01*
X114690000Y-70520000D02*
X115420000Y-69790000D01*
X112040000Y-70520000D02*
X114690000Y-70520000D01*
X111310000Y-71250000D02*
X112040000Y-70520000D01*
X111310000Y-73260000D02*
X111310000Y-71250000D01*
X108290000Y-76280000D02*
X111310000Y-73260000D01*
X103930000Y-76280000D02*
X108290000Y-76280000D01*
X102400000Y-77810000D02*
X103930000Y-76280000D01*
X94550000Y-77810000D02*
X102400000Y-77810000D01*
X111520000Y-67960000D02*
X111520000Y-67100000D01*
X116250000Y-66100000D02*
X118220000Y-68070000D01*
X112520000Y-66100000D02*
X116250000Y-66100000D01*
X111520000Y-67100000D02*
X112520000Y-66100000D01*
X89310000Y-84630000D02*
X89130000Y-84630000D01*
X89130000Y-84630000D02*
X87170000Y-82670000D01*
X87170000Y-82670000D02*
X87170000Y-76470000D01*
X87170000Y-76470000D02*
X88770000Y-74870000D01*
X88770000Y-74870000D02*
X89500000Y-74870000D01*
X89500000Y-74870000D02*
X91160000Y-76530000D01*
X91160000Y-76530000D02*
X92850000Y-76530000D01*
D34*
X92804000Y-76576000D02*
X92850000Y-76530000D01*
D33*
X88770000Y-77410000D02*
X89340000Y-77410000D01*
X89340000Y-77410000D02*
X91000000Y-79070000D01*
X91000000Y-79070000D02*
X92850000Y-79070000D01*
D34*
X88770000Y-77410000D02*
X89560000Y-77410000D01*
X92146000Y-79070000D02*
X92850000Y-79070000D01*
X92850000Y-79070000D02*
X93358000Y-79070000D01*
D35*
X94488000Y-58166000D02*
X91584000Y-58166000D01*
X90932000Y-58818000D02*
X90932000Y-64262000D01*
X91584000Y-58166000D02*
X90932000Y-58818000D01*
D33*
X82550000Y-78232000D02*
X82550000Y-82740000D01*
X82550000Y-82740000D02*
X88240000Y-88430000D01*
X88240000Y-88430000D02*
X91110000Y-88430000D01*
X91110000Y-88430000D02*
X92850000Y-86690000D01*
D34*
X82550000Y-78232000D02*
X82550000Y-78550000D01*
X82550000Y-78232000D02*
X82732000Y-78232000D01*
D33*
X102108000Y-58166000D02*
X102676000Y-58166000D01*
X102676000Y-58166000D02*
X105530000Y-61020000D01*
X106060000Y-98070000D02*
X106060000Y-97520000D01*
X106060000Y-97520000D02*
X110320000Y-93260000D01*
X125380000Y-91830000D02*
X125380000Y-88500000D01*
X123950000Y-93260000D02*
X125380000Y-91830000D01*
X110320000Y-93260000D02*
X123950000Y-93260000D01*
X106060000Y-98070000D02*
X106060000Y-101200000D01*
X106060000Y-101200000D02*
X105950000Y-101310000D01*
X125380000Y-88500000D02*
X124810000Y-88500000D01*
X124810000Y-88500000D02*
X123670000Y-87360000D01*
X121760000Y-61020000D02*
X105530000Y-61020000D01*
X122820000Y-62080000D02*
X121760000Y-61020000D01*
X122820000Y-68220000D02*
X122820000Y-62080000D01*
X123670000Y-69070000D02*
X122820000Y-68220000D01*
X123670000Y-87360000D02*
X123670000Y-69070000D01*
D34*
X105806000Y-98324000D02*
X106060000Y-98070000D01*
X105696000Y-101564000D02*
X105950000Y-101310000D01*
D33*
X78486000Y-88392000D02*
X78622000Y-88392000D01*
X78622000Y-88392000D02*
X80760000Y-90530000D01*
X89070000Y-101140000D02*
X98330000Y-101310000D01*
X85550000Y-97620000D02*
X89070000Y-101140000D01*
X85550000Y-92420000D02*
X85550000Y-97620000D01*
X83660000Y-90530000D02*
X85550000Y-92420000D01*
X80760000Y-90530000D02*
X83660000Y-90530000D01*
D35*
X78486000Y-88392000D02*
X78486000Y-88486000D01*
X74168000Y-85598000D02*
X75692000Y-85598000D01*
X75692000Y-85598000D02*
X78486000Y-88392000D01*
D33*
X82550000Y-88392000D02*
X84262000Y-88392000D01*
X88900000Y-98070000D02*
X98440000Y-98070000D01*
X86560000Y-95730000D02*
X88900000Y-98070000D01*
X86560000Y-90690000D02*
X86560000Y-95730000D01*
X84262000Y-88392000D02*
X86560000Y-90690000D01*
D35*
X82550000Y-88392000D02*
X82550000Y-87550000D01*
X76242000Y-62992000D02*
X74676000Y-62992000D01*
X79250000Y-66000000D02*
X76242000Y-62992000D01*
X79250000Y-73500000D02*
X79250000Y-66000000D01*
X76750000Y-76000000D02*
X79250000Y-73500000D01*
X76750000Y-81750000D02*
X76750000Y-76000000D01*
X82550000Y-87550000D02*
X76750000Y-81750000D01*
D33*
X136710000Y-81460000D02*
X136240000Y-81460000D01*
X136240000Y-81460000D02*
X134980000Y-82840000D01*
X134980000Y-82840000D02*
X134980000Y-84860000D01*
X134980000Y-84860000D02*
X134130000Y-85960000D01*
X134130000Y-85960000D02*
X133000000Y-85960000D01*
X133000000Y-85960000D02*
X132680000Y-85960000D01*
D35*
X85500000Y-125750000D02*
X85500000Y-129892000D01*
X85500000Y-129892000D02*
X84074000Y-131318000D01*
X84074000Y-131318000D02*
X82682000Y-131318000D01*
X81534000Y-132466000D02*
X81534000Y-135382000D01*
X82682000Y-131318000D02*
X81534000Y-132466000D01*
D34*
X81534000Y-135382000D02*
X81788000Y-134620000D01*
D33*
X104140000Y-90678000D02*
X101672000Y-90678000D01*
X101672000Y-90678000D02*
X97980000Y-94370000D01*
X97980000Y-94370000D02*
X92620000Y-94370000D01*
X92620000Y-94370000D02*
X89730000Y-94370000D01*
X89730000Y-94370000D02*
X89310000Y-94790000D01*
X104140000Y-90678000D02*
X104140000Y-89780000D01*
X102020000Y-85140000D02*
X100470000Y-86690000D01*
X105090000Y-85140000D02*
X102020000Y-85140000D01*
X106110000Y-86160000D02*
X105090000Y-85140000D01*
X106110000Y-87810000D02*
X106110000Y-86160000D01*
X104140000Y-89780000D02*
X106110000Y-87810000D01*
X92850000Y-73990000D02*
X93830000Y-73990000D01*
X114870000Y-68840000D02*
X114870000Y-68000000D01*
X113890000Y-69820000D02*
X114870000Y-68840000D01*
X111040000Y-69820000D02*
X113890000Y-69820000D01*
X110250000Y-70610000D02*
X111040000Y-69820000D01*
X110250000Y-72960000D02*
X110250000Y-70610000D01*
X107940000Y-75270000D02*
X110250000Y-72960000D01*
X95110000Y-75270000D02*
X107940000Y-75270000D01*
X93830000Y-73990000D02*
X95110000Y-75270000D01*
D34*
X92850000Y-73990000D02*
X92850000Y-74244000D01*
D33*
X109360000Y-84550000D02*
X109360000Y-85850000D01*
X111880000Y-88370000D02*
X113880000Y-88370000D01*
X109360000Y-85850000D02*
X111880000Y-88370000D01*
X109360000Y-82010000D02*
X108990000Y-82010000D01*
X108990000Y-82010000D02*
X107380000Y-83620000D01*
X107380000Y-83620000D02*
X103020000Y-83620000D01*
X103020000Y-83620000D02*
X102280000Y-82880000D01*
X102280000Y-82880000D02*
X99180000Y-82880000D01*
X99180000Y-82880000D02*
X97880000Y-81580000D01*
X97880000Y-81580000D02*
X95020000Y-81580000D01*
X78486000Y-78144000D02*
X80200000Y-76430000D01*
X80200000Y-76430000D02*
X84130000Y-76430000D01*
X84130000Y-76430000D02*
X85690000Y-77990000D01*
X85690000Y-77990000D02*
X85690000Y-84510000D01*
X85690000Y-84510000D02*
X87780000Y-86600000D01*
X87780000Y-86600000D02*
X89610000Y-86600000D01*
X89610000Y-86600000D02*
X92060000Y-84150000D01*
X78486000Y-78232000D02*
X78486000Y-78144000D01*
X92060000Y-84150000D02*
X92850000Y-84150000D01*
D34*
X78486000Y-78232000D02*
X78486000Y-77764000D01*
X92674000Y-84326000D02*
X92850000Y-84150000D01*
D33*
X109360000Y-79470000D02*
X110600000Y-79470000D01*
X111720000Y-81850000D02*
X113160000Y-83290000D01*
X111720000Y-80590000D02*
X111720000Y-81850000D01*
X110600000Y-79470000D02*
X111720000Y-80590000D01*
X113160000Y-83290000D02*
X113880000Y-83290000D01*
X92850000Y-81610000D02*
X93070000Y-81610000D01*
X93070000Y-81610000D02*
X94320000Y-80360000D01*
X94320000Y-80360000D02*
X103260000Y-80360000D01*
X103260000Y-80360000D02*
X103440000Y-80540000D01*
X103440000Y-80540000D02*
X106350000Y-80540000D01*
X106350000Y-80540000D02*
X107420000Y-79470000D01*
X107420000Y-79470000D02*
X109360000Y-79470000D01*
D34*
G36*
X65944127Y-47083164D02*
X65868571Y-47114383D01*
X65718693Y-47264000D01*
X63736000Y-47264000D01*
X63257646Y-47359151D01*
X62852116Y-47630117D01*
X62308927Y-48173307D01*
X61638000Y-48173307D01*
X61360067Y-48225604D01*
X61104802Y-48389862D01*
X60933554Y-48640492D01*
X60873307Y-48938000D01*
X60873307Y-51138000D01*
X60925604Y-51415933D01*
X61089862Y-51671198D01*
X61340492Y-51842446D01*
X61638000Y-51902693D01*
X63838000Y-51902693D01*
X64115933Y-51850396D01*
X64371198Y-51686138D01*
X64542446Y-51435508D01*
X64602693Y-51138000D01*
X64602693Y-49764000D01*
X65552000Y-49764000D01*
X65552000Y-51052000D01*
X65642528Y-51507112D01*
X65647151Y-51530354D01*
X65918117Y-51935883D01*
X65924232Y-51941998D01*
X65569357Y-52296874D01*
X65205983Y-52369154D01*
X65120881Y-52617195D01*
X65786000Y-53282315D01*
X66068843Y-52999472D01*
X66634528Y-53565157D01*
X66351685Y-53848000D01*
X67016805Y-54513119D01*
X67264846Y-54428017D01*
X67328446Y-54073323D01*
X67500000Y-53901769D01*
X67500000Y-56575015D01*
X67456000Y-56595693D01*
X67456000Y-57512000D01*
X67500000Y-57512000D01*
X67500000Y-58312000D01*
X67456000Y-58312000D01*
X67456000Y-58712000D01*
X66656000Y-58712000D01*
X66656000Y-58312000D01*
X65747263Y-58312000D01*
X65631335Y-58542631D01*
X65805998Y-58804061D01*
X65805998Y-59470000D01*
X65853435Y-59470000D01*
X65593621Y-59858841D01*
X65522180Y-60218000D01*
X64574468Y-60218000D01*
X64550396Y-60090067D01*
X64386138Y-59834802D01*
X64135508Y-59663554D01*
X63988000Y-59633683D01*
X63988000Y-59041245D01*
X64046148Y-59002392D01*
X64447177Y-58402208D01*
X64588000Y-57694244D01*
X64588000Y-57621756D01*
X64520293Y-57281369D01*
X65631335Y-57281369D01*
X65747263Y-57512000D01*
X66656000Y-57512000D01*
X66656000Y-56595693D01*
X66425365Y-56487306D01*
X65928162Y-56837088D01*
X65631335Y-57281369D01*
X64520293Y-57281369D01*
X64447177Y-56913792D01*
X64046148Y-56313608D01*
X63445964Y-55912579D01*
X62738000Y-55771756D01*
X62030036Y-55912579D01*
X61429852Y-56313608D01*
X61028823Y-56913792D01*
X60888000Y-57621756D01*
X60888000Y-57694244D01*
X61028823Y-58402208D01*
X61429852Y-59002392D01*
X61488000Y-59041245D01*
X61488000Y-59631532D01*
X61360067Y-59655604D01*
X61104802Y-59819862D01*
X60933554Y-60070492D01*
X60903683Y-60218000D01*
X59349866Y-60218000D01*
X59142443Y-59715999D01*
X58650590Y-59223287D01*
X58007624Y-58956304D01*
X57311431Y-58955696D01*
X56667999Y-59221557D01*
X56368000Y-59521033D01*
X56368000Y-56263766D01*
X57552961Y-55078805D01*
X65120881Y-55078805D01*
X65205983Y-55326846D01*
X65816064Y-55436239D01*
X66366017Y-55326846D01*
X66451119Y-55078805D01*
X65786000Y-54413685D01*
X65120881Y-55078805D01*
X57552961Y-55078805D01*
X57675750Y-54956017D01*
X58004569Y-54956304D01*
X58648001Y-54690443D01*
X59140713Y-54198590D01*
X59273807Y-53878064D01*
X64197761Y-53878064D01*
X64307154Y-54428017D01*
X64555195Y-54513119D01*
X65220315Y-53848000D01*
X64555195Y-53182881D01*
X64307154Y-53267983D01*
X64197761Y-53878064D01*
X59273807Y-53878064D01*
X59407696Y-53555624D01*
X59408304Y-52859431D01*
X59142443Y-52215999D01*
X58650590Y-51723287D01*
X58007624Y-51456304D01*
X57311431Y-51455696D01*
X56667999Y-51721557D01*
X56175287Y-52213410D01*
X55908304Y-52856376D01*
X55908014Y-53188219D01*
X54234117Y-54862117D01*
X53963151Y-55267646D01*
X53868000Y-55746000D01*
X53868000Y-63771307D01*
X53590067Y-63823604D01*
X53334802Y-63987862D01*
X53163554Y-64238492D01*
X53103307Y-64536000D01*
X53103307Y-67036000D01*
X53155604Y-67313933D01*
X53319862Y-67569198D01*
X53570492Y-67740446D01*
X53868000Y-67800693D01*
X56368000Y-67800693D01*
X56645933Y-67748396D01*
X56901198Y-67584138D01*
X57072446Y-67333508D01*
X57132693Y-67036000D01*
X57132693Y-64536000D01*
X57080396Y-64258067D01*
X56916138Y-64002802D01*
X56665508Y-63831554D01*
X56368000Y-63771307D01*
X56368000Y-61890784D01*
X56665410Y-62188713D01*
X57308376Y-62455696D01*
X57691984Y-62456031D01*
X57865187Y-62571761D01*
X57941646Y-62622849D01*
X58420000Y-62718000D01*
X60901532Y-62718000D01*
X60925604Y-62845933D01*
X61089862Y-63101198D01*
X61340492Y-63272446D01*
X61638000Y-63332693D01*
X63838000Y-63332693D01*
X64115933Y-63280396D01*
X64371198Y-63116138D01*
X64542446Y-62865508D01*
X64572317Y-62718000D01*
X65014234Y-62718000D01*
X65522166Y-63225933D01*
X65593621Y-63585159D01*
X65929618Y-64088016D01*
X66190004Y-64262000D01*
X65929618Y-64435984D01*
X65593621Y-64938841D01*
X65475634Y-65532000D01*
X65593621Y-66125159D01*
X65929618Y-66628016D01*
X66432475Y-66964013D01*
X67025634Y-67082000D01*
X67064234Y-67082000D01*
X67500000Y-67517767D01*
X67500000Y-69962830D01*
X67336452Y-69888655D01*
X66613107Y-70612000D01*
X66966661Y-70965554D01*
X66284214Y-71648000D01*
X66234893Y-71648000D01*
X65906000Y-71319107D01*
X65577107Y-71648000D01*
X65527786Y-71648000D01*
X64845340Y-70965554D01*
X65198893Y-70612000D01*
X64475548Y-69888655D01*
X64390959Y-69927019D01*
X64404875Y-69908863D01*
X64323264Y-69638000D01*
X63288000Y-69638000D01*
X63288000Y-70663244D01*
X63558857Y-70754840D01*
X63963861Y-70484264D01*
X64192255Y-70186274D01*
X64126462Y-70623768D01*
X63758131Y-70992099D01*
X63854019Y-71087987D01*
X63584000Y-71033307D01*
X61384000Y-71033307D01*
X61106067Y-71085604D01*
X60850802Y-71249862D01*
X60679554Y-71500492D01*
X60619307Y-71798000D01*
X60619307Y-73998000D01*
X60671604Y-74275933D01*
X60835862Y-74531198D01*
X61086492Y-74702446D01*
X61384000Y-74762693D01*
X63584000Y-74762693D01*
X63861933Y-74710396D01*
X64117198Y-74546138D01*
X64288446Y-74295508D01*
X64318317Y-74148000D01*
X67750000Y-74148000D01*
X67750000Y-79267998D01*
X67426954Y-79267998D01*
X67178635Y-79093306D01*
X66948000Y-79201693D01*
X66948000Y-80118000D01*
X67348000Y-80118000D01*
X67348000Y-80918000D01*
X66948000Y-80918000D01*
X66948000Y-81318000D01*
X66148000Y-81318000D01*
X66148000Y-80918000D01*
X65239263Y-80918000D01*
X65123335Y-81148631D01*
X65297998Y-81410061D01*
X65297998Y-81808000D01*
X63828491Y-81808000D01*
X64193177Y-81262208D01*
X64334000Y-80554244D01*
X64334000Y-80481756D01*
X64215769Y-79887369D01*
X65123335Y-79887369D01*
X65239263Y-80118000D01*
X66148000Y-80118000D01*
X66148000Y-79201693D01*
X65917365Y-79093306D01*
X65420162Y-79443088D01*
X65123335Y-79887369D01*
X64215769Y-79887369D01*
X64193177Y-79773792D01*
X63792148Y-79173608D01*
X63191964Y-78772579D01*
X62484000Y-78631756D01*
X61776036Y-78772579D01*
X61175852Y-79173608D01*
X60774823Y-79773792D01*
X60634000Y-80481756D01*
X60634000Y-80554244D01*
X60774823Y-81262208D01*
X61175852Y-81862392D01*
X61234000Y-81901245D01*
X61234000Y-82237532D01*
X61106067Y-82261604D01*
X60850802Y-82425862D01*
X60679554Y-82676492D01*
X60619307Y-82974000D01*
X60619307Y-84170926D01*
X56062076Y-88728158D01*
X55493823Y-88727662D01*
X54776857Y-89023906D01*
X54227834Y-89571971D01*
X53930339Y-90288419D01*
X53929662Y-91064177D01*
X54225906Y-91781143D01*
X54773971Y-92330166D01*
X55490419Y-92627661D01*
X56266177Y-92628338D01*
X56540807Y-92514863D01*
X60817125Y-92514863D01*
X61258139Y-93090264D01*
X61663143Y-93360840D01*
X61934000Y-93269244D01*
X61934000Y-92244000D01*
X63034000Y-92244000D01*
X63034000Y-93269244D01*
X63304857Y-93360840D01*
X63709861Y-93090264D01*
X64150875Y-92514863D01*
X64069264Y-92244000D01*
X63034000Y-92244000D01*
X61934000Y-92244000D01*
X60898736Y-92244000D01*
X60817125Y-92514863D01*
X56540807Y-92514863D01*
X56983143Y-92332094D01*
X57532166Y-91784029D01*
X57829661Y-91067581D01*
X57829830Y-90873137D01*
X60817125Y-90873137D01*
X60898736Y-91144000D01*
X61934000Y-91144000D01*
X61934000Y-90118756D01*
X63034000Y-90118756D01*
X63034000Y-91144000D01*
X64069264Y-91144000D01*
X64150875Y-90873137D01*
X63709861Y-90297736D01*
X63304857Y-90027160D01*
X63034000Y-90118756D01*
X61934000Y-90118756D01*
X61663143Y-90027160D01*
X61258139Y-90297736D01*
X60817125Y-90873137D01*
X57829830Y-90873137D01*
X57830160Y-90495606D01*
X62387074Y-85938693D01*
X63584000Y-85938693D01*
X63861933Y-85886396D01*
X64117198Y-85722138D01*
X64288446Y-85471508D01*
X64348693Y-85174000D01*
X64348693Y-84308000D01*
X65298000Y-84308000D01*
X65298000Y-84686992D01*
X65085621Y-85004841D01*
X64967634Y-85598000D01*
X65085621Y-86191159D01*
X65421618Y-86694016D01*
X65682004Y-86868000D01*
X65421618Y-87041984D01*
X65085621Y-87544841D01*
X64967634Y-88138000D01*
X65085621Y-88731159D01*
X65298000Y-89049008D01*
X65298000Y-91993103D01*
X65065287Y-92225410D01*
X64798304Y-92868376D01*
X64797696Y-93564569D01*
X65063557Y-94208001D01*
X65555410Y-94700713D01*
X66198376Y-94967696D01*
X66894569Y-94968304D01*
X67538001Y-94702443D01*
X67592086Y-94648452D01*
X73324655Y-94648452D01*
X73440759Y-94904448D01*
X74132358Y-95008455D01*
X74655241Y-94904448D01*
X74771345Y-94648452D01*
X74048000Y-93925107D01*
X73324655Y-94648452D01*
X67592086Y-94648452D01*
X68030713Y-94210590D01*
X68297696Y-93567624D01*
X68297927Y-93302358D01*
X72257545Y-93302358D01*
X72361552Y-93825241D01*
X72617548Y-93941345D01*
X73340893Y-93218000D01*
X74755107Y-93218000D01*
X75478452Y-93941345D01*
X75734448Y-93825241D01*
X75838455Y-93133642D01*
X75734448Y-92610759D01*
X75478452Y-92494655D01*
X74755107Y-93218000D01*
X73340893Y-93218000D01*
X72617548Y-92494655D01*
X72361552Y-92610759D01*
X72257545Y-93302358D01*
X68297927Y-93302358D01*
X68298304Y-92871431D01*
X68032443Y-92227999D01*
X67798000Y-91993147D01*
X67798000Y-91787548D01*
X73324655Y-91787548D01*
X74048000Y-92510893D01*
X74771345Y-91787548D01*
X74655241Y-91531552D01*
X73963642Y-91427545D01*
X73440759Y-91531552D01*
X73324655Y-91787548D01*
X67798000Y-91787548D01*
X67798000Y-89388000D01*
X72766326Y-89388000D01*
X72819862Y-89471198D01*
X73070492Y-89642446D01*
X73194343Y-89667526D01*
X73284117Y-89801883D01*
X77250000Y-93767767D01*
X77250000Y-104500000D01*
X77345151Y-104978354D01*
X77616117Y-105383883D01*
X81574116Y-109341883D01*
X81979646Y-109612849D01*
X82458000Y-109708000D01*
X84856000Y-109708000D01*
X84856000Y-111126233D01*
X82076117Y-113906117D01*
X81805151Y-114311646D01*
X81767685Y-114500000D01*
X81126105Y-114500000D01*
X81178879Y-114405407D01*
X80398000Y-113624528D01*
X79617121Y-114405407D01*
X79669895Y-114500000D01*
X77267767Y-114500000D01*
X75682695Y-112914928D01*
X78406482Y-112914928D01*
X78504911Y-113409768D01*
X78768593Y-113556879D01*
X79549472Y-112776000D01*
X81246528Y-112776000D01*
X82027407Y-113556879D01*
X82291089Y-113409768D01*
X82389518Y-112637072D01*
X82291089Y-112142232D01*
X82027407Y-111995121D01*
X81246528Y-112776000D01*
X79549472Y-112776000D01*
X78768593Y-111995121D01*
X78504911Y-112142232D01*
X78406482Y-112914928D01*
X75682695Y-112914928D01*
X74862693Y-112094927D01*
X74862693Y-111576000D01*
X74810396Y-111298067D01*
X74712926Y-111146593D01*
X79617121Y-111146593D01*
X80398000Y-111927472D01*
X81178879Y-111146593D01*
X81031768Y-110882911D01*
X80259072Y-110784482D01*
X79764232Y-110882911D01*
X79617121Y-111146593D01*
X74712926Y-111146593D01*
X74646138Y-111042802D01*
X74395508Y-110871554D01*
X74098000Y-110811307D01*
X71698000Y-110811307D01*
X71420067Y-110863604D01*
X71164802Y-111027862D01*
X70993554Y-111278492D01*
X70933307Y-111576000D01*
X70933307Y-113976000D01*
X70985604Y-114253933D01*
X71149862Y-114509198D01*
X71400492Y-114680446D01*
X71698000Y-114740693D01*
X73972927Y-114740693D01*
X75866116Y-116633883D01*
X76218961Y-116869646D01*
X76271646Y-116904849D01*
X76750000Y-117000000D01*
X81710000Y-117000000D01*
X81710000Y-124764824D01*
X81690000Y-124794756D01*
X81551371Y-124587283D01*
X81132950Y-124307704D01*
X80637846Y-123230125D01*
X80508426Y-123051514D01*
X80385884Y-122868117D01*
X75133883Y-117616117D01*
X74728354Y-117345151D01*
X74250000Y-117250000D01*
X71517767Y-117250000D01*
X68000000Y-113732234D01*
X68000000Y-112470000D01*
X67904849Y-111991646D01*
X67875973Y-111948430D01*
X67633884Y-111586117D01*
X65252693Y-109204927D01*
X65252693Y-106708000D01*
X65200396Y-106430067D01*
X65036138Y-106174802D01*
X64785508Y-106003554D01*
X64488000Y-105943307D01*
X60988000Y-105943307D01*
X60710067Y-105995604D01*
X60454802Y-106159862D01*
X60283554Y-106410492D01*
X60223307Y-106708000D01*
X60223307Y-110208000D01*
X60275604Y-110485933D01*
X60376871Y-110643307D01*
X59124667Y-110643307D01*
X59130602Y-110637372D01*
X59246000Y-110358775D01*
X59246000Y-109522500D01*
X59056500Y-109333000D01*
X57613000Y-109333000D01*
X57613000Y-110758065D01*
X57454802Y-110859862D01*
X57283554Y-111110492D01*
X57223307Y-111408000D01*
X57223307Y-114908000D01*
X57275604Y-115185933D01*
X57439862Y-115441198D01*
X57690492Y-115612446D01*
X57988000Y-115672693D01*
X61488000Y-115672693D01*
X61765933Y-115620396D01*
X62021198Y-115456138D01*
X62192446Y-115205508D01*
X62252693Y-114908000D01*
X62252693Y-111408000D01*
X62200396Y-111130067D01*
X62099129Y-110972693D01*
X63484927Y-110972693D01*
X65500000Y-112987767D01*
X65500000Y-114250000D01*
X65595151Y-114728354D01*
X65866117Y-115133883D01*
X70116117Y-119383884D01*
X70521646Y-119654849D01*
X71000000Y-119750000D01*
X73732234Y-119750000D01*
X78459693Y-124477460D01*
X78883438Y-125399729D01*
X78820000Y-125718654D01*
X78820000Y-125781346D01*
X78941793Y-126393639D01*
X79288629Y-126912717D01*
X79807707Y-127259553D01*
X80420000Y-127381346D01*
X81032293Y-127259553D01*
X81551371Y-126912717D01*
X81690000Y-126705244D01*
X81828629Y-126912717D01*
X82347707Y-127259553D01*
X82960000Y-127381346D01*
X83572293Y-127259553D01*
X83999491Y-126974109D01*
X84101862Y-127133198D01*
X84250000Y-127234416D01*
X84250000Y-129374233D01*
X84148603Y-129475630D01*
X84110244Y-129468000D01*
X84037756Y-129468000D01*
X83329792Y-129608823D01*
X82729608Y-130009852D01*
X82690755Y-130068000D01*
X82682000Y-130068000D01*
X82203646Y-130163151D01*
X81798116Y-130434117D01*
X80650117Y-131582117D01*
X80379151Y-131987646D01*
X80284000Y-132466000D01*
X80284000Y-134291525D01*
X79977274Y-134750572D01*
X79851675Y-135382000D01*
X79977274Y-136013428D01*
X80334949Y-136548726D01*
X80636177Y-136750000D01*
X78767767Y-136750000D01*
X77704000Y-135686234D01*
X77704000Y-133154468D01*
X77831933Y-133130396D01*
X78087198Y-132966138D01*
X78258446Y-132715508D01*
X78318693Y-132418000D01*
X78318693Y-130218000D01*
X78266396Y-129940067D01*
X78102138Y-129684802D01*
X77851508Y-129513554D01*
X77554000Y-129453307D01*
X76357074Y-129453307D01*
X74208693Y-127304927D01*
X74208693Y-126708000D01*
X74156396Y-126430067D01*
X73992138Y-126174802D01*
X73741508Y-126003554D01*
X73444000Y-125943307D01*
X71844000Y-125943307D01*
X71566067Y-125995604D01*
X71310802Y-126159862D01*
X71243747Y-126258000D01*
X70992000Y-126258000D01*
X70513646Y-126353151D01*
X70108117Y-126624116D01*
X65630137Y-131102097D01*
X65606138Y-131064802D01*
X65355508Y-130893554D01*
X65058000Y-130833307D01*
X62958000Y-130833307D01*
X62680067Y-130885604D01*
X62424802Y-131049862D01*
X62253554Y-131300492D01*
X62193307Y-131598000D01*
X62193307Y-133698000D01*
X62245604Y-133975933D01*
X62409862Y-134231198D01*
X62660492Y-134402446D01*
X62958000Y-134462693D01*
X65058000Y-134462693D01*
X65335933Y-134410396D01*
X65591198Y-134246138D01*
X65762446Y-133995508D01*
X65782192Y-133898000D01*
X65852000Y-133898000D01*
X66330354Y-133802849D01*
X66735883Y-133531883D01*
X71373513Y-128894254D01*
X71546492Y-129012446D01*
X71844000Y-129072693D01*
X72440927Y-129072693D01*
X74589307Y-131221074D01*
X74589307Y-132418000D01*
X74641604Y-132695933D01*
X74805862Y-132951198D01*
X75056492Y-133122446D01*
X75204000Y-133152317D01*
X75204000Y-136204000D01*
X75270208Y-136536849D01*
X75299151Y-136682354D01*
X75570117Y-137087883D01*
X77366117Y-138883884D01*
X77771646Y-139154849D01*
X78250000Y-139250000D01*
X85750000Y-139250000D01*
X86228354Y-139154849D01*
X86633883Y-138883883D01*
X87497884Y-138019883D01*
X87651364Y-137790182D01*
X108234968Y-137790182D01*
X108706315Y-138391438D01*
X109097824Y-138652997D01*
X109382000Y-138569608D01*
X109382000Y-137506000D01*
X110582000Y-137506000D01*
X110582000Y-138569608D01*
X110866176Y-138652997D01*
X111257685Y-138391438D01*
X111729032Y-137790182D01*
X111664061Y-137536182D01*
X114584968Y-137536182D01*
X115056315Y-138137438D01*
X115447824Y-138398997D01*
X115732000Y-138315608D01*
X115732000Y-137252000D01*
X116932000Y-137252000D01*
X116932000Y-138315608D01*
X117216176Y-138398997D01*
X117607685Y-138137438D01*
X118079032Y-137536182D01*
X118006340Y-137252000D01*
X116932000Y-137252000D01*
X115732000Y-137252000D01*
X114657660Y-137252000D01*
X114584968Y-137536182D01*
X111664061Y-137536182D01*
X111656340Y-137506000D01*
X110582000Y-137506000D01*
X109382000Y-137506000D01*
X108307660Y-137506000D01*
X108234968Y-137790182D01*
X87651364Y-137790182D01*
X87768849Y-137614354D01*
X87864000Y-137136000D01*
X87864000Y-136948022D01*
X88047198Y-136830138D01*
X88218446Y-136579508D01*
X88278693Y-136282000D01*
X88278693Y-136021818D01*
X108234968Y-136021818D01*
X108307660Y-136306000D01*
X109382000Y-136306000D01*
X109382000Y-135242392D01*
X110582000Y-135242392D01*
X110582000Y-136306000D01*
X111656340Y-136306000D01*
X111729032Y-136021818D01*
X111529912Y-135767818D01*
X114584968Y-135767818D01*
X114657660Y-136052000D01*
X115732000Y-136052000D01*
X115732000Y-134988392D01*
X116932000Y-134988392D01*
X116932000Y-136052000D01*
X118006340Y-136052000D01*
X118079032Y-135767818D01*
X117607685Y-135166562D01*
X117216176Y-134905003D01*
X116932000Y-134988392D01*
X115732000Y-134988392D01*
X115447824Y-134905003D01*
X115056315Y-135166562D01*
X114584968Y-135767818D01*
X111529912Y-135767818D01*
X111257685Y-135420562D01*
X110866176Y-135159003D01*
X110582000Y-135242392D01*
X109382000Y-135242392D01*
X109097824Y-135159003D01*
X108706315Y-135420562D01*
X108234968Y-136021818D01*
X88278693Y-136021818D01*
X88278693Y-134482000D01*
X88226396Y-134204067D01*
X88062138Y-133948802D01*
X87811508Y-133777554D01*
X87514000Y-133717307D01*
X85714000Y-133717307D01*
X85436067Y-133769604D01*
X85180802Y-133933862D01*
X85070206Y-134095725D01*
X84768097Y-133876246D01*
X84524000Y-133975704D01*
X84524000Y-134932000D01*
X84949307Y-134932000D01*
X84949307Y-135832000D01*
X84524000Y-135832000D01*
X84524000Y-136282000D01*
X83624000Y-136282000D01*
X83624000Y-135832000D01*
X83174000Y-135832000D01*
X83174000Y-135594781D01*
X83216325Y-135382000D01*
X83174000Y-135169219D01*
X83174000Y-134932000D01*
X83624000Y-134932000D01*
X83624000Y-133975704D01*
X83379903Y-133876246D01*
X83027864Y-134131998D01*
X82784000Y-134131998D01*
X82784000Y-132983766D01*
X82976591Y-132791176D01*
X83329792Y-133027177D01*
X84037756Y-133168000D01*
X84110244Y-133168000D01*
X84818208Y-133027177D01*
X85418392Y-132626148D01*
X85430518Y-132608000D01*
X94759307Y-132608000D01*
X94759307Y-135108000D01*
X94811604Y-135385933D01*
X94975862Y-135641198D01*
X95226492Y-135812446D01*
X95524000Y-135872693D01*
X98024000Y-135872693D01*
X98301933Y-135820396D01*
X98557198Y-135656138D01*
X98638558Y-135537063D01*
X100978820Y-135537063D01*
X101133684Y-135802632D01*
X101926604Y-135899644D01*
X102414316Y-135802632D01*
X102569180Y-135537063D01*
X101774000Y-134741883D01*
X100978820Y-135537063D01*
X98638558Y-135537063D01*
X98728446Y-135405508D01*
X98788693Y-135108000D01*
X98788693Y-134010604D01*
X99732356Y-134010604D01*
X99829368Y-134498316D01*
X100094937Y-134653180D01*
X100890117Y-133858000D01*
X102657883Y-133858000D01*
X103453063Y-134653180D01*
X103718632Y-134498316D01*
X103815644Y-133705396D01*
X103718632Y-133217684D01*
X103453063Y-133062820D01*
X102657883Y-133858000D01*
X100890117Y-133858000D01*
X100094937Y-133062820D01*
X99829368Y-133217684D01*
X99732356Y-134010604D01*
X98788693Y-134010604D01*
X98788693Y-132608000D01*
X98736396Y-132330067D01*
X98639147Y-132178937D01*
X100978820Y-132178937D01*
X101774000Y-132974117D01*
X102569180Y-132178937D01*
X102414316Y-131913368D01*
X101621396Y-131816356D01*
X101133684Y-131913368D01*
X100978820Y-132178937D01*
X98639147Y-132178937D01*
X98627276Y-132160490D01*
X102911883Y-127875884D01*
X103182849Y-127470354D01*
X103226667Y-127250067D01*
X103278000Y-126992000D01*
X103278000Y-126164301D01*
X103341260Y-126101151D01*
X103577730Y-125531667D01*
X103578268Y-124915039D01*
X103342792Y-124345143D01*
X102907151Y-123908740D01*
X102337667Y-123672270D01*
X101721039Y-123671732D01*
X101151143Y-123907208D01*
X100714740Y-124342849D01*
X100478270Y-124912333D01*
X100477732Y-125528961D01*
X100713208Y-126098857D01*
X100778000Y-126163762D01*
X100778000Y-126474233D01*
X95890117Y-131362117D01*
X95619151Y-131767646D01*
X95604101Y-131843307D01*
X95524000Y-131843307D01*
X95246067Y-131895604D01*
X94990802Y-132059862D01*
X94819554Y-132310492D01*
X94759307Y-132608000D01*
X85430518Y-132608000D01*
X85819421Y-132025964D01*
X85960244Y-131318000D01*
X85940587Y-131219179D01*
X86383884Y-130775883D01*
X86654849Y-130370354D01*
X86750000Y-129892000D01*
X86750000Y-127233848D01*
X86883198Y-127148138D01*
X87054446Y-126897508D01*
X87114693Y-126600000D01*
X87114693Y-125528961D01*
X95477732Y-125528961D01*
X95713208Y-126098857D01*
X96148849Y-126535260D01*
X96718333Y-126771730D01*
X97334961Y-126772268D01*
X97904857Y-126536792D01*
X98341260Y-126101151D01*
X98577730Y-125531667D01*
X98577810Y-125439956D01*
X98927883Y-125089883D01*
X99198849Y-124684354D01*
X99215132Y-124602492D01*
X99294000Y-124206000D01*
X99294000Y-122486468D01*
X99421933Y-122462396D01*
X99677198Y-122298138D01*
X99848446Y-122047508D01*
X99878317Y-121900000D01*
X100736781Y-121900000D01*
X100799852Y-121994392D01*
X101400036Y-122395421D01*
X102108000Y-122536244D01*
X102815964Y-122395421D01*
X103416148Y-121994392D01*
X103696376Y-121575000D01*
X103820000Y-121575000D01*
X104173983Y-121504589D01*
X104474074Y-121304074D01*
X105934074Y-119844074D01*
X106134589Y-119543982D01*
X106205000Y-119190000D01*
X106205000Y-118016452D01*
X108870655Y-118016452D01*
X108986759Y-118272448D01*
X109678358Y-118376455D01*
X110201241Y-118272448D01*
X110317345Y-118016452D01*
X109594000Y-117293107D01*
X108870655Y-118016452D01*
X106205000Y-118016452D01*
X106205000Y-116670358D01*
X107803545Y-116670358D01*
X107907552Y-117193241D01*
X108163548Y-117309345D01*
X108886893Y-116586000D01*
X110301107Y-116586000D01*
X111024452Y-117309345D01*
X111280448Y-117193241D01*
X111384455Y-116501642D01*
X111280448Y-115978759D01*
X111024452Y-115862655D01*
X110301107Y-116586000D01*
X108886893Y-116586000D01*
X108163548Y-115862655D01*
X107907552Y-115978759D01*
X107803545Y-116670358D01*
X106205000Y-116670358D01*
X106205000Y-115155548D01*
X108870655Y-115155548D01*
X109594000Y-115878893D01*
X110317345Y-115155548D01*
X110201241Y-114899552D01*
X109509642Y-114795545D01*
X108986759Y-114899552D01*
X108870655Y-115155548D01*
X106205000Y-115155548D01*
X106205000Y-109800000D01*
X106134589Y-109446018D01*
X106134589Y-109446017D01*
X105934074Y-109145926D01*
X103705000Y-106916852D01*
X103705000Y-95600575D01*
X103906382Y-95466016D01*
X104242379Y-94963159D01*
X104360366Y-94370000D01*
X104242379Y-93776841D01*
X103906382Y-93273984D01*
X103403525Y-92937987D01*
X102810366Y-92820000D01*
X102749634Y-92820000D01*
X102156475Y-92937987D01*
X101653618Y-93273984D01*
X101317621Y-93776841D01*
X101199634Y-94370000D01*
X101317621Y-94963159D01*
X101653618Y-95466016D01*
X101855000Y-95600575D01*
X101855000Y-107300000D01*
X101925411Y-107653983D01*
X102125926Y-107954074D01*
X104355000Y-110183148D01*
X104355000Y-118806852D01*
X103592425Y-119569427D01*
X103416148Y-119305608D01*
X102815964Y-118904579D01*
X102108000Y-118763756D01*
X101400036Y-118904579D01*
X100799852Y-119305608D01*
X100736781Y-119400000D01*
X99880468Y-119400000D01*
X99856396Y-119272067D01*
X99692138Y-119016802D01*
X99441508Y-118845554D01*
X99144000Y-118785307D01*
X96944000Y-118785307D01*
X96666067Y-118837604D01*
X96410802Y-119001862D01*
X96239554Y-119252492D01*
X96179307Y-119550000D01*
X96179307Y-121750000D01*
X96231604Y-122027933D01*
X96395862Y-122283198D01*
X96646492Y-122454446D01*
X96794000Y-122484317D01*
X96794000Y-123671796D01*
X96721039Y-123671732D01*
X96151143Y-123907208D01*
X95714740Y-124342849D01*
X95478270Y-124912333D01*
X95477732Y-125528961D01*
X87114693Y-125528961D01*
X87114693Y-124900000D01*
X87062396Y-124622067D01*
X86898138Y-124366802D01*
X86647508Y-124195554D01*
X86350000Y-124135307D01*
X84650000Y-124135307D01*
X84372067Y-124187604D01*
X84210000Y-124291891D01*
X84210000Y-119248635D01*
X84681306Y-119248635D01*
X85031088Y-119745838D01*
X85475369Y-120042665D01*
X85706000Y-119926737D01*
X85706000Y-119018000D01*
X86506000Y-119018000D01*
X86506000Y-119926737D01*
X86736631Y-120042665D01*
X87180912Y-119745838D01*
X87530694Y-119248635D01*
X87422307Y-119018000D01*
X86506000Y-119018000D01*
X85706000Y-119018000D01*
X84789693Y-119018000D01*
X84681306Y-119248635D01*
X84210000Y-119248635D01*
X84210000Y-117987365D01*
X84681306Y-117987365D01*
X84789693Y-118218000D01*
X85706000Y-118218000D01*
X85706000Y-117309263D01*
X86506000Y-117309263D01*
X86506000Y-118218000D01*
X87422307Y-118218000D01*
X87530694Y-117987365D01*
X87180912Y-117490162D01*
X86736631Y-117193335D01*
X86506000Y-117309263D01*
X85706000Y-117309263D01*
X85475369Y-117193335D01*
X85031088Y-117490162D01*
X84681306Y-117987365D01*
X84210000Y-117987365D01*
X84210000Y-115307766D01*
X85666903Y-113850863D01*
X96377125Y-113850863D01*
X96818139Y-114426264D01*
X97223143Y-114696840D01*
X97494000Y-114605244D01*
X97494000Y-113580000D01*
X98594000Y-113580000D01*
X98594000Y-114605244D01*
X98864857Y-114696840D01*
X99269861Y-114426264D01*
X99710875Y-113850863D01*
X99629264Y-113580000D01*
X98594000Y-113580000D01*
X97494000Y-113580000D01*
X96458736Y-113580000D01*
X96377125Y-113850863D01*
X85666903Y-113850863D01*
X86989884Y-112527883D01*
X87202862Y-112209137D01*
X96377125Y-112209137D01*
X96458736Y-112480000D01*
X97494000Y-112480000D01*
X97494000Y-111454756D01*
X98594000Y-111454756D01*
X98594000Y-112480000D01*
X99629264Y-112480000D01*
X99710875Y-112209137D01*
X99269861Y-111633736D01*
X98864857Y-111363160D01*
X98594000Y-111454756D01*
X97494000Y-111454756D01*
X97223143Y-111363160D01*
X96818139Y-111633736D01*
X96377125Y-112209137D01*
X87202862Y-112209137D01*
X87260849Y-112122354D01*
X87286157Y-111995121D01*
X87356000Y-111644000D01*
X87356000Y-109708000D01*
X98150234Y-109708000D01*
X100265019Y-111822785D01*
X100243307Y-111930000D01*
X100243307Y-114130000D01*
X100295604Y-114407933D01*
X100459862Y-114663198D01*
X100710492Y-114834446D01*
X101008000Y-114894693D01*
X103208000Y-114894693D01*
X103485933Y-114842396D01*
X103741198Y-114678138D01*
X103912446Y-114427508D01*
X103972693Y-114130000D01*
X103972693Y-111930000D01*
X103920396Y-111652067D01*
X103756138Y-111396802D01*
X103505508Y-111225554D01*
X103208000Y-111165307D01*
X103092906Y-111165307D01*
X102991884Y-111014117D01*
X99551883Y-107574117D01*
X99146354Y-107303151D01*
X99130513Y-107300000D01*
X98668000Y-107208000D01*
X87048301Y-107208000D01*
X86985151Y-107144740D01*
X86691745Y-107022907D01*
X86584354Y-106951151D01*
X86458783Y-106926173D01*
X86415667Y-106908270D01*
X86368571Y-106908229D01*
X86106000Y-106856000D01*
X85845722Y-106907773D01*
X85799039Y-106907732D01*
X85755513Y-106925717D01*
X85627646Y-106951151D01*
X85520194Y-107022948D01*
X85229143Y-107143208D01*
X85164238Y-107208000D01*
X82975767Y-107208000D01*
X79750000Y-103982234D01*
X79750000Y-99194805D01*
X80360881Y-99194805D01*
X80445983Y-99442846D01*
X81056064Y-99552239D01*
X81606017Y-99442846D01*
X81691119Y-99194805D01*
X81026000Y-98529685D01*
X80360881Y-99194805D01*
X79750000Y-99194805D01*
X79750000Y-98613613D01*
X79795195Y-98629119D01*
X80460315Y-97964000D01*
X81591685Y-97964000D01*
X82256805Y-98629119D01*
X82504846Y-98544017D01*
X82614239Y-97933936D01*
X82504846Y-97383983D01*
X82256805Y-97298881D01*
X81591685Y-97964000D01*
X80460315Y-97964000D01*
X79795195Y-97298881D01*
X79750000Y-97314387D01*
X79750000Y-96733195D01*
X80360881Y-96733195D01*
X81026000Y-97398315D01*
X81691119Y-96733195D01*
X81606017Y-96485154D01*
X80995936Y-96375761D01*
X80445983Y-96485154D01*
X80360881Y-96733195D01*
X79750000Y-96733195D01*
X79750000Y-94346488D01*
X79928492Y-94468446D01*
X80226000Y-94528693D01*
X81826000Y-94528693D01*
X82103933Y-94476396D01*
X82359198Y-94312138D01*
X82530446Y-94061508D01*
X82590693Y-93764000D01*
X82590693Y-92164000D01*
X82538396Y-91886067D01*
X82374138Y-91630802D01*
X82123508Y-91459554D01*
X82101020Y-91455000D01*
X83276852Y-91455000D01*
X84625000Y-92803148D01*
X84625000Y-97620000D01*
X84695411Y-97973983D01*
X84895926Y-98274074D01*
X88415926Y-101794074D01*
X88559030Y-101889693D01*
X88700391Y-101987948D01*
X88708835Y-101989789D01*
X88716018Y-101994589D01*
X88884858Y-102028174D01*
X89053021Y-102064844D01*
X96709827Y-102205412D01*
X96985608Y-102618148D01*
X97585792Y-103019177D01*
X98293756Y-103160000D01*
X98366244Y-103160000D01*
X99074208Y-103019177D01*
X99674392Y-102618148D01*
X100075421Y-102017964D01*
X100216244Y-101310000D01*
X100075421Y-100602036D01*
X99674392Y-100001852D01*
X99262671Y-99726750D01*
X99784392Y-99378148D01*
X100185421Y-98777964D01*
X100326244Y-98070000D01*
X100185421Y-97362036D01*
X99784392Y-96761852D01*
X99184208Y-96360823D01*
X98476244Y-96220000D01*
X98403756Y-96220000D01*
X97695792Y-96360823D01*
X97095608Y-96761852D01*
X96839597Y-97145000D01*
X89283148Y-97145000D01*
X87485000Y-95346852D01*
X87485000Y-90690000D01*
X87414589Y-90336018D01*
X87214074Y-90035926D01*
X84916074Y-87737926D01*
X84615983Y-87537411D01*
X84262000Y-87467000D01*
X83816733Y-87467000D01*
X83775218Y-87425412D01*
X83704849Y-87071646D01*
X83686365Y-87043983D01*
X83433884Y-86666117D01*
X78000000Y-81232234D01*
X78000000Y-79715694D01*
X78486000Y-79812366D01*
X79079159Y-79694379D01*
X79582016Y-79358382D01*
X79918013Y-78855525D01*
X80036000Y-78262366D01*
X80036000Y-78201634D01*
X79986312Y-77951836D01*
X80583148Y-77355000D01*
X81287353Y-77355000D01*
X81117987Y-77608475D01*
X81000000Y-78201634D01*
X81000000Y-78262366D01*
X81117987Y-78855525D01*
X81453984Y-79358382D01*
X81625000Y-79472651D01*
X81625000Y-82740000D01*
X81695411Y-83093983D01*
X81895926Y-83394074D01*
X87585926Y-89084074D01*
X87886017Y-89284589D01*
X88240000Y-89355000D01*
X91110000Y-89355000D01*
X91292000Y-89318798D01*
X91292000Y-90480002D01*
X91971046Y-90480002D01*
X92219365Y-90654694D01*
X92450000Y-90546307D01*
X92450000Y-89630000D01*
X93250000Y-89630000D01*
X93250000Y-90546307D01*
X93480635Y-90654694D01*
X93977838Y-90304912D01*
X94274665Y-89860631D01*
X94158737Y-89630000D01*
X93250000Y-89630000D01*
X92450000Y-89630000D01*
X92050000Y-89630000D01*
X92050000Y-88830000D01*
X92450000Y-88830000D01*
X92450000Y-88430000D01*
X93250000Y-88430000D01*
X93250000Y-88830000D01*
X94158737Y-88830000D01*
X94274665Y-88599369D01*
X94100002Y-88337939D01*
X94100002Y-87672000D01*
X94052565Y-87672000D01*
X94312379Y-87283159D01*
X94430366Y-86690000D01*
X94312379Y-86096841D01*
X93976382Y-85593984D01*
X93715996Y-85420000D01*
X93976382Y-85246016D01*
X94312379Y-84743159D01*
X94430366Y-84150000D01*
X94353785Y-83765000D01*
X96396852Y-83765000D01*
X97185000Y-84553148D01*
X97185000Y-87360000D01*
X97255411Y-87713983D01*
X97455926Y-88014074D01*
X98943710Y-89501858D01*
X99007621Y-89823159D01*
X99343618Y-90326016D01*
X99846475Y-90662013D01*
X100291349Y-90750504D01*
X97596852Y-93445000D01*
X93886733Y-93445000D01*
X93499151Y-93056740D01*
X92929667Y-92820270D01*
X92313039Y-92819732D01*
X91743143Y-93055208D01*
X91352669Y-93445000D01*
X90112712Y-93445000D01*
X89619667Y-93240270D01*
X89003039Y-93239732D01*
X88433143Y-93475208D01*
X87996740Y-93910849D01*
X87760270Y-94480333D01*
X87759732Y-95096961D01*
X87995208Y-95666857D01*
X88430849Y-96103260D01*
X89000333Y-96339730D01*
X89616961Y-96340268D01*
X90186857Y-96104792D01*
X90623260Y-95669151D01*
X90778621Y-95295000D01*
X91353267Y-95295000D01*
X91740849Y-95683260D01*
X92310333Y-95919730D01*
X92926961Y-95920268D01*
X93496857Y-95684792D01*
X93887331Y-95295000D01*
X97980000Y-95295000D01*
X98333983Y-95224589D01*
X98634074Y-95024074D01*
X102055147Y-91603000D01*
X102539419Y-91603000D01*
X102577604Y-91805933D01*
X102741862Y-92061198D01*
X102992492Y-92232446D01*
X103290000Y-92292693D01*
X104990000Y-92292693D01*
X105267933Y-92240396D01*
X105523198Y-92076138D01*
X105624415Y-91928002D01*
X105695466Y-91928002D01*
X106017631Y-92143241D01*
X106255000Y-92031336D01*
X106255000Y-91103000D01*
X107105000Y-91103000D01*
X107105000Y-92031336D01*
X107342369Y-92143241D01*
X107780255Y-91850689D01*
X108145272Y-91340374D01*
X108041350Y-91103000D01*
X107105000Y-91103000D01*
X106255000Y-91103000D01*
X105830000Y-91103000D01*
X105830000Y-90253000D01*
X106255000Y-90253000D01*
X106255000Y-89324664D01*
X107105000Y-89324664D01*
X107105000Y-90253000D01*
X108041350Y-90253000D01*
X108145272Y-90015626D01*
X107780255Y-89505311D01*
X107342369Y-89212759D01*
X107105000Y-89324664D01*
X106255000Y-89324664D01*
X106017631Y-89212759D01*
X106010876Y-89217272D01*
X106764074Y-88464074D01*
X106964589Y-88163982D01*
X107035001Y-87810000D01*
X107035000Y-87809995D01*
X107035000Y-86160000D01*
X106964589Y-85806018D01*
X106764074Y-85505926D01*
X105803148Y-84545000D01*
X107380000Y-84545000D01*
X107733983Y-84474589D01*
X107745307Y-84467023D01*
X107745307Y-85400000D01*
X107797604Y-85677933D01*
X107961862Y-85933198D01*
X108212492Y-86104446D01*
X108497075Y-86162076D01*
X108505411Y-86203983D01*
X108705926Y-86504074D01*
X111225926Y-89024074D01*
X111526017Y-89224589D01*
X111880000Y-89295000D01*
X112639349Y-89295000D01*
X112753618Y-89466016D01*
X113014004Y-89640000D01*
X112753618Y-89813984D01*
X112417621Y-90316841D01*
X112299634Y-90910000D01*
X112417621Y-91503159D01*
X112753618Y-92006016D01*
X113245979Y-92335000D01*
X110320000Y-92335000D01*
X109966018Y-92405411D01*
X109665926Y-92605926D01*
X106066545Y-96205307D01*
X104960000Y-96205307D01*
X104682067Y-96257604D01*
X104426802Y-96421862D01*
X104255554Y-96672492D01*
X104195307Y-96970000D01*
X104195307Y-99170000D01*
X104247604Y-99447933D01*
X104365216Y-99630708D01*
X104316802Y-99661862D01*
X104145554Y-99912492D01*
X104085307Y-100210000D01*
X104085307Y-102410000D01*
X104137604Y-102687933D01*
X104301862Y-102943198D01*
X104552492Y-103114446D01*
X104850000Y-103174693D01*
X107050000Y-103174693D01*
X107327933Y-103122396D01*
X107583198Y-102958138D01*
X107754446Y-102707508D01*
X107814693Y-102410000D01*
X107814693Y-101090805D01*
X113074881Y-101090805D01*
X113159983Y-101338846D01*
X113770064Y-101448239D01*
X114320017Y-101338846D01*
X114405119Y-101090805D01*
X113740000Y-100425685D01*
X113074881Y-101090805D01*
X107814693Y-101090805D01*
X107814693Y-100210000D01*
X107762396Y-99932067D01*
X107735368Y-99890064D01*
X112151761Y-99890064D01*
X112261154Y-100440017D01*
X112509195Y-100525119D01*
X113174315Y-99860000D01*
X112509195Y-99194881D01*
X112261154Y-99279983D01*
X112151761Y-99890064D01*
X107735368Y-99890064D01*
X107644784Y-99749292D01*
X107693198Y-99718138D01*
X107864446Y-99467508D01*
X107924693Y-99170000D01*
X107924693Y-96970000D01*
X107923656Y-96964492D01*
X110703148Y-94185000D01*
X112341969Y-94185000D01*
X112190270Y-94550333D01*
X112189732Y-95166961D01*
X112425208Y-95736857D01*
X112860849Y-96173260D01*
X113430333Y-96409730D01*
X113822306Y-96410072D01*
X114720000Y-97307767D01*
X114720000Y-98600416D01*
X113975907Y-97856323D01*
X113523357Y-98308874D01*
X113159983Y-98381154D01*
X113074881Y-98629195D01*
X113740000Y-99294315D01*
X114022843Y-99011472D01*
X114588528Y-99577157D01*
X114305685Y-99860000D01*
X114970805Y-100525119D01*
X115010927Y-100511353D01*
X115086117Y-100623883D01*
X116096117Y-101633884D01*
X116413596Y-101846016D01*
X116501646Y-101904849D01*
X116980000Y-102000000D01*
X117307699Y-102000000D01*
X117370849Y-102063260D01*
X117940333Y-102299730D01*
X118556961Y-102300268D01*
X119126857Y-102064792D01*
X119563260Y-101629151D01*
X119799730Y-101059667D01*
X119800268Y-100443039D01*
X119564792Y-99873143D01*
X119129151Y-99436740D01*
X118559667Y-99200270D01*
X117943039Y-99199732D01*
X117415481Y-99417714D01*
X117220000Y-99222234D01*
X117220000Y-98162147D01*
X117370849Y-98313260D01*
X117940333Y-98549730D01*
X118556961Y-98550268D01*
X119126857Y-98314792D01*
X119191762Y-98250000D01*
X120712234Y-98250000D01*
X122256117Y-99793884D01*
X122256120Y-99793886D01*
X124096117Y-101633884D01*
X124413596Y-101846016D01*
X124501646Y-101904849D01*
X124980000Y-102000000D01*
X127514072Y-102000000D01*
X127786475Y-102182013D01*
X128379634Y-102300000D01*
X128440366Y-102300000D01*
X129033525Y-102182013D01*
X129536382Y-101846016D01*
X129872379Y-101343159D01*
X129990366Y-100750000D01*
X129872379Y-100156841D01*
X129536382Y-99653984D01*
X129033525Y-99317987D01*
X128440366Y-99200000D01*
X128379634Y-99200000D01*
X127786475Y-99317987D01*
X127514072Y-99500000D01*
X125497767Y-99500000D01*
X124677957Y-98680191D01*
X126946706Y-96411442D01*
X126829634Y-97000000D01*
X126947621Y-97593159D01*
X127283618Y-98096016D01*
X127786475Y-98432013D01*
X128379634Y-98550000D01*
X128440366Y-98550000D01*
X129033525Y-98432013D01*
X129536382Y-98096016D01*
X129872379Y-97593159D01*
X129875000Y-97579982D01*
X129877621Y-97593159D01*
X130213618Y-98096016D01*
X130415000Y-98230575D01*
X130415000Y-102466852D01*
X127806852Y-105075000D01*
X120650000Y-105075000D01*
X120296018Y-105145411D01*
X119995926Y-105345926D01*
X119995924Y-105345929D01*
X116439926Y-108901926D01*
X116239411Y-109202017D01*
X116211590Y-109341883D01*
X116169000Y-109556000D01*
X116169000Y-115074699D01*
X116103999Y-115101557D01*
X115611287Y-115593410D01*
X115344304Y-116236376D01*
X115343715Y-116910365D01*
X115177151Y-117159646D01*
X115082000Y-117638000D01*
X115082000Y-119904507D01*
X114824057Y-120162000D01*
X111235936Y-120162000D01*
X111088029Y-120013834D01*
X110371581Y-119716339D01*
X109595823Y-119715662D01*
X108878857Y-120011906D01*
X108329834Y-120559971D01*
X108032339Y-121276419D01*
X108031662Y-122052177D01*
X108327906Y-122769143D01*
X108875971Y-123318166D01*
X109592419Y-123615661D01*
X110368177Y-123616338D01*
X111085143Y-123320094D01*
X111634166Y-122772029D01*
X111679854Y-122662000D01*
X114824507Y-122662000D01*
X115082000Y-122919943D01*
X115082000Y-127282000D01*
X115160770Y-127678000D01*
X115177151Y-127760354D01*
X115448117Y-128165883D01*
X119293307Y-132011074D01*
X119293307Y-132418000D01*
X119345604Y-132695933D01*
X119509862Y-132951198D01*
X119760492Y-133122446D01*
X119908000Y-133152317D01*
X119908000Y-135455699D01*
X119844740Y-135518849D01*
X119608270Y-136088333D01*
X119607732Y-136704961D01*
X119843208Y-137274857D01*
X120278849Y-137711260D01*
X120848333Y-137947730D01*
X121464961Y-137948268D01*
X122034857Y-137712792D01*
X122471260Y-137277151D01*
X122707730Y-136707667D01*
X122708000Y-136398000D01*
X129737634Y-136398000D01*
X129855621Y-136991159D01*
X130191618Y-137494016D01*
X130694475Y-137830013D01*
X131287634Y-137948000D01*
X131348366Y-137948000D01*
X131941525Y-137830013D01*
X132444382Y-137494016D01*
X132780379Y-136991159D01*
X132851834Y-136631933D01*
X133471883Y-136011884D01*
X133742849Y-135606354D01*
X133756632Y-135537063D01*
X133838000Y-135128000D01*
X133838000Y-130792693D01*
X134115933Y-130740396D01*
X134371198Y-130576138D01*
X134542446Y-130325508D01*
X134602693Y-130028000D01*
X134602693Y-127528000D01*
X134550396Y-127250067D01*
X134386138Y-126994802D01*
X134135508Y-126823554D01*
X133838000Y-126763307D01*
X131338000Y-126763307D01*
X131060067Y-126815604D01*
X130804802Y-126979862D01*
X130633554Y-127230492D01*
X130573307Y-127528000D01*
X130573307Y-130028000D01*
X130625604Y-130305933D01*
X130789862Y-130561198D01*
X131040492Y-130732446D01*
X131338000Y-130792693D01*
X131338000Y-134610233D01*
X131053701Y-134894532D01*
X130694475Y-134965987D01*
X130191618Y-135301984D01*
X129855621Y-135804841D01*
X129737634Y-136398000D01*
X122708000Y-136398000D01*
X122708268Y-136091039D01*
X122472792Y-135521143D01*
X122408000Y-135456238D01*
X122408000Y-133154468D01*
X122535933Y-133130396D01*
X122791198Y-132966138D01*
X122962446Y-132715508D01*
X122992317Y-132568000D01*
X123332000Y-132568000D01*
X123810354Y-132472849D01*
X124215883Y-132201883D01*
X125775074Y-130642693D01*
X126068000Y-130642693D01*
X126345933Y-130590396D01*
X126601198Y-130426138D01*
X126772446Y-130175508D01*
X126832693Y-129878000D01*
X126832693Y-127678000D01*
X126780396Y-127400067D01*
X126616138Y-127144802D01*
X126365508Y-126973554D01*
X126068000Y-126913307D01*
X123868000Y-126913307D01*
X123590067Y-126965604D01*
X123334802Y-127129862D01*
X123163554Y-127380492D01*
X123103307Y-127678000D01*
X123103307Y-129778927D01*
X122959343Y-129922890D01*
X122806138Y-129684802D01*
X122555508Y-129513554D01*
X122258000Y-129453307D01*
X120271074Y-129453307D01*
X117582000Y-126764234D01*
X117582000Y-122919493D01*
X117984166Y-122518029D01*
X118281661Y-121801581D01*
X118282338Y-121025823D01*
X117986094Y-120308857D01*
X117582000Y-119904057D01*
X117582000Y-118277866D01*
X118084001Y-118070443D01*
X118576713Y-117578590D01*
X118843696Y-116935624D01*
X118844296Y-116248000D01*
X119293307Y-116248000D01*
X119293307Y-118448000D01*
X119345604Y-118725933D01*
X119509862Y-118981198D01*
X119760492Y-119152446D01*
X119908000Y-119182317D01*
X119908000Y-122314755D01*
X119849852Y-122353608D01*
X119448823Y-122953792D01*
X119308000Y-123661756D01*
X119308000Y-123734244D01*
X119448823Y-124442208D01*
X119849852Y-125042392D01*
X120450036Y-125443421D01*
X121158000Y-125584244D01*
X121797381Y-125457063D01*
X131792820Y-125457063D01*
X131947684Y-125722632D01*
X132740604Y-125819644D01*
X133228316Y-125722632D01*
X133383180Y-125457063D01*
X132588000Y-124661883D01*
X131792820Y-125457063D01*
X121797381Y-125457063D01*
X121865964Y-125443421D01*
X122466148Y-125042392D01*
X122867177Y-124442208D01*
X122968941Y-123930604D01*
X130546356Y-123930604D01*
X130643368Y-124418316D01*
X130908937Y-124573180D01*
X131704117Y-123778000D01*
X133471883Y-123778000D01*
X134267063Y-124573180D01*
X134532632Y-124418316D01*
X134629644Y-123625396D01*
X134532632Y-123137684D01*
X134267063Y-122982820D01*
X133471883Y-123778000D01*
X131704117Y-123778000D01*
X130908937Y-122982820D01*
X130643368Y-123137684D01*
X130546356Y-123930604D01*
X122968941Y-123930604D01*
X123008000Y-123734244D01*
X123008000Y-123661756D01*
X122867177Y-122953792D01*
X122466148Y-122353608D01*
X122408000Y-122314755D01*
X122408000Y-119184468D01*
X122535933Y-119160396D01*
X122791198Y-118996138D01*
X122962446Y-118745508D01*
X123003787Y-118541359D01*
X123027604Y-118667933D01*
X123191862Y-118923198D01*
X123442492Y-119094446D01*
X123590000Y-119124317D01*
X123590000Y-119918149D01*
X123258823Y-120413792D01*
X123118000Y-121121756D01*
X123118000Y-121194244D01*
X123258823Y-121902208D01*
X123659852Y-122502392D01*
X124260036Y-122903421D01*
X124968000Y-123044244D01*
X125675964Y-122903421D01*
X126276148Y-122502392D01*
X126545727Y-122098937D01*
X131792820Y-122098937D01*
X132588000Y-122894117D01*
X133383180Y-122098937D01*
X133228316Y-121833368D01*
X132435396Y-121736356D01*
X131947684Y-121833368D01*
X131792820Y-122098937D01*
X126545727Y-122098937D01*
X126677177Y-121902208D01*
X126818000Y-121194244D01*
X126818000Y-121121756D01*
X126677177Y-120413792D01*
X126276148Y-119813608D01*
X126090000Y-119689228D01*
X126090000Y-119126468D01*
X126217933Y-119102396D01*
X126473198Y-118938138D01*
X126644446Y-118687508D01*
X126704693Y-118390000D01*
X126704693Y-116963073D01*
X130069767Y-113598000D01*
X131009858Y-113598000D01*
X131453612Y-114042529D01*
X132188430Y-114347652D01*
X132984079Y-114348346D01*
X133719429Y-114044506D01*
X134040000Y-113724494D01*
X134040000Y-115374213D01*
X133838000Y-115333307D01*
X131338000Y-115333307D01*
X131060067Y-115385604D01*
X130804802Y-115549862D01*
X130633554Y-115800492D01*
X130573307Y-116098000D01*
X130573307Y-118598000D01*
X130625604Y-118875933D01*
X130789862Y-119131198D01*
X131040492Y-119302446D01*
X131338000Y-119362693D01*
X133838000Y-119362693D01*
X134115933Y-119310396D01*
X134371198Y-119146138D01*
X134542446Y-118895508D01*
X134602693Y-118598000D01*
X134782000Y-118598000D01*
X135260354Y-118502849D01*
X135665883Y-118231883D01*
X136173883Y-117723884D01*
X136444849Y-117318355D01*
X136496239Y-117060000D01*
X136540000Y-116840000D01*
X136540000Y-109530000D01*
X136444849Y-109051646D01*
X136373865Y-108945411D01*
X136173884Y-108646117D01*
X135833883Y-108306117D01*
X135428354Y-108035151D01*
X134950000Y-107940000D01*
X129090000Y-107940000D01*
X128611646Y-108035151D01*
X128206117Y-108306117D01*
X126292234Y-110220000D01*
X125390000Y-110220000D01*
X125390000Y-111122234D01*
X121028927Y-115483307D01*
X120058000Y-115483307D01*
X119780067Y-115535604D01*
X119524802Y-115699862D01*
X119353554Y-115950492D01*
X119293307Y-116248000D01*
X118844296Y-116248000D01*
X118844304Y-116239431D01*
X118578443Y-115595999D01*
X118086590Y-115103287D01*
X118019000Y-115075221D01*
X118019000Y-110548863D01*
X119491125Y-110548863D01*
X119932139Y-111124264D01*
X120337143Y-111394840D01*
X120608000Y-111303244D01*
X120608000Y-110278000D01*
X121708000Y-110278000D01*
X121708000Y-111303244D01*
X121978857Y-111394840D01*
X122383861Y-111124264D01*
X122824875Y-110548863D01*
X122807400Y-110490863D01*
X123173125Y-110490863D01*
X123614139Y-111066264D01*
X124019143Y-111336840D01*
X124290000Y-111245244D01*
X124290000Y-110220000D01*
X123254736Y-110220000D01*
X123173125Y-110490863D01*
X122807400Y-110490863D01*
X122743264Y-110278000D01*
X121708000Y-110278000D01*
X120608000Y-110278000D01*
X119572736Y-110278000D01*
X119491125Y-110548863D01*
X118019000Y-110548863D01*
X118019000Y-109939148D01*
X119051010Y-108907137D01*
X119491125Y-108907137D01*
X119572736Y-109178000D01*
X120608000Y-109178000D01*
X120608000Y-108152756D01*
X121708000Y-108152756D01*
X121708000Y-109178000D01*
X122743264Y-109178000D01*
X122824875Y-108907137D01*
X122780422Y-108849137D01*
X123173125Y-108849137D01*
X123254736Y-109120000D01*
X124290000Y-109120000D01*
X124290000Y-108094756D01*
X125390000Y-108094756D01*
X125390000Y-109120000D01*
X126425264Y-109120000D01*
X126506875Y-108849137D01*
X126065861Y-108273736D01*
X125660857Y-108003160D01*
X125390000Y-108094756D01*
X124290000Y-108094756D01*
X124019143Y-108003160D01*
X123614139Y-108273736D01*
X123173125Y-108849137D01*
X122780422Y-108849137D01*
X122383861Y-108331736D01*
X121978857Y-108061160D01*
X121708000Y-108152756D01*
X120608000Y-108152756D01*
X120337143Y-108061160D01*
X119932139Y-108331736D01*
X119491125Y-108907137D01*
X119051010Y-108907137D01*
X121033147Y-106925000D01*
X128190000Y-106925000D01*
X128543983Y-106854589D01*
X128844074Y-106654074D01*
X131994074Y-103504074D01*
X132194589Y-103203982D01*
X132265001Y-102850000D01*
X132265000Y-102849995D01*
X132265000Y-98230575D01*
X132466382Y-98096016D01*
X132802379Y-97593159D01*
X132920366Y-97000000D01*
X132802379Y-96406841D01*
X132466382Y-95903984D01*
X132183546Y-95715000D01*
X132930000Y-95715000D01*
X133283983Y-95644589D01*
X133584074Y-95444074D01*
X134574071Y-94454076D01*
X134574074Y-94454074D01*
X134774589Y-94153982D01*
X134845000Y-93800000D01*
X134845000Y-93220863D01*
X135163125Y-93220863D01*
X135604139Y-93796264D01*
X136009143Y-94066840D01*
X136280000Y-93975244D01*
X136280000Y-92950000D01*
X135244736Y-92950000D01*
X135163125Y-93220863D01*
X134845000Y-93220863D01*
X134845000Y-91579137D01*
X135163125Y-91579137D01*
X135244736Y-91850000D01*
X136280000Y-91850000D01*
X136280000Y-90824756D01*
X136009143Y-90733160D01*
X135604139Y-91003736D01*
X135163125Y-91579137D01*
X134845000Y-91579137D01*
X134845000Y-89420000D01*
X134774589Y-89066018D01*
X134574074Y-88765926D01*
X134574071Y-88765924D01*
X134564693Y-88756546D01*
X134564693Y-87700000D01*
X134512396Y-87422067D01*
X134348138Y-87166802D01*
X134145068Y-87028050D01*
X134245754Y-86877362D01*
X134247627Y-86877491D01*
X134363798Y-86838495D01*
X134483982Y-86814589D01*
X134533417Y-86781557D01*
X134589782Y-86762637D01*
X134682186Y-86682153D01*
X134784074Y-86614074D01*
X134817105Y-86564639D01*
X134861939Y-86525589D01*
X135075960Y-86248621D01*
X135181862Y-86413198D01*
X135432492Y-86584446D01*
X135730000Y-86644693D01*
X137645000Y-86644693D01*
X137645000Y-90735141D01*
X137380000Y-90824756D01*
X137380000Y-91850000D01*
X137645000Y-91850000D01*
X137645000Y-92950000D01*
X137380000Y-92950000D01*
X137380000Y-93975244D01*
X137645000Y-94064859D01*
X137645000Y-94990000D01*
X137715411Y-95343983D01*
X137915926Y-95644074D01*
X139925926Y-97654074D01*
X140156934Y-97808429D01*
X140185208Y-97876857D01*
X140212000Y-97903696D01*
X140212000Y-132484446D01*
X131214446Y-141482000D01*
X59285554Y-141482000D01*
X49452777Y-131649223D01*
X49370073Y-131594375D01*
X49276000Y-131576000D01*
X48764000Y-131576000D01*
X48764000Y-127824079D01*
X53117654Y-127824079D01*
X53421494Y-128559429D01*
X53983612Y-129122529D01*
X54718430Y-129427652D01*
X55514079Y-129428346D01*
X56249429Y-129124506D01*
X56576505Y-128798000D01*
X62712455Y-128798000D01*
X62987051Y-129073076D01*
X63648387Y-129347687D01*
X64364471Y-129348312D01*
X65026286Y-129074855D01*
X65533076Y-128568949D01*
X65807687Y-127907613D01*
X65808312Y-127191529D01*
X65534855Y-126529714D01*
X65028949Y-126022924D01*
X64367613Y-125748313D01*
X63651529Y-125747688D01*
X62989714Y-126021145D01*
X62712375Y-126298000D01*
X56815096Y-126298000D01*
X56814506Y-126296571D01*
X56252388Y-125733471D01*
X55517570Y-125428348D01*
X54721921Y-125427654D01*
X53986571Y-125731494D01*
X53423471Y-126293612D01*
X53118348Y-127028430D01*
X53117654Y-127824079D01*
X48764000Y-127824079D01*
X48764000Y-121178000D01*
X53103307Y-121178000D01*
X53103307Y-123678000D01*
X53155604Y-123955933D01*
X53319862Y-124211198D01*
X53570492Y-124382446D01*
X53868000Y-124442693D01*
X56368000Y-124442693D01*
X56645933Y-124390396D01*
X56901198Y-124226138D01*
X57072446Y-123975508D01*
X57128643Y-123698000D01*
X62712455Y-123698000D01*
X62987051Y-123973076D01*
X63648387Y-124247687D01*
X64364471Y-124248312D01*
X65026286Y-123974855D01*
X65262748Y-123738805D01*
X71978881Y-123738805D01*
X72063983Y-123986846D01*
X72674064Y-124096239D01*
X73224017Y-123986846D01*
X73309119Y-123738805D01*
X72644000Y-123073685D01*
X71978881Y-123738805D01*
X65262748Y-123738805D01*
X65533076Y-123468949D01*
X65807687Y-122807613D01*
X65807922Y-122538064D01*
X71055761Y-122538064D01*
X71165154Y-123088017D01*
X71413195Y-123173119D01*
X72078315Y-122508000D01*
X73209685Y-122508000D01*
X73874805Y-123173119D01*
X74122846Y-123088017D01*
X74232239Y-122477936D01*
X74122846Y-121927983D01*
X73874805Y-121842881D01*
X73209685Y-122508000D01*
X72078315Y-122508000D01*
X71413195Y-121842881D01*
X71165154Y-121927983D01*
X71055761Y-122538064D01*
X65807922Y-122538064D01*
X65808312Y-122091529D01*
X65534855Y-121429714D01*
X65382603Y-121277195D01*
X71978881Y-121277195D01*
X72644000Y-121942315D01*
X73309119Y-121277195D01*
X73224017Y-121029154D01*
X72613936Y-120919761D01*
X72063983Y-121029154D01*
X71978881Y-121277195D01*
X65382603Y-121277195D01*
X65028949Y-120922924D01*
X64367613Y-120648313D01*
X63651529Y-120647688D01*
X62989714Y-120921145D01*
X62712375Y-121198000D01*
X57132693Y-121198000D01*
X57132693Y-121178000D01*
X57080396Y-120900067D01*
X56916138Y-120644802D01*
X56665508Y-120473554D01*
X56368000Y-120413307D01*
X53868000Y-120413307D01*
X53590067Y-120465604D01*
X53334802Y-120629862D01*
X53163554Y-120880492D01*
X53103307Y-121178000D01*
X48764000Y-121178000D01*
X48764000Y-118828246D01*
X63270216Y-118828246D01*
X63394070Y-119086186D01*
X64105978Y-119188815D01*
X64621930Y-119086186D01*
X64745784Y-118828246D01*
X64008000Y-118090462D01*
X63270216Y-118828246D01*
X48764000Y-118828246D01*
X48764000Y-117445978D01*
X62167185Y-117445978D01*
X62269814Y-117961930D01*
X62527754Y-118085784D01*
X63265538Y-117348000D01*
X64750462Y-117348000D01*
X65488246Y-118085784D01*
X65746186Y-117961930D01*
X65848815Y-117250022D01*
X65746186Y-116734070D01*
X65488246Y-116610216D01*
X64750462Y-117348000D01*
X63265538Y-117348000D01*
X62527754Y-116610216D01*
X62269814Y-116734070D01*
X62167185Y-117445978D01*
X48764000Y-117445978D01*
X48764000Y-115867754D01*
X63270216Y-115867754D01*
X64008000Y-116605538D01*
X64745784Y-115867754D01*
X64621930Y-115609814D01*
X63910022Y-115507185D01*
X63394070Y-115609814D01*
X63270216Y-115867754D01*
X48764000Y-115867754D01*
X48764000Y-109522500D01*
X54230000Y-109522500D01*
X54230000Y-110358775D01*
X54345398Y-110637372D01*
X54558627Y-110850601D01*
X54837224Y-110966000D01*
X55673500Y-110966000D01*
X55863000Y-110776500D01*
X55863000Y-109333000D01*
X54419500Y-109333000D01*
X54230000Y-109522500D01*
X48764000Y-109522500D01*
X48764000Y-106557225D01*
X54230000Y-106557225D01*
X54230000Y-107393500D01*
X54419500Y-107583000D01*
X55863000Y-107583000D01*
X55863000Y-106139500D01*
X57613000Y-106139500D01*
X57613000Y-107583000D01*
X59056500Y-107583000D01*
X59246000Y-107393500D01*
X59246000Y-106557225D01*
X59130602Y-106278628D01*
X58917373Y-106065399D01*
X58638776Y-105950000D01*
X57802500Y-105950000D01*
X57613000Y-106139500D01*
X55863000Y-106139500D01*
X55673500Y-105950000D01*
X54837224Y-105950000D01*
X54558627Y-106065399D01*
X54345398Y-106278628D01*
X54230000Y-106557225D01*
X48764000Y-106557225D01*
X48764000Y-71182079D01*
X53117654Y-71182079D01*
X53421494Y-71917429D01*
X53983612Y-72480529D01*
X54630000Y-72748933D01*
X54630000Y-73934839D01*
X54501142Y-74020939D01*
X54078435Y-74653564D01*
X53930000Y-75399797D01*
X53930000Y-75476203D01*
X54078435Y-76222436D01*
X54501142Y-76855061D01*
X55133767Y-77277768D01*
X55880000Y-77426203D01*
X56626233Y-77277768D01*
X57258858Y-76855061D01*
X57681565Y-76222436D01*
X57830000Y-75476203D01*
X57830000Y-75399797D01*
X57681565Y-74653564D01*
X57258858Y-74020939D01*
X57130000Y-73934839D01*
X57130000Y-72130000D01*
X57034849Y-71651646D01*
X57006800Y-71609667D01*
X56966559Y-71549442D01*
X57117652Y-71185570D01*
X57118346Y-70389921D01*
X56919578Y-69908863D01*
X61071125Y-69908863D01*
X61512139Y-70484264D01*
X61917143Y-70754840D01*
X62188000Y-70663244D01*
X62188000Y-69638000D01*
X61152736Y-69638000D01*
X61071125Y-69908863D01*
X56919578Y-69908863D01*
X56814506Y-69654571D01*
X56342308Y-69181548D01*
X65182655Y-69181548D01*
X65906000Y-69904893D01*
X66629345Y-69181548D01*
X66513241Y-68925552D01*
X65821642Y-68821545D01*
X65298759Y-68925552D01*
X65182655Y-69181548D01*
X56342308Y-69181548D01*
X56252388Y-69091471D01*
X55517570Y-68786348D01*
X54721921Y-68785654D01*
X53986571Y-69089494D01*
X53423471Y-69651612D01*
X53118348Y-70386430D01*
X53117654Y-71182079D01*
X48764000Y-71182079D01*
X48764000Y-68267137D01*
X61071125Y-68267137D01*
X61152736Y-68538000D01*
X62188000Y-68538000D01*
X62188000Y-67512756D01*
X63288000Y-67512756D01*
X63288000Y-68538000D01*
X64323264Y-68538000D01*
X64404875Y-68267137D01*
X63963861Y-67691736D01*
X63558857Y-67421160D01*
X63288000Y-67512756D01*
X62188000Y-67512756D01*
X61917143Y-67421160D01*
X61512139Y-67691736D01*
X61071125Y-68267137D01*
X48764000Y-68267137D01*
X48764000Y-63242000D01*
X49022000Y-63242000D01*
X49119264Y-63222304D01*
X49201202Y-63166318D01*
X49254903Y-63082864D01*
X49271905Y-62985093D01*
X49245607Y-62880197D01*
X49018000Y-62424983D01*
X49018000Y-57507554D01*
X59538004Y-46987550D01*
X65944127Y-47083164D01*
X65944127Y-47083164D01*
G37*
X65944127Y-47083164D02*
X65868571Y-47114383D01*
X65718693Y-47264000D01*
X63736000Y-47264000D01*
X63257646Y-47359151D01*
X62852116Y-47630117D01*
X62308927Y-48173307D01*
X61638000Y-48173307D01*
X61360067Y-48225604D01*
X61104802Y-48389862D01*
X60933554Y-48640492D01*
X60873307Y-48938000D01*
X60873307Y-51138000D01*
X60925604Y-51415933D01*
X61089862Y-51671198D01*
X61340492Y-51842446D01*
X61638000Y-51902693D01*
X63838000Y-51902693D01*
X64115933Y-51850396D01*
X64371198Y-51686138D01*
X64542446Y-51435508D01*
X64602693Y-51138000D01*
X64602693Y-49764000D01*
X65552000Y-49764000D01*
X65552000Y-51052000D01*
X65642528Y-51507112D01*
X65647151Y-51530354D01*
X65918117Y-51935883D01*
X65924232Y-51941998D01*
X65569357Y-52296874D01*
X65205983Y-52369154D01*
X65120881Y-52617195D01*
X65786000Y-53282315D01*
X66068843Y-52999472D01*
X66634528Y-53565157D01*
X66351685Y-53848000D01*
X67016805Y-54513119D01*
X67264846Y-54428017D01*
X67328446Y-54073323D01*
X67500000Y-53901769D01*
X67500000Y-56575015D01*
X67456000Y-56595693D01*
X67456000Y-57512000D01*
X67500000Y-57512000D01*
X67500000Y-58312000D01*
X67456000Y-58312000D01*
X67456000Y-58712000D01*
X66656000Y-58712000D01*
X66656000Y-58312000D01*
X65747263Y-58312000D01*
X65631335Y-58542631D01*
X65805998Y-58804061D01*
X65805998Y-59470000D01*
X65853435Y-59470000D01*
X65593621Y-59858841D01*
X65522180Y-60218000D01*
X64574468Y-60218000D01*
X64550396Y-60090067D01*
X64386138Y-59834802D01*
X64135508Y-59663554D01*
X63988000Y-59633683D01*
X63988000Y-59041245D01*
X64046148Y-59002392D01*
X64447177Y-58402208D01*
X64588000Y-57694244D01*
X64588000Y-57621756D01*
X64520293Y-57281369D01*
X65631335Y-57281369D01*
X65747263Y-57512000D01*
X66656000Y-57512000D01*
X66656000Y-56595693D01*
X66425365Y-56487306D01*
X65928162Y-56837088D01*
X65631335Y-57281369D01*
X64520293Y-57281369D01*
X64447177Y-56913792D01*
X64046148Y-56313608D01*
X63445964Y-55912579D01*
X62738000Y-55771756D01*
X62030036Y-55912579D01*
X61429852Y-56313608D01*
X61028823Y-56913792D01*
X60888000Y-57621756D01*
X60888000Y-57694244D01*
X61028823Y-58402208D01*
X61429852Y-59002392D01*
X61488000Y-59041245D01*
X61488000Y-59631532D01*
X61360067Y-59655604D01*
X61104802Y-59819862D01*
X60933554Y-60070492D01*
X60903683Y-60218000D01*
X59349866Y-60218000D01*
X59142443Y-59715999D01*
X58650590Y-59223287D01*
X58007624Y-58956304D01*
X57311431Y-58955696D01*
X56667999Y-59221557D01*
X56368000Y-59521033D01*
X56368000Y-56263766D01*
X57552961Y-55078805D01*
X65120881Y-55078805D01*
X65205983Y-55326846D01*
X65816064Y-55436239D01*
X66366017Y-55326846D01*
X66451119Y-55078805D01*
X65786000Y-54413685D01*
X65120881Y-55078805D01*
X57552961Y-55078805D01*
X57675750Y-54956017D01*
X58004569Y-54956304D01*
X58648001Y-54690443D01*
X59140713Y-54198590D01*
X59273807Y-53878064D01*
X64197761Y-53878064D01*
X64307154Y-54428017D01*
X64555195Y-54513119D01*
X65220315Y-53848000D01*
X64555195Y-53182881D01*
X64307154Y-53267983D01*
X64197761Y-53878064D01*
X59273807Y-53878064D01*
X59407696Y-53555624D01*
X59408304Y-52859431D01*
X59142443Y-52215999D01*
X58650590Y-51723287D01*
X58007624Y-51456304D01*
X57311431Y-51455696D01*
X56667999Y-51721557D01*
X56175287Y-52213410D01*
X55908304Y-52856376D01*
X55908014Y-53188219D01*
X54234117Y-54862117D01*
X53963151Y-55267646D01*
X53868000Y-55746000D01*
X53868000Y-63771307D01*
X53590067Y-63823604D01*
X53334802Y-63987862D01*
X53163554Y-64238492D01*
X53103307Y-64536000D01*
X53103307Y-67036000D01*
X53155604Y-67313933D01*
X53319862Y-67569198D01*
X53570492Y-67740446D01*
X53868000Y-67800693D01*
X56368000Y-67800693D01*
X56645933Y-67748396D01*
X56901198Y-67584138D01*
X57072446Y-67333508D01*
X57132693Y-67036000D01*
X57132693Y-64536000D01*
X57080396Y-64258067D01*
X56916138Y-64002802D01*
X56665508Y-63831554D01*
X56368000Y-63771307D01*
X56368000Y-61890784D01*
X56665410Y-62188713D01*
X57308376Y-62455696D01*
X57691984Y-62456031D01*
X57865187Y-62571761D01*
X57941646Y-62622849D01*
X58420000Y-62718000D01*
X60901532Y-62718000D01*
X60925604Y-62845933D01*
X61089862Y-63101198D01*
X61340492Y-63272446D01*
X61638000Y-63332693D01*
X63838000Y-63332693D01*
X64115933Y-63280396D01*
X64371198Y-63116138D01*
X64542446Y-62865508D01*
X64572317Y-62718000D01*
X65014234Y-62718000D01*
X65522166Y-63225933D01*
X65593621Y-63585159D01*
X65929618Y-64088016D01*
X66190004Y-64262000D01*
X65929618Y-64435984D01*
X65593621Y-64938841D01*
X65475634Y-65532000D01*
X65593621Y-66125159D01*
X65929618Y-66628016D01*
X66432475Y-66964013D01*
X67025634Y-67082000D01*
X67064234Y-67082000D01*
X67500000Y-67517767D01*
X67500000Y-69962830D01*
X67336452Y-69888655D01*
X66613107Y-70612000D01*
X66966661Y-70965554D01*
X66284214Y-71648000D01*
X66234893Y-71648000D01*
X65906000Y-71319107D01*
X65577107Y-71648000D01*
X65527786Y-71648000D01*
X64845340Y-70965554D01*
X65198893Y-70612000D01*
X64475548Y-69888655D01*
X64390959Y-69927019D01*
X64404875Y-69908863D01*
X64323264Y-69638000D01*
X63288000Y-69638000D01*
X63288000Y-70663244D01*
X63558857Y-70754840D01*
X63963861Y-70484264D01*
X64192255Y-70186274D01*
X64126462Y-70623768D01*
X63758131Y-70992099D01*
X63854019Y-71087987D01*
X63584000Y-71033307D01*
X61384000Y-71033307D01*
X61106067Y-71085604D01*
X60850802Y-71249862D01*
X60679554Y-71500492D01*
X60619307Y-71798000D01*
X60619307Y-73998000D01*
X60671604Y-74275933D01*
X60835862Y-74531198D01*
X61086492Y-74702446D01*
X61384000Y-74762693D01*
X63584000Y-74762693D01*
X63861933Y-74710396D01*
X64117198Y-74546138D01*
X64288446Y-74295508D01*
X64318317Y-74148000D01*
X67750000Y-74148000D01*
X67750000Y-79267998D01*
X67426954Y-79267998D01*
X67178635Y-79093306D01*
X66948000Y-79201693D01*
X66948000Y-80118000D01*
X67348000Y-80118000D01*
X67348000Y-80918000D01*
X66948000Y-80918000D01*
X66948000Y-81318000D01*
X66148000Y-81318000D01*
X66148000Y-80918000D01*
X65239263Y-80918000D01*
X65123335Y-81148631D01*
X65297998Y-81410061D01*
X65297998Y-81808000D01*
X63828491Y-81808000D01*
X64193177Y-81262208D01*
X64334000Y-80554244D01*
X64334000Y-80481756D01*
X64215769Y-79887369D01*
X65123335Y-79887369D01*
X65239263Y-80118000D01*
X66148000Y-80118000D01*
X66148000Y-79201693D01*
X65917365Y-79093306D01*
X65420162Y-79443088D01*
X65123335Y-79887369D01*
X64215769Y-79887369D01*
X64193177Y-79773792D01*
X63792148Y-79173608D01*
X63191964Y-78772579D01*
X62484000Y-78631756D01*
X61776036Y-78772579D01*
X61175852Y-79173608D01*
X60774823Y-79773792D01*
X60634000Y-80481756D01*
X60634000Y-80554244D01*
X60774823Y-81262208D01*
X61175852Y-81862392D01*
X61234000Y-81901245D01*
X61234000Y-82237532D01*
X61106067Y-82261604D01*
X60850802Y-82425862D01*
X60679554Y-82676492D01*
X60619307Y-82974000D01*
X60619307Y-84170926D01*
X56062076Y-88728158D01*
X55493823Y-88727662D01*
X54776857Y-89023906D01*
X54227834Y-89571971D01*
X53930339Y-90288419D01*
X53929662Y-91064177D01*
X54225906Y-91781143D01*
X54773971Y-92330166D01*
X55490419Y-92627661D01*
X56266177Y-92628338D01*
X56540807Y-92514863D01*
X60817125Y-92514863D01*
X61258139Y-93090264D01*
X61663143Y-93360840D01*
X61934000Y-93269244D01*
X61934000Y-92244000D01*
X63034000Y-92244000D01*
X63034000Y-93269244D01*
X63304857Y-93360840D01*
X63709861Y-93090264D01*
X64150875Y-92514863D01*
X64069264Y-92244000D01*
X63034000Y-92244000D01*
X61934000Y-92244000D01*
X60898736Y-92244000D01*
X60817125Y-92514863D01*
X56540807Y-92514863D01*
X56983143Y-92332094D01*
X57532166Y-91784029D01*
X57829661Y-91067581D01*
X57829830Y-90873137D01*
X60817125Y-90873137D01*
X60898736Y-91144000D01*
X61934000Y-91144000D01*
X61934000Y-90118756D01*
X63034000Y-90118756D01*
X63034000Y-91144000D01*
X64069264Y-91144000D01*
X64150875Y-90873137D01*
X63709861Y-90297736D01*
X63304857Y-90027160D01*
X63034000Y-90118756D01*
X61934000Y-90118756D01*
X61663143Y-90027160D01*
X61258139Y-90297736D01*
X60817125Y-90873137D01*
X57829830Y-90873137D01*
X57830160Y-90495606D01*
X62387074Y-85938693D01*
X63584000Y-85938693D01*
X63861933Y-85886396D01*
X64117198Y-85722138D01*
X64288446Y-85471508D01*
X64348693Y-85174000D01*
X64348693Y-84308000D01*
X65298000Y-84308000D01*
X65298000Y-84686992D01*
X65085621Y-85004841D01*
X64967634Y-85598000D01*
X65085621Y-86191159D01*
X65421618Y-86694016D01*
X65682004Y-86868000D01*
X65421618Y-87041984D01*
X65085621Y-87544841D01*
X64967634Y-88138000D01*
X65085621Y-88731159D01*
X65298000Y-89049008D01*
X65298000Y-91993103D01*
X65065287Y-92225410D01*
X64798304Y-92868376D01*
X64797696Y-93564569D01*
X65063557Y-94208001D01*
X65555410Y-94700713D01*
X66198376Y-94967696D01*
X66894569Y-94968304D01*
X67538001Y-94702443D01*
X67592086Y-94648452D01*
X73324655Y-94648452D01*
X73440759Y-94904448D01*
X74132358Y-95008455D01*
X74655241Y-94904448D01*
X74771345Y-94648452D01*
X74048000Y-93925107D01*
X73324655Y-94648452D01*
X67592086Y-94648452D01*
X68030713Y-94210590D01*
X68297696Y-93567624D01*
X68297927Y-93302358D01*
X72257545Y-93302358D01*
X72361552Y-93825241D01*
X72617548Y-93941345D01*
X73340893Y-93218000D01*
X74755107Y-93218000D01*
X75478452Y-93941345D01*
X75734448Y-93825241D01*
X75838455Y-93133642D01*
X75734448Y-92610759D01*
X75478452Y-92494655D01*
X74755107Y-93218000D01*
X73340893Y-93218000D01*
X72617548Y-92494655D01*
X72361552Y-92610759D01*
X72257545Y-93302358D01*
X68297927Y-93302358D01*
X68298304Y-92871431D01*
X68032443Y-92227999D01*
X67798000Y-91993147D01*
X67798000Y-91787548D01*
X73324655Y-91787548D01*
X74048000Y-92510893D01*
X74771345Y-91787548D01*
X74655241Y-91531552D01*
X73963642Y-91427545D01*
X73440759Y-91531552D01*
X73324655Y-91787548D01*
X67798000Y-91787548D01*
X67798000Y-89388000D01*
X72766326Y-89388000D01*
X72819862Y-89471198D01*
X73070492Y-89642446D01*
X73194343Y-89667526D01*
X73284117Y-89801883D01*
X77250000Y-93767767D01*
X77250000Y-104500000D01*
X77345151Y-104978354D01*
X77616117Y-105383883D01*
X81574116Y-109341883D01*
X81979646Y-109612849D01*
X82458000Y-109708000D01*
X84856000Y-109708000D01*
X84856000Y-111126233D01*
X82076117Y-113906117D01*
X81805151Y-114311646D01*
X81767685Y-114500000D01*
X81126105Y-114500000D01*
X81178879Y-114405407D01*
X80398000Y-113624528D01*
X79617121Y-114405407D01*
X79669895Y-114500000D01*
X77267767Y-114500000D01*
X75682695Y-112914928D01*
X78406482Y-112914928D01*
X78504911Y-113409768D01*
X78768593Y-113556879D01*
X79549472Y-112776000D01*
X81246528Y-112776000D01*
X82027407Y-113556879D01*
X82291089Y-113409768D01*
X82389518Y-112637072D01*
X82291089Y-112142232D01*
X82027407Y-111995121D01*
X81246528Y-112776000D01*
X79549472Y-112776000D01*
X78768593Y-111995121D01*
X78504911Y-112142232D01*
X78406482Y-112914928D01*
X75682695Y-112914928D01*
X74862693Y-112094927D01*
X74862693Y-111576000D01*
X74810396Y-111298067D01*
X74712926Y-111146593D01*
X79617121Y-111146593D01*
X80398000Y-111927472D01*
X81178879Y-111146593D01*
X81031768Y-110882911D01*
X80259072Y-110784482D01*
X79764232Y-110882911D01*
X79617121Y-111146593D01*
X74712926Y-111146593D01*
X74646138Y-111042802D01*
X74395508Y-110871554D01*
X74098000Y-110811307D01*
X71698000Y-110811307D01*
X71420067Y-110863604D01*
X71164802Y-111027862D01*
X70993554Y-111278492D01*
X70933307Y-111576000D01*
X70933307Y-113976000D01*
X70985604Y-114253933D01*
X71149862Y-114509198D01*
X71400492Y-114680446D01*
X71698000Y-114740693D01*
X73972927Y-114740693D01*
X75866116Y-116633883D01*
X76218961Y-116869646D01*
X76271646Y-116904849D01*
X76750000Y-117000000D01*
X81710000Y-117000000D01*
X81710000Y-124764824D01*
X81690000Y-124794756D01*
X81551371Y-124587283D01*
X81132950Y-124307704D01*
X80637846Y-123230125D01*
X80508426Y-123051514D01*
X80385884Y-122868117D01*
X75133883Y-117616117D01*
X74728354Y-117345151D01*
X74250000Y-117250000D01*
X71517767Y-117250000D01*
X68000000Y-113732234D01*
X68000000Y-112470000D01*
X67904849Y-111991646D01*
X67875973Y-111948430D01*
X67633884Y-111586117D01*
X65252693Y-109204927D01*
X65252693Y-106708000D01*
X65200396Y-106430067D01*
X65036138Y-106174802D01*
X64785508Y-106003554D01*
X64488000Y-105943307D01*
X60988000Y-105943307D01*
X60710067Y-105995604D01*
X60454802Y-106159862D01*
X60283554Y-106410492D01*
X60223307Y-106708000D01*
X60223307Y-110208000D01*
X60275604Y-110485933D01*
X60376871Y-110643307D01*
X59124667Y-110643307D01*
X59130602Y-110637372D01*
X59246000Y-110358775D01*
X59246000Y-109522500D01*
X59056500Y-109333000D01*
X57613000Y-109333000D01*
X57613000Y-110758065D01*
X57454802Y-110859862D01*
X57283554Y-111110492D01*
X57223307Y-111408000D01*
X57223307Y-114908000D01*
X57275604Y-115185933D01*
X57439862Y-115441198D01*
X57690492Y-115612446D01*
X57988000Y-115672693D01*
X61488000Y-115672693D01*
X61765933Y-115620396D01*
X62021198Y-115456138D01*
X62192446Y-115205508D01*
X62252693Y-114908000D01*
X62252693Y-111408000D01*
X62200396Y-111130067D01*
X62099129Y-110972693D01*
X63484927Y-110972693D01*
X65500000Y-112987767D01*
X65500000Y-114250000D01*
X65595151Y-114728354D01*
X65866117Y-115133883D01*
X70116117Y-119383884D01*
X70521646Y-119654849D01*
X71000000Y-119750000D01*
X73732234Y-119750000D01*
X78459693Y-124477460D01*
X78883438Y-125399729D01*
X78820000Y-125718654D01*
X78820000Y-125781346D01*
X78941793Y-126393639D01*
X79288629Y-126912717D01*
X79807707Y-127259553D01*
X80420000Y-127381346D01*
X81032293Y-127259553D01*
X81551371Y-126912717D01*
X81690000Y-126705244D01*
X81828629Y-126912717D01*
X82347707Y-127259553D01*
X82960000Y-127381346D01*
X83572293Y-127259553D01*
X83999491Y-126974109D01*
X84101862Y-127133198D01*
X84250000Y-127234416D01*
X84250000Y-129374233D01*
X84148603Y-129475630D01*
X84110244Y-129468000D01*
X84037756Y-129468000D01*
X83329792Y-129608823D01*
X82729608Y-130009852D01*
X82690755Y-130068000D01*
X82682000Y-130068000D01*
X82203646Y-130163151D01*
X81798116Y-130434117D01*
X80650117Y-131582117D01*
X80379151Y-131987646D01*
X80284000Y-132466000D01*
X80284000Y-134291525D01*
X79977274Y-134750572D01*
X79851675Y-135382000D01*
X79977274Y-136013428D01*
X80334949Y-136548726D01*
X80636177Y-136750000D01*
X78767767Y-136750000D01*
X77704000Y-135686234D01*
X77704000Y-133154468D01*
X77831933Y-133130396D01*
X78087198Y-132966138D01*
X78258446Y-132715508D01*
X78318693Y-132418000D01*
X78318693Y-130218000D01*
X78266396Y-129940067D01*
X78102138Y-129684802D01*
X77851508Y-129513554D01*
X77554000Y-129453307D01*
X76357074Y-129453307D01*
X74208693Y-127304927D01*
X74208693Y-126708000D01*
X74156396Y-126430067D01*
X73992138Y-126174802D01*
X73741508Y-126003554D01*
X73444000Y-125943307D01*
X71844000Y-125943307D01*
X71566067Y-125995604D01*
X71310802Y-126159862D01*
X71243747Y-126258000D01*
X70992000Y-126258000D01*
X70513646Y-126353151D01*
X70108117Y-126624116D01*
X65630137Y-131102097D01*
X65606138Y-131064802D01*
X65355508Y-130893554D01*
X65058000Y-130833307D01*
X62958000Y-130833307D01*
X62680067Y-130885604D01*
X62424802Y-131049862D01*
X62253554Y-131300492D01*
X62193307Y-131598000D01*
X62193307Y-133698000D01*
X62245604Y-133975933D01*
X62409862Y-134231198D01*
X62660492Y-134402446D01*
X62958000Y-134462693D01*
X65058000Y-134462693D01*
X65335933Y-134410396D01*
X65591198Y-134246138D01*
X65762446Y-133995508D01*
X65782192Y-133898000D01*
X65852000Y-133898000D01*
X66330354Y-133802849D01*
X66735883Y-133531883D01*
X71373513Y-128894254D01*
X71546492Y-129012446D01*
X71844000Y-129072693D01*
X72440927Y-129072693D01*
X74589307Y-131221074D01*
X74589307Y-132418000D01*
X74641604Y-132695933D01*
X74805862Y-132951198D01*
X75056492Y-133122446D01*
X75204000Y-133152317D01*
X75204000Y-136204000D01*
X75270208Y-136536849D01*
X75299151Y-136682354D01*
X75570117Y-137087883D01*
X77366117Y-138883884D01*
X77771646Y-139154849D01*
X78250000Y-139250000D01*
X85750000Y-139250000D01*
X86228354Y-139154849D01*
X86633883Y-138883883D01*
X87497884Y-138019883D01*
X87651364Y-137790182D01*
X108234968Y-137790182D01*
X108706315Y-138391438D01*
X109097824Y-138652997D01*
X109382000Y-138569608D01*
X109382000Y-137506000D01*
X110582000Y-137506000D01*
X110582000Y-138569608D01*
X110866176Y-138652997D01*
X111257685Y-138391438D01*
X111729032Y-137790182D01*
X111664061Y-137536182D01*
X114584968Y-137536182D01*
X115056315Y-138137438D01*
X115447824Y-138398997D01*
X115732000Y-138315608D01*
X115732000Y-137252000D01*
X116932000Y-137252000D01*
X116932000Y-138315608D01*
X117216176Y-138398997D01*
X117607685Y-138137438D01*
X118079032Y-137536182D01*
X118006340Y-137252000D01*
X116932000Y-137252000D01*
X115732000Y-137252000D01*
X114657660Y-137252000D01*
X114584968Y-137536182D01*
X111664061Y-137536182D01*
X111656340Y-137506000D01*
X110582000Y-137506000D01*
X109382000Y-137506000D01*
X108307660Y-137506000D01*
X108234968Y-137790182D01*
X87651364Y-137790182D01*
X87768849Y-137614354D01*
X87864000Y-137136000D01*
X87864000Y-136948022D01*
X88047198Y-136830138D01*
X88218446Y-136579508D01*
X88278693Y-136282000D01*
X88278693Y-136021818D01*
X108234968Y-136021818D01*
X108307660Y-136306000D01*
X109382000Y-136306000D01*
X109382000Y-135242392D01*
X110582000Y-135242392D01*
X110582000Y-136306000D01*
X111656340Y-136306000D01*
X111729032Y-136021818D01*
X111529912Y-135767818D01*
X114584968Y-135767818D01*
X114657660Y-136052000D01*
X115732000Y-136052000D01*
X115732000Y-134988392D01*
X116932000Y-134988392D01*
X116932000Y-136052000D01*
X118006340Y-136052000D01*
X118079032Y-135767818D01*
X117607685Y-135166562D01*
X117216176Y-134905003D01*
X116932000Y-134988392D01*
X115732000Y-134988392D01*
X115447824Y-134905003D01*
X115056315Y-135166562D01*
X114584968Y-135767818D01*
X111529912Y-135767818D01*
X111257685Y-135420562D01*
X110866176Y-135159003D01*
X110582000Y-135242392D01*
X109382000Y-135242392D01*
X109097824Y-135159003D01*
X108706315Y-135420562D01*
X108234968Y-136021818D01*
X88278693Y-136021818D01*
X88278693Y-134482000D01*
X88226396Y-134204067D01*
X88062138Y-133948802D01*
X87811508Y-133777554D01*
X87514000Y-133717307D01*
X85714000Y-133717307D01*
X85436067Y-133769604D01*
X85180802Y-133933862D01*
X85070206Y-134095725D01*
X84768097Y-133876246D01*
X84524000Y-133975704D01*
X84524000Y-134932000D01*
X84949307Y-134932000D01*
X84949307Y-135832000D01*
X84524000Y-135832000D01*
X84524000Y-136282000D01*
X83624000Y-136282000D01*
X83624000Y-135832000D01*
X83174000Y-135832000D01*
X83174000Y-135594781D01*
X83216325Y-135382000D01*
X83174000Y-135169219D01*
X83174000Y-134932000D01*
X83624000Y-134932000D01*
X83624000Y-133975704D01*
X83379903Y-133876246D01*
X83027864Y-134131998D01*
X82784000Y-134131998D01*
X82784000Y-132983766D01*
X82976591Y-132791176D01*
X83329792Y-133027177D01*
X84037756Y-133168000D01*
X84110244Y-133168000D01*
X84818208Y-133027177D01*
X85418392Y-132626148D01*
X85430518Y-132608000D01*
X94759307Y-132608000D01*
X94759307Y-135108000D01*
X94811604Y-135385933D01*
X94975862Y-135641198D01*
X95226492Y-135812446D01*
X95524000Y-135872693D01*
X98024000Y-135872693D01*
X98301933Y-135820396D01*
X98557198Y-135656138D01*
X98638558Y-135537063D01*
X100978820Y-135537063D01*
X101133684Y-135802632D01*
X101926604Y-135899644D01*
X102414316Y-135802632D01*
X102569180Y-135537063D01*
X101774000Y-134741883D01*
X100978820Y-135537063D01*
X98638558Y-135537063D01*
X98728446Y-135405508D01*
X98788693Y-135108000D01*
X98788693Y-134010604D01*
X99732356Y-134010604D01*
X99829368Y-134498316D01*
X100094937Y-134653180D01*
X100890117Y-133858000D01*
X102657883Y-133858000D01*
X103453063Y-134653180D01*
X103718632Y-134498316D01*
X103815644Y-133705396D01*
X103718632Y-133217684D01*
X103453063Y-133062820D01*
X102657883Y-133858000D01*
X100890117Y-133858000D01*
X100094937Y-133062820D01*
X99829368Y-133217684D01*
X99732356Y-134010604D01*
X98788693Y-134010604D01*
X98788693Y-132608000D01*
X98736396Y-132330067D01*
X98639147Y-132178937D01*
X100978820Y-132178937D01*
X101774000Y-132974117D01*
X102569180Y-132178937D01*
X102414316Y-131913368D01*
X101621396Y-131816356D01*
X101133684Y-131913368D01*
X100978820Y-132178937D01*
X98639147Y-132178937D01*
X98627276Y-132160490D01*
X102911883Y-127875884D01*
X103182849Y-127470354D01*
X103226667Y-127250067D01*
X103278000Y-126992000D01*
X103278000Y-126164301D01*
X103341260Y-126101151D01*
X103577730Y-125531667D01*
X103578268Y-124915039D01*
X103342792Y-124345143D01*
X102907151Y-123908740D01*
X102337667Y-123672270D01*
X101721039Y-123671732D01*
X101151143Y-123907208D01*
X100714740Y-124342849D01*
X100478270Y-124912333D01*
X100477732Y-125528961D01*
X100713208Y-126098857D01*
X100778000Y-126163762D01*
X100778000Y-126474233D01*
X95890117Y-131362117D01*
X95619151Y-131767646D01*
X95604101Y-131843307D01*
X95524000Y-131843307D01*
X95246067Y-131895604D01*
X94990802Y-132059862D01*
X94819554Y-132310492D01*
X94759307Y-132608000D01*
X85430518Y-132608000D01*
X85819421Y-132025964D01*
X85960244Y-131318000D01*
X85940587Y-131219179D01*
X86383884Y-130775883D01*
X86654849Y-130370354D01*
X86750000Y-129892000D01*
X86750000Y-127233848D01*
X86883198Y-127148138D01*
X87054446Y-126897508D01*
X87114693Y-126600000D01*
X87114693Y-125528961D01*
X95477732Y-125528961D01*
X95713208Y-126098857D01*
X96148849Y-126535260D01*
X96718333Y-126771730D01*
X97334961Y-126772268D01*
X97904857Y-126536792D01*
X98341260Y-126101151D01*
X98577730Y-125531667D01*
X98577810Y-125439956D01*
X98927883Y-125089883D01*
X99198849Y-124684354D01*
X99215132Y-124602492D01*
X99294000Y-124206000D01*
X99294000Y-122486468D01*
X99421933Y-122462396D01*
X99677198Y-122298138D01*
X99848446Y-122047508D01*
X99878317Y-121900000D01*
X100736781Y-121900000D01*
X100799852Y-121994392D01*
X101400036Y-122395421D01*
X102108000Y-122536244D01*
X102815964Y-122395421D01*
X103416148Y-121994392D01*
X103696376Y-121575000D01*
X103820000Y-121575000D01*
X104173983Y-121504589D01*
X104474074Y-121304074D01*
X105934074Y-119844074D01*
X106134589Y-119543982D01*
X106205000Y-119190000D01*
X106205000Y-118016452D01*
X108870655Y-118016452D01*
X108986759Y-118272448D01*
X109678358Y-118376455D01*
X110201241Y-118272448D01*
X110317345Y-118016452D01*
X109594000Y-117293107D01*
X108870655Y-118016452D01*
X106205000Y-118016452D01*
X106205000Y-116670358D01*
X107803545Y-116670358D01*
X107907552Y-117193241D01*
X108163548Y-117309345D01*
X108886893Y-116586000D01*
X110301107Y-116586000D01*
X111024452Y-117309345D01*
X111280448Y-117193241D01*
X111384455Y-116501642D01*
X111280448Y-115978759D01*
X111024452Y-115862655D01*
X110301107Y-116586000D01*
X108886893Y-116586000D01*
X108163548Y-115862655D01*
X107907552Y-115978759D01*
X107803545Y-116670358D01*
X106205000Y-116670358D01*
X106205000Y-115155548D01*
X108870655Y-115155548D01*
X109594000Y-115878893D01*
X110317345Y-115155548D01*
X110201241Y-114899552D01*
X109509642Y-114795545D01*
X108986759Y-114899552D01*
X108870655Y-115155548D01*
X106205000Y-115155548D01*
X106205000Y-109800000D01*
X106134589Y-109446018D01*
X106134589Y-109446017D01*
X105934074Y-109145926D01*
X103705000Y-106916852D01*
X103705000Y-95600575D01*
X103906382Y-95466016D01*
X104242379Y-94963159D01*
X104360366Y-94370000D01*
X104242379Y-93776841D01*
X103906382Y-93273984D01*
X103403525Y-92937987D01*
X102810366Y-92820000D01*
X102749634Y-92820000D01*
X102156475Y-92937987D01*
X101653618Y-93273984D01*
X101317621Y-93776841D01*
X101199634Y-94370000D01*
X101317621Y-94963159D01*
X101653618Y-95466016D01*
X101855000Y-95600575D01*
X101855000Y-107300000D01*
X101925411Y-107653983D01*
X102125926Y-107954074D01*
X104355000Y-110183148D01*
X104355000Y-118806852D01*
X103592425Y-119569427D01*
X103416148Y-119305608D01*
X102815964Y-118904579D01*
X102108000Y-118763756D01*
X101400036Y-118904579D01*
X100799852Y-119305608D01*
X100736781Y-119400000D01*
X99880468Y-119400000D01*
X99856396Y-119272067D01*
X99692138Y-119016802D01*
X99441508Y-118845554D01*
X99144000Y-118785307D01*
X96944000Y-118785307D01*
X96666067Y-118837604D01*
X96410802Y-119001862D01*
X96239554Y-119252492D01*
X96179307Y-119550000D01*
X96179307Y-121750000D01*
X96231604Y-122027933D01*
X96395862Y-122283198D01*
X96646492Y-122454446D01*
X96794000Y-122484317D01*
X96794000Y-123671796D01*
X96721039Y-123671732D01*
X96151143Y-123907208D01*
X95714740Y-124342849D01*
X95478270Y-124912333D01*
X95477732Y-125528961D01*
X87114693Y-125528961D01*
X87114693Y-124900000D01*
X87062396Y-124622067D01*
X86898138Y-124366802D01*
X86647508Y-124195554D01*
X86350000Y-124135307D01*
X84650000Y-124135307D01*
X84372067Y-124187604D01*
X84210000Y-124291891D01*
X84210000Y-119248635D01*
X84681306Y-119248635D01*
X85031088Y-119745838D01*
X85475369Y-120042665D01*
X85706000Y-119926737D01*
X85706000Y-119018000D01*
X86506000Y-119018000D01*
X86506000Y-119926737D01*
X86736631Y-120042665D01*
X87180912Y-119745838D01*
X87530694Y-119248635D01*
X87422307Y-119018000D01*
X86506000Y-119018000D01*
X85706000Y-119018000D01*
X84789693Y-119018000D01*
X84681306Y-119248635D01*
X84210000Y-119248635D01*
X84210000Y-117987365D01*
X84681306Y-117987365D01*
X84789693Y-118218000D01*
X85706000Y-118218000D01*
X85706000Y-117309263D01*
X86506000Y-117309263D01*
X86506000Y-118218000D01*
X87422307Y-118218000D01*
X87530694Y-117987365D01*
X87180912Y-117490162D01*
X86736631Y-117193335D01*
X86506000Y-117309263D01*
X85706000Y-117309263D01*
X85475369Y-117193335D01*
X85031088Y-117490162D01*
X84681306Y-117987365D01*
X84210000Y-117987365D01*
X84210000Y-115307766D01*
X85666903Y-113850863D01*
X96377125Y-113850863D01*
X96818139Y-114426264D01*
X97223143Y-114696840D01*
X97494000Y-114605244D01*
X97494000Y-113580000D01*
X98594000Y-113580000D01*
X98594000Y-114605244D01*
X98864857Y-114696840D01*
X99269861Y-114426264D01*
X99710875Y-113850863D01*
X99629264Y-113580000D01*
X98594000Y-113580000D01*
X97494000Y-113580000D01*
X96458736Y-113580000D01*
X96377125Y-113850863D01*
X85666903Y-113850863D01*
X86989884Y-112527883D01*
X87202862Y-112209137D01*
X96377125Y-112209137D01*
X96458736Y-112480000D01*
X97494000Y-112480000D01*
X97494000Y-111454756D01*
X98594000Y-111454756D01*
X98594000Y-112480000D01*
X99629264Y-112480000D01*
X99710875Y-112209137D01*
X99269861Y-111633736D01*
X98864857Y-111363160D01*
X98594000Y-111454756D01*
X97494000Y-111454756D01*
X97223143Y-111363160D01*
X96818139Y-111633736D01*
X96377125Y-112209137D01*
X87202862Y-112209137D01*
X87260849Y-112122354D01*
X87286157Y-111995121D01*
X87356000Y-111644000D01*
X87356000Y-109708000D01*
X98150234Y-109708000D01*
X100265019Y-111822785D01*
X100243307Y-111930000D01*
X100243307Y-114130000D01*
X100295604Y-114407933D01*
X100459862Y-114663198D01*
X100710492Y-114834446D01*
X101008000Y-114894693D01*
X103208000Y-114894693D01*
X103485933Y-114842396D01*
X103741198Y-114678138D01*
X103912446Y-114427508D01*
X103972693Y-114130000D01*
X103972693Y-111930000D01*
X103920396Y-111652067D01*
X103756138Y-111396802D01*
X103505508Y-111225554D01*
X103208000Y-111165307D01*
X103092906Y-111165307D01*
X102991884Y-111014117D01*
X99551883Y-107574117D01*
X99146354Y-107303151D01*
X99130513Y-107300000D01*
X98668000Y-107208000D01*
X87048301Y-107208000D01*
X86985151Y-107144740D01*
X86691745Y-107022907D01*
X86584354Y-106951151D01*
X86458783Y-106926173D01*
X86415667Y-106908270D01*
X86368571Y-106908229D01*
X86106000Y-106856000D01*
X85845722Y-106907773D01*
X85799039Y-106907732D01*
X85755513Y-106925717D01*
X85627646Y-106951151D01*
X85520194Y-107022948D01*
X85229143Y-107143208D01*
X85164238Y-107208000D01*
X82975767Y-107208000D01*
X79750000Y-103982234D01*
X79750000Y-99194805D01*
X80360881Y-99194805D01*
X80445983Y-99442846D01*
X81056064Y-99552239D01*
X81606017Y-99442846D01*
X81691119Y-99194805D01*
X81026000Y-98529685D01*
X80360881Y-99194805D01*
X79750000Y-99194805D01*
X79750000Y-98613613D01*
X79795195Y-98629119D01*
X80460315Y-97964000D01*
X81591685Y-97964000D01*
X82256805Y-98629119D01*
X82504846Y-98544017D01*
X82614239Y-97933936D01*
X82504846Y-97383983D01*
X82256805Y-97298881D01*
X81591685Y-97964000D01*
X80460315Y-97964000D01*
X79795195Y-97298881D01*
X79750000Y-97314387D01*
X79750000Y-96733195D01*
X80360881Y-96733195D01*
X81026000Y-97398315D01*
X81691119Y-96733195D01*
X81606017Y-96485154D01*
X80995936Y-96375761D01*
X80445983Y-96485154D01*
X80360881Y-96733195D01*
X79750000Y-96733195D01*
X79750000Y-94346488D01*
X79928492Y-94468446D01*
X80226000Y-94528693D01*
X81826000Y-94528693D01*
X82103933Y-94476396D01*
X82359198Y-94312138D01*
X82530446Y-94061508D01*
X82590693Y-93764000D01*
X82590693Y-92164000D01*
X82538396Y-91886067D01*
X82374138Y-91630802D01*
X82123508Y-91459554D01*
X82101020Y-91455000D01*
X83276852Y-91455000D01*
X84625000Y-92803148D01*
X84625000Y-97620000D01*
X84695411Y-97973983D01*
X84895926Y-98274074D01*
X88415926Y-101794074D01*
X88559030Y-101889693D01*
X88700391Y-101987948D01*
X88708835Y-101989789D01*
X88716018Y-101994589D01*
X88884858Y-102028174D01*
X89053021Y-102064844D01*
X96709827Y-102205412D01*
X96985608Y-102618148D01*
X97585792Y-103019177D01*
X98293756Y-103160000D01*
X98366244Y-103160000D01*
X99074208Y-103019177D01*
X99674392Y-102618148D01*
X100075421Y-102017964D01*
X100216244Y-101310000D01*
X100075421Y-100602036D01*
X99674392Y-100001852D01*
X99262671Y-99726750D01*
X99784392Y-99378148D01*
X100185421Y-98777964D01*
X100326244Y-98070000D01*
X100185421Y-97362036D01*
X99784392Y-96761852D01*
X99184208Y-96360823D01*
X98476244Y-96220000D01*
X98403756Y-96220000D01*
X97695792Y-96360823D01*
X97095608Y-96761852D01*
X96839597Y-97145000D01*
X89283148Y-97145000D01*
X87485000Y-95346852D01*
X87485000Y-90690000D01*
X87414589Y-90336018D01*
X87214074Y-90035926D01*
X84916074Y-87737926D01*
X84615983Y-87537411D01*
X84262000Y-87467000D01*
X83816733Y-87467000D01*
X83775218Y-87425412D01*
X83704849Y-87071646D01*
X83686365Y-87043983D01*
X83433884Y-86666117D01*
X78000000Y-81232234D01*
X78000000Y-79715694D01*
X78486000Y-79812366D01*
X79079159Y-79694379D01*
X79582016Y-79358382D01*
X79918013Y-78855525D01*
X80036000Y-78262366D01*
X80036000Y-78201634D01*
X79986312Y-77951836D01*
X80583148Y-77355000D01*
X81287353Y-77355000D01*
X81117987Y-77608475D01*
X81000000Y-78201634D01*
X81000000Y-78262366D01*
X81117987Y-78855525D01*
X81453984Y-79358382D01*
X81625000Y-79472651D01*
X81625000Y-82740000D01*
X81695411Y-83093983D01*
X81895926Y-83394074D01*
X87585926Y-89084074D01*
X87886017Y-89284589D01*
X88240000Y-89355000D01*
X91110000Y-89355000D01*
X91292000Y-89318798D01*
X91292000Y-90480002D01*
X91971046Y-90480002D01*
X92219365Y-90654694D01*
X92450000Y-90546307D01*
X92450000Y-89630000D01*
X93250000Y-89630000D01*
X93250000Y-90546307D01*
X93480635Y-90654694D01*
X93977838Y-90304912D01*
X94274665Y-89860631D01*
X94158737Y-89630000D01*
X93250000Y-89630000D01*
X92450000Y-89630000D01*
X92050000Y-89630000D01*
X92050000Y-88830000D01*
X92450000Y-88830000D01*
X92450000Y-88430000D01*
X93250000Y-88430000D01*
X93250000Y-88830000D01*
X94158737Y-88830000D01*
X94274665Y-88599369D01*
X94100002Y-88337939D01*
X94100002Y-87672000D01*
X94052565Y-87672000D01*
X94312379Y-87283159D01*
X94430366Y-86690000D01*
X94312379Y-86096841D01*
X93976382Y-85593984D01*
X93715996Y-85420000D01*
X93976382Y-85246016D01*
X94312379Y-84743159D01*
X94430366Y-84150000D01*
X94353785Y-83765000D01*
X96396852Y-83765000D01*
X97185000Y-84553148D01*
X97185000Y-87360000D01*
X97255411Y-87713983D01*
X97455926Y-88014074D01*
X98943710Y-89501858D01*
X99007621Y-89823159D01*
X99343618Y-90326016D01*
X99846475Y-90662013D01*
X100291349Y-90750504D01*
X97596852Y-93445000D01*
X93886733Y-93445000D01*
X93499151Y-93056740D01*
X92929667Y-92820270D01*
X92313039Y-92819732D01*
X91743143Y-93055208D01*
X91352669Y-93445000D01*
X90112712Y-93445000D01*
X89619667Y-93240270D01*
X89003039Y-93239732D01*
X88433143Y-93475208D01*
X87996740Y-93910849D01*
X87760270Y-94480333D01*
X87759732Y-95096961D01*
X87995208Y-95666857D01*
X88430849Y-96103260D01*
X89000333Y-96339730D01*
X89616961Y-96340268D01*
X90186857Y-96104792D01*
X90623260Y-95669151D01*
X90778621Y-95295000D01*
X91353267Y-95295000D01*
X91740849Y-95683260D01*
X92310333Y-95919730D01*
X92926961Y-95920268D01*
X93496857Y-95684792D01*
X93887331Y-95295000D01*
X97980000Y-95295000D01*
X98333983Y-95224589D01*
X98634074Y-95024074D01*
X102055147Y-91603000D01*
X102539419Y-91603000D01*
X102577604Y-91805933D01*
X102741862Y-92061198D01*
X102992492Y-92232446D01*
X103290000Y-92292693D01*
X104990000Y-92292693D01*
X105267933Y-92240396D01*
X105523198Y-92076138D01*
X105624415Y-91928002D01*
X105695466Y-91928002D01*
X106017631Y-92143241D01*
X106255000Y-92031336D01*
X106255000Y-91103000D01*
X107105000Y-91103000D01*
X107105000Y-92031336D01*
X107342369Y-92143241D01*
X107780255Y-91850689D01*
X108145272Y-91340374D01*
X108041350Y-91103000D01*
X107105000Y-91103000D01*
X106255000Y-91103000D01*
X105830000Y-91103000D01*
X105830000Y-90253000D01*
X106255000Y-90253000D01*
X106255000Y-89324664D01*
X107105000Y-89324664D01*
X107105000Y-90253000D01*
X108041350Y-90253000D01*
X108145272Y-90015626D01*
X107780255Y-89505311D01*
X107342369Y-89212759D01*
X107105000Y-89324664D01*
X106255000Y-89324664D01*
X106017631Y-89212759D01*
X106010876Y-89217272D01*
X106764074Y-88464074D01*
X106964589Y-88163982D01*
X107035001Y-87810000D01*
X107035000Y-87809995D01*
X107035000Y-86160000D01*
X106964589Y-85806018D01*
X106764074Y-85505926D01*
X105803148Y-84545000D01*
X107380000Y-84545000D01*
X107733983Y-84474589D01*
X107745307Y-84467023D01*
X107745307Y-85400000D01*
X107797604Y-85677933D01*
X107961862Y-85933198D01*
X108212492Y-86104446D01*
X108497075Y-86162076D01*
X108505411Y-86203983D01*
X108705926Y-86504074D01*
X111225926Y-89024074D01*
X111526017Y-89224589D01*
X111880000Y-89295000D01*
X112639349Y-89295000D01*
X112753618Y-89466016D01*
X113014004Y-89640000D01*
X112753618Y-89813984D01*
X112417621Y-90316841D01*
X112299634Y-90910000D01*
X112417621Y-91503159D01*
X112753618Y-92006016D01*
X113245979Y-92335000D01*
X110320000Y-92335000D01*
X109966018Y-92405411D01*
X109665926Y-92605926D01*
X106066545Y-96205307D01*
X104960000Y-96205307D01*
X104682067Y-96257604D01*
X104426802Y-96421862D01*
X104255554Y-96672492D01*
X104195307Y-96970000D01*
X104195307Y-99170000D01*
X104247604Y-99447933D01*
X104365216Y-99630708D01*
X104316802Y-99661862D01*
X104145554Y-99912492D01*
X104085307Y-100210000D01*
X104085307Y-102410000D01*
X104137604Y-102687933D01*
X104301862Y-102943198D01*
X104552492Y-103114446D01*
X104850000Y-103174693D01*
X107050000Y-103174693D01*
X107327933Y-103122396D01*
X107583198Y-102958138D01*
X107754446Y-102707508D01*
X107814693Y-102410000D01*
X107814693Y-101090805D01*
X113074881Y-101090805D01*
X113159983Y-101338846D01*
X113770064Y-101448239D01*
X114320017Y-101338846D01*
X114405119Y-101090805D01*
X113740000Y-100425685D01*
X113074881Y-101090805D01*
X107814693Y-101090805D01*
X107814693Y-100210000D01*
X107762396Y-99932067D01*
X107735368Y-99890064D01*
X112151761Y-99890064D01*
X112261154Y-100440017D01*
X112509195Y-100525119D01*
X113174315Y-99860000D01*
X112509195Y-99194881D01*
X112261154Y-99279983D01*
X112151761Y-99890064D01*
X107735368Y-99890064D01*
X107644784Y-99749292D01*
X107693198Y-99718138D01*
X107864446Y-99467508D01*
X107924693Y-99170000D01*
X107924693Y-96970000D01*
X107923656Y-96964492D01*
X110703148Y-94185000D01*
X112341969Y-94185000D01*
X112190270Y-94550333D01*
X112189732Y-95166961D01*
X112425208Y-95736857D01*
X112860849Y-96173260D01*
X113430333Y-96409730D01*
X113822306Y-96410072D01*
X114720000Y-97307767D01*
X114720000Y-98600416D01*
X113975907Y-97856323D01*
X113523357Y-98308874D01*
X113159983Y-98381154D01*
X113074881Y-98629195D01*
X113740000Y-99294315D01*
X114022843Y-99011472D01*
X114588528Y-99577157D01*
X114305685Y-99860000D01*
X114970805Y-100525119D01*
X115010927Y-100511353D01*
X115086117Y-100623883D01*
X116096117Y-101633884D01*
X116413596Y-101846016D01*
X116501646Y-101904849D01*
X116980000Y-102000000D01*
X117307699Y-102000000D01*
X117370849Y-102063260D01*
X117940333Y-102299730D01*
X118556961Y-102300268D01*
X119126857Y-102064792D01*
X119563260Y-101629151D01*
X119799730Y-101059667D01*
X119800268Y-100443039D01*
X119564792Y-99873143D01*
X119129151Y-99436740D01*
X118559667Y-99200270D01*
X117943039Y-99199732D01*
X117415481Y-99417714D01*
X117220000Y-99222234D01*
X117220000Y-98162147D01*
X117370849Y-98313260D01*
X117940333Y-98549730D01*
X118556961Y-98550268D01*
X119126857Y-98314792D01*
X119191762Y-98250000D01*
X120712234Y-98250000D01*
X122256117Y-99793884D01*
X122256120Y-99793886D01*
X124096117Y-101633884D01*
X124413596Y-101846016D01*
X124501646Y-101904849D01*
X124980000Y-102000000D01*
X127514072Y-102000000D01*
X127786475Y-102182013D01*
X128379634Y-102300000D01*
X128440366Y-102300000D01*
X129033525Y-102182013D01*
X129536382Y-101846016D01*
X129872379Y-101343159D01*
X129990366Y-100750000D01*
X129872379Y-100156841D01*
X129536382Y-99653984D01*
X129033525Y-99317987D01*
X128440366Y-99200000D01*
X128379634Y-99200000D01*
X127786475Y-99317987D01*
X127514072Y-99500000D01*
X125497767Y-99500000D01*
X124677957Y-98680191D01*
X126946706Y-96411442D01*
X126829634Y-97000000D01*
X126947621Y-97593159D01*
X127283618Y-98096016D01*
X127786475Y-98432013D01*
X128379634Y-98550000D01*
X128440366Y-98550000D01*
X129033525Y-98432013D01*
X129536382Y-98096016D01*
X129872379Y-97593159D01*
X129875000Y-97579982D01*
X129877621Y-97593159D01*
X130213618Y-98096016D01*
X130415000Y-98230575D01*
X130415000Y-102466852D01*
X127806852Y-105075000D01*
X120650000Y-105075000D01*
X120296018Y-105145411D01*
X119995926Y-105345926D01*
X119995924Y-105345929D01*
X116439926Y-108901926D01*
X116239411Y-109202017D01*
X116211590Y-109341883D01*
X116169000Y-109556000D01*
X116169000Y-115074699D01*
X116103999Y-115101557D01*
X115611287Y-115593410D01*
X115344304Y-116236376D01*
X115343715Y-116910365D01*
X115177151Y-117159646D01*
X115082000Y-117638000D01*
X115082000Y-119904507D01*
X114824057Y-120162000D01*
X111235936Y-120162000D01*
X111088029Y-120013834D01*
X110371581Y-119716339D01*
X109595823Y-119715662D01*
X108878857Y-120011906D01*
X108329834Y-120559971D01*
X108032339Y-121276419D01*
X108031662Y-122052177D01*
X108327906Y-122769143D01*
X108875971Y-123318166D01*
X109592419Y-123615661D01*
X110368177Y-123616338D01*
X111085143Y-123320094D01*
X111634166Y-122772029D01*
X111679854Y-122662000D01*
X114824507Y-122662000D01*
X115082000Y-122919943D01*
X115082000Y-127282000D01*
X115160770Y-127678000D01*
X115177151Y-127760354D01*
X115448117Y-128165883D01*
X119293307Y-132011074D01*
X119293307Y-132418000D01*
X119345604Y-132695933D01*
X119509862Y-132951198D01*
X119760492Y-133122446D01*
X119908000Y-133152317D01*
X119908000Y-135455699D01*
X119844740Y-135518849D01*
X119608270Y-136088333D01*
X119607732Y-136704961D01*
X119843208Y-137274857D01*
X120278849Y-137711260D01*
X120848333Y-137947730D01*
X121464961Y-137948268D01*
X122034857Y-137712792D01*
X122471260Y-137277151D01*
X122707730Y-136707667D01*
X122708000Y-136398000D01*
X129737634Y-136398000D01*
X129855621Y-136991159D01*
X130191618Y-137494016D01*
X130694475Y-137830013D01*
X131287634Y-137948000D01*
X131348366Y-137948000D01*
X131941525Y-137830013D01*
X132444382Y-137494016D01*
X132780379Y-136991159D01*
X132851834Y-136631933D01*
X133471883Y-136011884D01*
X133742849Y-135606354D01*
X133756632Y-135537063D01*
X133838000Y-135128000D01*
X133838000Y-130792693D01*
X134115933Y-130740396D01*
X134371198Y-130576138D01*
X134542446Y-130325508D01*
X134602693Y-130028000D01*
X134602693Y-127528000D01*
X134550396Y-127250067D01*
X134386138Y-126994802D01*
X134135508Y-126823554D01*
X133838000Y-126763307D01*
X131338000Y-126763307D01*
X131060067Y-126815604D01*
X130804802Y-126979862D01*
X130633554Y-127230492D01*
X130573307Y-127528000D01*
X130573307Y-130028000D01*
X130625604Y-130305933D01*
X130789862Y-130561198D01*
X131040492Y-130732446D01*
X131338000Y-130792693D01*
X131338000Y-134610233D01*
X131053701Y-134894532D01*
X130694475Y-134965987D01*
X130191618Y-135301984D01*
X129855621Y-135804841D01*
X129737634Y-136398000D01*
X122708000Y-136398000D01*
X122708268Y-136091039D01*
X122472792Y-135521143D01*
X122408000Y-135456238D01*
X122408000Y-133154468D01*
X122535933Y-133130396D01*
X122791198Y-132966138D01*
X122962446Y-132715508D01*
X122992317Y-132568000D01*
X123332000Y-132568000D01*
X123810354Y-132472849D01*
X124215883Y-132201883D01*
X125775074Y-130642693D01*
X126068000Y-130642693D01*
X126345933Y-130590396D01*
X126601198Y-130426138D01*
X126772446Y-130175508D01*
X126832693Y-129878000D01*
X126832693Y-127678000D01*
X126780396Y-127400067D01*
X126616138Y-127144802D01*
X126365508Y-126973554D01*
X126068000Y-126913307D01*
X123868000Y-126913307D01*
X123590067Y-126965604D01*
X123334802Y-127129862D01*
X123163554Y-127380492D01*
X123103307Y-127678000D01*
X123103307Y-129778927D01*
X122959343Y-129922890D01*
X122806138Y-129684802D01*
X122555508Y-129513554D01*
X122258000Y-129453307D01*
X120271074Y-129453307D01*
X117582000Y-126764234D01*
X117582000Y-122919493D01*
X117984166Y-122518029D01*
X118281661Y-121801581D01*
X118282338Y-121025823D01*
X117986094Y-120308857D01*
X117582000Y-119904057D01*
X117582000Y-118277866D01*
X118084001Y-118070443D01*
X118576713Y-117578590D01*
X118843696Y-116935624D01*
X118844296Y-116248000D01*
X119293307Y-116248000D01*
X119293307Y-118448000D01*
X119345604Y-118725933D01*
X119509862Y-118981198D01*
X119760492Y-119152446D01*
X119908000Y-119182317D01*
X119908000Y-122314755D01*
X119849852Y-122353608D01*
X119448823Y-122953792D01*
X119308000Y-123661756D01*
X119308000Y-123734244D01*
X119448823Y-124442208D01*
X119849852Y-125042392D01*
X120450036Y-125443421D01*
X121158000Y-125584244D01*
X121797381Y-125457063D01*
X131792820Y-125457063D01*
X131947684Y-125722632D01*
X132740604Y-125819644D01*
X133228316Y-125722632D01*
X133383180Y-125457063D01*
X132588000Y-124661883D01*
X131792820Y-125457063D01*
X121797381Y-125457063D01*
X121865964Y-125443421D01*
X122466148Y-125042392D01*
X122867177Y-124442208D01*
X122968941Y-123930604D01*
X130546356Y-123930604D01*
X130643368Y-124418316D01*
X130908937Y-124573180D01*
X131704117Y-123778000D01*
X133471883Y-123778000D01*
X134267063Y-124573180D01*
X134532632Y-124418316D01*
X134629644Y-123625396D01*
X134532632Y-123137684D01*
X134267063Y-122982820D01*
X133471883Y-123778000D01*
X131704117Y-123778000D01*
X130908937Y-122982820D01*
X130643368Y-123137684D01*
X130546356Y-123930604D01*
X122968941Y-123930604D01*
X123008000Y-123734244D01*
X123008000Y-123661756D01*
X122867177Y-122953792D01*
X122466148Y-122353608D01*
X122408000Y-122314755D01*
X122408000Y-119184468D01*
X122535933Y-119160396D01*
X122791198Y-118996138D01*
X122962446Y-118745508D01*
X123003787Y-118541359D01*
X123027604Y-118667933D01*
X123191862Y-118923198D01*
X123442492Y-119094446D01*
X123590000Y-119124317D01*
X123590000Y-119918149D01*
X123258823Y-120413792D01*
X123118000Y-121121756D01*
X123118000Y-121194244D01*
X123258823Y-121902208D01*
X123659852Y-122502392D01*
X124260036Y-122903421D01*
X124968000Y-123044244D01*
X125675964Y-122903421D01*
X126276148Y-122502392D01*
X126545727Y-122098937D01*
X131792820Y-122098937D01*
X132588000Y-122894117D01*
X133383180Y-122098937D01*
X133228316Y-121833368D01*
X132435396Y-121736356D01*
X131947684Y-121833368D01*
X131792820Y-122098937D01*
X126545727Y-122098937D01*
X126677177Y-121902208D01*
X126818000Y-121194244D01*
X126818000Y-121121756D01*
X126677177Y-120413792D01*
X126276148Y-119813608D01*
X126090000Y-119689228D01*
X126090000Y-119126468D01*
X126217933Y-119102396D01*
X126473198Y-118938138D01*
X126644446Y-118687508D01*
X126704693Y-118390000D01*
X126704693Y-116963073D01*
X130069767Y-113598000D01*
X131009858Y-113598000D01*
X131453612Y-114042529D01*
X132188430Y-114347652D01*
X132984079Y-114348346D01*
X133719429Y-114044506D01*
X134040000Y-113724494D01*
X134040000Y-115374213D01*
X133838000Y-115333307D01*
X131338000Y-115333307D01*
X131060067Y-115385604D01*
X130804802Y-115549862D01*
X130633554Y-115800492D01*
X130573307Y-116098000D01*
X130573307Y-118598000D01*
X130625604Y-118875933D01*
X130789862Y-119131198D01*
X131040492Y-119302446D01*
X131338000Y-119362693D01*
X133838000Y-119362693D01*
X134115933Y-119310396D01*
X134371198Y-119146138D01*
X134542446Y-118895508D01*
X134602693Y-118598000D01*
X134782000Y-118598000D01*
X135260354Y-118502849D01*
X135665883Y-118231883D01*
X136173883Y-117723884D01*
X136444849Y-117318355D01*
X136496239Y-117060000D01*
X136540000Y-116840000D01*
X136540000Y-109530000D01*
X136444849Y-109051646D01*
X136373865Y-108945411D01*
X136173884Y-108646117D01*
X135833883Y-108306117D01*
X135428354Y-108035151D01*
X134950000Y-107940000D01*
X129090000Y-107940000D01*
X128611646Y-108035151D01*
X128206117Y-108306117D01*
X126292234Y-110220000D01*
X125390000Y-110220000D01*
X125390000Y-111122234D01*
X121028927Y-115483307D01*
X120058000Y-115483307D01*
X119780067Y-115535604D01*
X119524802Y-115699862D01*
X119353554Y-115950492D01*
X119293307Y-116248000D01*
X118844296Y-116248000D01*
X118844304Y-116239431D01*
X118578443Y-115595999D01*
X118086590Y-115103287D01*
X118019000Y-115075221D01*
X118019000Y-110548863D01*
X119491125Y-110548863D01*
X119932139Y-111124264D01*
X120337143Y-111394840D01*
X120608000Y-111303244D01*
X120608000Y-110278000D01*
X121708000Y-110278000D01*
X121708000Y-111303244D01*
X121978857Y-111394840D01*
X122383861Y-111124264D01*
X122824875Y-110548863D01*
X122807400Y-110490863D01*
X123173125Y-110490863D01*
X123614139Y-111066264D01*
X124019143Y-111336840D01*
X124290000Y-111245244D01*
X124290000Y-110220000D01*
X123254736Y-110220000D01*
X123173125Y-110490863D01*
X122807400Y-110490863D01*
X122743264Y-110278000D01*
X121708000Y-110278000D01*
X120608000Y-110278000D01*
X119572736Y-110278000D01*
X119491125Y-110548863D01*
X118019000Y-110548863D01*
X118019000Y-109939148D01*
X119051010Y-108907137D01*
X119491125Y-108907137D01*
X119572736Y-109178000D01*
X120608000Y-109178000D01*
X120608000Y-108152756D01*
X121708000Y-108152756D01*
X121708000Y-109178000D01*
X122743264Y-109178000D01*
X122824875Y-108907137D01*
X122780422Y-108849137D01*
X123173125Y-108849137D01*
X123254736Y-109120000D01*
X124290000Y-109120000D01*
X124290000Y-108094756D01*
X125390000Y-108094756D01*
X125390000Y-109120000D01*
X126425264Y-109120000D01*
X126506875Y-108849137D01*
X126065861Y-108273736D01*
X125660857Y-108003160D01*
X125390000Y-108094756D01*
X124290000Y-108094756D01*
X124019143Y-108003160D01*
X123614139Y-108273736D01*
X123173125Y-108849137D01*
X122780422Y-108849137D01*
X122383861Y-108331736D01*
X121978857Y-108061160D01*
X121708000Y-108152756D01*
X120608000Y-108152756D01*
X120337143Y-108061160D01*
X119932139Y-108331736D01*
X119491125Y-108907137D01*
X119051010Y-108907137D01*
X121033147Y-106925000D01*
X128190000Y-106925000D01*
X128543983Y-106854589D01*
X128844074Y-106654074D01*
X131994074Y-103504074D01*
X132194589Y-103203982D01*
X132265001Y-102850000D01*
X132265000Y-102849995D01*
X132265000Y-98230575D01*
X132466382Y-98096016D01*
X132802379Y-97593159D01*
X132920366Y-97000000D01*
X132802379Y-96406841D01*
X132466382Y-95903984D01*
X132183546Y-95715000D01*
X132930000Y-95715000D01*
X133283983Y-95644589D01*
X133584074Y-95444074D01*
X134574071Y-94454076D01*
X134574074Y-94454074D01*
X134774589Y-94153982D01*
X134845000Y-93800000D01*
X134845000Y-93220863D01*
X135163125Y-93220863D01*
X135604139Y-93796264D01*
X136009143Y-94066840D01*
X136280000Y-93975244D01*
X136280000Y-92950000D01*
X135244736Y-92950000D01*
X135163125Y-93220863D01*
X134845000Y-93220863D01*
X134845000Y-91579137D01*
X135163125Y-91579137D01*
X135244736Y-91850000D01*
X136280000Y-91850000D01*
X136280000Y-90824756D01*
X136009143Y-90733160D01*
X135604139Y-91003736D01*
X135163125Y-91579137D01*
X134845000Y-91579137D01*
X134845000Y-89420000D01*
X134774589Y-89066018D01*
X134574074Y-88765926D01*
X134574071Y-88765924D01*
X134564693Y-88756546D01*
X134564693Y-87700000D01*
X134512396Y-87422067D01*
X134348138Y-87166802D01*
X134145068Y-87028050D01*
X134245754Y-86877362D01*
X134247627Y-86877491D01*
X134363798Y-86838495D01*
X134483982Y-86814589D01*
X134533417Y-86781557D01*
X134589782Y-86762637D01*
X134682186Y-86682153D01*
X134784074Y-86614074D01*
X134817105Y-86564639D01*
X134861939Y-86525589D01*
X135075960Y-86248621D01*
X135181862Y-86413198D01*
X135432492Y-86584446D01*
X135730000Y-86644693D01*
X137645000Y-86644693D01*
X137645000Y-90735141D01*
X137380000Y-90824756D01*
X137380000Y-91850000D01*
X137645000Y-91850000D01*
X137645000Y-92950000D01*
X137380000Y-92950000D01*
X137380000Y-93975244D01*
X137645000Y-94064859D01*
X137645000Y-94990000D01*
X137715411Y-95343983D01*
X137915926Y-95644074D01*
X139925926Y-97654074D01*
X140156934Y-97808429D01*
X140185208Y-97876857D01*
X140212000Y-97903696D01*
X140212000Y-132484446D01*
X131214446Y-141482000D01*
X59285554Y-141482000D01*
X49452777Y-131649223D01*
X49370073Y-131594375D01*
X49276000Y-131576000D01*
X48764000Y-131576000D01*
X48764000Y-127824079D01*
X53117654Y-127824079D01*
X53421494Y-128559429D01*
X53983612Y-129122529D01*
X54718430Y-129427652D01*
X55514079Y-129428346D01*
X56249429Y-129124506D01*
X56576505Y-128798000D01*
X62712455Y-128798000D01*
X62987051Y-129073076D01*
X63648387Y-129347687D01*
X64364471Y-129348312D01*
X65026286Y-129074855D01*
X65533076Y-128568949D01*
X65807687Y-127907613D01*
X65808312Y-127191529D01*
X65534855Y-126529714D01*
X65028949Y-126022924D01*
X64367613Y-125748313D01*
X63651529Y-125747688D01*
X62989714Y-126021145D01*
X62712375Y-126298000D01*
X56815096Y-126298000D01*
X56814506Y-126296571D01*
X56252388Y-125733471D01*
X55517570Y-125428348D01*
X54721921Y-125427654D01*
X53986571Y-125731494D01*
X53423471Y-126293612D01*
X53118348Y-127028430D01*
X53117654Y-127824079D01*
X48764000Y-127824079D01*
X48764000Y-121178000D01*
X53103307Y-121178000D01*
X53103307Y-123678000D01*
X53155604Y-123955933D01*
X53319862Y-124211198D01*
X53570492Y-124382446D01*
X53868000Y-124442693D01*
X56368000Y-124442693D01*
X56645933Y-124390396D01*
X56901198Y-124226138D01*
X57072446Y-123975508D01*
X57128643Y-123698000D01*
X62712455Y-123698000D01*
X62987051Y-123973076D01*
X63648387Y-124247687D01*
X64364471Y-124248312D01*
X65026286Y-123974855D01*
X65262748Y-123738805D01*
X71978881Y-123738805D01*
X72063983Y-123986846D01*
X72674064Y-124096239D01*
X73224017Y-123986846D01*
X73309119Y-123738805D01*
X72644000Y-123073685D01*
X71978881Y-123738805D01*
X65262748Y-123738805D01*
X65533076Y-123468949D01*
X65807687Y-122807613D01*
X65807922Y-122538064D01*
X71055761Y-122538064D01*
X71165154Y-123088017D01*
X71413195Y-123173119D01*
X72078315Y-122508000D01*
X73209685Y-122508000D01*
X73874805Y-123173119D01*
X74122846Y-123088017D01*
X74232239Y-122477936D01*
X74122846Y-121927983D01*
X73874805Y-121842881D01*
X73209685Y-122508000D01*
X72078315Y-122508000D01*
X71413195Y-121842881D01*
X71165154Y-121927983D01*
X71055761Y-122538064D01*
X65807922Y-122538064D01*
X65808312Y-122091529D01*
X65534855Y-121429714D01*
X65382603Y-121277195D01*
X71978881Y-121277195D01*
X72644000Y-121942315D01*
X73309119Y-121277195D01*
X73224017Y-121029154D01*
X72613936Y-120919761D01*
X72063983Y-121029154D01*
X71978881Y-121277195D01*
X65382603Y-121277195D01*
X65028949Y-120922924D01*
X64367613Y-120648313D01*
X63651529Y-120647688D01*
X62989714Y-120921145D01*
X62712375Y-121198000D01*
X57132693Y-121198000D01*
X57132693Y-121178000D01*
X57080396Y-120900067D01*
X56916138Y-120644802D01*
X56665508Y-120473554D01*
X56368000Y-120413307D01*
X53868000Y-120413307D01*
X53590067Y-120465604D01*
X53334802Y-120629862D01*
X53163554Y-120880492D01*
X53103307Y-121178000D01*
X48764000Y-121178000D01*
X48764000Y-118828246D01*
X63270216Y-118828246D01*
X63394070Y-119086186D01*
X64105978Y-119188815D01*
X64621930Y-119086186D01*
X64745784Y-118828246D01*
X64008000Y-118090462D01*
X63270216Y-118828246D01*
X48764000Y-118828246D01*
X48764000Y-117445978D01*
X62167185Y-117445978D01*
X62269814Y-117961930D01*
X62527754Y-118085784D01*
X63265538Y-117348000D01*
X64750462Y-117348000D01*
X65488246Y-118085784D01*
X65746186Y-117961930D01*
X65848815Y-117250022D01*
X65746186Y-116734070D01*
X65488246Y-116610216D01*
X64750462Y-117348000D01*
X63265538Y-117348000D01*
X62527754Y-116610216D01*
X62269814Y-116734070D01*
X62167185Y-117445978D01*
X48764000Y-117445978D01*
X48764000Y-115867754D01*
X63270216Y-115867754D01*
X64008000Y-116605538D01*
X64745784Y-115867754D01*
X64621930Y-115609814D01*
X63910022Y-115507185D01*
X63394070Y-115609814D01*
X63270216Y-115867754D01*
X48764000Y-115867754D01*
X48764000Y-109522500D01*
X54230000Y-109522500D01*
X54230000Y-110358775D01*
X54345398Y-110637372D01*
X54558627Y-110850601D01*
X54837224Y-110966000D01*
X55673500Y-110966000D01*
X55863000Y-110776500D01*
X55863000Y-109333000D01*
X54419500Y-109333000D01*
X54230000Y-109522500D01*
X48764000Y-109522500D01*
X48764000Y-106557225D01*
X54230000Y-106557225D01*
X54230000Y-107393500D01*
X54419500Y-107583000D01*
X55863000Y-107583000D01*
X55863000Y-106139500D01*
X57613000Y-106139500D01*
X57613000Y-107583000D01*
X59056500Y-107583000D01*
X59246000Y-107393500D01*
X59246000Y-106557225D01*
X59130602Y-106278628D01*
X58917373Y-106065399D01*
X58638776Y-105950000D01*
X57802500Y-105950000D01*
X57613000Y-106139500D01*
X55863000Y-106139500D01*
X55673500Y-105950000D01*
X54837224Y-105950000D01*
X54558627Y-106065399D01*
X54345398Y-106278628D01*
X54230000Y-106557225D01*
X48764000Y-106557225D01*
X48764000Y-71182079D01*
X53117654Y-71182079D01*
X53421494Y-71917429D01*
X53983612Y-72480529D01*
X54630000Y-72748933D01*
X54630000Y-73934839D01*
X54501142Y-74020939D01*
X54078435Y-74653564D01*
X53930000Y-75399797D01*
X53930000Y-75476203D01*
X54078435Y-76222436D01*
X54501142Y-76855061D01*
X55133767Y-77277768D01*
X55880000Y-77426203D01*
X56626233Y-77277768D01*
X57258858Y-76855061D01*
X57681565Y-76222436D01*
X57830000Y-75476203D01*
X57830000Y-75399797D01*
X57681565Y-74653564D01*
X57258858Y-74020939D01*
X57130000Y-73934839D01*
X57130000Y-72130000D01*
X57034849Y-71651646D01*
X57006800Y-71609667D01*
X56966559Y-71549442D01*
X57117652Y-71185570D01*
X57118346Y-70389921D01*
X56919578Y-69908863D01*
X61071125Y-69908863D01*
X61512139Y-70484264D01*
X61917143Y-70754840D01*
X62188000Y-70663244D01*
X62188000Y-69638000D01*
X61152736Y-69638000D01*
X61071125Y-69908863D01*
X56919578Y-69908863D01*
X56814506Y-69654571D01*
X56342308Y-69181548D01*
X65182655Y-69181548D01*
X65906000Y-69904893D01*
X66629345Y-69181548D01*
X66513241Y-68925552D01*
X65821642Y-68821545D01*
X65298759Y-68925552D01*
X65182655Y-69181548D01*
X56342308Y-69181548D01*
X56252388Y-69091471D01*
X55517570Y-68786348D01*
X54721921Y-68785654D01*
X53986571Y-69089494D01*
X53423471Y-69651612D01*
X53118348Y-70386430D01*
X53117654Y-71182079D01*
X48764000Y-71182079D01*
X48764000Y-68267137D01*
X61071125Y-68267137D01*
X61152736Y-68538000D01*
X62188000Y-68538000D01*
X62188000Y-67512756D01*
X63288000Y-67512756D01*
X63288000Y-68538000D01*
X64323264Y-68538000D01*
X64404875Y-68267137D01*
X63963861Y-67691736D01*
X63558857Y-67421160D01*
X63288000Y-67512756D01*
X62188000Y-67512756D01*
X61917143Y-67421160D01*
X61512139Y-67691736D01*
X61071125Y-68267137D01*
X48764000Y-68267137D01*
X48764000Y-63242000D01*
X49022000Y-63242000D01*
X49119264Y-63222304D01*
X49201202Y-63166318D01*
X49254903Y-63082864D01*
X49271905Y-62985093D01*
X49245607Y-62880197D01*
X49018000Y-62424983D01*
X49018000Y-57507554D01*
X59538004Y-46987550D01*
X65944127Y-47083164D01*
G36*
X128255924Y-84074071D02*
X128255926Y-84074074D01*
X128556018Y-84274589D01*
X128910000Y-84345000D01*
X130626852Y-84345000D01*
X130295926Y-84675926D01*
X130095411Y-84976017D01*
X130056030Y-85174000D01*
X130025000Y-85330000D01*
X130025000Y-91890000D01*
X130055316Y-92042410D01*
X130022669Y-92075000D01*
X129050000Y-92075000D01*
X128696017Y-92145411D01*
X128395926Y-92345926D01*
X127899811Y-92842041D01*
X127841126Y-92783357D01*
X127768846Y-92419983D01*
X127520805Y-92334881D01*
X126855685Y-93000000D01*
X127138528Y-93282843D01*
X126572843Y-93848528D01*
X126290000Y-93565685D01*
X125624881Y-94230805D01*
X125709983Y-94478846D01*
X126064677Y-94542446D01*
X126132041Y-94609811D01*
X123369809Y-97372043D01*
X122113883Y-96116117D01*
X121708354Y-95845151D01*
X121705529Y-95844589D01*
X121230000Y-95750000D01*
X119192301Y-95750000D01*
X119129151Y-95686740D01*
X118559667Y-95450270D01*
X117943039Y-95449732D01*
X117373143Y-95685208D01*
X116973106Y-96084546D01*
X116853883Y-95906116D01*
X115142022Y-94194256D01*
X115138198Y-94185000D01*
X123950000Y-94185000D01*
X124303983Y-94114589D01*
X124604074Y-93914074D01*
X124905694Y-93612453D01*
X125059195Y-93665119D01*
X125724315Y-93000000D01*
X125621231Y-92896916D01*
X126034071Y-92484076D01*
X126034074Y-92484074D01*
X126156514Y-92300829D01*
X126290000Y-92434315D01*
X126955119Y-91769195D01*
X126870017Y-91521154D01*
X126515323Y-91457554D01*
X126305000Y-91247230D01*
X126305000Y-89730575D01*
X126506382Y-89596016D01*
X126842379Y-89093159D01*
X126960366Y-88500000D01*
X126842379Y-87906841D01*
X126506382Y-87403984D01*
X126245996Y-87230000D01*
X126506382Y-87056016D01*
X126842379Y-86553159D01*
X126960366Y-85960000D01*
X126842379Y-85366841D01*
X126582565Y-84978000D01*
X126630002Y-84978000D01*
X126630002Y-84312061D01*
X126804665Y-84050631D01*
X126688737Y-83820000D01*
X125780000Y-83820000D01*
X125780000Y-84220000D01*
X124980000Y-84220000D01*
X124980000Y-83820000D01*
X124595000Y-83820000D01*
X124595000Y-83020000D01*
X124980000Y-83020000D01*
X124980000Y-82620000D01*
X125780000Y-82620000D01*
X125780000Y-83020000D01*
X126688737Y-83020000D01*
X126804665Y-82789369D01*
X126630002Y-82527939D01*
X126630002Y-82448150D01*
X128255924Y-84074071D01*
X128255924Y-84074071D01*
G37*
X128255924Y-84074071D02*
X128255926Y-84074074D01*
X128556018Y-84274589D01*
X128910000Y-84345000D01*
X130626852Y-84345000D01*
X130295926Y-84675926D01*
X130095411Y-84976017D01*
X130056030Y-85174000D01*
X130025000Y-85330000D01*
X130025000Y-91890000D01*
X130055316Y-92042410D01*
X130022669Y-92075000D01*
X129050000Y-92075000D01*
X128696017Y-92145411D01*
X128395926Y-92345926D01*
X127899811Y-92842041D01*
X127841126Y-92783357D01*
X127768846Y-92419983D01*
X127520805Y-92334881D01*
X126855685Y-93000000D01*
X127138528Y-93282843D01*
X126572843Y-93848528D01*
X126290000Y-93565685D01*
X125624881Y-94230805D01*
X125709983Y-94478846D01*
X126064677Y-94542446D01*
X126132041Y-94609811D01*
X123369809Y-97372043D01*
X122113883Y-96116117D01*
X121708354Y-95845151D01*
X121705529Y-95844589D01*
X121230000Y-95750000D01*
X119192301Y-95750000D01*
X119129151Y-95686740D01*
X118559667Y-95450270D01*
X117943039Y-95449732D01*
X117373143Y-95685208D01*
X116973106Y-96084546D01*
X116853883Y-95906116D01*
X115142022Y-94194256D01*
X115138198Y-94185000D01*
X123950000Y-94185000D01*
X124303983Y-94114589D01*
X124604074Y-93914074D01*
X124905694Y-93612453D01*
X125059195Y-93665119D01*
X125724315Y-93000000D01*
X125621231Y-92896916D01*
X126034071Y-92484076D01*
X126034074Y-92484074D01*
X126156514Y-92300829D01*
X126290000Y-92434315D01*
X126955119Y-91769195D01*
X126870017Y-91521154D01*
X126515323Y-91457554D01*
X126305000Y-91247230D01*
X126305000Y-89730575D01*
X126506382Y-89596016D01*
X126842379Y-89093159D01*
X126960366Y-88500000D01*
X126842379Y-87906841D01*
X126506382Y-87403984D01*
X126245996Y-87230000D01*
X126506382Y-87056016D01*
X126842379Y-86553159D01*
X126960366Y-85960000D01*
X126842379Y-85366841D01*
X126582565Y-84978000D01*
X126630002Y-84978000D01*
X126630002Y-84312061D01*
X126804665Y-84050631D01*
X126688737Y-83820000D01*
X125780000Y-83820000D01*
X125780000Y-84220000D01*
X124980000Y-84220000D01*
X124980000Y-83820000D01*
X124595000Y-83820000D01*
X124595000Y-83020000D01*
X124980000Y-83020000D01*
X124980000Y-82620000D01*
X125780000Y-82620000D01*
X125780000Y-83020000D01*
X126688737Y-83020000D01*
X126804665Y-82789369D01*
X126630002Y-82527939D01*
X126630002Y-82448150D01*
X128255924Y-84074071D01*
G36*
X120634004Y-76940000D02*
X120373618Y-77113984D01*
X120037621Y-77616841D01*
X119919634Y-78210000D01*
X120037621Y-78803159D01*
X120373618Y-79306016D01*
X120634004Y-79480000D01*
X120373618Y-79653984D01*
X120037621Y-80156841D01*
X119919634Y-80750000D01*
X120037621Y-81343159D01*
X120297435Y-81732000D01*
X120249998Y-81732000D01*
X120249998Y-82397939D01*
X120075335Y-82659369D01*
X120191263Y-82890000D01*
X121100000Y-82890000D01*
X121100000Y-82490000D01*
X121900000Y-82490000D01*
X121900000Y-82890000D01*
X122300000Y-82890000D01*
X122300000Y-83690000D01*
X121900000Y-83690000D01*
X121900000Y-84090000D01*
X121100000Y-84090000D01*
X121100000Y-83690000D01*
X120191263Y-83690000D01*
X120075335Y-83920631D01*
X120249998Y-84182061D01*
X120249998Y-84848000D01*
X120297435Y-84848000D01*
X120037621Y-85236841D01*
X119919634Y-85830000D01*
X120037621Y-86423159D01*
X120373618Y-86926016D01*
X120634004Y-87100000D01*
X120373618Y-87273984D01*
X120037621Y-87776841D01*
X119919634Y-88370000D01*
X120037621Y-88963159D01*
X120356219Y-89439976D01*
X120166802Y-89561862D01*
X119995554Y-89812492D01*
X119935307Y-90110000D01*
X119935307Y-91710000D01*
X119987604Y-91987933D01*
X120151862Y-92243198D01*
X120286219Y-92335000D01*
X114514021Y-92335000D01*
X114775928Y-92160000D01*
X114980000Y-92160000D01*
X115458354Y-92064849D01*
X115863883Y-91793883D01*
X117113884Y-90543883D01*
X117384849Y-90138354D01*
X117390489Y-90110000D01*
X117480000Y-89660000D01*
X117480000Y-79120000D01*
X117384849Y-78641646D01*
X117359744Y-78604074D01*
X117113883Y-78236116D01*
X116203883Y-77326117D01*
X115798354Y-77055151D01*
X115320000Y-76960000D01*
X115130000Y-76960000D01*
X115130000Y-76920000D01*
X120604072Y-76920000D01*
X120634004Y-76940000D01*
X120634004Y-76940000D01*
G37*
X120634004Y-76940000D02*
X120373618Y-77113984D01*
X120037621Y-77616841D01*
X119919634Y-78210000D01*
X120037621Y-78803159D01*
X120373618Y-79306016D01*
X120634004Y-79480000D01*
X120373618Y-79653984D01*
X120037621Y-80156841D01*
X119919634Y-80750000D01*
X120037621Y-81343159D01*
X120297435Y-81732000D01*
X120249998Y-81732000D01*
X120249998Y-82397939D01*
X120075335Y-82659369D01*
X120191263Y-82890000D01*
X121100000Y-82890000D01*
X121100000Y-82490000D01*
X121900000Y-82490000D01*
X121900000Y-82890000D01*
X122300000Y-82890000D01*
X122300000Y-83690000D01*
X121900000Y-83690000D01*
X121900000Y-84090000D01*
X121100000Y-84090000D01*
X121100000Y-83690000D01*
X120191263Y-83690000D01*
X120075335Y-83920631D01*
X120249998Y-84182061D01*
X120249998Y-84848000D01*
X120297435Y-84848000D01*
X120037621Y-85236841D01*
X119919634Y-85830000D01*
X120037621Y-86423159D01*
X120373618Y-86926016D01*
X120634004Y-87100000D01*
X120373618Y-87273984D01*
X120037621Y-87776841D01*
X119919634Y-88370000D01*
X120037621Y-88963159D01*
X120356219Y-89439976D01*
X120166802Y-89561862D01*
X119995554Y-89812492D01*
X119935307Y-90110000D01*
X119935307Y-91710000D01*
X119987604Y-91987933D01*
X120151862Y-92243198D01*
X120286219Y-92335000D01*
X114514021Y-92335000D01*
X114775928Y-92160000D01*
X114980000Y-92160000D01*
X115458354Y-92064849D01*
X115863883Y-91793883D01*
X117113884Y-90543883D01*
X117384849Y-90138354D01*
X117390489Y-90110000D01*
X117480000Y-89660000D01*
X117480000Y-79120000D01*
X117384849Y-78641646D01*
X117359744Y-78604074D01*
X117113883Y-78236116D01*
X116203883Y-77326117D01*
X115798354Y-77055151D01*
X115320000Y-76960000D01*
X115130000Y-76960000D01*
X115130000Y-76920000D01*
X120604072Y-76920000D01*
X120634004Y-76940000D01*
G36*
X73056376Y-72361696D02*
X73214067Y-72361834D01*
X74126117Y-73273884D01*
X74464525Y-73500000D01*
X74531646Y-73544849D01*
X75010000Y-73640000D01*
X75306326Y-73640000D01*
X75359862Y-73723198D01*
X75610492Y-73894446D01*
X75908000Y-73954693D01*
X77027541Y-73954693D01*
X75866117Y-75116117D01*
X75595151Y-75521646D01*
X75500000Y-76000000D01*
X75500000Y-79267998D01*
X75046954Y-79267998D01*
X74798635Y-79093306D01*
X74568000Y-79201693D01*
X74568000Y-80118000D01*
X74968000Y-80118000D01*
X74968000Y-80918000D01*
X74568000Y-80918000D01*
X74568000Y-81318000D01*
X73768000Y-81318000D01*
X73768000Y-80918000D01*
X72859263Y-80918000D01*
X72743335Y-81148631D01*
X72917998Y-81410061D01*
X72917998Y-82076000D01*
X72965435Y-82076000D01*
X72705621Y-82464841D01*
X72587634Y-83058000D01*
X72705621Y-83651159D01*
X73041618Y-84154016D01*
X73302004Y-84328000D01*
X73041618Y-84501984D01*
X72705621Y-85004841D01*
X72587634Y-85598000D01*
X72705621Y-86191159D01*
X73024219Y-86667976D01*
X72834802Y-86789862D01*
X72767747Y-86888000D01*
X70250000Y-86888000D01*
X70250000Y-79887369D01*
X72743335Y-79887369D01*
X72859263Y-80118000D01*
X73768000Y-80118000D01*
X73768000Y-79201693D01*
X73537365Y-79093306D01*
X73040162Y-79443088D01*
X72743335Y-79887369D01*
X70250000Y-79887369D01*
X70250000Y-74148000D01*
X70602000Y-74148000D01*
X71080354Y-74052849D01*
X71485883Y-73781883D01*
X72950171Y-72317596D01*
X73056376Y-72361696D01*
X73056376Y-72361696D01*
G37*
X73056376Y-72361696D02*
X73214067Y-72361834D01*
X74126117Y-73273884D01*
X74464525Y-73500000D01*
X74531646Y-73544849D01*
X75010000Y-73640000D01*
X75306326Y-73640000D01*
X75359862Y-73723198D01*
X75610492Y-73894446D01*
X75908000Y-73954693D01*
X77027541Y-73954693D01*
X75866117Y-75116117D01*
X75595151Y-75521646D01*
X75500000Y-76000000D01*
X75500000Y-79267998D01*
X75046954Y-79267998D01*
X74798635Y-79093306D01*
X74568000Y-79201693D01*
X74568000Y-80118000D01*
X74968000Y-80118000D01*
X74968000Y-80918000D01*
X74568000Y-80918000D01*
X74568000Y-81318000D01*
X73768000Y-81318000D01*
X73768000Y-80918000D01*
X72859263Y-80918000D01*
X72743335Y-81148631D01*
X72917998Y-81410061D01*
X72917998Y-82076000D01*
X72965435Y-82076000D01*
X72705621Y-82464841D01*
X72587634Y-83058000D01*
X72705621Y-83651159D01*
X73041618Y-84154016D01*
X73302004Y-84328000D01*
X73041618Y-84501984D01*
X72705621Y-85004841D01*
X72587634Y-85598000D01*
X72705621Y-86191159D01*
X73024219Y-86667976D01*
X72834802Y-86789862D01*
X72767747Y-86888000D01*
X70250000Y-86888000D01*
X70250000Y-79887369D01*
X72743335Y-79887369D01*
X72859263Y-80118000D01*
X73768000Y-80118000D01*
X73768000Y-79201693D01*
X73537365Y-79093306D01*
X73040162Y-79443088D01*
X72743335Y-79887369D01*
X70250000Y-79887369D01*
X70250000Y-74148000D01*
X70602000Y-74148000D01*
X71080354Y-74052849D01*
X71485883Y-73781883D01*
X72950171Y-72317596D01*
X73056376Y-72361696D01*
G36*
X104394000Y-81556315D02*
X104485315Y-81465000D01*
X104868371Y-81465000D01*
X105242528Y-81839157D01*
X104959685Y-82122000D01*
X105242528Y-82404843D01*
X104952371Y-82695000D01*
X104401315Y-82695000D01*
X104394000Y-82687685D01*
X104386685Y-82695000D01*
X103835629Y-82695000D01*
X103545472Y-82404843D01*
X103828315Y-82122000D01*
X103545472Y-81839157D01*
X103919629Y-81465000D01*
X104302685Y-81465000D01*
X104394000Y-81556315D01*
X104394000Y-81556315D01*
G37*
X104394000Y-81556315D02*
X104485315Y-81465000D01*
X104868371Y-81465000D01*
X105242528Y-81839157D01*
X104959685Y-82122000D01*
X105242528Y-82404843D01*
X104952371Y-82695000D01*
X104401315Y-82695000D01*
X104394000Y-82687685D01*
X104386685Y-82695000D01*
X103835629Y-82695000D01*
X103545472Y-82404843D01*
X103828315Y-82122000D01*
X103545472Y-81839157D01*
X103919629Y-81465000D01*
X104302685Y-81465000D01*
X104394000Y-81556315D01*
G36*
X125780000Y-77940000D02*
X126688737Y-77940000D01*
X126729921Y-77858068D01*
X127865924Y-78994071D01*
X127865926Y-78994074D01*
X128166018Y-79194589D01*
X128520000Y-79265000D01*
X130555000Y-79265000D01*
X130555000Y-81910000D01*
X130625411Y-82263983D01*
X130779772Y-82495000D01*
X129293147Y-82495000D01*
X127024074Y-80225926D01*
X126723983Y-80025411D01*
X126659070Y-80012499D01*
X126582565Y-79898000D01*
X126630002Y-79898000D01*
X126630002Y-79232061D01*
X126804665Y-78970631D01*
X126688737Y-78740000D01*
X125780000Y-78740000D01*
X125780000Y-79140000D01*
X124980000Y-79140000D01*
X124980000Y-78740000D01*
X124595000Y-78740000D01*
X124595000Y-77940000D01*
X124980000Y-77940000D01*
X124980000Y-77540000D01*
X125780000Y-77540000D01*
X125780000Y-77940000D01*
X125780000Y-77940000D01*
G37*
X125780000Y-77940000D02*
X126688737Y-77940000D01*
X126729921Y-77858068D01*
X127865924Y-78994071D01*
X127865926Y-78994074D01*
X128166018Y-79194589D01*
X128520000Y-79265000D01*
X130555000Y-79265000D01*
X130555000Y-81910000D01*
X130625411Y-82263983D01*
X130779772Y-82495000D01*
X129293147Y-82495000D01*
X127024074Y-80225926D01*
X126723983Y-80025411D01*
X126659070Y-80012499D01*
X126582565Y-79898000D01*
X126630002Y-79898000D01*
X126630002Y-79232061D01*
X126804665Y-78970631D01*
X126688737Y-78740000D01*
X125780000Y-78740000D01*
X125780000Y-79140000D01*
X124980000Y-79140000D01*
X124980000Y-78740000D01*
X124595000Y-78740000D01*
X124595000Y-77940000D01*
X124980000Y-77940000D01*
X124980000Y-77540000D01*
X125780000Y-77540000D01*
X125780000Y-77940000D01*
G36*
X102963614Y-81312802D02*
X102390323Y-81886093D01*
X102503733Y-81999503D01*
X102280000Y-81955000D01*
X99670000Y-81955000D01*
X99670000Y-81285000D01*
X102922006Y-81285000D01*
X102963614Y-81312802D01*
X102963614Y-81312802D01*
G37*
X102963614Y-81312802D02*
X102390323Y-81886093D01*
X102503733Y-81999503D01*
X102280000Y-81955000D01*
X99670000Y-81955000D01*
X99670000Y-81285000D01*
X102922006Y-81285000D01*
X102963614Y-81312802D01*
G36*
X114280000Y-80350000D02*
X114680000Y-80350000D01*
X114680000Y-81150000D01*
X114280000Y-81150000D01*
X114280000Y-81550000D01*
X113480000Y-81550000D01*
X113480000Y-81150000D01*
X113080000Y-81150000D01*
X113080000Y-80350000D01*
X113480000Y-80350000D01*
X113480000Y-79950000D01*
X114280000Y-79950000D01*
X114280000Y-80350000D01*
X114280000Y-80350000D01*
G37*
X114280000Y-80350000D02*
X114680000Y-80350000D01*
X114680000Y-81150000D01*
X114280000Y-81150000D01*
X114280000Y-81550000D01*
X113480000Y-81550000D01*
X113480000Y-81150000D01*
X113080000Y-81150000D01*
X113080000Y-80350000D01*
X113480000Y-80350000D01*
X113480000Y-79950000D01*
X114280000Y-79950000D01*
X114280000Y-80350000D01*
G36*
X118220000Y-69650366D02*
X118247297Y-69644936D01*
X115438000Y-72454234D01*
X115438000Y-71879998D01*
X114758954Y-71879998D01*
X114510635Y-71705306D01*
X114280000Y-71813693D01*
X114280000Y-72730000D01*
X114680000Y-72730000D01*
X114680000Y-73530000D01*
X114280000Y-73530000D01*
X114280000Y-73930000D01*
X113480000Y-73930000D01*
X113480000Y-73530000D01*
X112571263Y-73530000D01*
X112455335Y-73760631D01*
X112629998Y-74022061D01*
X112629998Y-74688000D01*
X112677435Y-74688000D01*
X112417621Y-75076841D01*
X112299634Y-75670000D01*
X112417621Y-76263159D01*
X112630000Y-76581008D01*
X112630000Y-77298992D01*
X112417621Y-77616841D01*
X112299634Y-78210000D01*
X112417621Y-78803159D01*
X112677435Y-79192000D01*
X112629998Y-79192000D01*
X112629998Y-79499998D01*
X112322000Y-79499998D01*
X112322000Y-79883852D01*
X111254074Y-78815926D01*
X110953983Y-78615411D01*
X110669900Y-78558904D01*
X110522717Y-78338629D01*
X110003639Y-77991793D01*
X109391346Y-77870000D01*
X109328654Y-77870000D01*
X108716361Y-77991793D01*
X108197283Y-78338629D01*
X108059391Y-78545000D01*
X107420005Y-78545000D01*
X107420000Y-78544999D01*
X107069678Y-78614683D01*
X107066018Y-78615411D01*
X106765926Y-78815926D01*
X106765924Y-78815929D01*
X105966852Y-79615000D01*
X103777994Y-79615000D01*
X103613983Y-79505411D01*
X103260000Y-79435000D01*
X101977763Y-79435000D01*
X102050366Y-79070000D01*
X101983730Y-78735000D01*
X102400000Y-78735000D01*
X102753983Y-78664589D01*
X103054074Y-78464074D01*
X104313148Y-77205000D01*
X108290000Y-77205000D01*
X108643983Y-77134589D01*
X108944074Y-76934074D01*
X111964074Y-73914074D01*
X112164589Y-73613983D01*
X112235000Y-73260000D01*
X112235000Y-72499369D01*
X112455335Y-72499369D01*
X112571263Y-72730000D01*
X113480000Y-72730000D01*
X113480000Y-71813693D01*
X113249365Y-71705306D01*
X112752162Y-72055088D01*
X112455335Y-72499369D01*
X112235000Y-72499369D01*
X112235000Y-71633148D01*
X112423148Y-71445000D01*
X114690000Y-71445000D01*
X115043983Y-71374589D01*
X115344074Y-71174074D01*
X115803148Y-70715000D01*
X116500000Y-70715000D01*
X116853983Y-70644589D01*
X117154074Y-70444074D01*
X117992946Y-69605202D01*
X118220000Y-69650366D01*
X118220000Y-69650366D01*
G37*
X118220000Y-69650366D02*
X118247297Y-69644936D01*
X115438000Y-72454234D01*
X115438000Y-71879998D01*
X114758954Y-71879998D01*
X114510635Y-71705306D01*
X114280000Y-71813693D01*
X114280000Y-72730000D01*
X114680000Y-72730000D01*
X114680000Y-73530000D01*
X114280000Y-73530000D01*
X114280000Y-73930000D01*
X113480000Y-73930000D01*
X113480000Y-73530000D01*
X112571263Y-73530000D01*
X112455335Y-73760631D01*
X112629998Y-74022061D01*
X112629998Y-74688000D01*
X112677435Y-74688000D01*
X112417621Y-75076841D01*
X112299634Y-75670000D01*
X112417621Y-76263159D01*
X112630000Y-76581008D01*
X112630000Y-77298992D01*
X112417621Y-77616841D01*
X112299634Y-78210000D01*
X112417621Y-78803159D01*
X112677435Y-79192000D01*
X112629998Y-79192000D01*
X112629998Y-79499998D01*
X112322000Y-79499998D01*
X112322000Y-79883852D01*
X111254074Y-78815926D01*
X110953983Y-78615411D01*
X110669900Y-78558904D01*
X110522717Y-78338629D01*
X110003639Y-77991793D01*
X109391346Y-77870000D01*
X109328654Y-77870000D01*
X108716361Y-77991793D01*
X108197283Y-78338629D01*
X108059391Y-78545000D01*
X107420005Y-78545000D01*
X107420000Y-78544999D01*
X107069678Y-78614683D01*
X107066018Y-78615411D01*
X106765926Y-78815926D01*
X106765924Y-78815929D01*
X105966852Y-79615000D01*
X103777994Y-79615000D01*
X103613983Y-79505411D01*
X103260000Y-79435000D01*
X101977763Y-79435000D01*
X102050366Y-79070000D01*
X101983730Y-78735000D01*
X102400000Y-78735000D01*
X102753983Y-78664589D01*
X103054074Y-78464074D01*
X104313148Y-77205000D01*
X108290000Y-77205000D01*
X108643983Y-77134589D01*
X108944074Y-76934074D01*
X111964074Y-73914074D01*
X112164589Y-73613983D01*
X112235000Y-73260000D01*
X112235000Y-72499369D01*
X112455335Y-72499369D01*
X112571263Y-72730000D01*
X113480000Y-72730000D01*
X113480000Y-71813693D01*
X113249365Y-71705306D01*
X112752162Y-72055088D01*
X112455335Y-72499369D01*
X112235000Y-72499369D01*
X112235000Y-71633148D01*
X112423148Y-71445000D01*
X114690000Y-71445000D01*
X115043983Y-71374589D01*
X115344074Y-71174074D01*
X115803148Y-70715000D01*
X116500000Y-70715000D01*
X116853983Y-70644589D01*
X117154074Y-70444074D01*
X117992946Y-69605202D01*
X118220000Y-69650366D01*
G36*
X81240922Y-70888689D02*
X81127983Y-70911154D01*
X81042881Y-71159195D01*
X81708000Y-71824315D01*
X81990843Y-71541472D01*
X82556528Y-72107157D01*
X82273685Y-72390000D01*
X82938805Y-73055119D01*
X83186846Y-72970017D01*
X83250446Y-72615323D01*
X83711677Y-72154093D01*
X83097584Y-71540000D01*
X83342234Y-71540000D01*
X83856117Y-72053884D01*
X84170754Y-72264117D01*
X84261646Y-72324849D01*
X84740000Y-72420000D01*
X99152234Y-72420000D01*
X99220000Y-72487767D01*
X99220000Y-73078992D01*
X99007621Y-73396841D01*
X98889634Y-73990000D01*
X98960248Y-74345000D01*
X95493148Y-74345000D01*
X94484074Y-73335926D01*
X94414693Y-73289567D01*
X94414693Y-73190000D01*
X94362396Y-72912067D01*
X94198138Y-72656802D01*
X93947508Y-72485554D01*
X93650000Y-72425307D01*
X92050000Y-72425307D01*
X91772067Y-72477604D01*
X91516802Y-72641862D01*
X91345554Y-72892492D01*
X91285307Y-73190000D01*
X91285307Y-74790000D01*
X91337604Y-75067933D01*
X91501862Y-75323198D01*
X91704932Y-75461950D01*
X91609349Y-75605000D01*
X91543147Y-75605000D01*
X90384693Y-74446545D01*
X90384693Y-74020000D01*
X90332396Y-73742067D01*
X90168138Y-73486802D01*
X89917508Y-73315554D01*
X89620000Y-73255307D01*
X87920000Y-73255307D01*
X87642067Y-73307604D01*
X87386802Y-73471862D01*
X87215554Y-73722492D01*
X87155307Y-74020000D01*
X87155307Y-75176545D01*
X86515926Y-75815926D01*
X86315411Y-76116017D01*
X86257745Y-76405926D01*
X86245000Y-76470000D01*
X86245000Y-77236852D01*
X84784074Y-75775926D01*
X84483983Y-75575411D01*
X84130000Y-75505000D01*
X80200000Y-75505000D01*
X79846017Y-75575411D01*
X79545926Y-75775926D01*
X78639654Y-76682198D01*
X78486000Y-76651634D01*
X78000000Y-76748306D01*
X78000000Y-76517766D01*
X80133884Y-74383883D01*
X80404849Y-73978354D01*
X80409555Y-73954693D01*
X80475970Y-73620805D01*
X81042881Y-73620805D01*
X81127983Y-73868846D01*
X81738064Y-73978239D01*
X82288017Y-73868846D01*
X82373119Y-73620805D01*
X81708000Y-72955685D01*
X81042881Y-73620805D01*
X80475970Y-73620805D01*
X80500000Y-73500000D01*
X80500000Y-73032314D01*
X81142315Y-72390000D01*
X80500000Y-71747686D01*
X80500000Y-70817221D01*
X81162553Y-70810320D01*
X81240922Y-70888689D01*
X81240922Y-70888689D01*
G37*
X81240922Y-70888689D02*
X81127983Y-70911154D01*
X81042881Y-71159195D01*
X81708000Y-71824315D01*
X81990843Y-71541472D01*
X82556528Y-72107157D01*
X82273685Y-72390000D01*
X82938805Y-73055119D01*
X83186846Y-72970017D01*
X83250446Y-72615323D01*
X83711677Y-72154093D01*
X83097584Y-71540000D01*
X83342234Y-71540000D01*
X83856117Y-72053884D01*
X84170754Y-72264117D01*
X84261646Y-72324849D01*
X84740000Y-72420000D01*
X99152234Y-72420000D01*
X99220000Y-72487767D01*
X99220000Y-73078992D01*
X99007621Y-73396841D01*
X98889634Y-73990000D01*
X98960248Y-74345000D01*
X95493148Y-74345000D01*
X94484074Y-73335926D01*
X94414693Y-73289567D01*
X94414693Y-73190000D01*
X94362396Y-72912067D01*
X94198138Y-72656802D01*
X93947508Y-72485554D01*
X93650000Y-72425307D01*
X92050000Y-72425307D01*
X91772067Y-72477604D01*
X91516802Y-72641862D01*
X91345554Y-72892492D01*
X91285307Y-73190000D01*
X91285307Y-74790000D01*
X91337604Y-75067933D01*
X91501862Y-75323198D01*
X91704932Y-75461950D01*
X91609349Y-75605000D01*
X91543147Y-75605000D01*
X90384693Y-74446545D01*
X90384693Y-74020000D01*
X90332396Y-73742067D01*
X90168138Y-73486802D01*
X89917508Y-73315554D01*
X89620000Y-73255307D01*
X87920000Y-73255307D01*
X87642067Y-73307604D01*
X87386802Y-73471862D01*
X87215554Y-73722492D01*
X87155307Y-74020000D01*
X87155307Y-75176545D01*
X86515926Y-75815926D01*
X86315411Y-76116017D01*
X86257745Y-76405926D01*
X86245000Y-76470000D01*
X86245000Y-77236852D01*
X84784074Y-75775926D01*
X84483983Y-75575411D01*
X84130000Y-75505000D01*
X80200000Y-75505000D01*
X79846017Y-75575411D01*
X79545926Y-75775926D01*
X78639654Y-76682198D01*
X78486000Y-76651634D01*
X78000000Y-76748306D01*
X78000000Y-76517766D01*
X80133884Y-74383883D01*
X80404849Y-73978354D01*
X80409555Y-73954693D01*
X80475970Y-73620805D01*
X81042881Y-73620805D01*
X81127983Y-73868846D01*
X81738064Y-73978239D01*
X82288017Y-73868846D01*
X82373119Y-73620805D01*
X81708000Y-72955685D01*
X81042881Y-73620805D01*
X80475970Y-73620805D01*
X80500000Y-73500000D01*
X80500000Y-73032314D01*
X81142315Y-72390000D01*
X80500000Y-71747686D01*
X80500000Y-70817221D01*
X81162553Y-70810320D01*
X81240922Y-70888689D01*
G36*
X94455926Y-75924074D02*
X94756018Y-76124589D01*
X95110000Y-76195000D01*
X102706852Y-76195000D01*
X102016852Y-76885000D01*
X94933148Y-76885000D01*
X94393671Y-76345523D01*
X94312379Y-75936841D01*
X93997618Y-75465766D01*
X94455926Y-75924074D01*
X94455926Y-75924074D01*
G37*
X94455926Y-75924074D02*
X94756018Y-76124589D01*
X95110000Y-76195000D01*
X102706852Y-76195000D01*
X102016852Y-76885000D01*
X94933148Y-76885000D01*
X94393671Y-76345523D01*
X94312379Y-75936841D01*
X93997618Y-75465766D01*
X94455926Y-75924074D01*
G36*
X127473371Y-51507112D02*
X127168248Y-52241930D01*
X127167554Y-53037579D01*
X127471394Y-53772929D01*
X128033512Y-54336029D01*
X128768330Y-54641152D01*
X129563979Y-54641846D01*
X129773518Y-54555266D01*
X130445000Y-55226748D01*
X130445000Y-62893267D01*
X130056740Y-63280849D01*
X129820270Y-63850333D01*
X129819732Y-64466961D01*
X130055208Y-65036857D01*
X130490849Y-65473260D01*
X131060333Y-65709730D01*
X131676961Y-65710268D01*
X132246857Y-65474792D01*
X132346838Y-65374986D01*
X132695000Y-65723148D01*
X132695000Y-68425232D01*
X132460805Y-68344881D01*
X131795685Y-69010000D01*
X132460805Y-69675119D01*
X132695000Y-69594768D01*
X132695000Y-71764628D01*
X132376475Y-71827987D01*
X131873618Y-72163984D01*
X131537621Y-72666841D01*
X131419634Y-73260000D01*
X131537621Y-73853159D01*
X131873618Y-74356016D01*
X132134004Y-74530000D01*
X131873618Y-74703984D01*
X131537621Y-75206841D01*
X131419634Y-75800000D01*
X131486270Y-76135000D01*
X130973147Y-76135000D01*
X127444074Y-72605926D01*
X127143983Y-72405411D01*
X126790000Y-72335000D01*
X126620651Y-72335000D01*
X126506382Y-72163984D01*
X126003525Y-71827987D01*
X125410366Y-71710000D01*
X125349634Y-71710000D01*
X124756475Y-71827987D01*
X124595000Y-71935881D01*
X124595000Y-69070005D01*
X124595001Y-69070000D01*
X124524589Y-68716018D01*
X124509560Y-68693525D01*
X124324074Y-68415926D01*
X124324071Y-68415924D01*
X123745000Y-67836852D01*
X123745000Y-67113148D01*
X124871544Y-68239692D01*
X124680270Y-68700333D01*
X124679732Y-69316961D01*
X124915208Y-69886857D01*
X125350849Y-70323260D01*
X125920333Y-70559730D01*
X126536961Y-70560268D01*
X127106857Y-70324792D01*
X127190990Y-70240805D01*
X130564881Y-70240805D01*
X130649983Y-70488846D01*
X131260064Y-70598239D01*
X131810017Y-70488846D01*
X131895119Y-70240805D01*
X131230000Y-69575685D01*
X130564881Y-70240805D01*
X127190990Y-70240805D01*
X127543260Y-69889151D01*
X127779730Y-69319667D01*
X127779973Y-69040064D01*
X129641761Y-69040064D01*
X129751154Y-69590017D01*
X129999195Y-69675119D01*
X130664315Y-69010000D01*
X129999195Y-68344881D01*
X129751154Y-68429983D01*
X129641761Y-69040064D01*
X127779973Y-69040064D01*
X127780268Y-68703039D01*
X127544792Y-68133143D01*
X127191463Y-67779195D01*
X130564881Y-67779195D01*
X131230000Y-68444315D01*
X131895119Y-67779195D01*
X131810017Y-67531154D01*
X131199936Y-67421761D01*
X130649983Y-67531154D01*
X130564881Y-67779195D01*
X127191463Y-67779195D01*
X127109151Y-67696740D01*
X126828246Y-67580098D01*
X124925000Y-65676852D01*
X124925000Y-65390805D01*
X125704881Y-65390805D01*
X125789983Y-65638846D01*
X126400064Y-65748239D01*
X126950017Y-65638846D01*
X127035119Y-65390805D01*
X126370000Y-64725685D01*
X125704881Y-65390805D01*
X124925000Y-65390805D01*
X124925000Y-64751629D01*
X125139195Y-64825119D01*
X125804315Y-64160000D01*
X126935685Y-64160000D01*
X127600805Y-64825119D01*
X127848846Y-64740017D01*
X127958239Y-64129936D01*
X127848846Y-63579983D01*
X127600805Y-63494881D01*
X126935685Y-64160000D01*
X125804315Y-64160000D01*
X125139195Y-63494881D01*
X124925000Y-63568371D01*
X124925000Y-62929195D01*
X125704881Y-62929195D01*
X126370000Y-63594315D01*
X127035119Y-62929195D01*
X126950017Y-62681154D01*
X126339936Y-62571761D01*
X125789983Y-62681154D01*
X125704881Y-62929195D01*
X124925000Y-62929195D01*
X124925000Y-54492675D01*
X125299329Y-54338006D01*
X125862429Y-53775888D01*
X126167552Y-53041070D01*
X126168246Y-52245421D01*
X126081666Y-52035882D01*
X127012548Y-51105000D01*
X127876185Y-51105000D01*
X127473371Y-51507112D01*
X127473371Y-51507112D01*
G37*
X127473371Y-51507112D02*
X127168248Y-52241930D01*
X127167554Y-53037579D01*
X127471394Y-53772929D01*
X128033512Y-54336029D01*
X128768330Y-54641152D01*
X129563979Y-54641846D01*
X129773518Y-54555266D01*
X130445000Y-55226748D01*
X130445000Y-62893267D01*
X130056740Y-63280849D01*
X129820270Y-63850333D01*
X129819732Y-64466961D01*
X130055208Y-65036857D01*
X130490849Y-65473260D01*
X131060333Y-65709730D01*
X131676961Y-65710268D01*
X132246857Y-65474792D01*
X132346838Y-65374986D01*
X132695000Y-65723148D01*
X132695000Y-68425232D01*
X132460805Y-68344881D01*
X131795685Y-69010000D01*
X132460805Y-69675119D01*
X132695000Y-69594768D01*
X132695000Y-71764628D01*
X132376475Y-71827987D01*
X131873618Y-72163984D01*
X131537621Y-72666841D01*
X131419634Y-73260000D01*
X131537621Y-73853159D01*
X131873618Y-74356016D01*
X132134004Y-74530000D01*
X131873618Y-74703984D01*
X131537621Y-75206841D01*
X131419634Y-75800000D01*
X131486270Y-76135000D01*
X130973147Y-76135000D01*
X127444074Y-72605926D01*
X127143983Y-72405411D01*
X126790000Y-72335000D01*
X126620651Y-72335000D01*
X126506382Y-72163984D01*
X126003525Y-71827987D01*
X125410366Y-71710000D01*
X125349634Y-71710000D01*
X124756475Y-71827987D01*
X124595000Y-71935881D01*
X124595000Y-69070005D01*
X124595001Y-69070000D01*
X124524589Y-68716018D01*
X124509560Y-68693525D01*
X124324074Y-68415926D01*
X124324071Y-68415924D01*
X123745000Y-67836852D01*
X123745000Y-67113148D01*
X124871544Y-68239692D01*
X124680270Y-68700333D01*
X124679732Y-69316961D01*
X124915208Y-69886857D01*
X125350849Y-70323260D01*
X125920333Y-70559730D01*
X126536961Y-70560268D01*
X127106857Y-70324792D01*
X127190990Y-70240805D01*
X130564881Y-70240805D01*
X130649983Y-70488846D01*
X131260064Y-70598239D01*
X131810017Y-70488846D01*
X131895119Y-70240805D01*
X131230000Y-69575685D01*
X130564881Y-70240805D01*
X127190990Y-70240805D01*
X127543260Y-69889151D01*
X127779730Y-69319667D01*
X127779973Y-69040064D01*
X129641761Y-69040064D01*
X129751154Y-69590017D01*
X129999195Y-69675119D01*
X130664315Y-69010000D01*
X129999195Y-68344881D01*
X129751154Y-68429983D01*
X129641761Y-69040064D01*
X127779973Y-69040064D01*
X127780268Y-68703039D01*
X127544792Y-68133143D01*
X127191463Y-67779195D01*
X130564881Y-67779195D01*
X131230000Y-68444315D01*
X131895119Y-67779195D01*
X131810017Y-67531154D01*
X131199936Y-67421761D01*
X130649983Y-67531154D01*
X130564881Y-67779195D01*
X127191463Y-67779195D01*
X127109151Y-67696740D01*
X126828246Y-67580098D01*
X124925000Y-65676852D01*
X124925000Y-65390805D01*
X125704881Y-65390805D01*
X125789983Y-65638846D01*
X126400064Y-65748239D01*
X126950017Y-65638846D01*
X127035119Y-65390805D01*
X126370000Y-64725685D01*
X125704881Y-65390805D01*
X124925000Y-65390805D01*
X124925000Y-64751629D01*
X125139195Y-64825119D01*
X125804315Y-64160000D01*
X126935685Y-64160000D01*
X127600805Y-64825119D01*
X127848846Y-64740017D01*
X127958239Y-64129936D01*
X127848846Y-63579983D01*
X127600805Y-63494881D01*
X126935685Y-64160000D01*
X125804315Y-64160000D01*
X125139195Y-63494881D01*
X124925000Y-63568371D01*
X124925000Y-62929195D01*
X125704881Y-62929195D01*
X126370000Y-63594315D01*
X127035119Y-62929195D01*
X126950017Y-62681154D01*
X126339936Y-62571761D01*
X125789983Y-62681154D01*
X125704881Y-62929195D01*
X124925000Y-62929195D01*
X124925000Y-54492675D01*
X125299329Y-54338006D01*
X125862429Y-53775888D01*
X126167552Y-53041070D01*
X126168246Y-52245421D01*
X126081666Y-52035882D01*
X127012548Y-51105000D01*
X127876185Y-51105000D01*
X127473371Y-51507112D01*
G36*
X122745000Y-69453147D02*
X122745000Y-71879998D01*
X122378954Y-71879998D01*
X122130635Y-71705306D01*
X121900000Y-71813693D01*
X121900000Y-72730000D01*
X122300000Y-72730000D01*
X122300000Y-73530000D01*
X121900000Y-73530000D01*
X121900000Y-73930000D01*
X121100000Y-73930000D01*
X121100000Y-73530000D01*
X120191263Y-73530000D01*
X120075335Y-73760631D01*
X120249998Y-74022061D01*
X120249998Y-74420000D01*
X117420000Y-74420000D01*
X117420000Y-74007766D01*
X118928397Y-72499369D01*
X120075335Y-72499369D01*
X120191263Y-72730000D01*
X121100000Y-72730000D01*
X121100000Y-71813693D01*
X120869365Y-71705306D01*
X120372162Y-72055088D01*
X120075335Y-72499369D01*
X118928397Y-72499369D01*
X121923883Y-69503884D01*
X122194849Y-69098354D01*
X122225537Y-68944074D01*
X122227261Y-68935409D01*
X122745000Y-69453147D01*
X122745000Y-69453147D01*
G37*
X122745000Y-69453147D02*
X122745000Y-71879998D01*
X122378954Y-71879998D01*
X122130635Y-71705306D01*
X121900000Y-71813693D01*
X121900000Y-72730000D01*
X122300000Y-72730000D01*
X122300000Y-73530000D01*
X121900000Y-73530000D01*
X121900000Y-73930000D01*
X121100000Y-73930000D01*
X121100000Y-73530000D01*
X120191263Y-73530000D01*
X120075335Y-73760631D01*
X120249998Y-74022061D01*
X120249998Y-74420000D01*
X117420000Y-74420000D01*
X117420000Y-74007766D01*
X118928397Y-72499369D01*
X120075335Y-72499369D01*
X120191263Y-72730000D01*
X121100000Y-72730000D01*
X121100000Y-71813693D01*
X120869365Y-71705306D01*
X120372162Y-72055088D01*
X120075335Y-72499369D01*
X118928397Y-72499369D01*
X121923883Y-69503884D01*
X122194849Y-69098354D01*
X122225537Y-68944074D01*
X122227261Y-68935409D01*
X122745000Y-69453147D01*
G36*
X110865926Y-66445926D02*
X110754393Y-66612847D01*
X110423984Y-66833618D01*
X110087987Y-67336475D01*
X109970000Y-67929634D01*
X109970000Y-67990366D01*
X110087987Y-68583525D01*
X110423984Y-69086382D01*
X110464478Y-69113439D01*
X110385926Y-69165926D01*
X109595926Y-69955926D01*
X109395411Y-70256017D01*
X109350010Y-70484264D01*
X109325000Y-70610000D01*
X109325000Y-72576852D01*
X107556852Y-74345000D01*
X101979752Y-74345000D01*
X102050366Y-73990000D01*
X101932379Y-73396841D01*
X101720000Y-73078992D01*
X101720000Y-72487766D01*
X102857577Y-71350190D01*
X102946961Y-71350268D01*
X103516857Y-71114792D01*
X103600990Y-71030805D01*
X106974881Y-71030805D01*
X107059983Y-71278846D01*
X107670064Y-71388239D01*
X108220017Y-71278846D01*
X108305119Y-71030805D01*
X107640000Y-70365685D01*
X106974881Y-71030805D01*
X103600990Y-71030805D01*
X103953260Y-70679151D01*
X104189730Y-70109667D01*
X104189973Y-69830064D01*
X106051761Y-69830064D01*
X106161154Y-70380017D01*
X106409195Y-70465119D01*
X107074315Y-69800000D01*
X108205685Y-69800000D01*
X108870805Y-70465119D01*
X109118846Y-70380017D01*
X109228239Y-69769936D01*
X109118846Y-69219983D01*
X108870805Y-69134881D01*
X108205685Y-69800000D01*
X107074315Y-69800000D01*
X106409195Y-69134881D01*
X106161154Y-69219983D01*
X106051761Y-69830064D01*
X104189973Y-69830064D01*
X104190268Y-69493039D01*
X104153562Y-69404204D01*
X104988571Y-68569195D01*
X106974881Y-68569195D01*
X107640000Y-69234315D01*
X108305119Y-68569195D01*
X108220017Y-68321154D01*
X107609936Y-68211761D01*
X107059983Y-68321154D01*
X106974881Y-68569195D01*
X104988571Y-68569195D01*
X107837767Y-65720000D01*
X111591853Y-65720000D01*
X110865926Y-66445926D01*
X110865926Y-66445926D01*
G37*
X110865926Y-66445926D02*
X110754393Y-66612847D01*
X110423984Y-66833618D01*
X110087987Y-67336475D01*
X109970000Y-67929634D01*
X109970000Y-67990366D01*
X110087987Y-68583525D01*
X110423984Y-69086382D01*
X110464478Y-69113439D01*
X110385926Y-69165926D01*
X109595926Y-69955926D01*
X109395411Y-70256017D01*
X109350010Y-70484264D01*
X109325000Y-70610000D01*
X109325000Y-72576852D01*
X107556852Y-74345000D01*
X101979752Y-74345000D01*
X102050366Y-73990000D01*
X101932379Y-73396841D01*
X101720000Y-73078992D01*
X101720000Y-72487766D01*
X102857577Y-71350190D01*
X102946961Y-71350268D01*
X103516857Y-71114792D01*
X103600990Y-71030805D01*
X106974881Y-71030805D01*
X107059983Y-71278846D01*
X107670064Y-71388239D01*
X108220017Y-71278846D01*
X108305119Y-71030805D01*
X107640000Y-70365685D01*
X106974881Y-71030805D01*
X103600990Y-71030805D01*
X103953260Y-70679151D01*
X104189730Y-70109667D01*
X104189973Y-69830064D01*
X106051761Y-69830064D01*
X106161154Y-70380017D01*
X106409195Y-70465119D01*
X107074315Y-69800000D01*
X108205685Y-69800000D01*
X108870805Y-70465119D01*
X109118846Y-70380017D01*
X109228239Y-69769936D01*
X109118846Y-69219983D01*
X108870805Y-69134881D01*
X108205685Y-69800000D01*
X107074315Y-69800000D01*
X106409195Y-69134881D01*
X106161154Y-69219983D01*
X106051761Y-69830064D01*
X104189973Y-69830064D01*
X104190268Y-69493039D01*
X104153562Y-69404204D01*
X104988571Y-68569195D01*
X106974881Y-68569195D01*
X107640000Y-69234315D01*
X108305119Y-68569195D01*
X108220017Y-68321154D01*
X107609936Y-68211761D01*
X107059983Y-68321154D01*
X106974881Y-68569195D01*
X104988571Y-68569195D01*
X107837767Y-65720000D01*
X111591853Y-65720000D01*
X110865926Y-66445926D01*
G36*
X73367263Y-57512000D02*
X74276000Y-57512000D01*
X74276000Y-57300000D01*
X75076000Y-57300000D01*
X75076000Y-57512000D01*
X75476000Y-57512000D01*
X75476000Y-58312000D01*
X75076000Y-58312000D01*
X75076000Y-58712000D01*
X74276000Y-58712000D01*
X74276000Y-58312000D01*
X73367263Y-58312000D01*
X73251335Y-58542631D01*
X73425998Y-58804061D01*
X73425998Y-59470000D01*
X73473435Y-59470000D01*
X73213621Y-59858841D01*
X73095634Y-60452000D01*
X73213621Y-61045159D01*
X73549618Y-61548016D01*
X73810004Y-61722000D01*
X73549618Y-61895984D01*
X73213621Y-62398841D01*
X73095634Y-62992000D01*
X73213621Y-63585159D01*
X73532219Y-64061976D01*
X73342802Y-64183862D01*
X73171554Y-64434492D01*
X73111307Y-64732000D01*
X73111307Y-65328927D01*
X72522117Y-65918117D01*
X72251151Y-66323646D01*
X72156000Y-66802000D01*
X72156000Y-69387103D01*
X71923287Y-69619410D01*
X71788699Y-69943534D01*
X70084234Y-71648000D01*
X70000000Y-71648000D01*
X70000000Y-67000000D01*
X69904849Y-66521646D01*
X69875922Y-66478354D01*
X69633884Y-66116117D01*
X69392766Y-65875000D01*
X69633883Y-65633883D01*
X69904849Y-65228354D01*
X69915462Y-65174999D01*
X70000000Y-64750000D01*
X70000000Y-57300000D01*
X73260700Y-57300000D01*
X73367263Y-57512000D01*
X73367263Y-57512000D01*
G37*
X73367263Y-57512000D02*
X74276000Y-57512000D01*
X74276000Y-57300000D01*
X75076000Y-57300000D01*
X75076000Y-57512000D01*
X75476000Y-57512000D01*
X75476000Y-58312000D01*
X75076000Y-58312000D01*
X75076000Y-58712000D01*
X74276000Y-58712000D01*
X74276000Y-58312000D01*
X73367263Y-58312000D01*
X73251335Y-58542631D01*
X73425998Y-58804061D01*
X73425998Y-59470000D01*
X73473435Y-59470000D01*
X73213621Y-59858841D01*
X73095634Y-60452000D01*
X73213621Y-61045159D01*
X73549618Y-61548016D01*
X73810004Y-61722000D01*
X73549618Y-61895984D01*
X73213621Y-62398841D01*
X73095634Y-62992000D01*
X73213621Y-63585159D01*
X73532219Y-64061976D01*
X73342802Y-64183862D01*
X73171554Y-64434492D01*
X73111307Y-64732000D01*
X73111307Y-65328927D01*
X72522117Y-65918117D01*
X72251151Y-66323646D01*
X72156000Y-66802000D01*
X72156000Y-69387103D01*
X71923287Y-69619410D01*
X71788699Y-69943534D01*
X70084234Y-71648000D01*
X70000000Y-71648000D01*
X70000000Y-67000000D01*
X69904849Y-66521646D01*
X69875922Y-66478354D01*
X69633884Y-66116117D01*
X69392766Y-65875000D01*
X69633883Y-65633883D01*
X69904849Y-65228354D01*
X69915462Y-65174999D01*
X70000000Y-64750000D01*
X70000000Y-57300000D01*
X73260700Y-57300000D01*
X73367263Y-57512000D01*
G36*
X104875924Y-61674071D02*
X104875926Y-61674074D01*
X105119988Y-61837151D01*
X105176018Y-61874589D01*
X105530000Y-61945001D01*
X105530005Y-61945000D01*
X105835416Y-61945000D01*
X105456323Y-62324093D01*
X105908874Y-62776643D01*
X105981154Y-63140017D01*
X106229195Y-63225119D01*
X106894315Y-62560000D01*
X106611472Y-62277157D01*
X106943629Y-61945000D01*
X107410685Y-61945000D01*
X107460000Y-61994315D01*
X107509315Y-61945000D01*
X107976371Y-61945000D01*
X108308528Y-62277157D01*
X108025685Y-62560000D01*
X108308528Y-62842843D01*
X107931371Y-63220000D01*
X107554315Y-63220000D01*
X107460000Y-63125685D01*
X107365685Y-63220000D01*
X107320000Y-63220000D01*
X106921010Y-63299365D01*
X106841645Y-63315151D01*
X106436116Y-63586117D01*
X101756117Y-68266117D01*
X101485151Y-68671646D01*
X101462548Y-68785278D01*
X101326740Y-68920849D01*
X101090270Y-69490333D01*
X101090190Y-69582043D01*
X100842845Y-69829388D01*
X100931734Y-64496002D01*
X101229046Y-64496002D01*
X101477365Y-64670694D01*
X101708000Y-64562307D01*
X101708000Y-63646000D01*
X102508000Y-63646000D01*
X102508000Y-64562307D01*
X102738635Y-64670694D01*
X103235838Y-64320912D01*
X103532665Y-63876631D01*
X103416737Y-63646000D01*
X102508000Y-63646000D01*
X101708000Y-63646000D01*
X101308000Y-63646000D01*
X101308000Y-62846000D01*
X101708000Y-62846000D01*
X101708000Y-62446000D01*
X102508000Y-62446000D01*
X102508000Y-62846000D01*
X103416737Y-62846000D01*
X103532665Y-62615369D01*
X103358002Y-62353939D01*
X103358002Y-61688000D01*
X103310565Y-61688000D01*
X103570379Y-61299159D01*
X103688366Y-60706000D01*
X103633867Y-60432014D01*
X104875924Y-61674071D01*
X104875924Y-61674071D01*
G37*
X104875924Y-61674071D02*
X104875926Y-61674074D01*
X105119988Y-61837151D01*
X105176018Y-61874589D01*
X105530000Y-61945001D01*
X105530005Y-61945000D01*
X105835416Y-61945000D01*
X105456323Y-62324093D01*
X105908874Y-62776643D01*
X105981154Y-63140017D01*
X106229195Y-63225119D01*
X106894315Y-62560000D01*
X106611472Y-62277157D01*
X106943629Y-61945000D01*
X107410685Y-61945000D01*
X107460000Y-61994315D01*
X107509315Y-61945000D01*
X107976371Y-61945000D01*
X108308528Y-62277157D01*
X108025685Y-62560000D01*
X108308528Y-62842843D01*
X107931371Y-63220000D01*
X107554315Y-63220000D01*
X107460000Y-63125685D01*
X107365685Y-63220000D01*
X107320000Y-63220000D01*
X106921010Y-63299365D01*
X106841645Y-63315151D01*
X106436116Y-63586117D01*
X101756117Y-68266117D01*
X101485151Y-68671646D01*
X101462548Y-68785278D01*
X101326740Y-68920849D01*
X101090270Y-69490333D01*
X101090190Y-69582043D01*
X100842845Y-69829388D01*
X100931734Y-64496002D01*
X101229046Y-64496002D01*
X101477365Y-64670694D01*
X101708000Y-64562307D01*
X101708000Y-63646000D01*
X102508000Y-63646000D01*
X102508000Y-64562307D01*
X102738635Y-64670694D01*
X103235838Y-64320912D01*
X103532665Y-63876631D01*
X103416737Y-63646000D01*
X102508000Y-63646000D01*
X101708000Y-63646000D01*
X101308000Y-63646000D01*
X101308000Y-62846000D01*
X101708000Y-62846000D01*
X101708000Y-62446000D01*
X102508000Y-62446000D01*
X102508000Y-62846000D01*
X103416737Y-62846000D01*
X103532665Y-62615369D01*
X103358002Y-62353939D01*
X103358002Y-61688000D01*
X103310565Y-61688000D01*
X103570379Y-61299159D01*
X103688366Y-60706000D01*
X103633867Y-60432014D01*
X104875924Y-61674071D01*
G36*
X134167900Y-51757617D02*
X134609842Y-51315675D01*
X135493725Y-52199558D01*
X135051783Y-52641500D01*
X135846963Y-53436680D01*
X136112532Y-53281816D01*
X136202045Y-52550193D01*
X137725926Y-54074074D01*
X138026017Y-54274589D01*
X138304410Y-54329964D01*
X138634253Y-54659807D01*
X136844200Y-54659807D01*
X136566267Y-54712104D01*
X136311002Y-54876362D01*
X136139754Y-55126992D01*
X136079507Y-55424500D01*
X136079507Y-57224500D01*
X136131804Y-57502433D01*
X136296062Y-57757698D01*
X136546692Y-57928946D01*
X136844200Y-57989193D01*
X137715000Y-57989193D01*
X137715000Y-68346852D01*
X137634693Y-68427159D01*
X137634693Y-67230000D01*
X137582396Y-66952067D01*
X137418138Y-66696802D01*
X137244842Y-66578394D01*
X137529553Y-66152293D01*
X137651346Y-65540000D01*
X137529553Y-64927707D01*
X137270002Y-64539261D01*
X137270002Y-63984534D01*
X137485241Y-63662369D01*
X137373336Y-63425000D01*
X136445000Y-63425000D01*
X136445000Y-63850000D01*
X135595000Y-63850000D01*
X135595000Y-63425000D01*
X134666664Y-63425000D01*
X134554759Y-63662369D01*
X134769998Y-63984534D01*
X134769998Y-64539261D01*
X134572392Y-64835000D01*
X134373682Y-64835000D01*
X134274074Y-64685926D01*
X133094074Y-63505926D01*
X132793983Y-63305411D01*
X132685039Y-63283741D01*
X132684792Y-63283143D01*
X132295000Y-62892669D01*
X132295000Y-62337631D01*
X134554759Y-62337631D01*
X134666664Y-62575000D01*
X135595000Y-62575000D01*
X135595000Y-61638650D01*
X136445000Y-61638650D01*
X136445000Y-62575000D01*
X137373336Y-62575000D01*
X137485241Y-62337631D01*
X137192689Y-61899745D01*
X136682374Y-61534728D01*
X136445000Y-61638650D01*
X135595000Y-61638650D01*
X135357626Y-61534728D01*
X134847311Y-61899745D01*
X134554759Y-62337631D01*
X132295000Y-62337631D01*
X132295000Y-54843605D01*
X132295001Y-54843600D01*
X132224589Y-54489618D01*
X132111631Y-54320563D01*
X133372720Y-54320563D01*
X133527584Y-54586132D01*
X134320504Y-54683144D01*
X134808216Y-54586132D01*
X134963080Y-54320563D01*
X134167900Y-53525383D01*
X133372720Y-54320563D01*
X132111631Y-54320563D01*
X132024074Y-54189526D01*
X131081897Y-53247349D01*
X131167552Y-53041070D01*
X131167767Y-52794104D01*
X132126256Y-52794104D01*
X132223268Y-53281816D01*
X132488837Y-53436680D01*
X133284017Y-52641500D01*
X132488837Y-51846320D01*
X132223268Y-52001184D01*
X132126256Y-52794104D01*
X131167767Y-52794104D01*
X131168246Y-52245421D01*
X130864406Y-51510071D01*
X130460041Y-51105000D01*
X133515283Y-51105000D01*
X134167900Y-51757617D01*
X134167900Y-51757617D01*
G37*
X134167900Y-51757617D02*
X134609842Y-51315675D01*
X135493725Y-52199558D01*
X135051783Y-52641500D01*
X135846963Y-53436680D01*
X136112532Y-53281816D01*
X136202045Y-52550193D01*
X137725926Y-54074074D01*
X138026017Y-54274589D01*
X138304410Y-54329964D01*
X138634253Y-54659807D01*
X136844200Y-54659807D01*
X136566267Y-54712104D01*
X136311002Y-54876362D01*
X136139754Y-55126992D01*
X136079507Y-55424500D01*
X136079507Y-57224500D01*
X136131804Y-57502433D01*
X136296062Y-57757698D01*
X136546692Y-57928946D01*
X136844200Y-57989193D01*
X137715000Y-57989193D01*
X137715000Y-68346852D01*
X137634693Y-68427159D01*
X137634693Y-67230000D01*
X137582396Y-66952067D01*
X137418138Y-66696802D01*
X137244842Y-66578394D01*
X137529553Y-66152293D01*
X137651346Y-65540000D01*
X137529553Y-64927707D01*
X137270002Y-64539261D01*
X137270002Y-63984534D01*
X137485241Y-63662369D01*
X137373336Y-63425000D01*
X136445000Y-63425000D01*
X136445000Y-63850000D01*
X135595000Y-63850000D01*
X135595000Y-63425000D01*
X134666664Y-63425000D01*
X134554759Y-63662369D01*
X134769998Y-63984534D01*
X134769998Y-64539261D01*
X134572392Y-64835000D01*
X134373682Y-64835000D01*
X134274074Y-64685926D01*
X133094074Y-63505926D01*
X132793983Y-63305411D01*
X132685039Y-63283741D01*
X132684792Y-63283143D01*
X132295000Y-62892669D01*
X132295000Y-62337631D01*
X134554759Y-62337631D01*
X134666664Y-62575000D01*
X135595000Y-62575000D01*
X135595000Y-61638650D01*
X136445000Y-61638650D01*
X136445000Y-62575000D01*
X137373336Y-62575000D01*
X137485241Y-62337631D01*
X137192689Y-61899745D01*
X136682374Y-61534728D01*
X136445000Y-61638650D01*
X135595000Y-61638650D01*
X135357626Y-61534728D01*
X134847311Y-61899745D01*
X134554759Y-62337631D01*
X132295000Y-62337631D01*
X132295000Y-54843605D01*
X132295001Y-54843600D01*
X132224589Y-54489618D01*
X132111631Y-54320563D01*
X133372720Y-54320563D01*
X133527584Y-54586132D01*
X134320504Y-54683144D01*
X134808216Y-54586132D01*
X134963080Y-54320563D01*
X134167900Y-53525383D01*
X133372720Y-54320563D01*
X132111631Y-54320563D01*
X132024074Y-54189526D01*
X131081897Y-53247349D01*
X131167552Y-53041070D01*
X131167767Y-52794104D01*
X132126256Y-52794104D01*
X132223268Y-53281816D01*
X132488837Y-53436680D01*
X133284017Y-52641500D01*
X132488837Y-51846320D01*
X132223268Y-52001184D01*
X132126256Y-52794104D01*
X131167767Y-52794104D01*
X131168246Y-52245421D01*
X130864406Y-51510071D01*
X130460041Y-51105000D01*
X133515283Y-51105000D01*
X134167900Y-51757617D01*
M02*
