G04 #@! TF.FileFunction,Legend,Top*
%FSLAX46Y46*%
G04 Gerber Fmt 4.6, Leading zero omitted, Abs format (unit mm)*
G04 Created by KiCad (PCBNEW 4.0.7) date 11/09/20 07:12:09*
%MOMM*%
%LPD*%
G01*
G04 APERTURE LIST*
%ADD10C,0.100000*%
%ADD11C,0.300000*%
%ADD12C,0.120000*%
%ADD13C,0.150000*%
G04 APERTURE END LIST*
D10*
D11*
X122198572Y-94028571D02*
X121341429Y-94028571D01*
X121770001Y-94028571D02*
X121770001Y-92528571D01*
X121627144Y-92742857D01*
X121484286Y-92885714D01*
X121341429Y-92957143D01*
X118495714Y-82662856D02*
X118567143Y-82734285D01*
X118638571Y-82948571D01*
X118638571Y-83091428D01*
X118567143Y-83305713D01*
X118424286Y-83448571D01*
X118281429Y-83519999D01*
X117995714Y-83591428D01*
X117781429Y-83591428D01*
X117495714Y-83519999D01*
X117352857Y-83448571D01*
X117210000Y-83305713D01*
X117138571Y-83091428D01*
X117138571Y-82948571D01*
X117210000Y-82734285D01*
X117281429Y-82662856D01*
X118638571Y-82019999D02*
X117138571Y-82019999D01*
X117138571Y-81662856D01*
X117210000Y-81448571D01*
X117352857Y-81305713D01*
X117495714Y-81234285D01*
X117781429Y-81162856D01*
X117995714Y-81162856D01*
X118281429Y-81234285D01*
X118424286Y-81305713D01*
X118567143Y-81448571D01*
X118638571Y-81662856D01*
X118638571Y-82019999D01*
X117638571Y-79877142D02*
X118638571Y-79877142D01*
X117067143Y-80234285D02*
X118138571Y-80591428D01*
X118138571Y-79662856D01*
X117138571Y-78805714D02*
X117138571Y-78662857D01*
X117210000Y-78520000D01*
X117281429Y-78448571D01*
X117424286Y-78377142D01*
X117710000Y-78305714D01*
X118067143Y-78305714D01*
X118352857Y-78377142D01*
X118495714Y-78448571D01*
X118567143Y-78520000D01*
X118638571Y-78662857D01*
X118638571Y-78805714D01*
X118567143Y-78948571D01*
X118495714Y-79020000D01*
X118352857Y-79091428D01*
X118067143Y-79162857D01*
X117710000Y-79162857D01*
X117424286Y-79091428D01*
X117281429Y-79020000D01*
X117210000Y-78948571D01*
X117138571Y-78805714D01*
X117281429Y-77734286D02*
X117210000Y-77662857D01*
X117138571Y-77520000D01*
X117138571Y-77162857D01*
X117210000Y-77020000D01*
X117281429Y-76948571D01*
X117424286Y-76877143D01*
X117567143Y-76877143D01*
X117781429Y-76948571D01*
X118638571Y-77805714D01*
X118638571Y-76877143D01*
X117138571Y-76377143D02*
X117138571Y-75377143D01*
X118638571Y-76020000D01*
X133442757Y-58979729D02*
X133157043Y-58979729D01*
X133014185Y-58908300D01*
X132871328Y-58765443D01*
X132799900Y-58479729D01*
X132799900Y-57979729D01*
X132871328Y-57694014D01*
X133014185Y-57551157D01*
X133157043Y-57479729D01*
X133442757Y-57479729D01*
X133585614Y-57551157D01*
X133728471Y-57694014D01*
X133799900Y-57979729D01*
X133799900Y-58479729D01*
X133728471Y-58765443D01*
X133585614Y-58908300D01*
X133442757Y-58979729D01*
X131299899Y-57622586D02*
X131371328Y-57551157D01*
X131585614Y-57479729D01*
X131728471Y-57479729D01*
X131942756Y-57551157D01*
X132085614Y-57694014D01*
X132157042Y-57836871D01*
X132228471Y-58122586D01*
X132228471Y-58336871D01*
X132157042Y-58622586D01*
X132085614Y-58765443D01*
X131942756Y-58908300D01*
X131728471Y-58979729D01*
X131585614Y-58979729D01*
X131371328Y-58908300D01*
X131299899Y-58836871D01*
X134407043Y-55072586D02*
X134478472Y-55001157D01*
X134692758Y-54929729D01*
X134835615Y-54929729D01*
X135049900Y-55001157D01*
X135192758Y-55144014D01*
X135264186Y-55286871D01*
X135335615Y-55572586D01*
X135335615Y-55786871D01*
X135264186Y-56072586D01*
X135192758Y-56215443D01*
X135049900Y-56358300D01*
X134835615Y-56429729D01*
X134692758Y-56429729D01*
X134478472Y-56358300D01*
X134407043Y-56286871D01*
X133478472Y-56429729D02*
X133192758Y-56429729D01*
X133049900Y-56358300D01*
X132907043Y-56215443D01*
X132835615Y-55929729D01*
X132835615Y-55429729D01*
X132907043Y-55144014D01*
X133049900Y-55001157D01*
X133192758Y-54929729D01*
X133478472Y-54929729D01*
X133621329Y-55001157D01*
X133764186Y-55144014D01*
X133835615Y-55429729D01*
X133835615Y-55929729D01*
X133764186Y-56215443D01*
X133621329Y-56358300D01*
X133478472Y-56429729D01*
X132192757Y-54929729D02*
X132192757Y-56429729D01*
X131335614Y-54929729D01*
X131335614Y-56429729D01*
X130621328Y-54929729D02*
X130621328Y-56429729D01*
X130264185Y-56429729D01*
X130049900Y-56358300D01*
X129907042Y-56215443D01*
X129835614Y-56072586D01*
X129764185Y-55786871D01*
X129764185Y-55572586D01*
X129835614Y-55286871D01*
X129907042Y-55144014D01*
X130049900Y-55001157D01*
X130264185Y-54929729D01*
X130621328Y-54929729D01*
X63662286Y-46057429D02*
X63662286Y-47557429D01*
X63090858Y-47557429D01*
X62948000Y-47486000D01*
X62876572Y-47414571D01*
X62805143Y-47271714D01*
X62805143Y-47057429D01*
X62876572Y-46914571D01*
X62948000Y-46843143D01*
X63090858Y-46771714D01*
X63662286Y-46771714D01*
X61876572Y-47557429D02*
X61590858Y-47557429D01*
X61448000Y-47486000D01*
X61305143Y-47343143D01*
X61233715Y-47057429D01*
X61233715Y-46557429D01*
X61305143Y-46271714D01*
X61448000Y-46128857D01*
X61590858Y-46057429D01*
X61876572Y-46057429D01*
X62019429Y-46128857D01*
X62162286Y-46271714D01*
X62233715Y-46557429D01*
X62233715Y-47057429D01*
X62162286Y-47343143D01*
X62019429Y-47486000D01*
X61876572Y-47557429D01*
X60733714Y-47557429D02*
X60376571Y-46057429D01*
X60090857Y-47128857D01*
X59805143Y-46057429D01*
X59448000Y-47557429D01*
X58876571Y-46843143D02*
X58376571Y-46843143D01*
X58162285Y-46057429D02*
X58876571Y-46057429D01*
X58876571Y-47557429D01*
X58162285Y-47557429D01*
X56662285Y-46057429D02*
X57162285Y-46771714D01*
X57519428Y-46057429D02*
X57519428Y-47557429D01*
X56948000Y-47557429D01*
X56805142Y-47486000D01*
X56733714Y-47414571D01*
X56662285Y-47271714D01*
X56662285Y-47057429D01*
X56733714Y-46914571D01*
X56805142Y-46843143D01*
X56948000Y-46771714D01*
X57519428Y-46771714D01*
X95440572Y-139807143D02*
X96583429Y-139807143D01*
X96012000Y-140378571D02*
X96012000Y-139235714D01*
X101790572Y-139553143D02*
X102933429Y-139553143D01*
X96115429Y-61400571D02*
X96115429Y-62400571D01*
X95758286Y-60829143D02*
X95401143Y-61900571D01*
X96329715Y-61900571D01*
X96901143Y-62400571D02*
X96901143Y-60900571D01*
X97758286Y-62400571D01*
X97758286Y-60900571D01*
X98401143Y-61043429D02*
X98472572Y-60972000D01*
X98615429Y-60900571D01*
X98972572Y-60900571D01*
X99115429Y-60972000D01*
X99186858Y-61043429D01*
X99258286Y-61186286D01*
X99258286Y-61329143D01*
X99186858Y-61543429D01*
X98329715Y-62400571D01*
X99258286Y-62400571D01*
X100115429Y-61543429D02*
X99972571Y-61472000D01*
X99901143Y-61400571D01*
X99829714Y-61257714D01*
X99829714Y-61186286D01*
X99901143Y-61043429D01*
X99972571Y-60972000D01*
X100115429Y-60900571D01*
X100401143Y-60900571D01*
X100544000Y-60972000D01*
X100615429Y-61043429D01*
X100686857Y-61186286D01*
X100686857Y-61257714D01*
X100615429Y-61400571D01*
X100544000Y-61472000D01*
X100401143Y-61543429D01*
X100115429Y-61543429D01*
X99972571Y-61614857D01*
X99901143Y-61686286D01*
X99829714Y-61829143D01*
X99829714Y-62114857D01*
X99901143Y-62257714D01*
X99972571Y-62329143D01*
X100115429Y-62400571D01*
X100401143Y-62400571D01*
X100544000Y-62329143D01*
X100615429Y-62257714D01*
X100686857Y-62114857D01*
X100686857Y-61829143D01*
X100615429Y-61686286D01*
X100544000Y-61614857D01*
X100401143Y-61543429D01*
X95425143Y-141982000D02*
X96139429Y-141982000D01*
X95282286Y-142410571D02*
X95782286Y-140910571D01*
X96282286Y-142410571D01*
X96782286Y-141410571D02*
X96782286Y-142410571D01*
X96782286Y-141553429D02*
X96853714Y-141482000D01*
X96996572Y-141410571D01*
X97210857Y-141410571D01*
X97353714Y-141482000D01*
X97425143Y-141624857D01*
X97425143Y-142410571D01*
X97925143Y-141410571D02*
X98496572Y-141410571D01*
X98139429Y-140910571D02*
X98139429Y-142196286D01*
X98210857Y-142339143D01*
X98353715Y-142410571D01*
X98496572Y-142410571D01*
X99568000Y-142339143D02*
X99425143Y-142410571D01*
X99139429Y-142410571D01*
X98996572Y-142339143D01*
X98925143Y-142196286D01*
X98925143Y-141624857D01*
X98996572Y-141482000D01*
X99139429Y-141410571D01*
X99425143Y-141410571D01*
X99568000Y-141482000D01*
X99639429Y-141624857D01*
X99639429Y-141767714D01*
X98925143Y-141910571D01*
X100282286Y-141410571D02*
X100282286Y-142410571D01*
X100282286Y-141553429D02*
X100353714Y-141482000D01*
X100496572Y-141410571D01*
X100710857Y-141410571D01*
X100853714Y-141482000D01*
X100925143Y-141624857D01*
X100925143Y-142410571D01*
X101639429Y-141410571D02*
X101639429Y-142410571D01*
X101639429Y-141553429D02*
X101710857Y-141482000D01*
X101853715Y-141410571D01*
X102068000Y-141410571D01*
X102210857Y-141482000D01*
X102282286Y-141624857D01*
X102282286Y-142410571D01*
X103639429Y-142410571D02*
X103639429Y-141624857D01*
X103568000Y-141482000D01*
X103425143Y-141410571D01*
X103139429Y-141410571D01*
X102996572Y-141482000D01*
X103639429Y-142339143D02*
X103496572Y-142410571D01*
X103139429Y-142410571D01*
X102996572Y-142339143D01*
X102925143Y-142196286D01*
X102925143Y-142053429D01*
X102996572Y-141910571D01*
X103139429Y-141839143D01*
X103496572Y-141839143D01*
X103639429Y-141767714D01*
X81724572Y-47097143D02*
X82867429Y-47097143D01*
X82296000Y-47668571D02*
X82296000Y-46525714D01*
X94424572Y-47097143D02*
X95567429Y-47097143D01*
X95678572Y-56050571D02*
X94821429Y-56050571D01*
X95250001Y-56050571D02*
X95250001Y-54550571D01*
X95107144Y-54764857D01*
X94964286Y-54907714D01*
X94821429Y-54979143D01*
X133778572Y-91968571D02*
X132921429Y-91968571D01*
X133350001Y-91968571D02*
X133350001Y-90468571D01*
X133207144Y-90682857D01*
X133064286Y-90825714D01*
X132921429Y-90897143D01*
X65976572Y-116185143D02*
X67119429Y-116185143D01*
X65976572Y-135235143D02*
X67119429Y-135235143D01*
X66548000Y-135806571D02*
X66548000Y-134663714D01*
X87493144Y-106083571D02*
X87493144Y-104583571D01*
X87493144Y-105297857D02*
X88350287Y-105297857D01*
X88350287Y-106083571D02*
X88350287Y-104583571D01*
X89707430Y-106083571D02*
X89707430Y-105297857D01*
X89636001Y-105155000D01*
X89493144Y-105083571D01*
X89207430Y-105083571D01*
X89064573Y-105155000D01*
X89707430Y-106012143D02*
X89564573Y-106083571D01*
X89207430Y-106083571D01*
X89064573Y-106012143D01*
X88993144Y-105869286D01*
X88993144Y-105726429D01*
X89064573Y-105583571D01*
X89207430Y-105512143D01*
X89564573Y-105512143D01*
X89707430Y-105440714D01*
X90636002Y-106083571D02*
X90493144Y-106012143D01*
X90421716Y-105869286D01*
X90421716Y-104583571D01*
X90993144Y-105083571D02*
X91564573Y-105083571D01*
X91207430Y-106083571D02*
X91207430Y-104797857D01*
X91278858Y-104655000D01*
X91421716Y-104583571D01*
X91564573Y-104583571D01*
X93707430Y-105297857D02*
X93921716Y-105369286D01*
X93993144Y-105440714D01*
X94064573Y-105583571D01*
X94064573Y-105797857D01*
X93993144Y-105940714D01*
X93921716Y-106012143D01*
X93778858Y-106083571D01*
X93207430Y-106083571D01*
X93207430Y-104583571D01*
X93707430Y-104583571D01*
X93850287Y-104655000D01*
X93921716Y-104726429D01*
X93993144Y-104869286D01*
X93993144Y-105012143D01*
X93921716Y-105155000D01*
X93850287Y-105226429D01*
X93707430Y-105297857D01*
X93207430Y-105297857D01*
X94707430Y-106083571D02*
X94707430Y-105083571D01*
X94707430Y-105369286D02*
X94778858Y-105226429D01*
X94850287Y-105155000D01*
X94993144Y-105083571D01*
X95136001Y-105083571D01*
X95636001Y-106083571D02*
X95636001Y-105083571D01*
X95636001Y-104583571D02*
X95564572Y-104655000D01*
X95636001Y-104726429D01*
X95707429Y-104655000D01*
X95636001Y-104583571D01*
X95636001Y-104726429D01*
X96993144Y-106083571D02*
X96993144Y-104583571D01*
X96993144Y-106012143D02*
X96850287Y-106083571D01*
X96564573Y-106083571D01*
X96421715Y-106012143D01*
X96350287Y-105940714D01*
X96278858Y-105797857D01*
X96278858Y-105369286D01*
X96350287Y-105226429D01*
X96421715Y-105155000D01*
X96564573Y-105083571D01*
X96850287Y-105083571D01*
X96993144Y-105155000D01*
X98350287Y-105083571D02*
X98350287Y-106297857D01*
X98278858Y-106440714D01*
X98207430Y-106512143D01*
X98064573Y-106583571D01*
X97850287Y-106583571D01*
X97707430Y-106512143D01*
X98350287Y-106012143D02*
X98207430Y-106083571D01*
X97921716Y-106083571D01*
X97778858Y-106012143D01*
X97707430Y-105940714D01*
X97636001Y-105797857D01*
X97636001Y-105369286D01*
X97707430Y-105226429D01*
X97778858Y-105155000D01*
X97921716Y-105083571D01*
X98207430Y-105083571D01*
X98350287Y-105155000D01*
X99636001Y-106012143D02*
X99493144Y-106083571D01*
X99207430Y-106083571D01*
X99064573Y-106012143D01*
X98993144Y-105869286D01*
X98993144Y-105297857D01*
X99064573Y-105155000D01*
X99207430Y-105083571D01*
X99493144Y-105083571D01*
X99636001Y-105155000D01*
X99707430Y-105297857D01*
X99707430Y-105440714D01*
X98993144Y-105583571D01*
X102278858Y-104655000D02*
X102136001Y-104583571D01*
X101921715Y-104583571D01*
X101707430Y-104655000D01*
X101564572Y-104797857D01*
X101493144Y-104940714D01*
X101421715Y-105226429D01*
X101421715Y-105440714D01*
X101493144Y-105726429D01*
X101564572Y-105869286D01*
X101707430Y-106012143D01*
X101921715Y-106083571D01*
X102064572Y-106083571D01*
X102278858Y-106012143D01*
X102350287Y-105940714D01*
X102350287Y-105440714D01*
X102064572Y-105440714D01*
X103636001Y-106083571D02*
X103636001Y-105297857D01*
X103564572Y-105155000D01*
X103421715Y-105083571D01*
X103136001Y-105083571D01*
X102993144Y-105155000D01*
X103636001Y-106012143D02*
X103493144Y-106083571D01*
X103136001Y-106083571D01*
X102993144Y-106012143D01*
X102921715Y-105869286D01*
X102921715Y-105726429D01*
X102993144Y-105583571D01*
X103136001Y-105512143D01*
X103493144Y-105512143D01*
X103636001Y-105440714D01*
X104136001Y-105083571D02*
X104707430Y-105083571D01*
X104350287Y-104583571D02*
X104350287Y-105869286D01*
X104421715Y-106012143D01*
X104564573Y-106083571D01*
X104707430Y-106083571D01*
X105778858Y-106012143D02*
X105636001Y-106083571D01*
X105350287Y-106083571D01*
X105207430Y-106012143D01*
X105136001Y-105869286D01*
X105136001Y-105297857D01*
X105207430Y-105155000D01*
X105350287Y-105083571D01*
X105636001Y-105083571D01*
X105778858Y-105155000D01*
X105850287Y-105297857D01*
X105850287Y-105440714D01*
X105136001Y-105583571D01*
X107421715Y-104583571D02*
X108278858Y-104583571D01*
X107850287Y-106083571D02*
X107850287Y-104583571D01*
X108778858Y-106083571D02*
X108778858Y-105083571D01*
X108778858Y-105369286D02*
X108850286Y-105226429D01*
X108921715Y-105155000D01*
X109064572Y-105083571D01*
X109207429Y-105083571D01*
X110350286Y-106083571D02*
X110350286Y-105297857D01*
X110278857Y-105155000D01*
X110136000Y-105083571D01*
X109850286Y-105083571D01*
X109707429Y-105155000D01*
X110350286Y-106012143D02*
X110207429Y-106083571D01*
X109850286Y-106083571D01*
X109707429Y-106012143D01*
X109636000Y-105869286D01*
X109636000Y-105726429D01*
X109707429Y-105583571D01*
X109850286Y-105512143D01*
X110207429Y-105512143D01*
X110350286Y-105440714D01*
X111064572Y-105083571D02*
X111064572Y-106083571D01*
X111064572Y-105226429D02*
X111136000Y-105155000D01*
X111278858Y-105083571D01*
X111493143Y-105083571D01*
X111636000Y-105155000D01*
X111707429Y-105297857D01*
X111707429Y-106083571D01*
X112350286Y-106012143D02*
X112493143Y-106083571D01*
X112778858Y-106083571D01*
X112921715Y-106012143D01*
X112993143Y-105869286D01*
X112993143Y-105797857D01*
X112921715Y-105655000D01*
X112778858Y-105583571D01*
X112564572Y-105583571D01*
X112421715Y-105512143D01*
X112350286Y-105369286D01*
X112350286Y-105297857D01*
X112421715Y-105155000D01*
X112564572Y-105083571D01*
X112778858Y-105083571D01*
X112921715Y-105155000D01*
X113421715Y-105083571D02*
X113993144Y-105083571D01*
X113636001Y-106083571D02*
X113636001Y-104797857D01*
X113707429Y-104655000D01*
X113850287Y-104583571D01*
X113993144Y-104583571D01*
X114707430Y-106083571D02*
X114564572Y-106012143D01*
X114493144Y-105940714D01*
X114421715Y-105797857D01*
X114421715Y-105369286D01*
X114493144Y-105226429D01*
X114564572Y-105155000D01*
X114707430Y-105083571D01*
X114921715Y-105083571D01*
X115064572Y-105155000D01*
X115136001Y-105226429D01*
X115207430Y-105369286D01*
X115207430Y-105797857D01*
X115136001Y-105940714D01*
X115064572Y-106012143D01*
X114921715Y-106083571D01*
X114707430Y-106083571D01*
X115850287Y-106083571D02*
X115850287Y-105083571D01*
X115850287Y-105369286D02*
X115921715Y-105226429D01*
X115993144Y-105155000D01*
X116136001Y-105083571D01*
X116278858Y-105083571D01*
X116778858Y-106083571D02*
X116778858Y-105083571D01*
X116778858Y-105226429D02*
X116850286Y-105155000D01*
X116993144Y-105083571D01*
X117207429Y-105083571D01*
X117350286Y-105155000D01*
X117421715Y-105297857D01*
X117421715Y-106083571D01*
X117421715Y-105297857D02*
X117493144Y-105155000D01*
X117636001Y-105083571D01*
X117850286Y-105083571D01*
X117993144Y-105155000D01*
X118064572Y-105297857D01*
X118064572Y-106083571D01*
X119350286Y-106012143D02*
X119207429Y-106083571D01*
X118921715Y-106083571D01*
X118778858Y-106012143D01*
X118707429Y-105869286D01*
X118707429Y-105297857D01*
X118778858Y-105155000D01*
X118921715Y-105083571D01*
X119207429Y-105083571D01*
X119350286Y-105155000D01*
X119421715Y-105297857D01*
X119421715Y-105440714D01*
X118707429Y-105583571D01*
X120064572Y-106083571D02*
X120064572Y-105083571D01*
X120064572Y-105369286D02*
X120136000Y-105226429D01*
X120207429Y-105155000D01*
X120350286Y-105083571D01*
X120493143Y-105083571D01*
X89564574Y-108633571D02*
X89564574Y-107133571D01*
X89921717Y-107133571D01*
X90136002Y-107205000D01*
X90278860Y-107347857D01*
X90350288Y-107490714D01*
X90421717Y-107776429D01*
X90421717Y-107990714D01*
X90350288Y-108276429D01*
X90278860Y-108419286D01*
X90136002Y-108562143D01*
X89921717Y-108633571D01*
X89564574Y-108633571D01*
X91064574Y-108633571D02*
X91064574Y-107633571D01*
X91064574Y-107919286D02*
X91136002Y-107776429D01*
X91207431Y-107705000D01*
X91350288Y-107633571D01*
X91493145Y-107633571D01*
X91993145Y-108633571D02*
X91993145Y-107633571D01*
X91993145Y-107133571D02*
X91921716Y-107205000D01*
X91993145Y-107276429D01*
X92064573Y-107205000D01*
X91993145Y-107133571D01*
X91993145Y-107276429D01*
X92564574Y-107633571D02*
X92921717Y-108633571D01*
X93278859Y-107633571D01*
X94421716Y-108562143D02*
X94278859Y-108633571D01*
X93993145Y-108633571D01*
X93850288Y-108562143D01*
X93778859Y-108419286D01*
X93778859Y-107847857D01*
X93850288Y-107705000D01*
X93993145Y-107633571D01*
X94278859Y-107633571D01*
X94421716Y-107705000D01*
X94493145Y-107847857D01*
X94493145Y-107990714D01*
X93778859Y-108133571D01*
X95136002Y-108633571D02*
X95136002Y-107633571D01*
X95136002Y-107919286D02*
X95207430Y-107776429D01*
X95278859Y-107705000D01*
X95421716Y-107633571D01*
X95564573Y-107633571D01*
X98278858Y-107062143D02*
X96993144Y-108990714D01*
X99850287Y-108562143D02*
X100064573Y-108633571D01*
X100421716Y-108633571D01*
X100564573Y-108562143D01*
X100636002Y-108490714D01*
X100707430Y-108347857D01*
X100707430Y-108205000D01*
X100636002Y-108062143D01*
X100564573Y-107990714D01*
X100421716Y-107919286D01*
X100136002Y-107847857D01*
X99993144Y-107776429D01*
X99921716Y-107705000D01*
X99850287Y-107562143D01*
X99850287Y-107419286D01*
X99921716Y-107276429D01*
X99993144Y-107205000D01*
X100136002Y-107133571D01*
X100493144Y-107133571D01*
X100707430Y-107205000D01*
X101278858Y-108562143D02*
X101493144Y-108633571D01*
X101850287Y-108633571D01*
X101993144Y-108562143D01*
X102064573Y-108490714D01*
X102136001Y-108347857D01*
X102136001Y-108205000D01*
X102064573Y-108062143D01*
X101993144Y-107990714D01*
X101850287Y-107919286D01*
X101564573Y-107847857D01*
X101421715Y-107776429D01*
X101350287Y-107705000D01*
X101278858Y-107562143D01*
X101278858Y-107419286D01*
X101350287Y-107276429D01*
X101421715Y-107205000D01*
X101564573Y-107133571D01*
X101921715Y-107133571D01*
X102136001Y-107205000D01*
X102564572Y-107133571D02*
X103421715Y-107133571D01*
X102993144Y-108633571D02*
X102993144Y-107133571D01*
X104778858Y-108490714D02*
X104707429Y-108562143D01*
X104493143Y-108633571D01*
X104350286Y-108633571D01*
X104136001Y-108562143D01*
X103993143Y-108419286D01*
X103921715Y-108276429D01*
X103850286Y-107990714D01*
X103850286Y-107776429D01*
X103921715Y-107490714D01*
X103993143Y-107347857D01*
X104136001Y-107205000D01*
X104350286Y-107133571D01*
X104493143Y-107133571D01*
X104707429Y-107205000D01*
X104778858Y-107276429D01*
X106564572Y-108633571D02*
X106564572Y-107133571D01*
X106921715Y-107133571D01*
X107136000Y-107205000D01*
X107278858Y-107347857D01*
X107350286Y-107490714D01*
X107421715Y-107776429D01*
X107421715Y-107990714D01*
X107350286Y-108276429D01*
X107278858Y-108419286D01*
X107136000Y-108562143D01*
X106921715Y-108633571D01*
X106564572Y-108633571D01*
X108064572Y-108633571D02*
X108064572Y-107633571D01*
X108064572Y-107919286D02*
X108136000Y-107776429D01*
X108207429Y-107705000D01*
X108350286Y-107633571D01*
X108493143Y-107633571D01*
X108993143Y-108633571D02*
X108993143Y-107633571D01*
X108993143Y-107133571D02*
X108921714Y-107205000D01*
X108993143Y-107276429D01*
X109064571Y-107205000D01*
X108993143Y-107133571D01*
X108993143Y-107276429D01*
X109564572Y-107633571D02*
X109921715Y-108633571D01*
X110278857Y-107633571D01*
X111421714Y-108562143D02*
X111278857Y-108633571D01*
X110993143Y-108633571D01*
X110850286Y-108562143D01*
X110778857Y-108419286D01*
X110778857Y-107847857D01*
X110850286Y-107705000D01*
X110993143Y-107633571D01*
X111278857Y-107633571D01*
X111421714Y-107705000D01*
X111493143Y-107847857D01*
X111493143Y-107990714D01*
X110778857Y-108133571D01*
X112136000Y-108633571D02*
X112136000Y-107633571D01*
X112136000Y-107919286D02*
X112207428Y-107776429D01*
X112278857Y-107705000D01*
X112421714Y-107633571D01*
X112564571Y-107633571D01*
X114064571Y-107633571D02*
X114421714Y-108633571D01*
X114778856Y-107633571D01*
X116135999Y-108633571D02*
X115278856Y-108633571D01*
X115707428Y-108633571D02*
X115707428Y-107133571D01*
X115564571Y-107347857D01*
X115421713Y-107490714D01*
X115278856Y-107562143D01*
X116778856Y-108490714D02*
X116850284Y-108562143D01*
X116778856Y-108633571D01*
X116707427Y-108562143D01*
X116778856Y-108490714D01*
X116778856Y-108633571D01*
X118278856Y-108633571D02*
X117421713Y-108633571D01*
X117850285Y-108633571D02*
X117850285Y-107133571D01*
X117707428Y-107347857D01*
X117564570Y-107490714D01*
X117421713Y-107562143D01*
X141585143Y-122745428D02*
X141585143Y-121602571D01*
X140906572Y-131171143D02*
X142049429Y-131171143D01*
X141478000Y-131742571D02*
X141478000Y-130599714D01*
X78627857Y-57046285D02*
X78627857Y-56546285D01*
X79413571Y-56331999D02*
X79413571Y-57046285D01*
X77913571Y-57046285D01*
X77913571Y-56331999D01*
X79413571Y-55831999D02*
X78413571Y-55046285D01*
X78413571Y-55831999D02*
X79413571Y-55046285D01*
X78413571Y-54689142D02*
X78413571Y-54117713D01*
X77913571Y-54474856D02*
X79199286Y-54474856D01*
X79342143Y-54403428D01*
X79413571Y-54260570D01*
X79413571Y-54117713D01*
X79342143Y-53046285D02*
X79413571Y-53189142D01*
X79413571Y-53474856D01*
X79342143Y-53617713D01*
X79199286Y-53689142D01*
X78627857Y-53689142D01*
X78485000Y-53617713D01*
X78413571Y-53474856D01*
X78413571Y-53189142D01*
X78485000Y-53046285D01*
X78627857Y-52974856D01*
X78770714Y-52974856D01*
X78913571Y-53689142D01*
X79413571Y-52331999D02*
X78413571Y-52331999D01*
X78699286Y-52331999D02*
X78556429Y-52260571D01*
X78485000Y-52189142D01*
X78413571Y-52046285D01*
X78413571Y-51903428D01*
X78413571Y-51403428D02*
X79413571Y-51403428D01*
X78556429Y-51403428D02*
X78485000Y-51332000D01*
X78413571Y-51189142D01*
X78413571Y-50974857D01*
X78485000Y-50832000D01*
X78627857Y-50760571D01*
X79413571Y-50760571D01*
X79413571Y-49403428D02*
X78627857Y-49403428D01*
X78485000Y-49474857D01*
X78413571Y-49617714D01*
X78413571Y-49903428D01*
X78485000Y-50046285D01*
X79342143Y-49403428D02*
X79413571Y-49546285D01*
X79413571Y-49903428D01*
X79342143Y-50046285D01*
X79199286Y-50117714D01*
X79056429Y-50117714D01*
X78913571Y-50046285D01*
X78842143Y-49903428D01*
X78842143Y-49546285D01*
X78770714Y-49403428D01*
X79413571Y-48474856D02*
X79342143Y-48617714D01*
X79199286Y-48689142D01*
X77913571Y-48689142D01*
X81963571Y-56582000D02*
X80463571Y-56582000D01*
X80463571Y-56224857D01*
X80535000Y-56010572D01*
X80677857Y-55867714D01*
X80820714Y-55796286D01*
X81106429Y-55724857D01*
X81320714Y-55724857D01*
X81606429Y-55796286D01*
X81749286Y-55867714D01*
X81892143Y-56010572D01*
X81963571Y-56224857D01*
X81963571Y-56582000D01*
X81963571Y-55082000D02*
X80963571Y-55082000D01*
X80463571Y-55082000D02*
X80535000Y-55153429D01*
X80606429Y-55082000D01*
X80535000Y-55010572D01*
X80463571Y-55082000D01*
X80606429Y-55082000D01*
X81892143Y-54439143D02*
X81963571Y-54296286D01*
X81963571Y-54010571D01*
X81892143Y-53867714D01*
X81749286Y-53796286D01*
X81677857Y-53796286D01*
X81535000Y-53867714D01*
X81463571Y-54010571D01*
X81463571Y-54224857D01*
X81392143Y-54367714D01*
X81249286Y-54439143D01*
X81177857Y-54439143D01*
X81035000Y-54367714D01*
X80963571Y-54224857D01*
X80963571Y-54010571D01*
X81035000Y-53867714D01*
X81963571Y-52510571D02*
X81177857Y-52510571D01*
X81035000Y-52582000D01*
X80963571Y-52724857D01*
X80963571Y-53010571D01*
X81035000Y-53153428D01*
X81892143Y-52510571D02*
X81963571Y-52653428D01*
X81963571Y-53010571D01*
X81892143Y-53153428D01*
X81749286Y-53224857D01*
X81606429Y-53224857D01*
X81463571Y-53153428D01*
X81392143Y-53010571D01*
X81392143Y-52653428D01*
X81320714Y-52510571D01*
X81963571Y-51796285D02*
X80463571Y-51796285D01*
X81035000Y-51796285D02*
X80963571Y-51653428D01*
X80963571Y-51367714D01*
X81035000Y-51224857D01*
X81106429Y-51153428D01*
X81249286Y-51081999D01*
X81677857Y-51081999D01*
X81820714Y-51153428D01*
X81892143Y-51224857D01*
X81963571Y-51367714D01*
X81963571Y-51653428D01*
X81892143Y-51796285D01*
X81963571Y-50224856D02*
X81892143Y-50367714D01*
X81749286Y-50439142D01*
X80463571Y-50439142D01*
X81892143Y-49082000D02*
X81963571Y-49224857D01*
X81963571Y-49510571D01*
X81892143Y-49653428D01*
X81749286Y-49724857D01*
X81177857Y-49724857D01*
X81035000Y-49653428D01*
X80963571Y-49510571D01*
X80963571Y-49224857D01*
X81035000Y-49082000D01*
X81177857Y-49010571D01*
X81320714Y-49010571D01*
X81463571Y-49724857D01*
X139722714Y-129638856D02*
X139794143Y-129710285D01*
X139865571Y-129924571D01*
X139865571Y-130067428D01*
X139794143Y-130281713D01*
X139651286Y-130424571D01*
X139508429Y-130495999D01*
X139222714Y-130567428D01*
X139008429Y-130567428D01*
X138722714Y-130495999D01*
X138579857Y-130424571D01*
X138437000Y-130281713D01*
X138365571Y-130067428D01*
X138365571Y-129924571D01*
X138437000Y-129710285D01*
X138508429Y-129638856D01*
X138865571Y-128353142D02*
X139865571Y-128353142D01*
X138865571Y-128995999D02*
X139651286Y-128995999D01*
X139794143Y-128924571D01*
X139865571Y-128781713D01*
X139865571Y-128567428D01*
X139794143Y-128424571D01*
X139722714Y-128353142D01*
X139865571Y-127638856D02*
X138865571Y-127638856D01*
X139151286Y-127638856D02*
X139008429Y-127567428D01*
X138937000Y-127495999D01*
X138865571Y-127353142D01*
X138865571Y-127210285D01*
X139865571Y-126710285D02*
X138865571Y-126710285D01*
X139151286Y-126710285D02*
X139008429Y-126638857D01*
X138937000Y-126567428D01*
X138865571Y-126424571D01*
X138865571Y-126281714D01*
X139794143Y-125210286D02*
X139865571Y-125353143D01*
X139865571Y-125638857D01*
X139794143Y-125781714D01*
X139651286Y-125853143D01*
X139079857Y-125853143D01*
X138937000Y-125781714D01*
X138865571Y-125638857D01*
X138865571Y-125353143D01*
X138937000Y-125210286D01*
X139079857Y-125138857D01*
X139222714Y-125138857D01*
X139365571Y-125853143D01*
X138865571Y-124496000D02*
X139865571Y-124496000D01*
X139008429Y-124496000D02*
X138937000Y-124424572D01*
X138865571Y-124281714D01*
X138865571Y-124067429D01*
X138937000Y-123924572D01*
X139079857Y-123853143D01*
X139865571Y-123853143D01*
X138865571Y-123353143D02*
X138865571Y-122781714D01*
X138365571Y-123138857D02*
X139651286Y-123138857D01*
X139794143Y-123067429D01*
X139865571Y-122924571D01*
X139865571Y-122781714D01*
X142415571Y-129424571D02*
X140915571Y-129424571D01*
X141987000Y-128924571D01*
X140915571Y-128424571D01*
X142415571Y-128424571D01*
X142344143Y-127138857D02*
X142415571Y-127281714D01*
X142415571Y-127567428D01*
X142344143Y-127710285D01*
X142201286Y-127781714D01*
X141629857Y-127781714D01*
X141487000Y-127710285D01*
X141415571Y-127567428D01*
X141415571Y-127281714D01*
X141487000Y-127138857D01*
X141629857Y-127067428D01*
X141772714Y-127067428D01*
X141915571Y-127781714D01*
X141415571Y-126638857D02*
X141415571Y-126067428D01*
X140915571Y-126424571D02*
X142201286Y-126424571D01*
X142344143Y-126353143D01*
X142415571Y-126210285D01*
X142415571Y-126067428D01*
X142344143Y-124996000D02*
X142415571Y-125138857D01*
X142415571Y-125424571D01*
X142344143Y-125567428D01*
X142201286Y-125638857D01*
X141629857Y-125638857D01*
X141487000Y-125567428D01*
X141415571Y-125424571D01*
X141415571Y-125138857D01*
X141487000Y-124996000D01*
X141629857Y-124924571D01*
X141772714Y-124924571D01*
X141915571Y-125638857D01*
X142415571Y-124281714D02*
X141415571Y-124281714D01*
X141701286Y-124281714D02*
X141558429Y-124210286D01*
X141487000Y-124138857D01*
X141415571Y-123996000D01*
X141415571Y-123853143D01*
X139468714Y-119017999D02*
X139540143Y-119089428D01*
X139611571Y-119303714D01*
X139611571Y-119446571D01*
X139540143Y-119660856D01*
X139397286Y-119803714D01*
X139254429Y-119875142D01*
X138968714Y-119946571D01*
X138754429Y-119946571D01*
X138468714Y-119875142D01*
X138325857Y-119803714D01*
X138183000Y-119660856D01*
X138111571Y-119446571D01*
X138111571Y-119303714D01*
X138183000Y-119089428D01*
X138254429Y-119017999D01*
X138611571Y-117732285D02*
X139611571Y-117732285D01*
X138611571Y-118375142D02*
X139397286Y-118375142D01*
X139540143Y-118303714D01*
X139611571Y-118160856D01*
X139611571Y-117946571D01*
X139540143Y-117803714D01*
X139468714Y-117732285D01*
X139611571Y-117017999D02*
X138611571Y-117017999D01*
X138897286Y-117017999D02*
X138754429Y-116946571D01*
X138683000Y-116875142D01*
X138611571Y-116732285D01*
X138611571Y-116589428D01*
X139611571Y-116089428D02*
X138611571Y-116089428D01*
X138897286Y-116089428D02*
X138754429Y-116018000D01*
X138683000Y-115946571D01*
X138611571Y-115803714D01*
X138611571Y-115660857D01*
X139540143Y-114589429D02*
X139611571Y-114732286D01*
X139611571Y-115018000D01*
X139540143Y-115160857D01*
X139397286Y-115232286D01*
X138825857Y-115232286D01*
X138683000Y-115160857D01*
X138611571Y-115018000D01*
X138611571Y-114732286D01*
X138683000Y-114589429D01*
X138825857Y-114518000D01*
X138968714Y-114518000D01*
X139111571Y-115232286D01*
X138611571Y-113875143D02*
X139611571Y-113875143D01*
X138754429Y-113875143D02*
X138683000Y-113803715D01*
X138611571Y-113660857D01*
X138611571Y-113446572D01*
X138683000Y-113303715D01*
X138825857Y-113232286D01*
X139611571Y-113232286D01*
X138611571Y-112732286D02*
X138611571Y-112160857D01*
X138111571Y-112518000D02*
X139397286Y-112518000D01*
X139540143Y-112446572D01*
X139611571Y-112303714D01*
X139611571Y-112160857D01*
X139540143Y-110589429D02*
X139611571Y-110375143D01*
X139611571Y-110018000D01*
X139540143Y-109875143D01*
X139468714Y-109803714D01*
X139325857Y-109732286D01*
X139183000Y-109732286D01*
X139040143Y-109803714D01*
X138968714Y-109875143D01*
X138897286Y-110018000D01*
X138825857Y-110303714D01*
X138754429Y-110446572D01*
X138683000Y-110518000D01*
X138540143Y-110589429D01*
X138397286Y-110589429D01*
X138254429Y-110518000D01*
X138183000Y-110446572D01*
X138111571Y-110303714D01*
X138111571Y-109946572D01*
X138183000Y-109732286D01*
X139540143Y-108518001D02*
X139611571Y-108660858D01*
X139611571Y-108946572D01*
X139540143Y-109089429D01*
X139397286Y-109160858D01*
X138825857Y-109160858D01*
X138683000Y-109089429D01*
X138611571Y-108946572D01*
X138611571Y-108660858D01*
X138683000Y-108518001D01*
X138825857Y-108446572D01*
X138968714Y-108446572D01*
X139111571Y-109160858D01*
X138611571Y-107803715D02*
X139611571Y-107803715D01*
X138754429Y-107803715D02*
X138683000Y-107732287D01*
X138611571Y-107589429D01*
X138611571Y-107375144D01*
X138683000Y-107232287D01*
X138825857Y-107160858D01*
X139611571Y-107160858D01*
X139540143Y-106518001D02*
X139611571Y-106375144D01*
X139611571Y-106089429D01*
X139540143Y-105946572D01*
X139397286Y-105875144D01*
X139325857Y-105875144D01*
X139183000Y-105946572D01*
X139111571Y-106089429D01*
X139111571Y-106303715D01*
X139040143Y-106446572D01*
X138897286Y-106518001D01*
X138825857Y-106518001D01*
X138683000Y-106446572D01*
X138611571Y-106303715D01*
X138611571Y-106089429D01*
X138683000Y-105946572D01*
X139540143Y-104660858D02*
X139611571Y-104803715D01*
X139611571Y-105089429D01*
X139540143Y-105232286D01*
X139397286Y-105303715D01*
X138825857Y-105303715D01*
X138683000Y-105232286D01*
X138611571Y-105089429D01*
X138611571Y-104803715D01*
X138683000Y-104660858D01*
X138825857Y-104589429D01*
X138968714Y-104589429D01*
X139111571Y-105303715D01*
X140661571Y-116446570D02*
X142161571Y-115446570D01*
X140661571Y-115446570D02*
X142161571Y-116446570D01*
X141161571Y-115089428D02*
X141161571Y-114517999D01*
X142161571Y-114875142D02*
X140875857Y-114875142D01*
X140733000Y-114803714D01*
X140661571Y-114660856D01*
X140661571Y-114517999D01*
X142161571Y-113803713D02*
X142090143Y-113946571D01*
X142018714Y-114017999D01*
X141875857Y-114089428D01*
X141447286Y-114089428D01*
X141304429Y-114017999D01*
X141233000Y-113946571D01*
X141161571Y-113803713D01*
X141161571Y-113589428D01*
X141233000Y-113446571D01*
X141304429Y-113375142D01*
X141447286Y-113303713D01*
X141875857Y-113303713D01*
X142018714Y-113375142D01*
X142090143Y-113446571D01*
X142161571Y-113589428D01*
X142161571Y-113803713D01*
X142161571Y-112660856D02*
X141161571Y-112660856D01*
X141447286Y-112660856D02*
X141304429Y-112589428D01*
X141233000Y-112517999D01*
X141161571Y-112375142D01*
X141161571Y-112232285D01*
X142161571Y-111732285D02*
X141161571Y-111732285D01*
X141304429Y-111732285D02*
X141233000Y-111660857D01*
X141161571Y-111517999D01*
X141161571Y-111303714D01*
X141233000Y-111160857D01*
X141375857Y-111089428D01*
X142161571Y-111089428D01*
X141375857Y-111089428D02*
X141233000Y-111017999D01*
X141161571Y-110875142D01*
X141161571Y-110660857D01*
X141233000Y-110517999D01*
X141375857Y-110446571D01*
X142161571Y-110446571D01*
X142090143Y-109160857D02*
X142161571Y-109303714D01*
X142161571Y-109589428D01*
X142090143Y-109732285D01*
X141947286Y-109803714D01*
X141375857Y-109803714D01*
X141233000Y-109732285D01*
X141161571Y-109589428D01*
X141161571Y-109303714D01*
X141233000Y-109160857D01*
X141375857Y-109089428D01*
X141518714Y-109089428D01*
X141661571Y-109803714D01*
X142161571Y-108446571D02*
X141161571Y-108446571D01*
X141447286Y-108446571D02*
X141304429Y-108375143D01*
X141233000Y-108303714D01*
X141161571Y-108160857D01*
X141161571Y-108018000D01*
X92630572Y-71798571D02*
X91773429Y-71798571D01*
X92202001Y-71798571D02*
X92202001Y-70298571D01*
X92059144Y-70512857D01*
X91916286Y-70655714D01*
X91773429Y-70727143D01*
X71060571Y-88109713D02*
X71060571Y-87252570D01*
X72560571Y-87681141D02*
X71060571Y-87681141D01*
X72417714Y-85895427D02*
X72489143Y-85966856D01*
X72560571Y-86181142D01*
X72560571Y-86323999D01*
X72489143Y-86538284D01*
X72346286Y-86681142D01*
X72203429Y-86752570D01*
X71917714Y-86823999D01*
X71703429Y-86823999D01*
X71417714Y-86752570D01*
X71274857Y-86681142D01*
X71132000Y-86538284D01*
X71060571Y-86323999D01*
X71060571Y-86181142D01*
X71132000Y-85966856D01*
X71203429Y-85895427D01*
X71560571Y-84609713D02*
X72560571Y-84609713D01*
X70989143Y-84966856D02*
X72060571Y-85323999D01*
X72060571Y-84395427D01*
X71560571Y-83181142D02*
X72560571Y-83181142D01*
X70989143Y-83538285D02*
X72060571Y-83895428D01*
X72060571Y-82966856D01*
X71203429Y-82466857D02*
X71132000Y-82395428D01*
X71060571Y-82252571D01*
X71060571Y-81895428D01*
X71132000Y-81752571D01*
X71203429Y-81681142D01*
X71346286Y-81609714D01*
X71489143Y-81609714D01*
X71703429Y-81681142D01*
X72560571Y-82538285D01*
X72560571Y-81609714D01*
X71060571Y-80681143D02*
X71060571Y-80538286D01*
X71132000Y-80395429D01*
X71203429Y-80324000D01*
X71346286Y-80252571D01*
X71632000Y-80181143D01*
X71989143Y-80181143D01*
X72274857Y-80252571D01*
X72417714Y-80324000D01*
X72489143Y-80395429D01*
X72560571Y-80538286D01*
X72560571Y-80681143D01*
X72489143Y-80824000D01*
X72417714Y-80895429D01*
X72274857Y-80966857D01*
X71989143Y-81038286D01*
X71632000Y-81038286D01*
X71346286Y-80966857D01*
X71203429Y-80895429D01*
X71132000Y-80824000D01*
X71060571Y-80681143D01*
X90852572Y-137076571D02*
X89995429Y-137076571D01*
X90424001Y-137076571D02*
X90424001Y-135576571D01*
X90281144Y-135790857D01*
X90138286Y-135933714D01*
X89995429Y-136005143D01*
X77136572Y-88816571D02*
X76279429Y-88816571D01*
X76708001Y-88816571D02*
X76708001Y-87316571D01*
X76565144Y-87530857D01*
X76422286Y-87673714D01*
X76279429Y-87745143D01*
X74596572Y-88816571D02*
X73739429Y-88816571D01*
X74168001Y-88816571D02*
X74168001Y-87316571D01*
X74025144Y-87530857D01*
X73882286Y-87673714D01*
X73739429Y-87745143D01*
X77390572Y-66464571D02*
X76533429Y-66464571D01*
X76962001Y-66464571D02*
X76962001Y-64964571D01*
X76819144Y-65178857D01*
X76676286Y-65321714D01*
X76533429Y-65393143D01*
X70410001Y-137076571D02*
X69695715Y-137076571D01*
X69695715Y-135576571D01*
X70910001Y-137076571D02*
X70910001Y-135576571D01*
X71410001Y-136648000D01*
X71910001Y-135576571D01*
X71910001Y-137076571D01*
X72481430Y-135576571D02*
X73481430Y-135576571D01*
X72838573Y-137076571D01*
X74267144Y-136219429D02*
X74124286Y-136148000D01*
X74052858Y-136076571D01*
X73981429Y-135933714D01*
X73981429Y-135862286D01*
X74052858Y-135719429D01*
X74124286Y-135648000D01*
X74267144Y-135576571D01*
X74552858Y-135576571D01*
X74695715Y-135648000D01*
X74767144Y-135719429D01*
X74838572Y-135862286D01*
X74838572Y-135933714D01*
X74767144Y-136076571D01*
X74695715Y-136148000D01*
X74552858Y-136219429D01*
X74267144Y-136219429D01*
X74124286Y-136290857D01*
X74052858Y-136362286D01*
X73981429Y-136505143D01*
X73981429Y-136790857D01*
X74052858Y-136933714D01*
X74124286Y-137005143D01*
X74267144Y-137076571D01*
X74552858Y-137076571D01*
X74695715Y-137005143D01*
X74767144Y-136933714D01*
X74838572Y-136790857D01*
X74838572Y-136505143D01*
X74767144Y-136362286D01*
X74695715Y-136290857D01*
X74552858Y-136219429D01*
X76267143Y-137076571D02*
X75410000Y-137076571D01*
X75838572Y-137076571D02*
X75838572Y-135576571D01*
X75695715Y-135790857D01*
X75552857Y-135933714D01*
X75410000Y-136005143D01*
X77624286Y-135576571D02*
X76910000Y-135576571D01*
X76838571Y-136290857D01*
X76910000Y-136219429D01*
X77052857Y-136148000D01*
X77410000Y-136148000D01*
X77552857Y-136219429D01*
X77624286Y-136290857D01*
X77695714Y-136433714D01*
X77695714Y-136790857D01*
X77624286Y-136933714D01*
X77552857Y-137005143D01*
X77410000Y-137076571D01*
X77052857Y-137076571D01*
X76910000Y-137005143D01*
X76838571Y-136933714D01*
X129868571Y-82945713D02*
X129868571Y-83659999D01*
X128368571Y-83659999D01*
X129868571Y-82445713D02*
X128368571Y-82445713D01*
X129440000Y-81945713D01*
X128368571Y-81445713D01*
X129868571Y-81445713D01*
X128368571Y-80874284D02*
X128368571Y-79945713D01*
X128940000Y-80445713D01*
X128940000Y-80231427D01*
X129011429Y-80088570D01*
X129082857Y-80017141D01*
X129225714Y-79945713D01*
X129582857Y-79945713D01*
X129725714Y-80017141D01*
X129797143Y-80088570D01*
X129868571Y-80231427D01*
X129868571Y-80659999D01*
X129797143Y-80802856D01*
X129725714Y-80874284D01*
X128368571Y-79445713D02*
X128368571Y-78517142D01*
X128940000Y-79017142D01*
X128940000Y-78802856D01*
X129011429Y-78659999D01*
X129082857Y-78588570D01*
X129225714Y-78517142D01*
X129582857Y-78517142D01*
X129725714Y-78588570D01*
X129797143Y-78659999D01*
X129868571Y-78802856D01*
X129868571Y-79231428D01*
X129797143Y-79374285D01*
X129725714Y-79445713D01*
X129868571Y-77802857D02*
X129868571Y-77517142D01*
X129797143Y-77374285D01*
X129725714Y-77302857D01*
X129511429Y-77159999D01*
X129225714Y-77088571D01*
X128654286Y-77088571D01*
X128511429Y-77159999D01*
X128440000Y-77231428D01*
X128368571Y-77374285D01*
X128368571Y-77659999D01*
X128440000Y-77802857D01*
X128511429Y-77874285D01*
X128654286Y-77945714D01*
X129011429Y-77945714D01*
X129154286Y-77874285D01*
X129225714Y-77802857D01*
X129297143Y-77659999D01*
X129297143Y-77374285D01*
X129225714Y-77231428D01*
X129154286Y-77159999D01*
X129011429Y-77088571D01*
X97563714Y-84883141D02*
X97635143Y-84954570D01*
X97706571Y-85168856D01*
X97706571Y-85311713D01*
X97635143Y-85525998D01*
X97492286Y-85668856D01*
X97349429Y-85740284D01*
X97063714Y-85811713D01*
X96849429Y-85811713D01*
X96563714Y-85740284D01*
X96420857Y-85668856D01*
X96278000Y-85525998D01*
X96206571Y-85311713D01*
X96206571Y-85168856D01*
X96278000Y-84954570D01*
X96349429Y-84883141D01*
X97706571Y-84240284D02*
X96206571Y-84240284D01*
X96206571Y-83883141D01*
X96278000Y-83668856D01*
X96420857Y-83525998D01*
X96563714Y-83454570D01*
X96849429Y-83383141D01*
X97063714Y-83383141D01*
X97349429Y-83454570D01*
X97492286Y-83525998D01*
X97635143Y-83668856D01*
X97706571Y-83883141D01*
X97706571Y-84240284D01*
X96706571Y-82097427D02*
X97706571Y-82097427D01*
X96135143Y-82454570D02*
X97206571Y-82811713D01*
X97206571Y-81883141D01*
X96206571Y-81025999D02*
X96206571Y-80883142D01*
X96278000Y-80740285D01*
X96349429Y-80668856D01*
X96492286Y-80597427D01*
X96778000Y-80525999D01*
X97135143Y-80525999D01*
X97420857Y-80597427D01*
X97563714Y-80668856D01*
X97635143Y-80740285D01*
X97706571Y-80883142D01*
X97706571Y-81025999D01*
X97635143Y-81168856D01*
X97563714Y-81240285D01*
X97420857Y-81311713D01*
X97135143Y-81383142D01*
X96778000Y-81383142D01*
X96492286Y-81311713D01*
X96349429Y-81240285D01*
X96278000Y-81168856D01*
X96206571Y-81025999D01*
X97706571Y-79097428D02*
X97706571Y-79954571D01*
X97706571Y-79525999D02*
X96206571Y-79525999D01*
X96420857Y-79668856D01*
X96563714Y-79811714D01*
X96635143Y-79954571D01*
X96206571Y-78168857D02*
X96206571Y-78026000D01*
X96278000Y-77883143D01*
X96349429Y-77811714D01*
X96492286Y-77740285D01*
X96778000Y-77668857D01*
X97135143Y-77668857D01*
X97420857Y-77740285D01*
X97563714Y-77811714D01*
X97635143Y-77883143D01*
X97706571Y-78026000D01*
X97706571Y-78168857D01*
X97635143Y-78311714D01*
X97563714Y-78383143D01*
X97420857Y-78454571D01*
X97135143Y-78526000D01*
X96778000Y-78526000D01*
X96492286Y-78454571D01*
X96349429Y-78383143D01*
X96278000Y-78311714D01*
X96206571Y-78168857D01*
X96206571Y-76383143D02*
X96206571Y-76668857D01*
X96278000Y-76811714D01*
X96349429Y-76883143D01*
X96563714Y-77026000D01*
X96849429Y-77097429D01*
X97420857Y-77097429D01*
X97563714Y-77026000D01*
X97635143Y-76954572D01*
X97706571Y-76811714D01*
X97706571Y-76526000D01*
X97635143Y-76383143D01*
X97563714Y-76311714D01*
X97420857Y-76240286D01*
X97063714Y-76240286D01*
X96920857Y-76311714D01*
X96849429Y-76383143D01*
X96778000Y-76526000D01*
X96778000Y-76811714D01*
X96849429Y-76954572D01*
X96920857Y-77026000D01*
X97063714Y-77097429D01*
X71568571Y-65503713D02*
X71568571Y-64646570D01*
X73068571Y-65075141D02*
X71568571Y-65075141D01*
X72925714Y-63289427D02*
X72997143Y-63360856D01*
X73068571Y-63575142D01*
X73068571Y-63717999D01*
X72997143Y-63932284D01*
X72854286Y-64075142D01*
X72711429Y-64146570D01*
X72425714Y-64217999D01*
X72211429Y-64217999D01*
X71925714Y-64146570D01*
X71782857Y-64075142D01*
X71640000Y-63932284D01*
X71568571Y-63717999D01*
X71568571Y-63575142D01*
X71640000Y-63360856D01*
X71711429Y-63289427D01*
X72068571Y-62003713D02*
X73068571Y-62003713D01*
X71497143Y-62360856D02*
X72568571Y-62717999D01*
X72568571Y-61789427D01*
X72068571Y-60575142D02*
X73068571Y-60575142D01*
X71497143Y-60932285D02*
X72568571Y-61289428D01*
X72568571Y-60360856D01*
X71711429Y-59860857D02*
X71640000Y-59789428D01*
X71568571Y-59646571D01*
X71568571Y-59289428D01*
X71640000Y-59146571D01*
X71711429Y-59075142D01*
X71854286Y-59003714D01*
X71997143Y-59003714D01*
X72211429Y-59075142D01*
X73068571Y-59932285D01*
X73068571Y-59003714D01*
X71568571Y-58075143D02*
X71568571Y-57932286D01*
X71640000Y-57789429D01*
X71711429Y-57718000D01*
X71854286Y-57646571D01*
X72140000Y-57575143D01*
X72497143Y-57575143D01*
X72782857Y-57646571D01*
X72925714Y-57718000D01*
X72997143Y-57789429D01*
X73068571Y-57932286D01*
X73068571Y-58075143D01*
X72997143Y-58218000D01*
X72925714Y-58289429D01*
X72782857Y-58360857D01*
X72497143Y-58432286D01*
X72140000Y-58432286D01*
X71854286Y-58360857D01*
X71711429Y-58289429D01*
X71640000Y-58218000D01*
X71568571Y-58075143D01*
X114132713Y-49464343D02*
X114632713Y-49464343D01*
X114632713Y-48678629D02*
X114632713Y-50178629D01*
X113918427Y-50178629D01*
X113346999Y-48678629D02*
X113346999Y-49678629D01*
X113346999Y-49392914D02*
X113275571Y-49535771D01*
X113204142Y-49607200D01*
X113061285Y-49678629D01*
X112918428Y-49678629D01*
X111847000Y-48750057D02*
X111989857Y-48678629D01*
X112275571Y-48678629D01*
X112418428Y-48750057D01*
X112489857Y-48892914D01*
X112489857Y-49464343D01*
X112418428Y-49607200D01*
X112275571Y-49678629D01*
X111989857Y-49678629D01*
X111847000Y-49607200D01*
X111775571Y-49464343D01*
X111775571Y-49321486D01*
X112489857Y-49178629D01*
X110489857Y-49678629D02*
X110489857Y-48178629D01*
X110489857Y-48750057D02*
X110632714Y-48678629D01*
X110918428Y-48678629D01*
X111061286Y-48750057D01*
X111132714Y-48821486D01*
X111204143Y-48964343D01*
X111204143Y-49392914D01*
X111132714Y-49535771D01*
X111061286Y-49607200D01*
X110918428Y-49678629D01*
X110632714Y-49678629D01*
X110489857Y-49607200D01*
X109132714Y-49678629D02*
X109132714Y-48678629D01*
X109775571Y-49678629D02*
X109775571Y-48892914D01*
X109704143Y-48750057D01*
X109561285Y-48678629D01*
X109347000Y-48678629D01*
X109204143Y-48750057D01*
X109132714Y-48821486D01*
X107847000Y-48750057D02*
X107989857Y-48678629D01*
X108275571Y-48678629D01*
X108418428Y-48750057D01*
X108489857Y-48892914D01*
X108489857Y-49464343D01*
X108418428Y-49607200D01*
X108275571Y-49678629D01*
X107989857Y-49678629D01*
X107847000Y-49607200D01*
X107775571Y-49464343D01*
X107775571Y-49321486D01*
X108489857Y-49178629D01*
X107132714Y-49678629D02*
X107132714Y-48678629D01*
X107132714Y-49535771D02*
X107061286Y-49607200D01*
X106918428Y-49678629D01*
X106704143Y-49678629D01*
X106561286Y-49607200D01*
X106489857Y-49464343D01*
X106489857Y-48678629D01*
X105132714Y-48750057D02*
X105275571Y-48678629D01*
X105561285Y-48678629D01*
X105704143Y-48750057D01*
X105775571Y-48821486D01*
X105847000Y-48964343D01*
X105847000Y-49392914D01*
X105775571Y-49535771D01*
X105704143Y-49607200D01*
X105561285Y-49678629D01*
X105275571Y-49678629D01*
X105132714Y-49607200D01*
X104632714Y-49678629D02*
X104275571Y-48678629D01*
X103918429Y-49678629D02*
X104275571Y-48678629D01*
X104418429Y-48321486D01*
X104489857Y-48250057D01*
X104632714Y-48178629D01*
X112454143Y-46557200D02*
X111739857Y-46557200D01*
X112597000Y-46128629D02*
X112097000Y-47628629D01*
X111597000Y-46128629D01*
X110454143Y-46128629D02*
X110454143Y-47628629D01*
X110454143Y-46200057D02*
X110597000Y-46128629D01*
X110882714Y-46128629D01*
X111025572Y-46200057D01*
X111097000Y-46271486D01*
X111168429Y-46414343D01*
X111168429Y-46842914D01*
X111097000Y-46985771D01*
X111025572Y-47057200D01*
X110882714Y-47128629D01*
X110597000Y-47128629D01*
X110454143Y-47057200D01*
X109739857Y-47128629D02*
X109739857Y-45842914D01*
X109811286Y-45700057D01*
X109954143Y-45628629D01*
X110025571Y-45628629D01*
X109739857Y-47628629D02*
X109811286Y-47557200D01*
X109739857Y-47485771D01*
X109668429Y-47557200D01*
X109739857Y-47628629D01*
X109739857Y-47485771D01*
X108382714Y-47128629D02*
X108382714Y-46128629D01*
X109025571Y-47128629D02*
X109025571Y-46342914D01*
X108954143Y-46200057D01*
X108811285Y-46128629D01*
X108597000Y-46128629D01*
X108454143Y-46200057D01*
X108382714Y-46271486D01*
X107739857Y-46200057D02*
X107597000Y-46128629D01*
X107311285Y-46128629D01*
X107168428Y-46200057D01*
X107097000Y-46342914D01*
X107097000Y-46414343D01*
X107168428Y-46557200D01*
X107311285Y-46628629D01*
X107525571Y-46628629D01*
X107668428Y-46700057D01*
X107739857Y-46842914D01*
X107739857Y-46914343D01*
X107668428Y-47057200D01*
X107525571Y-47128629D01*
X107311285Y-47128629D01*
X107168428Y-47057200D01*
X106668428Y-47128629D02*
X106096999Y-47128629D01*
X106454142Y-47628629D02*
X106454142Y-46342914D01*
X106382714Y-46200057D01*
X106239856Y-46128629D01*
X106096999Y-46128629D01*
X135633599Y-50661229D02*
X135347885Y-50661229D01*
X135205027Y-50589800D01*
X135062170Y-50446943D01*
X134990742Y-50161229D01*
X134990742Y-49661229D01*
X135062170Y-49375514D01*
X135205027Y-49232657D01*
X135347885Y-49161229D01*
X135633599Y-49161229D01*
X135776456Y-49232657D01*
X135919313Y-49375514D01*
X135990742Y-49661229D01*
X135990742Y-50161229D01*
X135919313Y-50446943D01*
X135776456Y-50589800D01*
X135633599Y-50661229D01*
X134490741Y-50161229D02*
X134133598Y-49161229D01*
X133776456Y-50161229D01*
X132633599Y-49232657D02*
X132776456Y-49161229D01*
X133062170Y-49161229D01*
X133205027Y-49232657D01*
X133276456Y-49375514D01*
X133276456Y-49946943D01*
X133205027Y-50089800D01*
X133062170Y-50161229D01*
X132776456Y-50161229D01*
X132633599Y-50089800D01*
X132562170Y-49946943D01*
X132562170Y-49804086D01*
X133276456Y-49661229D01*
X131919313Y-49161229D02*
X131919313Y-50161229D01*
X131919313Y-49875514D02*
X131847885Y-50018371D01*
X131776456Y-50089800D01*
X131633599Y-50161229D01*
X131490742Y-50161229D01*
X128990742Y-49304086D02*
X129062171Y-49232657D01*
X129276457Y-49161229D01*
X129419314Y-49161229D01*
X129633599Y-49232657D01*
X129776457Y-49375514D01*
X129847885Y-49518371D01*
X129919314Y-49804086D01*
X129919314Y-50018371D01*
X129847885Y-50304086D01*
X129776457Y-50446943D01*
X129633599Y-50589800D01*
X129419314Y-50661229D01*
X129276457Y-50661229D01*
X129062171Y-50589800D01*
X128990742Y-50518371D01*
X127705028Y-50161229D02*
X127705028Y-49161229D01*
X128347885Y-50161229D02*
X128347885Y-49375514D01*
X128276457Y-49232657D01*
X128133599Y-49161229D01*
X127919314Y-49161229D01*
X127776457Y-49232657D01*
X127705028Y-49304086D01*
X126990742Y-49161229D02*
X126990742Y-50161229D01*
X126990742Y-49875514D02*
X126919314Y-50018371D01*
X126847885Y-50089800D01*
X126705028Y-50161229D01*
X126562171Y-50161229D01*
X126062171Y-49161229D02*
X126062171Y-50161229D01*
X126062171Y-49875514D02*
X125990743Y-50018371D01*
X125919314Y-50089800D01*
X125776457Y-50161229D01*
X125633600Y-50161229D01*
X124562172Y-49232657D02*
X124705029Y-49161229D01*
X124990743Y-49161229D01*
X125133600Y-49232657D01*
X125205029Y-49375514D01*
X125205029Y-49946943D01*
X125133600Y-50089800D01*
X124990743Y-50161229D01*
X124705029Y-50161229D01*
X124562172Y-50089800D01*
X124490743Y-49946943D01*
X124490743Y-49804086D01*
X125205029Y-49661229D01*
X123847886Y-50161229D02*
X123847886Y-49161229D01*
X123847886Y-50018371D02*
X123776458Y-50089800D01*
X123633600Y-50161229D01*
X123419315Y-50161229D01*
X123276458Y-50089800D01*
X123205029Y-49946943D01*
X123205029Y-49161229D01*
X122705029Y-50161229D02*
X122133600Y-50161229D01*
X122490743Y-50661229D02*
X122490743Y-49375514D01*
X122419315Y-49232657D01*
X122276457Y-49161229D01*
X122133600Y-49161229D01*
X132240743Y-47039800D02*
X131526457Y-47039800D01*
X132383600Y-46611229D02*
X131883600Y-48111229D01*
X131383600Y-46611229D01*
X130240743Y-46611229D02*
X130240743Y-48111229D01*
X130240743Y-46682657D02*
X130383600Y-46611229D01*
X130669314Y-46611229D01*
X130812172Y-46682657D01*
X130883600Y-46754086D01*
X130955029Y-46896943D01*
X130955029Y-47325514D01*
X130883600Y-47468371D01*
X130812172Y-47539800D01*
X130669314Y-47611229D01*
X130383600Y-47611229D01*
X130240743Y-47539800D01*
X129526457Y-47611229D02*
X129526457Y-46325514D01*
X129597886Y-46182657D01*
X129740743Y-46111229D01*
X129812171Y-46111229D01*
X129526457Y-48111229D02*
X129597886Y-48039800D01*
X129526457Y-47968371D01*
X129455029Y-48039800D01*
X129526457Y-48111229D01*
X129526457Y-47968371D01*
X128169314Y-47611229D02*
X128169314Y-46611229D01*
X128812171Y-47611229D02*
X128812171Y-46825514D01*
X128740743Y-46682657D01*
X128597885Y-46611229D01*
X128383600Y-46611229D01*
X128240743Y-46682657D01*
X128169314Y-46754086D01*
X127526457Y-46682657D02*
X127383600Y-46611229D01*
X127097885Y-46611229D01*
X126955028Y-46682657D01*
X126883600Y-46825514D01*
X126883600Y-46896943D01*
X126955028Y-47039800D01*
X127097885Y-47111229D01*
X127312171Y-47111229D01*
X127455028Y-47182657D01*
X127526457Y-47325514D01*
X127526457Y-47396943D01*
X127455028Y-47539800D01*
X127312171Y-47611229D01*
X127097885Y-47611229D01*
X126955028Y-47539800D01*
X126455028Y-47611229D02*
X125883599Y-47611229D01*
X126240742Y-48111229D02*
X126240742Y-46825514D01*
X126169314Y-46682657D01*
X126026456Y-46611229D01*
X125883599Y-46611229D01*
X49264000Y-58647715D02*
X49335429Y-58504858D01*
X49335429Y-58290572D01*
X49264000Y-58076287D01*
X49121143Y-57933429D01*
X48978286Y-57862001D01*
X48692571Y-57790572D01*
X48478286Y-57790572D01*
X48192571Y-57862001D01*
X48049714Y-57933429D01*
X47906857Y-58076287D01*
X47835429Y-58290572D01*
X47835429Y-58433429D01*
X47906857Y-58647715D01*
X47978286Y-58719144D01*
X48478286Y-58719144D01*
X48478286Y-58433429D01*
X47835429Y-60004858D02*
X48621143Y-60004858D01*
X48764000Y-59933429D01*
X48835429Y-59790572D01*
X48835429Y-59504858D01*
X48764000Y-59362001D01*
X47906857Y-60004858D02*
X47835429Y-59862001D01*
X47835429Y-59504858D01*
X47906857Y-59362001D01*
X48049714Y-59290572D01*
X48192571Y-59290572D01*
X48335429Y-59362001D01*
X48406857Y-59504858D01*
X48406857Y-59862001D01*
X48478286Y-60004858D01*
X48835429Y-60504858D02*
X48835429Y-61076287D01*
X49335429Y-60719144D02*
X48049714Y-60719144D01*
X47906857Y-60790572D01*
X47835429Y-60933430D01*
X47835429Y-61076287D01*
X47906857Y-62147715D02*
X47835429Y-62004858D01*
X47835429Y-61719144D01*
X47906857Y-61576287D01*
X48049714Y-61504858D01*
X48621143Y-61504858D01*
X48764000Y-61576287D01*
X48835429Y-61719144D01*
X48835429Y-62004858D01*
X48764000Y-62147715D01*
X48621143Y-62219144D01*
X48478286Y-62219144D01*
X48335429Y-61504858D01*
X47835429Y-64004858D02*
X49335429Y-64004858D01*
X49335429Y-64362001D01*
X49264000Y-64576286D01*
X49121143Y-64719144D01*
X48978286Y-64790572D01*
X48692571Y-64862001D01*
X48478286Y-64862001D01*
X48192571Y-64790572D01*
X48049714Y-64719144D01*
X47906857Y-64576286D01*
X47835429Y-64362001D01*
X47835429Y-64004858D01*
X47835429Y-65504858D02*
X48835429Y-65504858D01*
X48549714Y-65504858D02*
X48692571Y-65576286D01*
X48764000Y-65647715D01*
X48835429Y-65790572D01*
X48835429Y-65933429D01*
X47835429Y-66433429D02*
X48835429Y-66433429D01*
X49335429Y-66433429D02*
X49264000Y-66362000D01*
X49192571Y-66433429D01*
X49264000Y-66504857D01*
X49335429Y-66433429D01*
X49192571Y-66433429D01*
X48835429Y-67004858D02*
X47835429Y-67362001D01*
X48835429Y-67719143D01*
X47906857Y-68862000D02*
X47835429Y-68719143D01*
X47835429Y-68433429D01*
X47906857Y-68290572D01*
X48049714Y-68219143D01*
X48621143Y-68219143D01*
X48764000Y-68290572D01*
X48835429Y-68433429D01*
X48835429Y-68719143D01*
X48764000Y-68862000D01*
X48621143Y-68933429D01*
X48478286Y-68933429D01*
X48335429Y-68219143D01*
X49335429Y-70504857D02*
X49335429Y-71362000D01*
X47835429Y-70933429D02*
X49335429Y-70933429D01*
X47835429Y-71862000D02*
X48835429Y-71862000D01*
X48549714Y-71862000D02*
X48692571Y-71933428D01*
X48764000Y-72004857D01*
X48835429Y-72147714D01*
X48835429Y-72290571D01*
X47835429Y-73433428D02*
X48621143Y-73433428D01*
X48764000Y-73361999D01*
X48835429Y-73219142D01*
X48835429Y-72933428D01*
X48764000Y-72790571D01*
X47906857Y-73433428D02*
X47835429Y-73290571D01*
X47835429Y-72933428D01*
X47906857Y-72790571D01*
X48049714Y-72719142D01*
X48192571Y-72719142D01*
X48335429Y-72790571D01*
X48406857Y-72933428D01*
X48406857Y-73290571D01*
X48478286Y-73433428D01*
X48835429Y-74147714D02*
X47835429Y-74147714D01*
X48692571Y-74147714D02*
X48764000Y-74219142D01*
X48835429Y-74362000D01*
X48835429Y-74576285D01*
X48764000Y-74719142D01*
X48621143Y-74790571D01*
X47835429Y-74790571D01*
X47906857Y-75433428D02*
X47835429Y-75576285D01*
X47835429Y-75862000D01*
X47906857Y-76004857D01*
X48049714Y-76076285D01*
X48121143Y-76076285D01*
X48264000Y-76004857D01*
X48335429Y-75862000D01*
X48335429Y-75647714D01*
X48406857Y-75504857D01*
X48549714Y-75433428D01*
X48621143Y-75433428D01*
X48764000Y-75504857D01*
X48835429Y-75647714D01*
X48835429Y-75862000D01*
X48764000Y-76004857D01*
X48835429Y-76504857D02*
X48835429Y-77076286D01*
X47835429Y-76719143D02*
X49121143Y-76719143D01*
X49264000Y-76790571D01*
X49335429Y-76933429D01*
X49335429Y-77076286D01*
X47835429Y-77790572D02*
X47906857Y-77647714D01*
X47978286Y-77576286D01*
X48121143Y-77504857D01*
X48549714Y-77504857D01*
X48692571Y-77576286D01*
X48764000Y-77647714D01*
X48835429Y-77790572D01*
X48835429Y-78004857D01*
X48764000Y-78147714D01*
X48692571Y-78219143D01*
X48549714Y-78290572D01*
X48121143Y-78290572D01*
X47978286Y-78219143D01*
X47906857Y-78147714D01*
X47835429Y-78004857D01*
X47835429Y-77790572D01*
X47835429Y-78933429D02*
X48835429Y-78933429D01*
X48549714Y-78933429D02*
X48692571Y-79004857D01*
X48764000Y-79076286D01*
X48835429Y-79219143D01*
X48835429Y-79362000D01*
X47835429Y-79862000D02*
X48835429Y-79862000D01*
X48692571Y-79862000D02*
X48764000Y-79933428D01*
X48835429Y-80076286D01*
X48835429Y-80290571D01*
X48764000Y-80433428D01*
X48621143Y-80504857D01*
X47835429Y-80504857D01*
X48621143Y-80504857D02*
X48764000Y-80576286D01*
X48835429Y-80719143D01*
X48835429Y-80933428D01*
X48764000Y-81076286D01*
X48621143Y-81147714D01*
X47835429Y-81147714D01*
X47906857Y-82433428D02*
X47835429Y-82290571D01*
X47835429Y-82004857D01*
X47906857Y-81862000D01*
X48049714Y-81790571D01*
X48621143Y-81790571D01*
X48764000Y-81862000D01*
X48835429Y-82004857D01*
X48835429Y-82290571D01*
X48764000Y-82433428D01*
X48621143Y-82504857D01*
X48478286Y-82504857D01*
X48335429Y-81790571D01*
X47835429Y-83147714D02*
X48835429Y-83147714D01*
X48549714Y-83147714D02*
X48692571Y-83219142D01*
X48764000Y-83290571D01*
X48835429Y-83433428D01*
X48835429Y-83576285D01*
X52495144Y-116613714D02*
X52423715Y-116685143D01*
X52209429Y-116756571D01*
X52066572Y-116756571D01*
X51852287Y-116685143D01*
X51709429Y-116542286D01*
X51638001Y-116399429D01*
X51566572Y-116113714D01*
X51566572Y-115899429D01*
X51638001Y-115613714D01*
X51709429Y-115470857D01*
X51852287Y-115328000D01*
X52066572Y-115256571D01*
X52209429Y-115256571D01*
X52423715Y-115328000D01*
X52495144Y-115399429D01*
X53709429Y-116685143D02*
X53566572Y-116756571D01*
X53280858Y-116756571D01*
X53138001Y-116685143D01*
X53066572Y-116542286D01*
X53066572Y-115970857D01*
X53138001Y-115828000D01*
X53280858Y-115756571D01*
X53566572Y-115756571D01*
X53709429Y-115828000D01*
X53780858Y-115970857D01*
X53780858Y-116113714D01*
X53066572Y-116256571D01*
X54423715Y-115756571D02*
X54423715Y-116756571D01*
X54423715Y-115899429D02*
X54495143Y-115828000D01*
X54638001Y-115756571D01*
X54852286Y-115756571D01*
X54995143Y-115828000D01*
X55066572Y-115970857D01*
X55066572Y-116756571D01*
X55566572Y-115756571D02*
X56138001Y-115756571D01*
X55780858Y-115256571D02*
X55780858Y-116542286D01*
X55852286Y-116685143D01*
X55995144Y-116756571D01*
X56138001Y-116756571D01*
X57209429Y-116685143D02*
X57066572Y-116756571D01*
X56780858Y-116756571D01*
X56638001Y-116685143D01*
X56566572Y-116542286D01*
X56566572Y-115970857D01*
X56638001Y-115828000D01*
X56780858Y-115756571D01*
X57066572Y-115756571D01*
X57209429Y-115828000D01*
X57280858Y-115970857D01*
X57280858Y-116113714D01*
X56566572Y-116256571D01*
X57923715Y-116756571D02*
X57923715Y-115756571D01*
X57923715Y-116042286D02*
X57995143Y-115899429D01*
X58066572Y-115828000D01*
X58209429Y-115756571D01*
X58352286Y-115756571D01*
X59995143Y-116185143D02*
X61138000Y-116185143D01*
X60566571Y-116756571D02*
X60566571Y-115613714D01*
X47918730Y-131517200D02*
X48633016Y-131517200D01*
X47775873Y-131945771D02*
X48275873Y-130445771D01*
X48775873Y-131945771D01*
X50133016Y-131802914D02*
X50061587Y-131874343D01*
X49847301Y-131945771D01*
X49704444Y-131945771D01*
X49490159Y-131874343D01*
X49347301Y-131731486D01*
X49275873Y-131588629D01*
X49204444Y-131302914D01*
X49204444Y-131088629D01*
X49275873Y-130802914D01*
X49347301Y-130660057D01*
X49490159Y-130517200D01*
X49704444Y-130445771D01*
X49847301Y-130445771D01*
X50061587Y-130517200D01*
X50133016Y-130588629D01*
X52704444Y-131945771D02*
X51847301Y-131945771D01*
X52275873Y-131945771D02*
X52275873Y-130445771D01*
X52133016Y-130660057D01*
X51990158Y-130802914D01*
X51847301Y-130874343D01*
X53561587Y-131088629D02*
X53418729Y-131017200D01*
X53347301Y-130945771D01*
X53275872Y-130802914D01*
X53275872Y-130731486D01*
X53347301Y-130588629D01*
X53418729Y-130517200D01*
X53561587Y-130445771D01*
X53847301Y-130445771D01*
X53990158Y-130517200D01*
X54061587Y-130588629D01*
X54133015Y-130731486D01*
X54133015Y-130802914D01*
X54061587Y-130945771D01*
X53990158Y-131017200D01*
X53847301Y-131088629D01*
X53561587Y-131088629D01*
X53418729Y-131160057D01*
X53347301Y-131231486D01*
X53275872Y-131374343D01*
X53275872Y-131660057D01*
X53347301Y-131802914D01*
X53418729Y-131874343D01*
X53561587Y-131945771D01*
X53847301Y-131945771D01*
X53990158Y-131874343D01*
X54061587Y-131802914D01*
X54133015Y-131660057D01*
X54133015Y-131374343D01*
X54061587Y-131231486D01*
X53990158Y-131160057D01*
X53847301Y-131088629D01*
X54775872Y-131374343D02*
X55918729Y-131374343D01*
X56561586Y-130588629D02*
X56633015Y-130517200D01*
X56775872Y-130445771D01*
X57133015Y-130445771D01*
X57275872Y-130517200D01*
X57347301Y-130588629D01*
X57418729Y-130731486D01*
X57418729Y-130874343D01*
X57347301Y-131088629D01*
X56490158Y-131945771D01*
X57418729Y-131945771D01*
X58704443Y-130945771D02*
X58704443Y-131945771D01*
X58347300Y-130374343D02*
X57990157Y-131445771D01*
X58918729Y-131445771D01*
X60418728Y-130445771D02*
X60918728Y-131945771D01*
X61418728Y-130445771D01*
X51332287Y-119296571D02*
X51332287Y-117796571D01*
X51689430Y-117796571D01*
X51903715Y-117868000D01*
X52046573Y-118010857D01*
X52118001Y-118153714D01*
X52189430Y-118439429D01*
X52189430Y-118653714D01*
X52118001Y-118939429D01*
X52046573Y-119082286D01*
X51903715Y-119225143D01*
X51689430Y-119296571D01*
X51332287Y-119296571D01*
X53689430Y-119153714D02*
X53618001Y-119225143D01*
X53403715Y-119296571D01*
X53260858Y-119296571D01*
X53046573Y-119225143D01*
X52903715Y-119082286D01*
X52832287Y-118939429D01*
X52760858Y-118653714D01*
X52760858Y-118439429D01*
X52832287Y-118153714D01*
X52903715Y-118010857D01*
X53046573Y-117868000D01*
X53260858Y-117796571D01*
X53403715Y-117796571D01*
X53618001Y-117868000D01*
X53689430Y-117939429D01*
X56260858Y-119296571D02*
X55403715Y-119296571D01*
X55832287Y-119296571D02*
X55832287Y-117796571D01*
X55689430Y-118010857D01*
X55546572Y-118153714D01*
X55403715Y-118225143D01*
X57618001Y-117796571D02*
X56903715Y-117796571D01*
X56832286Y-118510857D01*
X56903715Y-118439429D01*
X57046572Y-118368000D01*
X57403715Y-118368000D01*
X57546572Y-118439429D01*
X57618001Y-118510857D01*
X57689429Y-118653714D01*
X57689429Y-119010857D01*
X57618001Y-119153714D01*
X57546572Y-119225143D01*
X57403715Y-119296571D01*
X57046572Y-119296571D01*
X56903715Y-119225143D01*
X56832286Y-119153714D01*
X58118000Y-117796571D02*
X58618000Y-119296571D01*
X59118000Y-117796571D01*
D12*
X99298000Y-56836000D02*
G75*
G02X97298000Y-56836000I-1000000J0D01*
G01*
X97298000Y-56836000D02*
X95648000Y-56836000D01*
X95648000Y-56836000D02*
X95648000Y-64576000D01*
X95648000Y-64576000D02*
X100948000Y-64576000D01*
X100948000Y-64576000D02*
X100948000Y-56836000D01*
X100948000Y-56836000D02*
X99298000Y-56836000D01*
X93158000Y-56776000D02*
X93158000Y-64636000D01*
X93158000Y-64636000D02*
X103438000Y-64636000D01*
X103438000Y-64636000D02*
X103438000Y-56776000D01*
X103438000Y-56776000D02*
X93158000Y-56776000D01*
X138020000Y-73170000D02*
X135400000Y-73170000D01*
X135400000Y-73170000D02*
X135400000Y-79590000D01*
X135400000Y-79590000D02*
X138020000Y-79590000D01*
X138020000Y-79590000D02*
X138020000Y-73170000D01*
X136710000Y-72280000D02*
X136710000Y-73170000D01*
X136710000Y-80480000D02*
X136710000Y-79590000D01*
X139630000Y-98310000D02*
X139630000Y-95690000D01*
X139630000Y-95690000D02*
X133210000Y-95690000D01*
X133210000Y-95690000D02*
X133210000Y-98310000D01*
X133210000Y-98310000D02*
X139630000Y-98310000D01*
X140520000Y-97000000D02*
X139630000Y-97000000D01*
X132320000Y-97000000D02*
X133210000Y-97000000D01*
X81240000Y-86522000D02*
X83860000Y-86522000D01*
X83860000Y-86522000D02*
X83860000Y-80102000D01*
X83860000Y-80102000D02*
X81240000Y-80102000D01*
X81240000Y-80102000D02*
X81240000Y-86522000D01*
X82550000Y-87412000D02*
X82550000Y-86522000D01*
X82550000Y-79212000D02*
X82550000Y-80102000D01*
D13*
X99274000Y-137958000D02*
X99274000Y-138458000D01*
X94274000Y-136458000D02*
X104274000Y-136458000D01*
X94274000Y-131558000D02*
X104274000Y-131558000D01*
X94274000Y-137958000D02*
X104274000Y-137958000D01*
X94274000Y-138458000D02*
X104274000Y-138458000D01*
X104274000Y-138458000D02*
X104274000Y-128658000D01*
X104274000Y-128658000D02*
X94274000Y-128658000D01*
X94274000Y-128658000D02*
X94274000Y-138458000D01*
X103774000Y-133958000D02*
G75*
G03X103774000Y-133958000I-2000000J0D01*
G01*
X98774000Y-133958000D02*
G75*
G03X98774000Y-133958000I-2000000J0D01*
G01*
D12*
X83738000Y-112776000D02*
G75*
G03X83738000Y-112776000I-7090000J0D01*
G01*
X76648000Y-105726000D02*
X76648000Y-119826000D01*
X76688000Y-105726000D02*
X76688000Y-119826000D01*
X76728000Y-105726000D02*
X76728000Y-119826000D01*
X76768000Y-105727000D02*
X76768000Y-119825000D01*
X76808000Y-105727000D02*
X76808000Y-119825000D01*
X76848000Y-105728000D02*
X76848000Y-119824000D01*
X76888000Y-105730000D02*
X76888000Y-119822000D01*
X76928000Y-105731000D02*
X76928000Y-119821000D01*
X76968000Y-105733000D02*
X76968000Y-119819000D01*
X77008000Y-105735000D02*
X77008000Y-119817000D01*
X77048000Y-105737000D02*
X77048000Y-119815000D01*
X77088000Y-105739000D02*
X77088000Y-119813000D01*
X77128000Y-105742000D02*
X77128000Y-119810000D01*
X77168000Y-105745000D02*
X77168000Y-119807000D01*
X77208000Y-105748000D02*
X77208000Y-119804000D01*
X77248000Y-105751000D02*
X77248000Y-119801000D01*
X77288000Y-105754000D02*
X77288000Y-119798000D01*
X77328000Y-105758000D02*
X77328000Y-119794000D01*
X77369000Y-105762000D02*
X77369000Y-119790000D01*
X77409000Y-105766000D02*
X77409000Y-119786000D01*
X77449000Y-105771000D02*
X77449000Y-119781000D01*
X77489000Y-105775000D02*
X77489000Y-119777000D01*
X77529000Y-105780000D02*
X77529000Y-119772000D01*
X77569000Y-105785000D02*
X77569000Y-119767000D01*
X77609000Y-105791000D02*
X77609000Y-119761000D01*
X77649000Y-105796000D02*
X77649000Y-119756000D01*
X77689000Y-105802000D02*
X77689000Y-119750000D01*
X77729000Y-105808000D02*
X77729000Y-119744000D01*
X77769000Y-105815000D02*
X77769000Y-119737000D01*
X77809000Y-105821000D02*
X77809000Y-119731000D01*
X77849000Y-105828000D02*
X77849000Y-119724000D01*
X77889000Y-105835000D02*
X77889000Y-119717000D01*
X77929000Y-105842000D02*
X77929000Y-119710000D01*
X77969000Y-105849000D02*
X77969000Y-119703000D01*
X78009000Y-105857000D02*
X78009000Y-119695000D01*
X78049000Y-105865000D02*
X78049000Y-119687000D01*
X78089000Y-105873000D02*
X78089000Y-119679000D01*
X78129000Y-105882000D02*
X78129000Y-119670000D01*
X78169000Y-105890000D02*
X78169000Y-119662000D01*
X78209000Y-105899000D02*
X78209000Y-119653000D01*
X78249000Y-105908000D02*
X78249000Y-119644000D01*
X78289000Y-105918000D02*
X78289000Y-119634000D01*
X78329000Y-105927000D02*
X78329000Y-119625000D01*
X78369000Y-105937000D02*
X78369000Y-119615000D01*
X78409000Y-105947000D02*
X78409000Y-119605000D01*
X78449000Y-105958000D02*
X78449000Y-119594000D01*
X78489000Y-105968000D02*
X78489000Y-119584000D01*
X78529000Y-105979000D02*
X78529000Y-119573000D01*
X78569000Y-105990000D02*
X78569000Y-119562000D01*
X78609000Y-106002000D02*
X78609000Y-119550000D01*
X78649000Y-106013000D02*
X78649000Y-119539000D01*
X78689000Y-106025000D02*
X78689000Y-119527000D01*
X78729000Y-106037000D02*
X78729000Y-119515000D01*
X78769000Y-106050000D02*
X78769000Y-119502000D01*
X78809000Y-106063000D02*
X78809000Y-119489000D01*
X78849000Y-106075000D02*
X78849000Y-119477000D01*
X78889000Y-106089000D02*
X78889000Y-119463000D01*
X78929000Y-106102000D02*
X78929000Y-119450000D01*
X78969000Y-106116000D02*
X78969000Y-119436000D01*
X79009000Y-106130000D02*
X79009000Y-119422000D01*
X79049000Y-106144000D02*
X79049000Y-111396000D01*
X79049000Y-114156000D02*
X79049000Y-119408000D01*
X79089000Y-106159000D02*
X79089000Y-111396000D01*
X79089000Y-114156000D02*
X79089000Y-119393000D01*
X79129000Y-106173000D02*
X79129000Y-111396000D01*
X79129000Y-114156000D02*
X79129000Y-119379000D01*
X79169000Y-106188000D02*
X79169000Y-111396000D01*
X79169000Y-114156000D02*
X79169000Y-119364000D01*
X79209000Y-106204000D02*
X79209000Y-111396000D01*
X79209000Y-114156000D02*
X79209000Y-119348000D01*
X79249000Y-106219000D02*
X79249000Y-111396000D01*
X79249000Y-114156000D02*
X79249000Y-119333000D01*
X79289000Y-106235000D02*
X79289000Y-111396000D01*
X79289000Y-114156000D02*
X79289000Y-119317000D01*
X79329000Y-106252000D02*
X79329000Y-111396000D01*
X79329000Y-114156000D02*
X79329000Y-119300000D01*
X79369000Y-106268000D02*
X79369000Y-111396000D01*
X79369000Y-114156000D02*
X79369000Y-119284000D01*
X79409000Y-106285000D02*
X79409000Y-111396000D01*
X79409000Y-114156000D02*
X79409000Y-119267000D01*
X79449000Y-106302000D02*
X79449000Y-111396000D01*
X79449000Y-114156000D02*
X79449000Y-119250000D01*
X79489000Y-106319000D02*
X79489000Y-111396000D01*
X79489000Y-114156000D02*
X79489000Y-119233000D01*
X79529000Y-106337000D02*
X79529000Y-111396000D01*
X79529000Y-114156000D02*
X79529000Y-119215000D01*
X79569000Y-106355000D02*
X79569000Y-111396000D01*
X79569000Y-114156000D02*
X79569000Y-119197000D01*
X79609000Y-106373000D02*
X79609000Y-111396000D01*
X79609000Y-114156000D02*
X79609000Y-119179000D01*
X79649000Y-106391000D02*
X79649000Y-111396000D01*
X79649000Y-114156000D02*
X79649000Y-119161000D01*
X79689000Y-106410000D02*
X79689000Y-111396000D01*
X79689000Y-114156000D02*
X79689000Y-119142000D01*
X79729000Y-106429000D02*
X79729000Y-111396000D01*
X79729000Y-114156000D02*
X79729000Y-119123000D01*
X79769000Y-106449000D02*
X79769000Y-111396000D01*
X79769000Y-114156000D02*
X79769000Y-119103000D01*
X79809000Y-106469000D02*
X79809000Y-111396000D01*
X79809000Y-114156000D02*
X79809000Y-119083000D01*
X79849000Y-106489000D02*
X79849000Y-111396000D01*
X79849000Y-114156000D02*
X79849000Y-119063000D01*
X79889000Y-106509000D02*
X79889000Y-111396000D01*
X79889000Y-114156000D02*
X79889000Y-119043000D01*
X79929000Y-106530000D02*
X79929000Y-111396000D01*
X79929000Y-114156000D02*
X79929000Y-119022000D01*
X79969000Y-106551000D02*
X79969000Y-111396000D01*
X79969000Y-114156000D02*
X79969000Y-119001000D01*
X80009000Y-106572000D02*
X80009000Y-111396000D01*
X80009000Y-114156000D02*
X80009000Y-118980000D01*
X80049000Y-106594000D02*
X80049000Y-111396000D01*
X80049000Y-114156000D02*
X80049000Y-118958000D01*
X80089000Y-106616000D02*
X80089000Y-111396000D01*
X80089000Y-114156000D02*
X80089000Y-118936000D01*
X80129000Y-106638000D02*
X80129000Y-111396000D01*
X80129000Y-114156000D02*
X80129000Y-118914000D01*
X80169000Y-106661000D02*
X80169000Y-111396000D01*
X80169000Y-114156000D02*
X80169000Y-118891000D01*
X80209000Y-106684000D02*
X80209000Y-111396000D01*
X80209000Y-114156000D02*
X80209000Y-118868000D01*
X80249000Y-106707000D02*
X80249000Y-111396000D01*
X80249000Y-114156000D02*
X80249000Y-118845000D01*
X80289000Y-106731000D02*
X80289000Y-111396000D01*
X80289000Y-114156000D02*
X80289000Y-118821000D01*
X80329000Y-106755000D02*
X80329000Y-111396000D01*
X80329000Y-114156000D02*
X80329000Y-118797000D01*
X80369000Y-106780000D02*
X80369000Y-111396000D01*
X80369000Y-114156000D02*
X80369000Y-118772000D01*
X80409000Y-106805000D02*
X80409000Y-111396000D01*
X80409000Y-114156000D02*
X80409000Y-118747000D01*
X80449000Y-106830000D02*
X80449000Y-111396000D01*
X80449000Y-114156000D02*
X80449000Y-118722000D01*
X80489000Y-106855000D02*
X80489000Y-111396000D01*
X80489000Y-114156000D02*
X80489000Y-118697000D01*
X80529000Y-106881000D02*
X80529000Y-111396000D01*
X80529000Y-114156000D02*
X80529000Y-118671000D01*
X80569000Y-106908000D02*
X80569000Y-111396000D01*
X80569000Y-114156000D02*
X80569000Y-118644000D01*
X80609000Y-106934000D02*
X80609000Y-111396000D01*
X80609000Y-114156000D02*
X80609000Y-118618000D01*
X80649000Y-106962000D02*
X80649000Y-111396000D01*
X80649000Y-114156000D02*
X80649000Y-118590000D01*
X80689000Y-106989000D02*
X80689000Y-111396000D01*
X80689000Y-114156000D02*
X80689000Y-118563000D01*
X80729000Y-107017000D02*
X80729000Y-111396000D01*
X80729000Y-114156000D02*
X80729000Y-118535000D01*
X80769000Y-107045000D02*
X80769000Y-111396000D01*
X80769000Y-114156000D02*
X80769000Y-118507000D01*
X80809000Y-107074000D02*
X80809000Y-111396000D01*
X80809000Y-114156000D02*
X80809000Y-118478000D01*
X80849000Y-107103000D02*
X80849000Y-111396000D01*
X80849000Y-114156000D02*
X80849000Y-118449000D01*
X80889000Y-107133000D02*
X80889000Y-111396000D01*
X80889000Y-114156000D02*
X80889000Y-118419000D01*
X80929000Y-107163000D02*
X80929000Y-111396000D01*
X80929000Y-114156000D02*
X80929000Y-118389000D01*
X80969000Y-107194000D02*
X80969000Y-111396000D01*
X80969000Y-114156000D02*
X80969000Y-118358000D01*
X81009000Y-107225000D02*
X81009000Y-111396000D01*
X81009000Y-114156000D02*
X81009000Y-118327000D01*
X81049000Y-107256000D02*
X81049000Y-111396000D01*
X81049000Y-114156000D02*
X81049000Y-118296000D01*
X81089000Y-107288000D02*
X81089000Y-111396000D01*
X81089000Y-114156000D02*
X81089000Y-118264000D01*
X81129000Y-107320000D02*
X81129000Y-111396000D01*
X81129000Y-114156000D02*
X81129000Y-118232000D01*
X81169000Y-107353000D02*
X81169000Y-111396000D01*
X81169000Y-114156000D02*
X81169000Y-118199000D01*
X81209000Y-107386000D02*
X81209000Y-111396000D01*
X81209000Y-114156000D02*
X81209000Y-118166000D01*
X81249000Y-107420000D02*
X81249000Y-111396000D01*
X81249000Y-114156000D02*
X81249000Y-118132000D01*
X81289000Y-107455000D02*
X81289000Y-111396000D01*
X81289000Y-114156000D02*
X81289000Y-118097000D01*
X81329000Y-107490000D02*
X81329000Y-111396000D01*
X81329000Y-114156000D02*
X81329000Y-118062000D01*
X81369000Y-107525000D02*
X81369000Y-111396000D01*
X81369000Y-114156000D02*
X81369000Y-118027000D01*
X81409000Y-107561000D02*
X81409000Y-111396000D01*
X81409000Y-114156000D02*
X81409000Y-117991000D01*
X81449000Y-107597000D02*
X81449000Y-111396000D01*
X81449000Y-114156000D02*
X81449000Y-117955000D01*
X81489000Y-107635000D02*
X81489000Y-111396000D01*
X81489000Y-114156000D02*
X81489000Y-117917000D01*
X81529000Y-107672000D02*
X81529000Y-111396000D01*
X81529000Y-114156000D02*
X81529000Y-117880000D01*
X81569000Y-107710000D02*
X81569000Y-111396000D01*
X81569000Y-114156000D02*
X81569000Y-117842000D01*
X81609000Y-107749000D02*
X81609000Y-111396000D01*
X81609000Y-114156000D02*
X81609000Y-117803000D01*
X81649000Y-107789000D02*
X81649000Y-111396000D01*
X81649000Y-114156000D02*
X81649000Y-117763000D01*
X81689000Y-107829000D02*
X81689000Y-111396000D01*
X81689000Y-114156000D02*
X81689000Y-117723000D01*
X81729000Y-107870000D02*
X81729000Y-111396000D01*
X81729000Y-114156000D02*
X81729000Y-117682000D01*
X81769000Y-107911000D02*
X81769000Y-111396000D01*
X81769000Y-114156000D02*
X81769000Y-117641000D01*
X81809000Y-107953000D02*
X81809000Y-117599000D01*
X81849000Y-107996000D02*
X81849000Y-117556000D01*
X81889000Y-108039000D02*
X81889000Y-117513000D01*
X81929000Y-108084000D02*
X81929000Y-117468000D01*
X81969000Y-108129000D02*
X81969000Y-117423000D01*
X82009000Y-108175000D02*
X82009000Y-117377000D01*
X82049000Y-108221000D02*
X82049000Y-117331000D01*
X82089000Y-108269000D02*
X82089000Y-117283000D01*
X82129000Y-108317000D02*
X82129000Y-117235000D01*
X82169000Y-108366000D02*
X82169000Y-117186000D01*
X82209000Y-108416000D02*
X82209000Y-117136000D01*
X82249000Y-108467000D02*
X82249000Y-117085000D01*
X82289000Y-108519000D02*
X82289000Y-117033000D01*
X82329000Y-108572000D02*
X82329000Y-116980000D01*
X82369000Y-108626000D02*
X82369000Y-116926000D01*
X82409000Y-108681000D02*
X82409000Y-116871000D01*
X82449000Y-108738000D02*
X82449000Y-116814000D01*
X82489000Y-108795000D02*
X82489000Y-116757000D01*
X82529000Y-108854000D02*
X82529000Y-116698000D01*
X82569000Y-108914000D02*
X82569000Y-116638000D01*
X82609000Y-108975000D02*
X82609000Y-116577000D01*
X82649000Y-109038000D02*
X82649000Y-116514000D01*
X82689000Y-109102000D02*
X82689000Y-116450000D01*
X82729000Y-109168000D02*
X82729000Y-116384000D01*
X82769000Y-109236000D02*
X82769000Y-116316000D01*
X82809000Y-109305000D02*
X82809000Y-116247000D01*
X82849000Y-109376000D02*
X82849000Y-116176000D01*
X82889000Y-109449000D02*
X82889000Y-116103000D01*
X82929000Y-109525000D02*
X82929000Y-116027000D01*
X82969000Y-109602000D02*
X82969000Y-115950000D01*
X83009000Y-109682000D02*
X83009000Y-115870000D01*
X83049000Y-109765000D02*
X83049000Y-115787000D01*
X83089000Y-109850000D02*
X83089000Y-115702000D01*
X83129000Y-109938000D02*
X83129000Y-115614000D01*
X83169000Y-110030000D02*
X83169000Y-115522000D01*
X83209000Y-110126000D02*
X83209000Y-115426000D01*
X83249000Y-110226000D02*
X83249000Y-115326000D01*
X83289000Y-110330000D02*
X83289000Y-115222000D01*
X83329000Y-110439000D02*
X83329000Y-115113000D01*
X83369000Y-110555000D02*
X83369000Y-114997000D01*
X83409000Y-110678000D02*
X83409000Y-114874000D01*
X83449000Y-110808000D02*
X83449000Y-114744000D01*
X83489000Y-110949000D02*
X83489000Y-114603000D01*
X83529000Y-111103000D02*
X83529000Y-114449000D01*
X83569000Y-111272000D02*
X83569000Y-114280000D01*
X83609000Y-111464000D02*
X83609000Y-114088000D01*
X83649000Y-111689000D02*
X83649000Y-113863000D01*
X83689000Y-111975000D02*
X83689000Y-113577000D01*
X83729000Y-112439000D02*
X83729000Y-113113000D01*
X69698000Y-112776000D02*
X71498000Y-112776000D01*
X70598000Y-111876000D02*
X70598000Y-113676000D01*
X69866000Y-66862000D02*
G75*
G02X71866000Y-66862000I1000000J0D01*
G01*
X71866000Y-66862000D02*
X73516000Y-66862000D01*
X73516000Y-66862000D02*
X73516000Y-56582000D01*
X73516000Y-56582000D02*
X68216000Y-56582000D01*
X68216000Y-56582000D02*
X68216000Y-66862000D01*
X68216000Y-66862000D02*
X69866000Y-66862000D01*
X76006000Y-66922000D02*
X76006000Y-56522000D01*
X76006000Y-56522000D02*
X65726000Y-56522000D01*
X65726000Y-56522000D02*
X65726000Y-66922000D01*
X65726000Y-66922000D02*
X76006000Y-66922000D01*
X69358000Y-89468000D02*
G75*
G02X71358000Y-89468000I1000000J0D01*
G01*
X71358000Y-89468000D02*
X73008000Y-89468000D01*
X73008000Y-89468000D02*
X73008000Y-79188000D01*
X73008000Y-79188000D02*
X67708000Y-79188000D01*
X67708000Y-79188000D02*
X67708000Y-89468000D01*
X67708000Y-89468000D02*
X69358000Y-89468000D01*
X75498000Y-89528000D02*
X75498000Y-79128000D01*
X75498000Y-79128000D02*
X65218000Y-79128000D01*
X65218000Y-79128000D02*
X65218000Y-89528000D01*
X65218000Y-89528000D02*
X75498000Y-89528000D01*
X109720000Y-56250000D02*
X109720000Y-63870000D01*
X105200000Y-56250000D02*
X105200000Y-63870000D01*
X109720000Y-56250000D02*
X105200000Y-56250000D01*
X109720000Y-63870000D02*
X105200000Y-63870000D01*
X132600000Y-95260000D02*
X124980000Y-95260000D01*
X132600000Y-90740000D02*
X124980000Y-90740000D01*
X132600000Y-95260000D02*
X132600000Y-90740000D01*
X124980000Y-95260000D02*
X124980000Y-90740000D01*
X123560000Y-116140000D02*
X123430000Y-116140000D01*
X123430000Y-116140000D02*
X123430000Y-110820000D01*
X123430000Y-110820000D02*
X123560000Y-110820000D01*
X126120000Y-116140000D02*
X126250000Y-116140000D01*
X126250000Y-116140000D02*
X126250000Y-110820000D01*
X126250000Y-110820000D02*
X126120000Y-110820000D01*
X123430000Y-115300000D02*
X126250000Y-115300000D01*
X123688000Y-127628000D02*
X123558000Y-127628000D01*
X123558000Y-127628000D02*
X123558000Y-122308000D01*
X123558000Y-122308000D02*
X123688000Y-122308000D01*
X126248000Y-127628000D02*
X126378000Y-127628000D01*
X126378000Y-127628000D02*
X126378000Y-122308000D01*
X126378000Y-122308000D02*
X126248000Y-122308000D01*
X123558000Y-126788000D02*
X126378000Y-126788000D01*
X119878000Y-116198000D02*
X119748000Y-116198000D01*
X119748000Y-116198000D02*
X119748000Y-110878000D01*
X119748000Y-110878000D02*
X119878000Y-110878000D01*
X122438000Y-116198000D02*
X122568000Y-116198000D01*
X122568000Y-116198000D02*
X122568000Y-110878000D01*
X122568000Y-110878000D02*
X122438000Y-110878000D01*
X119748000Y-115358000D02*
X122568000Y-115358000D01*
X119878000Y-130168000D02*
X119748000Y-130168000D01*
X119748000Y-130168000D02*
X119748000Y-124848000D01*
X119748000Y-124848000D02*
X119878000Y-124848000D01*
X122438000Y-130168000D02*
X122568000Y-130168000D01*
X122568000Y-130168000D02*
X122568000Y-124848000D01*
X122568000Y-124848000D02*
X122438000Y-124848000D01*
X119748000Y-129328000D02*
X122568000Y-129328000D01*
X139090000Y-91270000D02*
X138960000Y-91270000D01*
X138960000Y-91270000D02*
X138960000Y-85950000D01*
X138960000Y-85950000D02*
X139090000Y-85950000D01*
X141650000Y-91270000D02*
X141780000Y-91270000D01*
X141780000Y-91270000D02*
X141780000Y-85950000D01*
X141780000Y-85950000D02*
X141650000Y-85950000D01*
X138960000Y-90430000D02*
X141780000Y-90430000D01*
X138110000Y-85930000D02*
X138240000Y-85930000D01*
X138240000Y-85930000D02*
X138240000Y-91250000D01*
X138240000Y-91250000D02*
X138110000Y-91250000D01*
X135550000Y-85930000D02*
X135420000Y-85930000D01*
X135420000Y-85930000D02*
X135420000Y-91250000D01*
X135420000Y-91250000D02*
X135550000Y-91250000D01*
X138240000Y-86770000D02*
X135420000Y-86770000D01*
D13*
X61758000Y-136948000D02*
X61758000Y-113548000D01*
X61758000Y-113548000D02*
X67558000Y-113548000D01*
X67558000Y-113548000D02*
X67558000Y-136948000D01*
X67558000Y-136948000D02*
X61758000Y-136948000D01*
D12*
X63764000Y-85224000D02*
X63894000Y-85224000D01*
X63894000Y-85224000D02*
X63894000Y-90544000D01*
X63894000Y-90544000D02*
X63764000Y-90544000D01*
X61204000Y-85224000D02*
X61074000Y-85224000D01*
X61074000Y-85224000D02*
X61074000Y-90544000D01*
X61074000Y-90544000D02*
X61204000Y-90544000D01*
X63894000Y-86064000D02*
X61074000Y-86064000D01*
X63764000Y-74048000D02*
X63894000Y-74048000D01*
X63894000Y-74048000D02*
X63894000Y-79368000D01*
X63894000Y-79368000D02*
X63764000Y-79368000D01*
X61204000Y-74048000D02*
X61074000Y-74048000D01*
X61074000Y-74048000D02*
X61074000Y-79368000D01*
X61074000Y-79368000D02*
X61204000Y-79368000D01*
X63894000Y-74888000D02*
X61074000Y-74888000D01*
X64018000Y-62618000D02*
X64148000Y-62618000D01*
X64148000Y-62618000D02*
X64148000Y-67938000D01*
X64148000Y-67938000D02*
X64018000Y-67938000D01*
X61458000Y-62618000D02*
X61328000Y-62618000D01*
X61328000Y-62618000D02*
X61328000Y-67938000D01*
X61328000Y-67938000D02*
X61458000Y-67938000D01*
X64148000Y-63458000D02*
X61328000Y-63458000D01*
X64018000Y-51188000D02*
X64148000Y-51188000D01*
X64148000Y-51188000D02*
X64148000Y-56508000D01*
X64148000Y-56508000D02*
X64018000Y-56508000D01*
X61458000Y-51188000D02*
X61328000Y-51188000D01*
X61328000Y-51188000D02*
X61328000Y-56508000D01*
X61328000Y-56508000D02*
X61458000Y-56508000D01*
X64148000Y-52028000D02*
X61328000Y-52028000D01*
D13*
X136688000Y-114848000D02*
X137188000Y-114848000D01*
X135188000Y-119848000D02*
X135188000Y-109848000D01*
X130288000Y-119848000D02*
X130288000Y-109848000D01*
X136688000Y-119848000D02*
X136688000Y-109848000D01*
X137188000Y-119848000D02*
X137188000Y-109848000D01*
X137188000Y-109848000D02*
X127388000Y-109848000D01*
X127388000Y-109848000D02*
X127388000Y-119848000D01*
X127388000Y-119848000D02*
X137188000Y-119848000D01*
X134688000Y-112348000D02*
G75*
G03X134688000Y-112348000I-2000000J0D01*
G01*
X134688000Y-117348000D02*
G75*
G03X134688000Y-117348000I-2000000J0D01*
G01*
X51018000Y-124928000D02*
X50518000Y-124928000D01*
X52518000Y-119928000D02*
X52518000Y-129928000D01*
X57418000Y-119928000D02*
X57418000Y-129928000D01*
X51018000Y-119928000D02*
X51018000Y-129928000D01*
X50518000Y-119928000D02*
X50518000Y-129928000D01*
X50518000Y-129928000D02*
X60318000Y-129928000D01*
X60318000Y-129928000D02*
X60318000Y-119928000D01*
X60318000Y-119928000D02*
X50518000Y-119928000D01*
X57018000Y-127428000D02*
G75*
G03X57018000Y-127428000I-2000000J0D01*
G01*
X57018000Y-122428000D02*
G75*
G03X57018000Y-122428000I-2000000J0D01*
G01*
X51018000Y-68286000D02*
X50518000Y-68286000D01*
X52518000Y-63286000D02*
X52518000Y-73286000D01*
X57418000Y-63286000D02*
X57418000Y-73286000D01*
X51018000Y-63286000D02*
X51018000Y-73286000D01*
X50518000Y-63286000D02*
X50518000Y-73286000D01*
X50518000Y-73286000D02*
X60318000Y-73286000D01*
X60318000Y-73286000D02*
X60318000Y-63286000D01*
X60318000Y-63286000D02*
X50518000Y-63286000D01*
X57018000Y-70786000D02*
G75*
G03X57018000Y-70786000I-2000000J0D01*
G01*
X57018000Y-65786000D02*
G75*
G03X57018000Y-65786000I-2000000J0D01*
G01*
X136688000Y-126278000D02*
X137188000Y-126278000D01*
X135188000Y-131278000D02*
X135188000Y-121278000D01*
X130288000Y-131278000D02*
X130288000Y-121278000D01*
X136688000Y-131278000D02*
X136688000Y-121278000D01*
X137188000Y-131278000D02*
X137188000Y-121278000D01*
X137188000Y-121278000D02*
X127388000Y-121278000D01*
X127388000Y-121278000D02*
X127388000Y-131278000D01*
X127388000Y-131278000D02*
X137188000Y-131278000D01*
X134688000Y-123778000D02*
G75*
G03X134688000Y-123778000I-2000000J0D01*
G01*
X134688000Y-128778000D02*
G75*
G03X134688000Y-128778000I-2000000J0D01*
G01*
D12*
X129167900Y-48591500D02*
X129167900Y-50941500D01*
X134217900Y-47141500D02*
X134217900Y-50691500D01*
X132467900Y-47141500D02*
X134217900Y-47141500D01*
X125867900Y-47141500D02*
X124117900Y-47141500D01*
X124117900Y-47141500D02*
X124117900Y-50741500D01*
X129167900Y-48541500D02*
X130117900Y-49541500D01*
X129217900Y-48541500D02*
X128217900Y-49491500D01*
X125867900Y-48541500D02*
X125867900Y-45841500D01*
X125867900Y-45841500D02*
X132467900Y-45841500D01*
X132467900Y-45841500D02*
X132467900Y-48541500D01*
X132467900Y-48541500D02*
X125867900Y-48541500D01*
X109609900Y-48756600D02*
X109609900Y-51106600D01*
X114659900Y-47306600D02*
X114659900Y-50856600D01*
X112909900Y-47306600D02*
X114659900Y-47306600D01*
X106309900Y-47306600D02*
X104559900Y-47306600D01*
X104559900Y-47306600D02*
X104559900Y-50906600D01*
X109609900Y-48706600D02*
X110559900Y-49706600D01*
X109659900Y-48706600D02*
X108659900Y-49656600D01*
X106309900Y-48706600D02*
X106309900Y-46006600D01*
X106309900Y-46006600D02*
X112909900Y-46006600D01*
X112909900Y-46006600D02*
X112909900Y-48706600D01*
X112909900Y-48706600D02*
X106309900Y-48706600D01*
X123028000Y-135088000D02*
X123028000Y-137708000D01*
X123028000Y-137708000D02*
X129448000Y-137708000D01*
X129448000Y-137708000D02*
X129448000Y-135088000D01*
X129448000Y-135088000D02*
X123028000Y-135088000D01*
X122138000Y-136398000D02*
X123028000Y-136398000D01*
X130338000Y-136398000D02*
X129448000Y-136398000D01*
X120120000Y-95690000D02*
X120120000Y-98310000D01*
X120120000Y-98310000D02*
X126540000Y-98310000D01*
X126540000Y-98310000D02*
X126540000Y-95690000D01*
X126540000Y-95690000D02*
X120120000Y-95690000D01*
X119230000Y-97000000D02*
X120120000Y-97000000D01*
X127430000Y-97000000D02*
X126540000Y-97000000D01*
X120120000Y-99440000D02*
X120120000Y-102060000D01*
X120120000Y-102060000D02*
X126540000Y-102060000D01*
X126540000Y-102060000D02*
X126540000Y-99440000D01*
X126540000Y-99440000D02*
X120120000Y-99440000D01*
X119230000Y-100750000D02*
X120120000Y-100750000D01*
X127430000Y-100750000D02*
X126540000Y-100750000D01*
X141260000Y-73200000D02*
X138640000Y-73200000D01*
X138640000Y-73200000D02*
X138640000Y-79620000D01*
X138640000Y-79620000D02*
X141260000Y-79620000D01*
X141260000Y-79620000D02*
X141260000Y-73200000D01*
X139950000Y-72310000D02*
X139950000Y-73200000D01*
X139950000Y-80510000D02*
X139950000Y-79620000D01*
X119530000Y-59780000D02*
X116910000Y-59780000D01*
X116910000Y-59780000D02*
X116910000Y-66200000D01*
X116910000Y-66200000D02*
X119530000Y-66200000D01*
X119530000Y-66200000D02*
X119530000Y-59780000D01*
X118220000Y-58890000D02*
X118220000Y-59780000D01*
X118220000Y-67090000D02*
X118220000Y-66200000D01*
X112830000Y-59670000D02*
X110210000Y-59670000D01*
X110210000Y-59670000D02*
X110210000Y-66090000D01*
X110210000Y-66090000D02*
X112830000Y-66090000D01*
X112830000Y-66090000D02*
X112830000Y-59670000D01*
X111520000Y-58780000D02*
X111520000Y-59670000D01*
X111520000Y-66980000D02*
X111520000Y-66090000D01*
X57738000Y-113058000D02*
X48938000Y-113058000D01*
X48938000Y-113058000D02*
X48938000Y-103858000D01*
X63638000Y-110358000D02*
X63638000Y-113058000D01*
X63638000Y-113058000D02*
X61738000Y-113058000D01*
X48938000Y-103858000D02*
X63638000Y-103858000D01*
X63638000Y-103858000D02*
X63638000Y-106458000D01*
X79090000Y-124420000D02*
X79090000Y-127080000D01*
X84230000Y-124420000D02*
X79090000Y-124420000D01*
X84230000Y-127080000D02*
X79090000Y-127080000D01*
X84230000Y-124420000D02*
X84230000Y-127080000D01*
X85500000Y-124420000D02*
X86830000Y-124420000D01*
X86830000Y-124420000D02*
X86830000Y-125750000D01*
X128190000Y-89830000D02*
G75*
G02X130190000Y-89830000I1000000J0D01*
G01*
X130190000Y-89830000D02*
X131840000Y-89830000D01*
X131840000Y-89830000D02*
X131840000Y-71930000D01*
X131840000Y-71930000D02*
X126540000Y-71930000D01*
X126540000Y-71930000D02*
X126540000Y-89830000D01*
X126540000Y-89830000D02*
X128190000Y-89830000D01*
X134330000Y-89890000D02*
X134330000Y-71870000D01*
X134330000Y-71870000D02*
X124050000Y-71870000D01*
X124050000Y-71870000D02*
X124050000Y-89890000D01*
X124050000Y-89890000D02*
X134330000Y-89890000D01*
X89194000Y-138002000D02*
X78954000Y-138002000D01*
X89194000Y-133361000D02*
X78954000Y-133361000D01*
X89194000Y-138002000D02*
X89194000Y-133361000D01*
X78954000Y-138002000D02*
X78954000Y-133361000D01*
X89194000Y-136492000D02*
X78954000Y-136492000D01*
X85924000Y-138002000D02*
X85924000Y-136492000D01*
X82223000Y-138002000D02*
X82223000Y-136492000D01*
X55098000Y-61516000D02*
X55098000Y-52396000D01*
X60218000Y-61516000D02*
X60218000Y-52396000D01*
X55098000Y-61516000D02*
X56757000Y-61516000D01*
X58559000Y-61516000D02*
X60218000Y-61516000D01*
X55098000Y-52396000D02*
X56757000Y-52396000D01*
X58559000Y-52396000D02*
X60218000Y-52396000D01*
X65082000Y-48513538D02*
G75*
G03X70632000Y-50058830I2990000J-462D01*
G01*
X65082000Y-48514462D02*
G75*
G02X70632000Y-46969170I2990000J462D01*
G01*
X70572000Y-48514000D02*
G75*
G03X70572000Y-48514000I-2500000J0D01*
G01*
X70632000Y-50059000D02*
X70632000Y-46969000D01*
X142004200Y-56324962D02*
G75*
G03X136454200Y-54779670I-2990000J462D01*
G01*
X142004200Y-56324038D02*
G75*
G02X136454200Y-57869330I-2990000J-462D01*
G01*
X141514200Y-56324500D02*
G75*
G03X141514200Y-56324500I-2500000J0D01*
G01*
X136454200Y-54779500D02*
X136454200Y-57869500D01*
X67656000Y-52538000D02*
X67656000Y-55158000D01*
X67656000Y-55158000D02*
X74076000Y-55158000D01*
X74076000Y-55158000D02*
X74076000Y-52538000D01*
X74076000Y-52538000D02*
X67656000Y-52538000D01*
X66766000Y-53848000D02*
X67656000Y-53848000D01*
X74966000Y-53848000D02*
X74076000Y-53848000D01*
X137350000Y-61670000D02*
X134690000Y-61670000D01*
X137350000Y-66810000D02*
X137350000Y-61670000D01*
X134690000Y-66810000D02*
X134690000Y-61670000D01*
X137350000Y-66810000D02*
X134690000Y-66810000D01*
X137350000Y-68080000D02*
X137350000Y-69410000D01*
X137350000Y-69410000D02*
X136020000Y-69410000D01*
D13*
X88606000Y-54900000D02*
X88606000Y-55400000D01*
X83606000Y-53400000D02*
X93606000Y-53400000D01*
X83606000Y-48500000D02*
X93606000Y-48500000D01*
X83606000Y-54900000D02*
X93606000Y-54900000D01*
X83606000Y-55400000D02*
X93606000Y-55400000D01*
X93606000Y-55400000D02*
X93606000Y-45600000D01*
X93606000Y-45600000D02*
X83606000Y-45600000D01*
X83606000Y-45600000D02*
X83606000Y-55400000D01*
X93106000Y-50900000D02*
G75*
G03X93106000Y-50900000I-2000000J0D01*
G01*
X88106000Y-50900000D02*
G75*
G03X88106000Y-50900000I-2000000J0D01*
G01*
D12*
X77176000Y-86522000D02*
X79796000Y-86522000D01*
X79796000Y-86522000D02*
X79796000Y-80102000D01*
X79796000Y-80102000D02*
X77176000Y-80102000D01*
X77176000Y-80102000D02*
X77176000Y-86522000D01*
X78486000Y-87412000D02*
X78486000Y-86522000D01*
X78486000Y-79212000D02*
X78486000Y-80102000D01*
X87416000Y-110328000D02*
X84796000Y-110328000D01*
X84796000Y-110328000D02*
X84796000Y-116748000D01*
X84796000Y-116748000D02*
X87416000Y-116748000D01*
X87416000Y-116748000D02*
X87416000Y-110328000D01*
X86106000Y-109438000D02*
X86106000Y-110328000D01*
X86106000Y-117638000D02*
X86106000Y-116748000D01*
X71466555Y-121091149D02*
G75*
G03X71464000Y-128924082I1177445J-3916851D01*
G01*
X73821445Y-121091149D02*
G75*
G02X73824000Y-128924082I-1177445J-3916851D01*
G01*
X73821445Y-121091149D02*
G75*
G03X71464000Y-121091918I-1177445J-3916851D01*
G01*
X68594000Y-125008000D02*
X76694000Y-125008000D01*
X68594000Y-124968000D02*
X76694000Y-124968000D01*
X68594000Y-124928000D02*
X76694000Y-124928000D01*
X68595000Y-124888000D02*
X76693000Y-124888000D01*
X68597000Y-124848000D02*
X76691000Y-124848000D01*
X68598000Y-124808000D02*
X76690000Y-124808000D01*
X68601000Y-124768000D02*
X76687000Y-124768000D01*
X68603000Y-124728000D02*
X76685000Y-124728000D01*
X68606000Y-124688000D02*
X76682000Y-124688000D01*
X68609000Y-124648000D02*
X76679000Y-124648000D01*
X68613000Y-124608000D02*
X76675000Y-124608000D01*
X68617000Y-124568000D02*
X76671000Y-124568000D01*
X68622000Y-124528000D02*
X76666000Y-124528000D01*
X68627000Y-124488000D02*
X76661000Y-124488000D01*
X68632000Y-124448000D02*
X76656000Y-124448000D01*
X68638000Y-124408000D02*
X76650000Y-124408000D01*
X68644000Y-124368000D02*
X76644000Y-124368000D01*
X68650000Y-124328000D02*
X76638000Y-124328000D01*
X68657000Y-124287000D02*
X76631000Y-124287000D01*
X68665000Y-124247000D02*
X76623000Y-124247000D01*
X68673000Y-124207000D02*
X76615000Y-124207000D01*
X68681000Y-124167000D02*
X76607000Y-124167000D01*
X68689000Y-124127000D02*
X76599000Y-124127000D01*
X68698000Y-124087000D02*
X76590000Y-124087000D01*
X68708000Y-124047000D02*
X76580000Y-124047000D01*
X68718000Y-124007000D02*
X76570000Y-124007000D01*
X68728000Y-123967000D02*
X76560000Y-123967000D01*
X68739000Y-123927000D02*
X76549000Y-123927000D01*
X68750000Y-123887000D02*
X76538000Y-123887000D01*
X68761000Y-123847000D02*
X76527000Y-123847000D01*
X68774000Y-123807000D02*
X76514000Y-123807000D01*
X68786000Y-123767000D02*
X76502000Y-123767000D01*
X68799000Y-123727000D02*
X76489000Y-123727000D01*
X68812000Y-123687000D02*
X76476000Y-123687000D01*
X68826000Y-123647000D02*
X76462000Y-123647000D01*
X68841000Y-123607000D02*
X76447000Y-123607000D01*
X68855000Y-123567000D02*
X76433000Y-123567000D01*
X68871000Y-123527000D02*
X76417000Y-123527000D01*
X68886000Y-123487000D02*
X71664000Y-123487000D01*
X73624000Y-123487000D02*
X76402000Y-123487000D01*
X68903000Y-123447000D02*
X71664000Y-123447000D01*
X73624000Y-123447000D02*
X76385000Y-123447000D01*
X68919000Y-123407000D02*
X71664000Y-123407000D01*
X73624000Y-123407000D02*
X76369000Y-123407000D01*
X68937000Y-123367000D02*
X71664000Y-123367000D01*
X73624000Y-123367000D02*
X76351000Y-123367000D01*
X68954000Y-123327000D02*
X71664000Y-123327000D01*
X73624000Y-123327000D02*
X76334000Y-123327000D01*
X68973000Y-123287000D02*
X71664000Y-123287000D01*
X73624000Y-123287000D02*
X76315000Y-123287000D01*
X68992000Y-123247000D02*
X71664000Y-123247000D01*
X73624000Y-123247000D02*
X76296000Y-123247000D01*
X69011000Y-123207000D02*
X71664000Y-123207000D01*
X73624000Y-123207000D02*
X76277000Y-123207000D01*
X69031000Y-123167000D02*
X71664000Y-123167000D01*
X73624000Y-123167000D02*
X76257000Y-123167000D01*
X69051000Y-123127000D02*
X71664000Y-123127000D01*
X73624000Y-123127000D02*
X76237000Y-123127000D01*
X69072000Y-123087000D02*
X71664000Y-123087000D01*
X73624000Y-123087000D02*
X76216000Y-123087000D01*
X69094000Y-123047000D02*
X71664000Y-123047000D01*
X73624000Y-123047000D02*
X76194000Y-123047000D01*
X69116000Y-123007000D02*
X71664000Y-123007000D01*
X73624000Y-123007000D02*
X76172000Y-123007000D01*
X69139000Y-122967000D02*
X71664000Y-122967000D01*
X73624000Y-122967000D02*
X76149000Y-122967000D01*
X69162000Y-122927000D02*
X71664000Y-122927000D01*
X73624000Y-122927000D02*
X76126000Y-122927000D01*
X69186000Y-122887000D02*
X71664000Y-122887000D01*
X73624000Y-122887000D02*
X76102000Y-122887000D01*
X69210000Y-122847000D02*
X71664000Y-122847000D01*
X73624000Y-122847000D02*
X76078000Y-122847000D01*
X69236000Y-122807000D02*
X71664000Y-122807000D01*
X73624000Y-122807000D02*
X76052000Y-122807000D01*
X69261000Y-122767000D02*
X71664000Y-122767000D01*
X73624000Y-122767000D02*
X76027000Y-122767000D01*
X69288000Y-122727000D02*
X71664000Y-122727000D01*
X73624000Y-122727000D02*
X76000000Y-122727000D01*
X69315000Y-122687000D02*
X71664000Y-122687000D01*
X73624000Y-122687000D02*
X75973000Y-122687000D01*
X69343000Y-122647000D02*
X71664000Y-122647000D01*
X73624000Y-122647000D02*
X75945000Y-122647000D01*
X69372000Y-122607000D02*
X71664000Y-122607000D01*
X73624000Y-122607000D02*
X75916000Y-122607000D01*
X69401000Y-122567000D02*
X71664000Y-122567000D01*
X73624000Y-122567000D02*
X75887000Y-122567000D01*
X69431000Y-122527000D02*
X71664000Y-122527000D01*
X73624000Y-122527000D02*
X75857000Y-122527000D01*
X69462000Y-122487000D02*
X71664000Y-122487000D01*
X73624000Y-122487000D02*
X75826000Y-122487000D01*
X69494000Y-122447000D02*
X71664000Y-122447000D01*
X73624000Y-122447000D02*
X75794000Y-122447000D01*
X69526000Y-122407000D02*
X71664000Y-122407000D01*
X73624000Y-122407000D02*
X75762000Y-122407000D01*
X69560000Y-122367000D02*
X71664000Y-122367000D01*
X73624000Y-122367000D02*
X75728000Y-122367000D01*
X69594000Y-122327000D02*
X71664000Y-122327000D01*
X73624000Y-122327000D02*
X75694000Y-122327000D01*
X69629000Y-122287000D02*
X71664000Y-122287000D01*
X73624000Y-122287000D02*
X75659000Y-122287000D01*
X69665000Y-122247000D02*
X71664000Y-122247000D01*
X73624000Y-122247000D02*
X75623000Y-122247000D01*
X69702000Y-122207000D02*
X71664000Y-122207000D01*
X73624000Y-122207000D02*
X75586000Y-122207000D01*
X69740000Y-122167000D02*
X71664000Y-122167000D01*
X73624000Y-122167000D02*
X75548000Y-122167000D01*
X69779000Y-122127000D02*
X71664000Y-122127000D01*
X73624000Y-122127000D02*
X75509000Y-122127000D01*
X69820000Y-122087000D02*
X71664000Y-122087000D01*
X73624000Y-122087000D02*
X75468000Y-122087000D01*
X69861000Y-122047000D02*
X71664000Y-122047000D01*
X73624000Y-122047000D02*
X75427000Y-122047000D01*
X69904000Y-122007000D02*
X71664000Y-122007000D01*
X73624000Y-122007000D02*
X75384000Y-122007000D01*
X69947000Y-121967000D02*
X71664000Y-121967000D01*
X73624000Y-121967000D02*
X75341000Y-121967000D01*
X69992000Y-121927000D02*
X71664000Y-121927000D01*
X73624000Y-121927000D02*
X75296000Y-121927000D01*
X70039000Y-121887000D02*
X71664000Y-121887000D01*
X73624000Y-121887000D02*
X75249000Y-121887000D01*
X70087000Y-121847000D02*
X71664000Y-121847000D01*
X73624000Y-121847000D02*
X75201000Y-121847000D01*
X70136000Y-121807000D02*
X71664000Y-121807000D01*
X73624000Y-121807000D02*
X75152000Y-121807000D01*
X70187000Y-121767000D02*
X71664000Y-121767000D01*
X73624000Y-121767000D02*
X75101000Y-121767000D01*
X70240000Y-121727000D02*
X71664000Y-121727000D01*
X73624000Y-121727000D02*
X75048000Y-121727000D01*
X70295000Y-121687000D02*
X71664000Y-121687000D01*
X73624000Y-121687000D02*
X74993000Y-121687000D01*
X70351000Y-121647000D02*
X71664000Y-121647000D01*
X73624000Y-121647000D02*
X74937000Y-121647000D01*
X70410000Y-121607000D02*
X71664000Y-121607000D01*
X73624000Y-121607000D02*
X74878000Y-121607000D01*
X70471000Y-121567000D02*
X71664000Y-121567000D01*
X73624000Y-121567000D02*
X74817000Y-121567000D01*
X70535000Y-121527000D02*
X74753000Y-121527000D01*
X70601000Y-121487000D02*
X74687000Y-121487000D01*
X70670000Y-121447000D02*
X74618000Y-121447000D01*
X70742000Y-121407000D02*
X74546000Y-121407000D01*
X70818000Y-121367000D02*
X74470000Y-121367000D01*
X70899000Y-121327000D02*
X74389000Y-121327000D01*
X70984000Y-121287000D02*
X74304000Y-121287000D01*
X71074000Y-121247000D02*
X74214000Y-121247000D01*
X71171000Y-121207000D02*
X74117000Y-121207000D01*
X71275000Y-121167000D02*
X74013000Y-121167000D01*
X71390000Y-121127000D02*
X73898000Y-121127000D01*
X71517000Y-121087000D02*
X73771000Y-121087000D01*
X71661000Y-121047000D02*
X73627000Y-121047000D01*
X71830000Y-121007000D02*
X73458000Y-121007000D01*
X72046000Y-120967000D02*
X73242000Y-120967000D01*
X72398000Y-120927000D02*
X72890000Y-120927000D01*
X72644000Y-129708000D02*
X72644000Y-128508000D01*
X71994000Y-129108000D02*
X73294000Y-129108000D01*
X82203445Y-99380851D02*
G75*
G03X82206000Y-91547918I-1177445J3916851D01*
G01*
X79848555Y-99380851D02*
G75*
G02X79846000Y-91547918I1177445J3916851D01*
G01*
X79848555Y-99380851D02*
G75*
G03X82206000Y-99380082I1177445J3916851D01*
G01*
X85076000Y-95464000D02*
X76976000Y-95464000D01*
X85076000Y-95504000D02*
X76976000Y-95504000D01*
X85076000Y-95544000D02*
X76976000Y-95544000D01*
X85075000Y-95584000D02*
X76977000Y-95584000D01*
X85073000Y-95624000D02*
X76979000Y-95624000D01*
X85072000Y-95664000D02*
X76980000Y-95664000D01*
X85069000Y-95704000D02*
X76983000Y-95704000D01*
X85067000Y-95744000D02*
X76985000Y-95744000D01*
X85064000Y-95784000D02*
X76988000Y-95784000D01*
X85061000Y-95824000D02*
X76991000Y-95824000D01*
X85057000Y-95864000D02*
X76995000Y-95864000D01*
X85053000Y-95904000D02*
X76999000Y-95904000D01*
X85048000Y-95944000D02*
X77004000Y-95944000D01*
X85043000Y-95984000D02*
X77009000Y-95984000D01*
X85038000Y-96024000D02*
X77014000Y-96024000D01*
X85032000Y-96064000D02*
X77020000Y-96064000D01*
X85026000Y-96104000D02*
X77026000Y-96104000D01*
X85020000Y-96144000D02*
X77032000Y-96144000D01*
X85013000Y-96185000D02*
X77039000Y-96185000D01*
X85005000Y-96225000D02*
X77047000Y-96225000D01*
X84997000Y-96265000D02*
X77055000Y-96265000D01*
X84989000Y-96305000D02*
X77063000Y-96305000D01*
X84981000Y-96345000D02*
X77071000Y-96345000D01*
X84972000Y-96385000D02*
X77080000Y-96385000D01*
X84962000Y-96425000D02*
X77090000Y-96425000D01*
X84952000Y-96465000D02*
X77100000Y-96465000D01*
X84942000Y-96505000D02*
X77110000Y-96505000D01*
X84931000Y-96545000D02*
X77121000Y-96545000D01*
X84920000Y-96585000D02*
X77132000Y-96585000D01*
X84909000Y-96625000D02*
X77143000Y-96625000D01*
X84896000Y-96665000D02*
X77156000Y-96665000D01*
X84884000Y-96705000D02*
X77168000Y-96705000D01*
X84871000Y-96745000D02*
X77181000Y-96745000D01*
X84858000Y-96785000D02*
X77194000Y-96785000D01*
X84844000Y-96825000D02*
X77208000Y-96825000D01*
X84829000Y-96865000D02*
X77223000Y-96865000D01*
X84815000Y-96905000D02*
X77237000Y-96905000D01*
X84799000Y-96945000D02*
X77253000Y-96945000D01*
X84784000Y-96985000D02*
X82006000Y-96985000D01*
X80046000Y-96985000D02*
X77268000Y-96985000D01*
X84767000Y-97025000D02*
X82006000Y-97025000D01*
X80046000Y-97025000D02*
X77285000Y-97025000D01*
X84751000Y-97065000D02*
X82006000Y-97065000D01*
X80046000Y-97065000D02*
X77301000Y-97065000D01*
X84733000Y-97105000D02*
X82006000Y-97105000D01*
X80046000Y-97105000D02*
X77319000Y-97105000D01*
X84716000Y-97145000D02*
X82006000Y-97145000D01*
X80046000Y-97145000D02*
X77336000Y-97145000D01*
X84697000Y-97185000D02*
X82006000Y-97185000D01*
X80046000Y-97185000D02*
X77355000Y-97185000D01*
X84678000Y-97225000D02*
X82006000Y-97225000D01*
X80046000Y-97225000D02*
X77374000Y-97225000D01*
X84659000Y-97265000D02*
X82006000Y-97265000D01*
X80046000Y-97265000D02*
X77393000Y-97265000D01*
X84639000Y-97305000D02*
X82006000Y-97305000D01*
X80046000Y-97305000D02*
X77413000Y-97305000D01*
X84619000Y-97345000D02*
X82006000Y-97345000D01*
X80046000Y-97345000D02*
X77433000Y-97345000D01*
X84598000Y-97385000D02*
X82006000Y-97385000D01*
X80046000Y-97385000D02*
X77454000Y-97385000D01*
X84576000Y-97425000D02*
X82006000Y-97425000D01*
X80046000Y-97425000D02*
X77476000Y-97425000D01*
X84554000Y-97465000D02*
X82006000Y-97465000D01*
X80046000Y-97465000D02*
X77498000Y-97465000D01*
X84531000Y-97505000D02*
X82006000Y-97505000D01*
X80046000Y-97505000D02*
X77521000Y-97505000D01*
X84508000Y-97545000D02*
X82006000Y-97545000D01*
X80046000Y-97545000D02*
X77544000Y-97545000D01*
X84484000Y-97585000D02*
X82006000Y-97585000D01*
X80046000Y-97585000D02*
X77568000Y-97585000D01*
X84460000Y-97625000D02*
X82006000Y-97625000D01*
X80046000Y-97625000D02*
X77592000Y-97625000D01*
X84434000Y-97665000D02*
X82006000Y-97665000D01*
X80046000Y-97665000D02*
X77618000Y-97665000D01*
X84409000Y-97705000D02*
X82006000Y-97705000D01*
X80046000Y-97705000D02*
X77643000Y-97705000D01*
X84382000Y-97745000D02*
X82006000Y-97745000D01*
X80046000Y-97745000D02*
X77670000Y-97745000D01*
X84355000Y-97785000D02*
X82006000Y-97785000D01*
X80046000Y-97785000D02*
X77697000Y-97785000D01*
X84327000Y-97825000D02*
X82006000Y-97825000D01*
X80046000Y-97825000D02*
X77725000Y-97825000D01*
X84298000Y-97865000D02*
X82006000Y-97865000D01*
X80046000Y-97865000D02*
X77754000Y-97865000D01*
X84269000Y-97905000D02*
X82006000Y-97905000D01*
X80046000Y-97905000D02*
X77783000Y-97905000D01*
X84239000Y-97945000D02*
X82006000Y-97945000D01*
X80046000Y-97945000D02*
X77813000Y-97945000D01*
X84208000Y-97985000D02*
X82006000Y-97985000D01*
X80046000Y-97985000D02*
X77844000Y-97985000D01*
X84176000Y-98025000D02*
X82006000Y-98025000D01*
X80046000Y-98025000D02*
X77876000Y-98025000D01*
X84144000Y-98065000D02*
X82006000Y-98065000D01*
X80046000Y-98065000D02*
X77908000Y-98065000D01*
X84110000Y-98105000D02*
X82006000Y-98105000D01*
X80046000Y-98105000D02*
X77942000Y-98105000D01*
X84076000Y-98145000D02*
X82006000Y-98145000D01*
X80046000Y-98145000D02*
X77976000Y-98145000D01*
X84041000Y-98185000D02*
X82006000Y-98185000D01*
X80046000Y-98185000D02*
X78011000Y-98185000D01*
X84005000Y-98225000D02*
X82006000Y-98225000D01*
X80046000Y-98225000D02*
X78047000Y-98225000D01*
X83968000Y-98265000D02*
X82006000Y-98265000D01*
X80046000Y-98265000D02*
X78084000Y-98265000D01*
X83930000Y-98305000D02*
X82006000Y-98305000D01*
X80046000Y-98305000D02*
X78122000Y-98305000D01*
X83891000Y-98345000D02*
X82006000Y-98345000D01*
X80046000Y-98345000D02*
X78161000Y-98345000D01*
X83850000Y-98385000D02*
X82006000Y-98385000D01*
X80046000Y-98385000D02*
X78202000Y-98385000D01*
X83809000Y-98425000D02*
X82006000Y-98425000D01*
X80046000Y-98425000D02*
X78243000Y-98425000D01*
X83766000Y-98465000D02*
X82006000Y-98465000D01*
X80046000Y-98465000D02*
X78286000Y-98465000D01*
X83723000Y-98505000D02*
X82006000Y-98505000D01*
X80046000Y-98505000D02*
X78329000Y-98505000D01*
X83678000Y-98545000D02*
X82006000Y-98545000D01*
X80046000Y-98545000D02*
X78374000Y-98545000D01*
X83631000Y-98585000D02*
X82006000Y-98585000D01*
X80046000Y-98585000D02*
X78421000Y-98585000D01*
X83583000Y-98625000D02*
X82006000Y-98625000D01*
X80046000Y-98625000D02*
X78469000Y-98625000D01*
X83534000Y-98665000D02*
X82006000Y-98665000D01*
X80046000Y-98665000D02*
X78518000Y-98665000D01*
X83483000Y-98705000D02*
X82006000Y-98705000D01*
X80046000Y-98705000D02*
X78569000Y-98705000D01*
X83430000Y-98745000D02*
X82006000Y-98745000D01*
X80046000Y-98745000D02*
X78622000Y-98745000D01*
X83375000Y-98785000D02*
X82006000Y-98785000D01*
X80046000Y-98785000D02*
X78677000Y-98785000D01*
X83319000Y-98825000D02*
X82006000Y-98825000D01*
X80046000Y-98825000D02*
X78733000Y-98825000D01*
X83260000Y-98865000D02*
X82006000Y-98865000D01*
X80046000Y-98865000D02*
X78792000Y-98865000D01*
X83199000Y-98905000D02*
X82006000Y-98905000D01*
X80046000Y-98905000D02*
X78853000Y-98905000D01*
X83135000Y-98945000D02*
X78917000Y-98945000D01*
X83069000Y-98985000D02*
X78983000Y-98985000D01*
X83000000Y-99025000D02*
X79052000Y-99025000D01*
X82928000Y-99065000D02*
X79124000Y-99065000D01*
X82852000Y-99105000D02*
X79200000Y-99105000D01*
X82771000Y-99145000D02*
X79281000Y-99145000D01*
X82686000Y-99185000D02*
X79366000Y-99185000D01*
X82596000Y-99225000D02*
X79456000Y-99225000D01*
X82499000Y-99265000D02*
X79553000Y-99265000D01*
X82395000Y-99305000D02*
X79657000Y-99305000D01*
X82280000Y-99345000D02*
X79772000Y-99345000D01*
X82153000Y-99385000D02*
X79899000Y-99385000D01*
X82009000Y-99425000D02*
X80043000Y-99425000D01*
X81840000Y-99465000D02*
X80212000Y-99465000D01*
X81624000Y-99505000D02*
X80428000Y-99505000D01*
X81272000Y-99545000D02*
X80780000Y-99545000D01*
X81026000Y-90764000D02*
X81026000Y-91964000D01*
X81676000Y-91364000D02*
X80376000Y-91364000D01*
X83124851Y-71212555D02*
G75*
G03X75291918Y-71210000I-3916851J-1177445D01*
G01*
X83124851Y-73567445D02*
G75*
G02X75291918Y-73570000I-3916851J1177445D01*
G01*
X83124851Y-73567445D02*
G75*
G03X83124082Y-71210000I-3916851J1177445D01*
G01*
X79208000Y-68340000D02*
X79208000Y-76440000D01*
X79248000Y-68340000D02*
X79248000Y-76440000D01*
X79288000Y-68340000D02*
X79288000Y-76440000D01*
X79328000Y-68341000D02*
X79328000Y-76439000D01*
X79368000Y-68343000D02*
X79368000Y-76437000D01*
X79408000Y-68344000D02*
X79408000Y-76436000D01*
X79448000Y-68347000D02*
X79448000Y-76433000D01*
X79488000Y-68349000D02*
X79488000Y-76431000D01*
X79528000Y-68352000D02*
X79528000Y-76428000D01*
X79568000Y-68355000D02*
X79568000Y-76425000D01*
X79608000Y-68359000D02*
X79608000Y-76421000D01*
X79648000Y-68363000D02*
X79648000Y-76417000D01*
X79688000Y-68368000D02*
X79688000Y-76412000D01*
X79728000Y-68373000D02*
X79728000Y-76407000D01*
X79768000Y-68378000D02*
X79768000Y-76402000D01*
X79808000Y-68384000D02*
X79808000Y-76396000D01*
X79848000Y-68390000D02*
X79848000Y-76390000D01*
X79888000Y-68396000D02*
X79888000Y-76384000D01*
X79929000Y-68403000D02*
X79929000Y-76377000D01*
X79969000Y-68411000D02*
X79969000Y-76369000D01*
X80009000Y-68419000D02*
X80009000Y-76361000D01*
X80049000Y-68427000D02*
X80049000Y-76353000D01*
X80089000Y-68435000D02*
X80089000Y-76345000D01*
X80129000Y-68444000D02*
X80129000Y-76336000D01*
X80169000Y-68454000D02*
X80169000Y-76326000D01*
X80209000Y-68464000D02*
X80209000Y-76316000D01*
X80249000Y-68474000D02*
X80249000Y-76306000D01*
X80289000Y-68485000D02*
X80289000Y-76295000D01*
X80329000Y-68496000D02*
X80329000Y-76284000D01*
X80369000Y-68507000D02*
X80369000Y-76273000D01*
X80409000Y-68520000D02*
X80409000Y-76260000D01*
X80449000Y-68532000D02*
X80449000Y-76248000D01*
X80489000Y-68545000D02*
X80489000Y-76235000D01*
X80529000Y-68558000D02*
X80529000Y-76222000D01*
X80569000Y-68572000D02*
X80569000Y-76208000D01*
X80609000Y-68587000D02*
X80609000Y-76193000D01*
X80649000Y-68601000D02*
X80649000Y-76179000D01*
X80689000Y-68617000D02*
X80689000Y-76163000D01*
X80729000Y-68632000D02*
X80729000Y-71410000D01*
X80729000Y-73370000D02*
X80729000Y-76148000D01*
X80769000Y-68649000D02*
X80769000Y-71410000D01*
X80769000Y-73370000D02*
X80769000Y-76131000D01*
X80809000Y-68665000D02*
X80809000Y-71410000D01*
X80809000Y-73370000D02*
X80809000Y-76115000D01*
X80849000Y-68683000D02*
X80849000Y-71410000D01*
X80849000Y-73370000D02*
X80849000Y-76097000D01*
X80889000Y-68700000D02*
X80889000Y-71410000D01*
X80889000Y-73370000D02*
X80889000Y-76080000D01*
X80929000Y-68719000D02*
X80929000Y-71410000D01*
X80929000Y-73370000D02*
X80929000Y-76061000D01*
X80969000Y-68738000D02*
X80969000Y-71410000D01*
X80969000Y-73370000D02*
X80969000Y-76042000D01*
X81009000Y-68757000D02*
X81009000Y-71410000D01*
X81009000Y-73370000D02*
X81009000Y-76023000D01*
X81049000Y-68777000D02*
X81049000Y-71410000D01*
X81049000Y-73370000D02*
X81049000Y-76003000D01*
X81089000Y-68797000D02*
X81089000Y-71410000D01*
X81089000Y-73370000D02*
X81089000Y-75983000D01*
X81129000Y-68818000D02*
X81129000Y-71410000D01*
X81129000Y-73370000D02*
X81129000Y-75962000D01*
X81169000Y-68840000D02*
X81169000Y-71410000D01*
X81169000Y-73370000D02*
X81169000Y-75940000D01*
X81209000Y-68862000D02*
X81209000Y-71410000D01*
X81209000Y-73370000D02*
X81209000Y-75918000D01*
X81249000Y-68885000D02*
X81249000Y-71410000D01*
X81249000Y-73370000D02*
X81249000Y-75895000D01*
X81289000Y-68908000D02*
X81289000Y-71410000D01*
X81289000Y-73370000D02*
X81289000Y-75872000D01*
X81329000Y-68932000D02*
X81329000Y-71410000D01*
X81329000Y-73370000D02*
X81329000Y-75848000D01*
X81369000Y-68956000D02*
X81369000Y-71410000D01*
X81369000Y-73370000D02*
X81369000Y-75824000D01*
X81409000Y-68982000D02*
X81409000Y-71410000D01*
X81409000Y-73370000D02*
X81409000Y-75798000D01*
X81449000Y-69007000D02*
X81449000Y-71410000D01*
X81449000Y-73370000D02*
X81449000Y-75773000D01*
X81489000Y-69034000D02*
X81489000Y-71410000D01*
X81489000Y-73370000D02*
X81489000Y-75746000D01*
X81529000Y-69061000D02*
X81529000Y-71410000D01*
X81529000Y-73370000D02*
X81529000Y-75719000D01*
X81569000Y-69089000D02*
X81569000Y-71410000D01*
X81569000Y-73370000D02*
X81569000Y-75691000D01*
X81609000Y-69118000D02*
X81609000Y-71410000D01*
X81609000Y-73370000D02*
X81609000Y-75662000D01*
X81649000Y-69147000D02*
X81649000Y-71410000D01*
X81649000Y-73370000D02*
X81649000Y-75633000D01*
X81689000Y-69177000D02*
X81689000Y-71410000D01*
X81689000Y-73370000D02*
X81689000Y-75603000D01*
X81729000Y-69208000D02*
X81729000Y-71410000D01*
X81729000Y-73370000D02*
X81729000Y-75572000D01*
X81769000Y-69240000D02*
X81769000Y-71410000D01*
X81769000Y-73370000D02*
X81769000Y-75540000D01*
X81809000Y-69272000D02*
X81809000Y-71410000D01*
X81809000Y-73370000D02*
X81809000Y-75508000D01*
X81849000Y-69306000D02*
X81849000Y-71410000D01*
X81849000Y-73370000D02*
X81849000Y-75474000D01*
X81889000Y-69340000D02*
X81889000Y-71410000D01*
X81889000Y-73370000D02*
X81889000Y-75440000D01*
X81929000Y-69375000D02*
X81929000Y-71410000D01*
X81929000Y-73370000D02*
X81929000Y-75405000D01*
X81969000Y-69411000D02*
X81969000Y-71410000D01*
X81969000Y-73370000D02*
X81969000Y-75369000D01*
X82009000Y-69448000D02*
X82009000Y-71410000D01*
X82009000Y-73370000D02*
X82009000Y-75332000D01*
X82049000Y-69486000D02*
X82049000Y-71410000D01*
X82049000Y-73370000D02*
X82049000Y-75294000D01*
X82089000Y-69525000D02*
X82089000Y-71410000D01*
X82089000Y-73370000D02*
X82089000Y-75255000D01*
X82129000Y-69566000D02*
X82129000Y-71410000D01*
X82129000Y-73370000D02*
X82129000Y-75214000D01*
X82169000Y-69607000D02*
X82169000Y-71410000D01*
X82169000Y-73370000D02*
X82169000Y-75173000D01*
X82209000Y-69650000D02*
X82209000Y-71410000D01*
X82209000Y-73370000D02*
X82209000Y-75130000D01*
X82249000Y-69693000D02*
X82249000Y-71410000D01*
X82249000Y-73370000D02*
X82249000Y-75087000D01*
X82289000Y-69738000D02*
X82289000Y-71410000D01*
X82289000Y-73370000D02*
X82289000Y-75042000D01*
X82329000Y-69785000D02*
X82329000Y-71410000D01*
X82329000Y-73370000D02*
X82329000Y-74995000D01*
X82369000Y-69833000D02*
X82369000Y-71410000D01*
X82369000Y-73370000D02*
X82369000Y-74947000D01*
X82409000Y-69882000D02*
X82409000Y-71410000D01*
X82409000Y-73370000D02*
X82409000Y-74898000D01*
X82449000Y-69933000D02*
X82449000Y-71410000D01*
X82449000Y-73370000D02*
X82449000Y-74847000D01*
X82489000Y-69986000D02*
X82489000Y-71410000D01*
X82489000Y-73370000D02*
X82489000Y-74794000D01*
X82529000Y-70041000D02*
X82529000Y-71410000D01*
X82529000Y-73370000D02*
X82529000Y-74739000D01*
X82569000Y-70097000D02*
X82569000Y-71410000D01*
X82569000Y-73370000D02*
X82569000Y-74683000D01*
X82609000Y-70156000D02*
X82609000Y-71410000D01*
X82609000Y-73370000D02*
X82609000Y-74624000D01*
X82649000Y-70217000D02*
X82649000Y-71410000D01*
X82649000Y-73370000D02*
X82649000Y-74563000D01*
X82689000Y-70281000D02*
X82689000Y-74499000D01*
X82729000Y-70347000D02*
X82729000Y-74433000D01*
X82769000Y-70416000D02*
X82769000Y-74364000D01*
X82809000Y-70488000D02*
X82809000Y-74292000D01*
X82849000Y-70564000D02*
X82849000Y-74216000D01*
X82889000Y-70645000D02*
X82889000Y-74135000D01*
X82929000Y-70730000D02*
X82929000Y-74050000D01*
X82969000Y-70820000D02*
X82969000Y-73960000D01*
X83009000Y-70917000D02*
X83009000Y-73863000D01*
X83049000Y-71021000D02*
X83049000Y-73759000D01*
X83089000Y-71136000D02*
X83089000Y-73644000D01*
X83129000Y-71263000D02*
X83129000Y-73517000D01*
X83169000Y-71407000D02*
X83169000Y-73373000D01*
X83209000Y-71576000D02*
X83209000Y-73204000D01*
X83249000Y-71792000D02*
X83249000Y-72988000D01*
X83289000Y-72144000D02*
X83289000Y-72636000D01*
X74508000Y-72390000D02*
X75708000Y-72390000D01*
X75108000Y-71740000D02*
X75108000Y-73040000D01*
X95718000Y-122962000D02*
X103338000Y-122962000D01*
X95718000Y-127482000D02*
X103338000Y-127482000D01*
X95718000Y-122962000D02*
X95718000Y-127482000D01*
X103338000Y-122962000D02*
X103338000Y-127482000D01*
X103388000Y-114180000D02*
X103518000Y-114180000D01*
X103518000Y-114180000D02*
X103518000Y-119500000D01*
X103518000Y-119500000D02*
X103388000Y-119500000D01*
X100828000Y-114180000D02*
X100698000Y-114180000D01*
X100698000Y-114180000D02*
X100698000Y-119500000D01*
X100698000Y-119500000D02*
X100828000Y-119500000D01*
X103518000Y-115020000D02*
X100698000Y-115020000D01*
X96764000Y-119500000D02*
X96634000Y-119500000D01*
X96634000Y-119500000D02*
X96634000Y-114180000D01*
X96634000Y-114180000D02*
X96764000Y-114180000D01*
X99324000Y-119500000D02*
X99454000Y-119500000D01*
X99454000Y-119500000D02*
X99454000Y-114180000D01*
X99454000Y-114180000D02*
X99324000Y-114180000D01*
X96634000Y-118660000D02*
X99454000Y-118660000D01*
X87440000Y-81280000D02*
X90100000Y-81280000D01*
X87440000Y-76140000D02*
X87440000Y-81280000D01*
X90100000Y-76140000D02*
X90100000Y-81280000D01*
X87440000Y-76140000D02*
X90100000Y-76140000D01*
X87440000Y-74870000D02*
X87440000Y-73540000D01*
X87440000Y-73540000D02*
X88770000Y-73540000D01*
X88683400Y-63866020D02*
X90536020Y-62013400D01*
X90536020Y-62013400D02*
X85996395Y-57473775D01*
X85996395Y-57473775D02*
X84143775Y-59326395D01*
X84143775Y-59326395D02*
X88683400Y-63866020D01*
X90239035Y-63569035D02*
X89609710Y-62939710D01*
X84440760Y-57770760D02*
X85070085Y-58400085D01*
X94490000Y-93060000D02*
X94490000Y-95680000D01*
X94490000Y-95680000D02*
X100910000Y-95680000D01*
X100910000Y-95680000D02*
X100910000Y-93060000D01*
X100910000Y-93060000D02*
X94490000Y-93060000D01*
X93600000Y-94370000D02*
X94490000Y-94370000D01*
X101800000Y-94370000D02*
X100910000Y-94370000D01*
X97660000Y-72660000D02*
G75*
G02X95660000Y-72660000I-1000000J0D01*
G01*
X95660000Y-72660000D02*
X94010000Y-72660000D01*
X94010000Y-72660000D02*
X94010000Y-90560000D01*
X94010000Y-90560000D02*
X99310000Y-90560000D01*
X99310000Y-90560000D02*
X99310000Y-72660000D01*
X99310000Y-72660000D02*
X97660000Y-72660000D01*
X91520000Y-72600000D02*
X91520000Y-90620000D01*
X91520000Y-90620000D02*
X101800000Y-90620000D01*
X101800000Y-90620000D02*
X101800000Y-72600000D01*
X101800000Y-72600000D02*
X91520000Y-72600000D01*
X132680000Y-66420000D02*
X125060000Y-66420000D01*
X132680000Y-61900000D02*
X125060000Y-61900000D01*
X132680000Y-66420000D02*
X132680000Y-61900000D01*
X125060000Y-66420000D02*
X125060000Y-61900000D01*
X101330000Y-67540000D02*
X108950000Y-67540000D01*
X101330000Y-72060000D02*
X108950000Y-72060000D01*
X101330000Y-67540000D02*
X101330000Y-72060000D01*
X108950000Y-67540000D02*
X108950000Y-72060000D01*
X104800000Y-102590000D02*
X104800000Y-102720000D01*
X104800000Y-102720000D02*
X99480000Y-102720000D01*
X99480000Y-102720000D02*
X99480000Y-102590000D01*
X104800000Y-100030000D02*
X104800000Y-99900000D01*
X104800000Y-99900000D02*
X99480000Y-99900000D01*
X99480000Y-99900000D02*
X99480000Y-100030000D01*
X103960000Y-102720000D02*
X103960000Y-99900000D01*
X104910000Y-99350000D02*
X104910000Y-99480000D01*
X104910000Y-99480000D02*
X99590000Y-99480000D01*
X99590000Y-99480000D02*
X99590000Y-99350000D01*
X104910000Y-96790000D02*
X104910000Y-96660000D01*
X104910000Y-96660000D02*
X99590000Y-96660000D01*
X99590000Y-96660000D02*
X99590000Y-96790000D01*
X104070000Y-99480000D02*
X104070000Y-96660000D01*
X102134000Y-88432000D02*
X102134000Y-80812000D01*
X106654000Y-88432000D02*
X106654000Y-80812000D01*
X102134000Y-88432000D02*
X106654000Y-88432000D01*
X102134000Y-80812000D02*
X106654000Y-80812000D01*
X52286000Y-50000000D02*
G75*
G03X52286000Y-50000000I-2286000J0D01*
G01*
X52286000Y-140000000D02*
G75*
G03X52286000Y-140000000I-2286000J0D01*
G01*
X142286000Y-50000000D02*
G75*
G03X142286000Y-50000000I-2286000J0D01*
G01*
X142286000Y-140000000D02*
G75*
G03X142286000Y-140000000I-2286000J0D01*
G01*
X124920000Y-66750000D02*
X132540000Y-66750000D01*
X124920000Y-71270000D02*
X132540000Y-71270000D01*
X124920000Y-66750000D02*
X124920000Y-71270000D01*
X132540000Y-66750000D02*
X132540000Y-71270000D01*
X77604000Y-130038000D02*
X77604000Y-129908000D01*
X77604000Y-129908000D02*
X82924000Y-129908000D01*
X82924000Y-129908000D02*
X82924000Y-130038000D01*
X77604000Y-132598000D02*
X77604000Y-132728000D01*
X77604000Y-132728000D02*
X82924000Y-132728000D01*
X82924000Y-132728000D02*
X82924000Y-132598000D01*
X78444000Y-129908000D02*
X78444000Y-132728000D01*
X108010000Y-92008000D02*
X108010000Y-89348000D01*
X105410000Y-92008000D02*
X108010000Y-92008000D01*
X105410000Y-89348000D02*
X108010000Y-89348000D01*
X105410000Y-92008000D02*
X105410000Y-89348000D01*
X104140000Y-92008000D02*
X102810000Y-92008000D01*
X102810000Y-92008000D02*
X102810000Y-90678000D01*
X116180000Y-59710000D02*
X113560000Y-59710000D01*
X113560000Y-59710000D02*
X113560000Y-66130000D01*
X113560000Y-66130000D02*
X116180000Y-66130000D01*
X116180000Y-66130000D02*
X116180000Y-59710000D01*
X114870000Y-58820000D02*
X114870000Y-59710000D01*
X114870000Y-67020000D02*
X114870000Y-66130000D01*
X66488000Y-90658000D02*
X74108000Y-90658000D01*
X66488000Y-95778000D02*
X74108000Y-95778000D01*
X66488000Y-90658000D02*
X66488000Y-92023000D01*
X66488000Y-94413000D02*
X66488000Y-95778000D01*
X74108000Y-90658000D02*
X74108000Y-92023000D01*
X74108000Y-94413000D02*
X74108000Y-95778000D01*
X73466000Y-73172000D02*
X65846000Y-73172000D01*
X73466000Y-68052000D02*
X65846000Y-68052000D01*
X73466000Y-73172000D02*
X73466000Y-71807000D01*
X73466000Y-69417000D02*
X73466000Y-68052000D01*
X65846000Y-73172000D02*
X65846000Y-71807000D01*
X65846000Y-69417000D02*
X65846000Y-68052000D01*
X53570000Y-89068000D02*
X58190000Y-89068000D01*
X58190000Y-89068000D02*
X58190000Y-77048000D01*
X58190000Y-77048000D02*
X53570000Y-77048000D01*
X53570000Y-77048000D02*
X53570000Y-89068000D01*
X55880000Y-89298000D02*
X55880000Y-89068000D01*
X55880000Y-76818000D02*
X55880000Y-77048000D01*
X112292000Y-123276000D02*
X107672000Y-123276000D01*
X107672000Y-123276000D02*
X107672000Y-135296000D01*
X107672000Y-135296000D02*
X112292000Y-135296000D01*
X112292000Y-135296000D02*
X112292000Y-123276000D01*
X109982000Y-123046000D02*
X109982000Y-123276000D01*
X109982000Y-135526000D02*
X109982000Y-135296000D01*
X118642000Y-123022000D02*
X114022000Y-123022000D01*
X114022000Y-123022000D02*
X114022000Y-135042000D01*
X114022000Y-135042000D02*
X118642000Y-135042000D01*
X118642000Y-135042000D02*
X118642000Y-123022000D01*
X116332000Y-122792000D02*
X116332000Y-123022000D01*
X116332000Y-135272000D02*
X116332000Y-135042000D01*
X117154000Y-119146000D02*
X109534000Y-119146000D01*
X117154000Y-114026000D02*
X109534000Y-114026000D01*
X117154000Y-119146000D02*
X117154000Y-117781000D01*
X117154000Y-115391000D02*
X117154000Y-114026000D01*
X109534000Y-119146000D02*
X109534000Y-117781000D01*
X109534000Y-115391000D02*
X109534000Y-114026000D01*
X88000000Y-92920000D02*
X90620000Y-92920000D01*
X90620000Y-92920000D02*
X90620000Y-86500000D01*
X90620000Y-86500000D02*
X88000000Y-86500000D01*
X88000000Y-86500000D02*
X88000000Y-92920000D01*
X89310000Y-93810000D02*
X89310000Y-92920000D01*
X89310000Y-85610000D02*
X89310000Y-86500000D01*
X116000000Y-93550000D02*
X116000000Y-101170000D01*
X111480000Y-93550000D02*
X111480000Y-101170000D01*
X116000000Y-93550000D02*
X111480000Y-93550000D01*
X116000000Y-101170000D02*
X111480000Y-101170000D01*
X110690000Y-78140000D02*
X108030000Y-78140000D01*
X110690000Y-83280000D02*
X110690000Y-78140000D01*
X108030000Y-83280000D02*
X108030000Y-78140000D01*
X110690000Y-83280000D02*
X108030000Y-83280000D01*
X110690000Y-84550000D02*
X110690000Y-85880000D01*
X110690000Y-85880000D02*
X109360000Y-85880000D01*
X118690000Y-92300000D02*
X120460000Y-92300000D01*
X120460000Y-92300000D02*
X120460000Y-71740000D01*
X120460000Y-71740000D02*
X114920000Y-71740000D01*
X114920000Y-71740000D02*
X114920000Y-92300000D01*
X114920000Y-92300000D02*
X116690000Y-92300000D01*
X122890000Y-92300000D02*
X122890000Y-71740000D01*
X122890000Y-71740000D02*
X112490000Y-71740000D01*
X112490000Y-71740000D02*
X112490000Y-92300000D01*
X112490000Y-92300000D02*
X122890000Y-92300000D01*
X116690000Y-92300000D02*
G75*
G02X118690000Y-92300000I1000000J0D01*
G01*
D13*
X97536095Y-58126381D02*
X97536095Y-58935905D01*
X97583714Y-59031143D01*
X97631333Y-59078762D01*
X97726571Y-59126381D01*
X97917048Y-59126381D01*
X98012286Y-59078762D01*
X98059905Y-59031143D01*
X98107524Y-58935905D01*
X98107524Y-58126381D01*
X98488476Y-58126381D02*
X99155143Y-58126381D01*
X98726571Y-59126381D01*
X137162381Y-76546666D02*
X136686190Y-76880000D01*
X137162381Y-77118095D02*
X136162381Y-77118095D01*
X136162381Y-76737142D01*
X136210000Y-76641904D01*
X136257619Y-76594285D01*
X136352857Y-76546666D01*
X136495714Y-76546666D01*
X136590952Y-76594285D01*
X136638571Y-76641904D01*
X136686190Y-76737142D01*
X136686190Y-77118095D01*
X136495714Y-75689523D02*
X137162381Y-75689523D01*
X136114762Y-75927619D02*
X136829048Y-76165714D01*
X136829048Y-75546666D01*
X135647143Y-97352381D02*
X135313809Y-96876190D01*
X135075714Y-97352381D02*
X135075714Y-96352381D01*
X135456667Y-96352381D01*
X135551905Y-96400000D01*
X135599524Y-96447619D01*
X135647143Y-96542857D01*
X135647143Y-96685714D01*
X135599524Y-96780952D01*
X135551905Y-96828571D01*
X135456667Y-96876190D01*
X135075714Y-96876190D01*
X136028095Y-96447619D02*
X136075714Y-96400000D01*
X136170952Y-96352381D01*
X136409048Y-96352381D01*
X136504286Y-96400000D01*
X136551905Y-96447619D01*
X136599524Y-96542857D01*
X136599524Y-96638095D01*
X136551905Y-96780952D01*
X135980476Y-97352381D01*
X136599524Y-97352381D01*
X137551905Y-97352381D02*
X136980476Y-97352381D01*
X137266190Y-97352381D02*
X137266190Y-96352381D01*
X137170952Y-96495238D01*
X137075714Y-96590476D01*
X136980476Y-96638095D01*
X83002381Y-83954857D02*
X82526190Y-84288191D01*
X83002381Y-84526286D02*
X82002381Y-84526286D01*
X82002381Y-84145333D01*
X82050000Y-84050095D01*
X82097619Y-84002476D01*
X82192857Y-83954857D01*
X82335714Y-83954857D01*
X82430952Y-84002476D01*
X82478571Y-84050095D01*
X82526190Y-84145333D01*
X82526190Y-84526286D01*
X83002381Y-83002476D02*
X83002381Y-83573905D01*
X83002381Y-83288191D02*
X82002381Y-83288191D01*
X82145238Y-83383429D01*
X82240476Y-83478667D01*
X82288095Y-83573905D01*
X83002381Y-82050095D02*
X83002381Y-82621524D01*
X83002381Y-82335810D02*
X82002381Y-82335810D01*
X82145238Y-82431048D01*
X82240476Y-82526286D01*
X82288095Y-82621524D01*
X98940667Y-139210381D02*
X98940667Y-139924667D01*
X98893047Y-140067524D01*
X98797809Y-140162762D01*
X98654952Y-140210381D01*
X98559714Y-140210381D01*
X99559714Y-139638952D02*
X99464476Y-139591333D01*
X99416857Y-139543714D01*
X99369238Y-139448476D01*
X99369238Y-139400857D01*
X99416857Y-139305619D01*
X99464476Y-139258000D01*
X99559714Y-139210381D01*
X99750191Y-139210381D01*
X99845429Y-139258000D01*
X99893048Y-139305619D01*
X99940667Y-139400857D01*
X99940667Y-139448476D01*
X99893048Y-139543714D01*
X99845429Y-139591333D01*
X99750191Y-139638952D01*
X99559714Y-139638952D01*
X99464476Y-139686571D01*
X99416857Y-139734190D01*
X99369238Y-139829429D01*
X99369238Y-140019905D01*
X99416857Y-140115143D01*
X99464476Y-140162762D01*
X99559714Y-140210381D01*
X99750191Y-140210381D01*
X99845429Y-140162762D01*
X99893048Y-140115143D01*
X99940667Y-140019905D01*
X99940667Y-139829429D01*
X99893048Y-139734190D01*
X99845429Y-139686571D01*
X99750191Y-139638952D01*
X82129334Y-106783143D02*
X82081715Y-106830762D01*
X81938858Y-106878381D01*
X81843620Y-106878381D01*
X81700762Y-106830762D01*
X81605524Y-106735524D01*
X81557905Y-106640286D01*
X81510286Y-106449810D01*
X81510286Y-106306952D01*
X81557905Y-106116476D01*
X81605524Y-106021238D01*
X81700762Y-105926000D01*
X81843620Y-105878381D01*
X81938858Y-105878381D01*
X82081715Y-105926000D01*
X82129334Y-105973619D01*
X82700762Y-106306952D02*
X82605524Y-106259333D01*
X82557905Y-106211714D01*
X82510286Y-106116476D01*
X82510286Y-106068857D01*
X82557905Y-105973619D01*
X82605524Y-105926000D01*
X82700762Y-105878381D01*
X82891239Y-105878381D01*
X82986477Y-105926000D01*
X83034096Y-105973619D01*
X83081715Y-106068857D01*
X83081715Y-106116476D01*
X83034096Y-106211714D01*
X82986477Y-106259333D01*
X82891239Y-106306952D01*
X82700762Y-106306952D01*
X82605524Y-106354571D01*
X82557905Y-106402190D01*
X82510286Y-106497429D01*
X82510286Y-106687905D01*
X82557905Y-106783143D01*
X82605524Y-106830762D01*
X82700762Y-106878381D01*
X82891239Y-106878381D01*
X82986477Y-106830762D01*
X83034096Y-106783143D01*
X83081715Y-106687905D01*
X83081715Y-106497429D01*
X83034096Y-106402190D01*
X82986477Y-106354571D01*
X82891239Y-106306952D01*
X68580095Y-57872381D02*
X68580095Y-58681905D01*
X68627714Y-58777143D01*
X68675333Y-58824762D01*
X68770571Y-58872381D01*
X68961048Y-58872381D01*
X69056286Y-58824762D01*
X69103905Y-58777143D01*
X69151524Y-58681905D01*
X69151524Y-57872381D01*
X70151524Y-58872381D02*
X69580095Y-58872381D01*
X69865809Y-58872381D02*
X69865809Y-57872381D01*
X69770571Y-58015238D01*
X69675333Y-58110476D01*
X69580095Y-58158095D01*
X68072095Y-79970381D02*
X68072095Y-80779905D01*
X68119714Y-80875143D01*
X68167333Y-80922762D01*
X68262571Y-80970381D01*
X68453048Y-80970381D01*
X68548286Y-80922762D01*
X68595905Y-80875143D01*
X68643524Y-80779905D01*
X68643524Y-79970381D01*
X69072095Y-80065619D02*
X69119714Y-80018000D01*
X69214952Y-79970381D01*
X69453048Y-79970381D01*
X69548286Y-80018000D01*
X69595905Y-80065619D01*
X69643524Y-80160857D01*
X69643524Y-80256095D01*
X69595905Y-80398952D01*
X69024476Y-80970381D01*
X69643524Y-80970381D01*
X107817143Y-60266666D02*
X107864762Y-60314285D01*
X107912381Y-60457142D01*
X107912381Y-60552380D01*
X107864762Y-60695238D01*
X107769524Y-60790476D01*
X107674286Y-60838095D01*
X107483810Y-60885714D01*
X107340952Y-60885714D01*
X107150476Y-60838095D01*
X107055238Y-60790476D01*
X106960000Y-60695238D01*
X106912381Y-60552380D01*
X106912381Y-60457142D01*
X106960000Y-60314285D01*
X107007619Y-60266666D01*
X107912381Y-59314285D02*
X107912381Y-59885714D01*
X107912381Y-59600000D02*
X106912381Y-59600000D01*
X107055238Y-59695238D01*
X107150476Y-59790476D01*
X107198095Y-59885714D01*
X128837334Y-93357143D02*
X128789715Y-93404762D01*
X128646858Y-93452381D01*
X128551620Y-93452381D01*
X128408762Y-93404762D01*
X128313524Y-93309524D01*
X128265905Y-93214286D01*
X128218286Y-93023810D01*
X128218286Y-92880952D01*
X128265905Y-92690476D01*
X128313524Y-92595238D01*
X128408762Y-92500000D01*
X128551620Y-92452381D01*
X128646858Y-92452381D01*
X128789715Y-92500000D01*
X128837334Y-92547619D01*
X129170667Y-92452381D02*
X129837334Y-92452381D01*
X129408762Y-93452381D01*
X125292381Y-114694286D02*
X124292381Y-114694286D01*
X124292381Y-114456191D01*
X124340000Y-114313333D01*
X124435238Y-114218095D01*
X124530476Y-114170476D01*
X124720952Y-114122857D01*
X124863810Y-114122857D01*
X125054286Y-114170476D01*
X125149524Y-114218095D01*
X125244762Y-114313333D01*
X125292381Y-114456191D01*
X125292381Y-114694286D01*
X125292381Y-113170476D02*
X125292381Y-113741905D01*
X125292381Y-113456191D02*
X124292381Y-113456191D01*
X124435238Y-113551429D01*
X124530476Y-113646667D01*
X124578095Y-113741905D01*
X124292381Y-112551429D02*
X124292381Y-112456190D01*
X124340000Y-112360952D01*
X124387619Y-112313333D01*
X124482857Y-112265714D01*
X124673333Y-112218095D01*
X124911429Y-112218095D01*
X125101905Y-112265714D01*
X125197143Y-112313333D01*
X125244762Y-112360952D01*
X125292381Y-112456190D01*
X125292381Y-112551429D01*
X125244762Y-112646667D01*
X125197143Y-112694286D01*
X125101905Y-112741905D01*
X124911429Y-112789524D01*
X124673333Y-112789524D01*
X124482857Y-112741905D01*
X124387619Y-112694286D01*
X124340000Y-112646667D01*
X124292381Y-112551429D01*
X125420381Y-125928286D02*
X124420381Y-125928286D01*
X124420381Y-125690191D01*
X124468000Y-125547333D01*
X124563238Y-125452095D01*
X124658476Y-125404476D01*
X124848952Y-125356857D01*
X124991810Y-125356857D01*
X125182286Y-125404476D01*
X125277524Y-125452095D01*
X125372762Y-125547333D01*
X125420381Y-125690191D01*
X125420381Y-125928286D01*
X125420381Y-124404476D02*
X125420381Y-124975905D01*
X125420381Y-124690191D02*
X124420381Y-124690191D01*
X124563238Y-124785429D01*
X124658476Y-124880667D01*
X124706095Y-124975905D01*
X125420381Y-123452095D02*
X125420381Y-124023524D01*
X125420381Y-123737810D02*
X124420381Y-123737810D01*
X124563238Y-123833048D01*
X124658476Y-123928286D01*
X124706095Y-124023524D01*
X121610381Y-114752286D02*
X120610381Y-114752286D01*
X120610381Y-114514191D01*
X120658000Y-114371333D01*
X120753238Y-114276095D01*
X120848476Y-114228476D01*
X121038952Y-114180857D01*
X121181810Y-114180857D01*
X121372286Y-114228476D01*
X121467524Y-114276095D01*
X121562762Y-114371333D01*
X121610381Y-114514191D01*
X121610381Y-114752286D01*
X121610381Y-113228476D02*
X121610381Y-113799905D01*
X121610381Y-113514191D02*
X120610381Y-113514191D01*
X120753238Y-113609429D01*
X120848476Y-113704667D01*
X120896095Y-113799905D01*
X120705619Y-112847524D02*
X120658000Y-112799905D01*
X120610381Y-112704667D01*
X120610381Y-112466571D01*
X120658000Y-112371333D01*
X120705619Y-112323714D01*
X120800857Y-112276095D01*
X120896095Y-112276095D01*
X121038952Y-112323714D01*
X121610381Y-112895143D01*
X121610381Y-112276095D01*
X121610381Y-128722286D02*
X120610381Y-128722286D01*
X120610381Y-128484191D01*
X120658000Y-128341333D01*
X120753238Y-128246095D01*
X120848476Y-128198476D01*
X121038952Y-128150857D01*
X121181810Y-128150857D01*
X121372286Y-128198476D01*
X121467524Y-128246095D01*
X121562762Y-128341333D01*
X121610381Y-128484191D01*
X121610381Y-128722286D01*
X121610381Y-127198476D02*
X121610381Y-127769905D01*
X121610381Y-127484191D02*
X120610381Y-127484191D01*
X120753238Y-127579429D01*
X120848476Y-127674667D01*
X120896095Y-127769905D01*
X120610381Y-126865143D02*
X120610381Y-126246095D01*
X120991333Y-126579429D01*
X120991333Y-126436571D01*
X121038952Y-126341333D01*
X121086571Y-126293714D01*
X121181810Y-126246095D01*
X121419905Y-126246095D01*
X121515143Y-126293714D01*
X121562762Y-126341333D01*
X121610381Y-126436571D01*
X121610381Y-126722286D01*
X121562762Y-126817524D01*
X121515143Y-126865143D01*
X140822381Y-89824286D02*
X139822381Y-89824286D01*
X139822381Y-89586191D01*
X139870000Y-89443333D01*
X139965238Y-89348095D01*
X140060476Y-89300476D01*
X140250952Y-89252857D01*
X140393810Y-89252857D01*
X140584286Y-89300476D01*
X140679524Y-89348095D01*
X140774762Y-89443333D01*
X140822381Y-89586191D01*
X140822381Y-89824286D01*
X140822381Y-88300476D02*
X140822381Y-88871905D01*
X140822381Y-88586191D02*
X139822381Y-88586191D01*
X139965238Y-88681429D01*
X140060476Y-88776667D01*
X140108095Y-88871905D01*
X140155714Y-87443333D02*
X140822381Y-87443333D01*
X139774762Y-87681429D02*
X140489048Y-87919524D01*
X140489048Y-87300476D01*
X137282381Y-89804286D02*
X136282381Y-89804286D01*
X136282381Y-89566191D01*
X136330000Y-89423333D01*
X136425238Y-89328095D01*
X136520476Y-89280476D01*
X136710952Y-89232857D01*
X136853810Y-89232857D01*
X137044286Y-89280476D01*
X137139524Y-89328095D01*
X137234762Y-89423333D01*
X137282381Y-89566191D01*
X137282381Y-89804286D01*
X137282381Y-88280476D02*
X137282381Y-88851905D01*
X137282381Y-88566191D02*
X136282381Y-88566191D01*
X136425238Y-88661429D01*
X136520476Y-88756667D01*
X136568095Y-88851905D01*
X136282381Y-87375714D02*
X136282381Y-87851905D01*
X136758571Y-87899524D01*
X136710952Y-87851905D01*
X136663333Y-87756667D01*
X136663333Y-87518571D01*
X136710952Y-87423333D01*
X136758571Y-87375714D01*
X136853810Y-87328095D01*
X137091905Y-87328095D01*
X137187143Y-87375714D01*
X137234762Y-87423333D01*
X137282381Y-87518571D01*
X137282381Y-87756667D01*
X137234762Y-87851905D01*
X137187143Y-87899524D01*
X61160381Y-135962286D02*
X60160381Y-135962286D01*
X60160381Y-135724191D01*
X60208000Y-135581333D01*
X60303238Y-135486095D01*
X60398476Y-135438476D01*
X60588952Y-135390857D01*
X60731810Y-135390857D01*
X60922286Y-135438476D01*
X61017524Y-135486095D01*
X61112762Y-135581333D01*
X61160381Y-135724191D01*
X61160381Y-135962286D01*
X61160381Y-134438476D02*
X61160381Y-135009905D01*
X61160381Y-134724191D02*
X60160381Y-134724191D01*
X60303238Y-134819429D01*
X60398476Y-134914667D01*
X60446095Y-135009905D01*
X61160381Y-133962286D02*
X61160381Y-133771810D01*
X61112762Y-133676571D01*
X61065143Y-133628952D01*
X60922286Y-133533714D01*
X60731810Y-133486095D01*
X60350857Y-133486095D01*
X60255619Y-133533714D01*
X60208000Y-133581333D01*
X60160381Y-133676571D01*
X60160381Y-133867048D01*
X60208000Y-133962286D01*
X60255619Y-134009905D01*
X60350857Y-134057524D01*
X60588952Y-134057524D01*
X60684190Y-134009905D01*
X60731810Y-133962286D01*
X60779429Y-133867048D01*
X60779429Y-133676571D01*
X60731810Y-133581333D01*
X60684190Y-133533714D01*
X60588952Y-133486095D01*
X62936381Y-89098286D02*
X61936381Y-89098286D01*
X61936381Y-88860191D01*
X61984000Y-88717333D01*
X62079238Y-88622095D01*
X62174476Y-88574476D01*
X62364952Y-88526857D01*
X62507810Y-88526857D01*
X62698286Y-88574476D01*
X62793524Y-88622095D01*
X62888762Y-88717333D01*
X62936381Y-88860191D01*
X62936381Y-89098286D01*
X62031619Y-88145905D02*
X61984000Y-88098286D01*
X61936381Y-88003048D01*
X61936381Y-87764952D01*
X61984000Y-87669714D01*
X62031619Y-87622095D01*
X62126857Y-87574476D01*
X62222095Y-87574476D01*
X62364952Y-87622095D01*
X62936381Y-88193524D01*
X62936381Y-87574476D01*
X61936381Y-86955429D02*
X61936381Y-86860190D01*
X61984000Y-86764952D01*
X62031619Y-86717333D01*
X62126857Y-86669714D01*
X62317333Y-86622095D01*
X62555429Y-86622095D01*
X62745905Y-86669714D01*
X62841143Y-86717333D01*
X62888762Y-86764952D01*
X62936381Y-86860190D01*
X62936381Y-86955429D01*
X62888762Y-87050667D01*
X62841143Y-87098286D01*
X62745905Y-87145905D01*
X62555429Y-87193524D01*
X62317333Y-87193524D01*
X62126857Y-87145905D01*
X62031619Y-87098286D01*
X61984000Y-87050667D01*
X61936381Y-86955429D01*
X62936381Y-77922286D02*
X61936381Y-77922286D01*
X61936381Y-77684191D01*
X61984000Y-77541333D01*
X62079238Y-77446095D01*
X62174476Y-77398476D01*
X62364952Y-77350857D01*
X62507810Y-77350857D01*
X62698286Y-77398476D01*
X62793524Y-77446095D01*
X62888762Y-77541333D01*
X62936381Y-77684191D01*
X62936381Y-77922286D01*
X62031619Y-76969905D02*
X61984000Y-76922286D01*
X61936381Y-76827048D01*
X61936381Y-76588952D01*
X61984000Y-76493714D01*
X62031619Y-76446095D01*
X62126857Y-76398476D01*
X62222095Y-76398476D01*
X62364952Y-76446095D01*
X62936381Y-77017524D01*
X62936381Y-76398476D01*
X62936381Y-75446095D02*
X62936381Y-76017524D01*
X62936381Y-75731810D02*
X61936381Y-75731810D01*
X62079238Y-75827048D01*
X62174476Y-75922286D01*
X62222095Y-76017524D01*
X63190381Y-66492286D02*
X62190381Y-66492286D01*
X62190381Y-66254191D01*
X62238000Y-66111333D01*
X62333238Y-66016095D01*
X62428476Y-65968476D01*
X62618952Y-65920857D01*
X62761810Y-65920857D01*
X62952286Y-65968476D01*
X63047524Y-66016095D01*
X63142762Y-66111333D01*
X63190381Y-66254191D01*
X63190381Y-66492286D01*
X62285619Y-65539905D02*
X62238000Y-65492286D01*
X62190381Y-65397048D01*
X62190381Y-65158952D01*
X62238000Y-65063714D01*
X62285619Y-65016095D01*
X62380857Y-64968476D01*
X62476095Y-64968476D01*
X62618952Y-65016095D01*
X63190381Y-65587524D01*
X63190381Y-64968476D01*
X62285619Y-64587524D02*
X62238000Y-64539905D01*
X62190381Y-64444667D01*
X62190381Y-64206571D01*
X62238000Y-64111333D01*
X62285619Y-64063714D01*
X62380857Y-64016095D01*
X62476095Y-64016095D01*
X62618952Y-64063714D01*
X63190381Y-64635143D01*
X63190381Y-64016095D01*
X63444381Y-55062286D02*
X62444381Y-55062286D01*
X62444381Y-54824191D01*
X62492000Y-54681333D01*
X62587238Y-54586095D01*
X62682476Y-54538476D01*
X62872952Y-54490857D01*
X63015810Y-54490857D01*
X63206286Y-54538476D01*
X63301524Y-54586095D01*
X63396762Y-54681333D01*
X63444381Y-54824191D01*
X63444381Y-55062286D01*
X62539619Y-54109905D02*
X62492000Y-54062286D01*
X62444381Y-53967048D01*
X62444381Y-53728952D01*
X62492000Y-53633714D01*
X62539619Y-53586095D01*
X62634857Y-53538476D01*
X62730095Y-53538476D01*
X62872952Y-53586095D01*
X63444381Y-54157524D01*
X63444381Y-53538476D01*
X62444381Y-53205143D02*
X62444381Y-52586095D01*
X62825333Y-52919429D01*
X62825333Y-52776571D01*
X62872952Y-52681333D01*
X62920571Y-52633714D01*
X63015810Y-52586095D01*
X63253905Y-52586095D01*
X63349143Y-52633714D01*
X63396762Y-52681333D01*
X63444381Y-52776571D01*
X63444381Y-53062286D01*
X63396762Y-53157524D01*
X63349143Y-53205143D01*
X135596381Y-108029333D02*
X136310667Y-108029333D01*
X136453524Y-108076953D01*
X136548762Y-108172191D01*
X136596381Y-108315048D01*
X136596381Y-108410286D01*
X136596381Y-107029333D02*
X136596381Y-107600762D01*
X136596381Y-107315048D02*
X135596381Y-107315048D01*
X135739238Y-107410286D01*
X135834476Y-107505524D01*
X135882095Y-107600762D01*
X48670381Y-125261333D02*
X49384667Y-125261333D01*
X49527524Y-125308953D01*
X49622762Y-125404191D01*
X49670381Y-125547048D01*
X49670381Y-125642286D01*
X48765619Y-124832762D02*
X48718000Y-124785143D01*
X48670381Y-124689905D01*
X48670381Y-124451809D01*
X48718000Y-124356571D01*
X48765619Y-124308952D01*
X48860857Y-124261333D01*
X48956095Y-124261333D01*
X49098952Y-124308952D01*
X49670381Y-124880381D01*
X49670381Y-124261333D01*
X51736667Y-61174381D02*
X51736667Y-61888667D01*
X51689047Y-62031524D01*
X51593809Y-62126762D01*
X51450952Y-62174381D01*
X51355714Y-62174381D01*
X52641429Y-61507714D02*
X52641429Y-62174381D01*
X52403333Y-61126762D02*
X52165238Y-61841048D01*
X52784286Y-61841048D01*
X136866381Y-132921333D02*
X137580667Y-132921333D01*
X137723524Y-132968953D01*
X137818762Y-133064191D01*
X137866381Y-133207048D01*
X137866381Y-133302286D01*
X136866381Y-131968952D02*
X136866381Y-132445143D01*
X137342571Y-132492762D01*
X137294952Y-132445143D01*
X137247333Y-132349905D01*
X137247333Y-132111809D01*
X137294952Y-132016571D01*
X137342571Y-131968952D01*
X137437810Y-131921333D01*
X137675905Y-131921333D01*
X137771143Y-131968952D01*
X137818762Y-132016571D01*
X137866381Y-132111809D01*
X137866381Y-132349905D01*
X137818762Y-132445143D01*
X137771143Y-132492762D01*
X124049043Y-56141881D02*
X124049043Y-55141881D01*
X124429996Y-55141881D01*
X124525234Y-55189500D01*
X124572853Y-55237119D01*
X124620472Y-55332357D01*
X124620472Y-55475214D01*
X124572853Y-55570452D01*
X124525234Y-55618071D01*
X124429996Y-55665690D01*
X124049043Y-55665690D01*
X125239519Y-55141881D02*
X125429996Y-55141881D01*
X125525234Y-55189500D01*
X125620472Y-55284738D01*
X125668091Y-55475214D01*
X125668091Y-55808548D01*
X125620472Y-55999024D01*
X125525234Y-56094262D01*
X125429996Y-56141881D01*
X125239519Y-56141881D01*
X125144281Y-56094262D01*
X125049043Y-55999024D01*
X125001424Y-55808548D01*
X125001424Y-55475214D01*
X125049043Y-55284738D01*
X125144281Y-55189500D01*
X125239519Y-55141881D01*
X125953805Y-55141881D02*
X126525234Y-55141881D01*
X126239519Y-56141881D02*
X126239519Y-55141881D01*
X127382377Y-56141881D02*
X126810948Y-56141881D01*
X127096662Y-56141881D02*
X127096662Y-55141881D01*
X127001424Y-55284738D01*
X126906186Y-55379976D01*
X126810948Y-55427595D01*
X110333043Y-55798981D02*
X110333043Y-54798981D01*
X110713996Y-54798981D01*
X110809234Y-54846600D01*
X110856853Y-54894219D01*
X110904472Y-54989457D01*
X110904472Y-55132314D01*
X110856853Y-55227552D01*
X110809234Y-55275171D01*
X110713996Y-55322790D01*
X110333043Y-55322790D01*
X111523519Y-54798981D02*
X111713996Y-54798981D01*
X111809234Y-54846600D01*
X111904472Y-54941838D01*
X111952091Y-55132314D01*
X111952091Y-55465648D01*
X111904472Y-55656124D01*
X111809234Y-55751362D01*
X111713996Y-55798981D01*
X111523519Y-55798981D01*
X111428281Y-55751362D01*
X111333043Y-55656124D01*
X111285424Y-55465648D01*
X111285424Y-55132314D01*
X111333043Y-54941838D01*
X111428281Y-54846600D01*
X111523519Y-54798981D01*
X112237805Y-54798981D02*
X112809234Y-54798981D01*
X112523519Y-55798981D02*
X112523519Y-54798981D01*
X113094948Y-54894219D02*
X113142567Y-54846600D01*
X113237805Y-54798981D01*
X113475901Y-54798981D01*
X113571139Y-54846600D01*
X113618758Y-54894219D01*
X113666377Y-54989457D01*
X113666377Y-55084695D01*
X113618758Y-55227552D01*
X113047329Y-55798981D01*
X113666377Y-55798981D01*
X125595143Y-136596381D02*
X125261809Y-136120190D01*
X125023714Y-136596381D02*
X125023714Y-135596381D01*
X125404667Y-135596381D01*
X125499905Y-135644000D01*
X125547524Y-135691619D01*
X125595143Y-135786857D01*
X125595143Y-135929714D01*
X125547524Y-136024952D01*
X125499905Y-136072571D01*
X125404667Y-136120190D01*
X125023714Y-136120190D01*
X125976095Y-135691619D02*
X126023714Y-135644000D01*
X126118952Y-135596381D01*
X126357048Y-135596381D01*
X126452286Y-135644000D01*
X126499905Y-135691619D01*
X126547524Y-135786857D01*
X126547524Y-135882095D01*
X126499905Y-136024952D01*
X125928476Y-136596381D01*
X126547524Y-136596381D01*
X127166571Y-135596381D02*
X127261810Y-135596381D01*
X127357048Y-135644000D01*
X127404667Y-135691619D01*
X127452286Y-135786857D01*
X127499905Y-135977333D01*
X127499905Y-136215429D01*
X127452286Y-136405905D01*
X127404667Y-136501143D01*
X127357048Y-136548762D01*
X127261810Y-136596381D01*
X127166571Y-136596381D01*
X127071333Y-136548762D01*
X127023714Y-136501143D01*
X126976095Y-136405905D01*
X126928476Y-136215429D01*
X126928476Y-135977333D01*
X126976095Y-135786857D01*
X127023714Y-135691619D01*
X127071333Y-135644000D01*
X127166571Y-135596381D01*
X122687143Y-97512381D02*
X122353809Y-97036190D01*
X122115714Y-97512381D02*
X122115714Y-96512381D01*
X122496667Y-96512381D01*
X122591905Y-96560000D01*
X122639524Y-96607619D01*
X122687143Y-96702857D01*
X122687143Y-96845714D01*
X122639524Y-96940952D01*
X122591905Y-96988571D01*
X122496667Y-97036190D01*
X122115714Y-97036190D01*
X123068095Y-96607619D02*
X123115714Y-96560000D01*
X123210952Y-96512381D01*
X123449048Y-96512381D01*
X123544286Y-96560000D01*
X123591905Y-96607619D01*
X123639524Y-96702857D01*
X123639524Y-96798095D01*
X123591905Y-96940952D01*
X123020476Y-97512381D01*
X123639524Y-97512381D01*
X124496667Y-96845714D02*
X124496667Y-97512381D01*
X124258571Y-96464762D02*
X124020476Y-97179048D01*
X124639524Y-97179048D01*
X122687143Y-101202381D02*
X122353809Y-100726190D01*
X122115714Y-101202381D02*
X122115714Y-100202381D01*
X122496667Y-100202381D01*
X122591905Y-100250000D01*
X122639524Y-100297619D01*
X122687143Y-100392857D01*
X122687143Y-100535714D01*
X122639524Y-100630952D01*
X122591905Y-100678571D01*
X122496667Y-100726190D01*
X122115714Y-100726190D01*
X123068095Y-100297619D02*
X123115714Y-100250000D01*
X123210952Y-100202381D01*
X123449048Y-100202381D01*
X123544286Y-100250000D01*
X123591905Y-100297619D01*
X123639524Y-100392857D01*
X123639524Y-100488095D01*
X123591905Y-100630952D01*
X123020476Y-101202381D01*
X123639524Y-101202381D01*
X124544286Y-100202381D02*
X124068095Y-100202381D01*
X124020476Y-100678571D01*
X124068095Y-100630952D01*
X124163333Y-100583333D01*
X124401429Y-100583333D01*
X124496667Y-100630952D01*
X124544286Y-100678571D01*
X124591905Y-100773810D01*
X124591905Y-101011905D01*
X124544286Y-101107143D01*
X124496667Y-101154762D01*
X124401429Y-101202381D01*
X124163333Y-101202381D01*
X124068095Y-101154762D01*
X124020476Y-101107143D01*
X140402381Y-77052857D02*
X139926190Y-77386191D01*
X140402381Y-77624286D02*
X139402381Y-77624286D01*
X139402381Y-77243333D01*
X139450000Y-77148095D01*
X139497619Y-77100476D01*
X139592857Y-77052857D01*
X139735714Y-77052857D01*
X139830952Y-77100476D01*
X139878571Y-77148095D01*
X139926190Y-77243333D01*
X139926190Y-77624286D01*
X139497619Y-76671905D02*
X139450000Y-76624286D01*
X139402381Y-76529048D01*
X139402381Y-76290952D01*
X139450000Y-76195714D01*
X139497619Y-76148095D01*
X139592857Y-76100476D01*
X139688095Y-76100476D01*
X139830952Y-76148095D01*
X140402381Y-76719524D01*
X140402381Y-76100476D01*
X139402381Y-75243333D02*
X139402381Y-75433810D01*
X139450000Y-75529048D01*
X139497619Y-75576667D01*
X139640476Y-75671905D01*
X139830952Y-75719524D01*
X140211905Y-75719524D01*
X140307143Y-75671905D01*
X140354762Y-75624286D01*
X140402381Y-75529048D01*
X140402381Y-75338571D01*
X140354762Y-75243333D01*
X140307143Y-75195714D01*
X140211905Y-75148095D01*
X139973810Y-75148095D01*
X139878571Y-75195714D01*
X139830952Y-75243333D01*
X139783333Y-75338571D01*
X139783333Y-75529048D01*
X139830952Y-75624286D01*
X139878571Y-75671905D01*
X139973810Y-75719524D01*
X118418381Y-63378857D02*
X117942190Y-63712191D01*
X118418381Y-63950286D02*
X117418381Y-63950286D01*
X117418381Y-63569333D01*
X117466000Y-63474095D01*
X117513619Y-63426476D01*
X117608857Y-63378857D01*
X117751714Y-63378857D01*
X117846952Y-63426476D01*
X117894571Y-63474095D01*
X117942190Y-63569333D01*
X117942190Y-63950286D01*
X117418381Y-63045524D02*
X117418381Y-62426476D01*
X117799333Y-62759810D01*
X117799333Y-62616952D01*
X117846952Y-62521714D01*
X117894571Y-62474095D01*
X117989810Y-62426476D01*
X118227905Y-62426476D01*
X118323143Y-62474095D01*
X118370762Y-62521714D01*
X118418381Y-62616952D01*
X118418381Y-62902667D01*
X118370762Y-62997905D01*
X118323143Y-63045524D01*
X118418381Y-61474095D02*
X118418381Y-62045524D01*
X118418381Y-61759810D02*
X117418381Y-61759810D01*
X117561238Y-61855048D01*
X117656476Y-61950286D01*
X117704095Y-62045524D01*
X111972381Y-63522857D02*
X111496190Y-63856191D01*
X111972381Y-64094286D02*
X110972381Y-64094286D01*
X110972381Y-63713333D01*
X111020000Y-63618095D01*
X111067619Y-63570476D01*
X111162857Y-63522857D01*
X111305714Y-63522857D01*
X111400952Y-63570476D01*
X111448571Y-63618095D01*
X111496190Y-63713333D01*
X111496190Y-64094286D01*
X110972381Y-63189524D02*
X110972381Y-62570476D01*
X111353333Y-62903810D01*
X111353333Y-62760952D01*
X111400952Y-62665714D01*
X111448571Y-62618095D01*
X111543810Y-62570476D01*
X111781905Y-62570476D01*
X111877143Y-62618095D01*
X111924762Y-62665714D01*
X111972381Y-62760952D01*
X111972381Y-63046667D01*
X111924762Y-63141905D01*
X111877143Y-63189524D01*
X111067619Y-62189524D02*
X111020000Y-62141905D01*
X110972381Y-62046667D01*
X110972381Y-61808571D01*
X111020000Y-61713333D01*
X111067619Y-61665714D01*
X111162857Y-61618095D01*
X111258095Y-61618095D01*
X111400952Y-61665714D01*
X111972381Y-62237143D01*
X111972381Y-61618095D01*
X53954667Y-113660381D02*
X53954667Y-114374667D01*
X53907047Y-114517524D01*
X53811809Y-114612762D01*
X53668952Y-114660381D01*
X53573714Y-114660381D01*
X54335619Y-113660381D02*
X54954667Y-113660381D01*
X54621333Y-114041333D01*
X54764191Y-114041333D01*
X54859429Y-114088952D01*
X54907048Y-114136571D01*
X54954667Y-114231810D01*
X54954667Y-114469905D01*
X54907048Y-114565143D01*
X54859429Y-114612762D01*
X54764191Y-114660381D01*
X54478476Y-114660381D01*
X54383238Y-114612762D01*
X54335619Y-114565143D01*
X87282381Y-126583333D02*
X87996667Y-126583333D01*
X88139524Y-126630953D01*
X88234762Y-126726191D01*
X88282381Y-126869048D01*
X88282381Y-126964286D01*
X88282381Y-126107143D02*
X87282381Y-126107143D01*
X87282381Y-125726190D01*
X87330000Y-125630952D01*
X87377619Y-125583333D01*
X87472857Y-125535714D01*
X87615714Y-125535714D01*
X87710952Y-125583333D01*
X87758571Y-125630952D01*
X87806190Y-125726190D01*
X87806190Y-126107143D01*
X88282381Y-124583333D02*
X88282381Y-125154762D01*
X88282381Y-124869048D02*
X87282381Y-124869048D01*
X87425238Y-124964286D01*
X87520476Y-125059524D01*
X87568095Y-125154762D01*
X128428095Y-86174381D02*
X128428095Y-86983905D01*
X128475714Y-87079143D01*
X128523333Y-87126762D01*
X128618571Y-87174381D01*
X128809048Y-87174381D01*
X128904286Y-87126762D01*
X128951905Y-87079143D01*
X128999524Y-86983905D01*
X128999524Y-86174381D01*
X129904286Y-86507714D02*
X129904286Y-87174381D01*
X129666190Y-86126762D02*
X129428095Y-86841048D01*
X130047143Y-86841048D01*
X83312095Y-138454381D02*
X83312095Y-139263905D01*
X83359714Y-139359143D01*
X83407333Y-139406762D01*
X83502571Y-139454381D01*
X83693048Y-139454381D01*
X83788286Y-139406762D01*
X83835905Y-139359143D01*
X83883524Y-139263905D01*
X83883524Y-138454381D01*
X84264476Y-138454381D02*
X84883524Y-138454381D01*
X84550190Y-138835333D01*
X84693048Y-138835333D01*
X84788286Y-138882952D01*
X84835905Y-138930571D01*
X84883524Y-139025810D01*
X84883524Y-139263905D01*
X84835905Y-139359143D01*
X84788286Y-139406762D01*
X84693048Y-139454381D01*
X84407333Y-139454381D01*
X84312095Y-139406762D01*
X84264476Y-139359143D01*
X57761143Y-57538857D02*
X57808762Y-57586476D01*
X57856381Y-57729333D01*
X57856381Y-57824571D01*
X57808762Y-57967429D01*
X57713524Y-58062667D01*
X57618286Y-58110286D01*
X57427810Y-58157905D01*
X57284952Y-58157905D01*
X57094476Y-58110286D01*
X56999238Y-58062667D01*
X56904000Y-57967429D01*
X56856381Y-57824571D01*
X56856381Y-57729333D01*
X56904000Y-57586476D01*
X56951619Y-57538857D01*
X57856381Y-56586476D02*
X57856381Y-57157905D01*
X57856381Y-56872191D02*
X56856381Y-56872191D01*
X56999238Y-56967429D01*
X57094476Y-57062667D01*
X57142095Y-57157905D01*
X57189714Y-55729333D02*
X57856381Y-55729333D01*
X56808762Y-55967429D02*
X57523048Y-56205524D01*
X57523048Y-55586476D01*
X69111905Y-51506381D02*
X69111905Y-50506381D01*
X69350000Y-50506381D01*
X69492858Y-50554000D01*
X69588096Y-50649238D01*
X69635715Y-50744476D01*
X69683334Y-50934952D01*
X69683334Y-51077810D01*
X69635715Y-51268286D01*
X69588096Y-51363524D01*
X69492858Y-51458762D01*
X69350000Y-51506381D01*
X69111905Y-51506381D01*
X70635715Y-51506381D02*
X70064286Y-51506381D01*
X70350000Y-51506381D02*
X70350000Y-50506381D01*
X70254762Y-50649238D01*
X70159524Y-50744476D01*
X70064286Y-50792095D01*
X139800105Y-54744881D02*
X139800105Y-53744881D01*
X140038200Y-53744881D01*
X140181058Y-53792500D01*
X140276296Y-53887738D01*
X140323915Y-53982976D01*
X140371534Y-54173452D01*
X140371534Y-54316310D01*
X140323915Y-54506786D01*
X140276296Y-54602024D01*
X140181058Y-54697262D01*
X140038200Y-54744881D01*
X139800105Y-54744881D01*
X140752486Y-53840119D02*
X140800105Y-53792500D01*
X140895343Y-53744881D01*
X141133439Y-53744881D01*
X141228677Y-53792500D01*
X141276296Y-53840119D01*
X141323915Y-53935357D01*
X141323915Y-54030595D01*
X141276296Y-54173452D01*
X140704867Y-54744881D01*
X141323915Y-54744881D01*
X70445334Y-54300381D02*
X70112000Y-53824190D01*
X69873905Y-54300381D02*
X69873905Y-53300381D01*
X70254858Y-53300381D01*
X70350096Y-53348000D01*
X70397715Y-53395619D01*
X70445334Y-53490857D01*
X70445334Y-53633714D01*
X70397715Y-53728952D01*
X70350096Y-53776571D01*
X70254858Y-53824190D01*
X69873905Y-53824190D01*
X70778667Y-53300381D02*
X71397715Y-53300381D01*
X71064381Y-53681333D01*
X71207239Y-53681333D01*
X71302477Y-53728952D01*
X71350096Y-53776571D01*
X71397715Y-53871810D01*
X71397715Y-54109905D01*
X71350096Y-54205143D01*
X71302477Y-54252762D01*
X71207239Y-54300381D01*
X70921524Y-54300381D01*
X70826286Y-54252762D01*
X70778667Y-54205143D01*
X135136667Y-59952381D02*
X135136667Y-60666667D01*
X135089047Y-60809524D01*
X134993809Y-60904762D01*
X134850952Y-60952381D01*
X134755714Y-60952381D01*
X135612857Y-60952381D02*
X135612857Y-59952381D01*
X135993810Y-59952381D01*
X136089048Y-60000000D01*
X136136667Y-60047619D01*
X136184286Y-60142857D01*
X136184286Y-60285714D01*
X136136667Y-60380952D01*
X136089048Y-60428571D01*
X135993810Y-60476190D01*
X135612857Y-60476190D01*
X136565238Y-60047619D02*
X136612857Y-60000000D01*
X136708095Y-59952381D01*
X136946191Y-59952381D01*
X137041429Y-60000000D01*
X137089048Y-60047619D01*
X137136667Y-60142857D01*
X137136667Y-60238095D01*
X137089048Y-60380952D01*
X136517619Y-60952381D01*
X137136667Y-60952381D01*
X94916667Y-50506381D02*
X94916667Y-51220667D01*
X94869047Y-51363524D01*
X94773809Y-51458762D01*
X94630952Y-51506381D01*
X94535714Y-51506381D01*
X95821429Y-50506381D02*
X95630952Y-50506381D01*
X95535714Y-50554000D01*
X95488095Y-50601619D01*
X95392857Y-50744476D01*
X95345238Y-50934952D01*
X95345238Y-51315905D01*
X95392857Y-51411143D01*
X95440476Y-51458762D01*
X95535714Y-51506381D01*
X95726191Y-51506381D01*
X95821429Y-51458762D01*
X95869048Y-51411143D01*
X95916667Y-51315905D01*
X95916667Y-51077810D01*
X95869048Y-50982571D01*
X95821429Y-50934952D01*
X95726191Y-50887333D01*
X95535714Y-50887333D01*
X95440476Y-50934952D01*
X95392857Y-50982571D01*
X95345238Y-51077810D01*
X78684381Y-83732666D02*
X78208190Y-84066000D01*
X78684381Y-84304095D02*
X77684381Y-84304095D01*
X77684381Y-83923142D01*
X77732000Y-83827904D01*
X77779619Y-83780285D01*
X77874857Y-83732666D01*
X78017714Y-83732666D01*
X78112952Y-83780285D01*
X78160571Y-83827904D01*
X78208190Y-83923142D01*
X78208190Y-84304095D01*
X77684381Y-82827904D02*
X77684381Y-83304095D01*
X78160571Y-83351714D01*
X78112952Y-83304095D01*
X78065333Y-83208857D01*
X78065333Y-82970761D01*
X78112952Y-82875523D01*
X78160571Y-82827904D01*
X78255810Y-82780285D01*
X78493905Y-82780285D01*
X78589143Y-82827904D01*
X78636762Y-82875523D01*
X78684381Y-82970761D01*
X78684381Y-83208857D01*
X78636762Y-83304095D01*
X78589143Y-83351714D01*
X86596481Y-113628466D02*
X86120290Y-113961800D01*
X86596481Y-114199895D02*
X85596481Y-114199895D01*
X85596481Y-113818942D01*
X85644100Y-113723704D01*
X85691719Y-113676085D01*
X85786957Y-113628466D01*
X85929814Y-113628466D01*
X86025052Y-113676085D01*
X86072671Y-113723704D01*
X86120290Y-113818942D01*
X86120290Y-114199895D01*
X85596481Y-113295133D02*
X85596481Y-112628466D01*
X86596481Y-113057038D01*
X69445143Y-121832666D02*
X69492762Y-121880285D01*
X69540381Y-122023142D01*
X69540381Y-122118380D01*
X69492762Y-122261238D01*
X69397524Y-122356476D01*
X69302286Y-122404095D01*
X69111810Y-122451714D01*
X68968952Y-122451714D01*
X68778476Y-122404095D01*
X68683238Y-122356476D01*
X68588000Y-122261238D01*
X68540381Y-122118380D01*
X68540381Y-122023142D01*
X68588000Y-121880285D01*
X68635619Y-121832666D01*
X69540381Y-121356476D02*
X69540381Y-121166000D01*
X69492762Y-121070761D01*
X69445143Y-121023142D01*
X69302286Y-120927904D01*
X69111810Y-120880285D01*
X68730857Y-120880285D01*
X68635619Y-120927904D01*
X68588000Y-120975523D01*
X68540381Y-121070761D01*
X68540381Y-121261238D01*
X68588000Y-121356476D01*
X68635619Y-121404095D01*
X68730857Y-121451714D01*
X68968952Y-121451714D01*
X69064190Y-121404095D01*
X69111810Y-121356476D01*
X69159429Y-121261238D01*
X69159429Y-121070761D01*
X69111810Y-120975523D01*
X69064190Y-120927904D01*
X68968952Y-120880285D01*
X84685143Y-93352857D02*
X84732762Y-93400476D01*
X84780381Y-93543333D01*
X84780381Y-93638571D01*
X84732762Y-93781429D01*
X84637524Y-93876667D01*
X84542286Y-93924286D01*
X84351810Y-93971905D01*
X84208952Y-93971905D01*
X84018476Y-93924286D01*
X83923238Y-93876667D01*
X83828000Y-93781429D01*
X83780381Y-93638571D01*
X83780381Y-93543333D01*
X83828000Y-93400476D01*
X83875619Y-93352857D01*
X84780381Y-92400476D02*
X84780381Y-92971905D01*
X84780381Y-92686191D02*
X83780381Y-92686191D01*
X83923238Y-92781429D01*
X84018476Y-92876667D01*
X84066095Y-92971905D01*
X84780381Y-91448095D02*
X84780381Y-92019524D01*
X84780381Y-91733810D02*
X83780381Y-91733810D01*
X83923238Y-91829048D01*
X84018476Y-91924286D01*
X84066095Y-92019524D01*
X76065143Y-76049143D02*
X76017524Y-76096762D01*
X75874667Y-76144381D01*
X75779429Y-76144381D01*
X75636571Y-76096762D01*
X75541333Y-76001524D01*
X75493714Y-75906286D01*
X75446095Y-75715810D01*
X75446095Y-75572952D01*
X75493714Y-75382476D01*
X75541333Y-75287238D01*
X75636571Y-75192000D01*
X75779429Y-75144381D01*
X75874667Y-75144381D01*
X76017524Y-75192000D01*
X76065143Y-75239619D01*
X77017524Y-76144381D02*
X76446095Y-76144381D01*
X76731809Y-76144381D02*
X76731809Y-75144381D01*
X76636571Y-75287238D01*
X76541333Y-75382476D01*
X76446095Y-75430095D01*
X77398476Y-75239619D02*
X77446095Y-75192000D01*
X77541333Y-75144381D01*
X77779429Y-75144381D01*
X77874667Y-75192000D01*
X77922286Y-75239619D01*
X77969905Y-75334857D01*
X77969905Y-75430095D01*
X77922286Y-75572952D01*
X77350857Y-76144381D01*
X77969905Y-76144381D01*
X99147334Y-125579143D02*
X99099715Y-125626762D01*
X98956858Y-125674381D01*
X98861620Y-125674381D01*
X98718762Y-125626762D01*
X98623524Y-125531524D01*
X98575905Y-125436286D01*
X98528286Y-125245810D01*
X98528286Y-125102952D01*
X98575905Y-124912476D01*
X98623524Y-124817238D01*
X98718762Y-124722000D01*
X98861620Y-124674381D01*
X98956858Y-124674381D01*
X99099715Y-124722000D01*
X99147334Y-124769619D01*
X99528286Y-124769619D02*
X99575905Y-124722000D01*
X99671143Y-124674381D01*
X99909239Y-124674381D01*
X100004477Y-124722000D01*
X100052096Y-124769619D01*
X100099715Y-124864857D01*
X100099715Y-124960095D01*
X100052096Y-125102952D01*
X99480667Y-125674381D01*
X100099715Y-125674381D01*
X102560381Y-117578095D02*
X101560381Y-117578095D01*
X101560381Y-117340000D01*
X101608000Y-117197142D01*
X101703238Y-117101904D01*
X101798476Y-117054285D01*
X101988952Y-117006666D01*
X102131810Y-117006666D01*
X102322286Y-117054285D01*
X102417524Y-117101904D01*
X102512762Y-117197142D01*
X102560381Y-117340000D01*
X102560381Y-117578095D01*
X101560381Y-116101904D02*
X101560381Y-116578095D01*
X102036571Y-116625714D01*
X101988952Y-116578095D01*
X101941333Y-116482857D01*
X101941333Y-116244761D01*
X101988952Y-116149523D01*
X102036571Y-116101904D01*
X102131810Y-116054285D01*
X102369905Y-116054285D01*
X102465143Y-116101904D01*
X102512762Y-116149523D01*
X102560381Y-116244761D01*
X102560381Y-116482857D01*
X102512762Y-116578095D01*
X102465143Y-116625714D01*
X98496381Y-117578095D02*
X97496381Y-117578095D01*
X97496381Y-117340000D01*
X97544000Y-117197142D01*
X97639238Y-117101904D01*
X97734476Y-117054285D01*
X97924952Y-117006666D01*
X98067810Y-117006666D01*
X98258286Y-117054285D01*
X98353524Y-117101904D01*
X98448762Y-117197142D01*
X98496381Y-117340000D01*
X98496381Y-117578095D01*
X97496381Y-116149523D02*
X97496381Y-116340000D01*
X97544000Y-116435238D01*
X97591619Y-116482857D01*
X97734476Y-116578095D01*
X97924952Y-116625714D01*
X98305905Y-116625714D01*
X98401143Y-116578095D01*
X98448762Y-116530476D01*
X98496381Y-116435238D01*
X98496381Y-116244761D01*
X98448762Y-116149523D01*
X98401143Y-116101904D01*
X98305905Y-116054285D01*
X98067810Y-116054285D01*
X97972571Y-116101904D01*
X97924952Y-116149523D01*
X97877333Y-116244761D01*
X97877333Y-116435238D01*
X97924952Y-116530476D01*
X97972571Y-116578095D01*
X98067810Y-116625714D01*
X87936667Y-71992381D02*
X87936667Y-72706667D01*
X87889047Y-72849524D01*
X87793809Y-72944762D01*
X87650952Y-72992381D01*
X87555714Y-72992381D01*
X88412857Y-72992381D02*
X88412857Y-71992381D01*
X88793810Y-71992381D01*
X88889048Y-72040000D01*
X88936667Y-72087619D01*
X88984286Y-72182857D01*
X88984286Y-72325714D01*
X88936667Y-72420952D01*
X88889048Y-72468571D01*
X88793810Y-72516190D01*
X88412857Y-72516190D01*
X89317619Y-71992381D02*
X89936667Y-71992381D01*
X89603333Y-72373333D01*
X89746191Y-72373333D01*
X89841429Y-72420952D01*
X89889048Y-72468571D01*
X89936667Y-72563810D01*
X89936667Y-72801905D01*
X89889048Y-72897143D01*
X89841429Y-72944762D01*
X89746191Y-72992381D01*
X89460476Y-72992381D01*
X89365238Y-72944762D01*
X89317619Y-72897143D01*
X86902166Y-60871929D02*
X87003181Y-60299508D01*
X86498104Y-60467868D02*
X87205211Y-59760761D01*
X87474586Y-60030135D01*
X87508257Y-60131151D01*
X87508257Y-60198494D01*
X87474586Y-60299509D01*
X87373570Y-60400524D01*
X87272555Y-60434196D01*
X87205212Y-60434196D01*
X87104197Y-60400524D01*
X86834822Y-60131150D01*
X87710288Y-60871928D02*
X87676616Y-60770913D01*
X87676616Y-60703570D01*
X87710288Y-60602555D01*
X87743959Y-60568883D01*
X87844974Y-60535211D01*
X87912318Y-60535211D01*
X88013333Y-60568883D01*
X88148021Y-60703570D01*
X88181692Y-60804586D01*
X88181692Y-60871929D01*
X88148021Y-60972944D01*
X88114349Y-61006616D01*
X88013334Y-61040288D01*
X87945990Y-61040288D01*
X87844975Y-61006616D01*
X87710288Y-60871928D01*
X87609272Y-60838257D01*
X87541929Y-60838257D01*
X87440913Y-60871929D01*
X87306226Y-61006616D01*
X87272555Y-61107631D01*
X87272555Y-61174974D01*
X87306226Y-61275990D01*
X87440914Y-61410677D01*
X87541929Y-61444349D01*
X87609272Y-61444349D01*
X87710288Y-61410677D01*
X87844974Y-61275990D01*
X87878647Y-61174974D01*
X87878647Y-61107631D01*
X87844975Y-61006616D01*
X97025334Y-94822381D02*
X96692000Y-94346190D01*
X96453905Y-94822381D02*
X96453905Y-93822381D01*
X96834858Y-93822381D01*
X96930096Y-93870000D01*
X96977715Y-93917619D01*
X97025334Y-94012857D01*
X97025334Y-94155714D01*
X96977715Y-94250952D01*
X96930096Y-94298571D01*
X96834858Y-94346190D01*
X96453905Y-94346190D01*
X97501524Y-94822381D02*
X97692000Y-94822381D01*
X97787239Y-94774762D01*
X97834858Y-94727143D01*
X97930096Y-94584286D01*
X97977715Y-94393810D01*
X97977715Y-94012857D01*
X97930096Y-93917619D01*
X97882477Y-93870000D01*
X97787239Y-93822381D01*
X97596762Y-93822381D01*
X97501524Y-93870000D01*
X97453905Y-93917619D01*
X97406286Y-94012857D01*
X97406286Y-94250952D01*
X97453905Y-94346190D01*
X97501524Y-94393810D01*
X97596762Y-94441429D01*
X97787239Y-94441429D01*
X97882477Y-94393810D01*
X97930096Y-94346190D01*
X97977715Y-94250952D01*
X95898095Y-73696381D02*
X95898095Y-74505905D01*
X95945714Y-74601143D01*
X95993333Y-74648762D01*
X96088571Y-74696381D01*
X96279048Y-74696381D01*
X96374286Y-74648762D01*
X96421905Y-74601143D01*
X96469524Y-74505905D01*
X96469524Y-73696381D01*
X97374286Y-73696381D02*
X97183809Y-73696381D01*
X97088571Y-73744000D01*
X97040952Y-73791619D01*
X96945714Y-73934476D01*
X96898095Y-74124952D01*
X96898095Y-74505905D01*
X96945714Y-74601143D01*
X96993333Y-74648762D01*
X97088571Y-74696381D01*
X97279048Y-74696381D01*
X97374286Y-74648762D01*
X97421905Y-74601143D01*
X97469524Y-74505905D01*
X97469524Y-74267810D01*
X97421905Y-74172571D01*
X97374286Y-74124952D01*
X97279048Y-74077333D01*
X97088571Y-74077333D01*
X96993333Y-74124952D01*
X96945714Y-74172571D01*
X96898095Y-74267810D01*
X128187143Y-64517143D02*
X128139524Y-64564762D01*
X127996667Y-64612381D01*
X127901429Y-64612381D01*
X127758571Y-64564762D01*
X127663333Y-64469524D01*
X127615714Y-64374286D01*
X127568095Y-64183810D01*
X127568095Y-64040952D01*
X127615714Y-63850476D01*
X127663333Y-63755238D01*
X127758571Y-63660000D01*
X127901429Y-63612381D01*
X127996667Y-63612381D01*
X128139524Y-63660000D01*
X128187143Y-63707619D01*
X129091905Y-63612381D02*
X128615714Y-63612381D01*
X128568095Y-64088571D01*
X128615714Y-64040952D01*
X128710952Y-63993333D01*
X128949048Y-63993333D01*
X129044286Y-64040952D01*
X129091905Y-64088571D01*
X129139524Y-64183810D01*
X129139524Y-64421905D01*
X129091905Y-64517143D01*
X129044286Y-64564762D01*
X128949048Y-64612381D01*
X128710952Y-64612381D01*
X128615714Y-64564762D01*
X128568095Y-64517143D01*
X129758571Y-63612381D02*
X129853810Y-63612381D01*
X129949048Y-63660000D01*
X129996667Y-63707619D01*
X130044286Y-63802857D01*
X130091905Y-63993333D01*
X130091905Y-64231429D01*
X130044286Y-64421905D01*
X129996667Y-64517143D01*
X129949048Y-64564762D01*
X129853810Y-64612381D01*
X129758571Y-64612381D01*
X129663333Y-64564762D01*
X129615714Y-64517143D01*
X129568095Y-64421905D01*
X129520476Y-64231429D01*
X129520476Y-63993333D01*
X129568095Y-63802857D01*
X129615714Y-63707619D01*
X129663333Y-63660000D01*
X129758571Y-63612381D01*
X105013334Y-70157143D02*
X104965715Y-70204762D01*
X104822858Y-70252381D01*
X104727620Y-70252381D01*
X104584762Y-70204762D01*
X104489524Y-70109524D01*
X104441905Y-70014286D01*
X104394286Y-69823810D01*
X104394286Y-69680952D01*
X104441905Y-69490476D01*
X104489524Y-69395238D01*
X104584762Y-69300000D01*
X104727620Y-69252381D01*
X104822858Y-69252381D01*
X104965715Y-69300000D01*
X105013334Y-69347619D01*
X105870477Y-69585714D02*
X105870477Y-70252381D01*
X105632381Y-69204762D02*
X105394286Y-69919048D01*
X106013334Y-69919048D01*
X101401905Y-101762381D02*
X101401905Y-100762381D01*
X101640000Y-100762381D01*
X101782858Y-100810000D01*
X101878096Y-100905238D01*
X101925715Y-101000476D01*
X101973334Y-101190952D01*
X101973334Y-101333810D01*
X101925715Y-101524286D01*
X101878096Y-101619524D01*
X101782858Y-101714762D01*
X101640000Y-101762381D01*
X101401905Y-101762381D01*
X102306667Y-100762381D02*
X102925715Y-100762381D01*
X102592381Y-101143333D01*
X102735239Y-101143333D01*
X102830477Y-101190952D01*
X102878096Y-101238571D01*
X102925715Y-101333810D01*
X102925715Y-101571905D01*
X102878096Y-101667143D01*
X102830477Y-101714762D01*
X102735239Y-101762381D01*
X102449524Y-101762381D01*
X102354286Y-101714762D01*
X102306667Y-101667143D01*
X101511905Y-98522381D02*
X101511905Y-97522381D01*
X101750000Y-97522381D01*
X101892858Y-97570000D01*
X101988096Y-97665238D01*
X102035715Y-97760476D01*
X102083334Y-97950952D01*
X102083334Y-98093810D01*
X102035715Y-98284286D01*
X101988096Y-98379524D01*
X101892858Y-98474762D01*
X101750000Y-98522381D01*
X101511905Y-98522381D01*
X102940477Y-97855714D02*
X102940477Y-98522381D01*
X102702381Y-97474762D02*
X102464286Y-98189048D01*
X103083334Y-98189048D01*
X104751143Y-84748666D02*
X104798762Y-84796285D01*
X104846381Y-84939142D01*
X104846381Y-85034380D01*
X104798762Y-85177238D01*
X104703524Y-85272476D01*
X104608286Y-85320095D01*
X104417810Y-85367714D01*
X104274952Y-85367714D01*
X104084476Y-85320095D01*
X103989238Y-85272476D01*
X103894000Y-85177238D01*
X103846381Y-85034380D01*
X103846381Y-84939142D01*
X103894000Y-84796285D01*
X103941619Y-84748666D01*
X103846381Y-84415333D02*
X103846381Y-83796285D01*
X104227333Y-84129619D01*
X104227333Y-83986761D01*
X104274952Y-83891523D01*
X104322571Y-83843904D01*
X104417810Y-83796285D01*
X104655905Y-83796285D01*
X104751143Y-83843904D01*
X104798762Y-83891523D01*
X104846381Y-83986761D01*
X104846381Y-84272476D01*
X104798762Y-84367714D01*
X104751143Y-84415333D01*
X49666667Y-46404381D02*
X49666667Y-47118667D01*
X49619047Y-47261524D01*
X49523809Y-47356762D01*
X49380952Y-47404381D01*
X49285714Y-47404381D01*
X50047619Y-46404381D02*
X50714286Y-46404381D01*
X50285714Y-47404381D01*
X49666667Y-136404381D02*
X49666667Y-137118667D01*
X49619047Y-137261524D01*
X49523809Y-137356762D01*
X49380952Y-137404381D01*
X49285714Y-137404381D01*
X50190476Y-137404381D02*
X50380952Y-137404381D01*
X50476191Y-137356762D01*
X50523810Y-137309143D01*
X50619048Y-137166286D01*
X50666667Y-136975810D01*
X50666667Y-136594857D01*
X50619048Y-136499619D01*
X50571429Y-136452000D01*
X50476191Y-136404381D01*
X50285714Y-136404381D01*
X50190476Y-136452000D01*
X50142857Y-136499619D01*
X50095238Y-136594857D01*
X50095238Y-136832952D01*
X50142857Y-136928190D01*
X50190476Y-136975810D01*
X50285714Y-137023429D01*
X50476191Y-137023429D01*
X50571429Y-136975810D01*
X50619048Y-136928190D01*
X50666667Y-136832952D01*
X139190477Y-46404381D02*
X139190477Y-47118667D01*
X139142857Y-47261524D01*
X139047619Y-47356762D01*
X138904762Y-47404381D01*
X138809524Y-47404381D01*
X140190477Y-47404381D02*
X139619048Y-47404381D01*
X139904762Y-47404381D02*
X139904762Y-46404381D01*
X139809524Y-46547238D01*
X139714286Y-46642476D01*
X139619048Y-46690095D01*
X140809524Y-46404381D02*
X140904763Y-46404381D01*
X141000001Y-46452000D01*
X141047620Y-46499619D01*
X141095239Y-46594857D01*
X141142858Y-46785333D01*
X141142858Y-47023429D01*
X141095239Y-47213905D01*
X141047620Y-47309143D01*
X141000001Y-47356762D01*
X140904763Y-47404381D01*
X140809524Y-47404381D01*
X140714286Y-47356762D01*
X140666667Y-47309143D01*
X140619048Y-47213905D01*
X140571429Y-47023429D01*
X140571429Y-46785333D01*
X140619048Y-46594857D01*
X140666667Y-46499619D01*
X140714286Y-46452000D01*
X140809524Y-46404381D01*
X139190477Y-136404381D02*
X139190477Y-137118667D01*
X139142857Y-137261524D01*
X139047619Y-137356762D01*
X138904762Y-137404381D01*
X138809524Y-137404381D01*
X140190477Y-137404381D02*
X139619048Y-137404381D01*
X139904762Y-137404381D02*
X139904762Y-136404381D01*
X139809524Y-136547238D01*
X139714286Y-136642476D01*
X139619048Y-136690095D01*
X141142858Y-137404381D02*
X140571429Y-137404381D01*
X140857143Y-137404381D02*
X140857143Y-136404381D01*
X140761905Y-136547238D01*
X140666667Y-136642476D01*
X140571429Y-136690095D01*
X128127143Y-69367143D02*
X128079524Y-69414762D01*
X127936667Y-69462381D01*
X127841429Y-69462381D01*
X127698571Y-69414762D01*
X127603333Y-69319524D01*
X127555714Y-69224286D01*
X127508095Y-69033810D01*
X127508095Y-68890952D01*
X127555714Y-68700476D01*
X127603333Y-68605238D01*
X127698571Y-68510000D01*
X127841429Y-68462381D01*
X127936667Y-68462381D01*
X128079524Y-68510000D01*
X128127143Y-68557619D01*
X129031905Y-68462381D02*
X128555714Y-68462381D01*
X128508095Y-68938571D01*
X128555714Y-68890952D01*
X128650952Y-68843333D01*
X128889048Y-68843333D01*
X128984286Y-68890952D01*
X129031905Y-68938571D01*
X129079524Y-69033810D01*
X129079524Y-69271905D01*
X129031905Y-69367143D01*
X128984286Y-69414762D01*
X128889048Y-69462381D01*
X128650952Y-69462381D01*
X128555714Y-69414762D01*
X128508095Y-69367143D01*
X130031905Y-69462381D02*
X129460476Y-69462381D01*
X129746190Y-69462381D02*
X129746190Y-68462381D01*
X129650952Y-68605238D01*
X129555714Y-68700476D01*
X129460476Y-68748095D01*
X79525905Y-131770381D02*
X79525905Y-130770381D01*
X79764000Y-130770381D01*
X79906858Y-130818000D01*
X80002096Y-130913238D01*
X80049715Y-131008476D01*
X80097334Y-131198952D01*
X80097334Y-131341810D01*
X80049715Y-131532286D01*
X80002096Y-131627524D01*
X79906858Y-131722762D01*
X79764000Y-131770381D01*
X79525905Y-131770381D01*
X80430667Y-130770381D02*
X81097334Y-130770381D01*
X80668762Y-131770381D01*
X108926381Y-91511333D02*
X109640667Y-91511333D01*
X109783524Y-91558953D01*
X109878762Y-91654191D01*
X109926381Y-91797048D01*
X109926381Y-91892286D01*
X109926381Y-91035143D02*
X108926381Y-91035143D01*
X108926381Y-90654190D01*
X108974000Y-90558952D01*
X109021619Y-90511333D01*
X109116857Y-90463714D01*
X109259714Y-90463714D01*
X109354952Y-90511333D01*
X109402571Y-90558952D01*
X109450190Y-90654190D01*
X109450190Y-91035143D01*
X109259714Y-89606571D02*
X109926381Y-89606571D01*
X108878762Y-89844667D02*
X109593048Y-90082762D01*
X109593048Y-89463714D01*
X115322381Y-62832666D02*
X114846190Y-63166000D01*
X115322381Y-63404095D02*
X114322381Y-63404095D01*
X114322381Y-63023142D01*
X114370000Y-62927904D01*
X114417619Y-62880285D01*
X114512857Y-62832666D01*
X114655714Y-62832666D01*
X114750952Y-62880285D01*
X114798571Y-62927904D01*
X114846190Y-63023142D01*
X114846190Y-63404095D01*
X115322381Y-61880285D02*
X115322381Y-62451714D01*
X115322381Y-62166000D02*
X114322381Y-62166000D01*
X114465238Y-62261238D01*
X114560476Y-62356476D01*
X114608095Y-62451714D01*
X69461143Y-93575143D02*
X69413524Y-93622762D01*
X69270667Y-93670381D01*
X69175429Y-93670381D01*
X69032571Y-93622762D01*
X68937333Y-93527524D01*
X68889714Y-93432286D01*
X68842095Y-93241810D01*
X68842095Y-93098952D01*
X68889714Y-92908476D01*
X68937333Y-92813238D01*
X69032571Y-92718000D01*
X69175429Y-92670381D01*
X69270667Y-92670381D01*
X69413524Y-92718000D01*
X69461143Y-92765619D01*
X70413524Y-93670381D02*
X69842095Y-93670381D01*
X70127809Y-93670381D02*
X70127809Y-92670381D01*
X70032571Y-92813238D01*
X69937333Y-92908476D01*
X69842095Y-92956095D01*
X71032571Y-92670381D02*
X71127810Y-92670381D01*
X71223048Y-92718000D01*
X71270667Y-92765619D01*
X71318286Y-92860857D01*
X71365905Y-93051333D01*
X71365905Y-93289429D01*
X71318286Y-93479905D01*
X71270667Y-93575143D01*
X71223048Y-93622762D01*
X71127810Y-93670381D01*
X71032571Y-93670381D01*
X70937333Y-93622762D01*
X70889714Y-93575143D01*
X70842095Y-93479905D01*
X70794476Y-93289429D01*
X70794476Y-93051333D01*
X70842095Y-92860857D01*
X70889714Y-92765619D01*
X70937333Y-92718000D01*
X71032571Y-92670381D01*
X68699143Y-70969143D02*
X68651524Y-71016762D01*
X68508667Y-71064381D01*
X68413429Y-71064381D01*
X68270571Y-71016762D01*
X68175333Y-70921524D01*
X68127714Y-70826286D01*
X68080095Y-70635810D01*
X68080095Y-70492952D01*
X68127714Y-70302476D01*
X68175333Y-70207238D01*
X68270571Y-70112000D01*
X68413429Y-70064381D01*
X68508667Y-70064381D01*
X68651524Y-70112000D01*
X68699143Y-70159619D01*
X69651524Y-71064381D02*
X69080095Y-71064381D01*
X69365809Y-71064381D02*
X69365809Y-70064381D01*
X69270571Y-70207238D01*
X69175333Y-70302476D01*
X69080095Y-70350095D01*
X69984857Y-70064381D02*
X70603905Y-70064381D01*
X70270571Y-70445333D01*
X70413429Y-70445333D01*
X70508667Y-70492952D01*
X70556286Y-70540571D01*
X70603905Y-70635810D01*
X70603905Y-70873905D01*
X70556286Y-70969143D01*
X70508667Y-71016762D01*
X70413429Y-71064381D01*
X70127714Y-71064381D01*
X70032476Y-71016762D01*
X69984857Y-70969143D01*
X56078381Y-83446857D02*
X55602190Y-83780191D01*
X56078381Y-84018286D02*
X55078381Y-84018286D01*
X55078381Y-83637333D01*
X55126000Y-83542095D01*
X55173619Y-83494476D01*
X55268857Y-83446857D01*
X55411714Y-83446857D01*
X55506952Y-83494476D01*
X55554571Y-83542095D01*
X55602190Y-83637333D01*
X55602190Y-84018286D01*
X56078381Y-82494476D02*
X56078381Y-83065905D01*
X56078381Y-82780191D02*
X55078381Y-82780191D01*
X55221238Y-82875429D01*
X55316476Y-82970667D01*
X55364095Y-83065905D01*
X55078381Y-81875429D02*
X55078381Y-81780190D01*
X55126000Y-81684952D01*
X55173619Y-81637333D01*
X55268857Y-81589714D01*
X55459333Y-81542095D01*
X55697429Y-81542095D01*
X55887905Y-81589714D01*
X55983143Y-81637333D01*
X56030762Y-81684952D01*
X56078381Y-81780190D01*
X56078381Y-81875429D01*
X56030762Y-81970667D01*
X55983143Y-82018286D01*
X55887905Y-82065905D01*
X55697429Y-82113524D01*
X55459333Y-82113524D01*
X55268857Y-82065905D01*
X55173619Y-82018286D01*
X55126000Y-81970667D01*
X55078381Y-81875429D01*
X110434381Y-129674857D02*
X109958190Y-130008191D01*
X110434381Y-130246286D02*
X109434381Y-130246286D01*
X109434381Y-129865333D01*
X109482000Y-129770095D01*
X109529619Y-129722476D01*
X109624857Y-129674857D01*
X109767714Y-129674857D01*
X109862952Y-129722476D01*
X109910571Y-129770095D01*
X109958190Y-129865333D01*
X109958190Y-130246286D01*
X109529619Y-129293905D02*
X109482000Y-129246286D01*
X109434381Y-129151048D01*
X109434381Y-128912952D01*
X109482000Y-128817714D01*
X109529619Y-128770095D01*
X109624857Y-128722476D01*
X109720095Y-128722476D01*
X109862952Y-128770095D01*
X110434381Y-129341524D01*
X110434381Y-128722476D01*
X109529619Y-128341524D02*
X109482000Y-128293905D01*
X109434381Y-128198667D01*
X109434381Y-127960571D01*
X109482000Y-127865333D01*
X109529619Y-127817714D01*
X109624857Y-127770095D01*
X109720095Y-127770095D01*
X109862952Y-127817714D01*
X110434381Y-128389143D01*
X110434381Y-127770095D01*
X116784381Y-129166857D02*
X116308190Y-129500191D01*
X116784381Y-129738286D02*
X115784381Y-129738286D01*
X115784381Y-129357333D01*
X115832000Y-129262095D01*
X115879619Y-129214476D01*
X115974857Y-129166857D01*
X116117714Y-129166857D01*
X116212952Y-129214476D01*
X116260571Y-129262095D01*
X116308190Y-129357333D01*
X116308190Y-129738286D01*
X115879619Y-128785905D02*
X115832000Y-128738286D01*
X115784381Y-128643048D01*
X115784381Y-128404952D01*
X115832000Y-128309714D01*
X115879619Y-128262095D01*
X115974857Y-128214476D01*
X116070095Y-128214476D01*
X116212952Y-128262095D01*
X116784381Y-128833524D01*
X116784381Y-128214476D01*
X115784381Y-127881143D02*
X115784381Y-127262095D01*
X116165333Y-127595429D01*
X116165333Y-127452571D01*
X116212952Y-127357333D01*
X116260571Y-127309714D01*
X116355810Y-127262095D01*
X116593905Y-127262095D01*
X116689143Y-127309714D01*
X116736762Y-127357333D01*
X116784381Y-127452571D01*
X116784381Y-127738286D01*
X116736762Y-127833524D01*
X116689143Y-127881143D01*
X113117334Y-116943143D02*
X113069715Y-116990762D01*
X112926858Y-117038381D01*
X112831620Y-117038381D01*
X112688762Y-116990762D01*
X112593524Y-116895524D01*
X112545905Y-116800286D01*
X112498286Y-116609810D01*
X112498286Y-116466952D01*
X112545905Y-116276476D01*
X112593524Y-116181238D01*
X112688762Y-116086000D01*
X112831620Y-116038381D01*
X112926858Y-116038381D01*
X113069715Y-116086000D01*
X113117334Y-116133619D01*
X113974477Y-116038381D02*
X113784000Y-116038381D01*
X113688762Y-116086000D01*
X113641143Y-116133619D01*
X113545905Y-116276476D01*
X113498286Y-116466952D01*
X113498286Y-116847905D01*
X113545905Y-116943143D01*
X113593524Y-116990762D01*
X113688762Y-117038381D01*
X113879239Y-117038381D01*
X113974477Y-116990762D01*
X114022096Y-116943143D01*
X114069715Y-116847905D01*
X114069715Y-116609810D01*
X114022096Y-116514571D01*
X113974477Y-116466952D01*
X113879239Y-116419333D01*
X113688762Y-116419333D01*
X113593524Y-116466952D01*
X113545905Y-116514571D01*
X113498286Y-116609810D01*
X89832381Y-89776666D02*
X89356190Y-90110000D01*
X89832381Y-90348095D02*
X88832381Y-90348095D01*
X88832381Y-89967142D01*
X88880000Y-89871904D01*
X88927619Y-89824285D01*
X89022857Y-89776666D01*
X89165714Y-89776666D01*
X89260952Y-89824285D01*
X89308571Y-89871904D01*
X89356190Y-89967142D01*
X89356190Y-90348095D01*
X88927619Y-89395714D02*
X88880000Y-89348095D01*
X88832381Y-89252857D01*
X88832381Y-89014761D01*
X88880000Y-88919523D01*
X88927619Y-88871904D01*
X89022857Y-88824285D01*
X89118095Y-88824285D01*
X89260952Y-88871904D01*
X89832381Y-89443333D01*
X89832381Y-88824285D01*
X114097143Y-97596666D02*
X114144762Y-97644285D01*
X114192381Y-97787142D01*
X114192381Y-97882380D01*
X114144762Y-98025238D01*
X114049524Y-98120476D01*
X113954286Y-98168095D01*
X113763810Y-98215714D01*
X113620952Y-98215714D01*
X113430476Y-98168095D01*
X113335238Y-98120476D01*
X113240000Y-98025238D01*
X113192381Y-97882380D01*
X113192381Y-97787142D01*
X113240000Y-97644285D01*
X113287619Y-97596666D01*
X113192381Y-96691904D02*
X113192381Y-97168095D01*
X113668571Y-97215714D01*
X113620952Y-97168095D01*
X113573333Y-97072857D01*
X113573333Y-96834761D01*
X113620952Y-96739523D01*
X113668571Y-96691904D01*
X113763810Y-96644285D01*
X114001905Y-96644285D01*
X114097143Y-96691904D01*
X114144762Y-96739523D01*
X114192381Y-96834761D01*
X114192381Y-97072857D01*
X114144762Y-97168095D01*
X114097143Y-97215714D01*
X108526667Y-86332381D02*
X108526667Y-87046667D01*
X108479047Y-87189524D01*
X108383809Y-87284762D01*
X108240952Y-87332381D01*
X108145714Y-87332381D01*
X109002857Y-87332381D02*
X109002857Y-86332381D01*
X109383810Y-86332381D01*
X109479048Y-86380000D01*
X109526667Y-86427619D01*
X109574286Y-86522857D01*
X109574286Y-86665714D01*
X109526667Y-86760952D01*
X109479048Y-86808571D01*
X109383810Y-86856190D01*
X109002857Y-86856190D01*
X110479048Y-86332381D02*
X110002857Y-86332381D01*
X109955238Y-86808571D01*
X110002857Y-86760952D01*
X110098095Y-86713333D01*
X110336191Y-86713333D01*
X110431429Y-86760952D01*
X110479048Y-86808571D01*
X110526667Y-86903810D01*
X110526667Y-87141905D01*
X110479048Y-87237143D01*
X110431429Y-87284762D01*
X110336191Y-87332381D01*
X110098095Y-87332381D01*
X110002857Y-87284762D01*
X109955238Y-87237143D01*
X116918095Y-88972381D02*
X116918095Y-89781905D01*
X116965714Y-89877143D01*
X117013333Y-89924762D01*
X117108571Y-89972381D01*
X117299048Y-89972381D01*
X117394286Y-89924762D01*
X117441905Y-89877143D01*
X117489524Y-89781905D01*
X117489524Y-88972381D01*
X118441905Y-88972381D02*
X117965714Y-88972381D01*
X117918095Y-89448571D01*
X117965714Y-89400952D01*
X118060952Y-89353333D01*
X118299048Y-89353333D01*
X118394286Y-89400952D01*
X118441905Y-89448571D01*
X118489524Y-89543810D01*
X118489524Y-89781905D01*
X118441905Y-89877143D01*
X118394286Y-89924762D01*
X118299048Y-89972381D01*
X118060952Y-89972381D01*
X117965714Y-89924762D01*
X117918095Y-89877143D01*
M02*
