G04 #@! TF.FileFunction,Copper,L2,Bot,Signal*
%FSLAX46Y46*%
G04 Gerber Fmt 4.6, Leading zero omitted, Abs format (unit mm)*
G04 Created by KiCad (PCBNEW 4.0.7) date 04/02/19 10:32:40*
%MOMM*%
%LPD*%
G01*
G04 APERTURE LIST*
%ADD10C,0.100000*%
%ADD11C,1.600000*%
%ADD12O,1.600000X1.600000*%
%ADD13R,1.600000X1.600000*%
%ADD14R,2.500000X2.500000*%
%ADD15C,2.500000*%
%ADD16R,2.400000X2.400000*%
%ADD17C,2.400000*%
%ADD18R,2.200000X2.200000*%
%ADD19O,2.200000X2.200000*%
%ADD20R,2.100000X2.100000*%
%ADD21C,2.100000*%
%ADD22R,3.500000X3.500000*%
%ADD23R,1.700000X1.700000*%
%ADD24O,1.700000X1.700000*%
%ADD25R,1.800000X1.800000*%
%ADD26O,1.800000X1.800000*%
%ADD27C,2.000000*%
%ADD28C,1.800000*%
%ADD29C,1.600000*%
%ADD30C,4.064000*%
%ADD31O,2.400000X2.400000*%
%ADD32C,0.600000*%
%ADD33C,0.500000*%
G04 APERTURE END LIST*
D10*
D11*
X135636000Y-93472000D03*
D12*
X125476000Y-93472000D03*
D11*
X82550000Y-88392000D03*
D12*
X82550000Y-78232000D03*
D13*
X94488000Y-58166000D03*
D12*
X102108000Y-63246000D03*
X94488000Y-60706000D03*
X102108000Y-60706000D03*
X94488000Y-63246000D03*
X102108000Y-58166000D03*
D14*
X96774000Y-133858000D03*
D15*
X101774000Y-133858000D03*
D16*
X72898000Y-112776000D03*
D17*
X80398000Y-112776000D03*
D13*
X74676000Y-65532000D03*
D12*
X67056000Y-57912000D03*
X74676000Y-62992000D03*
X67056000Y-60452000D03*
X74676000Y-60452000D03*
X67056000Y-62992000D03*
X74676000Y-57912000D03*
X67056000Y-65532000D03*
D13*
X74168000Y-88138000D03*
D12*
X66548000Y-80518000D03*
X74168000Y-85598000D03*
X66548000Y-83058000D03*
X74168000Y-83058000D03*
X66548000Y-85598000D03*
X74168000Y-80518000D03*
X66548000Y-88138000D03*
D11*
X104394000Y-73914000D03*
X104394000Y-78914000D03*
X132588000Y-100838000D03*
X132588000Y-105838000D03*
D18*
X124968000Y-112268000D03*
D19*
X124968000Y-104648000D03*
D18*
X124968000Y-128778000D03*
D19*
X124968000Y-121158000D03*
D18*
X121158000Y-117348000D03*
D19*
X121158000Y-109728000D03*
D18*
X121158000Y-131318000D03*
D19*
X121158000Y-123698000D03*
D18*
X128778000Y-83058000D03*
D19*
X136398000Y-83058000D03*
D18*
X128778000Y-79248000D03*
D19*
X136398000Y-79248000D03*
D20*
X64008000Y-132648000D03*
D21*
X64008000Y-127548000D03*
X64008000Y-117348000D03*
X64008000Y-122448000D03*
D18*
X62484000Y-84074000D03*
D19*
X62484000Y-91694000D03*
D18*
X62484000Y-72898000D03*
D19*
X62484000Y-80518000D03*
D18*
X62738000Y-61468000D03*
D19*
X62738000Y-69088000D03*
D18*
X62738000Y-50038000D03*
D19*
X62738000Y-57658000D03*
D14*
X132588000Y-117348000D03*
D15*
X132588000Y-112348000D03*
D14*
X55118000Y-122428000D03*
D15*
X55118000Y-127428000D03*
D14*
X55118000Y-65786000D03*
D15*
X55118000Y-70786000D03*
D14*
X132588000Y-128778000D03*
D15*
X132588000Y-123778000D03*
X129167900Y-52641500D03*
X134167900Y-52641500D03*
X124167900Y-52641500D03*
X109609900Y-52806600D03*
X114609900Y-52806600D03*
X104609900Y-52806600D03*
D11*
X121158000Y-136398000D03*
D12*
X131318000Y-136398000D03*
D11*
X118618000Y-97028000D03*
D12*
X128778000Y-97028000D03*
D11*
X117348000Y-100838000D03*
D12*
X127508000Y-100838000D03*
D11*
X128778000Y-65278000D03*
D12*
X128778000Y-75438000D03*
D11*
X113284000Y-58166000D03*
D12*
X113284000Y-68326000D03*
D11*
X105664000Y-58166000D03*
D12*
X105664000Y-68326000D03*
D22*
X62738000Y-108458000D03*
X56738000Y-108458000D03*
X59738000Y-113158000D03*
D23*
X84582000Y-124714000D03*
D24*
X82042000Y-124714000D03*
X79502000Y-124714000D03*
D13*
X123698000Y-86868000D03*
D12*
X116078000Y-71628000D03*
X123698000Y-84328000D03*
X116078000Y-74168000D03*
X123698000Y-81788000D03*
X116078000Y-76708000D03*
X123698000Y-79248000D03*
X116078000Y-79248000D03*
X123698000Y-76708000D03*
X116078000Y-81788000D03*
X123698000Y-74168000D03*
X116078000Y-84328000D03*
X123698000Y-71628000D03*
X116078000Y-86868000D03*
D25*
X86614000Y-135382000D03*
D26*
X84074000Y-135382000D03*
X81534000Y-135382000D03*
D27*
X57658000Y-60706000D03*
X57658000Y-53206000D03*
D25*
X69342000Y-48514000D03*
D28*
X66802000Y-48514000D03*
D25*
X137744200Y-56324500D03*
D28*
X140284200Y-56324500D03*
D11*
X65786000Y-53848000D03*
D12*
X75946000Y-53848000D03*
D11*
X133997700Y-62141100D03*
D12*
X123837700Y-62141100D03*
D23*
X133858000Y-75438000D03*
D24*
X133858000Y-72898000D03*
X133858000Y-70358000D03*
D14*
X86106000Y-50800000D03*
D15*
X91106000Y-50800000D03*
D11*
X78486000Y-88392000D03*
D12*
X78486000Y-78232000D03*
D11*
X86106000Y-108458000D03*
D12*
X86106000Y-118618000D03*
D13*
X72644000Y-127508000D03*
D11*
X72644000Y-122508000D03*
D13*
X81026000Y-92964000D03*
D11*
X81026000Y-97964000D03*
D13*
X76708000Y-72390000D03*
D11*
X81708000Y-72390000D03*
X97028000Y-125222000D03*
X102028000Y-125222000D03*
D18*
X102108000Y-113030000D03*
D19*
X102108000Y-120650000D03*
D18*
X98044000Y-120650000D03*
D19*
X98044000Y-113030000D03*
D23*
X89662000Y-94234000D03*
D24*
X92202000Y-94234000D03*
X94742000Y-94234000D03*
D11*
X90932000Y-64262000D03*
D29*
X83747795Y-57077795D02*
X83747795Y-57077795D01*
D11*
X98552000Y-92456000D03*
D12*
X98552000Y-102616000D03*
D13*
X91948000Y-73914000D03*
D12*
X99568000Y-89154000D03*
X91948000Y-76454000D03*
X99568000Y-86614000D03*
X91948000Y-78994000D03*
X99568000Y-84074000D03*
X91948000Y-81534000D03*
X99568000Y-81534000D03*
X91948000Y-84074000D03*
X99568000Y-78994000D03*
X91948000Y-86614000D03*
X99568000Y-76454000D03*
X91948000Y-89154000D03*
X99568000Y-73914000D03*
D11*
X138569700Y-66903600D03*
X138569700Y-61903600D03*
X87630000Y-73914000D03*
X87630000Y-78914000D03*
D18*
X94996000Y-102108000D03*
D19*
X87376000Y-102108000D03*
D18*
X94996000Y-98298000D03*
D19*
X87376000Y-98298000D03*
D11*
X104394000Y-87122000D03*
X104394000Y-82122000D03*
D30*
X50000000Y-50000000D03*
X50000000Y-140000000D03*
X140000000Y-50000000D03*
X140000000Y-140000000D03*
D11*
X132588000Y-88900000D03*
X127588000Y-88900000D03*
D18*
X76454000Y-131318000D03*
D19*
X84074000Y-131318000D03*
D23*
X104140000Y-90678000D03*
D24*
X106680000Y-90678000D03*
D11*
X109474000Y-58166000D03*
D12*
X109474000Y-68326000D03*
D27*
X66548000Y-93218000D03*
X74048000Y-93218000D03*
X73406000Y-70612000D03*
X65906000Y-70612000D03*
D17*
X55880000Y-90678000D03*
D31*
X55880000Y-75438000D03*
D17*
X109982000Y-121666000D03*
D31*
X109982000Y-136906000D03*
D17*
X116332000Y-121412000D03*
D31*
X116332000Y-136652000D03*
D27*
X117094000Y-116586000D03*
X109594000Y-116586000D03*
D11*
X112014000Y-95504000D03*
D12*
X101854000Y-95504000D03*
D32*
X126238000Y-71628000D03*
X118618000Y-66040000D03*
D33*
X109609900Y-52806600D02*
X104609900Y-52806600D01*
X109474000Y-58166000D02*
X110032800Y-53229500D01*
X110032800Y-53229500D02*
X109609900Y-52806600D01*
X104394000Y-73914000D02*
X110744000Y-73914000D01*
X111506000Y-73152000D02*
X111506000Y-70104000D01*
X110744000Y-73914000D02*
X111506000Y-73152000D01*
X105308400Y-53035200D02*
X104466400Y-53035200D01*
X109474000Y-58166000D02*
X109474000Y-60198000D01*
X111506000Y-62230000D02*
X111506000Y-70104000D01*
X109474000Y-60198000D02*
X111506000Y-62230000D01*
X104466400Y-53035200D02*
X104466400Y-52955200D01*
X99568000Y-76454000D02*
X100076000Y-76454000D01*
X134018000Y-70358000D02*
X133858000Y-70358000D01*
X124968000Y-93980000D02*
X125476000Y-93472000D01*
X118618000Y-97028000D02*
X123190000Y-97028000D01*
X123190000Y-97028000D02*
X127000000Y-100838000D01*
X127000000Y-100838000D02*
X127508000Y-100838000D01*
X123698000Y-76708000D02*
X119126000Y-76708000D01*
X119126000Y-76708000D02*
X118618000Y-77216000D01*
X118618000Y-97028000D02*
X118618000Y-77216000D01*
X118618000Y-77216000D02*
X118618000Y-76708000D01*
X118618000Y-76708000D02*
X116078000Y-74168000D01*
X140284200Y-56324500D02*
X140284200Y-57759600D01*
X138811000Y-59232800D02*
X137160000Y-59232800D01*
X140284200Y-57759600D02*
X138811000Y-59232800D01*
X73406000Y-70612000D02*
X73406000Y-66548000D01*
X73406000Y-66548000D02*
X74422000Y-65532000D01*
X74422000Y-65532000D02*
X74676000Y-65532000D01*
X66548000Y-93218000D02*
X66548000Y-88138000D01*
X128778000Y-83058000D02*
X128778000Y-85090000D01*
X128778000Y-85090000D02*
X132588000Y-88900000D01*
X66802000Y-48514000D02*
X64008000Y-48514000D01*
X64008000Y-48514000D02*
X62738000Y-49784000D01*
X62738000Y-49784000D02*
X62738000Y-50038000D01*
X99568000Y-73914000D02*
X100076000Y-73914000D01*
X133858000Y-72898000D02*
X137414000Y-72898000D01*
X138569700Y-71742300D02*
X138569700Y-66903600D01*
X137414000Y-72898000D02*
X138569700Y-71742300D01*
X133938000Y-72818000D02*
X133858000Y-72898000D01*
X121158000Y-117348000D02*
X132588000Y-117348000D01*
X136398000Y-83058000D02*
X133604000Y-83058000D01*
X133858000Y-82804000D02*
X133858000Y-75438000D01*
X133604000Y-83058000D02*
X133858000Y-82804000D01*
X135636000Y-93472000D02*
X135636000Y-89662000D01*
X136398000Y-88900000D02*
X136398000Y-83058000D01*
X135636000Y-89662000D02*
X136398000Y-88900000D01*
X133858000Y-75438000D02*
X131318000Y-75438000D01*
X131318000Y-75438000D02*
X129540000Y-77216000D01*
X129540000Y-77216000D02*
X127762000Y-77216000D01*
X127762000Y-77216000D02*
X124714000Y-74168000D01*
X124714000Y-74168000D02*
X123698000Y-74168000D01*
X116078000Y-71628000D02*
X119888000Y-67818000D01*
X119888000Y-67818000D02*
X126238000Y-67818000D01*
X126238000Y-71628000D02*
X126238000Y-67818000D01*
X128778000Y-97028000D02*
X128778000Y-92202000D01*
X123698000Y-89154000D02*
X123698000Y-86868000D01*
X125222000Y-90678000D02*
X123698000Y-89154000D01*
X127254000Y-90678000D02*
X125222000Y-90678000D01*
X128778000Y-92202000D02*
X127254000Y-90678000D01*
X79502000Y-124714000D02*
X77978000Y-122428000D01*
X62738000Y-110998000D02*
X62738000Y-108458000D01*
X66548000Y-114808000D02*
X62738000Y-110998000D01*
X70358000Y-114808000D02*
X66548000Y-114808000D01*
X77978000Y-122428000D02*
X70358000Y-114808000D01*
X62738000Y-108458000D02*
X62738000Y-109728000D01*
X69342000Y-48514000D02*
X69342000Y-51308000D01*
X71882000Y-53848000D02*
X75946000Y-53848000D01*
X69342000Y-51308000D02*
X71882000Y-53848000D01*
X133997700Y-62141100D02*
X133997700Y-59118500D01*
X136791700Y-56324500D02*
X137744200Y-56324500D01*
X133997700Y-59118500D02*
X136791700Y-56324500D01*
X98298000Y-102870000D02*
X98552000Y-102616000D01*
X99568000Y-89154000D02*
X101092000Y-89154000D01*
X103124000Y-87122000D02*
X104394000Y-87122000D01*
X101092000Y-89154000D02*
X103124000Y-87122000D01*
X94742000Y-94234000D02*
X94742000Y-92710000D01*
X98552000Y-90170000D02*
X99568000Y-89154000D01*
X97282000Y-90170000D02*
X98552000Y-90170000D01*
X94742000Y-92710000D02*
X97282000Y-90170000D01*
X83747795Y-57077795D02*
X87194205Y-57077795D01*
X87630000Y-56642000D02*
X87630000Y-56388000D01*
X87194205Y-57077795D02*
X87630000Y-56642000D01*
X91106000Y-52912000D02*
X91106000Y-50800000D01*
X87630000Y-56388000D02*
X91106000Y-52912000D01*
X101854000Y-95504000D02*
X98552000Y-95504000D01*
X89662000Y-95250000D02*
X89662000Y-94234000D01*
X90424000Y-96012000D02*
X89662000Y-95250000D01*
X98044000Y-96012000D02*
X90424000Y-96012000D01*
X98552000Y-95504000D02*
X98044000Y-96012000D01*
X105664000Y-68326000D02*
X103632000Y-70358000D01*
X89408000Y-73914000D02*
X91948000Y-76454000D01*
X89408000Y-72390000D02*
X89408000Y-73914000D01*
X91440000Y-70358000D02*
X89408000Y-72390000D01*
X103632000Y-70358000D02*
X91440000Y-70358000D01*
X92202000Y-94234000D02*
X92202000Y-93726000D01*
X92202000Y-93726000D02*
X96012000Y-89916000D01*
X95758000Y-78994000D02*
X91948000Y-78994000D01*
X96012000Y-79248000D02*
X95758000Y-78994000D01*
X96012000Y-89916000D02*
X96012000Y-79248000D01*
X91948000Y-78994000D02*
X92456000Y-78994000D01*
X94488000Y-58166000D02*
X92202000Y-58166000D01*
X90932000Y-59436000D02*
X90932000Y-64262000D01*
X92202000Y-58166000D02*
X90932000Y-59436000D01*
X94488000Y-58166000D02*
X93726000Y-58166000D01*
X91948000Y-86614000D02*
X90932000Y-86614000D01*
X90932000Y-86614000D02*
X82550000Y-78232000D01*
X94742000Y-98552000D02*
X94996000Y-98298000D01*
X94742000Y-102362000D02*
X94996000Y-102108000D01*
X75184000Y-69088000D02*
X75184000Y-68580000D01*
X75692000Y-62992000D02*
X74676000Y-62992000D01*
X76454000Y-63754000D02*
X75692000Y-62992000D01*
X76454000Y-67310000D02*
X76454000Y-63754000D01*
X75184000Y-68580000D02*
X76454000Y-67310000D01*
X73914000Y-62992000D02*
X74676000Y-62992000D01*
X75184000Y-71628000D02*
X75184000Y-69088000D01*
X74676000Y-72136000D02*
X75184000Y-71628000D01*
X74676000Y-74930000D02*
X74676000Y-72136000D01*
X76454000Y-76708000D02*
X74676000Y-74930000D01*
X76454000Y-81280000D02*
X76454000Y-76708000D01*
X82550000Y-87376000D02*
X76454000Y-81280000D01*
X82550000Y-88392000D02*
X82550000Y-87376000D01*
X91948000Y-81534000D02*
X91694000Y-81534000D01*
X91694000Y-81534000D02*
X89154000Y-78994000D01*
X80264000Y-76454000D02*
X78486000Y-78232000D01*
X88138000Y-76454000D02*
X80264000Y-76454000D01*
X89154000Y-77470000D02*
X88138000Y-76454000D01*
X89154000Y-78994000D02*
X89154000Y-77470000D01*
X91948000Y-81534000D02*
X91948000Y-84074000D01*
X78486000Y-78232000D02*
X78486000Y-77470000D01*
X118618000Y-66040000D02*
X118618000Y-63779400D01*
X120256300Y-62141100D02*
X123837700Y-62141100D01*
X118618000Y-63779400D02*
X120256300Y-62141100D01*
X81534000Y-135382000D02*
X81534000Y-133858000D01*
X81534000Y-133858000D02*
X84074000Y-131318000D01*
X84074000Y-131318000D02*
X84582000Y-124714000D01*
X81534000Y-135382000D02*
X81788000Y-134620000D01*
X104140000Y-90678000D02*
X104140000Y-92710000D01*
X106426000Y-94996000D02*
X111506000Y-94996000D01*
X104140000Y-92710000D02*
X106426000Y-94996000D01*
X111506000Y-94996000D02*
X112014000Y-95504000D01*
X109474000Y-68326000D02*
X109474000Y-69088000D01*
X109474000Y-69088000D02*
X106934000Y-71628000D01*
X106934000Y-71628000D02*
X94234000Y-71628000D01*
X94234000Y-71628000D02*
X91948000Y-73914000D01*
X91948000Y-73914000D02*
X91948000Y-74168000D01*
G36*
X66146415Y-47086183D02*
X66107665Y-47183269D01*
X66802000Y-47877604D01*
X67120198Y-47559406D01*
X67677307Y-48116515D01*
X67677307Y-48275089D01*
X67438396Y-48514000D01*
X67677307Y-48752911D01*
X67677307Y-48911485D01*
X67120198Y-49468594D01*
X66802000Y-49150396D01*
X66107665Y-49844731D01*
X66208269Y-50096786D01*
X66697184Y-50176954D01*
X67110003Y-50589773D01*
X67838544Y-49861232D01*
X67893862Y-49947198D01*
X68144492Y-50118446D01*
X68342000Y-50158442D01*
X68342000Y-51308000D01*
X68418120Y-51690684D01*
X68634893Y-52015107D01*
X71174891Y-54555104D01*
X71174893Y-54555107D01*
X71499317Y-54771880D01*
X71882000Y-54848000D01*
X74755462Y-54848000D01*
X74819618Y-54944016D01*
X75322475Y-55280013D01*
X75915634Y-55398000D01*
X75976366Y-55398000D01*
X76113870Y-55370649D01*
X76093642Y-57251887D01*
X75802382Y-56815984D01*
X75299525Y-56479987D01*
X74706366Y-56362000D01*
X74645634Y-56362000D01*
X74052475Y-56479987D01*
X73549618Y-56815984D01*
X73213621Y-57318841D01*
X73095634Y-57912000D01*
X73213621Y-58505159D01*
X73549618Y-59008016D01*
X73810004Y-59182000D01*
X73549618Y-59355984D01*
X73213621Y-59858841D01*
X73095634Y-60452000D01*
X73213621Y-61045159D01*
X73549618Y-61548016D01*
X73810004Y-61722000D01*
X73549618Y-61895984D01*
X73356594Y-62184866D01*
X73206893Y-62284893D01*
X72990120Y-62609317D01*
X72914000Y-62992000D01*
X72990120Y-63374683D01*
X73206893Y-63699107D01*
X73356594Y-63799134D01*
X73473435Y-63974000D01*
X73425998Y-63974000D01*
X73425998Y-64110028D01*
X73233398Y-64302628D01*
X73118000Y-64581225D01*
X73118000Y-64942500D01*
X73307500Y-65132000D01*
X74276000Y-65132000D01*
X74276000Y-64732000D01*
X75076000Y-64732000D01*
X75076000Y-65132000D01*
X75454000Y-65132000D01*
X75454000Y-65932000D01*
X75076000Y-65932000D01*
X75076000Y-66900500D01*
X75262643Y-67087143D01*
X74476893Y-67872893D01*
X74260120Y-68197316D01*
X74237706Y-68310000D01*
X74184000Y-68580000D01*
X74184000Y-68862032D01*
X73786099Y-68464131D01*
X73414692Y-68835538D01*
X73321642Y-68821545D01*
X72798759Y-68925552D01*
X72682655Y-69181548D01*
X73406000Y-69904893D01*
X73759554Y-69551340D01*
X74184000Y-69975786D01*
X74184000Y-70541107D01*
X74113107Y-70612000D01*
X74184000Y-70682893D01*
X74184000Y-71213786D01*
X73968893Y-71428893D01*
X73899567Y-71532647D01*
X73759554Y-71672661D01*
X73406000Y-71319107D01*
X72682655Y-72042452D01*
X72798759Y-72298448D01*
X73417769Y-72391539D01*
X73676000Y-72649770D01*
X73676000Y-74930000D01*
X73752120Y-75312684D01*
X73968893Y-75637107D01*
X75454000Y-77122214D01*
X75454000Y-79660870D01*
X75294382Y-79421984D01*
X74791525Y-79085987D01*
X74198366Y-78968000D01*
X74137634Y-78968000D01*
X73544475Y-79085987D01*
X73041618Y-79421984D01*
X72705621Y-79924841D01*
X72587634Y-80518000D01*
X72705621Y-81111159D01*
X73041618Y-81614016D01*
X73302004Y-81788000D01*
X73041618Y-81961984D01*
X72705621Y-82464841D01*
X72587634Y-83058000D01*
X72705621Y-83651159D01*
X73041618Y-84154016D01*
X73302004Y-84328000D01*
X73041618Y-84501984D01*
X72705621Y-85004841D01*
X72587634Y-85598000D01*
X72705621Y-86191159D01*
X72965435Y-86580000D01*
X72917998Y-86580000D01*
X72917998Y-86716028D01*
X72725398Y-86908628D01*
X72610000Y-87187225D01*
X72610000Y-87548500D01*
X72799500Y-87738000D01*
X73768000Y-87738000D01*
X73768000Y-87338000D01*
X74568000Y-87338000D01*
X74568000Y-87738000D01*
X75536500Y-87738000D01*
X75726000Y-87548500D01*
X75726000Y-87187225D01*
X75610602Y-86908628D01*
X75418002Y-86716028D01*
X75418002Y-86580000D01*
X75370565Y-86580000D01*
X75630379Y-86191159D01*
X75748366Y-85598000D01*
X75630379Y-85004841D01*
X75294382Y-84501984D01*
X75033996Y-84328000D01*
X75294382Y-84154016D01*
X75630379Y-83651159D01*
X75748366Y-83058000D01*
X75630379Y-82464841D01*
X75294382Y-81961984D01*
X75033996Y-81788000D01*
X75294382Y-81614016D01*
X75468582Y-81353307D01*
X75530120Y-81662684D01*
X75746893Y-81987107D01*
X81254703Y-87494917D01*
X81236740Y-87512849D01*
X81000270Y-88082333D01*
X80999732Y-88698961D01*
X81235208Y-89268857D01*
X81670849Y-89705260D01*
X82240333Y-89941730D01*
X82856961Y-89942268D01*
X83426857Y-89706792D01*
X83863260Y-89271151D01*
X84099730Y-88701667D01*
X84100268Y-88085039D01*
X83864792Y-87515143D01*
X83506230Y-87155954D01*
X83473880Y-86993317D01*
X83473880Y-86993316D01*
X83257107Y-86668893D01*
X77454000Y-80865786D01*
X77454000Y-79401156D01*
X77892841Y-79694379D01*
X78486000Y-79812366D01*
X79079159Y-79694379D01*
X79582016Y-79358382D01*
X79918013Y-78855525D01*
X80036000Y-78262366D01*
X80036000Y-78201634D01*
X80018510Y-78113704D01*
X80678214Y-77454000D01*
X81221203Y-77454000D01*
X81117987Y-77608475D01*
X81000000Y-78201634D01*
X81000000Y-78262366D01*
X81117987Y-78855525D01*
X81453984Y-79358382D01*
X81956841Y-79694379D01*
X82550000Y-79812366D01*
X82688586Y-79784800D01*
X90224893Y-87321107D01*
X90549316Y-87537880D01*
X90730709Y-87573961D01*
X90821618Y-87710016D01*
X91082004Y-87884000D01*
X90821618Y-88057984D01*
X90485621Y-88560841D01*
X90367634Y-89154000D01*
X90485621Y-89747159D01*
X90821618Y-90250016D01*
X91324475Y-90586013D01*
X91917634Y-90704000D01*
X91978366Y-90704000D01*
X92571525Y-90586013D01*
X93074382Y-90250016D01*
X93410379Y-89747159D01*
X93528366Y-89154000D01*
X93410379Y-88560841D01*
X93074382Y-88057984D01*
X92813996Y-87884000D01*
X93074382Y-87710016D01*
X93410379Y-87207159D01*
X93528366Y-86614000D01*
X93410379Y-86020841D01*
X93074382Y-85517984D01*
X92813996Y-85344000D01*
X93074382Y-85170016D01*
X93410379Y-84667159D01*
X93528366Y-84074000D01*
X93410379Y-83480841D01*
X93074382Y-82977984D01*
X92948000Y-82893539D01*
X92948000Y-82714461D01*
X93074382Y-82630016D01*
X93410379Y-82127159D01*
X93528366Y-81534000D01*
X93410379Y-80940841D01*
X93074382Y-80437984D01*
X92813996Y-80264000D01*
X93074382Y-80090016D01*
X93138538Y-79994000D01*
X95012000Y-79994000D01*
X95012000Y-89501786D01*
X91838908Y-92674878D01*
X91589707Y-92724447D01*
X91162509Y-93009891D01*
X91060138Y-92850802D01*
X90809508Y-92679554D01*
X90512000Y-92619307D01*
X88812000Y-92619307D01*
X88534067Y-92671604D01*
X88278802Y-92835862D01*
X88107554Y-93086492D01*
X88047307Y-93384000D01*
X88047307Y-95084000D01*
X88099604Y-95361933D01*
X88263862Y-95617198D01*
X88514492Y-95788446D01*
X88812000Y-95848693D01*
X88882453Y-95848693D01*
X88954893Y-95957107D01*
X89716893Y-96719107D01*
X90041316Y-96935880D01*
X90424000Y-97012000D01*
X93168973Y-97012000D01*
X93131307Y-97198000D01*
X93131307Y-99398000D01*
X93183604Y-99675933D01*
X93347862Y-99931198D01*
X93598492Y-100102446D01*
X93896000Y-100162693D01*
X96096000Y-100162693D01*
X96373933Y-100110396D01*
X96629198Y-99946138D01*
X96800446Y-99695508D01*
X96818329Y-99607195D01*
X116682881Y-99607195D01*
X117348000Y-100272315D01*
X118013119Y-99607195D01*
X117928017Y-99359154D01*
X117317936Y-99249761D01*
X116767983Y-99359154D01*
X116682881Y-99607195D01*
X96818329Y-99607195D01*
X96860693Y-99398000D01*
X96860693Y-97198000D01*
X96825694Y-97012000D01*
X98044000Y-97012000D01*
X98426684Y-96935880D01*
X98751107Y-96719107D01*
X98966214Y-96504000D01*
X100663462Y-96504000D01*
X100727618Y-96600016D01*
X101230475Y-96936013D01*
X101823634Y-97054000D01*
X101884366Y-97054000D01*
X102477525Y-96936013D01*
X102980382Y-96600016D01*
X103316379Y-96097159D01*
X103434366Y-95504000D01*
X103316379Y-94910841D01*
X102980382Y-94407984D01*
X102477525Y-94071987D01*
X101884366Y-93954000D01*
X101823634Y-93954000D01*
X101230475Y-94071987D01*
X100727618Y-94407984D01*
X100663462Y-94504000D01*
X98552000Y-94504000D01*
X98169317Y-94580120D01*
X97844893Y-94796893D01*
X97844891Y-94796896D01*
X97629787Y-95012000D01*
X96130430Y-95012000D01*
X96220207Y-94877639D01*
X96342000Y-94265346D01*
X96342000Y-94202654D01*
X96220207Y-93590361D01*
X95873371Y-93071283D01*
X95826350Y-93039864D01*
X97202792Y-91663421D01*
X97002270Y-92146333D01*
X97001732Y-92762961D01*
X97237208Y-93332857D01*
X97672849Y-93769260D01*
X98242333Y-94005730D01*
X98858961Y-94006268D01*
X99428857Y-93770792D01*
X99865260Y-93335151D01*
X100101730Y-92765667D01*
X100102268Y-92149039D01*
X99866792Y-91579143D01*
X99431151Y-91142740D01*
X99079864Y-90996873D01*
X99259107Y-90877107D01*
X99449704Y-90686510D01*
X99537634Y-90704000D01*
X99598366Y-90704000D01*
X100191525Y-90586013D01*
X100694382Y-90250016D01*
X100758538Y-90154000D01*
X101092000Y-90154000D01*
X101474684Y-90077880D01*
X101799107Y-89861107D01*
X101832214Y-89828000D01*
X102525307Y-89828000D01*
X102525307Y-91528000D01*
X102577604Y-91805933D01*
X102741862Y-92061198D01*
X102992492Y-92232446D01*
X103140000Y-92262317D01*
X103140000Y-92710000D01*
X103216120Y-93092684D01*
X103432893Y-93417107D01*
X105718893Y-95703107D01*
X106043317Y-95919880D01*
X106426000Y-95996000D01*
X110540188Y-95996000D01*
X110699208Y-96380857D01*
X111134849Y-96817260D01*
X111704333Y-97053730D01*
X112320961Y-97054268D01*
X112890857Y-96818792D01*
X113327260Y-96383151D01*
X113563730Y-95813667D01*
X113564268Y-95197039D01*
X113328792Y-94627143D01*
X112893151Y-94190740D01*
X112323667Y-93954270D01*
X111707039Y-93953732D01*
X111572655Y-94009258D01*
X111506000Y-93996000D01*
X106840214Y-93996000D01*
X105140000Y-92295786D01*
X105140000Y-92264468D01*
X105267933Y-92240396D01*
X105523198Y-92076138D01*
X105641606Y-91902842D01*
X106067707Y-92187553D01*
X106680000Y-92309346D01*
X107292293Y-92187553D01*
X107811371Y-91840717D01*
X108158207Y-91321639D01*
X108280000Y-90709346D01*
X108280000Y-90646654D01*
X108158207Y-90034361D01*
X107811371Y-89515283D01*
X107292293Y-89168447D01*
X106680000Y-89046654D01*
X106067707Y-89168447D01*
X105640509Y-89453891D01*
X105538138Y-89294802D01*
X105287508Y-89123554D01*
X104990000Y-89063307D01*
X103290000Y-89063307D01*
X103012067Y-89115604D01*
X102756802Y-89279862D01*
X102585554Y-89530492D01*
X102525307Y-89828000D01*
X101832214Y-89828000D01*
X103370028Y-88290186D01*
X103514849Y-88435260D01*
X104084333Y-88671730D01*
X104700961Y-88672268D01*
X105270857Y-88436792D01*
X105707260Y-88001151D01*
X105943730Y-87431667D01*
X105944268Y-86815039D01*
X105708792Y-86245143D01*
X105273151Y-85808740D01*
X104703667Y-85572270D01*
X104087039Y-85571732D01*
X103517143Y-85807208D01*
X103201800Y-86122000D01*
X103124000Y-86122000D01*
X102741316Y-86198120D01*
X102416893Y-86414893D01*
X100726193Y-88105593D01*
X100694382Y-88057984D01*
X100433996Y-87884000D01*
X100694382Y-87710016D01*
X101030379Y-87207159D01*
X101148366Y-86614000D01*
X101030379Y-86020841D01*
X100694382Y-85517984D01*
X100433996Y-85344000D01*
X100694382Y-85170016D01*
X101030379Y-84667159D01*
X101148366Y-84074000D01*
X101030379Y-83480841D01*
X100694382Y-82977984D01*
X100433996Y-82804000D01*
X100694382Y-82630016D01*
X100828722Y-82428961D01*
X102843732Y-82428961D01*
X103079208Y-82998857D01*
X103514849Y-83435260D01*
X104084333Y-83671730D01*
X104700961Y-83672268D01*
X105270857Y-83436792D01*
X105707260Y-83001151D01*
X105943730Y-82431667D01*
X105944268Y-81815039D01*
X105708792Y-81245143D01*
X105273151Y-80808740D01*
X104703667Y-80572270D01*
X104087039Y-80571732D01*
X103517143Y-80807208D01*
X103080740Y-81242849D01*
X102844270Y-81812333D01*
X102843732Y-82428961D01*
X100828722Y-82428961D01*
X101030379Y-82127159D01*
X101148366Y-81534000D01*
X101030379Y-80940841D01*
X100694382Y-80437984D01*
X100433996Y-80264000D01*
X100694382Y-80090016D01*
X101030379Y-79587159D01*
X101103220Y-79220961D01*
X102843732Y-79220961D01*
X103079208Y-79790857D01*
X103514849Y-80227260D01*
X104084333Y-80463730D01*
X104700961Y-80464268D01*
X105270857Y-80228792D01*
X105707260Y-79793151D01*
X105943730Y-79223667D01*
X105944268Y-78607039D01*
X105708792Y-78037143D01*
X105273151Y-77600740D01*
X104703667Y-77364270D01*
X104087039Y-77363732D01*
X103517143Y-77599208D01*
X103080740Y-78034849D01*
X102844270Y-78604333D01*
X102843732Y-79220961D01*
X101103220Y-79220961D01*
X101148366Y-78994000D01*
X101030379Y-78400841D01*
X100694382Y-77897984D01*
X100433996Y-77724000D01*
X100694382Y-77550016D01*
X101030379Y-77047159D01*
X101148366Y-76454000D01*
X101030379Y-75860841D01*
X100770565Y-75472000D01*
X100818002Y-75472000D01*
X100818002Y-74806061D01*
X100992665Y-74544631D01*
X100876737Y-74314000D01*
X99968000Y-74314000D01*
X99968000Y-74714000D01*
X99168000Y-74714000D01*
X99168000Y-74314000D01*
X98259263Y-74314000D01*
X98143335Y-74544631D01*
X98317998Y-74806061D01*
X98317998Y-75472000D01*
X98365435Y-75472000D01*
X98105621Y-75860841D01*
X97987634Y-76454000D01*
X98105621Y-77047159D01*
X98441618Y-77550016D01*
X98702004Y-77724000D01*
X98441618Y-77897984D01*
X98105621Y-78400841D01*
X97987634Y-78994000D01*
X98105621Y-79587159D01*
X98441618Y-80090016D01*
X98702004Y-80264000D01*
X98441618Y-80437984D01*
X98105621Y-80940841D01*
X97987634Y-81534000D01*
X98105621Y-82127159D01*
X98441618Y-82630016D01*
X98702004Y-82804000D01*
X98441618Y-82977984D01*
X98105621Y-83480841D01*
X97987634Y-84074000D01*
X98105621Y-84667159D01*
X98441618Y-85170016D01*
X98702004Y-85344000D01*
X98441618Y-85517984D01*
X98105621Y-86020841D01*
X97987634Y-86614000D01*
X98105621Y-87207159D01*
X98441618Y-87710016D01*
X98702004Y-87884000D01*
X98441618Y-88057984D01*
X98105621Y-88560841D01*
X97987634Y-89154000D01*
X97990817Y-89170000D01*
X97282000Y-89170000D01*
X97012000Y-89223706D01*
X97012000Y-79248000D01*
X96935880Y-78865317D01*
X96719107Y-78540893D01*
X96465107Y-78286893D01*
X96140684Y-78070120D01*
X95758000Y-77994000D01*
X93138538Y-77994000D01*
X93074382Y-77897984D01*
X92813996Y-77724000D01*
X93074382Y-77550016D01*
X93410379Y-77047159D01*
X93528366Y-76454000D01*
X93410379Y-75860841D01*
X93091781Y-75384024D01*
X93281198Y-75262138D01*
X93452446Y-75011508D01*
X93512693Y-74714000D01*
X93512693Y-73763521D01*
X94648214Y-72628000D01*
X98317998Y-72628000D01*
X98317998Y-73021939D01*
X98143335Y-73283369D01*
X98259263Y-73514000D01*
X99168000Y-73514000D01*
X99168000Y-73114000D01*
X99968000Y-73114000D01*
X99968000Y-73514000D01*
X100876737Y-73514000D01*
X100992665Y-73283369D01*
X100818002Y-73021939D01*
X100818002Y-72628000D01*
X103488301Y-72628000D01*
X103080740Y-73034849D01*
X102844270Y-73604333D01*
X102843732Y-74220961D01*
X103079208Y-74790857D01*
X103514849Y-75227260D01*
X104084333Y-75463730D01*
X104700961Y-75464268D01*
X105270857Y-75228792D01*
X105586200Y-74914000D01*
X110744000Y-74914000D01*
X111126684Y-74837880D01*
X111451107Y-74621107D01*
X112213107Y-73859107D01*
X112429880Y-73534684D01*
X112506000Y-73152000D01*
X112506000Y-71628000D01*
X114497634Y-71628000D01*
X114615621Y-72221159D01*
X114951618Y-72724016D01*
X115212004Y-72898000D01*
X114951618Y-73071984D01*
X114615621Y-73574841D01*
X114497634Y-74168000D01*
X114615621Y-74761159D01*
X114951618Y-75264016D01*
X115212004Y-75438000D01*
X114951618Y-75611984D01*
X114615621Y-76114841D01*
X114497634Y-76708000D01*
X114615621Y-77301159D01*
X114875435Y-77690000D01*
X114827998Y-77690000D01*
X114827998Y-78355939D01*
X114653335Y-78617369D01*
X114769263Y-78848000D01*
X115678000Y-78848000D01*
X115678000Y-78448000D01*
X116478000Y-78448000D01*
X116478000Y-78848000D01*
X116878000Y-78848000D01*
X116878000Y-79648000D01*
X116478000Y-79648000D01*
X116478000Y-80048000D01*
X115678000Y-80048000D01*
X115678000Y-79648000D01*
X114769263Y-79648000D01*
X114653335Y-79878631D01*
X114827998Y-80140061D01*
X114827998Y-80806000D01*
X114875435Y-80806000D01*
X114615621Y-81194841D01*
X114497634Y-81788000D01*
X114615621Y-82381159D01*
X114951618Y-82884016D01*
X115212004Y-83058000D01*
X114951618Y-83231984D01*
X114615621Y-83734841D01*
X114497634Y-84328000D01*
X114615621Y-84921159D01*
X114951618Y-85424016D01*
X115212004Y-85598000D01*
X114951618Y-85771984D01*
X114615621Y-86274841D01*
X114497634Y-86868000D01*
X114615621Y-87461159D01*
X114951618Y-87964016D01*
X115454475Y-88300013D01*
X116047634Y-88418000D01*
X116108366Y-88418000D01*
X116701525Y-88300013D01*
X117204382Y-87964016D01*
X117540379Y-87461159D01*
X117618000Y-87070933D01*
X117618000Y-95836136D01*
X117304740Y-96148849D01*
X117068270Y-96718333D01*
X117067732Y-97334961D01*
X117303208Y-97904857D01*
X117738849Y-98341260D01*
X118308333Y-98577730D01*
X118924961Y-98578268D01*
X119494857Y-98342792D01*
X119810200Y-98028000D01*
X122775786Y-98028000D01*
X126012516Y-101264730D01*
X126045621Y-101431159D01*
X126381618Y-101934016D01*
X126884475Y-102270013D01*
X127477634Y-102388000D01*
X127538366Y-102388000D01*
X128131525Y-102270013D01*
X128634382Y-101934016D01*
X128970379Y-101431159D01*
X129027307Y-101144961D01*
X131037732Y-101144961D01*
X131273208Y-101714857D01*
X131708849Y-102151260D01*
X132278333Y-102387730D01*
X132894961Y-102388268D01*
X133464857Y-102152792D01*
X133901260Y-101717151D01*
X134137730Y-101147667D01*
X134138268Y-100531039D01*
X133902792Y-99961143D01*
X133467151Y-99524740D01*
X132897667Y-99288270D01*
X132281039Y-99287732D01*
X131711143Y-99523208D01*
X131274740Y-99958849D01*
X131038270Y-100528333D01*
X131037732Y-101144961D01*
X129027307Y-101144961D01*
X129088366Y-100838000D01*
X128970379Y-100244841D01*
X128634382Y-99741984D01*
X128131525Y-99405987D01*
X127538366Y-99288000D01*
X127477634Y-99288000D01*
X126965987Y-99389773D01*
X123897107Y-96320893D01*
X123572684Y-96104120D01*
X123190000Y-96028000D01*
X119809864Y-96028000D01*
X119618000Y-95835800D01*
X119618000Y-93472000D01*
X123895634Y-93472000D01*
X123982341Y-93907903D01*
X123968000Y-93980000D01*
X124044120Y-94362684D01*
X124260893Y-94687107D01*
X124585316Y-94903880D01*
X124968000Y-94980000D01*
X125101244Y-94953496D01*
X125445634Y-95022000D01*
X125506366Y-95022000D01*
X126099525Y-94904013D01*
X126602382Y-94568016D01*
X126938379Y-94065159D01*
X127056366Y-93472000D01*
X126938379Y-92878841D01*
X126602382Y-92375984D01*
X126099525Y-92039987D01*
X125506366Y-91922000D01*
X125445634Y-91922000D01*
X124852475Y-92039987D01*
X124349618Y-92375984D01*
X124013621Y-92878841D01*
X123895634Y-93472000D01*
X119618000Y-93472000D01*
X119618000Y-84328000D01*
X122117634Y-84328000D01*
X122235621Y-84921159D01*
X122554219Y-85397976D01*
X122364802Y-85519862D01*
X122193554Y-85770492D01*
X122133307Y-86068000D01*
X122133307Y-87668000D01*
X122185604Y-87945933D01*
X122349862Y-88201198D01*
X122600492Y-88372446D01*
X122698000Y-88392192D01*
X122698000Y-89154000D01*
X122774120Y-89536684D01*
X122990893Y-89861107D01*
X124514891Y-91385104D01*
X124514893Y-91385107D01*
X124839317Y-91601880D01*
X125222000Y-91678000D01*
X126839786Y-91678000D01*
X127778000Y-92616213D01*
X127778000Y-95847539D01*
X127651618Y-95931984D01*
X127315621Y-96434841D01*
X127197634Y-97028000D01*
X127315621Y-97621159D01*
X127651618Y-98124016D01*
X128154475Y-98460013D01*
X128747634Y-98578000D01*
X128808366Y-98578000D01*
X129401525Y-98460013D01*
X129904382Y-98124016D01*
X130240379Y-97621159D01*
X130358366Y-97028000D01*
X130240379Y-96434841D01*
X129904382Y-95931984D01*
X129778000Y-95847539D01*
X129778000Y-92202000D01*
X129701880Y-91819317D01*
X129485107Y-91494893D01*
X129485104Y-91494891D01*
X128280982Y-90290768D01*
X128464857Y-90214792D01*
X128548990Y-90130805D01*
X131922881Y-90130805D01*
X132007983Y-90378846D01*
X132618064Y-90488239D01*
X133168017Y-90378846D01*
X133253119Y-90130805D01*
X132588000Y-89465685D01*
X131922881Y-90130805D01*
X128548990Y-90130805D01*
X128901260Y-89779151D01*
X129137730Y-89209667D01*
X129137973Y-88930064D01*
X130999761Y-88930064D01*
X131109154Y-89480017D01*
X131357195Y-89565119D01*
X132022315Y-88900000D01*
X133153685Y-88900000D01*
X133818805Y-89565119D01*
X134066846Y-89480017D01*
X134176239Y-88869936D01*
X134066846Y-88319983D01*
X133818805Y-88234881D01*
X133153685Y-88900000D01*
X132022315Y-88900000D01*
X131357195Y-88234881D01*
X131109154Y-88319983D01*
X130999761Y-88930064D01*
X129137973Y-88930064D01*
X129138268Y-88593039D01*
X128902792Y-88023143D01*
X128549463Y-87669195D01*
X131922881Y-87669195D01*
X132588000Y-88334315D01*
X133253119Y-87669195D01*
X133168017Y-87421154D01*
X132557936Y-87311761D01*
X132007983Y-87421154D01*
X131922881Y-87669195D01*
X128549463Y-87669195D01*
X128467151Y-87586740D01*
X127897667Y-87350270D01*
X127281039Y-87349732D01*
X126711143Y-87585208D01*
X126274740Y-88020849D01*
X126038270Y-88590333D01*
X126037732Y-89206961D01*
X126232361Y-89678000D01*
X125636213Y-89678000D01*
X124698000Y-88739786D01*
X124698000Y-88395060D01*
X124775933Y-88380396D01*
X125031198Y-88216138D01*
X125202446Y-87965508D01*
X125262693Y-87668000D01*
X125262693Y-86068000D01*
X125210396Y-85790067D01*
X125046138Y-85534802D01*
X124843068Y-85396050D01*
X125160379Y-84921159D01*
X125278366Y-84328000D01*
X125172843Y-83797500D01*
X126920000Y-83797500D01*
X126920000Y-84308775D01*
X127035398Y-84587372D01*
X127248627Y-84800601D01*
X127527224Y-84916000D01*
X128038500Y-84916000D01*
X128228000Y-84726500D01*
X128228000Y-83608000D01*
X129328000Y-83608000D01*
X129328000Y-84726500D01*
X129517500Y-84916000D01*
X130028776Y-84916000D01*
X130307373Y-84800601D01*
X130520602Y-84587372D01*
X130636000Y-84308775D01*
X130636000Y-83797500D01*
X130446500Y-83608000D01*
X129328000Y-83608000D01*
X128228000Y-83608000D01*
X127109500Y-83608000D01*
X126920000Y-83797500D01*
X125172843Y-83797500D01*
X125160379Y-83734841D01*
X124900565Y-83346000D01*
X124948002Y-83346000D01*
X124948002Y-82680061D01*
X125122665Y-82418631D01*
X125006737Y-82188000D01*
X124098000Y-82188000D01*
X124098000Y-82588000D01*
X123298000Y-82588000D01*
X123298000Y-82188000D01*
X122389263Y-82188000D01*
X122273335Y-82418631D01*
X122447998Y-82680061D01*
X122447998Y-83346000D01*
X122495435Y-83346000D01*
X122235621Y-83734841D01*
X122117634Y-84328000D01*
X119618000Y-84328000D01*
X119618000Y-81807225D01*
X126920000Y-81807225D01*
X126920000Y-82318500D01*
X127109500Y-82508000D01*
X128228000Y-82508000D01*
X128228000Y-81389500D01*
X129328000Y-81389500D01*
X129328000Y-82508000D01*
X130446500Y-82508000D01*
X130636000Y-82318500D01*
X130636000Y-81807225D01*
X130520602Y-81528628D01*
X130307373Y-81315399D01*
X130028776Y-81200000D01*
X129517500Y-81200000D01*
X129328000Y-81389500D01*
X128228000Y-81389500D01*
X128038500Y-81200000D01*
X127527224Y-81200000D01*
X127248627Y-81315399D01*
X127035398Y-81528628D01*
X126920000Y-81807225D01*
X119618000Y-81807225D01*
X119618000Y-77708000D01*
X122507462Y-77708000D01*
X122571618Y-77804016D01*
X122832004Y-77978000D01*
X122571618Y-78151984D01*
X122235621Y-78654841D01*
X122117634Y-79248000D01*
X122235621Y-79841159D01*
X122495435Y-80230000D01*
X122447998Y-80230000D01*
X122447998Y-80895939D01*
X122273335Y-81157369D01*
X122389263Y-81388000D01*
X123298000Y-81388000D01*
X123298000Y-80988000D01*
X124098000Y-80988000D01*
X124098000Y-81388000D01*
X125006737Y-81388000D01*
X125122665Y-81157369D01*
X124948002Y-80895939D01*
X124948002Y-80230000D01*
X124900565Y-80230000D01*
X125160379Y-79841159D01*
X125278366Y-79248000D01*
X125160379Y-78654841D01*
X124824382Y-78151984D01*
X124563996Y-77978000D01*
X124824382Y-77804016D01*
X125160379Y-77301159D01*
X125278366Y-76708000D01*
X125160379Y-76114841D01*
X124986706Y-75854920D01*
X126977095Y-77845309D01*
X126973554Y-77850492D01*
X126913307Y-78148000D01*
X126913307Y-80348000D01*
X126965604Y-80625933D01*
X127129862Y-80881198D01*
X127380492Y-81052446D01*
X127678000Y-81112693D01*
X129878000Y-81112693D01*
X130155933Y-81060396D01*
X130411198Y-80896138D01*
X130582446Y-80645508D01*
X130642693Y-80348000D01*
X130642693Y-78148000D01*
X130590396Y-77870067D01*
X130476753Y-77693461D01*
X131732214Y-76438000D01*
X132271532Y-76438000D01*
X132295604Y-76565933D01*
X132459862Y-76821198D01*
X132710492Y-76992446D01*
X132858000Y-77022317D01*
X132858000Y-82409100D01*
X132680120Y-82675316D01*
X132604000Y-83058000D01*
X132680120Y-83440684D01*
X132896893Y-83765107D01*
X133221316Y-83981880D01*
X133604000Y-84058000D01*
X134847711Y-84058000D01*
X135053608Y-84366148D01*
X135398000Y-84596263D01*
X135398000Y-88485786D01*
X134928893Y-88954893D01*
X134712120Y-89279316D01*
X134711450Y-89282683D01*
X134636000Y-89662000D01*
X134636000Y-92280136D01*
X134322740Y-92592849D01*
X134086270Y-93162333D01*
X134085732Y-93778961D01*
X134321208Y-94348857D01*
X134756849Y-94785260D01*
X135326333Y-95021730D01*
X135942961Y-95022268D01*
X136512857Y-94786792D01*
X136949260Y-94351151D01*
X137185730Y-93781667D01*
X137186268Y-93165039D01*
X136950792Y-92595143D01*
X136636000Y-92279800D01*
X136636000Y-90076214D01*
X137105107Y-89607107D01*
X137321880Y-89282684D01*
X137398000Y-88900000D01*
X137398000Y-84596263D01*
X137742392Y-84366148D01*
X138143421Y-83765964D01*
X138284244Y-83058000D01*
X138143421Y-82350036D01*
X137742392Y-81749852D01*
X137142208Y-81348823D01*
X136434244Y-81208000D01*
X136361756Y-81208000D01*
X135653792Y-81348823D01*
X135053608Y-81749852D01*
X134858000Y-82042601D01*
X134858000Y-80263399D01*
X135053608Y-80556148D01*
X135653792Y-80957177D01*
X136361756Y-81098000D01*
X136434244Y-81098000D01*
X137142208Y-80957177D01*
X137742392Y-80556148D01*
X138143421Y-79955964D01*
X138284244Y-79248000D01*
X138143421Y-78540036D01*
X137742392Y-77939852D01*
X137142208Y-77538823D01*
X136434244Y-77398000D01*
X136361756Y-77398000D01*
X135653792Y-77538823D01*
X135053608Y-77939852D01*
X134858000Y-78232601D01*
X134858000Y-77024468D01*
X134985933Y-77000396D01*
X135241198Y-76836138D01*
X135412446Y-76585508D01*
X135472693Y-76288000D01*
X135472693Y-74588000D01*
X135420396Y-74310067D01*
X135256138Y-74054802D01*
X135082842Y-73936394D01*
X135108496Y-73898000D01*
X137414000Y-73898000D01*
X137796684Y-73821880D01*
X138121107Y-73605107D01*
X139276807Y-72449407D01*
X139493580Y-72124984D01*
X139569701Y-71742300D01*
X139569700Y-71742295D01*
X139569700Y-68095464D01*
X139882960Y-67782751D01*
X140119430Y-67213267D01*
X140119968Y-66596639D01*
X139884492Y-66026743D01*
X139448851Y-65590340D01*
X138879367Y-65353870D01*
X138262739Y-65353332D01*
X137692843Y-65588808D01*
X137256440Y-66024449D01*
X137019970Y-66593933D01*
X137019432Y-67210561D01*
X137254908Y-67780457D01*
X137569700Y-68095800D01*
X137569700Y-71328086D01*
X136999786Y-71898000D01*
X135108496Y-71898000D01*
X135020717Y-71766629D01*
X134813244Y-71628000D01*
X135020717Y-71489371D01*
X135367553Y-70970293D01*
X135489346Y-70358000D01*
X135367553Y-69745707D01*
X135020717Y-69226629D01*
X134501639Y-68879793D01*
X133889346Y-68758000D01*
X133826654Y-68758000D01*
X133214361Y-68879793D01*
X132695283Y-69226629D01*
X132348447Y-69745707D01*
X132226654Y-70358000D01*
X132348447Y-70970293D01*
X132695283Y-71489371D01*
X132902756Y-71628000D01*
X132695283Y-71766629D01*
X132348447Y-72285707D01*
X132226654Y-72898000D01*
X132348447Y-73510293D01*
X132633891Y-73937491D01*
X132474802Y-74039862D01*
X132303554Y-74290492D01*
X132273683Y-74438000D01*
X131318005Y-74438000D01*
X131318000Y-74437999D01*
X130935316Y-74514120D01*
X130610893Y-74730893D01*
X130262656Y-75079130D01*
X130210013Y-74814475D01*
X129874016Y-74311618D01*
X129371159Y-73975621D01*
X128778000Y-73857634D01*
X128184841Y-73975621D01*
X127681984Y-74311618D01*
X127345987Y-74814475D01*
X127251202Y-75290988D01*
X125421107Y-73460893D01*
X125096684Y-73244120D01*
X124915291Y-73208039D01*
X124824382Y-73071984D01*
X124563996Y-72898000D01*
X124824382Y-72724016D01*
X125160379Y-72221159D01*
X125221020Y-71916297D01*
X125347334Y-72222000D01*
X125642446Y-72517628D01*
X126028226Y-72677818D01*
X126445942Y-72678182D01*
X126832000Y-72518666D01*
X127127628Y-72223554D01*
X127287818Y-71837774D01*
X127288182Y-71420058D01*
X127238000Y-71298608D01*
X127238000Y-67818000D01*
X127161880Y-67435317D01*
X126945107Y-67110893D01*
X126620683Y-66894120D01*
X126238000Y-66818000D01*
X119888005Y-66818000D01*
X119888000Y-66817999D01*
X119505316Y-66894120D01*
X119180893Y-67110893D01*
X116196296Y-70095490D01*
X116108366Y-70078000D01*
X116047634Y-70078000D01*
X115454475Y-70195987D01*
X114951618Y-70531984D01*
X114615621Y-71034841D01*
X114497634Y-71628000D01*
X112506000Y-71628000D01*
X112506000Y-69664873D01*
X112690841Y-69788379D01*
X113284000Y-69906366D01*
X113877159Y-69788379D01*
X114380016Y-69452382D01*
X114716013Y-68949525D01*
X114834000Y-68356366D01*
X114834000Y-68295634D01*
X114716013Y-67702475D01*
X114380016Y-67199618D01*
X113877159Y-66863621D01*
X113284000Y-66745634D01*
X112690841Y-66863621D01*
X112506000Y-66987127D01*
X112506000Y-66247942D01*
X117567818Y-66247942D01*
X117727334Y-66634000D01*
X118022446Y-66929628D01*
X118408226Y-67089818D01*
X118825942Y-67090182D01*
X119212000Y-66930666D01*
X119507628Y-66635554D01*
X119560258Y-66508805D01*
X128112881Y-66508805D01*
X128197983Y-66756846D01*
X128808064Y-66866239D01*
X129358017Y-66756846D01*
X129443119Y-66508805D01*
X128778000Y-65843685D01*
X128112881Y-66508805D01*
X119560258Y-66508805D01*
X119667818Y-66249774D01*
X119668182Y-65832058D01*
X119618000Y-65710608D01*
X119618000Y-65308064D01*
X127189761Y-65308064D01*
X127299154Y-65858017D01*
X127547195Y-65943119D01*
X128212315Y-65278000D01*
X129343685Y-65278000D01*
X130008805Y-65943119D01*
X130256846Y-65858017D01*
X130366239Y-65247936D01*
X130256846Y-64697983D01*
X130008805Y-64612881D01*
X129343685Y-65278000D01*
X128212315Y-65278000D01*
X127547195Y-64612881D01*
X127299154Y-64697983D01*
X127189761Y-65308064D01*
X119618000Y-65308064D01*
X119618000Y-64193614D01*
X119764419Y-64047195D01*
X128112881Y-64047195D01*
X128778000Y-64712315D01*
X129443119Y-64047195D01*
X129358017Y-63799154D01*
X128747936Y-63689761D01*
X128197983Y-63799154D01*
X128112881Y-64047195D01*
X119764419Y-64047195D01*
X120670514Y-63141100D01*
X122647162Y-63141100D01*
X122711318Y-63237116D01*
X123214175Y-63573113D01*
X123807334Y-63691100D01*
X123868066Y-63691100D01*
X124461225Y-63573113D01*
X124964082Y-63237116D01*
X125300079Y-62734259D01*
X125418066Y-62141100D01*
X125300079Y-61547941D01*
X124964082Y-61045084D01*
X124461225Y-60709087D01*
X123868066Y-60591100D01*
X123807334Y-60591100D01*
X123214175Y-60709087D01*
X122711318Y-61045084D01*
X122647162Y-61141100D01*
X120256300Y-61141100D01*
X119873616Y-61217220D01*
X119549193Y-61433993D01*
X117910893Y-63072293D01*
X117694120Y-63396716D01*
X117694120Y-63396717D01*
X117618000Y-63779400D01*
X117618000Y-65710251D01*
X117568182Y-65830226D01*
X117567818Y-66247942D01*
X112506000Y-66247942D01*
X112506000Y-62230000D01*
X112458659Y-61992000D01*
X112429880Y-61847316D01*
X112213107Y-61522893D01*
X110474000Y-59783786D01*
X110474000Y-59357864D01*
X110787260Y-59045151D01*
X111023730Y-58475667D01*
X111023732Y-58472961D01*
X111733732Y-58472961D01*
X111969208Y-59042857D01*
X112404849Y-59479260D01*
X112974333Y-59715730D01*
X113590961Y-59716268D01*
X114160857Y-59480792D01*
X114597260Y-59045151D01*
X114833730Y-58475667D01*
X114834268Y-57859039D01*
X114598792Y-57289143D01*
X114163151Y-56852740D01*
X113593667Y-56616270D01*
X112977039Y-56615732D01*
X112407143Y-56851208D01*
X111970740Y-57286849D01*
X111734270Y-57856333D01*
X111733732Y-58472961D01*
X111023732Y-58472961D01*
X111024268Y-57859039D01*
X110788792Y-57289143D01*
X110600945Y-57100968D01*
X110914596Y-54330141D01*
X111304429Y-53940988D01*
X111609552Y-53206170D01*
X111609555Y-53202679D01*
X112609554Y-53202679D01*
X112913394Y-53938029D01*
X113475512Y-54501129D01*
X114210330Y-54806252D01*
X115005979Y-54806946D01*
X115741329Y-54503106D01*
X115924190Y-54320563D01*
X123372720Y-54320563D01*
X123527584Y-54586132D01*
X124320504Y-54683144D01*
X124808216Y-54586132D01*
X124963080Y-54320563D01*
X124167900Y-53525383D01*
X123372720Y-54320563D01*
X115924190Y-54320563D01*
X116304429Y-53940988D01*
X116609552Y-53206170D01*
X116609911Y-52794104D01*
X122126256Y-52794104D01*
X122223268Y-53281816D01*
X122488837Y-53436680D01*
X123284017Y-52641500D01*
X125051783Y-52641500D01*
X125846963Y-53436680D01*
X126112532Y-53281816D01*
X126142413Y-53037579D01*
X127167554Y-53037579D01*
X127471394Y-53772929D01*
X128033512Y-54336029D01*
X128768330Y-54641152D01*
X129563979Y-54641846D01*
X130299329Y-54338006D01*
X130862429Y-53775888D01*
X131167552Y-53041070D01*
X131168246Y-52245421D01*
X130864406Y-51510071D01*
X130302288Y-50946971D01*
X129567470Y-50641848D01*
X128771821Y-50641154D01*
X128036471Y-50944994D01*
X127473371Y-51507112D01*
X127168248Y-52241930D01*
X127167554Y-53037579D01*
X126142413Y-53037579D01*
X126209544Y-52488896D01*
X126112532Y-52001184D01*
X125846963Y-51846320D01*
X125051783Y-52641500D01*
X123284017Y-52641500D01*
X122488837Y-51846320D01*
X122223268Y-52001184D01*
X122126256Y-52794104D01*
X116609911Y-52794104D01*
X116610246Y-52410521D01*
X116306406Y-51675171D01*
X115744288Y-51112071D01*
X115383930Y-50962437D01*
X123372720Y-50962437D01*
X124167900Y-51757617D01*
X124963080Y-50962437D01*
X124808216Y-50696868D01*
X124015296Y-50599856D01*
X123527584Y-50696868D01*
X123372720Y-50962437D01*
X115383930Y-50962437D01*
X115009470Y-50806948D01*
X114213821Y-50806254D01*
X113478471Y-51110094D01*
X112915371Y-51672212D01*
X112610248Y-52407030D01*
X112609554Y-53202679D01*
X111609555Y-53202679D01*
X111610246Y-52410521D01*
X111306406Y-51675171D01*
X110744288Y-51112071D01*
X110009470Y-50806948D01*
X109213821Y-50806254D01*
X108478471Y-51110094D01*
X107915371Y-51672212D01*
X107859568Y-51806600D01*
X106360711Y-51806600D01*
X106306406Y-51675171D01*
X105744288Y-51112071D01*
X105009470Y-50806948D01*
X104213821Y-50806254D01*
X103478471Y-51110094D01*
X102915371Y-51672212D01*
X102610248Y-52407030D01*
X102609554Y-53202679D01*
X102913394Y-53938029D01*
X103475512Y-54501129D01*
X104210330Y-54806252D01*
X105005979Y-54806946D01*
X105741329Y-54503106D01*
X106304429Y-53940988D01*
X106360232Y-53806600D01*
X107859089Y-53806600D01*
X107913394Y-53938029D01*
X108475512Y-54501129D01*
X108864198Y-54662526D01*
X108617392Y-56842841D01*
X108597143Y-56851208D01*
X108160740Y-57286849D01*
X107924270Y-57856333D01*
X107923732Y-58472961D01*
X108159208Y-59042857D01*
X108474000Y-59358200D01*
X108474000Y-60198000D01*
X108550120Y-60580684D01*
X108766893Y-60905107D01*
X110506000Y-62644214D01*
X110506000Y-67156844D01*
X110067159Y-66863621D01*
X109474000Y-66745634D01*
X108880841Y-66863621D01*
X108377984Y-67199618D01*
X108041987Y-67702475D01*
X107924000Y-68295634D01*
X107924000Y-68356366D01*
X108041987Y-68949525D01*
X108104582Y-69043205D01*
X106519786Y-70628000D01*
X104776214Y-70628000D01*
X105525414Y-69878800D01*
X105664000Y-69906366D01*
X106257159Y-69788379D01*
X106760016Y-69452382D01*
X107096013Y-68949525D01*
X107214000Y-68356366D01*
X107214000Y-68295634D01*
X107096013Y-67702475D01*
X106760016Y-67199618D01*
X106257159Y-66863621D01*
X105664000Y-66745634D01*
X105070841Y-66863621D01*
X104567984Y-67199618D01*
X104231987Y-67702475D01*
X104114000Y-68295634D01*
X104114000Y-68356366D01*
X104131490Y-68444296D01*
X103217786Y-69358000D01*
X100850701Y-69358000D01*
X100935452Y-64272924D01*
X100981618Y-64342016D01*
X101484475Y-64678013D01*
X102077634Y-64796000D01*
X102138366Y-64796000D01*
X102731525Y-64678013D01*
X103234382Y-64342016D01*
X103570379Y-63839159D01*
X103688366Y-63246000D01*
X103570379Y-62652841D01*
X103234382Y-62149984D01*
X102973996Y-61976000D01*
X103234382Y-61802016D01*
X103570379Y-61299159D01*
X103688366Y-60706000D01*
X103570379Y-60112841D01*
X103234382Y-59609984D01*
X102973996Y-59436000D01*
X103234382Y-59262016D01*
X103570379Y-58759159D01*
X103627307Y-58472961D01*
X104113732Y-58472961D01*
X104349208Y-59042857D01*
X104784849Y-59479260D01*
X105354333Y-59715730D01*
X105970961Y-59716268D01*
X106540857Y-59480792D01*
X106977260Y-59045151D01*
X107213730Y-58475667D01*
X107214268Y-57859039D01*
X106978792Y-57289143D01*
X106543151Y-56852740D01*
X105973667Y-56616270D01*
X105357039Y-56615732D01*
X104787143Y-56851208D01*
X104350740Y-57286849D01*
X104114270Y-57856333D01*
X104113732Y-58472961D01*
X103627307Y-58472961D01*
X103688366Y-58166000D01*
X103570379Y-57572841D01*
X103234382Y-57069984D01*
X102731525Y-56733987D01*
X102138366Y-56616000D01*
X102077634Y-56616000D01*
X101484475Y-56733987D01*
X101056333Y-57020061D01*
X101087965Y-55122166D01*
X101069892Y-55024587D01*
X101015280Y-54941728D01*
X100932733Y-54886644D01*
X100838000Y-54868000D01*
X100834000Y-54868000D01*
X100834000Y-47494000D01*
X131468446Y-47494000D01*
X134650964Y-50676518D01*
X134567470Y-50641848D01*
X133771821Y-50641154D01*
X133036471Y-50944994D01*
X132473371Y-51507112D01*
X132168248Y-52241930D01*
X132167554Y-53037579D01*
X132471394Y-53772929D01*
X133033512Y-54336029D01*
X133768330Y-54641152D01*
X134563979Y-54641846D01*
X135299329Y-54338006D01*
X135862429Y-53775888D01*
X136167552Y-53041070D01*
X136168246Y-52245421D01*
X136131898Y-52157452D01*
X138634253Y-54659807D01*
X136844200Y-54659807D01*
X136566267Y-54712104D01*
X136311002Y-54876362D01*
X136139754Y-55126992D01*
X136079507Y-55424500D01*
X136079507Y-55622479D01*
X133290593Y-58411393D01*
X133073820Y-58735816D01*
X133017295Y-59019987D01*
X132997700Y-59118500D01*
X132997700Y-60949236D01*
X132684440Y-61261949D01*
X132447970Y-61831433D01*
X132447432Y-62448061D01*
X132682908Y-63017957D01*
X133118549Y-63454360D01*
X133688033Y-63690830D01*
X134304661Y-63691368D01*
X134874557Y-63455892D01*
X135310960Y-63020251D01*
X135547430Y-62450767D01*
X135547639Y-62210561D01*
X137019432Y-62210561D01*
X137254908Y-62780457D01*
X137690549Y-63216860D01*
X138260033Y-63453330D01*
X138876661Y-63453868D01*
X139446557Y-63218392D01*
X139882960Y-62782751D01*
X140119430Y-62213267D01*
X140119968Y-61596639D01*
X139884492Y-61026743D01*
X139448851Y-60590340D01*
X138879367Y-60353870D01*
X138262739Y-60353332D01*
X137692843Y-60588808D01*
X137256440Y-61024449D01*
X137019970Y-61593933D01*
X137019432Y-62210561D01*
X135547639Y-62210561D01*
X135547968Y-61834139D01*
X135312492Y-61264243D01*
X134997700Y-60948900D01*
X134997700Y-59532714D01*
X136592244Y-57938170D01*
X136844200Y-57989193D01*
X138644200Y-57989193D01*
X138922133Y-57936896D01*
X139177398Y-57772638D01*
X139246877Y-57670953D01*
X139976197Y-58400273D01*
X140284200Y-58092270D01*
X140466000Y-58274070D01*
X140466000Y-63250000D01*
X140462000Y-63250000D01*
X140364736Y-63269696D01*
X140282798Y-63325682D01*
X140229097Y-63409136D01*
X140212000Y-63500000D01*
X140212000Y-132484446D01*
X131214446Y-141482000D01*
X59285554Y-141482000D01*
X53185554Y-135382000D01*
X79851675Y-135382000D01*
X79977274Y-136013428D01*
X80334949Y-136548726D01*
X80870247Y-136906401D01*
X81501675Y-137032000D01*
X81566325Y-137032000D01*
X82197753Y-136906401D01*
X82733051Y-136548726D01*
X82804000Y-136442543D01*
X82874949Y-136548726D01*
X83410247Y-136906401D01*
X84041675Y-137032000D01*
X84106325Y-137032000D01*
X84737753Y-136906401D01*
X85078179Y-136678935D01*
X85165862Y-136815198D01*
X85416492Y-136986446D01*
X85714000Y-137046693D01*
X87514000Y-137046693D01*
X87791933Y-136994396D01*
X87988674Y-136867797D01*
X108032000Y-136867797D01*
X108032000Y-136944203D01*
X108180435Y-137690436D01*
X108603142Y-138323061D01*
X109235767Y-138745768D01*
X109982000Y-138894203D01*
X110728233Y-138745768D01*
X111360858Y-138323061D01*
X111783565Y-137690436D01*
X111932000Y-136944203D01*
X111932000Y-136867797D01*
X111881477Y-136613797D01*
X114382000Y-136613797D01*
X114382000Y-136690203D01*
X114530435Y-137436436D01*
X114953142Y-138069061D01*
X115585767Y-138491768D01*
X116332000Y-138640203D01*
X117078233Y-138491768D01*
X117710858Y-138069061D01*
X118133565Y-137436436D01*
X118279064Y-136704961D01*
X119607732Y-136704961D01*
X119843208Y-137274857D01*
X120278849Y-137711260D01*
X120848333Y-137947730D01*
X121464961Y-137948268D01*
X122034857Y-137712792D01*
X122471260Y-137277151D01*
X122707730Y-136707667D01*
X122708000Y-136398000D01*
X129737634Y-136398000D01*
X129855621Y-136991159D01*
X130191618Y-137494016D01*
X130694475Y-137830013D01*
X131287634Y-137948000D01*
X131348366Y-137948000D01*
X131941525Y-137830013D01*
X132444382Y-137494016D01*
X132780379Y-136991159D01*
X132898366Y-136398000D01*
X132780379Y-135804841D01*
X132444382Y-135301984D01*
X131941525Y-134965987D01*
X131348366Y-134848000D01*
X131287634Y-134848000D01*
X130694475Y-134965987D01*
X130191618Y-135301984D01*
X129855621Y-135804841D01*
X129737634Y-136398000D01*
X122708000Y-136398000D01*
X122708268Y-136091039D01*
X122472792Y-135521143D01*
X122037151Y-135084740D01*
X121467667Y-134848270D01*
X120851039Y-134847732D01*
X120281143Y-135083208D01*
X119844740Y-135518849D01*
X119608270Y-136088333D01*
X119607732Y-136704961D01*
X118279064Y-136704961D01*
X118282000Y-136690203D01*
X118282000Y-136613797D01*
X118133565Y-135867564D01*
X117710858Y-135234939D01*
X117078233Y-134812232D01*
X116332000Y-134663797D01*
X115585767Y-134812232D01*
X114953142Y-135234939D01*
X114530435Y-135867564D01*
X114382000Y-136613797D01*
X111881477Y-136613797D01*
X111783565Y-136121564D01*
X111360858Y-135488939D01*
X110728233Y-135066232D01*
X109982000Y-134917797D01*
X109235767Y-135066232D01*
X108603142Y-135488939D01*
X108180435Y-136121564D01*
X108032000Y-136867797D01*
X87988674Y-136867797D01*
X88047198Y-136830138D01*
X88218446Y-136579508D01*
X88278693Y-136282000D01*
X88278693Y-134482000D01*
X88226396Y-134204067D01*
X88062138Y-133948802D01*
X87811508Y-133777554D01*
X87514000Y-133717307D01*
X85714000Y-133717307D01*
X85436067Y-133769604D01*
X85180802Y-133933862D01*
X85077706Y-134084748D01*
X84737753Y-133857599D01*
X84106325Y-133732000D01*
X84041675Y-133732000D01*
X83410247Y-133857599D01*
X82874949Y-134215274D01*
X82804000Y-134321457D01*
X82733051Y-134215274D01*
X82685332Y-134183389D01*
X82682428Y-134172786D01*
X82661016Y-134145197D01*
X83704502Y-133101712D01*
X84037756Y-133168000D01*
X84110244Y-133168000D01*
X84818208Y-133027177D01*
X85418392Y-132626148D01*
X85430518Y-132608000D01*
X94759307Y-132608000D01*
X94759307Y-135108000D01*
X94811604Y-135385933D01*
X94975862Y-135641198D01*
X95226492Y-135812446D01*
X95524000Y-135872693D01*
X98024000Y-135872693D01*
X98301933Y-135820396D01*
X98557198Y-135656138D01*
X98728446Y-135405508D01*
X98788693Y-135108000D01*
X98788693Y-134254079D01*
X99773654Y-134254079D01*
X100077494Y-134989429D01*
X100639612Y-135552529D01*
X101374430Y-135857652D01*
X102170079Y-135858346D01*
X102905429Y-135554506D01*
X103468529Y-134992388D01*
X103773652Y-134257570D01*
X103774346Y-133461921D01*
X103470506Y-132726571D01*
X102908388Y-132163471D01*
X102173570Y-131858348D01*
X101377921Y-131857654D01*
X100642571Y-132161494D01*
X100079471Y-132723612D01*
X99774348Y-133458430D01*
X99773654Y-134254079D01*
X98788693Y-134254079D01*
X98788693Y-132608000D01*
X98736396Y-132330067D01*
X98572138Y-132074802D01*
X98321508Y-131903554D01*
X98024000Y-131843307D01*
X95524000Y-131843307D01*
X95246067Y-131895604D01*
X94990802Y-132059862D01*
X94819554Y-132310492D01*
X94759307Y-132608000D01*
X85430518Y-132608000D01*
X85819421Y-132025964D01*
X85960244Y-131318000D01*
X85819421Y-130610036D01*
X85557472Y-130218000D01*
X119293307Y-130218000D01*
X119293307Y-132418000D01*
X119345604Y-132695933D01*
X119509862Y-132951198D01*
X119760492Y-133122446D01*
X120058000Y-133182693D01*
X122258000Y-133182693D01*
X122535933Y-133130396D01*
X122791198Y-132966138D01*
X122962446Y-132715508D01*
X123022693Y-132418000D01*
X123022693Y-130218000D01*
X122970396Y-129940067D01*
X122806138Y-129684802D01*
X122555508Y-129513554D01*
X122258000Y-129453307D01*
X120058000Y-129453307D01*
X119780067Y-129505604D01*
X119524802Y-129669862D01*
X119353554Y-129920492D01*
X119293307Y-130218000D01*
X85557472Y-130218000D01*
X85418392Y-130009852D01*
X85189353Y-129856813D01*
X85356954Y-127678000D01*
X123103307Y-127678000D01*
X123103307Y-129878000D01*
X123155604Y-130155933D01*
X123319862Y-130411198D01*
X123570492Y-130582446D01*
X123868000Y-130642693D01*
X126068000Y-130642693D01*
X126345933Y-130590396D01*
X126601198Y-130426138D01*
X126772446Y-130175508D01*
X126832693Y-129878000D01*
X126832693Y-127678000D01*
X126804469Y-127528000D01*
X130573307Y-127528000D01*
X130573307Y-130028000D01*
X130625604Y-130305933D01*
X130789862Y-130561198D01*
X131040492Y-130732446D01*
X131338000Y-130792693D01*
X133838000Y-130792693D01*
X134115933Y-130740396D01*
X134371198Y-130576138D01*
X134542446Y-130325508D01*
X134602693Y-130028000D01*
X134602693Y-127528000D01*
X134550396Y-127250067D01*
X134386138Y-126994802D01*
X134135508Y-126823554D01*
X133838000Y-126763307D01*
X131338000Y-126763307D01*
X131060067Y-126815604D01*
X130804802Y-126979862D01*
X130633554Y-127230492D01*
X130573307Y-127528000D01*
X126804469Y-127528000D01*
X126780396Y-127400067D01*
X126616138Y-127144802D01*
X126365508Y-126973554D01*
X126068000Y-126913307D01*
X123868000Y-126913307D01*
X123590067Y-126965604D01*
X123334802Y-127129862D01*
X123163554Y-127380492D01*
X123103307Y-127678000D01*
X85356954Y-127678000D01*
X85461170Y-126323204D01*
X85709933Y-126276396D01*
X85965198Y-126112138D01*
X86136446Y-125861508D01*
X86196693Y-125564000D01*
X86196693Y-125528961D01*
X95477732Y-125528961D01*
X95713208Y-126098857D01*
X96148849Y-126535260D01*
X96718333Y-126771730D01*
X97334961Y-126772268D01*
X97904857Y-126536792D01*
X98341260Y-126101151D01*
X98577730Y-125531667D01*
X98577732Y-125528961D01*
X100477732Y-125528961D01*
X100713208Y-126098857D01*
X101148849Y-126535260D01*
X101718333Y-126771730D01*
X102334961Y-126772268D01*
X102904857Y-126536792D01*
X103341260Y-126101151D01*
X103577730Y-125531667D01*
X103578268Y-124915039D01*
X103342792Y-124345143D01*
X102907151Y-123908740D01*
X102337667Y-123672270D01*
X101721039Y-123671732D01*
X101151143Y-123907208D01*
X100714740Y-124342849D01*
X100478270Y-124912333D01*
X100477732Y-125528961D01*
X98577732Y-125528961D01*
X98578268Y-124915039D01*
X98342792Y-124345143D01*
X97907151Y-123908740D01*
X97337667Y-123672270D01*
X96721039Y-123671732D01*
X96151143Y-123907208D01*
X95714740Y-124342849D01*
X95478270Y-124912333D01*
X95477732Y-125528961D01*
X86196693Y-125528961D01*
X86196693Y-123864000D01*
X86158638Y-123661756D01*
X119308000Y-123661756D01*
X119308000Y-123734244D01*
X119448823Y-124442208D01*
X119849852Y-125042392D01*
X120450036Y-125443421D01*
X121158000Y-125584244D01*
X121865964Y-125443421D01*
X122466148Y-125042392D01*
X122867177Y-124442208D01*
X122920511Y-124174079D01*
X130587654Y-124174079D01*
X130891494Y-124909429D01*
X131453612Y-125472529D01*
X132188430Y-125777652D01*
X132984079Y-125778346D01*
X133719429Y-125474506D01*
X134282529Y-124912388D01*
X134587652Y-124177570D01*
X134588346Y-123381921D01*
X134284506Y-122646571D01*
X133722388Y-122083471D01*
X132987570Y-121778348D01*
X132191921Y-121777654D01*
X131456571Y-122081494D01*
X130893471Y-122643612D01*
X130588348Y-123378430D01*
X130587654Y-124174079D01*
X122920511Y-124174079D01*
X123008000Y-123734244D01*
X123008000Y-123661756D01*
X122867177Y-122953792D01*
X122466148Y-122353608D01*
X121865964Y-121952579D01*
X121158000Y-121811756D01*
X120450036Y-121952579D01*
X119849852Y-122353608D01*
X119448823Y-122953792D01*
X119308000Y-123661756D01*
X86158638Y-123661756D01*
X86144396Y-123586067D01*
X85980138Y-123330802D01*
X85729508Y-123159554D01*
X85432000Y-123099307D01*
X83732000Y-123099307D01*
X83454067Y-123151604D01*
X83198802Y-123315862D01*
X83097585Y-123463998D01*
X83026534Y-123463998D01*
X82704369Y-123248759D01*
X82467000Y-123360664D01*
X82467000Y-124289000D01*
X82892000Y-124289000D01*
X82892000Y-125139000D01*
X82467000Y-125139000D01*
X82467000Y-126067336D01*
X82704369Y-126179241D01*
X83026534Y-125964002D01*
X83098154Y-125964002D01*
X83183862Y-126097198D01*
X83434492Y-126268446D01*
X83459090Y-126273427D01*
X83195626Y-129698470D01*
X82729608Y-130009852D01*
X82328579Y-130610036D01*
X82187756Y-131318000D01*
X82266071Y-131711716D01*
X80826893Y-133150893D01*
X80610120Y-133475316D01*
X80565826Y-133698000D01*
X80534000Y-133858000D01*
X80534000Y-134082272D01*
X80334949Y-134215274D01*
X79977274Y-134750572D01*
X79851675Y-135382000D01*
X53185554Y-135382000D01*
X49452777Y-131649223D01*
X49375540Y-131598000D01*
X62193307Y-131598000D01*
X62193307Y-133698000D01*
X62245604Y-133975933D01*
X62409862Y-134231198D01*
X62660492Y-134402446D01*
X62958000Y-134462693D01*
X65058000Y-134462693D01*
X65335933Y-134410396D01*
X65591198Y-134246138D01*
X65762446Y-133995508D01*
X65822693Y-133698000D01*
X65822693Y-131598000D01*
X65770396Y-131320067D01*
X65606138Y-131064802D01*
X65355508Y-130893554D01*
X65058000Y-130833307D01*
X62958000Y-130833307D01*
X62680067Y-130885604D01*
X62424802Y-131049862D01*
X62253554Y-131300492D01*
X62193307Y-131598000D01*
X49375540Y-131598000D01*
X49370073Y-131594375D01*
X49276000Y-131576000D01*
X48764000Y-131576000D01*
X48764000Y-130218000D01*
X74589307Y-130218000D01*
X74589307Y-132418000D01*
X74641604Y-132695933D01*
X74805862Y-132951198D01*
X75056492Y-133122446D01*
X75354000Y-133182693D01*
X77554000Y-133182693D01*
X77831933Y-133130396D01*
X78087198Y-132966138D01*
X78258446Y-132715508D01*
X78318693Y-132418000D01*
X78318693Y-130218000D01*
X78266396Y-129940067D01*
X78102138Y-129684802D01*
X77851508Y-129513554D01*
X77554000Y-129453307D01*
X75354000Y-129453307D01*
X75076067Y-129505604D01*
X74820802Y-129669862D01*
X74649554Y-129920492D01*
X74589307Y-130218000D01*
X48764000Y-130218000D01*
X48764000Y-127824079D01*
X53117654Y-127824079D01*
X53421494Y-128559429D01*
X53983612Y-129122529D01*
X54718430Y-129427652D01*
X55514079Y-129428346D01*
X56249429Y-129124506D01*
X56812529Y-128562388D01*
X57085719Y-127904471D01*
X62207688Y-127904471D01*
X62481145Y-128566286D01*
X62987051Y-129073076D01*
X63648387Y-129347687D01*
X64364471Y-129348312D01*
X65026286Y-129074855D01*
X65533076Y-128568949D01*
X65807687Y-127907613D01*
X65808312Y-127191529D01*
X65608522Y-126708000D01*
X71079307Y-126708000D01*
X71079307Y-128308000D01*
X71131604Y-128585933D01*
X71295862Y-128841198D01*
X71546492Y-129012446D01*
X71844000Y-129072693D01*
X73444000Y-129072693D01*
X73721933Y-129020396D01*
X73977198Y-128856138D01*
X74148446Y-128605508D01*
X74208693Y-128308000D01*
X74208693Y-126708000D01*
X74156396Y-126430067D01*
X73992138Y-126174802D01*
X73741508Y-126003554D01*
X73444000Y-125943307D01*
X71844000Y-125943307D01*
X71566067Y-125995604D01*
X71310802Y-126159862D01*
X71139554Y-126410492D01*
X71079307Y-126708000D01*
X65608522Y-126708000D01*
X65534855Y-126529714D01*
X65028949Y-126022924D01*
X64367613Y-125748313D01*
X63651529Y-125747688D01*
X62989714Y-126021145D01*
X62482924Y-126527051D01*
X62208313Y-127188387D01*
X62207688Y-127904471D01*
X57085719Y-127904471D01*
X57117652Y-127827570D01*
X57118346Y-127031921D01*
X56814506Y-126296571D01*
X56252388Y-125733471D01*
X55517570Y-125428348D01*
X54721921Y-125427654D01*
X53986571Y-125731494D01*
X53423471Y-126293612D01*
X53118348Y-127028430D01*
X53117654Y-127824079D01*
X48764000Y-127824079D01*
X48764000Y-121178000D01*
X53103307Y-121178000D01*
X53103307Y-123678000D01*
X53155604Y-123955933D01*
X53319862Y-124211198D01*
X53570492Y-124382446D01*
X53868000Y-124442693D01*
X56368000Y-124442693D01*
X56645933Y-124390396D01*
X56901198Y-124226138D01*
X57072446Y-123975508D01*
X57132693Y-123678000D01*
X57132693Y-122804471D01*
X62207688Y-122804471D01*
X62481145Y-123466286D01*
X62987051Y-123973076D01*
X63648387Y-124247687D01*
X64364471Y-124248312D01*
X65026286Y-123974855D01*
X65533076Y-123468949D01*
X65804635Y-122814961D01*
X71093732Y-122814961D01*
X71329208Y-123384857D01*
X71764849Y-123821260D01*
X72334333Y-124057730D01*
X72950961Y-124058268D01*
X73520857Y-123822792D01*
X73957260Y-123387151D01*
X74193730Y-122817667D01*
X74194268Y-122201039D01*
X73958792Y-121631143D01*
X73523151Y-121194740D01*
X72953667Y-120958270D01*
X72337039Y-120957732D01*
X71767143Y-121193208D01*
X71330740Y-121628849D01*
X71094270Y-122198333D01*
X71093732Y-122814961D01*
X65804635Y-122814961D01*
X65807687Y-122807613D01*
X65808312Y-122091529D01*
X65534855Y-121429714D01*
X65028949Y-120922924D01*
X64367613Y-120648313D01*
X63651529Y-120647688D01*
X62989714Y-120921145D01*
X62482924Y-121427051D01*
X62208313Y-122088387D01*
X62207688Y-122804471D01*
X57132693Y-122804471D01*
X57132693Y-121178000D01*
X57080396Y-120900067D01*
X56916138Y-120644802D01*
X56665508Y-120473554D01*
X56368000Y-120413307D01*
X53868000Y-120413307D01*
X53590067Y-120465604D01*
X53334802Y-120629862D01*
X53163554Y-120880492D01*
X53103307Y-121178000D01*
X48764000Y-121178000D01*
X48764000Y-117704471D01*
X62207688Y-117704471D01*
X62481145Y-118366286D01*
X62987051Y-118873076D01*
X63648387Y-119147687D01*
X64364471Y-119148312D01*
X65026286Y-118874855D01*
X65533076Y-118368949D01*
X65807687Y-117707613D01*
X65808312Y-116991529D01*
X65534855Y-116329714D01*
X65028949Y-115822924D01*
X64367613Y-115548313D01*
X63651529Y-115547688D01*
X62989714Y-115821145D01*
X62482924Y-116327051D01*
X62208313Y-116988387D01*
X62207688Y-117704471D01*
X48764000Y-117704471D01*
X48764000Y-106708000D01*
X54223307Y-106708000D01*
X54223307Y-110208000D01*
X54275604Y-110485933D01*
X54439862Y-110741198D01*
X54690492Y-110912446D01*
X54988000Y-110972693D01*
X57377708Y-110972693D01*
X57283554Y-111110492D01*
X57223307Y-111408000D01*
X57223307Y-114908000D01*
X57275604Y-115185933D01*
X57439862Y-115441198D01*
X57690492Y-115612446D01*
X57988000Y-115672693D01*
X61488000Y-115672693D01*
X61765933Y-115620396D01*
X62021198Y-115456138D01*
X62192446Y-115205508D01*
X62252693Y-114908000D01*
X62252693Y-111926907D01*
X65840893Y-115515107D01*
X66165316Y-115731880D01*
X66548000Y-115808001D01*
X66548005Y-115808000D01*
X69943786Y-115808000D01*
X77200878Y-123065092D01*
X77988694Y-124246816D01*
X77902000Y-124682654D01*
X77902000Y-124745346D01*
X78023793Y-125357639D01*
X78370629Y-125876717D01*
X78889707Y-126223553D01*
X79502000Y-126345346D01*
X80114293Y-126223553D01*
X80502739Y-125964002D01*
X81057466Y-125964002D01*
X81379631Y-126179241D01*
X81617000Y-126067336D01*
X81617000Y-125139000D01*
X81192000Y-125139000D01*
X81192000Y-124289000D01*
X81617000Y-124289000D01*
X81617000Y-123360664D01*
X81379631Y-123248759D01*
X81057466Y-123463998D01*
X80502739Y-123463998D01*
X80114293Y-123204447D01*
X79633758Y-123108862D01*
X78810050Y-121873300D01*
X78740115Y-121803218D01*
X78685107Y-121720893D01*
X75551848Y-118587634D01*
X84556000Y-118587634D01*
X84556000Y-118648366D01*
X84673987Y-119241525D01*
X85009984Y-119744382D01*
X85512841Y-120080379D01*
X86106000Y-120198366D01*
X86699159Y-120080379D01*
X87202016Y-119744382D01*
X87331897Y-119550000D01*
X96179307Y-119550000D01*
X96179307Y-121750000D01*
X96231604Y-122027933D01*
X96395862Y-122283198D01*
X96646492Y-122454446D01*
X96944000Y-122514693D01*
X99144000Y-122514693D01*
X99421933Y-122462396D01*
X99677198Y-122298138D01*
X99848446Y-122047508D01*
X99908693Y-121750000D01*
X99908693Y-120613756D01*
X100258000Y-120613756D01*
X100258000Y-120686244D01*
X100398823Y-121394208D01*
X100799852Y-121994392D01*
X101400036Y-122395421D01*
X102108000Y-122536244D01*
X102815964Y-122395421D01*
X103329666Y-122052177D01*
X108031662Y-122052177D01*
X108327906Y-122769143D01*
X108875971Y-123318166D01*
X109592419Y-123615661D01*
X110368177Y-123616338D01*
X111085143Y-123320094D01*
X111634166Y-122772029D01*
X111931661Y-122055581D01*
X111931885Y-121798177D01*
X114381662Y-121798177D01*
X114677906Y-122515143D01*
X115225971Y-123064166D01*
X115942419Y-123361661D01*
X116718177Y-123362338D01*
X117435143Y-123066094D01*
X117984166Y-122518029D01*
X118281661Y-121801581D01*
X118282254Y-121121756D01*
X123118000Y-121121756D01*
X123118000Y-121194244D01*
X123258823Y-121902208D01*
X123659852Y-122502392D01*
X124260036Y-122903421D01*
X124968000Y-123044244D01*
X125675964Y-122903421D01*
X126276148Y-122502392D01*
X126677177Y-121902208D01*
X126818000Y-121194244D01*
X126818000Y-121121756D01*
X126677177Y-120413792D01*
X126276148Y-119813608D01*
X125675964Y-119412579D01*
X124968000Y-119271756D01*
X124260036Y-119412579D01*
X123659852Y-119813608D01*
X123258823Y-120413792D01*
X123118000Y-121121756D01*
X118282254Y-121121756D01*
X118282338Y-121025823D01*
X117986094Y-120308857D01*
X117438029Y-119759834D01*
X116721581Y-119462339D01*
X115945823Y-119461662D01*
X115228857Y-119757906D01*
X114679834Y-120305971D01*
X114382339Y-121022419D01*
X114381662Y-121798177D01*
X111931885Y-121798177D01*
X111932338Y-121279823D01*
X111636094Y-120562857D01*
X111088029Y-120013834D01*
X110371581Y-119716339D01*
X109595823Y-119715662D01*
X108878857Y-120011906D01*
X108329834Y-120559971D01*
X108032339Y-121276419D01*
X108031662Y-122052177D01*
X103329666Y-122052177D01*
X103416148Y-121994392D01*
X103817177Y-121394208D01*
X103958000Y-120686244D01*
X103958000Y-120613756D01*
X103817177Y-119905792D01*
X103416148Y-119305608D01*
X102815964Y-118904579D01*
X102108000Y-118763756D01*
X101400036Y-118904579D01*
X100799852Y-119305608D01*
X100398823Y-119905792D01*
X100258000Y-120613756D01*
X99908693Y-120613756D01*
X99908693Y-119550000D01*
X99856396Y-119272067D01*
X99692138Y-119016802D01*
X99441508Y-118845554D01*
X99144000Y-118785307D01*
X96944000Y-118785307D01*
X96666067Y-118837604D01*
X96410802Y-119001862D01*
X96239554Y-119252492D01*
X96179307Y-119550000D01*
X87331897Y-119550000D01*
X87538013Y-119241525D01*
X87656000Y-118648366D01*
X87656000Y-118587634D01*
X87538013Y-117994475D01*
X87202016Y-117491618D01*
X86699159Y-117155621D01*
X86106000Y-117037634D01*
X85512841Y-117155621D01*
X85009984Y-117491618D01*
X84673987Y-117994475D01*
X84556000Y-118587634D01*
X75551848Y-118587634D01*
X73896783Y-116932569D01*
X107843696Y-116932569D01*
X108109557Y-117576001D01*
X108601410Y-118068713D01*
X109244376Y-118335696D01*
X109940569Y-118336304D01*
X110584001Y-118070443D01*
X111076713Y-117578590D01*
X111343696Y-116935624D01*
X111343698Y-116932569D01*
X115343696Y-116932569D01*
X115609557Y-117576001D01*
X116101410Y-118068713D01*
X116744376Y-118335696D01*
X117440569Y-118336304D01*
X118084001Y-118070443D01*
X118576713Y-117578590D01*
X118843696Y-116935624D01*
X118844296Y-116248000D01*
X119293307Y-116248000D01*
X119293307Y-118448000D01*
X119345604Y-118725933D01*
X119509862Y-118981198D01*
X119760492Y-119152446D01*
X120058000Y-119212693D01*
X122258000Y-119212693D01*
X122535933Y-119160396D01*
X122791198Y-118996138D01*
X122962446Y-118745508D01*
X123022693Y-118448000D01*
X123022693Y-118348000D01*
X130573307Y-118348000D01*
X130573307Y-118598000D01*
X130625604Y-118875933D01*
X130789862Y-119131198D01*
X131040492Y-119302446D01*
X131338000Y-119362693D01*
X133838000Y-119362693D01*
X134115933Y-119310396D01*
X134371198Y-119146138D01*
X134542446Y-118895508D01*
X134602693Y-118598000D01*
X134602693Y-116098000D01*
X134550396Y-115820067D01*
X134386138Y-115564802D01*
X134135508Y-115393554D01*
X133838000Y-115333307D01*
X131338000Y-115333307D01*
X131060067Y-115385604D01*
X130804802Y-115549862D01*
X130633554Y-115800492D01*
X130573307Y-116098000D01*
X130573307Y-116348000D01*
X123022693Y-116348000D01*
X123022693Y-116248000D01*
X122970396Y-115970067D01*
X122806138Y-115714802D01*
X122555508Y-115543554D01*
X122258000Y-115483307D01*
X120058000Y-115483307D01*
X119780067Y-115535604D01*
X119524802Y-115699862D01*
X119353554Y-115950492D01*
X119293307Y-116248000D01*
X118844296Y-116248000D01*
X118844304Y-116239431D01*
X118578443Y-115595999D01*
X118086590Y-115103287D01*
X117443624Y-114836304D01*
X116747431Y-114835696D01*
X116103999Y-115101557D01*
X115611287Y-115593410D01*
X115344304Y-116236376D01*
X115343696Y-116932569D01*
X111343698Y-116932569D01*
X111344304Y-116239431D01*
X111078443Y-115595999D01*
X110586590Y-115103287D01*
X109943624Y-114836304D01*
X109247431Y-114835696D01*
X108603999Y-115101557D01*
X108111287Y-115593410D01*
X107844304Y-116236376D01*
X107843696Y-116932569D01*
X73896783Y-116932569D01*
X71698214Y-114734000D01*
X72108500Y-114734000D01*
X72298000Y-114544500D01*
X72298000Y-113376000D01*
X73498000Y-113376000D01*
X73498000Y-114544500D01*
X73687500Y-114734000D01*
X74248776Y-114734000D01*
X74527373Y-114618601D01*
X74740602Y-114405372D01*
X74856000Y-114126775D01*
X74856000Y-113565500D01*
X74666500Y-113376000D01*
X73498000Y-113376000D01*
X72298000Y-113376000D01*
X71129500Y-113376000D01*
X70940000Y-113565500D01*
X70940000Y-114017299D01*
X70740684Y-113884120D01*
X70358000Y-113808000D01*
X66962214Y-113808000D01*
X66316391Y-113162177D01*
X78447662Y-113162177D01*
X78743906Y-113879143D01*
X79291971Y-114428166D01*
X80008419Y-114725661D01*
X80784177Y-114726338D01*
X81501143Y-114430094D01*
X82050166Y-113882029D01*
X82347661Y-113165581D01*
X82347810Y-112993756D01*
X96194000Y-112993756D01*
X96194000Y-113066244D01*
X96334823Y-113774208D01*
X96735852Y-114374392D01*
X97336036Y-114775421D01*
X98044000Y-114916244D01*
X98751964Y-114775421D01*
X99352148Y-114374392D01*
X99753177Y-113774208D01*
X99754113Y-113769500D01*
X100250000Y-113769500D01*
X100250000Y-114280776D01*
X100365399Y-114559373D01*
X100578628Y-114772602D01*
X100857225Y-114888000D01*
X101368500Y-114888000D01*
X101558000Y-114698500D01*
X101558000Y-113580000D01*
X102658000Y-113580000D01*
X102658000Y-114698500D01*
X102847500Y-114888000D01*
X103358775Y-114888000D01*
X103637372Y-114772602D01*
X103850601Y-114559373D01*
X103966000Y-114280776D01*
X103966000Y-113769500D01*
X103776500Y-113580000D01*
X102658000Y-113580000D01*
X101558000Y-113580000D01*
X100439500Y-113580000D01*
X100250000Y-113769500D01*
X99754113Y-113769500D01*
X99894000Y-113066244D01*
X99894000Y-112993756D01*
X99753177Y-112285792D01*
X99414701Y-111779224D01*
X100250000Y-111779224D01*
X100250000Y-112290500D01*
X100439500Y-112480000D01*
X101558000Y-112480000D01*
X101558000Y-111361500D01*
X102658000Y-111361500D01*
X102658000Y-112480000D01*
X103776500Y-112480000D01*
X103966000Y-112290500D01*
X103966000Y-111779224D01*
X103850601Y-111500627D01*
X103637372Y-111287398D01*
X103358775Y-111172000D01*
X102847500Y-111172000D01*
X102658000Y-111361500D01*
X101558000Y-111361500D01*
X101368500Y-111172000D01*
X100857225Y-111172000D01*
X100578628Y-111287398D01*
X100365399Y-111500627D01*
X100250000Y-111779224D01*
X99414701Y-111779224D01*
X99352148Y-111685608D01*
X98751964Y-111284579D01*
X98044000Y-111143756D01*
X97336036Y-111284579D01*
X96735852Y-111685608D01*
X96334823Y-112285792D01*
X96194000Y-112993756D01*
X82347810Y-112993756D01*
X82348338Y-112389823D01*
X82052094Y-111672857D01*
X81504029Y-111123834D01*
X80787581Y-110826339D01*
X80011823Y-110825662D01*
X79294857Y-111121906D01*
X78745834Y-111669971D01*
X78448339Y-112386419D01*
X78447662Y-113162177D01*
X66316391Y-113162177D01*
X64579439Y-111425225D01*
X70940000Y-111425225D01*
X70940000Y-111986500D01*
X71129500Y-112176000D01*
X72298000Y-112176000D01*
X72298000Y-111007500D01*
X73498000Y-111007500D01*
X73498000Y-112176000D01*
X74666500Y-112176000D01*
X74856000Y-111986500D01*
X74856000Y-111425225D01*
X74740602Y-111146628D01*
X74527373Y-110933399D01*
X74248776Y-110818000D01*
X73687500Y-110818000D01*
X73498000Y-111007500D01*
X72298000Y-111007500D01*
X72108500Y-110818000D01*
X71547224Y-110818000D01*
X71268627Y-110933399D01*
X71055398Y-111146628D01*
X70940000Y-111425225D01*
X64579439Y-111425225D01*
X64126907Y-110972693D01*
X64488000Y-110972693D01*
X64765933Y-110920396D01*
X65021198Y-110756138D01*
X65192446Y-110505508D01*
X65252693Y-110208000D01*
X65252693Y-109688805D01*
X85440881Y-109688805D01*
X85525983Y-109936846D01*
X86136064Y-110046239D01*
X86686017Y-109936846D01*
X86770106Y-109691756D01*
X119308000Y-109691756D01*
X119308000Y-109764244D01*
X119448823Y-110472208D01*
X119849852Y-111072392D01*
X120450036Y-111473421D01*
X121158000Y-111614244D01*
X121865964Y-111473421D01*
X122323060Y-111168000D01*
X123103307Y-111168000D01*
X123103307Y-113368000D01*
X123155604Y-113645933D01*
X123319862Y-113901198D01*
X123570492Y-114072446D01*
X123868000Y-114132693D01*
X126068000Y-114132693D01*
X126345933Y-114080396D01*
X126601198Y-113916138D01*
X126772446Y-113665508D01*
X126832693Y-113368000D01*
X126832693Y-112744079D01*
X130587654Y-112744079D01*
X130891494Y-113479429D01*
X131453612Y-114042529D01*
X132188430Y-114347652D01*
X132984079Y-114348346D01*
X133719429Y-114044506D01*
X134282529Y-113482388D01*
X134587652Y-112747570D01*
X134588346Y-111951921D01*
X134284506Y-111216571D01*
X133722388Y-110653471D01*
X132987570Y-110348348D01*
X132191921Y-110347654D01*
X131456571Y-110651494D01*
X130893471Y-111213612D01*
X130588348Y-111948430D01*
X130587654Y-112744079D01*
X126832693Y-112744079D01*
X126832693Y-111168000D01*
X126780396Y-110890067D01*
X126616138Y-110634802D01*
X126365508Y-110463554D01*
X126068000Y-110403307D01*
X123868000Y-110403307D01*
X123590067Y-110455604D01*
X123334802Y-110619862D01*
X123163554Y-110870492D01*
X123103307Y-111168000D01*
X122323060Y-111168000D01*
X122466148Y-111072392D01*
X122867177Y-110472208D01*
X123008000Y-109764244D01*
X123008000Y-109691756D01*
X122867177Y-108983792D01*
X122466148Y-108383608D01*
X121865964Y-107982579D01*
X121158000Y-107841756D01*
X120450036Y-107982579D01*
X119849852Y-108383608D01*
X119448823Y-108983792D01*
X119308000Y-109691756D01*
X86770106Y-109691756D01*
X86771119Y-109688805D01*
X86106000Y-109023685D01*
X85440881Y-109688805D01*
X65252693Y-109688805D01*
X65252693Y-108488064D01*
X84517761Y-108488064D01*
X84627154Y-109038017D01*
X84875195Y-109123119D01*
X85540315Y-108458000D01*
X86671685Y-108458000D01*
X87336805Y-109123119D01*
X87584846Y-109038017D01*
X87694239Y-108427936D01*
X87584846Y-107877983D01*
X87336805Y-107792881D01*
X86671685Y-108458000D01*
X85540315Y-108458000D01*
X84875195Y-107792881D01*
X84627154Y-107877983D01*
X84517761Y-108488064D01*
X65252693Y-108488064D01*
X65252693Y-107227195D01*
X85440881Y-107227195D01*
X86106000Y-107892315D01*
X86771119Y-107227195D01*
X86686017Y-106979154D01*
X86075936Y-106869761D01*
X85525983Y-106979154D01*
X85440881Y-107227195D01*
X65252693Y-107227195D01*
X65252693Y-106708000D01*
X65200396Y-106430067D01*
X65036138Y-106174802D01*
X64785508Y-106003554D01*
X64488000Y-105943307D01*
X60988000Y-105943307D01*
X60710067Y-105995604D01*
X60454802Y-106159862D01*
X60283554Y-106410492D01*
X60223307Y-106708000D01*
X60223307Y-110208000D01*
X60275604Y-110485933D01*
X60376871Y-110643307D01*
X59098292Y-110643307D01*
X59192446Y-110505508D01*
X59252693Y-110208000D01*
X59252693Y-106708000D01*
X59200396Y-106430067D01*
X59036138Y-106174802D01*
X58785508Y-106003554D01*
X58488000Y-105943307D01*
X54988000Y-105943307D01*
X54710067Y-105995604D01*
X54454802Y-106159862D01*
X54283554Y-106410492D01*
X54223307Y-106708000D01*
X48764000Y-106708000D01*
X48764000Y-104611756D01*
X123118000Y-104611756D01*
X123118000Y-104684244D01*
X123258823Y-105392208D01*
X123659852Y-105992392D01*
X124260036Y-106393421D01*
X124968000Y-106534244D01*
X125675964Y-106393421D01*
X126047811Y-106144961D01*
X131037732Y-106144961D01*
X131273208Y-106714857D01*
X131708849Y-107151260D01*
X132278333Y-107387730D01*
X132894961Y-107388268D01*
X133464857Y-107152792D01*
X133901260Y-106717151D01*
X134137730Y-106147667D01*
X134138268Y-105531039D01*
X133902792Y-104961143D01*
X133467151Y-104524740D01*
X132897667Y-104288270D01*
X132281039Y-104287732D01*
X131711143Y-104523208D01*
X131274740Y-104958849D01*
X131038270Y-105528333D01*
X131037732Y-106144961D01*
X126047811Y-106144961D01*
X126276148Y-105992392D01*
X126677177Y-105392208D01*
X126818000Y-104684244D01*
X126818000Y-104611756D01*
X126677177Y-103903792D01*
X126276148Y-103303608D01*
X125675964Y-102902579D01*
X124968000Y-102761756D01*
X124260036Y-102902579D01*
X123659852Y-103303608D01*
X123258823Y-103903792D01*
X123118000Y-104611756D01*
X48764000Y-104611756D01*
X48764000Y-102108000D01*
X85489756Y-102108000D01*
X85630579Y-102815964D01*
X86031608Y-103416148D01*
X86631792Y-103817177D01*
X87339756Y-103958000D01*
X87412244Y-103958000D01*
X88120208Y-103817177D01*
X88720392Y-103416148D01*
X89121421Y-102815964D01*
X89262244Y-102108000D01*
X89121421Y-101400036D01*
X88859472Y-101008000D01*
X93131307Y-101008000D01*
X93131307Y-103208000D01*
X93183604Y-103485933D01*
X93347862Y-103741198D01*
X93598492Y-103912446D01*
X93896000Y-103972693D01*
X96096000Y-103972693D01*
X96373933Y-103920396D01*
X96629198Y-103756138D01*
X96800446Y-103505508D01*
X96860693Y-103208000D01*
X96860693Y-102585634D01*
X97002000Y-102585634D01*
X97002000Y-102646366D01*
X97119987Y-103239525D01*
X97455984Y-103742382D01*
X97958841Y-104078379D01*
X98552000Y-104196366D01*
X99145159Y-104078379D01*
X99648016Y-103742382D01*
X99984013Y-103239525D01*
X100102000Y-102646366D01*
X100102000Y-102585634D01*
X99999197Y-102068805D01*
X116682881Y-102068805D01*
X116767983Y-102316846D01*
X117378064Y-102426239D01*
X117928017Y-102316846D01*
X118013119Y-102068805D01*
X117348000Y-101403685D01*
X116682881Y-102068805D01*
X99999197Y-102068805D01*
X99984013Y-101992475D01*
X99648016Y-101489618D01*
X99145159Y-101153621D01*
X98552000Y-101035634D01*
X97958841Y-101153621D01*
X97455984Y-101489618D01*
X97119987Y-101992475D01*
X97002000Y-102585634D01*
X96860693Y-102585634D01*
X96860693Y-101008000D01*
X96834363Y-100868064D01*
X115759761Y-100868064D01*
X115869154Y-101418017D01*
X116117195Y-101503119D01*
X116782315Y-100838000D01*
X117913685Y-100838000D01*
X118578805Y-101503119D01*
X118826846Y-101418017D01*
X118936239Y-100807936D01*
X118826846Y-100257983D01*
X118578805Y-100172881D01*
X117913685Y-100838000D01*
X116782315Y-100838000D01*
X116117195Y-100172881D01*
X115869154Y-100257983D01*
X115759761Y-100868064D01*
X96834363Y-100868064D01*
X96808396Y-100730067D01*
X96644138Y-100474802D01*
X96393508Y-100303554D01*
X96096000Y-100243307D01*
X93896000Y-100243307D01*
X93618067Y-100295604D01*
X93362802Y-100459862D01*
X93191554Y-100710492D01*
X93131307Y-101008000D01*
X88859472Y-101008000D01*
X88720392Y-100799852D01*
X88120208Y-100398823D01*
X87412244Y-100258000D01*
X87339756Y-100258000D01*
X86631792Y-100398823D01*
X86031608Y-100799852D01*
X85630579Y-101400036D01*
X85489756Y-102108000D01*
X48764000Y-102108000D01*
X48764000Y-98270961D01*
X79475732Y-98270961D01*
X79711208Y-98840857D01*
X80146849Y-99277260D01*
X80716333Y-99513730D01*
X81332961Y-99514268D01*
X81902857Y-99278792D01*
X82339260Y-98843151D01*
X82565626Y-98298000D01*
X85489756Y-98298000D01*
X85630579Y-99005964D01*
X86031608Y-99606148D01*
X86631792Y-100007177D01*
X87339756Y-100148000D01*
X87412244Y-100148000D01*
X88120208Y-100007177D01*
X88720392Y-99606148D01*
X89121421Y-99005964D01*
X89262244Y-98298000D01*
X89121421Y-97590036D01*
X88720392Y-96989852D01*
X88120208Y-96588823D01*
X87412244Y-96448000D01*
X87339756Y-96448000D01*
X86631792Y-96588823D01*
X86031608Y-96989852D01*
X85630579Y-97590036D01*
X85489756Y-98298000D01*
X82565626Y-98298000D01*
X82575730Y-98273667D01*
X82576268Y-97657039D01*
X82340792Y-97087143D01*
X81905151Y-96650740D01*
X81335667Y-96414270D01*
X80719039Y-96413732D01*
X80149143Y-96649208D01*
X79712740Y-97084849D01*
X79476270Y-97654333D01*
X79475732Y-98270961D01*
X48764000Y-98270961D01*
X48764000Y-94648452D01*
X65824655Y-94648452D01*
X65940759Y-94904448D01*
X66632358Y-95008455D01*
X67155241Y-94904448D01*
X67271345Y-94648452D01*
X66548000Y-93925107D01*
X65824655Y-94648452D01*
X48764000Y-94648452D01*
X48764000Y-91064177D01*
X53929662Y-91064177D01*
X54225906Y-91781143D01*
X54773971Y-92330166D01*
X55490419Y-92627661D01*
X56266177Y-92628338D01*
X56983143Y-92332094D01*
X57532166Y-91784029D01*
X57584599Y-91657756D01*
X60634000Y-91657756D01*
X60634000Y-91730244D01*
X60774823Y-92438208D01*
X61175852Y-93038392D01*
X61776036Y-93439421D01*
X62484000Y-93580244D01*
X63191964Y-93439421D01*
X63397093Y-93302358D01*
X64757545Y-93302358D01*
X64861552Y-93825241D01*
X65117548Y-93941345D01*
X65840893Y-93218000D01*
X67255107Y-93218000D01*
X67978452Y-93941345D01*
X68234448Y-93825241D01*
X68273649Y-93564569D01*
X72297696Y-93564569D01*
X72563557Y-94208001D01*
X73055410Y-94700713D01*
X73698376Y-94967696D01*
X74394569Y-94968304D01*
X75038001Y-94702443D01*
X75530713Y-94210590D01*
X75797696Y-93567624D01*
X75797708Y-93553500D01*
X79468000Y-93553500D01*
X79468000Y-93914776D01*
X79583399Y-94193373D01*
X79796628Y-94406602D01*
X80075225Y-94522000D01*
X80436500Y-94522000D01*
X80626000Y-94332500D01*
X80626000Y-93364000D01*
X81426000Y-93364000D01*
X81426000Y-94332500D01*
X81615500Y-94522000D01*
X81976775Y-94522000D01*
X82255372Y-94406602D01*
X82468601Y-94193373D01*
X82584000Y-93914776D01*
X82584000Y-93553500D01*
X82394500Y-93364000D01*
X81426000Y-93364000D01*
X80626000Y-93364000D01*
X79657500Y-93364000D01*
X79468000Y-93553500D01*
X75797708Y-93553500D01*
X75798304Y-92871431D01*
X75532443Y-92227999D01*
X75318043Y-92013224D01*
X79468000Y-92013224D01*
X79468000Y-92374500D01*
X79657500Y-92564000D01*
X80626000Y-92564000D01*
X80626000Y-91595500D01*
X81426000Y-91595500D01*
X81426000Y-92564000D01*
X82394500Y-92564000D01*
X82584000Y-92374500D01*
X82584000Y-92013224D01*
X82468601Y-91734627D01*
X82255372Y-91521398D01*
X81976775Y-91406000D01*
X81615500Y-91406000D01*
X81426000Y-91595500D01*
X80626000Y-91595500D01*
X80436500Y-91406000D01*
X80075225Y-91406000D01*
X79796628Y-91521398D01*
X79583399Y-91734627D01*
X79468000Y-92013224D01*
X75318043Y-92013224D01*
X75040590Y-91735287D01*
X74397624Y-91468304D01*
X73701431Y-91467696D01*
X73057999Y-91733557D01*
X72565287Y-92225410D01*
X72298304Y-92868376D01*
X72297696Y-93564569D01*
X68273649Y-93564569D01*
X68338455Y-93133642D01*
X68234448Y-92610759D01*
X67978452Y-92494655D01*
X67255107Y-93218000D01*
X65840893Y-93218000D01*
X65117548Y-92494655D01*
X64861552Y-92610759D01*
X64757545Y-93302358D01*
X63397093Y-93302358D01*
X63792148Y-93038392D01*
X64193177Y-92438208D01*
X64322601Y-91787548D01*
X65824655Y-91787548D01*
X66548000Y-92510893D01*
X67271345Y-91787548D01*
X67155241Y-91531552D01*
X66463642Y-91427545D01*
X65940759Y-91531552D01*
X65824655Y-91787548D01*
X64322601Y-91787548D01*
X64334000Y-91730244D01*
X64334000Y-91657756D01*
X64193177Y-90949792D01*
X63792148Y-90349608D01*
X63191964Y-89948579D01*
X62484000Y-89807756D01*
X61776036Y-89948579D01*
X61175852Y-90349608D01*
X60774823Y-90949792D01*
X60634000Y-91657756D01*
X57584599Y-91657756D01*
X57829661Y-91067581D01*
X57830338Y-90291823D01*
X57534094Y-89574857D01*
X56986029Y-89025834D01*
X56366615Y-88768631D01*
X65123335Y-88768631D01*
X65420162Y-89212912D01*
X65917365Y-89562694D01*
X66148000Y-89454307D01*
X66148000Y-88538000D01*
X66948000Y-88538000D01*
X66948000Y-89454307D01*
X67178635Y-89562694D01*
X67675838Y-89212912D01*
X67972665Y-88768631D01*
X67951991Y-88727500D01*
X72610000Y-88727500D01*
X72610000Y-89088775D01*
X72725398Y-89367372D01*
X72938627Y-89580601D01*
X73217224Y-89696000D01*
X73578500Y-89696000D01*
X73768000Y-89506500D01*
X73768000Y-88538000D01*
X74568000Y-88538000D01*
X74568000Y-89506500D01*
X74757500Y-89696000D01*
X75118776Y-89696000D01*
X75397373Y-89580601D01*
X75610602Y-89367372D01*
X75726000Y-89088775D01*
X75726000Y-88727500D01*
X75697461Y-88698961D01*
X76935732Y-88698961D01*
X77171208Y-89268857D01*
X77606849Y-89705260D01*
X78176333Y-89941730D01*
X78792961Y-89942268D01*
X79362857Y-89706792D01*
X79799260Y-89271151D01*
X80035730Y-88701667D01*
X80036268Y-88085039D01*
X79800792Y-87515143D01*
X79365151Y-87078740D01*
X78795667Y-86842270D01*
X78179039Y-86841732D01*
X77609143Y-87077208D01*
X77172740Y-87512849D01*
X76936270Y-88082333D01*
X76935732Y-88698961D01*
X75697461Y-88698961D01*
X75536500Y-88538000D01*
X74568000Y-88538000D01*
X73768000Y-88538000D01*
X72799500Y-88538000D01*
X72610000Y-88727500D01*
X67951991Y-88727500D01*
X67856737Y-88538000D01*
X66948000Y-88538000D01*
X66148000Y-88538000D01*
X65239263Y-88538000D01*
X65123335Y-88768631D01*
X56366615Y-88768631D01*
X56269581Y-88728339D01*
X55493823Y-88727662D01*
X54776857Y-89023906D01*
X54227834Y-89571971D01*
X53930339Y-90288419D01*
X53929662Y-91064177D01*
X48764000Y-91064177D01*
X48764000Y-82974000D01*
X60619307Y-82974000D01*
X60619307Y-85174000D01*
X60671604Y-85451933D01*
X60835862Y-85707198D01*
X61086492Y-85878446D01*
X61384000Y-85938693D01*
X63584000Y-85938693D01*
X63861933Y-85886396D01*
X64117198Y-85722138D01*
X64288446Y-85471508D01*
X64348693Y-85174000D01*
X64348693Y-82974000D01*
X64296396Y-82696067D01*
X64132138Y-82440802D01*
X63881508Y-82269554D01*
X63584000Y-82209307D01*
X63272952Y-82209307D01*
X63792148Y-81862392D01*
X64193177Y-81262208D01*
X64334000Y-80554244D01*
X64334000Y-80518000D01*
X64967634Y-80518000D01*
X65085621Y-81111159D01*
X65421618Y-81614016D01*
X65682004Y-81788000D01*
X65421618Y-81961984D01*
X65085621Y-82464841D01*
X64967634Y-83058000D01*
X65085621Y-83651159D01*
X65421618Y-84154016D01*
X65682004Y-84328000D01*
X65421618Y-84501984D01*
X65085621Y-85004841D01*
X64967634Y-85598000D01*
X65085621Y-86191159D01*
X65345435Y-86580000D01*
X65297998Y-86580000D01*
X65297998Y-87245939D01*
X65123335Y-87507369D01*
X65239263Y-87738000D01*
X66148000Y-87738000D01*
X66148000Y-87338000D01*
X66948000Y-87338000D01*
X66948000Y-87738000D01*
X67856737Y-87738000D01*
X67972665Y-87507369D01*
X67798002Y-87245939D01*
X67798002Y-86580000D01*
X67750565Y-86580000D01*
X68010379Y-86191159D01*
X68128366Y-85598000D01*
X68010379Y-85004841D01*
X67674382Y-84501984D01*
X67413996Y-84328000D01*
X67674382Y-84154016D01*
X68010379Y-83651159D01*
X68128366Y-83058000D01*
X68010379Y-82464841D01*
X67674382Y-81961984D01*
X67413996Y-81788000D01*
X67674382Y-81614016D01*
X68010379Y-81111159D01*
X68128366Y-80518000D01*
X68010379Y-79924841D01*
X67674382Y-79421984D01*
X67171525Y-79085987D01*
X66578366Y-78968000D01*
X66517634Y-78968000D01*
X65924475Y-79085987D01*
X65421618Y-79421984D01*
X65085621Y-79924841D01*
X64967634Y-80518000D01*
X64334000Y-80518000D01*
X64334000Y-80481756D01*
X64193177Y-79773792D01*
X63792148Y-79173608D01*
X63191964Y-78772579D01*
X62484000Y-78631756D01*
X61776036Y-78772579D01*
X61175852Y-79173608D01*
X60774823Y-79773792D01*
X60634000Y-80481756D01*
X60634000Y-80554244D01*
X60774823Y-81262208D01*
X61175852Y-81862392D01*
X61695048Y-82209307D01*
X61384000Y-82209307D01*
X61106067Y-82261604D01*
X60850802Y-82425862D01*
X60679554Y-82676492D01*
X60619307Y-82974000D01*
X48764000Y-82974000D01*
X48764000Y-75399797D01*
X53930000Y-75399797D01*
X53930000Y-75476203D01*
X54078435Y-76222436D01*
X54501142Y-76855061D01*
X55133767Y-77277768D01*
X55880000Y-77426203D01*
X56626233Y-77277768D01*
X57258858Y-76855061D01*
X57681565Y-76222436D01*
X57830000Y-75476203D01*
X57830000Y-75399797D01*
X57681565Y-74653564D01*
X57258858Y-74020939D01*
X56685002Y-73637500D01*
X60626000Y-73637500D01*
X60626000Y-74148776D01*
X60741399Y-74427373D01*
X60954628Y-74640602D01*
X61233225Y-74756000D01*
X61744500Y-74756000D01*
X61934000Y-74566500D01*
X61934000Y-73448000D01*
X63034000Y-73448000D01*
X63034000Y-74566500D01*
X63223500Y-74756000D01*
X63734775Y-74756000D01*
X64013372Y-74640602D01*
X64226601Y-74427373D01*
X64342000Y-74148776D01*
X64342000Y-73637500D01*
X64152500Y-73448000D01*
X63034000Y-73448000D01*
X61934000Y-73448000D01*
X60815500Y-73448000D01*
X60626000Y-73637500D01*
X56685002Y-73637500D01*
X56626233Y-73598232D01*
X55880000Y-73449797D01*
X55133767Y-73598232D01*
X54501142Y-74020939D01*
X54078435Y-74653564D01*
X53930000Y-75399797D01*
X48764000Y-75399797D01*
X48764000Y-71182079D01*
X53117654Y-71182079D01*
X53421494Y-71917429D01*
X53983612Y-72480529D01*
X54718430Y-72785652D01*
X55514079Y-72786346D01*
X56249429Y-72482506D01*
X56812529Y-71920388D01*
X56925956Y-71647224D01*
X60626000Y-71647224D01*
X60626000Y-72158500D01*
X60815500Y-72348000D01*
X61934000Y-72348000D01*
X61934000Y-71229500D01*
X63034000Y-71229500D01*
X63034000Y-72348000D01*
X64152500Y-72348000D01*
X64342000Y-72158500D01*
X64342000Y-71647224D01*
X64226601Y-71368627D01*
X64013372Y-71155398D01*
X63734775Y-71040000D01*
X63223500Y-71040000D01*
X63034000Y-71229500D01*
X61934000Y-71229500D01*
X61744500Y-71040000D01*
X61233225Y-71040000D01*
X60954628Y-71155398D01*
X60741399Y-71368627D01*
X60626000Y-71647224D01*
X56925956Y-71647224D01*
X57117652Y-71185570D01*
X57118346Y-70389921D01*
X56814506Y-69654571D01*
X56252388Y-69091471D01*
X56156744Y-69051756D01*
X60888000Y-69051756D01*
X60888000Y-69124244D01*
X61028823Y-69832208D01*
X61429852Y-70432392D01*
X62030036Y-70833421D01*
X62738000Y-70974244D01*
X63445964Y-70833421D01*
X64046148Y-70432392D01*
X64156299Y-70267538D01*
X64155696Y-70958569D01*
X64421557Y-71602001D01*
X64913410Y-72094713D01*
X65556376Y-72361696D01*
X66252569Y-72362304D01*
X66896001Y-72096443D01*
X67388713Y-71604590D01*
X67655696Y-70961624D01*
X67655927Y-70696358D01*
X71615545Y-70696358D01*
X71719552Y-71219241D01*
X71975548Y-71335345D01*
X72698893Y-70612000D01*
X71975548Y-69888655D01*
X71719552Y-70004759D01*
X71615545Y-70696358D01*
X67655927Y-70696358D01*
X67656304Y-70265431D01*
X67390443Y-69621999D01*
X66898590Y-69129287D01*
X66255624Y-68862304D01*
X65559431Y-68861696D01*
X64915999Y-69127557D01*
X64505912Y-69536929D01*
X64588000Y-69124244D01*
X64588000Y-69051756D01*
X64447177Y-68343792D01*
X64046148Y-67743608D01*
X63445964Y-67342579D01*
X62738000Y-67201756D01*
X62030036Y-67342579D01*
X61429852Y-67743608D01*
X61028823Y-68343792D01*
X60888000Y-69051756D01*
X56156744Y-69051756D01*
X55517570Y-68786348D01*
X54721921Y-68785654D01*
X53986571Y-69089494D01*
X53423471Y-69651612D01*
X53118348Y-70386430D01*
X53117654Y-71182079D01*
X48764000Y-71182079D01*
X48764000Y-64536000D01*
X53103307Y-64536000D01*
X53103307Y-67036000D01*
X53155604Y-67313933D01*
X53319862Y-67569198D01*
X53570492Y-67740446D01*
X53868000Y-67800693D01*
X56368000Y-67800693D01*
X56645933Y-67748396D01*
X56901198Y-67584138D01*
X57072446Y-67333508D01*
X57132693Y-67036000D01*
X57132693Y-66162631D01*
X65631335Y-66162631D01*
X65928162Y-66606912D01*
X66425365Y-66956694D01*
X66656000Y-66848307D01*
X66656000Y-65932000D01*
X67456000Y-65932000D01*
X67456000Y-66848307D01*
X67686635Y-66956694D01*
X68183838Y-66606912D01*
X68480665Y-66162631D01*
X68459991Y-66121500D01*
X73118000Y-66121500D01*
X73118000Y-66482775D01*
X73233398Y-66761372D01*
X73446627Y-66974601D01*
X73725224Y-67090000D01*
X74086500Y-67090000D01*
X74276000Y-66900500D01*
X74276000Y-65932000D01*
X73307500Y-65932000D01*
X73118000Y-66121500D01*
X68459991Y-66121500D01*
X68364737Y-65932000D01*
X67456000Y-65932000D01*
X66656000Y-65932000D01*
X65747263Y-65932000D01*
X65631335Y-66162631D01*
X57132693Y-66162631D01*
X57132693Y-64536000D01*
X57080396Y-64258067D01*
X56916138Y-64002802D01*
X56665508Y-63831554D01*
X56368000Y-63771307D01*
X53868000Y-63771307D01*
X53590067Y-63823604D01*
X53334802Y-63987862D01*
X53163554Y-64238492D01*
X53103307Y-64536000D01*
X48764000Y-64536000D01*
X48764000Y-63242000D01*
X49022000Y-63242000D01*
X49119264Y-63222304D01*
X49201202Y-63166318D01*
X49254903Y-63082864D01*
X49271905Y-62985093D01*
X49245607Y-62880197D01*
X49018000Y-62424983D01*
X49018000Y-61052569D01*
X55907696Y-61052569D01*
X56173557Y-61696001D01*
X56665410Y-62188713D01*
X57308376Y-62455696D01*
X58004569Y-62456304D01*
X58648001Y-62190443D01*
X59140713Y-61698590D01*
X59407696Y-61055624D01*
X59408296Y-60368000D01*
X60873307Y-60368000D01*
X60873307Y-62568000D01*
X60925604Y-62845933D01*
X61089862Y-63101198D01*
X61340492Y-63272446D01*
X61638000Y-63332693D01*
X63838000Y-63332693D01*
X64115933Y-63280396D01*
X64371198Y-63116138D01*
X64542446Y-62865508D01*
X64602693Y-62568000D01*
X64602693Y-60368000D01*
X64550396Y-60090067D01*
X64386138Y-59834802D01*
X64135508Y-59663554D01*
X63838000Y-59603307D01*
X61638000Y-59603307D01*
X61360067Y-59655604D01*
X61104802Y-59819862D01*
X60933554Y-60070492D01*
X60873307Y-60368000D01*
X59408296Y-60368000D01*
X59408304Y-60359431D01*
X59142443Y-59715999D01*
X58650590Y-59223287D01*
X58007624Y-58956304D01*
X57311431Y-58955696D01*
X56667999Y-59221557D01*
X56175287Y-59713410D01*
X55908304Y-60356376D01*
X55907696Y-61052569D01*
X49018000Y-61052569D01*
X49018000Y-57621756D01*
X60888000Y-57621756D01*
X60888000Y-57694244D01*
X61028823Y-58402208D01*
X61429852Y-59002392D01*
X62030036Y-59403421D01*
X62738000Y-59544244D01*
X63445964Y-59403421D01*
X64046148Y-59002392D01*
X64447177Y-58402208D01*
X64544685Y-57912000D01*
X65475634Y-57912000D01*
X65593621Y-58505159D01*
X65929618Y-59008016D01*
X66190004Y-59182000D01*
X65929618Y-59355984D01*
X65593621Y-59858841D01*
X65475634Y-60452000D01*
X65593621Y-61045159D01*
X65929618Y-61548016D01*
X66190004Y-61722000D01*
X65929618Y-61895984D01*
X65593621Y-62398841D01*
X65475634Y-62992000D01*
X65593621Y-63585159D01*
X65853435Y-63974000D01*
X65805998Y-63974000D01*
X65805998Y-64639939D01*
X65631335Y-64901369D01*
X65747263Y-65132000D01*
X66656000Y-65132000D01*
X66656000Y-64732000D01*
X67456000Y-64732000D01*
X67456000Y-65132000D01*
X68364737Y-65132000D01*
X68480665Y-64901369D01*
X68306002Y-64639939D01*
X68306002Y-63974000D01*
X68258565Y-63974000D01*
X68518379Y-63585159D01*
X68636366Y-62992000D01*
X68518379Y-62398841D01*
X68182382Y-61895984D01*
X67921996Y-61722000D01*
X68182382Y-61548016D01*
X68518379Y-61045159D01*
X68636366Y-60452000D01*
X68518379Y-59858841D01*
X68182382Y-59355984D01*
X67921996Y-59182000D01*
X68182382Y-59008016D01*
X68518379Y-58505159D01*
X68636366Y-57912000D01*
X68518379Y-57318841D01*
X68182382Y-56815984D01*
X67679525Y-56479987D01*
X67086366Y-56362000D01*
X67025634Y-56362000D01*
X66432475Y-56479987D01*
X65929618Y-56815984D01*
X65593621Y-57318841D01*
X65475634Y-57912000D01*
X64544685Y-57912000D01*
X64588000Y-57694244D01*
X64588000Y-57621756D01*
X64447177Y-56913792D01*
X64046148Y-56313608D01*
X63445964Y-55912579D01*
X62738000Y-55771756D01*
X62030036Y-55912579D01*
X61429852Y-56313608D01*
X61028823Y-56913792D01*
X60888000Y-57621756D01*
X49018000Y-57621756D01*
X49018000Y-57507554D01*
X52972985Y-53552569D01*
X55907696Y-53552569D01*
X56173557Y-54196001D01*
X56665410Y-54688713D01*
X57308376Y-54955696D01*
X58004569Y-54956304D01*
X58648001Y-54690443D01*
X59140713Y-54198590D01*
X59158829Y-54154961D01*
X64235732Y-54154961D01*
X64471208Y-54724857D01*
X64906849Y-55161260D01*
X65476333Y-55397730D01*
X66092961Y-55398268D01*
X66662857Y-55162792D01*
X67099260Y-54727151D01*
X67335730Y-54157667D01*
X67336268Y-53541039D01*
X67100792Y-52971143D01*
X66665151Y-52534740D01*
X66095667Y-52298270D01*
X65479039Y-52297732D01*
X64909143Y-52533208D01*
X64472740Y-52968849D01*
X64236270Y-53538333D01*
X64235732Y-54154961D01*
X59158829Y-54154961D01*
X59407696Y-53555624D01*
X59408304Y-52859431D01*
X59142443Y-52215999D01*
X58650590Y-51723287D01*
X58007624Y-51456304D01*
X57311431Y-51455696D01*
X56667999Y-51721557D01*
X56175287Y-52213410D01*
X55908304Y-52856376D01*
X55907696Y-53552569D01*
X52972985Y-53552569D01*
X55748054Y-50777500D01*
X60880000Y-50777500D01*
X60880000Y-51288776D01*
X60995399Y-51567373D01*
X61208628Y-51780602D01*
X61487225Y-51896000D01*
X61998500Y-51896000D01*
X62188000Y-51706500D01*
X62188000Y-50588000D01*
X63288000Y-50588000D01*
X63288000Y-51706500D01*
X63477500Y-51896000D01*
X63988775Y-51896000D01*
X64267372Y-51780602D01*
X64480601Y-51567373D01*
X64596000Y-51288776D01*
X64596000Y-50777500D01*
X64406500Y-50588000D01*
X63288000Y-50588000D01*
X62188000Y-50588000D01*
X61069500Y-50588000D01*
X60880000Y-50777500D01*
X55748054Y-50777500D01*
X57738330Y-48787224D01*
X60880000Y-48787224D01*
X60880000Y-49298500D01*
X61069500Y-49488000D01*
X62188000Y-49488000D01*
X62188000Y-48369500D01*
X63288000Y-48369500D01*
X63288000Y-49488000D01*
X64406500Y-49488000D01*
X64596000Y-49298500D01*
X64596000Y-48787224D01*
X64506508Y-48571170D01*
X65112485Y-48571170D01*
X65219214Y-49107731D01*
X65471269Y-49208335D01*
X66165604Y-48514000D01*
X65471269Y-47819665D01*
X65219214Y-47920269D01*
X65112485Y-48571170D01*
X64506508Y-48571170D01*
X64480601Y-48508627D01*
X64267372Y-48295398D01*
X63988775Y-48180000D01*
X63477500Y-48180000D01*
X63288000Y-48369500D01*
X62188000Y-48369500D01*
X61998500Y-48180000D01*
X61487225Y-48180000D01*
X61208628Y-48295398D01*
X60995399Y-48508627D01*
X60880000Y-48787224D01*
X57738330Y-48787224D01*
X59538004Y-46987550D01*
X66146415Y-47086183D01*
X66146415Y-47086183D01*
G37*
X66146415Y-47086183D02*
X66107665Y-47183269D01*
X66802000Y-47877604D01*
X67120198Y-47559406D01*
X67677307Y-48116515D01*
X67677307Y-48275089D01*
X67438396Y-48514000D01*
X67677307Y-48752911D01*
X67677307Y-48911485D01*
X67120198Y-49468594D01*
X66802000Y-49150396D01*
X66107665Y-49844731D01*
X66208269Y-50096786D01*
X66697184Y-50176954D01*
X67110003Y-50589773D01*
X67838544Y-49861232D01*
X67893862Y-49947198D01*
X68144492Y-50118446D01*
X68342000Y-50158442D01*
X68342000Y-51308000D01*
X68418120Y-51690684D01*
X68634893Y-52015107D01*
X71174891Y-54555104D01*
X71174893Y-54555107D01*
X71499317Y-54771880D01*
X71882000Y-54848000D01*
X74755462Y-54848000D01*
X74819618Y-54944016D01*
X75322475Y-55280013D01*
X75915634Y-55398000D01*
X75976366Y-55398000D01*
X76113870Y-55370649D01*
X76093642Y-57251887D01*
X75802382Y-56815984D01*
X75299525Y-56479987D01*
X74706366Y-56362000D01*
X74645634Y-56362000D01*
X74052475Y-56479987D01*
X73549618Y-56815984D01*
X73213621Y-57318841D01*
X73095634Y-57912000D01*
X73213621Y-58505159D01*
X73549618Y-59008016D01*
X73810004Y-59182000D01*
X73549618Y-59355984D01*
X73213621Y-59858841D01*
X73095634Y-60452000D01*
X73213621Y-61045159D01*
X73549618Y-61548016D01*
X73810004Y-61722000D01*
X73549618Y-61895984D01*
X73356594Y-62184866D01*
X73206893Y-62284893D01*
X72990120Y-62609317D01*
X72914000Y-62992000D01*
X72990120Y-63374683D01*
X73206893Y-63699107D01*
X73356594Y-63799134D01*
X73473435Y-63974000D01*
X73425998Y-63974000D01*
X73425998Y-64110028D01*
X73233398Y-64302628D01*
X73118000Y-64581225D01*
X73118000Y-64942500D01*
X73307500Y-65132000D01*
X74276000Y-65132000D01*
X74276000Y-64732000D01*
X75076000Y-64732000D01*
X75076000Y-65132000D01*
X75454000Y-65132000D01*
X75454000Y-65932000D01*
X75076000Y-65932000D01*
X75076000Y-66900500D01*
X75262643Y-67087143D01*
X74476893Y-67872893D01*
X74260120Y-68197316D01*
X74237706Y-68310000D01*
X74184000Y-68580000D01*
X74184000Y-68862032D01*
X73786099Y-68464131D01*
X73414692Y-68835538D01*
X73321642Y-68821545D01*
X72798759Y-68925552D01*
X72682655Y-69181548D01*
X73406000Y-69904893D01*
X73759554Y-69551340D01*
X74184000Y-69975786D01*
X74184000Y-70541107D01*
X74113107Y-70612000D01*
X74184000Y-70682893D01*
X74184000Y-71213786D01*
X73968893Y-71428893D01*
X73899567Y-71532647D01*
X73759554Y-71672661D01*
X73406000Y-71319107D01*
X72682655Y-72042452D01*
X72798759Y-72298448D01*
X73417769Y-72391539D01*
X73676000Y-72649770D01*
X73676000Y-74930000D01*
X73752120Y-75312684D01*
X73968893Y-75637107D01*
X75454000Y-77122214D01*
X75454000Y-79660870D01*
X75294382Y-79421984D01*
X74791525Y-79085987D01*
X74198366Y-78968000D01*
X74137634Y-78968000D01*
X73544475Y-79085987D01*
X73041618Y-79421984D01*
X72705621Y-79924841D01*
X72587634Y-80518000D01*
X72705621Y-81111159D01*
X73041618Y-81614016D01*
X73302004Y-81788000D01*
X73041618Y-81961984D01*
X72705621Y-82464841D01*
X72587634Y-83058000D01*
X72705621Y-83651159D01*
X73041618Y-84154016D01*
X73302004Y-84328000D01*
X73041618Y-84501984D01*
X72705621Y-85004841D01*
X72587634Y-85598000D01*
X72705621Y-86191159D01*
X72965435Y-86580000D01*
X72917998Y-86580000D01*
X72917998Y-86716028D01*
X72725398Y-86908628D01*
X72610000Y-87187225D01*
X72610000Y-87548500D01*
X72799500Y-87738000D01*
X73768000Y-87738000D01*
X73768000Y-87338000D01*
X74568000Y-87338000D01*
X74568000Y-87738000D01*
X75536500Y-87738000D01*
X75726000Y-87548500D01*
X75726000Y-87187225D01*
X75610602Y-86908628D01*
X75418002Y-86716028D01*
X75418002Y-86580000D01*
X75370565Y-86580000D01*
X75630379Y-86191159D01*
X75748366Y-85598000D01*
X75630379Y-85004841D01*
X75294382Y-84501984D01*
X75033996Y-84328000D01*
X75294382Y-84154016D01*
X75630379Y-83651159D01*
X75748366Y-83058000D01*
X75630379Y-82464841D01*
X75294382Y-81961984D01*
X75033996Y-81788000D01*
X75294382Y-81614016D01*
X75468582Y-81353307D01*
X75530120Y-81662684D01*
X75746893Y-81987107D01*
X81254703Y-87494917D01*
X81236740Y-87512849D01*
X81000270Y-88082333D01*
X80999732Y-88698961D01*
X81235208Y-89268857D01*
X81670849Y-89705260D01*
X82240333Y-89941730D01*
X82856961Y-89942268D01*
X83426857Y-89706792D01*
X83863260Y-89271151D01*
X84099730Y-88701667D01*
X84100268Y-88085039D01*
X83864792Y-87515143D01*
X83506230Y-87155954D01*
X83473880Y-86993317D01*
X83473880Y-86993316D01*
X83257107Y-86668893D01*
X77454000Y-80865786D01*
X77454000Y-79401156D01*
X77892841Y-79694379D01*
X78486000Y-79812366D01*
X79079159Y-79694379D01*
X79582016Y-79358382D01*
X79918013Y-78855525D01*
X80036000Y-78262366D01*
X80036000Y-78201634D01*
X80018510Y-78113704D01*
X80678214Y-77454000D01*
X81221203Y-77454000D01*
X81117987Y-77608475D01*
X81000000Y-78201634D01*
X81000000Y-78262366D01*
X81117987Y-78855525D01*
X81453984Y-79358382D01*
X81956841Y-79694379D01*
X82550000Y-79812366D01*
X82688586Y-79784800D01*
X90224893Y-87321107D01*
X90549316Y-87537880D01*
X90730709Y-87573961D01*
X90821618Y-87710016D01*
X91082004Y-87884000D01*
X90821618Y-88057984D01*
X90485621Y-88560841D01*
X90367634Y-89154000D01*
X90485621Y-89747159D01*
X90821618Y-90250016D01*
X91324475Y-90586013D01*
X91917634Y-90704000D01*
X91978366Y-90704000D01*
X92571525Y-90586013D01*
X93074382Y-90250016D01*
X93410379Y-89747159D01*
X93528366Y-89154000D01*
X93410379Y-88560841D01*
X93074382Y-88057984D01*
X92813996Y-87884000D01*
X93074382Y-87710016D01*
X93410379Y-87207159D01*
X93528366Y-86614000D01*
X93410379Y-86020841D01*
X93074382Y-85517984D01*
X92813996Y-85344000D01*
X93074382Y-85170016D01*
X93410379Y-84667159D01*
X93528366Y-84074000D01*
X93410379Y-83480841D01*
X93074382Y-82977984D01*
X92948000Y-82893539D01*
X92948000Y-82714461D01*
X93074382Y-82630016D01*
X93410379Y-82127159D01*
X93528366Y-81534000D01*
X93410379Y-80940841D01*
X93074382Y-80437984D01*
X92813996Y-80264000D01*
X93074382Y-80090016D01*
X93138538Y-79994000D01*
X95012000Y-79994000D01*
X95012000Y-89501786D01*
X91838908Y-92674878D01*
X91589707Y-92724447D01*
X91162509Y-93009891D01*
X91060138Y-92850802D01*
X90809508Y-92679554D01*
X90512000Y-92619307D01*
X88812000Y-92619307D01*
X88534067Y-92671604D01*
X88278802Y-92835862D01*
X88107554Y-93086492D01*
X88047307Y-93384000D01*
X88047307Y-95084000D01*
X88099604Y-95361933D01*
X88263862Y-95617198D01*
X88514492Y-95788446D01*
X88812000Y-95848693D01*
X88882453Y-95848693D01*
X88954893Y-95957107D01*
X89716893Y-96719107D01*
X90041316Y-96935880D01*
X90424000Y-97012000D01*
X93168973Y-97012000D01*
X93131307Y-97198000D01*
X93131307Y-99398000D01*
X93183604Y-99675933D01*
X93347862Y-99931198D01*
X93598492Y-100102446D01*
X93896000Y-100162693D01*
X96096000Y-100162693D01*
X96373933Y-100110396D01*
X96629198Y-99946138D01*
X96800446Y-99695508D01*
X96818329Y-99607195D01*
X116682881Y-99607195D01*
X117348000Y-100272315D01*
X118013119Y-99607195D01*
X117928017Y-99359154D01*
X117317936Y-99249761D01*
X116767983Y-99359154D01*
X116682881Y-99607195D01*
X96818329Y-99607195D01*
X96860693Y-99398000D01*
X96860693Y-97198000D01*
X96825694Y-97012000D01*
X98044000Y-97012000D01*
X98426684Y-96935880D01*
X98751107Y-96719107D01*
X98966214Y-96504000D01*
X100663462Y-96504000D01*
X100727618Y-96600016D01*
X101230475Y-96936013D01*
X101823634Y-97054000D01*
X101884366Y-97054000D01*
X102477525Y-96936013D01*
X102980382Y-96600016D01*
X103316379Y-96097159D01*
X103434366Y-95504000D01*
X103316379Y-94910841D01*
X102980382Y-94407984D01*
X102477525Y-94071987D01*
X101884366Y-93954000D01*
X101823634Y-93954000D01*
X101230475Y-94071987D01*
X100727618Y-94407984D01*
X100663462Y-94504000D01*
X98552000Y-94504000D01*
X98169317Y-94580120D01*
X97844893Y-94796893D01*
X97844891Y-94796896D01*
X97629787Y-95012000D01*
X96130430Y-95012000D01*
X96220207Y-94877639D01*
X96342000Y-94265346D01*
X96342000Y-94202654D01*
X96220207Y-93590361D01*
X95873371Y-93071283D01*
X95826350Y-93039864D01*
X97202792Y-91663421D01*
X97002270Y-92146333D01*
X97001732Y-92762961D01*
X97237208Y-93332857D01*
X97672849Y-93769260D01*
X98242333Y-94005730D01*
X98858961Y-94006268D01*
X99428857Y-93770792D01*
X99865260Y-93335151D01*
X100101730Y-92765667D01*
X100102268Y-92149039D01*
X99866792Y-91579143D01*
X99431151Y-91142740D01*
X99079864Y-90996873D01*
X99259107Y-90877107D01*
X99449704Y-90686510D01*
X99537634Y-90704000D01*
X99598366Y-90704000D01*
X100191525Y-90586013D01*
X100694382Y-90250016D01*
X100758538Y-90154000D01*
X101092000Y-90154000D01*
X101474684Y-90077880D01*
X101799107Y-89861107D01*
X101832214Y-89828000D01*
X102525307Y-89828000D01*
X102525307Y-91528000D01*
X102577604Y-91805933D01*
X102741862Y-92061198D01*
X102992492Y-92232446D01*
X103140000Y-92262317D01*
X103140000Y-92710000D01*
X103216120Y-93092684D01*
X103432893Y-93417107D01*
X105718893Y-95703107D01*
X106043317Y-95919880D01*
X106426000Y-95996000D01*
X110540188Y-95996000D01*
X110699208Y-96380857D01*
X111134849Y-96817260D01*
X111704333Y-97053730D01*
X112320961Y-97054268D01*
X112890857Y-96818792D01*
X113327260Y-96383151D01*
X113563730Y-95813667D01*
X113564268Y-95197039D01*
X113328792Y-94627143D01*
X112893151Y-94190740D01*
X112323667Y-93954270D01*
X111707039Y-93953732D01*
X111572655Y-94009258D01*
X111506000Y-93996000D01*
X106840214Y-93996000D01*
X105140000Y-92295786D01*
X105140000Y-92264468D01*
X105267933Y-92240396D01*
X105523198Y-92076138D01*
X105641606Y-91902842D01*
X106067707Y-92187553D01*
X106680000Y-92309346D01*
X107292293Y-92187553D01*
X107811371Y-91840717D01*
X108158207Y-91321639D01*
X108280000Y-90709346D01*
X108280000Y-90646654D01*
X108158207Y-90034361D01*
X107811371Y-89515283D01*
X107292293Y-89168447D01*
X106680000Y-89046654D01*
X106067707Y-89168447D01*
X105640509Y-89453891D01*
X105538138Y-89294802D01*
X105287508Y-89123554D01*
X104990000Y-89063307D01*
X103290000Y-89063307D01*
X103012067Y-89115604D01*
X102756802Y-89279862D01*
X102585554Y-89530492D01*
X102525307Y-89828000D01*
X101832214Y-89828000D01*
X103370028Y-88290186D01*
X103514849Y-88435260D01*
X104084333Y-88671730D01*
X104700961Y-88672268D01*
X105270857Y-88436792D01*
X105707260Y-88001151D01*
X105943730Y-87431667D01*
X105944268Y-86815039D01*
X105708792Y-86245143D01*
X105273151Y-85808740D01*
X104703667Y-85572270D01*
X104087039Y-85571732D01*
X103517143Y-85807208D01*
X103201800Y-86122000D01*
X103124000Y-86122000D01*
X102741316Y-86198120D01*
X102416893Y-86414893D01*
X100726193Y-88105593D01*
X100694382Y-88057984D01*
X100433996Y-87884000D01*
X100694382Y-87710016D01*
X101030379Y-87207159D01*
X101148366Y-86614000D01*
X101030379Y-86020841D01*
X100694382Y-85517984D01*
X100433996Y-85344000D01*
X100694382Y-85170016D01*
X101030379Y-84667159D01*
X101148366Y-84074000D01*
X101030379Y-83480841D01*
X100694382Y-82977984D01*
X100433996Y-82804000D01*
X100694382Y-82630016D01*
X100828722Y-82428961D01*
X102843732Y-82428961D01*
X103079208Y-82998857D01*
X103514849Y-83435260D01*
X104084333Y-83671730D01*
X104700961Y-83672268D01*
X105270857Y-83436792D01*
X105707260Y-83001151D01*
X105943730Y-82431667D01*
X105944268Y-81815039D01*
X105708792Y-81245143D01*
X105273151Y-80808740D01*
X104703667Y-80572270D01*
X104087039Y-80571732D01*
X103517143Y-80807208D01*
X103080740Y-81242849D01*
X102844270Y-81812333D01*
X102843732Y-82428961D01*
X100828722Y-82428961D01*
X101030379Y-82127159D01*
X101148366Y-81534000D01*
X101030379Y-80940841D01*
X100694382Y-80437984D01*
X100433996Y-80264000D01*
X100694382Y-80090016D01*
X101030379Y-79587159D01*
X101103220Y-79220961D01*
X102843732Y-79220961D01*
X103079208Y-79790857D01*
X103514849Y-80227260D01*
X104084333Y-80463730D01*
X104700961Y-80464268D01*
X105270857Y-80228792D01*
X105707260Y-79793151D01*
X105943730Y-79223667D01*
X105944268Y-78607039D01*
X105708792Y-78037143D01*
X105273151Y-77600740D01*
X104703667Y-77364270D01*
X104087039Y-77363732D01*
X103517143Y-77599208D01*
X103080740Y-78034849D01*
X102844270Y-78604333D01*
X102843732Y-79220961D01*
X101103220Y-79220961D01*
X101148366Y-78994000D01*
X101030379Y-78400841D01*
X100694382Y-77897984D01*
X100433996Y-77724000D01*
X100694382Y-77550016D01*
X101030379Y-77047159D01*
X101148366Y-76454000D01*
X101030379Y-75860841D01*
X100770565Y-75472000D01*
X100818002Y-75472000D01*
X100818002Y-74806061D01*
X100992665Y-74544631D01*
X100876737Y-74314000D01*
X99968000Y-74314000D01*
X99968000Y-74714000D01*
X99168000Y-74714000D01*
X99168000Y-74314000D01*
X98259263Y-74314000D01*
X98143335Y-74544631D01*
X98317998Y-74806061D01*
X98317998Y-75472000D01*
X98365435Y-75472000D01*
X98105621Y-75860841D01*
X97987634Y-76454000D01*
X98105621Y-77047159D01*
X98441618Y-77550016D01*
X98702004Y-77724000D01*
X98441618Y-77897984D01*
X98105621Y-78400841D01*
X97987634Y-78994000D01*
X98105621Y-79587159D01*
X98441618Y-80090016D01*
X98702004Y-80264000D01*
X98441618Y-80437984D01*
X98105621Y-80940841D01*
X97987634Y-81534000D01*
X98105621Y-82127159D01*
X98441618Y-82630016D01*
X98702004Y-82804000D01*
X98441618Y-82977984D01*
X98105621Y-83480841D01*
X97987634Y-84074000D01*
X98105621Y-84667159D01*
X98441618Y-85170016D01*
X98702004Y-85344000D01*
X98441618Y-85517984D01*
X98105621Y-86020841D01*
X97987634Y-86614000D01*
X98105621Y-87207159D01*
X98441618Y-87710016D01*
X98702004Y-87884000D01*
X98441618Y-88057984D01*
X98105621Y-88560841D01*
X97987634Y-89154000D01*
X97990817Y-89170000D01*
X97282000Y-89170000D01*
X97012000Y-89223706D01*
X97012000Y-79248000D01*
X96935880Y-78865317D01*
X96719107Y-78540893D01*
X96465107Y-78286893D01*
X96140684Y-78070120D01*
X95758000Y-77994000D01*
X93138538Y-77994000D01*
X93074382Y-77897984D01*
X92813996Y-77724000D01*
X93074382Y-77550016D01*
X93410379Y-77047159D01*
X93528366Y-76454000D01*
X93410379Y-75860841D01*
X93091781Y-75384024D01*
X93281198Y-75262138D01*
X93452446Y-75011508D01*
X93512693Y-74714000D01*
X93512693Y-73763521D01*
X94648214Y-72628000D01*
X98317998Y-72628000D01*
X98317998Y-73021939D01*
X98143335Y-73283369D01*
X98259263Y-73514000D01*
X99168000Y-73514000D01*
X99168000Y-73114000D01*
X99968000Y-73114000D01*
X99968000Y-73514000D01*
X100876737Y-73514000D01*
X100992665Y-73283369D01*
X100818002Y-73021939D01*
X100818002Y-72628000D01*
X103488301Y-72628000D01*
X103080740Y-73034849D01*
X102844270Y-73604333D01*
X102843732Y-74220961D01*
X103079208Y-74790857D01*
X103514849Y-75227260D01*
X104084333Y-75463730D01*
X104700961Y-75464268D01*
X105270857Y-75228792D01*
X105586200Y-74914000D01*
X110744000Y-74914000D01*
X111126684Y-74837880D01*
X111451107Y-74621107D01*
X112213107Y-73859107D01*
X112429880Y-73534684D01*
X112506000Y-73152000D01*
X112506000Y-71628000D01*
X114497634Y-71628000D01*
X114615621Y-72221159D01*
X114951618Y-72724016D01*
X115212004Y-72898000D01*
X114951618Y-73071984D01*
X114615621Y-73574841D01*
X114497634Y-74168000D01*
X114615621Y-74761159D01*
X114951618Y-75264016D01*
X115212004Y-75438000D01*
X114951618Y-75611984D01*
X114615621Y-76114841D01*
X114497634Y-76708000D01*
X114615621Y-77301159D01*
X114875435Y-77690000D01*
X114827998Y-77690000D01*
X114827998Y-78355939D01*
X114653335Y-78617369D01*
X114769263Y-78848000D01*
X115678000Y-78848000D01*
X115678000Y-78448000D01*
X116478000Y-78448000D01*
X116478000Y-78848000D01*
X116878000Y-78848000D01*
X116878000Y-79648000D01*
X116478000Y-79648000D01*
X116478000Y-80048000D01*
X115678000Y-80048000D01*
X115678000Y-79648000D01*
X114769263Y-79648000D01*
X114653335Y-79878631D01*
X114827998Y-80140061D01*
X114827998Y-80806000D01*
X114875435Y-80806000D01*
X114615621Y-81194841D01*
X114497634Y-81788000D01*
X114615621Y-82381159D01*
X114951618Y-82884016D01*
X115212004Y-83058000D01*
X114951618Y-83231984D01*
X114615621Y-83734841D01*
X114497634Y-84328000D01*
X114615621Y-84921159D01*
X114951618Y-85424016D01*
X115212004Y-85598000D01*
X114951618Y-85771984D01*
X114615621Y-86274841D01*
X114497634Y-86868000D01*
X114615621Y-87461159D01*
X114951618Y-87964016D01*
X115454475Y-88300013D01*
X116047634Y-88418000D01*
X116108366Y-88418000D01*
X116701525Y-88300013D01*
X117204382Y-87964016D01*
X117540379Y-87461159D01*
X117618000Y-87070933D01*
X117618000Y-95836136D01*
X117304740Y-96148849D01*
X117068270Y-96718333D01*
X117067732Y-97334961D01*
X117303208Y-97904857D01*
X117738849Y-98341260D01*
X118308333Y-98577730D01*
X118924961Y-98578268D01*
X119494857Y-98342792D01*
X119810200Y-98028000D01*
X122775786Y-98028000D01*
X126012516Y-101264730D01*
X126045621Y-101431159D01*
X126381618Y-101934016D01*
X126884475Y-102270013D01*
X127477634Y-102388000D01*
X127538366Y-102388000D01*
X128131525Y-102270013D01*
X128634382Y-101934016D01*
X128970379Y-101431159D01*
X129027307Y-101144961D01*
X131037732Y-101144961D01*
X131273208Y-101714857D01*
X131708849Y-102151260D01*
X132278333Y-102387730D01*
X132894961Y-102388268D01*
X133464857Y-102152792D01*
X133901260Y-101717151D01*
X134137730Y-101147667D01*
X134138268Y-100531039D01*
X133902792Y-99961143D01*
X133467151Y-99524740D01*
X132897667Y-99288270D01*
X132281039Y-99287732D01*
X131711143Y-99523208D01*
X131274740Y-99958849D01*
X131038270Y-100528333D01*
X131037732Y-101144961D01*
X129027307Y-101144961D01*
X129088366Y-100838000D01*
X128970379Y-100244841D01*
X128634382Y-99741984D01*
X128131525Y-99405987D01*
X127538366Y-99288000D01*
X127477634Y-99288000D01*
X126965987Y-99389773D01*
X123897107Y-96320893D01*
X123572684Y-96104120D01*
X123190000Y-96028000D01*
X119809864Y-96028000D01*
X119618000Y-95835800D01*
X119618000Y-93472000D01*
X123895634Y-93472000D01*
X123982341Y-93907903D01*
X123968000Y-93980000D01*
X124044120Y-94362684D01*
X124260893Y-94687107D01*
X124585316Y-94903880D01*
X124968000Y-94980000D01*
X125101244Y-94953496D01*
X125445634Y-95022000D01*
X125506366Y-95022000D01*
X126099525Y-94904013D01*
X126602382Y-94568016D01*
X126938379Y-94065159D01*
X127056366Y-93472000D01*
X126938379Y-92878841D01*
X126602382Y-92375984D01*
X126099525Y-92039987D01*
X125506366Y-91922000D01*
X125445634Y-91922000D01*
X124852475Y-92039987D01*
X124349618Y-92375984D01*
X124013621Y-92878841D01*
X123895634Y-93472000D01*
X119618000Y-93472000D01*
X119618000Y-84328000D01*
X122117634Y-84328000D01*
X122235621Y-84921159D01*
X122554219Y-85397976D01*
X122364802Y-85519862D01*
X122193554Y-85770492D01*
X122133307Y-86068000D01*
X122133307Y-87668000D01*
X122185604Y-87945933D01*
X122349862Y-88201198D01*
X122600492Y-88372446D01*
X122698000Y-88392192D01*
X122698000Y-89154000D01*
X122774120Y-89536684D01*
X122990893Y-89861107D01*
X124514891Y-91385104D01*
X124514893Y-91385107D01*
X124839317Y-91601880D01*
X125222000Y-91678000D01*
X126839786Y-91678000D01*
X127778000Y-92616213D01*
X127778000Y-95847539D01*
X127651618Y-95931984D01*
X127315621Y-96434841D01*
X127197634Y-97028000D01*
X127315621Y-97621159D01*
X127651618Y-98124016D01*
X128154475Y-98460013D01*
X128747634Y-98578000D01*
X128808366Y-98578000D01*
X129401525Y-98460013D01*
X129904382Y-98124016D01*
X130240379Y-97621159D01*
X130358366Y-97028000D01*
X130240379Y-96434841D01*
X129904382Y-95931984D01*
X129778000Y-95847539D01*
X129778000Y-92202000D01*
X129701880Y-91819317D01*
X129485107Y-91494893D01*
X129485104Y-91494891D01*
X128280982Y-90290768D01*
X128464857Y-90214792D01*
X128548990Y-90130805D01*
X131922881Y-90130805D01*
X132007983Y-90378846D01*
X132618064Y-90488239D01*
X133168017Y-90378846D01*
X133253119Y-90130805D01*
X132588000Y-89465685D01*
X131922881Y-90130805D01*
X128548990Y-90130805D01*
X128901260Y-89779151D01*
X129137730Y-89209667D01*
X129137973Y-88930064D01*
X130999761Y-88930064D01*
X131109154Y-89480017D01*
X131357195Y-89565119D01*
X132022315Y-88900000D01*
X133153685Y-88900000D01*
X133818805Y-89565119D01*
X134066846Y-89480017D01*
X134176239Y-88869936D01*
X134066846Y-88319983D01*
X133818805Y-88234881D01*
X133153685Y-88900000D01*
X132022315Y-88900000D01*
X131357195Y-88234881D01*
X131109154Y-88319983D01*
X130999761Y-88930064D01*
X129137973Y-88930064D01*
X129138268Y-88593039D01*
X128902792Y-88023143D01*
X128549463Y-87669195D01*
X131922881Y-87669195D01*
X132588000Y-88334315D01*
X133253119Y-87669195D01*
X133168017Y-87421154D01*
X132557936Y-87311761D01*
X132007983Y-87421154D01*
X131922881Y-87669195D01*
X128549463Y-87669195D01*
X128467151Y-87586740D01*
X127897667Y-87350270D01*
X127281039Y-87349732D01*
X126711143Y-87585208D01*
X126274740Y-88020849D01*
X126038270Y-88590333D01*
X126037732Y-89206961D01*
X126232361Y-89678000D01*
X125636213Y-89678000D01*
X124698000Y-88739786D01*
X124698000Y-88395060D01*
X124775933Y-88380396D01*
X125031198Y-88216138D01*
X125202446Y-87965508D01*
X125262693Y-87668000D01*
X125262693Y-86068000D01*
X125210396Y-85790067D01*
X125046138Y-85534802D01*
X124843068Y-85396050D01*
X125160379Y-84921159D01*
X125278366Y-84328000D01*
X125172843Y-83797500D01*
X126920000Y-83797500D01*
X126920000Y-84308775D01*
X127035398Y-84587372D01*
X127248627Y-84800601D01*
X127527224Y-84916000D01*
X128038500Y-84916000D01*
X128228000Y-84726500D01*
X128228000Y-83608000D01*
X129328000Y-83608000D01*
X129328000Y-84726500D01*
X129517500Y-84916000D01*
X130028776Y-84916000D01*
X130307373Y-84800601D01*
X130520602Y-84587372D01*
X130636000Y-84308775D01*
X130636000Y-83797500D01*
X130446500Y-83608000D01*
X129328000Y-83608000D01*
X128228000Y-83608000D01*
X127109500Y-83608000D01*
X126920000Y-83797500D01*
X125172843Y-83797500D01*
X125160379Y-83734841D01*
X124900565Y-83346000D01*
X124948002Y-83346000D01*
X124948002Y-82680061D01*
X125122665Y-82418631D01*
X125006737Y-82188000D01*
X124098000Y-82188000D01*
X124098000Y-82588000D01*
X123298000Y-82588000D01*
X123298000Y-82188000D01*
X122389263Y-82188000D01*
X122273335Y-82418631D01*
X122447998Y-82680061D01*
X122447998Y-83346000D01*
X122495435Y-83346000D01*
X122235621Y-83734841D01*
X122117634Y-84328000D01*
X119618000Y-84328000D01*
X119618000Y-81807225D01*
X126920000Y-81807225D01*
X126920000Y-82318500D01*
X127109500Y-82508000D01*
X128228000Y-82508000D01*
X128228000Y-81389500D01*
X129328000Y-81389500D01*
X129328000Y-82508000D01*
X130446500Y-82508000D01*
X130636000Y-82318500D01*
X130636000Y-81807225D01*
X130520602Y-81528628D01*
X130307373Y-81315399D01*
X130028776Y-81200000D01*
X129517500Y-81200000D01*
X129328000Y-81389500D01*
X128228000Y-81389500D01*
X128038500Y-81200000D01*
X127527224Y-81200000D01*
X127248627Y-81315399D01*
X127035398Y-81528628D01*
X126920000Y-81807225D01*
X119618000Y-81807225D01*
X119618000Y-77708000D01*
X122507462Y-77708000D01*
X122571618Y-77804016D01*
X122832004Y-77978000D01*
X122571618Y-78151984D01*
X122235621Y-78654841D01*
X122117634Y-79248000D01*
X122235621Y-79841159D01*
X122495435Y-80230000D01*
X122447998Y-80230000D01*
X122447998Y-80895939D01*
X122273335Y-81157369D01*
X122389263Y-81388000D01*
X123298000Y-81388000D01*
X123298000Y-80988000D01*
X124098000Y-80988000D01*
X124098000Y-81388000D01*
X125006737Y-81388000D01*
X125122665Y-81157369D01*
X124948002Y-80895939D01*
X124948002Y-80230000D01*
X124900565Y-80230000D01*
X125160379Y-79841159D01*
X125278366Y-79248000D01*
X125160379Y-78654841D01*
X124824382Y-78151984D01*
X124563996Y-77978000D01*
X124824382Y-77804016D01*
X125160379Y-77301159D01*
X125278366Y-76708000D01*
X125160379Y-76114841D01*
X124986706Y-75854920D01*
X126977095Y-77845309D01*
X126973554Y-77850492D01*
X126913307Y-78148000D01*
X126913307Y-80348000D01*
X126965604Y-80625933D01*
X127129862Y-80881198D01*
X127380492Y-81052446D01*
X127678000Y-81112693D01*
X129878000Y-81112693D01*
X130155933Y-81060396D01*
X130411198Y-80896138D01*
X130582446Y-80645508D01*
X130642693Y-80348000D01*
X130642693Y-78148000D01*
X130590396Y-77870067D01*
X130476753Y-77693461D01*
X131732214Y-76438000D01*
X132271532Y-76438000D01*
X132295604Y-76565933D01*
X132459862Y-76821198D01*
X132710492Y-76992446D01*
X132858000Y-77022317D01*
X132858000Y-82409100D01*
X132680120Y-82675316D01*
X132604000Y-83058000D01*
X132680120Y-83440684D01*
X132896893Y-83765107D01*
X133221316Y-83981880D01*
X133604000Y-84058000D01*
X134847711Y-84058000D01*
X135053608Y-84366148D01*
X135398000Y-84596263D01*
X135398000Y-88485786D01*
X134928893Y-88954893D01*
X134712120Y-89279316D01*
X134711450Y-89282683D01*
X134636000Y-89662000D01*
X134636000Y-92280136D01*
X134322740Y-92592849D01*
X134086270Y-93162333D01*
X134085732Y-93778961D01*
X134321208Y-94348857D01*
X134756849Y-94785260D01*
X135326333Y-95021730D01*
X135942961Y-95022268D01*
X136512857Y-94786792D01*
X136949260Y-94351151D01*
X137185730Y-93781667D01*
X137186268Y-93165039D01*
X136950792Y-92595143D01*
X136636000Y-92279800D01*
X136636000Y-90076214D01*
X137105107Y-89607107D01*
X137321880Y-89282684D01*
X137398000Y-88900000D01*
X137398000Y-84596263D01*
X137742392Y-84366148D01*
X138143421Y-83765964D01*
X138284244Y-83058000D01*
X138143421Y-82350036D01*
X137742392Y-81749852D01*
X137142208Y-81348823D01*
X136434244Y-81208000D01*
X136361756Y-81208000D01*
X135653792Y-81348823D01*
X135053608Y-81749852D01*
X134858000Y-82042601D01*
X134858000Y-80263399D01*
X135053608Y-80556148D01*
X135653792Y-80957177D01*
X136361756Y-81098000D01*
X136434244Y-81098000D01*
X137142208Y-80957177D01*
X137742392Y-80556148D01*
X138143421Y-79955964D01*
X138284244Y-79248000D01*
X138143421Y-78540036D01*
X137742392Y-77939852D01*
X137142208Y-77538823D01*
X136434244Y-77398000D01*
X136361756Y-77398000D01*
X135653792Y-77538823D01*
X135053608Y-77939852D01*
X134858000Y-78232601D01*
X134858000Y-77024468D01*
X134985933Y-77000396D01*
X135241198Y-76836138D01*
X135412446Y-76585508D01*
X135472693Y-76288000D01*
X135472693Y-74588000D01*
X135420396Y-74310067D01*
X135256138Y-74054802D01*
X135082842Y-73936394D01*
X135108496Y-73898000D01*
X137414000Y-73898000D01*
X137796684Y-73821880D01*
X138121107Y-73605107D01*
X139276807Y-72449407D01*
X139493580Y-72124984D01*
X139569701Y-71742300D01*
X139569700Y-71742295D01*
X139569700Y-68095464D01*
X139882960Y-67782751D01*
X140119430Y-67213267D01*
X140119968Y-66596639D01*
X139884492Y-66026743D01*
X139448851Y-65590340D01*
X138879367Y-65353870D01*
X138262739Y-65353332D01*
X137692843Y-65588808D01*
X137256440Y-66024449D01*
X137019970Y-66593933D01*
X137019432Y-67210561D01*
X137254908Y-67780457D01*
X137569700Y-68095800D01*
X137569700Y-71328086D01*
X136999786Y-71898000D01*
X135108496Y-71898000D01*
X135020717Y-71766629D01*
X134813244Y-71628000D01*
X135020717Y-71489371D01*
X135367553Y-70970293D01*
X135489346Y-70358000D01*
X135367553Y-69745707D01*
X135020717Y-69226629D01*
X134501639Y-68879793D01*
X133889346Y-68758000D01*
X133826654Y-68758000D01*
X133214361Y-68879793D01*
X132695283Y-69226629D01*
X132348447Y-69745707D01*
X132226654Y-70358000D01*
X132348447Y-70970293D01*
X132695283Y-71489371D01*
X132902756Y-71628000D01*
X132695283Y-71766629D01*
X132348447Y-72285707D01*
X132226654Y-72898000D01*
X132348447Y-73510293D01*
X132633891Y-73937491D01*
X132474802Y-74039862D01*
X132303554Y-74290492D01*
X132273683Y-74438000D01*
X131318005Y-74438000D01*
X131318000Y-74437999D01*
X130935316Y-74514120D01*
X130610893Y-74730893D01*
X130262656Y-75079130D01*
X130210013Y-74814475D01*
X129874016Y-74311618D01*
X129371159Y-73975621D01*
X128778000Y-73857634D01*
X128184841Y-73975621D01*
X127681984Y-74311618D01*
X127345987Y-74814475D01*
X127251202Y-75290988D01*
X125421107Y-73460893D01*
X125096684Y-73244120D01*
X124915291Y-73208039D01*
X124824382Y-73071984D01*
X124563996Y-72898000D01*
X124824382Y-72724016D01*
X125160379Y-72221159D01*
X125221020Y-71916297D01*
X125347334Y-72222000D01*
X125642446Y-72517628D01*
X126028226Y-72677818D01*
X126445942Y-72678182D01*
X126832000Y-72518666D01*
X127127628Y-72223554D01*
X127287818Y-71837774D01*
X127288182Y-71420058D01*
X127238000Y-71298608D01*
X127238000Y-67818000D01*
X127161880Y-67435317D01*
X126945107Y-67110893D01*
X126620683Y-66894120D01*
X126238000Y-66818000D01*
X119888005Y-66818000D01*
X119888000Y-66817999D01*
X119505316Y-66894120D01*
X119180893Y-67110893D01*
X116196296Y-70095490D01*
X116108366Y-70078000D01*
X116047634Y-70078000D01*
X115454475Y-70195987D01*
X114951618Y-70531984D01*
X114615621Y-71034841D01*
X114497634Y-71628000D01*
X112506000Y-71628000D01*
X112506000Y-69664873D01*
X112690841Y-69788379D01*
X113284000Y-69906366D01*
X113877159Y-69788379D01*
X114380016Y-69452382D01*
X114716013Y-68949525D01*
X114834000Y-68356366D01*
X114834000Y-68295634D01*
X114716013Y-67702475D01*
X114380016Y-67199618D01*
X113877159Y-66863621D01*
X113284000Y-66745634D01*
X112690841Y-66863621D01*
X112506000Y-66987127D01*
X112506000Y-66247942D01*
X117567818Y-66247942D01*
X117727334Y-66634000D01*
X118022446Y-66929628D01*
X118408226Y-67089818D01*
X118825942Y-67090182D01*
X119212000Y-66930666D01*
X119507628Y-66635554D01*
X119560258Y-66508805D01*
X128112881Y-66508805D01*
X128197983Y-66756846D01*
X128808064Y-66866239D01*
X129358017Y-66756846D01*
X129443119Y-66508805D01*
X128778000Y-65843685D01*
X128112881Y-66508805D01*
X119560258Y-66508805D01*
X119667818Y-66249774D01*
X119668182Y-65832058D01*
X119618000Y-65710608D01*
X119618000Y-65308064D01*
X127189761Y-65308064D01*
X127299154Y-65858017D01*
X127547195Y-65943119D01*
X128212315Y-65278000D01*
X129343685Y-65278000D01*
X130008805Y-65943119D01*
X130256846Y-65858017D01*
X130366239Y-65247936D01*
X130256846Y-64697983D01*
X130008805Y-64612881D01*
X129343685Y-65278000D01*
X128212315Y-65278000D01*
X127547195Y-64612881D01*
X127299154Y-64697983D01*
X127189761Y-65308064D01*
X119618000Y-65308064D01*
X119618000Y-64193614D01*
X119764419Y-64047195D01*
X128112881Y-64047195D01*
X128778000Y-64712315D01*
X129443119Y-64047195D01*
X129358017Y-63799154D01*
X128747936Y-63689761D01*
X128197983Y-63799154D01*
X128112881Y-64047195D01*
X119764419Y-64047195D01*
X120670514Y-63141100D01*
X122647162Y-63141100D01*
X122711318Y-63237116D01*
X123214175Y-63573113D01*
X123807334Y-63691100D01*
X123868066Y-63691100D01*
X124461225Y-63573113D01*
X124964082Y-63237116D01*
X125300079Y-62734259D01*
X125418066Y-62141100D01*
X125300079Y-61547941D01*
X124964082Y-61045084D01*
X124461225Y-60709087D01*
X123868066Y-60591100D01*
X123807334Y-60591100D01*
X123214175Y-60709087D01*
X122711318Y-61045084D01*
X122647162Y-61141100D01*
X120256300Y-61141100D01*
X119873616Y-61217220D01*
X119549193Y-61433993D01*
X117910893Y-63072293D01*
X117694120Y-63396716D01*
X117694120Y-63396717D01*
X117618000Y-63779400D01*
X117618000Y-65710251D01*
X117568182Y-65830226D01*
X117567818Y-66247942D01*
X112506000Y-66247942D01*
X112506000Y-62230000D01*
X112458659Y-61992000D01*
X112429880Y-61847316D01*
X112213107Y-61522893D01*
X110474000Y-59783786D01*
X110474000Y-59357864D01*
X110787260Y-59045151D01*
X111023730Y-58475667D01*
X111023732Y-58472961D01*
X111733732Y-58472961D01*
X111969208Y-59042857D01*
X112404849Y-59479260D01*
X112974333Y-59715730D01*
X113590961Y-59716268D01*
X114160857Y-59480792D01*
X114597260Y-59045151D01*
X114833730Y-58475667D01*
X114834268Y-57859039D01*
X114598792Y-57289143D01*
X114163151Y-56852740D01*
X113593667Y-56616270D01*
X112977039Y-56615732D01*
X112407143Y-56851208D01*
X111970740Y-57286849D01*
X111734270Y-57856333D01*
X111733732Y-58472961D01*
X111023732Y-58472961D01*
X111024268Y-57859039D01*
X110788792Y-57289143D01*
X110600945Y-57100968D01*
X110914596Y-54330141D01*
X111304429Y-53940988D01*
X111609552Y-53206170D01*
X111609555Y-53202679D01*
X112609554Y-53202679D01*
X112913394Y-53938029D01*
X113475512Y-54501129D01*
X114210330Y-54806252D01*
X115005979Y-54806946D01*
X115741329Y-54503106D01*
X115924190Y-54320563D01*
X123372720Y-54320563D01*
X123527584Y-54586132D01*
X124320504Y-54683144D01*
X124808216Y-54586132D01*
X124963080Y-54320563D01*
X124167900Y-53525383D01*
X123372720Y-54320563D01*
X115924190Y-54320563D01*
X116304429Y-53940988D01*
X116609552Y-53206170D01*
X116609911Y-52794104D01*
X122126256Y-52794104D01*
X122223268Y-53281816D01*
X122488837Y-53436680D01*
X123284017Y-52641500D01*
X125051783Y-52641500D01*
X125846963Y-53436680D01*
X126112532Y-53281816D01*
X126142413Y-53037579D01*
X127167554Y-53037579D01*
X127471394Y-53772929D01*
X128033512Y-54336029D01*
X128768330Y-54641152D01*
X129563979Y-54641846D01*
X130299329Y-54338006D01*
X130862429Y-53775888D01*
X131167552Y-53041070D01*
X131168246Y-52245421D01*
X130864406Y-51510071D01*
X130302288Y-50946971D01*
X129567470Y-50641848D01*
X128771821Y-50641154D01*
X128036471Y-50944994D01*
X127473371Y-51507112D01*
X127168248Y-52241930D01*
X127167554Y-53037579D01*
X126142413Y-53037579D01*
X126209544Y-52488896D01*
X126112532Y-52001184D01*
X125846963Y-51846320D01*
X125051783Y-52641500D01*
X123284017Y-52641500D01*
X122488837Y-51846320D01*
X122223268Y-52001184D01*
X122126256Y-52794104D01*
X116609911Y-52794104D01*
X116610246Y-52410521D01*
X116306406Y-51675171D01*
X115744288Y-51112071D01*
X115383930Y-50962437D01*
X123372720Y-50962437D01*
X124167900Y-51757617D01*
X124963080Y-50962437D01*
X124808216Y-50696868D01*
X124015296Y-50599856D01*
X123527584Y-50696868D01*
X123372720Y-50962437D01*
X115383930Y-50962437D01*
X115009470Y-50806948D01*
X114213821Y-50806254D01*
X113478471Y-51110094D01*
X112915371Y-51672212D01*
X112610248Y-52407030D01*
X112609554Y-53202679D01*
X111609555Y-53202679D01*
X111610246Y-52410521D01*
X111306406Y-51675171D01*
X110744288Y-51112071D01*
X110009470Y-50806948D01*
X109213821Y-50806254D01*
X108478471Y-51110094D01*
X107915371Y-51672212D01*
X107859568Y-51806600D01*
X106360711Y-51806600D01*
X106306406Y-51675171D01*
X105744288Y-51112071D01*
X105009470Y-50806948D01*
X104213821Y-50806254D01*
X103478471Y-51110094D01*
X102915371Y-51672212D01*
X102610248Y-52407030D01*
X102609554Y-53202679D01*
X102913394Y-53938029D01*
X103475512Y-54501129D01*
X104210330Y-54806252D01*
X105005979Y-54806946D01*
X105741329Y-54503106D01*
X106304429Y-53940988D01*
X106360232Y-53806600D01*
X107859089Y-53806600D01*
X107913394Y-53938029D01*
X108475512Y-54501129D01*
X108864198Y-54662526D01*
X108617392Y-56842841D01*
X108597143Y-56851208D01*
X108160740Y-57286849D01*
X107924270Y-57856333D01*
X107923732Y-58472961D01*
X108159208Y-59042857D01*
X108474000Y-59358200D01*
X108474000Y-60198000D01*
X108550120Y-60580684D01*
X108766893Y-60905107D01*
X110506000Y-62644214D01*
X110506000Y-67156844D01*
X110067159Y-66863621D01*
X109474000Y-66745634D01*
X108880841Y-66863621D01*
X108377984Y-67199618D01*
X108041987Y-67702475D01*
X107924000Y-68295634D01*
X107924000Y-68356366D01*
X108041987Y-68949525D01*
X108104582Y-69043205D01*
X106519786Y-70628000D01*
X104776214Y-70628000D01*
X105525414Y-69878800D01*
X105664000Y-69906366D01*
X106257159Y-69788379D01*
X106760016Y-69452382D01*
X107096013Y-68949525D01*
X107214000Y-68356366D01*
X107214000Y-68295634D01*
X107096013Y-67702475D01*
X106760016Y-67199618D01*
X106257159Y-66863621D01*
X105664000Y-66745634D01*
X105070841Y-66863621D01*
X104567984Y-67199618D01*
X104231987Y-67702475D01*
X104114000Y-68295634D01*
X104114000Y-68356366D01*
X104131490Y-68444296D01*
X103217786Y-69358000D01*
X100850701Y-69358000D01*
X100935452Y-64272924D01*
X100981618Y-64342016D01*
X101484475Y-64678013D01*
X102077634Y-64796000D01*
X102138366Y-64796000D01*
X102731525Y-64678013D01*
X103234382Y-64342016D01*
X103570379Y-63839159D01*
X103688366Y-63246000D01*
X103570379Y-62652841D01*
X103234382Y-62149984D01*
X102973996Y-61976000D01*
X103234382Y-61802016D01*
X103570379Y-61299159D01*
X103688366Y-60706000D01*
X103570379Y-60112841D01*
X103234382Y-59609984D01*
X102973996Y-59436000D01*
X103234382Y-59262016D01*
X103570379Y-58759159D01*
X103627307Y-58472961D01*
X104113732Y-58472961D01*
X104349208Y-59042857D01*
X104784849Y-59479260D01*
X105354333Y-59715730D01*
X105970961Y-59716268D01*
X106540857Y-59480792D01*
X106977260Y-59045151D01*
X107213730Y-58475667D01*
X107214268Y-57859039D01*
X106978792Y-57289143D01*
X106543151Y-56852740D01*
X105973667Y-56616270D01*
X105357039Y-56615732D01*
X104787143Y-56851208D01*
X104350740Y-57286849D01*
X104114270Y-57856333D01*
X104113732Y-58472961D01*
X103627307Y-58472961D01*
X103688366Y-58166000D01*
X103570379Y-57572841D01*
X103234382Y-57069984D01*
X102731525Y-56733987D01*
X102138366Y-56616000D01*
X102077634Y-56616000D01*
X101484475Y-56733987D01*
X101056333Y-57020061D01*
X101087965Y-55122166D01*
X101069892Y-55024587D01*
X101015280Y-54941728D01*
X100932733Y-54886644D01*
X100838000Y-54868000D01*
X100834000Y-54868000D01*
X100834000Y-47494000D01*
X131468446Y-47494000D01*
X134650964Y-50676518D01*
X134567470Y-50641848D01*
X133771821Y-50641154D01*
X133036471Y-50944994D01*
X132473371Y-51507112D01*
X132168248Y-52241930D01*
X132167554Y-53037579D01*
X132471394Y-53772929D01*
X133033512Y-54336029D01*
X133768330Y-54641152D01*
X134563979Y-54641846D01*
X135299329Y-54338006D01*
X135862429Y-53775888D01*
X136167552Y-53041070D01*
X136168246Y-52245421D01*
X136131898Y-52157452D01*
X138634253Y-54659807D01*
X136844200Y-54659807D01*
X136566267Y-54712104D01*
X136311002Y-54876362D01*
X136139754Y-55126992D01*
X136079507Y-55424500D01*
X136079507Y-55622479D01*
X133290593Y-58411393D01*
X133073820Y-58735816D01*
X133017295Y-59019987D01*
X132997700Y-59118500D01*
X132997700Y-60949236D01*
X132684440Y-61261949D01*
X132447970Y-61831433D01*
X132447432Y-62448061D01*
X132682908Y-63017957D01*
X133118549Y-63454360D01*
X133688033Y-63690830D01*
X134304661Y-63691368D01*
X134874557Y-63455892D01*
X135310960Y-63020251D01*
X135547430Y-62450767D01*
X135547639Y-62210561D01*
X137019432Y-62210561D01*
X137254908Y-62780457D01*
X137690549Y-63216860D01*
X138260033Y-63453330D01*
X138876661Y-63453868D01*
X139446557Y-63218392D01*
X139882960Y-62782751D01*
X140119430Y-62213267D01*
X140119968Y-61596639D01*
X139884492Y-61026743D01*
X139448851Y-60590340D01*
X138879367Y-60353870D01*
X138262739Y-60353332D01*
X137692843Y-60588808D01*
X137256440Y-61024449D01*
X137019970Y-61593933D01*
X137019432Y-62210561D01*
X135547639Y-62210561D01*
X135547968Y-61834139D01*
X135312492Y-61264243D01*
X134997700Y-60948900D01*
X134997700Y-59532714D01*
X136592244Y-57938170D01*
X136844200Y-57989193D01*
X138644200Y-57989193D01*
X138922133Y-57936896D01*
X139177398Y-57772638D01*
X139246877Y-57670953D01*
X139976197Y-58400273D01*
X140284200Y-58092270D01*
X140466000Y-58274070D01*
X140466000Y-63250000D01*
X140462000Y-63250000D01*
X140364736Y-63269696D01*
X140282798Y-63325682D01*
X140229097Y-63409136D01*
X140212000Y-63500000D01*
X140212000Y-132484446D01*
X131214446Y-141482000D01*
X59285554Y-141482000D01*
X53185554Y-135382000D01*
X79851675Y-135382000D01*
X79977274Y-136013428D01*
X80334949Y-136548726D01*
X80870247Y-136906401D01*
X81501675Y-137032000D01*
X81566325Y-137032000D01*
X82197753Y-136906401D01*
X82733051Y-136548726D01*
X82804000Y-136442543D01*
X82874949Y-136548726D01*
X83410247Y-136906401D01*
X84041675Y-137032000D01*
X84106325Y-137032000D01*
X84737753Y-136906401D01*
X85078179Y-136678935D01*
X85165862Y-136815198D01*
X85416492Y-136986446D01*
X85714000Y-137046693D01*
X87514000Y-137046693D01*
X87791933Y-136994396D01*
X87988674Y-136867797D01*
X108032000Y-136867797D01*
X108032000Y-136944203D01*
X108180435Y-137690436D01*
X108603142Y-138323061D01*
X109235767Y-138745768D01*
X109982000Y-138894203D01*
X110728233Y-138745768D01*
X111360858Y-138323061D01*
X111783565Y-137690436D01*
X111932000Y-136944203D01*
X111932000Y-136867797D01*
X111881477Y-136613797D01*
X114382000Y-136613797D01*
X114382000Y-136690203D01*
X114530435Y-137436436D01*
X114953142Y-138069061D01*
X115585767Y-138491768D01*
X116332000Y-138640203D01*
X117078233Y-138491768D01*
X117710858Y-138069061D01*
X118133565Y-137436436D01*
X118279064Y-136704961D01*
X119607732Y-136704961D01*
X119843208Y-137274857D01*
X120278849Y-137711260D01*
X120848333Y-137947730D01*
X121464961Y-137948268D01*
X122034857Y-137712792D01*
X122471260Y-137277151D01*
X122707730Y-136707667D01*
X122708000Y-136398000D01*
X129737634Y-136398000D01*
X129855621Y-136991159D01*
X130191618Y-137494016D01*
X130694475Y-137830013D01*
X131287634Y-137948000D01*
X131348366Y-137948000D01*
X131941525Y-137830013D01*
X132444382Y-137494016D01*
X132780379Y-136991159D01*
X132898366Y-136398000D01*
X132780379Y-135804841D01*
X132444382Y-135301984D01*
X131941525Y-134965987D01*
X131348366Y-134848000D01*
X131287634Y-134848000D01*
X130694475Y-134965987D01*
X130191618Y-135301984D01*
X129855621Y-135804841D01*
X129737634Y-136398000D01*
X122708000Y-136398000D01*
X122708268Y-136091039D01*
X122472792Y-135521143D01*
X122037151Y-135084740D01*
X121467667Y-134848270D01*
X120851039Y-134847732D01*
X120281143Y-135083208D01*
X119844740Y-135518849D01*
X119608270Y-136088333D01*
X119607732Y-136704961D01*
X118279064Y-136704961D01*
X118282000Y-136690203D01*
X118282000Y-136613797D01*
X118133565Y-135867564D01*
X117710858Y-135234939D01*
X117078233Y-134812232D01*
X116332000Y-134663797D01*
X115585767Y-134812232D01*
X114953142Y-135234939D01*
X114530435Y-135867564D01*
X114382000Y-136613797D01*
X111881477Y-136613797D01*
X111783565Y-136121564D01*
X111360858Y-135488939D01*
X110728233Y-135066232D01*
X109982000Y-134917797D01*
X109235767Y-135066232D01*
X108603142Y-135488939D01*
X108180435Y-136121564D01*
X108032000Y-136867797D01*
X87988674Y-136867797D01*
X88047198Y-136830138D01*
X88218446Y-136579508D01*
X88278693Y-136282000D01*
X88278693Y-134482000D01*
X88226396Y-134204067D01*
X88062138Y-133948802D01*
X87811508Y-133777554D01*
X87514000Y-133717307D01*
X85714000Y-133717307D01*
X85436067Y-133769604D01*
X85180802Y-133933862D01*
X85077706Y-134084748D01*
X84737753Y-133857599D01*
X84106325Y-133732000D01*
X84041675Y-133732000D01*
X83410247Y-133857599D01*
X82874949Y-134215274D01*
X82804000Y-134321457D01*
X82733051Y-134215274D01*
X82685332Y-134183389D01*
X82682428Y-134172786D01*
X82661016Y-134145197D01*
X83704502Y-133101712D01*
X84037756Y-133168000D01*
X84110244Y-133168000D01*
X84818208Y-133027177D01*
X85418392Y-132626148D01*
X85430518Y-132608000D01*
X94759307Y-132608000D01*
X94759307Y-135108000D01*
X94811604Y-135385933D01*
X94975862Y-135641198D01*
X95226492Y-135812446D01*
X95524000Y-135872693D01*
X98024000Y-135872693D01*
X98301933Y-135820396D01*
X98557198Y-135656138D01*
X98728446Y-135405508D01*
X98788693Y-135108000D01*
X98788693Y-134254079D01*
X99773654Y-134254079D01*
X100077494Y-134989429D01*
X100639612Y-135552529D01*
X101374430Y-135857652D01*
X102170079Y-135858346D01*
X102905429Y-135554506D01*
X103468529Y-134992388D01*
X103773652Y-134257570D01*
X103774346Y-133461921D01*
X103470506Y-132726571D01*
X102908388Y-132163471D01*
X102173570Y-131858348D01*
X101377921Y-131857654D01*
X100642571Y-132161494D01*
X100079471Y-132723612D01*
X99774348Y-133458430D01*
X99773654Y-134254079D01*
X98788693Y-134254079D01*
X98788693Y-132608000D01*
X98736396Y-132330067D01*
X98572138Y-132074802D01*
X98321508Y-131903554D01*
X98024000Y-131843307D01*
X95524000Y-131843307D01*
X95246067Y-131895604D01*
X94990802Y-132059862D01*
X94819554Y-132310492D01*
X94759307Y-132608000D01*
X85430518Y-132608000D01*
X85819421Y-132025964D01*
X85960244Y-131318000D01*
X85819421Y-130610036D01*
X85557472Y-130218000D01*
X119293307Y-130218000D01*
X119293307Y-132418000D01*
X119345604Y-132695933D01*
X119509862Y-132951198D01*
X119760492Y-133122446D01*
X120058000Y-133182693D01*
X122258000Y-133182693D01*
X122535933Y-133130396D01*
X122791198Y-132966138D01*
X122962446Y-132715508D01*
X123022693Y-132418000D01*
X123022693Y-130218000D01*
X122970396Y-129940067D01*
X122806138Y-129684802D01*
X122555508Y-129513554D01*
X122258000Y-129453307D01*
X120058000Y-129453307D01*
X119780067Y-129505604D01*
X119524802Y-129669862D01*
X119353554Y-129920492D01*
X119293307Y-130218000D01*
X85557472Y-130218000D01*
X85418392Y-130009852D01*
X85189353Y-129856813D01*
X85356954Y-127678000D01*
X123103307Y-127678000D01*
X123103307Y-129878000D01*
X123155604Y-130155933D01*
X123319862Y-130411198D01*
X123570492Y-130582446D01*
X123868000Y-130642693D01*
X126068000Y-130642693D01*
X126345933Y-130590396D01*
X126601198Y-130426138D01*
X126772446Y-130175508D01*
X126832693Y-129878000D01*
X126832693Y-127678000D01*
X126804469Y-127528000D01*
X130573307Y-127528000D01*
X130573307Y-130028000D01*
X130625604Y-130305933D01*
X130789862Y-130561198D01*
X131040492Y-130732446D01*
X131338000Y-130792693D01*
X133838000Y-130792693D01*
X134115933Y-130740396D01*
X134371198Y-130576138D01*
X134542446Y-130325508D01*
X134602693Y-130028000D01*
X134602693Y-127528000D01*
X134550396Y-127250067D01*
X134386138Y-126994802D01*
X134135508Y-126823554D01*
X133838000Y-126763307D01*
X131338000Y-126763307D01*
X131060067Y-126815604D01*
X130804802Y-126979862D01*
X130633554Y-127230492D01*
X130573307Y-127528000D01*
X126804469Y-127528000D01*
X126780396Y-127400067D01*
X126616138Y-127144802D01*
X126365508Y-126973554D01*
X126068000Y-126913307D01*
X123868000Y-126913307D01*
X123590067Y-126965604D01*
X123334802Y-127129862D01*
X123163554Y-127380492D01*
X123103307Y-127678000D01*
X85356954Y-127678000D01*
X85461170Y-126323204D01*
X85709933Y-126276396D01*
X85965198Y-126112138D01*
X86136446Y-125861508D01*
X86196693Y-125564000D01*
X86196693Y-125528961D01*
X95477732Y-125528961D01*
X95713208Y-126098857D01*
X96148849Y-126535260D01*
X96718333Y-126771730D01*
X97334961Y-126772268D01*
X97904857Y-126536792D01*
X98341260Y-126101151D01*
X98577730Y-125531667D01*
X98577732Y-125528961D01*
X100477732Y-125528961D01*
X100713208Y-126098857D01*
X101148849Y-126535260D01*
X101718333Y-126771730D01*
X102334961Y-126772268D01*
X102904857Y-126536792D01*
X103341260Y-126101151D01*
X103577730Y-125531667D01*
X103578268Y-124915039D01*
X103342792Y-124345143D01*
X102907151Y-123908740D01*
X102337667Y-123672270D01*
X101721039Y-123671732D01*
X101151143Y-123907208D01*
X100714740Y-124342849D01*
X100478270Y-124912333D01*
X100477732Y-125528961D01*
X98577732Y-125528961D01*
X98578268Y-124915039D01*
X98342792Y-124345143D01*
X97907151Y-123908740D01*
X97337667Y-123672270D01*
X96721039Y-123671732D01*
X96151143Y-123907208D01*
X95714740Y-124342849D01*
X95478270Y-124912333D01*
X95477732Y-125528961D01*
X86196693Y-125528961D01*
X86196693Y-123864000D01*
X86158638Y-123661756D01*
X119308000Y-123661756D01*
X119308000Y-123734244D01*
X119448823Y-124442208D01*
X119849852Y-125042392D01*
X120450036Y-125443421D01*
X121158000Y-125584244D01*
X121865964Y-125443421D01*
X122466148Y-125042392D01*
X122867177Y-124442208D01*
X122920511Y-124174079D01*
X130587654Y-124174079D01*
X130891494Y-124909429D01*
X131453612Y-125472529D01*
X132188430Y-125777652D01*
X132984079Y-125778346D01*
X133719429Y-125474506D01*
X134282529Y-124912388D01*
X134587652Y-124177570D01*
X134588346Y-123381921D01*
X134284506Y-122646571D01*
X133722388Y-122083471D01*
X132987570Y-121778348D01*
X132191921Y-121777654D01*
X131456571Y-122081494D01*
X130893471Y-122643612D01*
X130588348Y-123378430D01*
X130587654Y-124174079D01*
X122920511Y-124174079D01*
X123008000Y-123734244D01*
X123008000Y-123661756D01*
X122867177Y-122953792D01*
X122466148Y-122353608D01*
X121865964Y-121952579D01*
X121158000Y-121811756D01*
X120450036Y-121952579D01*
X119849852Y-122353608D01*
X119448823Y-122953792D01*
X119308000Y-123661756D01*
X86158638Y-123661756D01*
X86144396Y-123586067D01*
X85980138Y-123330802D01*
X85729508Y-123159554D01*
X85432000Y-123099307D01*
X83732000Y-123099307D01*
X83454067Y-123151604D01*
X83198802Y-123315862D01*
X83097585Y-123463998D01*
X83026534Y-123463998D01*
X82704369Y-123248759D01*
X82467000Y-123360664D01*
X82467000Y-124289000D01*
X82892000Y-124289000D01*
X82892000Y-125139000D01*
X82467000Y-125139000D01*
X82467000Y-126067336D01*
X82704369Y-126179241D01*
X83026534Y-125964002D01*
X83098154Y-125964002D01*
X83183862Y-126097198D01*
X83434492Y-126268446D01*
X83459090Y-126273427D01*
X83195626Y-129698470D01*
X82729608Y-130009852D01*
X82328579Y-130610036D01*
X82187756Y-131318000D01*
X82266071Y-131711716D01*
X80826893Y-133150893D01*
X80610120Y-133475316D01*
X80565826Y-133698000D01*
X80534000Y-133858000D01*
X80534000Y-134082272D01*
X80334949Y-134215274D01*
X79977274Y-134750572D01*
X79851675Y-135382000D01*
X53185554Y-135382000D01*
X49452777Y-131649223D01*
X49375540Y-131598000D01*
X62193307Y-131598000D01*
X62193307Y-133698000D01*
X62245604Y-133975933D01*
X62409862Y-134231198D01*
X62660492Y-134402446D01*
X62958000Y-134462693D01*
X65058000Y-134462693D01*
X65335933Y-134410396D01*
X65591198Y-134246138D01*
X65762446Y-133995508D01*
X65822693Y-133698000D01*
X65822693Y-131598000D01*
X65770396Y-131320067D01*
X65606138Y-131064802D01*
X65355508Y-130893554D01*
X65058000Y-130833307D01*
X62958000Y-130833307D01*
X62680067Y-130885604D01*
X62424802Y-131049862D01*
X62253554Y-131300492D01*
X62193307Y-131598000D01*
X49375540Y-131598000D01*
X49370073Y-131594375D01*
X49276000Y-131576000D01*
X48764000Y-131576000D01*
X48764000Y-130218000D01*
X74589307Y-130218000D01*
X74589307Y-132418000D01*
X74641604Y-132695933D01*
X74805862Y-132951198D01*
X75056492Y-133122446D01*
X75354000Y-133182693D01*
X77554000Y-133182693D01*
X77831933Y-133130396D01*
X78087198Y-132966138D01*
X78258446Y-132715508D01*
X78318693Y-132418000D01*
X78318693Y-130218000D01*
X78266396Y-129940067D01*
X78102138Y-129684802D01*
X77851508Y-129513554D01*
X77554000Y-129453307D01*
X75354000Y-129453307D01*
X75076067Y-129505604D01*
X74820802Y-129669862D01*
X74649554Y-129920492D01*
X74589307Y-130218000D01*
X48764000Y-130218000D01*
X48764000Y-127824079D01*
X53117654Y-127824079D01*
X53421494Y-128559429D01*
X53983612Y-129122529D01*
X54718430Y-129427652D01*
X55514079Y-129428346D01*
X56249429Y-129124506D01*
X56812529Y-128562388D01*
X57085719Y-127904471D01*
X62207688Y-127904471D01*
X62481145Y-128566286D01*
X62987051Y-129073076D01*
X63648387Y-129347687D01*
X64364471Y-129348312D01*
X65026286Y-129074855D01*
X65533076Y-128568949D01*
X65807687Y-127907613D01*
X65808312Y-127191529D01*
X65608522Y-126708000D01*
X71079307Y-126708000D01*
X71079307Y-128308000D01*
X71131604Y-128585933D01*
X71295862Y-128841198D01*
X71546492Y-129012446D01*
X71844000Y-129072693D01*
X73444000Y-129072693D01*
X73721933Y-129020396D01*
X73977198Y-128856138D01*
X74148446Y-128605508D01*
X74208693Y-128308000D01*
X74208693Y-126708000D01*
X74156396Y-126430067D01*
X73992138Y-126174802D01*
X73741508Y-126003554D01*
X73444000Y-125943307D01*
X71844000Y-125943307D01*
X71566067Y-125995604D01*
X71310802Y-126159862D01*
X71139554Y-126410492D01*
X71079307Y-126708000D01*
X65608522Y-126708000D01*
X65534855Y-126529714D01*
X65028949Y-126022924D01*
X64367613Y-125748313D01*
X63651529Y-125747688D01*
X62989714Y-126021145D01*
X62482924Y-126527051D01*
X62208313Y-127188387D01*
X62207688Y-127904471D01*
X57085719Y-127904471D01*
X57117652Y-127827570D01*
X57118346Y-127031921D01*
X56814506Y-126296571D01*
X56252388Y-125733471D01*
X55517570Y-125428348D01*
X54721921Y-125427654D01*
X53986571Y-125731494D01*
X53423471Y-126293612D01*
X53118348Y-127028430D01*
X53117654Y-127824079D01*
X48764000Y-127824079D01*
X48764000Y-121178000D01*
X53103307Y-121178000D01*
X53103307Y-123678000D01*
X53155604Y-123955933D01*
X53319862Y-124211198D01*
X53570492Y-124382446D01*
X53868000Y-124442693D01*
X56368000Y-124442693D01*
X56645933Y-124390396D01*
X56901198Y-124226138D01*
X57072446Y-123975508D01*
X57132693Y-123678000D01*
X57132693Y-122804471D01*
X62207688Y-122804471D01*
X62481145Y-123466286D01*
X62987051Y-123973076D01*
X63648387Y-124247687D01*
X64364471Y-124248312D01*
X65026286Y-123974855D01*
X65533076Y-123468949D01*
X65804635Y-122814961D01*
X71093732Y-122814961D01*
X71329208Y-123384857D01*
X71764849Y-123821260D01*
X72334333Y-124057730D01*
X72950961Y-124058268D01*
X73520857Y-123822792D01*
X73957260Y-123387151D01*
X74193730Y-122817667D01*
X74194268Y-122201039D01*
X73958792Y-121631143D01*
X73523151Y-121194740D01*
X72953667Y-120958270D01*
X72337039Y-120957732D01*
X71767143Y-121193208D01*
X71330740Y-121628849D01*
X71094270Y-122198333D01*
X71093732Y-122814961D01*
X65804635Y-122814961D01*
X65807687Y-122807613D01*
X65808312Y-122091529D01*
X65534855Y-121429714D01*
X65028949Y-120922924D01*
X64367613Y-120648313D01*
X63651529Y-120647688D01*
X62989714Y-120921145D01*
X62482924Y-121427051D01*
X62208313Y-122088387D01*
X62207688Y-122804471D01*
X57132693Y-122804471D01*
X57132693Y-121178000D01*
X57080396Y-120900067D01*
X56916138Y-120644802D01*
X56665508Y-120473554D01*
X56368000Y-120413307D01*
X53868000Y-120413307D01*
X53590067Y-120465604D01*
X53334802Y-120629862D01*
X53163554Y-120880492D01*
X53103307Y-121178000D01*
X48764000Y-121178000D01*
X48764000Y-117704471D01*
X62207688Y-117704471D01*
X62481145Y-118366286D01*
X62987051Y-118873076D01*
X63648387Y-119147687D01*
X64364471Y-119148312D01*
X65026286Y-118874855D01*
X65533076Y-118368949D01*
X65807687Y-117707613D01*
X65808312Y-116991529D01*
X65534855Y-116329714D01*
X65028949Y-115822924D01*
X64367613Y-115548313D01*
X63651529Y-115547688D01*
X62989714Y-115821145D01*
X62482924Y-116327051D01*
X62208313Y-116988387D01*
X62207688Y-117704471D01*
X48764000Y-117704471D01*
X48764000Y-106708000D01*
X54223307Y-106708000D01*
X54223307Y-110208000D01*
X54275604Y-110485933D01*
X54439862Y-110741198D01*
X54690492Y-110912446D01*
X54988000Y-110972693D01*
X57377708Y-110972693D01*
X57283554Y-111110492D01*
X57223307Y-111408000D01*
X57223307Y-114908000D01*
X57275604Y-115185933D01*
X57439862Y-115441198D01*
X57690492Y-115612446D01*
X57988000Y-115672693D01*
X61488000Y-115672693D01*
X61765933Y-115620396D01*
X62021198Y-115456138D01*
X62192446Y-115205508D01*
X62252693Y-114908000D01*
X62252693Y-111926907D01*
X65840893Y-115515107D01*
X66165316Y-115731880D01*
X66548000Y-115808001D01*
X66548005Y-115808000D01*
X69943786Y-115808000D01*
X77200878Y-123065092D01*
X77988694Y-124246816D01*
X77902000Y-124682654D01*
X77902000Y-124745346D01*
X78023793Y-125357639D01*
X78370629Y-125876717D01*
X78889707Y-126223553D01*
X79502000Y-126345346D01*
X80114293Y-126223553D01*
X80502739Y-125964002D01*
X81057466Y-125964002D01*
X81379631Y-126179241D01*
X81617000Y-126067336D01*
X81617000Y-125139000D01*
X81192000Y-125139000D01*
X81192000Y-124289000D01*
X81617000Y-124289000D01*
X81617000Y-123360664D01*
X81379631Y-123248759D01*
X81057466Y-123463998D01*
X80502739Y-123463998D01*
X80114293Y-123204447D01*
X79633758Y-123108862D01*
X78810050Y-121873300D01*
X78740115Y-121803218D01*
X78685107Y-121720893D01*
X75551848Y-118587634D01*
X84556000Y-118587634D01*
X84556000Y-118648366D01*
X84673987Y-119241525D01*
X85009984Y-119744382D01*
X85512841Y-120080379D01*
X86106000Y-120198366D01*
X86699159Y-120080379D01*
X87202016Y-119744382D01*
X87331897Y-119550000D01*
X96179307Y-119550000D01*
X96179307Y-121750000D01*
X96231604Y-122027933D01*
X96395862Y-122283198D01*
X96646492Y-122454446D01*
X96944000Y-122514693D01*
X99144000Y-122514693D01*
X99421933Y-122462396D01*
X99677198Y-122298138D01*
X99848446Y-122047508D01*
X99908693Y-121750000D01*
X99908693Y-120613756D01*
X100258000Y-120613756D01*
X100258000Y-120686244D01*
X100398823Y-121394208D01*
X100799852Y-121994392D01*
X101400036Y-122395421D01*
X102108000Y-122536244D01*
X102815964Y-122395421D01*
X103329666Y-122052177D01*
X108031662Y-122052177D01*
X108327906Y-122769143D01*
X108875971Y-123318166D01*
X109592419Y-123615661D01*
X110368177Y-123616338D01*
X111085143Y-123320094D01*
X111634166Y-122772029D01*
X111931661Y-122055581D01*
X111931885Y-121798177D01*
X114381662Y-121798177D01*
X114677906Y-122515143D01*
X115225971Y-123064166D01*
X115942419Y-123361661D01*
X116718177Y-123362338D01*
X117435143Y-123066094D01*
X117984166Y-122518029D01*
X118281661Y-121801581D01*
X118282254Y-121121756D01*
X123118000Y-121121756D01*
X123118000Y-121194244D01*
X123258823Y-121902208D01*
X123659852Y-122502392D01*
X124260036Y-122903421D01*
X124968000Y-123044244D01*
X125675964Y-122903421D01*
X126276148Y-122502392D01*
X126677177Y-121902208D01*
X126818000Y-121194244D01*
X126818000Y-121121756D01*
X126677177Y-120413792D01*
X126276148Y-119813608D01*
X125675964Y-119412579D01*
X124968000Y-119271756D01*
X124260036Y-119412579D01*
X123659852Y-119813608D01*
X123258823Y-120413792D01*
X123118000Y-121121756D01*
X118282254Y-121121756D01*
X118282338Y-121025823D01*
X117986094Y-120308857D01*
X117438029Y-119759834D01*
X116721581Y-119462339D01*
X115945823Y-119461662D01*
X115228857Y-119757906D01*
X114679834Y-120305971D01*
X114382339Y-121022419D01*
X114381662Y-121798177D01*
X111931885Y-121798177D01*
X111932338Y-121279823D01*
X111636094Y-120562857D01*
X111088029Y-120013834D01*
X110371581Y-119716339D01*
X109595823Y-119715662D01*
X108878857Y-120011906D01*
X108329834Y-120559971D01*
X108032339Y-121276419D01*
X108031662Y-122052177D01*
X103329666Y-122052177D01*
X103416148Y-121994392D01*
X103817177Y-121394208D01*
X103958000Y-120686244D01*
X103958000Y-120613756D01*
X103817177Y-119905792D01*
X103416148Y-119305608D01*
X102815964Y-118904579D01*
X102108000Y-118763756D01*
X101400036Y-118904579D01*
X100799852Y-119305608D01*
X100398823Y-119905792D01*
X100258000Y-120613756D01*
X99908693Y-120613756D01*
X99908693Y-119550000D01*
X99856396Y-119272067D01*
X99692138Y-119016802D01*
X99441508Y-118845554D01*
X99144000Y-118785307D01*
X96944000Y-118785307D01*
X96666067Y-118837604D01*
X96410802Y-119001862D01*
X96239554Y-119252492D01*
X96179307Y-119550000D01*
X87331897Y-119550000D01*
X87538013Y-119241525D01*
X87656000Y-118648366D01*
X87656000Y-118587634D01*
X87538013Y-117994475D01*
X87202016Y-117491618D01*
X86699159Y-117155621D01*
X86106000Y-117037634D01*
X85512841Y-117155621D01*
X85009984Y-117491618D01*
X84673987Y-117994475D01*
X84556000Y-118587634D01*
X75551848Y-118587634D01*
X73896783Y-116932569D01*
X107843696Y-116932569D01*
X108109557Y-117576001D01*
X108601410Y-118068713D01*
X109244376Y-118335696D01*
X109940569Y-118336304D01*
X110584001Y-118070443D01*
X111076713Y-117578590D01*
X111343696Y-116935624D01*
X111343698Y-116932569D01*
X115343696Y-116932569D01*
X115609557Y-117576001D01*
X116101410Y-118068713D01*
X116744376Y-118335696D01*
X117440569Y-118336304D01*
X118084001Y-118070443D01*
X118576713Y-117578590D01*
X118843696Y-116935624D01*
X118844296Y-116248000D01*
X119293307Y-116248000D01*
X119293307Y-118448000D01*
X119345604Y-118725933D01*
X119509862Y-118981198D01*
X119760492Y-119152446D01*
X120058000Y-119212693D01*
X122258000Y-119212693D01*
X122535933Y-119160396D01*
X122791198Y-118996138D01*
X122962446Y-118745508D01*
X123022693Y-118448000D01*
X123022693Y-118348000D01*
X130573307Y-118348000D01*
X130573307Y-118598000D01*
X130625604Y-118875933D01*
X130789862Y-119131198D01*
X131040492Y-119302446D01*
X131338000Y-119362693D01*
X133838000Y-119362693D01*
X134115933Y-119310396D01*
X134371198Y-119146138D01*
X134542446Y-118895508D01*
X134602693Y-118598000D01*
X134602693Y-116098000D01*
X134550396Y-115820067D01*
X134386138Y-115564802D01*
X134135508Y-115393554D01*
X133838000Y-115333307D01*
X131338000Y-115333307D01*
X131060067Y-115385604D01*
X130804802Y-115549862D01*
X130633554Y-115800492D01*
X130573307Y-116098000D01*
X130573307Y-116348000D01*
X123022693Y-116348000D01*
X123022693Y-116248000D01*
X122970396Y-115970067D01*
X122806138Y-115714802D01*
X122555508Y-115543554D01*
X122258000Y-115483307D01*
X120058000Y-115483307D01*
X119780067Y-115535604D01*
X119524802Y-115699862D01*
X119353554Y-115950492D01*
X119293307Y-116248000D01*
X118844296Y-116248000D01*
X118844304Y-116239431D01*
X118578443Y-115595999D01*
X118086590Y-115103287D01*
X117443624Y-114836304D01*
X116747431Y-114835696D01*
X116103999Y-115101557D01*
X115611287Y-115593410D01*
X115344304Y-116236376D01*
X115343696Y-116932569D01*
X111343698Y-116932569D01*
X111344304Y-116239431D01*
X111078443Y-115595999D01*
X110586590Y-115103287D01*
X109943624Y-114836304D01*
X109247431Y-114835696D01*
X108603999Y-115101557D01*
X108111287Y-115593410D01*
X107844304Y-116236376D01*
X107843696Y-116932569D01*
X73896783Y-116932569D01*
X71698214Y-114734000D01*
X72108500Y-114734000D01*
X72298000Y-114544500D01*
X72298000Y-113376000D01*
X73498000Y-113376000D01*
X73498000Y-114544500D01*
X73687500Y-114734000D01*
X74248776Y-114734000D01*
X74527373Y-114618601D01*
X74740602Y-114405372D01*
X74856000Y-114126775D01*
X74856000Y-113565500D01*
X74666500Y-113376000D01*
X73498000Y-113376000D01*
X72298000Y-113376000D01*
X71129500Y-113376000D01*
X70940000Y-113565500D01*
X70940000Y-114017299D01*
X70740684Y-113884120D01*
X70358000Y-113808000D01*
X66962214Y-113808000D01*
X66316391Y-113162177D01*
X78447662Y-113162177D01*
X78743906Y-113879143D01*
X79291971Y-114428166D01*
X80008419Y-114725661D01*
X80784177Y-114726338D01*
X81501143Y-114430094D01*
X82050166Y-113882029D01*
X82347661Y-113165581D01*
X82347810Y-112993756D01*
X96194000Y-112993756D01*
X96194000Y-113066244D01*
X96334823Y-113774208D01*
X96735852Y-114374392D01*
X97336036Y-114775421D01*
X98044000Y-114916244D01*
X98751964Y-114775421D01*
X99352148Y-114374392D01*
X99753177Y-113774208D01*
X99754113Y-113769500D01*
X100250000Y-113769500D01*
X100250000Y-114280776D01*
X100365399Y-114559373D01*
X100578628Y-114772602D01*
X100857225Y-114888000D01*
X101368500Y-114888000D01*
X101558000Y-114698500D01*
X101558000Y-113580000D01*
X102658000Y-113580000D01*
X102658000Y-114698500D01*
X102847500Y-114888000D01*
X103358775Y-114888000D01*
X103637372Y-114772602D01*
X103850601Y-114559373D01*
X103966000Y-114280776D01*
X103966000Y-113769500D01*
X103776500Y-113580000D01*
X102658000Y-113580000D01*
X101558000Y-113580000D01*
X100439500Y-113580000D01*
X100250000Y-113769500D01*
X99754113Y-113769500D01*
X99894000Y-113066244D01*
X99894000Y-112993756D01*
X99753177Y-112285792D01*
X99414701Y-111779224D01*
X100250000Y-111779224D01*
X100250000Y-112290500D01*
X100439500Y-112480000D01*
X101558000Y-112480000D01*
X101558000Y-111361500D01*
X102658000Y-111361500D01*
X102658000Y-112480000D01*
X103776500Y-112480000D01*
X103966000Y-112290500D01*
X103966000Y-111779224D01*
X103850601Y-111500627D01*
X103637372Y-111287398D01*
X103358775Y-111172000D01*
X102847500Y-111172000D01*
X102658000Y-111361500D01*
X101558000Y-111361500D01*
X101368500Y-111172000D01*
X100857225Y-111172000D01*
X100578628Y-111287398D01*
X100365399Y-111500627D01*
X100250000Y-111779224D01*
X99414701Y-111779224D01*
X99352148Y-111685608D01*
X98751964Y-111284579D01*
X98044000Y-111143756D01*
X97336036Y-111284579D01*
X96735852Y-111685608D01*
X96334823Y-112285792D01*
X96194000Y-112993756D01*
X82347810Y-112993756D01*
X82348338Y-112389823D01*
X82052094Y-111672857D01*
X81504029Y-111123834D01*
X80787581Y-110826339D01*
X80011823Y-110825662D01*
X79294857Y-111121906D01*
X78745834Y-111669971D01*
X78448339Y-112386419D01*
X78447662Y-113162177D01*
X66316391Y-113162177D01*
X64579439Y-111425225D01*
X70940000Y-111425225D01*
X70940000Y-111986500D01*
X71129500Y-112176000D01*
X72298000Y-112176000D01*
X72298000Y-111007500D01*
X73498000Y-111007500D01*
X73498000Y-112176000D01*
X74666500Y-112176000D01*
X74856000Y-111986500D01*
X74856000Y-111425225D01*
X74740602Y-111146628D01*
X74527373Y-110933399D01*
X74248776Y-110818000D01*
X73687500Y-110818000D01*
X73498000Y-111007500D01*
X72298000Y-111007500D01*
X72108500Y-110818000D01*
X71547224Y-110818000D01*
X71268627Y-110933399D01*
X71055398Y-111146628D01*
X70940000Y-111425225D01*
X64579439Y-111425225D01*
X64126907Y-110972693D01*
X64488000Y-110972693D01*
X64765933Y-110920396D01*
X65021198Y-110756138D01*
X65192446Y-110505508D01*
X65252693Y-110208000D01*
X65252693Y-109688805D01*
X85440881Y-109688805D01*
X85525983Y-109936846D01*
X86136064Y-110046239D01*
X86686017Y-109936846D01*
X86770106Y-109691756D01*
X119308000Y-109691756D01*
X119308000Y-109764244D01*
X119448823Y-110472208D01*
X119849852Y-111072392D01*
X120450036Y-111473421D01*
X121158000Y-111614244D01*
X121865964Y-111473421D01*
X122323060Y-111168000D01*
X123103307Y-111168000D01*
X123103307Y-113368000D01*
X123155604Y-113645933D01*
X123319862Y-113901198D01*
X123570492Y-114072446D01*
X123868000Y-114132693D01*
X126068000Y-114132693D01*
X126345933Y-114080396D01*
X126601198Y-113916138D01*
X126772446Y-113665508D01*
X126832693Y-113368000D01*
X126832693Y-112744079D01*
X130587654Y-112744079D01*
X130891494Y-113479429D01*
X131453612Y-114042529D01*
X132188430Y-114347652D01*
X132984079Y-114348346D01*
X133719429Y-114044506D01*
X134282529Y-113482388D01*
X134587652Y-112747570D01*
X134588346Y-111951921D01*
X134284506Y-111216571D01*
X133722388Y-110653471D01*
X132987570Y-110348348D01*
X132191921Y-110347654D01*
X131456571Y-110651494D01*
X130893471Y-111213612D01*
X130588348Y-111948430D01*
X130587654Y-112744079D01*
X126832693Y-112744079D01*
X126832693Y-111168000D01*
X126780396Y-110890067D01*
X126616138Y-110634802D01*
X126365508Y-110463554D01*
X126068000Y-110403307D01*
X123868000Y-110403307D01*
X123590067Y-110455604D01*
X123334802Y-110619862D01*
X123163554Y-110870492D01*
X123103307Y-111168000D01*
X122323060Y-111168000D01*
X122466148Y-111072392D01*
X122867177Y-110472208D01*
X123008000Y-109764244D01*
X123008000Y-109691756D01*
X122867177Y-108983792D01*
X122466148Y-108383608D01*
X121865964Y-107982579D01*
X121158000Y-107841756D01*
X120450036Y-107982579D01*
X119849852Y-108383608D01*
X119448823Y-108983792D01*
X119308000Y-109691756D01*
X86770106Y-109691756D01*
X86771119Y-109688805D01*
X86106000Y-109023685D01*
X85440881Y-109688805D01*
X65252693Y-109688805D01*
X65252693Y-108488064D01*
X84517761Y-108488064D01*
X84627154Y-109038017D01*
X84875195Y-109123119D01*
X85540315Y-108458000D01*
X86671685Y-108458000D01*
X87336805Y-109123119D01*
X87584846Y-109038017D01*
X87694239Y-108427936D01*
X87584846Y-107877983D01*
X87336805Y-107792881D01*
X86671685Y-108458000D01*
X85540315Y-108458000D01*
X84875195Y-107792881D01*
X84627154Y-107877983D01*
X84517761Y-108488064D01*
X65252693Y-108488064D01*
X65252693Y-107227195D01*
X85440881Y-107227195D01*
X86106000Y-107892315D01*
X86771119Y-107227195D01*
X86686017Y-106979154D01*
X86075936Y-106869761D01*
X85525983Y-106979154D01*
X85440881Y-107227195D01*
X65252693Y-107227195D01*
X65252693Y-106708000D01*
X65200396Y-106430067D01*
X65036138Y-106174802D01*
X64785508Y-106003554D01*
X64488000Y-105943307D01*
X60988000Y-105943307D01*
X60710067Y-105995604D01*
X60454802Y-106159862D01*
X60283554Y-106410492D01*
X60223307Y-106708000D01*
X60223307Y-110208000D01*
X60275604Y-110485933D01*
X60376871Y-110643307D01*
X59098292Y-110643307D01*
X59192446Y-110505508D01*
X59252693Y-110208000D01*
X59252693Y-106708000D01*
X59200396Y-106430067D01*
X59036138Y-106174802D01*
X58785508Y-106003554D01*
X58488000Y-105943307D01*
X54988000Y-105943307D01*
X54710067Y-105995604D01*
X54454802Y-106159862D01*
X54283554Y-106410492D01*
X54223307Y-106708000D01*
X48764000Y-106708000D01*
X48764000Y-104611756D01*
X123118000Y-104611756D01*
X123118000Y-104684244D01*
X123258823Y-105392208D01*
X123659852Y-105992392D01*
X124260036Y-106393421D01*
X124968000Y-106534244D01*
X125675964Y-106393421D01*
X126047811Y-106144961D01*
X131037732Y-106144961D01*
X131273208Y-106714857D01*
X131708849Y-107151260D01*
X132278333Y-107387730D01*
X132894961Y-107388268D01*
X133464857Y-107152792D01*
X133901260Y-106717151D01*
X134137730Y-106147667D01*
X134138268Y-105531039D01*
X133902792Y-104961143D01*
X133467151Y-104524740D01*
X132897667Y-104288270D01*
X132281039Y-104287732D01*
X131711143Y-104523208D01*
X131274740Y-104958849D01*
X131038270Y-105528333D01*
X131037732Y-106144961D01*
X126047811Y-106144961D01*
X126276148Y-105992392D01*
X126677177Y-105392208D01*
X126818000Y-104684244D01*
X126818000Y-104611756D01*
X126677177Y-103903792D01*
X126276148Y-103303608D01*
X125675964Y-102902579D01*
X124968000Y-102761756D01*
X124260036Y-102902579D01*
X123659852Y-103303608D01*
X123258823Y-103903792D01*
X123118000Y-104611756D01*
X48764000Y-104611756D01*
X48764000Y-102108000D01*
X85489756Y-102108000D01*
X85630579Y-102815964D01*
X86031608Y-103416148D01*
X86631792Y-103817177D01*
X87339756Y-103958000D01*
X87412244Y-103958000D01*
X88120208Y-103817177D01*
X88720392Y-103416148D01*
X89121421Y-102815964D01*
X89262244Y-102108000D01*
X89121421Y-101400036D01*
X88859472Y-101008000D01*
X93131307Y-101008000D01*
X93131307Y-103208000D01*
X93183604Y-103485933D01*
X93347862Y-103741198D01*
X93598492Y-103912446D01*
X93896000Y-103972693D01*
X96096000Y-103972693D01*
X96373933Y-103920396D01*
X96629198Y-103756138D01*
X96800446Y-103505508D01*
X96860693Y-103208000D01*
X96860693Y-102585634D01*
X97002000Y-102585634D01*
X97002000Y-102646366D01*
X97119987Y-103239525D01*
X97455984Y-103742382D01*
X97958841Y-104078379D01*
X98552000Y-104196366D01*
X99145159Y-104078379D01*
X99648016Y-103742382D01*
X99984013Y-103239525D01*
X100102000Y-102646366D01*
X100102000Y-102585634D01*
X99999197Y-102068805D01*
X116682881Y-102068805D01*
X116767983Y-102316846D01*
X117378064Y-102426239D01*
X117928017Y-102316846D01*
X118013119Y-102068805D01*
X117348000Y-101403685D01*
X116682881Y-102068805D01*
X99999197Y-102068805D01*
X99984013Y-101992475D01*
X99648016Y-101489618D01*
X99145159Y-101153621D01*
X98552000Y-101035634D01*
X97958841Y-101153621D01*
X97455984Y-101489618D01*
X97119987Y-101992475D01*
X97002000Y-102585634D01*
X96860693Y-102585634D01*
X96860693Y-101008000D01*
X96834363Y-100868064D01*
X115759761Y-100868064D01*
X115869154Y-101418017D01*
X116117195Y-101503119D01*
X116782315Y-100838000D01*
X117913685Y-100838000D01*
X118578805Y-101503119D01*
X118826846Y-101418017D01*
X118936239Y-100807936D01*
X118826846Y-100257983D01*
X118578805Y-100172881D01*
X117913685Y-100838000D01*
X116782315Y-100838000D01*
X116117195Y-100172881D01*
X115869154Y-100257983D01*
X115759761Y-100868064D01*
X96834363Y-100868064D01*
X96808396Y-100730067D01*
X96644138Y-100474802D01*
X96393508Y-100303554D01*
X96096000Y-100243307D01*
X93896000Y-100243307D01*
X93618067Y-100295604D01*
X93362802Y-100459862D01*
X93191554Y-100710492D01*
X93131307Y-101008000D01*
X88859472Y-101008000D01*
X88720392Y-100799852D01*
X88120208Y-100398823D01*
X87412244Y-100258000D01*
X87339756Y-100258000D01*
X86631792Y-100398823D01*
X86031608Y-100799852D01*
X85630579Y-101400036D01*
X85489756Y-102108000D01*
X48764000Y-102108000D01*
X48764000Y-98270961D01*
X79475732Y-98270961D01*
X79711208Y-98840857D01*
X80146849Y-99277260D01*
X80716333Y-99513730D01*
X81332961Y-99514268D01*
X81902857Y-99278792D01*
X82339260Y-98843151D01*
X82565626Y-98298000D01*
X85489756Y-98298000D01*
X85630579Y-99005964D01*
X86031608Y-99606148D01*
X86631792Y-100007177D01*
X87339756Y-100148000D01*
X87412244Y-100148000D01*
X88120208Y-100007177D01*
X88720392Y-99606148D01*
X89121421Y-99005964D01*
X89262244Y-98298000D01*
X89121421Y-97590036D01*
X88720392Y-96989852D01*
X88120208Y-96588823D01*
X87412244Y-96448000D01*
X87339756Y-96448000D01*
X86631792Y-96588823D01*
X86031608Y-96989852D01*
X85630579Y-97590036D01*
X85489756Y-98298000D01*
X82565626Y-98298000D01*
X82575730Y-98273667D01*
X82576268Y-97657039D01*
X82340792Y-97087143D01*
X81905151Y-96650740D01*
X81335667Y-96414270D01*
X80719039Y-96413732D01*
X80149143Y-96649208D01*
X79712740Y-97084849D01*
X79476270Y-97654333D01*
X79475732Y-98270961D01*
X48764000Y-98270961D01*
X48764000Y-94648452D01*
X65824655Y-94648452D01*
X65940759Y-94904448D01*
X66632358Y-95008455D01*
X67155241Y-94904448D01*
X67271345Y-94648452D01*
X66548000Y-93925107D01*
X65824655Y-94648452D01*
X48764000Y-94648452D01*
X48764000Y-91064177D01*
X53929662Y-91064177D01*
X54225906Y-91781143D01*
X54773971Y-92330166D01*
X55490419Y-92627661D01*
X56266177Y-92628338D01*
X56983143Y-92332094D01*
X57532166Y-91784029D01*
X57584599Y-91657756D01*
X60634000Y-91657756D01*
X60634000Y-91730244D01*
X60774823Y-92438208D01*
X61175852Y-93038392D01*
X61776036Y-93439421D01*
X62484000Y-93580244D01*
X63191964Y-93439421D01*
X63397093Y-93302358D01*
X64757545Y-93302358D01*
X64861552Y-93825241D01*
X65117548Y-93941345D01*
X65840893Y-93218000D01*
X67255107Y-93218000D01*
X67978452Y-93941345D01*
X68234448Y-93825241D01*
X68273649Y-93564569D01*
X72297696Y-93564569D01*
X72563557Y-94208001D01*
X73055410Y-94700713D01*
X73698376Y-94967696D01*
X74394569Y-94968304D01*
X75038001Y-94702443D01*
X75530713Y-94210590D01*
X75797696Y-93567624D01*
X75797708Y-93553500D01*
X79468000Y-93553500D01*
X79468000Y-93914776D01*
X79583399Y-94193373D01*
X79796628Y-94406602D01*
X80075225Y-94522000D01*
X80436500Y-94522000D01*
X80626000Y-94332500D01*
X80626000Y-93364000D01*
X81426000Y-93364000D01*
X81426000Y-94332500D01*
X81615500Y-94522000D01*
X81976775Y-94522000D01*
X82255372Y-94406602D01*
X82468601Y-94193373D01*
X82584000Y-93914776D01*
X82584000Y-93553500D01*
X82394500Y-93364000D01*
X81426000Y-93364000D01*
X80626000Y-93364000D01*
X79657500Y-93364000D01*
X79468000Y-93553500D01*
X75797708Y-93553500D01*
X75798304Y-92871431D01*
X75532443Y-92227999D01*
X75318043Y-92013224D01*
X79468000Y-92013224D01*
X79468000Y-92374500D01*
X79657500Y-92564000D01*
X80626000Y-92564000D01*
X80626000Y-91595500D01*
X81426000Y-91595500D01*
X81426000Y-92564000D01*
X82394500Y-92564000D01*
X82584000Y-92374500D01*
X82584000Y-92013224D01*
X82468601Y-91734627D01*
X82255372Y-91521398D01*
X81976775Y-91406000D01*
X81615500Y-91406000D01*
X81426000Y-91595500D01*
X80626000Y-91595500D01*
X80436500Y-91406000D01*
X80075225Y-91406000D01*
X79796628Y-91521398D01*
X79583399Y-91734627D01*
X79468000Y-92013224D01*
X75318043Y-92013224D01*
X75040590Y-91735287D01*
X74397624Y-91468304D01*
X73701431Y-91467696D01*
X73057999Y-91733557D01*
X72565287Y-92225410D01*
X72298304Y-92868376D01*
X72297696Y-93564569D01*
X68273649Y-93564569D01*
X68338455Y-93133642D01*
X68234448Y-92610759D01*
X67978452Y-92494655D01*
X67255107Y-93218000D01*
X65840893Y-93218000D01*
X65117548Y-92494655D01*
X64861552Y-92610759D01*
X64757545Y-93302358D01*
X63397093Y-93302358D01*
X63792148Y-93038392D01*
X64193177Y-92438208D01*
X64322601Y-91787548D01*
X65824655Y-91787548D01*
X66548000Y-92510893D01*
X67271345Y-91787548D01*
X67155241Y-91531552D01*
X66463642Y-91427545D01*
X65940759Y-91531552D01*
X65824655Y-91787548D01*
X64322601Y-91787548D01*
X64334000Y-91730244D01*
X64334000Y-91657756D01*
X64193177Y-90949792D01*
X63792148Y-90349608D01*
X63191964Y-89948579D01*
X62484000Y-89807756D01*
X61776036Y-89948579D01*
X61175852Y-90349608D01*
X60774823Y-90949792D01*
X60634000Y-91657756D01*
X57584599Y-91657756D01*
X57829661Y-91067581D01*
X57830338Y-90291823D01*
X57534094Y-89574857D01*
X56986029Y-89025834D01*
X56366615Y-88768631D01*
X65123335Y-88768631D01*
X65420162Y-89212912D01*
X65917365Y-89562694D01*
X66148000Y-89454307D01*
X66148000Y-88538000D01*
X66948000Y-88538000D01*
X66948000Y-89454307D01*
X67178635Y-89562694D01*
X67675838Y-89212912D01*
X67972665Y-88768631D01*
X67951991Y-88727500D01*
X72610000Y-88727500D01*
X72610000Y-89088775D01*
X72725398Y-89367372D01*
X72938627Y-89580601D01*
X73217224Y-89696000D01*
X73578500Y-89696000D01*
X73768000Y-89506500D01*
X73768000Y-88538000D01*
X74568000Y-88538000D01*
X74568000Y-89506500D01*
X74757500Y-89696000D01*
X75118776Y-89696000D01*
X75397373Y-89580601D01*
X75610602Y-89367372D01*
X75726000Y-89088775D01*
X75726000Y-88727500D01*
X75697461Y-88698961D01*
X76935732Y-88698961D01*
X77171208Y-89268857D01*
X77606849Y-89705260D01*
X78176333Y-89941730D01*
X78792961Y-89942268D01*
X79362857Y-89706792D01*
X79799260Y-89271151D01*
X80035730Y-88701667D01*
X80036268Y-88085039D01*
X79800792Y-87515143D01*
X79365151Y-87078740D01*
X78795667Y-86842270D01*
X78179039Y-86841732D01*
X77609143Y-87077208D01*
X77172740Y-87512849D01*
X76936270Y-88082333D01*
X76935732Y-88698961D01*
X75697461Y-88698961D01*
X75536500Y-88538000D01*
X74568000Y-88538000D01*
X73768000Y-88538000D01*
X72799500Y-88538000D01*
X72610000Y-88727500D01*
X67951991Y-88727500D01*
X67856737Y-88538000D01*
X66948000Y-88538000D01*
X66148000Y-88538000D01*
X65239263Y-88538000D01*
X65123335Y-88768631D01*
X56366615Y-88768631D01*
X56269581Y-88728339D01*
X55493823Y-88727662D01*
X54776857Y-89023906D01*
X54227834Y-89571971D01*
X53930339Y-90288419D01*
X53929662Y-91064177D01*
X48764000Y-91064177D01*
X48764000Y-82974000D01*
X60619307Y-82974000D01*
X60619307Y-85174000D01*
X60671604Y-85451933D01*
X60835862Y-85707198D01*
X61086492Y-85878446D01*
X61384000Y-85938693D01*
X63584000Y-85938693D01*
X63861933Y-85886396D01*
X64117198Y-85722138D01*
X64288446Y-85471508D01*
X64348693Y-85174000D01*
X64348693Y-82974000D01*
X64296396Y-82696067D01*
X64132138Y-82440802D01*
X63881508Y-82269554D01*
X63584000Y-82209307D01*
X63272952Y-82209307D01*
X63792148Y-81862392D01*
X64193177Y-81262208D01*
X64334000Y-80554244D01*
X64334000Y-80518000D01*
X64967634Y-80518000D01*
X65085621Y-81111159D01*
X65421618Y-81614016D01*
X65682004Y-81788000D01*
X65421618Y-81961984D01*
X65085621Y-82464841D01*
X64967634Y-83058000D01*
X65085621Y-83651159D01*
X65421618Y-84154016D01*
X65682004Y-84328000D01*
X65421618Y-84501984D01*
X65085621Y-85004841D01*
X64967634Y-85598000D01*
X65085621Y-86191159D01*
X65345435Y-86580000D01*
X65297998Y-86580000D01*
X65297998Y-87245939D01*
X65123335Y-87507369D01*
X65239263Y-87738000D01*
X66148000Y-87738000D01*
X66148000Y-87338000D01*
X66948000Y-87338000D01*
X66948000Y-87738000D01*
X67856737Y-87738000D01*
X67972665Y-87507369D01*
X67798002Y-87245939D01*
X67798002Y-86580000D01*
X67750565Y-86580000D01*
X68010379Y-86191159D01*
X68128366Y-85598000D01*
X68010379Y-85004841D01*
X67674382Y-84501984D01*
X67413996Y-84328000D01*
X67674382Y-84154016D01*
X68010379Y-83651159D01*
X68128366Y-83058000D01*
X68010379Y-82464841D01*
X67674382Y-81961984D01*
X67413996Y-81788000D01*
X67674382Y-81614016D01*
X68010379Y-81111159D01*
X68128366Y-80518000D01*
X68010379Y-79924841D01*
X67674382Y-79421984D01*
X67171525Y-79085987D01*
X66578366Y-78968000D01*
X66517634Y-78968000D01*
X65924475Y-79085987D01*
X65421618Y-79421984D01*
X65085621Y-79924841D01*
X64967634Y-80518000D01*
X64334000Y-80518000D01*
X64334000Y-80481756D01*
X64193177Y-79773792D01*
X63792148Y-79173608D01*
X63191964Y-78772579D01*
X62484000Y-78631756D01*
X61776036Y-78772579D01*
X61175852Y-79173608D01*
X60774823Y-79773792D01*
X60634000Y-80481756D01*
X60634000Y-80554244D01*
X60774823Y-81262208D01*
X61175852Y-81862392D01*
X61695048Y-82209307D01*
X61384000Y-82209307D01*
X61106067Y-82261604D01*
X60850802Y-82425862D01*
X60679554Y-82676492D01*
X60619307Y-82974000D01*
X48764000Y-82974000D01*
X48764000Y-75399797D01*
X53930000Y-75399797D01*
X53930000Y-75476203D01*
X54078435Y-76222436D01*
X54501142Y-76855061D01*
X55133767Y-77277768D01*
X55880000Y-77426203D01*
X56626233Y-77277768D01*
X57258858Y-76855061D01*
X57681565Y-76222436D01*
X57830000Y-75476203D01*
X57830000Y-75399797D01*
X57681565Y-74653564D01*
X57258858Y-74020939D01*
X56685002Y-73637500D01*
X60626000Y-73637500D01*
X60626000Y-74148776D01*
X60741399Y-74427373D01*
X60954628Y-74640602D01*
X61233225Y-74756000D01*
X61744500Y-74756000D01*
X61934000Y-74566500D01*
X61934000Y-73448000D01*
X63034000Y-73448000D01*
X63034000Y-74566500D01*
X63223500Y-74756000D01*
X63734775Y-74756000D01*
X64013372Y-74640602D01*
X64226601Y-74427373D01*
X64342000Y-74148776D01*
X64342000Y-73637500D01*
X64152500Y-73448000D01*
X63034000Y-73448000D01*
X61934000Y-73448000D01*
X60815500Y-73448000D01*
X60626000Y-73637500D01*
X56685002Y-73637500D01*
X56626233Y-73598232D01*
X55880000Y-73449797D01*
X55133767Y-73598232D01*
X54501142Y-74020939D01*
X54078435Y-74653564D01*
X53930000Y-75399797D01*
X48764000Y-75399797D01*
X48764000Y-71182079D01*
X53117654Y-71182079D01*
X53421494Y-71917429D01*
X53983612Y-72480529D01*
X54718430Y-72785652D01*
X55514079Y-72786346D01*
X56249429Y-72482506D01*
X56812529Y-71920388D01*
X56925956Y-71647224D01*
X60626000Y-71647224D01*
X60626000Y-72158500D01*
X60815500Y-72348000D01*
X61934000Y-72348000D01*
X61934000Y-71229500D01*
X63034000Y-71229500D01*
X63034000Y-72348000D01*
X64152500Y-72348000D01*
X64342000Y-72158500D01*
X64342000Y-71647224D01*
X64226601Y-71368627D01*
X64013372Y-71155398D01*
X63734775Y-71040000D01*
X63223500Y-71040000D01*
X63034000Y-71229500D01*
X61934000Y-71229500D01*
X61744500Y-71040000D01*
X61233225Y-71040000D01*
X60954628Y-71155398D01*
X60741399Y-71368627D01*
X60626000Y-71647224D01*
X56925956Y-71647224D01*
X57117652Y-71185570D01*
X57118346Y-70389921D01*
X56814506Y-69654571D01*
X56252388Y-69091471D01*
X56156744Y-69051756D01*
X60888000Y-69051756D01*
X60888000Y-69124244D01*
X61028823Y-69832208D01*
X61429852Y-70432392D01*
X62030036Y-70833421D01*
X62738000Y-70974244D01*
X63445964Y-70833421D01*
X64046148Y-70432392D01*
X64156299Y-70267538D01*
X64155696Y-70958569D01*
X64421557Y-71602001D01*
X64913410Y-72094713D01*
X65556376Y-72361696D01*
X66252569Y-72362304D01*
X66896001Y-72096443D01*
X67388713Y-71604590D01*
X67655696Y-70961624D01*
X67655927Y-70696358D01*
X71615545Y-70696358D01*
X71719552Y-71219241D01*
X71975548Y-71335345D01*
X72698893Y-70612000D01*
X71975548Y-69888655D01*
X71719552Y-70004759D01*
X71615545Y-70696358D01*
X67655927Y-70696358D01*
X67656304Y-70265431D01*
X67390443Y-69621999D01*
X66898590Y-69129287D01*
X66255624Y-68862304D01*
X65559431Y-68861696D01*
X64915999Y-69127557D01*
X64505912Y-69536929D01*
X64588000Y-69124244D01*
X64588000Y-69051756D01*
X64447177Y-68343792D01*
X64046148Y-67743608D01*
X63445964Y-67342579D01*
X62738000Y-67201756D01*
X62030036Y-67342579D01*
X61429852Y-67743608D01*
X61028823Y-68343792D01*
X60888000Y-69051756D01*
X56156744Y-69051756D01*
X55517570Y-68786348D01*
X54721921Y-68785654D01*
X53986571Y-69089494D01*
X53423471Y-69651612D01*
X53118348Y-70386430D01*
X53117654Y-71182079D01*
X48764000Y-71182079D01*
X48764000Y-64536000D01*
X53103307Y-64536000D01*
X53103307Y-67036000D01*
X53155604Y-67313933D01*
X53319862Y-67569198D01*
X53570492Y-67740446D01*
X53868000Y-67800693D01*
X56368000Y-67800693D01*
X56645933Y-67748396D01*
X56901198Y-67584138D01*
X57072446Y-67333508D01*
X57132693Y-67036000D01*
X57132693Y-66162631D01*
X65631335Y-66162631D01*
X65928162Y-66606912D01*
X66425365Y-66956694D01*
X66656000Y-66848307D01*
X66656000Y-65932000D01*
X67456000Y-65932000D01*
X67456000Y-66848307D01*
X67686635Y-66956694D01*
X68183838Y-66606912D01*
X68480665Y-66162631D01*
X68459991Y-66121500D01*
X73118000Y-66121500D01*
X73118000Y-66482775D01*
X73233398Y-66761372D01*
X73446627Y-66974601D01*
X73725224Y-67090000D01*
X74086500Y-67090000D01*
X74276000Y-66900500D01*
X74276000Y-65932000D01*
X73307500Y-65932000D01*
X73118000Y-66121500D01*
X68459991Y-66121500D01*
X68364737Y-65932000D01*
X67456000Y-65932000D01*
X66656000Y-65932000D01*
X65747263Y-65932000D01*
X65631335Y-66162631D01*
X57132693Y-66162631D01*
X57132693Y-64536000D01*
X57080396Y-64258067D01*
X56916138Y-64002802D01*
X56665508Y-63831554D01*
X56368000Y-63771307D01*
X53868000Y-63771307D01*
X53590067Y-63823604D01*
X53334802Y-63987862D01*
X53163554Y-64238492D01*
X53103307Y-64536000D01*
X48764000Y-64536000D01*
X48764000Y-63242000D01*
X49022000Y-63242000D01*
X49119264Y-63222304D01*
X49201202Y-63166318D01*
X49254903Y-63082864D01*
X49271905Y-62985093D01*
X49245607Y-62880197D01*
X49018000Y-62424983D01*
X49018000Y-61052569D01*
X55907696Y-61052569D01*
X56173557Y-61696001D01*
X56665410Y-62188713D01*
X57308376Y-62455696D01*
X58004569Y-62456304D01*
X58648001Y-62190443D01*
X59140713Y-61698590D01*
X59407696Y-61055624D01*
X59408296Y-60368000D01*
X60873307Y-60368000D01*
X60873307Y-62568000D01*
X60925604Y-62845933D01*
X61089862Y-63101198D01*
X61340492Y-63272446D01*
X61638000Y-63332693D01*
X63838000Y-63332693D01*
X64115933Y-63280396D01*
X64371198Y-63116138D01*
X64542446Y-62865508D01*
X64602693Y-62568000D01*
X64602693Y-60368000D01*
X64550396Y-60090067D01*
X64386138Y-59834802D01*
X64135508Y-59663554D01*
X63838000Y-59603307D01*
X61638000Y-59603307D01*
X61360067Y-59655604D01*
X61104802Y-59819862D01*
X60933554Y-60070492D01*
X60873307Y-60368000D01*
X59408296Y-60368000D01*
X59408304Y-60359431D01*
X59142443Y-59715999D01*
X58650590Y-59223287D01*
X58007624Y-58956304D01*
X57311431Y-58955696D01*
X56667999Y-59221557D01*
X56175287Y-59713410D01*
X55908304Y-60356376D01*
X55907696Y-61052569D01*
X49018000Y-61052569D01*
X49018000Y-57621756D01*
X60888000Y-57621756D01*
X60888000Y-57694244D01*
X61028823Y-58402208D01*
X61429852Y-59002392D01*
X62030036Y-59403421D01*
X62738000Y-59544244D01*
X63445964Y-59403421D01*
X64046148Y-59002392D01*
X64447177Y-58402208D01*
X64544685Y-57912000D01*
X65475634Y-57912000D01*
X65593621Y-58505159D01*
X65929618Y-59008016D01*
X66190004Y-59182000D01*
X65929618Y-59355984D01*
X65593621Y-59858841D01*
X65475634Y-60452000D01*
X65593621Y-61045159D01*
X65929618Y-61548016D01*
X66190004Y-61722000D01*
X65929618Y-61895984D01*
X65593621Y-62398841D01*
X65475634Y-62992000D01*
X65593621Y-63585159D01*
X65853435Y-63974000D01*
X65805998Y-63974000D01*
X65805998Y-64639939D01*
X65631335Y-64901369D01*
X65747263Y-65132000D01*
X66656000Y-65132000D01*
X66656000Y-64732000D01*
X67456000Y-64732000D01*
X67456000Y-65132000D01*
X68364737Y-65132000D01*
X68480665Y-64901369D01*
X68306002Y-64639939D01*
X68306002Y-63974000D01*
X68258565Y-63974000D01*
X68518379Y-63585159D01*
X68636366Y-62992000D01*
X68518379Y-62398841D01*
X68182382Y-61895984D01*
X67921996Y-61722000D01*
X68182382Y-61548016D01*
X68518379Y-61045159D01*
X68636366Y-60452000D01*
X68518379Y-59858841D01*
X68182382Y-59355984D01*
X67921996Y-59182000D01*
X68182382Y-59008016D01*
X68518379Y-58505159D01*
X68636366Y-57912000D01*
X68518379Y-57318841D01*
X68182382Y-56815984D01*
X67679525Y-56479987D01*
X67086366Y-56362000D01*
X67025634Y-56362000D01*
X66432475Y-56479987D01*
X65929618Y-56815984D01*
X65593621Y-57318841D01*
X65475634Y-57912000D01*
X64544685Y-57912000D01*
X64588000Y-57694244D01*
X64588000Y-57621756D01*
X64447177Y-56913792D01*
X64046148Y-56313608D01*
X63445964Y-55912579D01*
X62738000Y-55771756D01*
X62030036Y-55912579D01*
X61429852Y-56313608D01*
X61028823Y-56913792D01*
X60888000Y-57621756D01*
X49018000Y-57621756D01*
X49018000Y-57507554D01*
X52972985Y-53552569D01*
X55907696Y-53552569D01*
X56173557Y-54196001D01*
X56665410Y-54688713D01*
X57308376Y-54955696D01*
X58004569Y-54956304D01*
X58648001Y-54690443D01*
X59140713Y-54198590D01*
X59158829Y-54154961D01*
X64235732Y-54154961D01*
X64471208Y-54724857D01*
X64906849Y-55161260D01*
X65476333Y-55397730D01*
X66092961Y-55398268D01*
X66662857Y-55162792D01*
X67099260Y-54727151D01*
X67335730Y-54157667D01*
X67336268Y-53541039D01*
X67100792Y-52971143D01*
X66665151Y-52534740D01*
X66095667Y-52298270D01*
X65479039Y-52297732D01*
X64909143Y-52533208D01*
X64472740Y-52968849D01*
X64236270Y-53538333D01*
X64235732Y-54154961D01*
X59158829Y-54154961D01*
X59407696Y-53555624D01*
X59408304Y-52859431D01*
X59142443Y-52215999D01*
X58650590Y-51723287D01*
X58007624Y-51456304D01*
X57311431Y-51455696D01*
X56667999Y-51721557D01*
X56175287Y-52213410D01*
X55908304Y-52856376D01*
X55907696Y-53552569D01*
X52972985Y-53552569D01*
X55748054Y-50777500D01*
X60880000Y-50777500D01*
X60880000Y-51288776D01*
X60995399Y-51567373D01*
X61208628Y-51780602D01*
X61487225Y-51896000D01*
X61998500Y-51896000D01*
X62188000Y-51706500D01*
X62188000Y-50588000D01*
X63288000Y-50588000D01*
X63288000Y-51706500D01*
X63477500Y-51896000D01*
X63988775Y-51896000D01*
X64267372Y-51780602D01*
X64480601Y-51567373D01*
X64596000Y-51288776D01*
X64596000Y-50777500D01*
X64406500Y-50588000D01*
X63288000Y-50588000D01*
X62188000Y-50588000D01*
X61069500Y-50588000D01*
X60880000Y-50777500D01*
X55748054Y-50777500D01*
X57738330Y-48787224D01*
X60880000Y-48787224D01*
X60880000Y-49298500D01*
X61069500Y-49488000D01*
X62188000Y-49488000D01*
X62188000Y-48369500D01*
X63288000Y-48369500D01*
X63288000Y-49488000D01*
X64406500Y-49488000D01*
X64596000Y-49298500D01*
X64596000Y-48787224D01*
X64506508Y-48571170D01*
X65112485Y-48571170D01*
X65219214Y-49107731D01*
X65471269Y-49208335D01*
X66165604Y-48514000D01*
X65471269Y-47819665D01*
X65219214Y-47920269D01*
X65112485Y-48571170D01*
X64506508Y-48571170D01*
X64480601Y-48508627D01*
X64267372Y-48295398D01*
X63988775Y-48180000D01*
X63477500Y-48180000D01*
X63288000Y-48369500D01*
X62188000Y-48369500D01*
X61998500Y-48180000D01*
X61487225Y-48180000D01*
X61208628Y-48295398D01*
X60995399Y-48508627D01*
X60880000Y-48787224D01*
X57738330Y-48787224D01*
X59538004Y-46987550D01*
X66146415Y-47086183D01*
G36*
X88700893Y-71682893D02*
X88484120Y-72007316D01*
X88460715Y-72124983D01*
X88408000Y-72390000D01*
X88408000Y-72452416D01*
X87865907Y-71910323D01*
X87413357Y-72362874D01*
X87049983Y-72435154D01*
X86964881Y-72683195D01*
X87630000Y-73348315D01*
X87912843Y-73065472D01*
X88408000Y-73560629D01*
X88408000Y-73701685D01*
X88195685Y-73914000D01*
X88460718Y-74179032D01*
X88484120Y-74296684D01*
X88700893Y-74621107D01*
X90395201Y-76315414D01*
X90367634Y-76454000D01*
X90485621Y-77047159D01*
X90821618Y-77550016D01*
X91082004Y-77724000D01*
X90821618Y-77897984D01*
X90485621Y-78400841D01*
X90400912Y-78826699D01*
X90154000Y-78579786D01*
X90154000Y-77470000D01*
X90092558Y-77161107D01*
X90077880Y-77087316D01*
X89861107Y-76762893D01*
X88845107Y-75746893D01*
X88520684Y-75530120D01*
X88138000Y-75454000D01*
X87902577Y-75454000D01*
X88210017Y-75392846D01*
X88295119Y-75144805D01*
X87630000Y-74479685D01*
X86964881Y-75144805D01*
X87049983Y-75392846D01*
X87391037Y-75454000D01*
X80264005Y-75454000D01*
X80264000Y-75453999D01*
X79881316Y-75530120D01*
X79556893Y-75746893D01*
X78776085Y-76527701D01*
X78486000Y-76470000D01*
X78103317Y-76546120D01*
X77778893Y-76762893D01*
X77678866Y-76912594D01*
X77454000Y-77062844D01*
X77454000Y-76708005D01*
X77454001Y-76708000D01*
X77377880Y-76325316D01*
X77161107Y-76000893D01*
X75676000Y-74515786D01*
X75676000Y-73914356D01*
X75757224Y-73948000D01*
X76118500Y-73948000D01*
X76308000Y-73758500D01*
X76308000Y-72790000D01*
X77108000Y-72790000D01*
X77108000Y-73758500D01*
X77297500Y-73948000D01*
X77658776Y-73948000D01*
X77668278Y-73944064D01*
X86041761Y-73944064D01*
X86151154Y-74494017D01*
X86399195Y-74579119D01*
X87064315Y-73914000D01*
X86399195Y-73248881D01*
X86151154Y-73333983D01*
X86041761Y-73944064D01*
X77668278Y-73944064D01*
X77937373Y-73832601D01*
X78150602Y-73619372D01*
X78266000Y-73340775D01*
X78266000Y-72979500D01*
X78076500Y-72790000D01*
X77108000Y-72790000D01*
X76308000Y-72790000D01*
X75908000Y-72790000D01*
X75908000Y-72696961D01*
X80157732Y-72696961D01*
X80393208Y-73266857D01*
X80828849Y-73703260D01*
X81398333Y-73939730D01*
X82014961Y-73940268D01*
X82584857Y-73704792D01*
X83021260Y-73269151D01*
X83257730Y-72699667D01*
X83258268Y-72083039D01*
X83022792Y-71513143D01*
X82587151Y-71076740D01*
X82017667Y-70840270D01*
X81401039Y-70839732D01*
X80831143Y-71075208D01*
X80394740Y-71510849D01*
X80158270Y-72080333D01*
X80157732Y-72696961D01*
X75908000Y-72696961D01*
X75908000Y-72309825D01*
X76107880Y-72010683D01*
X76111994Y-71990000D01*
X76308000Y-71990000D01*
X76308000Y-71590000D01*
X77108000Y-71590000D01*
X77108000Y-71990000D01*
X78076500Y-71990000D01*
X78266000Y-71800500D01*
X78266000Y-71439225D01*
X78150602Y-71160628D01*
X77958002Y-70968028D01*
X77958002Y-70843701D01*
X89662002Y-70721784D01*
X88700893Y-71682893D01*
X88700893Y-71682893D01*
G37*
X88700893Y-71682893D02*
X88484120Y-72007316D01*
X88460715Y-72124983D01*
X88408000Y-72390000D01*
X88408000Y-72452416D01*
X87865907Y-71910323D01*
X87413357Y-72362874D01*
X87049983Y-72435154D01*
X86964881Y-72683195D01*
X87630000Y-73348315D01*
X87912843Y-73065472D01*
X88408000Y-73560629D01*
X88408000Y-73701685D01*
X88195685Y-73914000D01*
X88460718Y-74179032D01*
X88484120Y-74296684D01*
X88700893Y-74621107D01*
X90395201Y-76315414D01*
X90367634Y-76454000D01*
X90485621Y-77047159D01*
X90821618Y-77550016D01*
X91082004Y-77724000D01*
X90821618Y-77897984D01*
X90485621Y-78400841D01*
X90400912Y-78826699D01*
X90154000Y-78579786D01*
X90154000Y-77470000D01*
X90092558Y-77161107D01*
X90077880Y-77087316D01*
X89861107Y-76762893D01*
X88845107Y-75746893D01*
X88520684Y-75530120D01*
X88138000Y-75454000D01*
X87902577Y-75454000D01*
X88210017Y-75392846D01*
X88295119Y-75144805D01*
X87630000Y-74479685D01*
X86964881Y-75144805D01*
X87049983Y-75392846D01*
X87391037Y-75454000D01*
X80264005Y-75454000D01*
X80264000Y-75453999D01*
X79881316Y-75530120D01*
X79556893Y-75746893D01*
X78776085Y-76527701D01*
X78486000Y-76470000D01*
X78103317Y-76546120D01*
X77778893Y-76762893D01*
X77678866Y-76912594D01*
X77454000Y-77062844D01*
X77454000Y-76708005D01*
X77454001Y-76708000D01*
X77377880Y-76325316D01*
X77161107Y-76000893D01*
X75676000Y-74515786D01*
X75676000Y-73914356D01*
X75757224Y-73948000D01*
X76118500Y-73948000D01*
X76308000Y-73758500D01*
X76308000Y-72790000D01*
X77108000Y-72790000D01*
X77108000Y-73758500D01*
X77297500Y-73948000D01*
X77658776Y-73948000D01*
X77668278Y-73944064D01*
X86041761Y-73944064D01*
X86151154Y-74494017D01*
X86399195Y-74579119D01*
X87064315Y-73914000D01*
X86399195Y-73248881D01*
X86151154Y-73333983D01*
X86041761Y-73944064D01*
X77668278Y-73944064D01*
X77937373Y-73832601D01*
X78150602Y-73619372D01*
X78266000Y-73340775D01*
X78266000Y-72979500D01*
X78076500Y-72790000D01*
X77108000Y-72790000D01*
X76308000Y-72790000D01*
X75908000Y-72790000D01*
X75908000Y-72696961D01*
X80157732Y-72696961D01*
X80393208Y-73266857D01*
X80828849Y-73703260D01*
X81398333Y-73939730D01*
X82014961Y-73940268D01*
X82584857Y-73704792D01*
X83021260Y-73269151D01*
X83257730Y-72699667D01*
X83258268Y-72083039D01*
X83022792Y-71513143D01*
X82587151Y-71076740D01*
X82017667Y-70840270D01*
X81401039Y-70839732D01*
X80831143Y-71075208D01*
X80394740Y-71510849D01*
X80158270Y-72080333D01*
X80157732Y-72696961D01*
X75908000Y-72696961D01*
X75908000Y-72309825D01*
X76107880Y-72010683D01*
X76111994Y-71990000D01*
X76308000Y-71990000D01*
X76308000Y-71590000D01*
X77108000Y-71590000D01*
X77108000Y-71990000D01*
X78076500Y-71990000D01*
X78266000Y-71800500D01*
X78266000Y-71439225D01*
X78150602Y-71160628D01*
X77958002Y-70968028D01*
X77958002Y-70843701D01*
X89662002Y-70721784D01*
X88700893Y-71682893D01*
G36*
X140466000Y-56491554D02*
X140466000Y-57142696D01*
X140284200Y-56960896D01*
X139966002Y-57279094D01*
X139408893Y-56721985D01*
X139408893Y-56563411D01*
X139647804Y-56324500D01*
X139408893Y-56085589D01*
X139408893Y-55927015D01*
X139655177Y-55680731D01*
X140466000Y-56491554D01*
X140466000Y-56491554D01*
G37*
X140466000Y-56491554D02*
X140466000Y-57142696D01*
X140284200Y-56960896D01*
X139966002Y-57279094D01*
X139408893Y-56721985D01*
X139408893Y-56563411D01*
X139647804Y-56324500D01*
X139408893Y-56085589D01*
X139408893Y-55927015D01*
X139655177Y-55680731D01*
X140466000Y-56491554D01*
M02*
