M48
;DRILL file {KiCad 4.0.7} date 04/02/19 10:32:41
;FORMAT={-:-/ absolute / metric / decimal}
FMAT,2
METRIC,TZ
T1C0.400
T2C0.800
T3C0.900
T4C1.000
T5C1.100
T6C1.200
T7C1.300
T8C3.048
%
G90
G05
M71
T1
X118.618Y-66.04
X126.238Y-71.628
T2
X65.786Y-53.848
X66.548Y-80.518
X66.548Y-83.058
X66.548Y-85.598
X66.548Y-88.138
X67.056Y-57.912
X67.056Y-60.452
X67.056Y-62.992
X67.056Y-65.532
X72.644Y-122.508
X72.644Y-127.508
X74.168Y-80.518
X74.168Y-83.058
X74.168Y-85.598
X74.168Y-88.138
X74.676Y-57.912
X74.676Y-60.452
X74.676Y-62.992
X74.676Y-65.532
X75.946Y-53.848
X76.708Y-72.39
X78.486Y-78.232
X78.486Y-88.392
X81.026Y-92.964
X81.026Y-97.964
X81.708Y-72.39
X82.55Y-78.232
X82.55Y-88.392
X83.748Y-57.078
X86.106Y-108.458
X86.106Y-118.618
X87.63Y-73.914
X87.63Y-78.914
X90.932Y-64.262
X91.948Y-73.914
X91.948Y-76.454
X91.948Y-78.994
X91.948Y-81.534
X91.948Y-84.074
X91.948Y-86.614
X91.948Y-89.154
X94.488Y-58.166
X94.488Y-60.706
X94.488Y-63.246
X97.028Y-125.222
X98.552Y-92.456
X98.552Y-102.616
X99.568Y-73.914
X99.568Y-76.454
X99.568Y-78.994
X99.568Y-81.534
X99.568Y-84.074
X99.568Y-86.614
X99.568Y-89.154
X101.854Y-95.504
X102.028Y-125.222
X102.108Y-58.166
X102.108Y-60.706
X102.108Y-63.246
X104.394Y-73.914
X104.394Y-78.914
X104.394Y-82.122
X104.394Y-87.122
X105.664Y-58.166
X105.664Y-68.326
X109.474Y-58.166
X109.474Y-68.326
X112.014Y-95.504
X113.284Y-58.166
X113.284Y-68.326
X116.078Y-71.628
X116.078Y-74.168
X116.078Y-76.708
X116.078Y-79.248
X116.078Y-81.788
X116.078Y-84.328
X116.078Y-86.868
X117.348Y-100.838
X118.618Y-97.028
X121.158Y-136.398
X123.698Y-71.628
X123.698Y-74.168
X123.698Y-76.708
X123.698Y-79.248
X123.698Y-81.788
X123.698Y-84.328
X123.698Y-86.868
X123.838Y-62.141
X125.476Y-93.472
X127.508Y-100.838
X127.588Y-88.9
X128.778Y-65.278
X128.778Y-75.438
X128.778Y-97.028
X131.318Y-136.398
X132.588Y-88.9
X132.588Y-100.838
X132.588Y-105.838
X133.998Y-62.141
X135.636Y-93.472
X138.57Y-61.904
X138.57Y-66.904
T3
X66.802Y-48.514
X69.342Y-48.514
X137.744Y-56.325
X140.284Y-56.325
T4
X57.658Y-53.206
X57.658Y-60.706
X65.906Y-70.612
X66.548Y-93.218
X73.406Y-70.612
X74.048Y-93.218
X79.502Y-124.714
X81.534Y-135.382
X82.042Y-124.714
X84.074Y-135.382
X84.582Y-124.714
X86.614Y-135.382
X89.662Y-94.234
X92.202Y-94.234
X94.742Y-94.234
X104.14Y-90.678
X106.68Y-90.678
X109.594Y-116.586
X117.094Y-116.586
X133.858Y-70.358
X133.858Y-72.898
X133.858Y-75.438
T5
X62.484Y-72.898
X62.484Y-80.518
X62.484Y-84.074
X62.484Y-91.694
X62.738Y-50.038
X62.738Y-57.658
X62.738Y-61.468
X62.738Y-69.088
X76.454Y-131.318
X84.074Y-131.318
X87.376Y-98.298
X87.376Y-102.108
X94.996Y-98.298
X94.996Y-102.108
X98.044Y-113.03
X98.044Y-120.65
X102.108Y-113.03
X102.108Y-120.65
X121.158Y-109.728
X121.158Y-117.348
X121.158Y-123.698
X121.158Y-131.318
X124.968Y-104.648
X124.968Y-112.268
X124.968Y-121.158
X124.968Y-128.778
X128.778Y-79.248
X128.778Y-83.058
X136.398Y-79.248
X136.398Y-83.058
T6
X55.88Y-75.438
X55.88Y-90.678
X72.898Y-112.776
X80.398Y-112.776
X104.61Y-52.807
X109.61Y-52.807
X109.982Y-121.666
X109.982Y-136.906
X114.61Y-52.807
X116.332Y-121.412
X116.332Y-136.652
X124.168Y-52.642
X129.168Y-52.642
X134.168Y-52.642
T7
X55.118Y-65.786
X55.118Y-70.786
X55.118Y-122.428
X55.118Y-127.428
X64.008Y-117.348
X64.008Y-122.448
X64.008Y-127.548
X64.008Y-132.648
X86.106Y-50.8
X91.106Y-50.8
X96.774Y-133.858
X101.774Y-133.858
X132.588Y-112.348
X132.588Y-117.348
X132.588Y-123.778
X132.588Y-128.778
T8
X50.Y-50.
X50.Y-140.
X140.Y-50.
X140.Y-140.
T4
X56.738Y-107.458G85X56.738Y-109.458
G05
X58.738Y-113.158G85X60.738Y-113.158
G05
X62.738Y-107.458G85X62.738Y-109.458
G05
T0
M30
