M48
;DRILL file {KiCad 4.0.7} date 11/09/20 07:12:11
;FORMAT={-:-/ absolute / metric / decimal}
FMAT,2
METRIC,TZ
T1C0.400
T2C0.800
T3C0.900
T4C1.000
T5C1.100
T6C1.200
T7C1.300
T8C3.048
%
G90
G05
M71
T1
X95.02Y-81.58
T2
X65.786Y-53.848
X66.548Y-80.518
X66.548Y-83.058
X66.548Y-85.598
X66.548Y-88.138
X67.056Y-57.912
X67.056Y-60.452
X67.056Y-62.992
X67.056Y-65.532
X72.644Y-122.508
X72.644Y-127.508
X74.168Y-80.518
X74.168Y-83.058
X74.168Y-85.598
X74.168Y-88.138
X74.676Y-57.912
X74.676Y-60.452
X74.676Y-62.992
X74.676Y-65.532
X75.946Y-53.848
X76.708Y-72.39
X78.486Y-78.232
X78.486Y-88.392
X81.026Y-92.964
X81.026Y-97.964
X81.708Y-72.39
X82.55Y-78.232
X82.55Y-88.392
X83.748Y-57.078
X86.106Y-108.458
X86.106Y-118.618
X89.31Y-84.63
X89.31Y-94.79
X90.932Y-64.262
X92.62Y-94.37
X92.85Y-73.99
X92.85Y-76.53
X92.85Y-79.07
X92.85Y-81.61
X92.85Y-84.15
X92.85Y-86.69
X92.85Y-89.23
X94.488Y-58.166
X94.488Y-60.706
X94.488Y-63.246
X97.028Y-125.222
X100.47Y-73.99
X100.47Y-76.53
X100.47Y-79.07
X100.47Y-81.61
X100.47Y-84.15
X100.47Y-86.69
X100.47Y-89.23
X102.028Y-125.222
X102.108Y-58.166
X102.108Y-60.706
X102.108Y-63.246
X102.64Y-69.8
X102.78Y-94.37
X104.394Y-82.122
X104.394Y-87.122
X107.46Y-57.56
X107.46Y-62.56
X107.64Y-69.8
X111.52Y-57.8
X111.52Y-67.96
X113.74Y-94.86
X113.74Y-99.86
X113.88Y-73.13
X113.88Y-75.67
X113.88Y-78.21
X113.88Y-80.75
X113.88Y-83.29
X113.88Y-85.83
X113.88Y-88.37
X113.88Y-90.91
X114.87Y-57.84
X114.87Y-68.
X118.22Y-57.91
X118.22Y-68.07
X118.25Y-97.
X118.25Y-100.75
X121.158Y-136.398
X121.5Y-73.13
X121.5Y-75.67
X121.5Y-78.21
X121.5Y-80.75
X121.5Y-83.29
X121.5Y-85.83
X121.5Y-88.37
X121.5Y-90.91
X125.38Y-73.26
X125.38Y-75.8
X125.38Y-78.34
X125.38Y-80.88
X125.38Y-83.42
X125.38Y-85.96
X125.38Y-88.5
X126.23Y-69.01
X126.29Y-93.
X126.37Y-64.16
X128.41Y-97.
X128.41Y-100.75
X131.23Y-69.01
X131.29Y-93.
X131.318Y-136.398
X131.34Y-97.
X131.37Y-64.16
X133.Y-73.26
X133.Y-75.8
X133.Y-78.34
X133.Y-80.88
X133.Y-83.42
X133.Y-85.96
X133.Y-88.5
X136.71Y-71.3
X136.71Y-81.46
X139.95Y-71.33
X139.95Y-81.49
X141.5Y-97.
T3
X66.802Y-48.514
X69.342Y-48.514
X137.744Y-56.325
X140.284Y-56.325
T4
X57.658Y-53.206
X57.658Y-60.706
X65.906Y-70.612
X66.548Y-93.218
X73.406Y-70.612
X74.048Y-93.218
X80.42Y-125.75
X81.534Y-135.382
X82.96Y-125.75
X84.074Y-135.382
X85.5Y-125.75
X86.614Y-135.382
X88.77Y-74.87
X88.77Y-77.41
X88.77Y-79.95
X104.14Y-90.678
X106.68Y-90.678
X109.36Y-79.47
X109.36Y-82.01
X109.36Y-84.55
X109.594Y-116.586
X117.094Y-116.586
X136.02Y-63.
X136.02Y-65.54
X136.02Y-68.08
T5
X62.484Y-72.898
X62.484Y-80.518
X62.484Y-84.074
X62.484Y-91.694
X62.738Y-50.038
X62.738Y-57.658
X62.738Y-61.468
X62.738Y-69.088
X76.454Y-131.318
X84.074Y-131.318
X98.044Y-113.03
X98.044Y-120.65
X98.33Y-101.31
X98.44Y-98.07
X102.108Y-113.03
X102.108Y-120.65
X105.95Y-101.31
X106.06Y-98.07
X121.158Y-109.728
X121.158Y-117.348
X121.158Y-123.698
X121.158Y-131.318
X124.84Y-109.67
X124.84Y-117.29
X124.968Y-121.158
X124.968Y-128.778
X136.83Y-84.78
X136.83Y-92.4
X140.37Y-84.8
X140.37Y-92.42
T6
X55.88Y-75.438
X55.88Y-90.678
X72.898Y-112.776
X80.398Y-112.776
X104.61Y-52.807
X109.61Y-52.807
X109.982Y-121.666
X109.982Y-136.906
X114.61Y-52.807
X116.332Y-121.412
X116.332Y-136.652
X124.168Y-52.642
X129.168Y-52.642
X134.168Y-52.642
T7
X55.118Y-65.786
X55.118Y-70.786
X55.118Y-122.428
X55.118Y-127.428
X64.008Y-117.348
X64.008Y-122.448
X64.008Y-127.548
X64.008Y-132.648
X86.106Y-50.8
X91.106Y-50.8
X96.774Y-133.858
X101.774Y-133.858
X132.588Y-112.348
X132.588Y-117.348
X132.588Y-123.778
X132.588Y-128.778
T8
X50.Y-50.
X50.Y-140.
X140.Y-50.
X140.Y-140.
T4
X56.738Y-107.458G85X56.738Y-109.458
G05
X58.738Y-113.158G85X60.738Y-113.158
G05
X62.738Y-107.458G85X62.738Y-109.458
G05
T0
M30
